<?xml version="1.0" encoding="UTF-8"?>
<svg id="Layer_2" data-name="Layer 2" xmlns="http://www.w3.org/2000/svg" viewBox="0 0 60 60">
  <defs>
    <style>
      .cls-1 {
        fill: #198b5f;
      }

      .cls-2 {
        fill: #fff;
      }
    </style>
  </defs>
  <g id="Layer_1-2" data-name="Layer 1">
    <g>
      <path class="cls-1" d="M60,30c0,16.57-13.43,30-30,30S0,46.57,0,30,13.43,0,30,0s30,13.43,30,30"/>
      <path class="cls-2" d="M22.21,35.31c-.42,0-.77-.34-.77-.77V10.58c0-.42.34-.77.77-.77s.77.34.77.77v23.97c0,.42-.34.77-.77.77"/>
      <path class="cls-2" d="M32.39,29.73c-.13,0-.26-.03-.39-.1l-20.7-12.04c-.37-.21-.49-.68-.28-1.05.21-.37.68-.49,1.05-.28l20.7,12.04c.37.21.49.68.27,1.05-.14.25-.4.38-.66.38"/>
      <path class="cls-2" d="M11.69,30.02c-.26,0-.51-.13-.66-.37-.22-.36-.1-.83.26-1.05l21.05-12.63c.36-.22.83-.1,1.05.26.22.36.1.83-.26,1.05l-21.05,12.63c-.12.08-.26.11-.39.11"/>
      <path class="cls-2" d="M22.13,18.11l-4.25-5.3c-.27-.33-.21-.81.12-1.08.33-.26.81-.21,1.08.12l3.11,3.88,3.43-3.9c.28-.32.76-.35,1.08-.07.32.28.35.76.07,1.08l-4.64,5.27Z"/>
      <path class="cls-2" d="M33.55,21.61s-.1,0-.15-.01l-6.89-1.34,2.43-6.35c.15-.39.59-.59.99-.44.4.15.59.59.44.99l-1.78,4.65,5.1.99c.41.08.69.48.6.9-.07.37-.39.62-.75.62"/>
      <path class="cls-2" d="M26.01,34.61c-.22,0-.45-.1-.6-.29l-3.11-3.88-3.43,3.91c-.28.32-.76.35-1.08.07-.32-.28-.35-.76-.07-1.08l4.63-5.28,4.25,5.3c.27.33.21.81-.12,1.07-.14.11-.31.17-.48.17"/>
      <path class="cls-2" d="M14.68,32.32c-.09,0-.18-.02-.27-.05-.4-.15-.59-.59-.44-.99l1.78-4.64-5.1-.99c-.42-.08-.69-.48-.61-.9.08-.42.49-.68.9-.61l6.89,1.34-2.43,6.35c-.12.31-.41.49-.72.49"/>
      <path class="cls-2" d="M29.54,32.71c-.32,0-.62-.2-.72-.52l-2.26-6.65,6.72-1.05c.41-.06.81.22.87.64.07.42-.22.81-.64.87l-4.91.77,1.68,4.92c.14.4-.08.83-.48.97-.08.03-.16.04-.25.04"/>
      <path class="cls-2" d="M10.83,21.47c-.37,0-.7-.27-.76-.65-.06-.42.22-.81.64-.87l4.91-.77-1.67-4.92c-.14-.4.08-.84.48-.97.4-.14.84.08.97.48l2.26,6.65-6.72,1.05s-.08,0-.12,0"/>
      <path class="cls-1" d="M50.08,25.19c-7.76-.61-10.03-4.91-10.14-5.12-.33-.68-1.02-1.11-1.78-1.12-.76,0-1.48.43-1.82,1.12-.09.18-2.35,4.52-10.14,5.13-.72.05-1.29.63-1.29,1.35v8.61c0,9.97,11.82,16.15,12.32,16.41.29.15.6.22.92.22s.63-.08.91-.22c.5-.26,12.32-6.44,12.32-16.41v-8.61c0-.72-.57-1.29-1.29-1.35"/>
      <path class="cls-2" d="M44.13,33.87l-6.2,6.2c-.35.35-.8.52-1.26.52s-.92-.17-1.26-.52l-3.24-3.24c-.7-.7-.7-1.82,0-2.52.7-.7,1.83-.7,2.52,0l1.98,1.98,4.94-4.94c.7-.69,1.83-.69,2.52,0,.7.7.7,1.83,0,2.52M48.79,26.29c-6.92-.55-8.94-4.37-9.04-4.57-.29-.61-.91-.99-1.59-1-.68,0-1.32.38-1.62.99-.08.16-2.09,4.03-9.04,4.57-.64.05-1.15.56-1.15,1.2v7.68c0,8.89,10.54,14.4,10.98,14.63.26.13.54.2.82.2s.56-.07.82-.2c.45-.23,10.98-5.74,10.98-14.63v-7.68c0-.64-.51-1.15-1.15-1.2"/>
    </g>
  </g>
</svg>