<?xml version="1.0" encoding="UTF-8"?>
<svg id="Layer_2" data-name="Layer 2" xmlns="http://www.w3.org/2000/svg" viewBox="0 0 60 60">
  <defs>
    <style>
      .cls-1 {
        fill: #198b5f;
      }

      .cls-2 {
        fill: #fff;
      }
    </style>
  </defs>
  <g id="Layer_1-2" data-name="Layer 1">
    <g>
      <path class="cls-1" d="M60,30c0,16.57-13.43,30-30,30S0,46.57,0,30,13.43,0,30,0s30,13.43,30,30"/>
      <path class="cls-2" d="M18.06,41.51c-.31.36-.67.67-1.1.92-.1.05-.2.1-.3.16,2.42,2.57,5.57,4.44,9.11,5.27,0-.11-.02-.23-.02-.35,0-.49.08-.95.24-1.39-3.08-.76-5.82-2.39-7.94-4.61"/>
      <path class="cls-2" d="M12.72,35.08c.41-.25.87-.41,1.33-.5-.42-1.45-.65-2.99-.65-4.58,0-.77.05-1.52.16-2.25-.45-.71-.9-1.46-1.35-2.24-.37,1.43-.56,2.95-.56,4.49,0,1.84.27,3.6.78,5.27.1-.07.19-.13.29-.19"/>
      <path class="cls-2" d="M41.95,41.52c-2.13,2.21-4.88,3.84-7.95,4.6.16.44.24.9.24,1.39,0,.11,0,.24-.02.35,3.55-.83,6.69-2.7,9.11-5.27-.1-.05-.2-.1-.3-.16-.42-.25-.79-.55-1.09-.91"/>
      <path class="cls-2" d="M26,13.89c-.17-.44-.25-.91-.25-1.4,0-.11,0-.23.02-.34-3.28.78-6.23,2.44-8.57,4.72.67.1,1.39.23,2.13.41,1.91-1.6,4.18-2.78,6.67-3.39"/>
      <path class="cls-2" d="M46.48,28c.08.65.12,1.32.12,2,0,1.59-.23,3.13-.65,4.58.46.09.92.25,1.33.5.1.06.2.12.3.19.51-1.67.78-3.43.78-5.27,0-1.49-.17-2.94-.52-4.33-.45.81-.9,1.58-1.35,2.32"/>
      <path class="cls-2" d="M40.67,17.3c.75-.17,1.47-.31,2.15-.41-2.35-2.29-5.3-3.96-8.6-4.74,0,.11.02.23.02.34,0,.49-.09.96-.25,1.4,2.49.61,4.76,1.8,6.68,3.41"/>
      <path class="cls-2" d="M30,45.01c-1.38,0-2.49,1.12-2.49,2.49s1.12,2.49,2.49,2.49,2.49-1.12,2.49-2.49-1.12-2.49-2.49-2.49"/>
      <path class="cls-2" d="M17,37.51c-.69-1.19-2.21-1.6-3.41-.91-1.19.69-1.6,2.21-.91,3.41.69,1.19,2.21,1.6,3.41.91s1.6-2.21.91-3.41"/>
      <path class="cls-2" d="M30,14.99c1.38,0,2.49-1.12,2.49-2.49s-1.12-2.49-2.49-2.49-2.49,1.12-2.49,2.49,1.12,2.49,2.49,2.49"/>
      <path class="cls-2" d="M46.41,36.59c-1.19-.69-2.72-.28-3.41.91-.69,1.19-.28,2.72.91,3.41,1.19.69,2.72.28,3.41-.91.69-1.19.28-2.72-.91-3.41"/>
      <path class="cls-2" d="M24.48,35.25c1.15.17,2.33.07,3.47-.22l-.32-.24c-.4-.31-1.63-1.22-1.89-3.07-.1-.73-.03-1.49.2-2.33-2.46-2.89-5.81-5.23-7.41-6.05,3.14,1.14,5.85,2.62,8.01,4.42.5-1.04,1.2-2.16,2.12-3.38-4.7-5.54-13.25-6.22-16.67-6.11-.73.02-1.2.77-.88,1.42,1.2,2.46,4.05,8.08,7.43,11.92,2.3,2.59,4.22,3.39,5.93,3.63"/>
      <path class="cls-2" d="M47.94,18.27c-3.66-.07-12.82.78-17.65,6.87-4.4,5.67-2.63,7.49-1.61,8.25,2.31-4.25,6.67-7.5,12.46-9.69-1.97,1.03-6.42,4.3-8.96,8.11-2.72,3.91-3.51,7.91-3.79,9.08-.24.97.56,1.77,1.49,1.63.67-.1,1.18-.63,1.24-1.3.1-1.05.36-2.76,1.07-4.75,2.53-.05,5.33.26,9.04-4.04,3.52-4.08,6.44-10.04,7.67-12.66.33-.69-.18-1.48-.94-1.49"/>
    </g>
  </g>
</svg>