<?xml version="1.0" encoding="UTF-8"?>
<svg id="Layer_2" data-name="Layer 2" xmlns="http://www.w3.org/2000/svg" viewBox="0 0 60 60">
  <defs>
    <style>
      .cls-1 {
        fill: #198b5f;
      }

      .cls-2 {
        fill: #fff;
      }
    </style>
  </defs>
  <g id="Layer_1-2" data-name="Layer 1">
    <g>
      <path class="cls-1" d="M60,30c0,16.57-13.43,30-30,30S0,46.57,0,30,13.43,0,30,0s30,13.43,30,30"/>
      <path class="cls-2" d="M43.4,15.51c-.22-.31-.58-.51-.97-.51s-.74.2-.96.51c-.48.66-3.51,5.03-5.3,9.03,2.28,3.78,4.77,8.65,4.92,12.11.44.08.89.13,1.34.13,4.18,0,7.57-3.4,7.57-7.56s-5.93-12.75-6.61-13.71"/>
      <path class="cls-2" d="M18.53,15.51c-.22-.31-.58-.51-.96-.51s-.74.2-.97.51c-.68.96-6.6,9.46-6.6,13.71s3.4,7.56,7.57,7.56c.45,0,.9-.04,1.34-.13.15-3.46,2.64-8.33,4.92-12.11-1.79-4.01-4.82-8.37-5.3-9.03"/>
      <path class="cls-2" d="M30,42.94c-.53,0-.97-.43-.97-.97s.43-.97.97-.97c2.23,0,4.04-1.81,4.04-4.04,0-.34-.12-1.19-.89-3.01-.21-.49.02-1.06.51-1.27s1.06.02,1.27.51c.71,1.65,1.05,2.89,1.05,3.77,0,3.29-2.68,5.97-5.98,5.97M31.13,20.88c-.26-.37-.68-.59-1.13-.59s-.87.22-1.13.59c-.79,1.12-7.75,11.11-7.75,16.09s3.99,8.88,8.88,8.88,8.88-3.98,8.88-8.88-6.96-14.96-7.75-16.09"/>
    </g>
  </g>
</svg>