<?xml version="1.0" encoding="UTF-8"?>
<svg id="Layer_2" data-name="Layer 2" xmlns="http://www.w3.org/2000/svg" viewBox="0 0 60 60">
  <defs>
    <style>
      .cls-1 {
        fill: #198b5f;
      }

      .cls-2 {
        fill: #fff;
      }
    </style>
  </defs>
  <g id="Layer_1-2" data-name="Layer 1">
    <g>
      <path class="cls-1" d="M60,30c0,16.57-13.43,30-30,30S0,46.57,0,30,13.43,0,30,0s30,13.43,30,30"/>
      <path class="cls-2" d="M24.84,44.42c-2.62-1.56-2.66-5.58-.27-8.91-1.27,3.95,2.69,5,1.89,1.63-1.04-4.38.5-5.33.5-5.33,0,.11,0,2.17,1.16,2.9,2.19,1.49-1.27-4.35,2.35-6.67-.5,1.92-.31,3.26.69,4.89,1,1.63,1.93-.69,1.81-2.17,0,0,1.92,1.09.89,5.47-.81,3.41,3.27,1.63,2-2.32,2.46,3.48,2.62,8.66-.19,10.51,10.55.22,11.78-13.88,5.62-22.61,2.54,7.97-5.7,11.56-4.08,4.71,2.12-8.8-1.77-11.05-1.77-11.05.23,3.04-1.58,7.68-3.62,4.38-2.04-3.3-2.46-5.98-1.42-9.85-7.31,4.71-.27,16.48-4.81,13.44-2.35-1.49-2.31-5.87-2.31-5.87,0,0-3.12,1.92-1,10.76,1.62,6.85-6.39,4.71-3.81-3.26-6.16,8.66-4.08,19.49,6.39,19.34"/>
      <path class="cls-2" d="M43.28,46.57h-26.54c-.95,0-1.72.77-1.72,1.72s.77,1.72,1.72,1.72h26.54c.95,0,1.72-.77,1.72-1.72s-.77-1.72-1.72-1.72"/>
    </g>
  </g>
</svg>