<?xml version="1.0" encoding="UTF-8"?>
<svg id="Layer_2" data-name="Layer 2" xmlns="http://www.w3.org/2000/svg" viewBox="0 0 229.48 100">
  <defs>
    <style>
      .cls-1 {
        fill: #dd1d21;
      }

      .cls-2 {
        fill: #008557;
      }
    </style>
  </defs>
  <g id="Layer_1-2" data-name="Layer 1">
    <g>
      <path class="cls-1" d="M20.41,12.31c-1.66-1.43-3.76-2.24-5.95-2.29-1.61,0-3.81.98-3.81,2.88s2.42,2.77,3.96,3.29l2.18.68c4.77,1.44,8.48,3.84,8.48,9.41.27,3.45-1,6.85-3.49,9.26-2.77,2.2-6.23,3.35-9.76,3.25-4.32-.05-8.52-1.44-12.03-3.97l3.83-7.19c2.11,2.11,4.93,3.38,7.91,3.55,2.18,0,4.36-1.05,4.36-3.46s-3.53-3.38-5.43-3.92c-5.64-1.57-9.3-3.05-9.3-9.67C1.11,7.99,5.86,2.8,11.99,2.54c.4-.02.81-.01,1.21.01,3.76.06,7.45,1.04,10.76,2.83l-3.55,6.93Z"/>
      <path class="cls-1" d="M37.23,0v17.43h.13c1.71-2.42,4.53-3.81,7.49-3.68,5.93,0,8.71,3.9,8.71,9.85v14.29h-8.28v-11.98c0-2.7-.41-5.55-3.73-5.55s-4.36,2.85-4.36,5.55v11.98h-8.28V0h8.3Z"/>
      <path class="cls-1" d="M75.05,22.72c-.74-2.65-3.5-4.2-6.15-3.46-1.68.47-2.99,1.78-3.46,3.46h9.61ZM82.79,27.54h-17.43c-.31,2.54,1.5,4.86,4.05,5.17.38.05.78.05,1.16,0,1.63.12,3.18-.73,3.94-2.18h7.98c-1.31,5.51-6.54,8.02-11.87,8.02-7.76,0-13.53-4.36-13.53-12.42s5.16-12.38,12.79-12.38c8.1,0,12.83,5.01,12.83,13.07l.09.72Z"/>
      <rect class="cls-1" x="85.99" width="8.3" height="37.82"/>
      <rect class="cls-1" x="99.3" width="8.32" height="37.82"/>
      <polygon class="cls-2" points="45.42 49.41 40.52 49.41 28.62 85.58 16.71 49.41 12.26 49.41 0 49.41 0 99.9 12.26 99.9 12.26 65.83 23.89 99.9 33.33 99.9 33.34 99.9 45.42 64.5 45.42 99.9 57.44 99.9 57.44 49.41 50.57 49.41 45.42 49.41"/>
      <rect class="cls-2" x="67.72" y="49.41" width="12.01" height="50.49"/>
      <path class="cls-2" d="M110.28,89.3h-7.36v-28.69h7.36c19.03,0,18.58,28.69,0,28.69M111.87,49.01h-21.57v50.73h21.57c33.94,0,32.4-50.73,0-50.73"/>
      <polygon class="cls-2" points="156.64 78.9 179.52 78.9 179.52 69.07 156.64 69.07 156.64 60.7 183.02 60.7 183.02 49.89 156.64 49.89 153.04 49.89 144.09 49.89 144.09 99.99 153.04 99.99 156.64 99.99 183.48 99.99 183.48 89.31 156.64 89.31 156.64 78.9"/>
      <polygon class="cls-2" points="203.82 49.01 191.69 49.01 191.69 100 195.9 100 203.82 100 229.48 100 229.48 89.17 203.82 89.17 203.82 49.01"/>
    </g>
  </g>
</svg>