<?xml version="1.0" encoding="UTF-8"?>
<svg id="Layer_2" data-name="Layer 2" xmlns="http://www.w3.org/2000/svg" xmlns:xlink="http://www.w3.org/1999/xlink" viewBox="0 0 745.15 675.14">
  <defs>
    <style>
      .cls-1 {
        fill: #c71c3d;
      }

      .cls-1, .cls-2, .cls-3, .cls-4, .cls-5, .cls-6, .cls-7, .cls-8 {
        stroke-width: 0px;
      }

      .cls-2 {
        fill: #6f1022;
      }

      .cls-3 {
        fill: #6b0f21;
      }

      .cls-9 {
        clip-path: url(#clippath);
      }

      .cls-4 {
        fill: none;
      }

      .cls-5 {
        fill: #d51e42;
      }

      .cls-10 {
        clip-path: url(#clippath-1);
      }

      .cls-11 {
        clip-path: url(#clippath-4);
      }

      .cls-12 {
        clip-path: url(#clippath-3);
      }

      .cls-13 {
        clip-path: url(#clippath-2);
      }

      .cls-14 {
        clip-path: url(#clippath-7);
      }

      .cls-15 {
        clip-path: url(#clippath-8);
      }

      .cls-16 {
        clip-path: url(#clippath-6);
      }

      .cls-17 {
        clip-path: url(#clippath-5);
      }

      .cls-18 {
        clip-path: url(#clippath-9);
      }

      .cls-19 {
        clip-path: url(#clippath-14);
      }

      .cls-20 {
        clip-path: url(#clippath-13);
      }

      .cls-21 {
        clip-path: url(#clippath-12);
      }

      .cls-22 {
        clip-path: url(#clippath-10);
      }

      .cls-23 {
        clip-path: url(#clippath-15);
      }

      .cls-24 {
        clip-path: url(#clippath-17);
      }

      .cls-25 {
        clip-path: url(#clippath-16);
      }

      .cls-26 {
        clip-path: url(#clippath-19);
      }

      .cls-27 {
        clip-path: url(#clippath-11);
      }

      .cls-28 {
        clip-path: url(#clippath-18);
      }

      .cls-6 {
        fill: #6d0f21;
      }

      .cls-7 {
        fill: #6d0f22;
      }

      .cls-29 {
        opacity: .25;
      }

      .cls-30 {
        isolation: isolate;
      }

      .cls-8 {
        fill: #6c0f21;
      }
    </style>
    <clipPath id="clippath">
      <path class="cls-4" d="M409.97,217.51l-4.53,54.55c-.04.44-.08.88-.14,1.32s-.13.88-.2,1.31-.17.87-.26,1.31-.21.86-.32,1.29c-1.01,3.66-2.03,7.33-3.05,11.01-1.03,3.7-2.06,7.41-3.1,11.13-1.04,3.73-2.08,7.48-3.13,11.21-1.05,3.76-2.1,7.51-3.14,11.26l3.46-51.83c1.13-3.96,2.27-7.93,3.4-11.9,1.13-3.95,2.26-7.9,3.38-11.84,1.12-3.92,2.24-7.83,3.35-11.73,1.1-3.88,2.2-7.75,3.29-11.6.13-.45.24-.9.35-1.36s.2-.91.28-1.37.16-.92.22-1.38.11-.92.15-1.39Z"/>
    </clipPath>
    <clipPath id="clippath-1">
      <path class="cls-4" d="M393.69,303.77l-3.36,49.93c.03-.77.06-1.52.1-2.24s.07-1.43.1-2.13.06-1.38.08-2.05c.02-.68.04-1.34.05-2.01.02-1.28-.16-2.42-.53-3.41s-.93-1.84-1.65-2.52-1.62-1.21-2.66-1.57c-1.04-.35-2.24-.54-3.57-.54-.13,0-.26,0-.4,0s-.27,0-.41.02-.27.02-.41.03-.28.02-.42.04c-.95.1-1.91.19-2.87.29s-1.94.19-2.93.28-2.01.19-3.05.29-2.11.2-3.22.31l1.29-50.88c1.21-.11,2.38-.22,3.52-.33,1.14-.1,2.25-.21,3.33-.31s2.15-.2,3.2-.3,2.09-.2,3.14-.3c.15-.02.31-.03.46-.04s.3-.02.45-.03.3-.01.44-.02.29,0,.44,0c1.45,0,2.76.2,3.9.57s2.12.94,2.91,1.66c.79.73,1.4,1.62,1.81,2.68s.61,2.26.59,3.62c0,.71-.03,1.42-.05,2.13s-.05,1.44-.08,2.18-.07,1.49-.1,2.26-.07,1.56-.1,2.38Z"/>
    </clipPath>
    <clipPath id="clippath-2">
      <path class="cls-4" d="M309.96,339.12l-4.2-50.9c-.04-.45-.06-.89-.07-1.34s-.02-.9-.01-1.35.02-.9.03-1.34.04-.89.06-1.34c.04-.65.12-1.29.28-1.89s.38-1.18.7-1.71.74-1.01,1.27-1.44,1.19-.78,2-1.06c.27-.1.55-.18.82-.25s.54-.13.8-.18.53-.08.79-.1.52-.03.77-.03c.52,0,1.03.05,1.53.14s.98.23,1.45.41.92.4,1.36.66.86.56,1.27.9c1.18.99,2.23,2.05,3.16,3.16s1.74,2.29,2.44,3.52c.71,1.23,1.31,2.5,1.81,3.82s.93,2.68,1.28,4.07c.14.59.26,1.18.37,1.78s.19,1.2.26,1.8.14,1.21.2,1.81.13,1.21.19,1.82c.16,1.41.54,2.68,1.12,3.81s1.36,2.11,2.34,2.93c.98.82,2.15,1.48,3.5,1.96s2.89.79,4.59.9l1.27,49.64c-1.56-.11-2.96-.39-4.2-.84s-2.31-1.07-3.2-1.84c-.89-.77-1.61-1.69-2.14-2.76s-.88-2.26-1.02-3.59c-.06-.57-.12-1.14-.18-1.71s-.12-1.14-.19-1.71-.15-1.13-.24-1.7-.2-1.12-.34-1.67c-.32-1.31-.7-2.59-1.17-3.83-.47-1.24-1.02-2.44-1.66-3.6-.65-1.15-1.39-2.26-2.24-3.32s-1.81-2.05-2.9-2.98c-.37-.32-.76-.6-1.16-.85s-.82-.46-1.24-.63-.87-.3-1.32-.39-.92-.13-1.4-.13c-.23,0-.47.01-.7.03s-.48.05-.72.1-.49.1-.73.17-.5.15-.75.24c-.73.27-1.33.61-1.82,1.01s-.87.86-1.16,1.36-.5,1.05-.64,1.62-.22,1.17-.25,1.79c-.02.42-.04.84-.05,1.26s-.02.84-.03,1.27,0,.85.01,1.27.04.84.07,1.27Z"/>
    </clipPath>
    <clipPath id="clippath-3">
      <path class="cls-4" d="M390.93,216.49l-2.97,54.62c.04-.75-.08-1.48-.33-2.16s-.63-1.32-1.12-1.89-1.08-1.05-1.75-1.44-1.43-.67-2.24-.82c-.12-.02-.24-.04-.37-.06s-.24-.03-.36-.04-.24-.02-.36-.03-.24,0-.36,0c-.73,0-1.44.1-2.11.3s-1.29.49-1.84.87c-.56.38-1.05.85-1.45,1.39s-.72,1.18-.93,1.88c-1.63,5.39-3.26,10.81-4.91,16.27-1.65,5.5-3.32,11.04-4.99,16.62-1.68,5.62-3.38,11.27-5.09,16.97-1.72,5.74-3.45,11.51-5.19,17.33-.39,1.29-.77,2.59-1.16,3.89-.38,1.3-.77,2.61-1.15,3.91-.39,1.31-.78,2.62-1.17,3.93s-.8,2.63-1.21,3.94c-.29.92-.79,1.84-1.41,2.7s-1.37,1.66-2.18,2.35c-.81.69-1.67,1.26-2.52,1.66-.85.4-1.68.63-2.42.63l-1.27-49.64c.81,0,1.72-.24,2.65-.67s1.87-1.03,2.76-1.76,1.71-1.58,2.39-2.49,1.22-1.89,1.54-2.87c.45-1.39.89-2.79,1.33-4.18s.86-2.78,1.28-4.17.84-2.77,1.26-4.15c.42-1.38.84-2.75,1.26-4.12,1.91-6.16,3.8-12.27,5.67-18.34s3.71-11.99,5.55-17.92c1.82-5.88,3.63-11.72,5.43-17.52,1.79-5.75,3.56-11.46,5.33-17.12.23-.74.57-1.4,1.01-1.97s.97-1.07,1.58-1.46,1.28-.7,2.01-.91,1.5-.31,2.29-.31c.13,0,.26,0,.39,0s.26.01.39.03.26.03.4.04.27.04.4.06c.88.16,1.71.46,2.44.86s1.38.92,1.91,1.52.95,1.27,1.22,1.99c.27.72.4,1.49.36,2.28Z"/>
    </clipPath>
    <clipPath id="clippath-4">
      <path class="cls-4" d="M417.06,318.42l-5.42,49.05c-.05-.65-.11-1.27-.17-1.87s-.11-1.17-.16-1.73-.1-1.1-.14-1.63-.07-1.06-.09-1.58c-.06-1.42-.27-2.66-.64-3.71s-.91-1.92-1.61-2.61-1.57-1.21-2.62-1.55c-1.05-.34-2.27-.51-3.68-.51-.16,0-.33,0-.5,0s-.34.01-.51.02-.35.02-.53.03-.36.03-.54.05c-.83.08-1.65.18-2.48.28s-1.66.21-2.5.33-1.68.24-2.54.36c-.85.12-1.72.24-2.6.36l3.36-49.93c.96-.12,1.91-.25,2.85-.37s1.86-.25,2.77-.38,1.82-.24,2.73-.35,1.81-.21,2.71-.29c.2-.02.4-.04.6-.05s.39-.03.58-.04.38-.02.56-.02.37,0,.55,0c1.54,0,2.88.18,4.03.54,1.15.36,2.1.91,2.87,1.65s1.36,1.66,1.77,2.78.65,2.43.72,3.94c.02.56.06,1.12.11,1.68s.1,1.14.16,1.74.12,1.2.19,1.84.13,1.29.19,1.99Z"/>
    </clipPath>
    <clipPath id="clippath-5">
      <path class="cls-4" d="M439.31,324.44c-2.46,16.23-4.92,32.45-7.38,48.67.14-.9.09-1.76-.12-2.55s-.58-1.52-1.1-2.15-1.19-1.18-1.99-1.6-1.74-.74-2.79-.91c-.16-.03-.32-.05-.48-.07s-.32-.03-.49-.04-.33-.02-.49-.02-.33,0-.49,0c-.42,0-.84.02-1.26.04s-.84.07-1.27.11-.84.1-1.26.15-.84.1-1.25.15c-.6.07-1.19.15-1.78.25s-1.19.2-1.79.31-1.21.23-1.83.35-1.25.23-1.89.35l5.42-49.05c.7-.12,1.39-.24,2.07-.37s1.34-.25,2-.37,1.31-.23,1.96-.33,1.3-.19,1.95-.26c.45-.05.91-.11,1.37-.16s.92-.11,1.38-.15.92-.09,1.39-.12.92-.05,1.38-.05c.18,0,.36,0,.54,0s.36.01.54.03.36.03.53.05.35.04.53.07c1.15.18,2.18.51,3.06.97.88.45,1.62,1.03,2.19,1.71s.99,1.45,1.22,2.29.28,1.76.14,2.72Z"/>
    </clipPath>
    <clipPath id="clippath-6">
      <path class="cls-4" d="M291.89,328.59l5.51,48.55c-.27-2.41-.59-4.8-.94-7.19-.35-2.38-.73-4.74-1.15-7.09s-.85-4.68-1.32-7.01c-.46-2.32-.95-4.63-1.45-6.94-.1-.44-.19-.88-.27-1.31s-.17-.88-.24-1.32-.14-.88-.21-1.32-.12-.88-.17-1.32l-5.94-50.65c.05.47.12.93.18,1.4s.14.93.22,1.4c.08.47.17.93.26,1.4s.19.93.29,1.4c.54,2.45,1.07,4.9,1.57,7.37.5,2.47.97,4.96,1.42,7.45.44,2.5.86,5.02,1.23,7.55.37,2.54.71,5.09,1,7.65Z"/>
    </clipPath>
    <clipPath id="clippath-7">
      <path class="cls-4" d="M304.88,396.24l4.54,44.2c-.12-1.14-.28-2.28-.48-3.41s-.44-2.26-.71-3.39c-.27-1.13-.58-2.25-.92-3.37-.34-1.12-.71-2.24-1.11-3.36-.92-2.59-1.76-5.2-2.51-7.81s-1.42-5.22-2.01-7.84c-.59-2.61-1.11-5.24-1.55-7.86s-.81-5.24-1.11-7.87l-5.42-47.33c.32,2.8.72,5.61,1.19,8.4.48,2.81,1.03,5.61,1.67,8.4.64,2.8,1.37,5.6,2.19,8.39.82,2.8,1.73,5.58,2.73,8.36.44,1.2.84,2.4,1.21,3.6s.71,2.41,1,3.61.56,2.42.77,3.63.39,2.44.51,3.66Z"/>
    </clipPath>
    <clipPath id="clippath-8">
      <path class="cls-4" d="M326.8,398.15l2.54,44.05c.07,1.15.09,2.3.08,3.46-.01,1.16-.07,2.33-.18,3.51-.11,1.18-.26,2.37-.46,3.57-.21,1.2-.47,2.41-.78,3.63l-2.7-43.01c.35-1.31.64-2.61.87-3.9s.4-2.57.52-3.83.18-2.52.2-3.77-.01-2.48-.08-3.72Z"/>
    </clipPath>
    <clipPath id="clippath-9">
      <path class="cls-4" d="M459.46,329.32l-9.16,48.36c-.03.14-.06.29-.09.43s-.06.29-.1.43-.07.29-.1.43-.07.28-.11.43c-1,3.6-1.97,7.23-2.9,10.89-.93,3.67-1.83,7.37-2.7,11.1-.87,3.74-1.72,7.5-2.54,11.29s-1.62,7.63-2.4,11.48c-.77,3.78-1.82,7.43-3.14,10.95-1.33,3.53-2.92,6.94-4.75,10.24-1.84,3.31-3.92,6.52-6.22,9.63-2.31,3.12-4.84,6.16-7.56,9.11-.83.9-1.66,1.81-2.48,2.73s-1.63,1.85-2.43,2.79c-.8.94-1.6,1.89-2.38,2.85-.78.96-1.55,1.93-2.31,2.92-.4.52-.77,1.05-1.13,1.61s-.69,1.13-1,1.71-.61,1.18-.88,1.79-.53,1.22-.76,1.83c-.5,1.32-1.19,2.53-2.03,3.59s-1.83,2-2.94,2.77-2.33,1.37-3.63,1.78-2.67.63-4.09.64c-.28,0-.56,0-.85-.02s-.57-.04-.85-.08-.57-.08-.86-.13-.58-.11-.86-.18c-6-1.48-11.99-2.95-17.96-4.43-5.97-1.48-11.93-2.95-17.88-4.43-5.94-1.48-11.87-2.95-17.8-4.43-5.91-1.48-11.82-2.95-17.72-4.43-1.33-.34-2.57-.86-3.69-1.53-1.12-.67-2.11-1.49-2.96-2.42-.84-.93-1.54-1.97-2.06-3.09s-.86-2.31-1-3.53l-4.83-42.58c.15,1.32.52,2.6,1.09,3.8s1.33,2.32,2.26,3.33,2.02,1.89,3.25,2.61,2.6,1.29,4.06,1.65c6.5,1.6,13,3.19,19.52,4.79,6.53,1.6,13.07,3.19,19.62,4.79,6.56,1.6,13.13,3.19,19.72,4.79,6.59,1.6,13.2,3.19,19.82,4.79.32.08.64.14.95.2s.63.1.95.14.63.06.94.08.62.03.93.03c1.56,0,3.08-.24,4.51-.68s2.78-1.09,3.99-1.92,2.31-1.83,3.23-2.98,1.68-2.45,2.23-3.87c.26-.66.53-1.32.83-1.97s.62-1.29.96-1.92.71-1.25,1.1-1.84.8-1.18,1.24-1.73c.83-1.06,1.68-2.1,2.53-3.14s1.73-2.05,2.61-3.07c.88-1.01,1.77-2.01,2.67-3,.9-.99,1.81-1.97,2.72-2.94,2.99-3.18,5.76-6.43,8.29-9.79,2.52-3.34,4.8-6.78,6.8-10.33s3.73-7.19,5.17-10.98c1.43-3.77,2.57-7.67,3.4-11.72.83-4.12,1.69-8.21,2.58-12.27.88-4.05,1.79-8.06,2.73-12.06.93-3.97,1.9-7.92,2.9-11.83,1-3.9,2.03-7.76,3.11-11.6.04-.15.08-.3.12-.45s.08-.3.11-.45.07-.3.1-.46.06-.31.09-.46Z"/>
    </clipPath>
    <clipPath id="clippath-10">
      <path class="cls-4" d="M414.71,160.47l-5.13,58.87c-.04.46-.09.92-.15,1.37s-.14.91-.22,1.37-.18.91-.28,1.36-.22.9-.35,1.35c-1.08,3.89-2.17,7.8-3.27,11.73-1.1,3.94-2.22,7.9-3.33,11.86-1.12,3.98-2.25,7.97-3.37,11.96-1.13,4.01-2.26,8.02-3.39,12.02l3.9-55.8c1.23-4.25,2.46-8.5,3.69-12.75s2.45-8.45,3.67-12.67c1.21-4.19,2.42-8.38,3.62-12.54,1.19-4.15,2.38-8.28,3.55-12.38.14-.47.26-.95.38-1.42s.22-.96.31-1.44.17-.96.24-1.45.12-.97.16-1.45Z"/>
    </clipPath>
    <clipPath id="clippath-11">
      <path class="cls-4" d="M397.13,252.75l-3.8,53.63c.03-.83.07-1.63.1-2.41s.07-1.54.1-2.29.06-1.48.09-2.2.04-1.44.05-2.15c.02-1.36-.18-2.58-.58-3.65-.4-1.06-1-1.96-1.79-2.69-.78-.73-1.75-1.29-2.88-1.67-1.13-.38-2.42-.57-3.86-.57-.14,0-.29,0-.43,0s-.29,0-.44.02-.3.02-.45.03-.3.03-.46.04c-1.03.1-2.06.21-3.11.31s-2.1.2-3.17.3-2.17.2-3.3.31-2.28.21-3.48.32l1.39-54.71c1.32-.12,2.59-.23,3.83-.34,1.24-.11,2.44-.22,3.63-.32s2.34-.21,3.49-.32,2.28-.21,3.42-.32c.17-.02.34-.03.5-.04s.33-.02.5-.03.33-.01.49-.02.32,0,.48,0c1.58,0,3.01.21,4.25.62,1.24.4,2.31,1,3.17,1.78s1.53,1.74,1.97,2.87.67,2.43.64,3.88c0,.76-.03,1.52-.05,2.29s-.06,1.55-.09,2.34-.07,1.6-.11,2.43-.07,1.69-.11,2.57Z"/>
    </clipPath>
    <clipPath id="clippath-12">
      <path class="cls-4" d="M306.31,290.95l-4.98-54.73c-.04-.49-.07-.99-.09-1.49s-.02-.99-.01-1.49.02-.99.04-1.49.05-.99.08-1.49c.04-.7.14-1.38.31-2.03s.42-1.27.77-1.84.81-1.09,1.39-1.54,1.3-.84,2.18-1.14c.3-.1.6-.19.89-.27s.59-.14.87-.19.57-.09.86-.11.56-.04.84-.04c.57,0,1.12.05,1.66.15s1.06.25,1.57.44,1,.43,1.48.72.93.61,1.37.97c1.29,1.06,2.43,2.19,3.44,3.39,1.01,1.2,1.89,2.46,2.65,3.77s1.41,2.68,1.97,4.1,1.01,2.87,1.38,4.37c.16.63.29,1.27.4,1.91s.2,1.29.28,1.93.15,1.3.22,1.95c.07.65.13,1.3.21,1.95.17,1.51.58,2.88,1.21,4.09.63,1.21,1.48,2.27,2.55,3.15,1.07.88,2.34,1.59,3.82,2.11s3.16.85,5.02.97l1.59,53.29c-1.69-.11-3.21-.42-4.56-.9-1.34-.48-2.5-1.15-3.47-1.97-.97-.83-1.74-1.82-2.32-2.95-.57-1.14-.94-2.42-1.1-3.84-.07-.61-.13-1.22-.19-1.83s-.13-1.22-.2-1.83-.16-1.21-.26-1.81-.22-1.2-.36-1.79c-.34-1.4-.75-2.77-1.26-4.1s-1.1-2.61-1.79-3.85c-.7-1.23-1.5-2.42-2.42-3.54s-1.96-2.19-3.13-3.18c-.4-.34-.82-.65-1.25-.91s-.88-.49-1.34-.67-.94-.32-1.43-.42-.99-.14-1.51-.14c-.25,0-.51.01-.76.03s-.52.06-.78.11-.53.11-.79.18-.54.16-.81.25c-.8.28-1.45.65-1.98,1.07s-.94.92-1.26,1.45-.54,1.12-.69,1.73-.24,1.25-.27,1.91c-.03.46-.05.93-.07,1.4s-.03.93-.03,1.4,0,.94.02,1.4.04.93.09,1.4Z"/>
    </clipPath>
    <clipPath id="clippath-13">
      <path class="cls-4" d="M394.04,159.27l-3.33,58.95c.04-.8-.08-1.57-.35-2.3-.27-.73-.68-1.41-1.21-2.01s-1.17-1.12-1.9-1.53-1.54-.71-2.42-.87c-.13-.02-.26-.04-.39-.06s-.26-.03-.39-.04-.26-.02-.39-.03-.26,0-.39,0c-.79,0-1.56.11-2.27.32s-1.39.52-1.99.93-1.13.9-1.57,1.48-.78,1.25-1.01,2c-1.76,5.73-3.52,11.5-5.29,17.32-1.79,5.86-3.58,11.76-5.39,17.71-1.82,5.99-3.66,12.03-5.51,18.11s-3.74,12.3-5.63,18.52c-.42,1.38-.84,2.77-1.26,4.16s-.83,2.79-1.25,4.19-.84,2.8-1.27,4.2-.87,2.81-1.31,4.21c-.32.99-.85,1.97-1.52,2.89-.67.92-1.49,1.78-2.36,2.52s-1.81,1.35-2.73,1.78-1.82.68-2.62.68l-1.59-53.29c.88,0,1.87-.26,2.89-.72,1.01-.46,2.04-1.11,3.01-1.9s1.86-1.7,2.61-2.69c.74-.98,1.33-2.03,1.68-3.08.49-1.49.98-2.99,1.45-4.49.47-1.49.94-2.98,1.4-4.47s.92-2.97,1.38-4.45.92-2.96,1.38-4.43c2.08-6.61,4.15-13.17,6.19-19.67,2.03-6.45,4.04-12.85,6.04-19.19,1.98-6.29,3.95-12.53,5.9-18.72,1.94-6.14,3.86-12.23,5.78-18.27.25-.79.63-1.49,1.11-2.1s1.06-1.14,1.72-1.56,1.39-.75,2.18-.97,1.62-.33,2.49-.33c.14,0,.28,0,.42.01s.28.02.43.03.29.03.43.05.29.04.43.07c.96.17,1.85.49,2.65.92s1.5.99,2.08,1.62,1.03,1.35,1.33,2.12.44,1.59.39,2.43Z"/>
    </clipPath>
    <clipPath id="clippath-14">
      <path class="cls-4" d="M422.64,268.51l-6.2,52.62c-.06-.7-.12-1.37-.19-2.01s-.12-1.25-.18-1.85-.11-1.18-.15-1.75-.08-1.13-.11-1.7c-.06-1.53-.29-2.85-.7-3.98s-.99-2.06-1.75-2.8-1.71-1.29-2.85-1.66c-1.14-.37-2.47-.55-4-.55-.18,0-.35,0-.53,0s-.36.01-.55.02-.38.02-.57.04-.39.03-.58.05c-.9.09-1.79.19-2.69.3s-1.8.23-2.7.36-1.82.26-2.75.39-1.86.26-2.82.39l3.8-53.63c1.05-.13,2.08-.27,3.1-.41s2.02-.28,3.02-.41,1.99-.26,2.97-.38,1.97-.23,2.96-.32c.22-.02.43-.04.64-.05s.42-.03.62-.04.41-.02.61-.02.4,0,.59,0c1.68,0,3.15.2,4.4.59s2.3.98,3.14,1.77,1.49,1.79,1.94,2.99c.45,1.2.71,2.62.79,4.25.03.6.07,1.2.12,1.81s.11,1.23.17,1.87.13,1.29.2,1.98.14,1.39.21,2.14Z"/>
    </clipPath>
    <clipPath id="clippath-15">
      <path class="cls-4" d="M446.92,275.12l-8.48,52.17c.16-.98.12-1.92-.1-2.78s-.62-1.65-1.19-2.34-1.29-1.28-2.17-1.74-1.89-.8-3.04-.98c-.17-.03-.35-.05-.52-.07s-.35-.03-.52-.05-.35-.02-.53-.03-.35,0-.53,0c-.46,0-.91.02-1.37.05s-.92.07-1.38.12-.92.1-1.37.16-.91.11-1.36.16c-.65.07-1.29.16-1.94.26s-1.29.21-1.95.33c-.65.12-1.31.24-1.98.37s-1.35.25-2.05.38l6.2-52.62c.77-.13,1.52-.27,2.26-.4s1.46-.27,2.18-.39c.72-.13,1.43-.25,2.14-.35s1.42-.2,2.13-.28c.5-.05,1-.11,1.5-.17s1.01-.12,1.51-.17,1.01-.1,1.52-.13,1.01-.05,1.51-.05c.2,0,.39,0,.58,0s.39.02.58.03.39.03.58.05.38.04.57.07c1.27.2,2.39.56,3.36,1.05s1.77,1.13,2.4,1.87,1.08,1.58,1.32,2.51c.25.92.3,1.92.13,2.97Z"/>
    </clipPath>
    <clipPath id="clippath-16">
      <path class="cls-4" d="M285.65,276.14l6.56,52.25c-.29-2.31-.61-4.61-.97-6.9-.35-2.28-.74-4.56-1.14-6.82-.41-2.26-.84-4.51-1.29-6.75s-.92-4.46-1.4-6.68c-.09-.41-.18-.82-.26-1.24s-.16-.83-.23-1.24-.14-.83-.2-1.24-.12-.83-.17-1.24l-7-54.4c.06.44.12.88.19,1.32s.14.88.22,1.32.16.88.25,1.32.18.88.28,1.32c.52,2.37,1.03,4.74,1.52,7.12.49,2.39.95,4.79,1.39,7.2.44,2.42.85,4.84,1.23,7.28s.73,4.91,1.04,7.38Z"/>
    </clipPath>
    <clipPath id="clippath-17">
      <path class="cls-4" d="M299.92,351.82l5.44,47.04c-.14-1.17-.31-2.34-.53-3.5s-.47-2.32-.75-3.48-.61-2.31-.96-3.46-.73-2.3-1.14-3.45c-.93-2.61-1.78-5.23-2.55-7.86-.77-2.62-1.46-5.25-2.07-7.88-.61-2.63-1.15-5.26-1.62-7.9-.47-2.63-.87-5.27-1.21-7.9l-6.42-50.47c.36,2.83.79,5.66,1.3,8.48.51,2.83,1.1,5.66,1.76,8.49s1.42,5.66,2.26,8.48c.84,2.83,1.77,5.65,2.79,8.45.45,1.24.87,2.47,1.25,3.71s.74,2.48,1.05,3.73c.31,1.25.59,2.5.82,3.75s.43,2.51.57,3.77Z"/>
    </clipPath>
    <clipPath id="clippath-18">
      <path class="cls-4" d="M323.97,354.08l3.11,46.86c.08,1.28.13,2.57.12,3.86s-.07,2.61-.18,3.92c-.11,1.32-.28,2.65-.51,3.99s-.52,2.7-.88,4.06l-3.3-45.6c.4-1.48.73-2.94.98-4.39.26-1.45.45-2.88.57-4.31s.19-2.83.21-4.23c.01-1.4-.03-2.79-.12-4.17Z"/>
    </clipPath>
    <clipPath id="clippath-19">
      <path class="cls-4" d="M468.86,280.61l-10.55,51.8c-.03.13-.05.25-.08.38s-.06.25-.09.37-.06.25-.09.37-.07.25-.1.37c-1.08,3.87-2.11,7.76-3.11,11.69s-1.97,7.92-2.9,11.92c-.94,4.02-1.84,8.07-2.72,12.14-.88,4.09-1.74,8.21-2.58,12.35-.82,4.07-1.96,8-3.38,11.79-1.43,3.81-3.15,7.48-5.13,11.04-1.99,3.57-4.25,7.03-6.75,10.39-2.51,3.37-5.25,6.64-8.21,9.84-.91.98-1.8,1.96-2.69,2.96s-1.77,2-2.64,3.02-1.73,2.05-2.58,3.08-1.68,2.09-2.51,3.15c-.43.56-.84,1.14-1.23,1.74-.39.6-.75,1.22-1.09,1.85s-.66,1.28-.95,1.93-.57,1.31-.83,1.98c-.54,1.43-1.29,2.73-2.2,3.89s-1.99,2.17-3.2,3-2.53,1.48-3.95,1.93c-1.41.45-2.91.69-4.45.69-.31,0-.61,0-.92-.03s-.62-.05-.93-.08-.62-.08-.94-.14-.63-.12-.94-.2c-6.53-1.59-13.06-3.19-19.57-4.78-6.5-1.59-12.99-3.19-19.47-4.79-6.47-1.6-12.93-3.19-19.37-4.79-6.44-1.6-12.86-3.19-19.28-4.79-1.43-.36-2.77-.91-3.97-1.63s-2.28-1.58-3.19-2.57c-.91-.99-1.67-2.09-2.24-3.28s-.95-2.45-1.12-3.76l-5.8-45.08c.18,1.41.6,2.78,1.23,4.06s1.46,2.48,2.47,3.55c1.01,1.07,2.2,2.01,3.53,2.79,1.33.77,2.81,1.37,4.4,1.76,7.12,1.74,14.25,3.47,21.39,5.21,7.16,1.74,14.33,3.47,21.51,5.21,7.2,1.74,14.41,3.47,21.63,5.21,7.24,1.74,14.49,3.47,21.75,5.2.35.08.7.16,1.05.22s.7.11,1.04.15.69.07,1.04.09.69.03,1.03.03c1.71,0,3.37-.26,4.94-.75,1.57-.48,3.04-1.19,4.38-2.09s2.53-1.99,3.54-3.25,1.84-2.67,2.43-4.21c.28-.72.58-1.44.91-2.14s.68-1.41,1.05-2.09.78-1.35,1.2-2,.88-1.28,1.36-1.89c.91-1.15,1.83-2.29,2.77-3.41.94-1.12,1.89-2.24,2.85-3.34s1.93-2.19,2.92-3.27,1.97-2.14,2.97-3.2c3.27-3.45,6.3-6.98,9.06-10.62,2.75-3.62,5.23-7.35,7.42-11.21,2.18-3.84,4.06-7.8,5.62-11.9,1.55-4.08,2.79-8.31,3.67-12.69.9-4.45,1.82-8.88,2.77-13.27s1.92-8.72,2.93-13.03,2.04-8.55,3.12-12.77,2.19-8.37,3.35-12.51c.04-.13.07-.27.11-.4s.07-.27.1-.4.06-.27.09-.4.06-.27.09-.4Z"/>
    </clipPath>
  </defs>
  <g id="Layer_2-2" data-name="Layer 2">
    <g>
      <g class="cls-29">
        <g>
          <g class="cls-30">
            <polygon class="cls-8" points="184.43 122.23 197.67 181.28 196.94 188.19 183.57 129.43 184.43 122.23"/>
            <polygon class="cls-3" points="263.3 122.54 270.4 181.48 233.08 193.44 222.75 134.95 263.3 122.54"/>
            <polygon class="cls-3" points="222.75 134.95 233.08 193.44 197.67 181.28 184.43 122.23 222.75 134.95"/>
            <polygon class="cls-8" points="183.09 133.48 196.53 192.07 195.79 199.07 182.23 140.78 183.09 133.48"/>
            <polygon class="cls-3" points="262.58 133.77 269.79 192.26 234.26 203.71 223.94 145.67 262.58 133.77"/>
            <polygon class="cls-3" points="219.56 145.66 230.21 203.7 196.53 192.07 183.09 133.48 219.56 145.66"/>
            <polygon class="cls-8" points="223.94 145.67 234.26 203.71 233.69 210.82 223.28 153.1 223.94 145.67"/>
            <polygon class="cls-8" points="270.92 100.7 277.33 160.48 273.75 228.6 266.7 171.74 270.92 100.7"/>
            <polygon class="cls-3" points="266.7 171.74 273.75 228.6 186.66 228.43 172 171.46 266.7 171.74"/>
            <path class="cls-1" d="M180.77,100.31l90.15.39-4.22,71.04-94.7-.28,8.77-71.14ZM262.84,129.73l.46-7.19-40.55,12.41-38.32-12.72-.85,7.2,38.5,12.84,40.76-12.54M262.12,141.06l.46-7.29-38.64,11.9-.67,7.43,38.84-12.04M218.87,153.09l.69-7.43-36.46-12.18-.87,7.3,36.64,12.31"/>
          </g>
          <g class="cls-30">
            <polygon class="cls-7" points="77.03 223.29 100.05 277.89 98.79 285.73 75.53 231.55 77.03 223.29"/>
            <polygon class="cls-3" points="161.76 223.47 177.74 277.97 137.05 291.63 117.21 237.82 161.76 223.47"/>
            <polygon class="cls-3" points="117.21 237.82 137.05 291.63 100.05 277.89 77.03 223.29 117.21 237.82"/>
            <polygon class="cls-7" points="74.69 236.21 98.08 290.15 96.81 298.11 73.17 244.61 74.69 236.21"/>
            <polygon class="cls-3" points="160.14 236.37 176.37 290.21 137.62 303.31 117.68 250.14 160.14 236.37"/>
            <polygon class="cls-3" points="112.95 250.13 133.3 303.31 98.08 290.15 74.69 236.21 112.95 250.13"/>
            <polygon class="cls-8" points="117.68 250.14 137.62 303.31 136.54 311.4 116.38 258.69 117.68 250.14"/>
            <polygon class="cls-8" points="171.61 198.42 186.54 254.14 178.22 331.56 161.71 280.07 171.61 198.42"/>
            <polygon class="cls-3" points="161.71 280.07 178.22 331.56 84.97 331.56 59.69 279.97 161.71 280.07"/>
            <path class="cls-1" d="M74.85,198.17l96.76.24-9.9,81.65-102.02-.1,15.16-81.79ZM160.73,231.71l1.04-8.24-44.55,14.35-40.18-14.52-1.49,8.26,40.39,14.67,44.81-14.51M159.09,244.75l1.05-8.38-42.47,13.77-1.3,8.55,42.71-13.94M111.63,258.68l1.32-8.55-38.26-13.92-1.52,8.39,38.46,14.08"/>
          </g>
          <g class="cls-30">
            <polygon class="cls-3" points="552.22 129.28 536.92 187.62 536.08 180.77 551.24 122.14 552.22 129.28"/>
            <polygon class="cls-3" points="513.67 134.47 501.3 192.65 464.14 180.56 473.3 121.83 513.67 134.47"/>
            <polygon class="cls-3" points="551.24 122.14 536.08 180.77 501.3 192.65 513.67 134.47 551.24 122.14"/>
            <polygon class="cls-3" points="553.77 140.55 538.23 198.43 537.38 191.48 552.77 133.3 553.77 140.55"/>
            <polygon class="cls-3" points="552.77 133.3 537.38 191.48 504.29 202.85 517 145.12 552.77 133.3"/>
            <polygon class="cls-3" points="512.66 145.1 500.28 202.84 464.93 191.29 474.22 133 512.66 145.1"/>
            <polygon class="cls-3" points="513.45 152.48 500.96 209.91 500.28 202.84 512.66 145.1 513.45 152.48"/>
            <polygon class="cls-3" points="470.86 170.72 461.61 227.4 456.9 159.63 465.33 100.06 470.86 170.72"/>
            <polygon class="cls-3" points="564.41 171 547.73 227.57 461.61 227.4 470.86 170.72 564.41 171"/>
            <path class="cls-1" d="M465.33,100.06l89.11.39,9.98,70.55-93.55-.28-5.53-70.66ZM552.22,129.28l-.98-7.14-37.57,12.33-40.37-12.64.59,7.15,40.58,12.76,37.75-12.46M553.77,140.55l-.99-7.25-35.77,11.82.82,7.38,35.94-11.95M513.45,152.48l-.8-7.38-38.43-12.1.6,7.26,38.63,12.21"/>
          </g>
          <g class="cls-30">
            <polygon class="cls-3" points="661.77 229.81 636.49 283.5 635.12 275.75 660.15 221.65 661.77 229.81"/>
            <polygon class="cls-3" points="621.13 235.83 599.1 289.25 558.88 275.67 577.12 221.48 621.13 235.83"/>
            <polygon class="cls-3" points="660.15 221.65 635.12 275.75 599.1 289.25 621.13 235.83 660.15 221.65"/>
            <polygon class="cls-3" points="664.33 242.67 638.65 295.71 637.26 287.85 662.68 234.39 664.33 242.67"/>
            <polygon class="cls-3" points="662.68 234.39 637.26 287.85 602.97 300.79 625.52 247.99 662.68 234.39"/>
            <polygon class="cls-3" points="620.89 247.99 598.72 300.79 560.44 287.79 578.97 234.24 620.89 247.99"/>
            <polygon class="cls-3" points="622.33 256.43 599.93 308.79 598.72 300.79 620.89 247.99 622.33 256.43"/>
            <polygon class="cls-3" points="578.31 277.44 559.35 328.7 549.79 252.06 566.94 196.66 578.31 277.44"/>
            <polygon class="cls-3" points="678.19 277.54 650.81 328.71 559.35 328.7 578.31 277.44 678.19 277.54"/>
            <path class="cls-1" d="M566.94,196.66l94.83.24,16.41,80.63-99.88-.1-11.36-80.77ZM661.77,229.81l-1.62-8.15-39.02,14.17-44-14.35,1.18,8.16,44.25,14.48,39.21-14.32M664.33,242.67l-1.65-8.28-37.17,13.6,1.47,8.44,37.35-13.76M622.33,256.43l-1.44-8.44-41.92-13.75,1.2,8.29,42.15,13.9"/>
          </g>
          <g class="cls-30">
            <polygon class="cls-3" points="692.04 375.69 661.88 420.96 660.26 411.83 690.09 365.93 692.04 375.69"/>
            <polygon class="cls-3" points="647.68 383.04 621.36 427.87 577.49 411.95 599.28 365.98 647.68 383.04"/>
            <polygon class="cls-3" points="690.09 365.93 660.26 411.83 621.36 427.87 647.68 383.04 690.09 365.93"/>
            <polygon class="cls-3" points="695.13 391.13 664.43 435.39 662.79 426.1 693.14 381.19 695.13 391.13"/>
            <polygon class="cls-3" points="693.14 381.19 662.79 426.1 625.74 441.49 652.72 397.64 693.14 381.19"/>
            <polygon class="cls-3" points="647.65 397.64 621.12 441.5 579.34 426.25 601.51 381.27 647.65 397.64"/>
            <polygon class="cls-3" points="649.38 407.79 622.56 450.96 621.12 441.5 647.65 397.64 649.38 407.79"/>
            <polygon class="cls-3" points="601.48 433.23 578.7 474.67 567.35 384.17 587.78 336.34 601.48 433.23"/>
            <polygon class="cls-3" points="711.09 433.03 678.24 474.41 578.7 474.67 601.48 433.23 711.09 433.03"/>
            <path class="cls-1" d="M587.78,336.34h103.56s19.75,96.69,19.75,96.69l-109.6.2-13.7-96.89ZM692.04,375.69l-1.95-9.76-42.41,17.11-48.4-17.06,1.43,9.78,48.69,17.25,42.64-17.32M695.13,391.13l-1.99-9.94-40.41,16.45,1.77,10.14,40.63-16.65M649.38,407.79l-1.74-10.15-46.14-16.37,1.45,9.96,46.42,16.56"/>
          </g>
          <g class="cls-30">
            <polygon class="cls-3" points="608.65 516.7 584.19 551.89 582.89 541.31 607.06 505.22 608.65 516.7"/>
            <polygon class="cls-3" points="560 525.48 540.12 560 493.62 541.65 508.36 505.54 560 525.48"/>
            <polygon class="cls-3" points="607.06 505.22 582.89 541.31 540.12 560 560 525.48 607.06 505.22"/>
            <polygon class="cls-3" points="611.17 534.88 586.25 568.61 584.92 557.85 609.55 523.17 611.17 534.88"/>
            <polygon class="cls-3" points="609.55 523.17 584.92 557.85 544.17 575.8 564.67 542.67 609.55 523.17"/>
            <polygon class="cls-3" points="559.14 542.69 539.18 575.82 494.86 558.22 509.88 523.52 559.14 542.69"/>
            <polygon class="cls-3" points="560.46 554.66 540.25 586.81 539.18 575.82 559.14 542.69 560.46 554.66"/>
            <polygon class="cls-3" points="506.76 584.89 491.6 614.51 484.14 509.53 497.61 470.76 506.76 584.89"/>
            <polygon class="cls-3" points="626.3 584.32 599.27 613.95 491.6 614.51 506.76 584.89 626.3 584.32"/>
            <path class="cls-1" d="M497.61,470.76l112.39-.29,16.31,113.86-119.55.56-9.15-114.13ZM608.65,516.7l-1.59-11.48-47.06,20.26-51.64-19.94.97,11.5,51.98,20.19,47.34-20.53M611.17,534.88l-1.63-11.71-44.88,19.5,1.35,11.97,45.15-19.76M560.46,554.66l-1.32-11.97-49.26-19.17.99,11.73,49.59,19.4"/>
          </g>
          <g class="cls-30">
            <polygon class="cls-6" points="51.72 369.59 79.02 415.74 77.54 425.01 49.94 379.51 51.72 369.59"/>
            <polygon class="cls-3" points="144.58 369.52 163.48 415.61 119.1 431.87 95.55 386.89 144.58 369.52"/>
            <polygon class="cls-3" points="95.55 386.89 119.1 431.87 79.02 415.74 51.72 369.59 95.55 386.89"/>
            <polygon class="cls-6" points="48.93 385.1 76.71 430.23 75.2 439.65 47.11 395.2 48.93 385.1"/>
            <polygon class="cls-3" points="142.64 385.01 161.88 430.08 119.56 445.68 95.86 401.7 142.64 385.01"/>
            <polygon class="cls-3" points="90.67 401.71 114.86 445.68 76.71 430.23 48.93 385.1 90.67 401.71"/>
            <polygon class="cls-8" points="95.86 401.7 119.56 445.68 118.28 455.26 94.3 411.99 95.86 401.7"/>
            <polygon class="cls-8" points="155.64 339.51 173.26 387.49 163.48 479.05 143.81 437.62 155.64 339.51"/>
            <polygon class="cls-3" points="143.81 437.62 163.48 479.05 61.81 479.32 31.63 437.84 143.81 437.62"/>
            <path class="cls-1" d="M49.79,339.52h105.85s-11.83,98.11-11.83,98.11l-112.18.22,18.16-98.32ZM143.34,379.43l1.24-9.9-49.03,17.36-43.82-17.3-1.79,9.92,44.07,17.5,49.34-17.58M141.38,395.09l1.26-10.09-46.79,16.69-1.56,10.3,47.08-16.9M89.09,412l1.59-10.3-41.74-16.61-1.82,10.11,41.98,16.8"/>
          </g>
          <g class="cls-30">
            <polygon class="cls-8" points="141.85 508.93 162.43 544.99 161.32 555.68 140.49 520.55 141.85 508.93"/>
            <polygon class="cls-3" points="242.02 508.61 252.9 544.63 206.22 563.49 190.17 529.07 242.02 508.61"/>
            <polygon class="cls-3" points="190.17 529.07 206.22 563.49 162.43 544.99 141.85 508.93 190.17 529.07"/>
            <polygon class="cls-8" points="139.72 527.1 160.69 561.71 159.57 572.59 138.34 538.95 139.72 527.1"/>
            <polygon class="cls-3" points="240.9 526.74 251.98 561.32 207.47 579.44 191.4 546.44 240.9 526.74"/>
            <polygon class="cls-3" points="185.81 546.46 202.43 579.46 160.69 561.71 139.72 527.1 185.81 546.46"/>
            <polygon class="cls-8" points="191.4 546.44 207.47 579.44 206.61 590.53 190.34 558.53 191.4 546.44"/>
            <polygon class="cls-8" points="252.08 473.53 261.82 512.25 256.43 617.95 245.47 588.52 252.08 473.53"/>
            <polygon class="cls-3" points="245.47 588.52 256.43 617.95 147.24 618.53 124.06 589.1 245.47 588.52"/>
            <path class="cls-1" d="M138.05,473.82l114.03-.3-6.61,115-121.41.57,13.99-115.27ZM241.3,520.2l.72-11.59-51.86,20.46-48.32-20.14-1.36,11.62,48.62,20.39,52.2-20.74M240.17,538.56l.73-11.83-49.5,19.7-1.06,12.09,49.83-19.97M184.71,558.55l1.1-12.09-46.08-19.36-1.39,11.85,46.37,19.6"/>
          </g>
          <g class="cls-30">
            <polygon class="cls-3" points="406.35 94.2 402.43 154.05 402.22 147.48 406.1 87.38 406.35 94.2"/>
            <polygon class="cls-8" points="329.61 87.03 331.51 147.24 331.41 153.82 329.49 93.85 329.61 87.03"/>
            <polygon class="cls-3" points="406.1 87.38 402.22 147.48 366.98 158.84 367.99 99.12 406.1 87.38"/>
            <polygon class="cls-3" points="367.99 99.12 366.98 158.84 331.51 147.24 329.61 87.03 367.99 99.12"/>
            <polygon class="cls-3" points="406.75 104.95 402.77 164.41 402.55 157.75 406.49 98.03 406.75 104.95"/>
            <polygon class="cls-8" points="329.42 97.69 331.35 157.51 331.24 164.18 329.29 104.62 329.42 97.69"/>
            <polygon class="cls-3" points="406.49 98.03 402.55 157.75 369.02 168.63 370.21 109.29 406.49 98.03"/>
            <polygon class="cls-3" points="365.95 109.28 365.09 168.62 331.35 157.51 329.42 97.69 365.95 109.28"/>
            <polygon class="cls-3" points="366 116.31 365.13 175.38 365.09 168.62 365.95 109.28 366 116.31"/>
            <polygon class="cls-3" points="414.16 134.01 409.53 192.32 324.94 192.1 322.41 133.67 414.16 134.01"/>
            <path class="cls-1" d="M323.92,66.23l87.47.43,2.77,67.34-91.75-.34,1.51-67.44ZM406.35,94.2l-.25-6.82-38.11,11.74-38.39-12.1-.12,6.83,38.57,12.21,38.29-11.87M406.75,104.95l-.25-6.92-36.28,11.26.08,7.03,36.46-11.37M366,116.31l-.06-7.03-36.53-11.58-.12,6.93,36.71,11.68"/>
          </g>
          <g class="cls-30">
            <g class="cls-30">
              <g class="cls-9">
                <g class="cls-30">
                  <path class="cls-2" d="M409.97,217.51l-4.53,54.55c-.04.44-.08.88-.14,1.32s-.13.88-.2,1.31-.17.87-.26,1.31-.21.86-.32,1.29c-1.01,3.66-2.03,7.33-3.05,11.01-1.03,3.7-2.06,7.41-3.1,11.13-1.04,3.73-2.08,7.48-3.13,11.21-1.05,3.76-2.1,7.51-3.14,11.26l3.46-51.83c1.13-3.96,2.27-7.93,3.4-11.9,1.13-3.95,2.26-7.9,3.38-11.84,1.12-3.92,2.24-7.83,3.35-11.73,1.1-3.88,2.2-7.75,3.29-11.6.13-.45.24-.9.35-1.36s.2-.91.28-1.37.16-.92.22-1.38.11-.92.15-1.39"/>
                </g>
              </g>
            </g>
            <g class="cls-30">
              <g class="cls-10">
                <g class="cls-30">
                  <path class="cls-2" d="M393.69,303.77l-3.36,49.93c.03-.77.06-1.52.1-2.24s.07-1.43.1-2.13.06-1.38.08-2.05c.02-.68.04-1.34.05-2.01.02-1.28-.16-2.42-.53-3.41s-.93-1.84-1.65-2.52-1.62-1.21-2.66-1.57c-1.04-.35-2.24-.54-3.57-.54-.13,0-.26,0-.4,0s-.27,0-.41.02-.27.02-.41.03-.28.02-.42.04c-.95.1-1.91.19-2.87.29s-1.94.19-2.93.28-2.01.19-3.05.29-2.11.2-3.22.31l1.29-50.88c1.21-.11,2.38-.22,3.52-.33,1.14-.1,2.25-.21,3.33-.31s2.15-.2,3.2-.3,2.09-.2,3.14-.3c.15-.02.31-.03.46-.04s.3-.02.45-.03.3-.01.44-.02.29,0,.44,0c1.45,0,2.76.2,3.9.57s2.12.94,2.91,1.66c.79.73,1.4,1.62,1.81,2.68s.61,2.26.59,3.62c0,.71-.03,1.42-.05,2.13s-.05,1.44-.08,2.18-.07,1.49-.1,2.26-.07,1.56-.1,2.38"/>
                </g>
              </g>
            </g>
            <g class="cls-30">
              <g class="cls-13">
                <g class="cls-30">
                  <path class="cls-2" d="M340.07,309.67l1.27,49.64c-1.56-.11-2.96-.39-4.2-.84s-2.31-1.07-3.2-1.84c-.89-.77-1.61-1.69-2.14-2.76s-.88-2.26-1.02-3.59c-.06-.57-.12-1.14-.18-1.71s-.12-1.14-.19-1.71-.15-1.13-.24-1.7-.2-1.12-.34-1.67c-.32-1.31-.7-2.59-1.17-3.83-.47-1.24-1.02-2.44-1.66-3.6-.65-1.15-1.39-2.26-2.24-3.32s-1.81-2.05-2.9-2.98c-.37-.32-.76-.6-1.16-.85s-.82-.46-1.24-.63-.87-.3-1.32-.39-.92-.13-1.4-.13c-.23,0-.47.01-.7.03s-.48.05-.72.1-.49.1-.73.17-.5.15-.75.24c-.73.27-1.33.61-1.82,1.01s-.87.86-1.16,1.36-.5,1.05-.64,1.62-.22,1.17-.25,1.79c-.02.42-.04.84-.05,1.26s-.02.84-.03,1.27,0,.85.01,1.27.04.84.07,1.27l-4.2-50.9c-.04-.45-.06-.89-.07-1.34s-.02-.9-.01-1.35.02-.9.03-1.34.04-.89.06-1.34c.04-.65.12-1.29.28-1.89s.38-1.18.7-1.71.74-1.01,1.27-1.44,1.19-.78,2-1.06c.27-.1.55-.18.82-.25s.54-.13.8-.18.53-.08.79-.1.52-.03.77-.03c.52,0,1.03.05,1.53.14s.98.23,1.45.41.92.4,1.36.66.86.56,1.27.9c1.18.99,2.23,2.05,3.16,3.16s1.74,2.29,2.44,3.52c.71,1.23,1.31,2.5,1.81,3.82s.93,2.68,1.28,4.07c.14.59.26,1.18.37,1.78s.19,1.2.26,1.8.14,1.21.2,1.81.13,1.21.19,1.82c.16,1.41.54,2.68,1.12,3.81s1.36,2.11,2.34,2.93c.98.82,2.15,1.48,3.5,1.96s2.89.79,4.59.9"/>
                </g>
              </g>
            </g>
            <g class="cls-30">
              <g class="cls-12">
                <g class="cls-30">
                  <path class="cls-2" d="M390.93,216.49l-2.97,54.62c.04-.75-.08-1.48-.33-2.16s-.63-1.32-1.12-1.89-1.08-1.05-1.75-1.44-1.43-.67-2.24-.82c-.12-.02-.24-.04-.37-.06s-.24-.03-.36-.04-.24-.02-.36-.03-.24,0-.36,0c-.73,0-1.44.1-2.11.3s-1.29.49-1.84.87c-.56.38-1.05.85-1.45,1.39s-.72,1.18-.93,1.88c-1.63,5.39-3.26,10.81-4.91,16.27-1.65,5.5-3.32,11.04-4.99,16.62-1.68,5.62-3.38,11.27-5.09,16.97-1.72,5.74-3.45,11.51-5.19,17.33-.39,1.29-.77,2.59-1.16,3.89-.38,1.3-.77,2.61-1.15,3.91-.39,1.31-.78,2.62-1.17,3.93s-.8,2.63-1.21,3.94c-.29.92-.79,1.84-1.41,2.7s-1.37,1.66-2.18,2.35c-.81.69-1.67,1.26-2.52,1.66-.85.4-1.68.63-2.42.63l-1.27-49.64c.81,0,1.72-.24,2.65-.67s1.87-1.03,2.76-1.76,1.71-1.58,2.39-2.49,1.22-1.89,1.54-2.87c.45-1.39.89-2.79,1.33-4.18s.86-2.78,1.28-4.17.84-2.77,1.26-4.15c.42-1.38.84-2.75,1.26-4.12,1.91-6.16,3.8-12.27,5.67-18.34s3.71-11.99,5.55-17.92c1.82-5.88,3.63-11.72,5.43-17.52,1.79-5.75,3.56-11.46,5.33-17.12.23-.74.57-1.4,1.01-1.97s.97-1.07,1.58-1.46,1.28-.7,2.01-.91,1.5-.31,2.29-.31c.13,0,.26,0,.39,0s.26.01.39.03.26.03.4.04.27.04.4.06c.88.16,1.71.46,2.44.86s1.38.92,1.91,1.52.95,1.27,1.22,1.99c.27.72.4,1.49.36,2.28"/>
                </g>
              </g>
            </g>
            <g class="cls-30">
              <g class="cls-11">
                <g class="cls-30">
                  <path class="cls-2" d="M417.06,318.42l-5.42,49.05c-.05-.65-.11-1.27-.17-1.87s-.11-1.17-.16-1.73-.1-1.1-.14-1.63-.07-1.06-.09-1.58c-.06-1.42-.27-2.66-.64-3.71s-.91-1.92-1.61-2.61-1.57-1.21-2.62-1.55c-1.05-.34-2.27-.51-3.68-.51-.16,0-.33,0-.5,0s-.34.01-.51.02-.35.02-.53.03-.36.03-.54.05c-.83.08-1.65.18-2.48.28s-1.66.21-2.5.33-1.68.24-2.54.36c-.85.12-1.72.24-2.6.36l3.36-49.93c.96-.12,1.91-.25,2.85-.37s1.86-.25,2.77-.38,1.82-.24,2.73-.35,1.81-.21,2.71-.29c.2-.02.4-.04.6-.05s.39-.03.58-.04.38-.02.56-.02.37,0,.55,0c1.54,0,2.88.18,4.03.54,1.15.36,2.1.91,2.87,1.65s1.36,1.66,1.77,2.78.65,2.43.72,3.94c.02.56.06,1.12.11,1.68s.1,1.14.16,1.74.12,1.2.19,1.84.13,1.29.19,1.99"/>
                </g>
              </g>
            </g>
            <g class="cls-30">
              <g class="cls-17">
                <g class="cls-30">
                  <path class="cls-2" d="M439.31,324.44l-7.38,48.67c.14-.9.09-1.76-.12-2.55s-.58-1.52-1.1-2.15-1.19-1.18-1.99-1.6-1.74-.74-2.79-.91c-.16-.03-.32-.05-.48-.07s-.32-.03-.49-.04-.33-.02-.49-.02-.33,0-.49,0c-.42,0-.84.02-1.26.04s-.84.07-1.27.11-.84.1-1.26.15-.84.1-1.25.15c-.6.07-1.19.15-1.78.25s-1.19.2-1.79.31-1.21.23-1.83.35-1.25.23-1.89.35l5.42-49.05c.7-.12,1.39-.24,2.07-.37s1.34-.25,2-.37,1.31-.23,1.96-.33,1.3-.19,1.95-.26c.45-.05.91-.11,1.37-.16s.92-.11,1.38-.15.92-.09,1.39-.12.92-.05,1.38-.05c.18,0,.36,0,.54,0s.36.01.54.03.36.03.53.05.35.04.53.07c1.15.18,2.18.51,3.06.97.88.45,1.62,1.03,2.19,1.71s.99,1.45,1.22,2.29.28,1.76.14,2.72"/>
                </g>
              </g>
            </g>
            <g class="cls-30">
              <g class="cls-16">
                <g class="cls-30">
                  <path class="cls-2" d="M291.89,328.59l5.51,48.55c-.27-2.41-.59-4.8-.94-7.19-.35-2.38-.73-4.74-1.15-7.09s-.85-4.68-1.32-7.01c-.46-2.32-.95-4.63-1.45-6.94-.1-.44-.19-.88-.27-1.31s-.17-.88-.24-1.32-.14-.88-.21-1.32-.12-.88-.17-1.32l-5.94-50.65c.05.47.12.93.18,1.4s.14.93.22,1.4c.08.47.17.93.26,1.4s.19.93.29,1.4c.54,2.45,1.07,4.9,1.57,7.37.5,2.47.97,4.96,1.42,7.45.44,2.5.86,5.02,1.23,7.55.37,2.54.71,5.09,1,7.65"/>
                </g>
              </g>
            </g>
            <g class="cls-30">
              <g class="cls-14">
                <g class="cls-30">
                  <path class="cls-2" d="M304.88,396.24l4.54,44.2c-.12-1.14-.28-2.28-.48-3.41s-.44-2.26-.71-3.39c-.27-1.13-.58-2.25-.92-3.37-.34-1.12-.71-2.24-1.11-3.36-.92-2.59-1.76-5.2-2.51-7.81s-1.42-5.22-2.01-7.84c-.59-2.61-1.11-5.24-1.55-7.86s-.81-5.24-1.11-7.87l-5.42-47.33c.32,2.8.72,5.61,1.19,8.4.48,2.81,1.03,5.61,1.67,8.4.64,2.8,1.37,5.6,2.19,8.39.82,2.8,1.73,5.58,2.73,8.36.44,1.2.84,2.4,1.21,3.6s.71,2.41,1,3.61.56,2.42.77,3.63.39,2.44.51,3.66"/>
                </g>
              </g>
            </g>
            <g class="cls-30">
              <g class="cls-15">
                <g class="cls-30">
                  <path class="cls-2" d="M326.8,398.15l2.54,44.05c.07,1.15.09,2.3.08,3.46-.01,1.16-.07,2.33-.18,3.51-.11,1.18-.26,2.37-.46,3.57-.21,1.2-.47,2.41-.78,3.63l-2.7-43.01c.35-1.31.64-2.61.87-3.9s.4-2.57.52-3.83.18-2.52.2-3.77-.01-2.48-.08-3.72"/>
                </g>
              </g>
            </g>
            <g class="cls-30">
              <g class="cls-18">
                <g class="cls-30">
                  <path class="cls-2" d="M459.46,329.32l-9.16,48.36c-.03.14-.06.29-.09.43s-.06.29-.1.43-.07.29-.1.43-.07.28-.11.43c-1,3.6-1.97,7.23-2.9,10.89-.93,3.67-1.83,7.37-2.7,11.1-.87,3.74-1.72,7.5-2.54,11.29s-1.62,7.63-2.4,11.48c-.77,3.78-1.82,7.43-3.14,10.95-1.33,3.53-2.92,6.94-4.75,10.24-1.84,3.31-3.92,6.52-6.22,9.63-2.31,3.12-4.84,6.16-7.56,9.11-.83.9-1.66,1.81-2.48,2.73s-1.63,1.85-2.43,2.79c-.8.94-1.6,1.89-2.38,2.85-.78.96-1.55,1.93-2.31,2.92-.4.52-.77,1.05-1.13,1.61s-.69,1.13-1,1.71-.61,1.18-.88,1.79-.53,1.22-.76,1.83c-.5,1.32-1.19,2.53-2.03,3.59s-1.83,2-2.94,2.77-2.33,1.37-3.63,1.78-2.67.63-4.09.64c-.28,0-.56,0-.85-.02s-.57-.04-.85-.08-.57-.08-.86-.13-.58-.11-.86-.18c-6-1.48-11.99-2.95-17.96-4.43-5.97-1.48-11.93-2.95-17.88-4.43-5.94-1.48-11.87-2.95-17.8-4.43-5.91-1.48-11.82-2.95-17.72-4.43-1.33-.34-2.57-.86-3.69-1.53-1.12-.67-2.11-1.49-2.96-2.42-.84-.93-1.54-1.97-2.06-3.09s-.86-2.31-1-3.53l-4.83-42.58c.15,1.32.52,2.6,1.09,3.8s1.33,2.32,2.26,3.33,2.02,1.89,3.25,2.61,2.6,1.29,4.06,1.65c6.5,1.6,13,3.19,19.52,4.79,6.53,1.6,13.07,3.19,19.62,4.79,6.56,1.6,13.13,3.19,19.72,4.79,6.59,1.6,13.2,3.19,19.82,4.79.32.08.64.14.95.2s.63.1.95.14.63.06.94.08.62.03.93.03c1.56,0,3.08-.24,4.51-.68s2.78-1.09,3.99-1.92,2.31-1.83,3.23-2.98,1.68-2.45,2.23-3.87c.26-.66.53-1.32.83-1.97s.62-1.29.96-1.92.71-1.25,1.1-1.84.8-1.18,1.24-1.73c.83-1.06,1.68-2.1,2.53-3.14s1.73-2.05,2.61-3.07c.88-1.01,1.77-2.01,2.67-3,.9-.99,1.81-1.97,2.72-2.94,2.99-3.18,5.76-6.43,8.29-9.79,2.52-3.34,4.8-6.78,6.8-10.33s3.73-7.19,5.17-10.98c1.43-3.77,2.57-7.67,3.4-11.72.83-4.12,1.69-8.21,2.58-12.27.88-4.05,1.79-8.06,2.73-12.06.93-3.97,1.9-7.92,2.9-11.83,1-3.9,2.03-7.76,3.11-11.6.04-.15.08-.3.12-.45s.08-.3.11-.45.07-.3.1-.46.06-.31.09-.46"/>
                </g>
              </g>
            </g>
            <path class="cls-1" d="M436.05,299.48c4.48.83,8.37,2.42,11.64,4.52,3.27,2.11,5.92,4.74,7.9,7.68,1.99,2.94,3.3,6.19,3.89,9.51.59,3.33.46,6.73-.45,9.96-1.08,3.84-2.11,7.7-3.11,11.6-1,3.92-1.97,7.86-2.9,11.83-.94,3.99-1.85,8.01-2.73,12.06-.88,4.07-1.74,8.16-2.58,12.27-.82,4.05-1.96,7.95-3.4,11.72-1.44,3.79-3.17,7.44-5.17,10.98s-4.29,6.99-6.8,10.33c-2.53,3.35-5.3,6.61-8.29,9.79-.91.97-1.82,1.95-2.72,2.94-.9.99-1.79,1.99-2.67,3-.88,1.01-1.75,2.03-2.61,3.07s-1.7,2.08-2.53,3.14c-.44.56-.85,1.13-1.24,1.73s-.76,1.21-1.1,1.84-.67,1.27-.96,1.92-.58,1.31-.83,1.97c-.55,1.42-1.3,2.72-2.23,3.87s-2.01,2.16-3.23,2.98-2.56,1.48-3.99,1.92-2.95.68-4.51.68c-.31,0-.62,0-.93-.03s-.63-.05-.94-.08-.63-.08-.95-.14-.63-.12-.95-.2c-6.62-1.6-13.23-3.19-19.82-4.79-6.58-1.6-13.16-3.19-19.72-4.79-6.55-1.59-13.09-3.19-19.62-4.79-6.52-1.59-13.03-3.19-19.52-4.79-1.93-.48-3.68-1.3-5.18-2.37-1.5-1.08-2.75-2.41-3.68-3.9s-1.55-3.15-1.78-4.88-.08-3.52.52-5.3c.97-2.89,1.61-5.74,1.96-8.55.35-2.8.4-5.56.22-8.3-.18-2.73-.61-5.43-1.23-8.13s-1.44-5.35-2.41-8.01c-1.28-3.52-2.4-7.07-3.38-10.62-.98-3.54-1.81-7.1-2.51-10.66s-1.26-7.11-1.71-10.67c-.44-3.55-.76-7.1-.98-10.65-.21-3.51-.52-6.98-.91-10.43-.39-3.43-.86-6.84-1.39-10.22-.53-3.37-1.13-6.71-1.77-10.03-.64-3.31-1.34-6.6-2.06-9.88-.41-1.83-.73-3.67-.95-5.52-.22-1.84-.34-3.69-.33-5.54s.12-3.69.38-5.54c.26-1.84.65-3.68,1.2-5.51.84-2.8,2.2-5.27,3.94-7.39,1.74-2.11,3.87-3.88,6.24-5.3s5-2.49,7.74-3.2,5.6-1.07,8.46-1.07c1.33,0,2.66.08,3.97.24s2.61.4,3.88.72c1.27.32,2.52.73,3.72,1.21,1.2.49,2.37,1.05,3.47,1.71.86.51,1.69,1.05,2.51,1.62.82.57,1.63,1.18,2.44,1.8s1.64,1.27,2.48,1.93,1.72,1.33,2.64,2.01c.27-.85.54-1.68.81-2.51.26-.82.53-1.63.78-2.44s.51-1.6.77-2.39c.25-.79.51-1.58.76-2.36,1.38-4.28,2.76-8.53,4.12-12.77,1.36-4.21,2.71-8.4,4.06-12.56,1.34-4.14,2.66-8.26,3.98-12.36,1.31-4.08,2.61-8.13,3.89-12.17.37-1.18.83-2.32,1.36-3.41.54-1.09,1.16-2.13,1.88-3.12s1.53-1.94,2.45-2.83,1.94-1.74,3.08-2.53c1.16-.81,2.41-1.52,3.73-2.14s2.71-1.13,4.14-1.54c1.43-.41,2.91-.73,4.4-.93,1.5-.21,3.02-.31,4.54-.31.94,0,1.88.05,2.81.13s1.86.21,2.78.38c.92.17,1.82.38,2.71.63.89.25,1.76.55,2.62.89,2.54,1.01,4.83,2.26,6.83,3.69s3.71,3.06,5.09,4.82c1.38,1.76,2.43,3.67,3.11,5.66s.97,4.09.85,6.22c-.03.52-.08,1.04-.13,1.56s-.13,1.04-.22,1.55-.19,1.03-.31,1.54-.24,1.02-.39,1.53c-1.09,3.85-2.19,7.72-3.29,11.6-1.11,3.9-2.23,7.81-3.35,11.73-1.13,3.94-2.26,7.89-3.38,11.84-1.14,3.97-2.27,7.94-3.4,11.9,1.06.72,2.16,1.39,3.27,2.04s2.21,1.29,3.27,1.95,2.06,1.33,2.97,2.05,1.71,1.49,2.36,2.34c.94,1.24,1.94,2.34,3,3.34s2.19,1.9,3.4,2.72,2.48,1.56,3.84,2.25,2.8,1.33,4.33,1.95c1,.4,1.93.95,2.81,1.59s1.72,1.37,2.53,2.14,1.62,1.58,2.43,2.37,1.63,1.57,2.49,2.28c.28.23.58.48.88.73s.61.49.93.72.65.43.98.59.67.28,1.02.35ZM439.17,325.16c.26-1.04.29-2.04.12-2.96s-.56-1.77-1.12-2.51-1.32-1.38-2.23-1.88-2-.86-3.22-1.05c-.18-.03-.35-.05-.53-.07s-.35-.04-.53-.05-.36-.02-.54-.03-.36,0-.54,0c-.46,0-.92.02-1.38.05s-.92.07-1.39.12-.92.1-1.38.15-.92.11-1.37.16c-.65.07-1.3.16-1.95.26s-1.3.21-1.96.33-1.32.24-2,.37-1.36.25-2.07.37c-.06-.69-.13-1.35-.19-1.99s-.13-1.24-.19-1.84-.11-1.17-.16-1.74-.08-1.13-.11-1.68c-.07-1.51-.31-2.82-.72-3.94s-1-2.04-1.77-2.78-1.73-1.28-2.87-1.65c-1.15-.36-2.49-.54-4.03-.54-.18,0-.36,0-.55,0s-.37.01-.56.02-.38.02-.58.04-.39.03-.6.05c-.9.09-1.81.18-2.71.29s-1.81.23-2.73.35-1.84.25-2.77.38-1.88.25-2.85.37c.03-.82.07-1.61.1-2.38s.07-1.52.1-2.26.06-1.46.08-2.18.04-1.43.05-2.13c.02-1.36-.18-2.57-.59-3.62s-1.02-1.95-1.81-2.68c-.79-.73-1.77-1.28-2.91-1.66s-2.45-.57-3.9-.57c-.14,0-.29,0-.44,0s-.29,0-.44.02-.3.02-.45.03-.31.02-.46.04c-1.04.1-2.08.2-3.14.3s-2.12.2-3.2.3-2.19.2-3.33.31c-1.14.1-2.31.21-3.52.33.12-.41.24-.79.35-1.15s.21-.69.3-1.01.19-.62.28-.92.17-.58.26-.87c1.65-5.53,3.29-11.02,4.92-16.47,1.62-5.41,3.22-10.79,4.82-16.13,1.58-5.3,3.16-10.57,4.72-15.8,1.55-5.19,3.1-10.35,4.63-15.48.07-.24.15-.48.23-.72s.16-.48.23-.72.14-.48.2-.73.1-.49.13-.73c.11-.82.02-1.64-.23-2.4s-.65-1.48-1.19-2.11-1.19-1.18-1.95-1.62-1.61-.75-2.53-.91c-.13-.02-.27-.04-.4-.06s-.27-.03-.4-.04-.26-.02-.39-.03-.26,0-.39,0c-.8,0-1.57.1-2.29.31s-1.4.51-2.01.91-1.14.89-1.58,1.46-.79,1.24-1.01,1.97c-1.77,5.66-3.55,11.37-5.33,17.12-1.8,5.79-3.61,11.63-5.43,17.52-1.84,5.93-3.68,11.9-5.55,17.92s-3.77,12.18-5.67,18.34c-.42,1.37-.84,2.75-1.26,4.12-.42,1.38-.84,2.76-1.26,4.15s-.85,2.78-1.28,4.17-.87,2.79-1.33,4.18c-.32.98-.86,1.95-1.54,2.87s-1.5,1.77-2.39,2.49-1.83,1.34-2.76,1.76-1.84.67-2.65.67c-1.7-.11-3.24-.42-4.59-.9s-2.53-1.14-3.5-1.96c-.98-.82-1.76-1.8-2.34-2.93s-.96-2.4-1.12-3.81c-.07-.61-.13-1.21-.19-1.82s-.13-1.21-.2-1.81-.16-1.2-.26-1.8-.22-1.19-.37-1.78c-.35-1.39-.77-2.75-1.28-4.07s-1.11-2.59-1.81-3.82c-.7-1.22-1.51-2.4-2.44-3.52s-1.98-2.17-3.16-3.16c-.41-.34-.83-.64-1.27-.9s-.89-.48-1.36-.66-.95-.32-1.45-.41-1.01-.14-1.53-.14c-.25,0-.51.01-.77.03s-.52.06-.79.1-.53.1-.8.18-.54.15-.82.25c-.8.28-1.46.64-2,1.06s-.95.91-1.27,1.44-.54,1.11-.7,1.71-.24,1.24-.28,1.89c-.03.57-.06,1.14-.08,1.71s-.03,1.14-.02,1.72.03,1.14.07,1.71.1,1.14.19,1.7c.58,3.65,1.2,7.31,1.83,10.99.63,3.69,1.27,7.4,1.9,11.13.64,3.74,1.26,7.51,1.85,11.29.6,3.8,1.16,7.63,1.67,11.48.39,2.98.76,5.98,1.16,8.98s.82,6.03,1.33,9.04c.51,3.03,1.09,6.05,1.81,9.06.72,3.02,1.58,6.04,2.62,9.03,1.17,3.37,2.34,6.76,3.36,10.18,1.03,3.43,1.91,6.9,2.53,10.42.62,3.54.95,7.12.89,10.79-.07,3.68-.55,7.43-1.58,11.28,5.35,1.29,10.68,2.57,15.99,3.85,5.32,1.28,10.63,2.56,15.92,3.83s10.6,2.54,15.9,3.81c5.3,1.27,10.61,2.53,15.92,3.78.24,0,.48-.03.72-.1s.48-.16.7-.28.43-.25.61-.39.34-.29.47-.44c1.5-1.74,2.99-3.49,4.47-5.23s2.95-3.48,4.41-5.22c1.46-1.73,2.93-3.46,4.39-5.18s2.93-3.42,4.4-5.11c1.63-1.87,3.26-3.75,4.83-5.66s3.07-3.83,4.44-5.82,2.62-4.02,3.69-6.14c1.06-2.11,1.94-4.31,2.56-6.6,1.34-4.91,2.62-9.79,3.87-14.66s2.45-9.66,3.64-14.45c1.18-4.77,2.34-9.51,3.49-14.22,1.14-4.69,2.28-9.35,3.42-13.99"/>
          </g>
          <g class="cls-30">
            <polygon class="cls-3" points="428.03 578.04 420.74 608.29 420.35 597.05 427.55 565.76 428.03 578.04"/>
            <polygon class="cls-8" points="324.9 566.21 327.86 597.5 327.7 608.77 324.7 578.51 324.9 566.21"/>
            <polygon class="cls-3" points="427.55 565.76 420.35 597.05 374.34 616.98 376.52 587.52 427.55 565.76"/>
            <polygon class="cls-3" points="376.52 587.52 374.34 616.98 327.86 597.5 324.9 566.21 376.52 587.52"/>
            <polygon class="cls-3" points="428.79 597.53 421.35 626.1 420.95 614.63 428.3 584.98 428.79 597.53"/>
            <polygon class="cls-8" points="324.59 585.46 327.61 615.12 327.45 626.61 324.39 598.04 324.59 585.46"/>
            <polygon class="cls-3" points="428.3 584.98 420.95 614.63 377.09 633.81 379.6 605.95 428.3 584.98"/>
            <polygon class="cls-3" points="373.84 605.98 371.91 633.84 327.61 615.12 324.59 585.46 373.84 605.98"/>
            <polygon class="cls-3" points="373.97 618.82 372.02 645.54 371.91 633.84 373.84 605.98 373.97 618.82"/>
            <polygon class="cls-3" points="439.44 650.61 430.73 674.43 319.02 675.14 314.91 651.35 439.44 650.61"/>
            <path class="cls-1" d="M317.39,528.98l116.78-.42,5.27,122.05-124.53.74,2.48-122.37ZM428.03,578.04l-.48-12.28-51.03,21.76-51.62-21.32-.2,12.31,51.96,21.59,51.36-22.06M428.79,597.53l-.49-12.55-48.7,20.97.17,12.84,49.02-21.26M373.97,618.82l-.13-12.84-49.25-20.52-.2,12.58,49.57,20.78"/>
          </g>
        </g>
      </g>
      <g>
        <g class="cls-30">
          <polygon class="cls-8" points="170.58 59.06 185.83 122.95 185 130.24 169.59 66.67 170.58 59.06"/>
          <polygon class="cls-3" points="255.91 59.41 264.12 123.18 223.88 135.8 211.94 72.54 255.91 59.41"/>
          <polygon class="cls-3" points="211.94 72.54 223.88 135.8 185.83 122.95 170.58 59.06 211.94 72.54"/>
          <polygon class="cls-8" points="169.04 70.96 184.53 134.35 183.68 141.76 168.03 78.71 169.04 70.96"/>
          <polygon class="cls-3" points="255.07 71.29 263.42 134.56 225.09 146.68 213.17 83.91 255.07 71.29"/>
          <polygon class="cls-3" points="208.41 83.89 220.73 146.67 184.53 134.35 169.04 70.96 208.41 83.89"/>
          <polygon class="cls-8" points="213.17 83.91 225.09 146.68 224.44 154.2 212.39 91.78 213.17 83.91"/>
          <polygon class="cls-8" points="264.25 36.33 271.67 101.01 267.54 173.04 259.34 111.58 264.25 36.33"/>
          <polygon class="cls-3" points="259.34 111.58 267.54 173.04 173.62 172.85 156.67 111.26 259.34 111.58"/>
          <path class="cls-5" d="M166.83,35.89l97.42.44-4.91,75.25-102.67-.32,10.16-75.37ZM255.37,67.01l.53-7.6-43.96,13.12-41.36-13.48-.99,7.61,41.57,13.62,44.21-13.28M254.53,79.03l.54-7.74-41.9,12.61-.77,7.87,42.14-12.75M207.61,91.76l.8-7.87-39.37-12.93-1.01,7.75,39.58,13.05"/>
        </g>
        <g class="cls-30">
          <polygon class="cls-8" points="52.91 166.47 79.61 225.4 78.16 233.77 51.17 175.3 52.91 166.47"/>
          <polygon class="cls-3" points="145.04 166.67 163.58 225.5 119.49 240.05 96.44 182 145.04 166.67"/>
          <polygon class="cls-3" points="96.44 182 119.49 240.05 79.61 225.4 52.91 166.47 96.44 182"/>
          <polygon class="cls-8" points="50.19 180.27 77.34 238.47 75.87 246.96 48.41 189.26 50.19 180.27"/>
          <polygon class="cls-3" points="143.14 180.45 162.01 238.54 119.98 252.5 96.78 195.18 143.14 180.45"/>
          <polygon class="cls-3" points="91.64 195.17 115.3 252.5 77.34 238.47 50.19 180.27 91.64 195.17"/>
          <polygon class="cls-8" points="96.78 195.18 119.98 252.5 118.72 261.14 95.26 204.34 96.78 195.18"/>
          <polygon class="cls-8" points="155.98 139.95 173.28 200.15 163.66 282.68 144.39 227.27 155.98 139.95"/>
          <polygon class="cls-3" points="144.39 227.27 163.66 282.68 62.67 282.67 33.22 227.15 144.39 227.27"/>
          <path class="cls-5" d="M50.93,139.67l105.05.28-11.58,87.32-111.18-.12,17.71-87.48ZM143.82,175.49l1.21-8.82-48.6,15.33-43.52-15.53-1.75,8.83,43.76,15.69,48.89-15.51M141.91,189.42l1.23-8.97-46.36,14.73-1.52,9.16,46.65-14.92M90.09,204.33l1.55-9.16-41.45-14.9-1.78,8.98,41.67,15.08"/>
        </g>
        <g class="cls-30">
          <polygon class="cls-3" points="568.39 66.63 550.95 129.71 550.01 122.47 567.27 59.08 568.39 66.63"/>
          <polygon class="cls-3" points="567.27 59.08 550.01 122.47 512.66 135.02 526.74 72.12 567.27 59.08"/>
          <polygon class="cls-3" points="526.74 72.12 512.66 135.02 472.62 122.24 483.01 58.73 526.74 72.12"/>
          <polygon class="cls-3" points="570.16 78.56 552.44 141.13 551.49 133.79 569.02 70.89 570.16 78.56"/>
          <polygon class="cls-3" points="569.02 70.89 551.49 133.79 515.93 145.81 530.42 83.4 569.02 70.89"/>
          <polygon class="cls-3" points="525.72 83.38 511.62 145.8 473.51 133.57 484.07 70.55 525.72 83.38"/>
          <polygon class="cls-3" points="526.64 91.19 512.39 153.27 511.62 145.8 525.72 83.38 526.64 91.19"/>
          <path class="cls-5" d="M474.29,35.72l96.23.44,11.43,74.72-101.34-.32-6.32-74.83ZM568.39,66.63l-1.12-7.55-40.53,13.04-43.72-13.39.67,7.56,43.96,13.52,40.74-13.18M570.16,78.56l-1.14-7.67-38.6,12.51.94,7.82,38.8-12.65M526.64,91.19l-.92-7.82-41.65-12.83.69,7.68,41.88,12.96"/>
          <polygon class="cls-3" points="581.95 110.88 562.87 172 470.06 171.81 480.6 110.56 581.95 110.88"/>
          <polygon class="cls-3" points="480.6 110.56 470.06 171.81 464.75 100.15 474.29 35.72 480.6 110.56"/>
          <polygon class="cls-3" points="688.23 173.52 659.16 231.41 657.6 223.18 686.35 164.82 688.23 173.52"/>
          <polygon class="cls-3" points="644.15 179.94 618.82 237.54 575.28 223.08 596.22 164.62 644.15 179.94"/>
          <polygon class="cls-3" points="686.35 164.82 657.6 223.18 618.82 237.54 644.15 179.94 686.35 164.82"/>
          <polygon class="cls-3" points="691.2 187.27 661.63 244.43 660.04 236.05 689.29 178.41 691.2 187.27"/>
          <polygon class="cls-3" points="689.29 178.41 660.04 236.05 623.13 249.84 649.09 192.95 689.29 178.41"/>
          <polygon class="cls-3" points="644.06 192.95 618.54 249.84 577.05 235.97 598.36 178.23 644.06 192.95"/>
          <polygon class="cls-3" points="645.72 201.97 619.92 258.36 618.54 249.84 644.06 192.95 645.72 201.97"/>
          <polygon class="cls-3" points="706.76 224.59 675.15 279.63 576.21 279.62 598.07 224.47 706.76 224.59"/>
          <path class="cls-5" d="M584.94,138.17l102.83.28,18.99,86.15-108.69-.12-13.13-86.3ZM688.23,173.52l-1.88-8.69-42.2,15.12-47.93-15.32,1.37,8.71,48.22,15.49,42.42-15.31M691.2,187.27l-1.91-8.86-40.2,14.54,1.7,9.03,40.41-14.71M645.72,201.97l-1.67-9.03-45.7-14.71,1.39,8.87,45.97,14.86"/>
          <polygon class="cls-3" points="598.07 224.47 576.21 279.62 565.29 197.98 584.94 138.17 598.07 224.47"/>
          <polygon class="cls-3" points="723.37 330.3 688.27 378.55 686.4 368.73 721.09 319.75 723.37 330.3"/>
          <polygon class="cls-3" points="675 338.27 644.36 386 596.58 368.87 621.89 319.82 675 338.27"/>
          <polygon class="cls-3" points="721.09 319.75 686.4 368.73 644.36 386 675 338.27 721.09 319.75"/>
          <polygon class="cls-3" points="726.99 347.02 691.23 394.08 689.32 384.09 724.66 336.26 726.99 347.02"/>
          <polygon class="cls-3" points="724.66 336.26 689.32 384.09 649.27 400.67 680.71 354.08 724.66 336.26"/>
          <polygon class="cls-3" points="675.16 354.08 644.25 400.68 598.71 384.26 624.5 336.35 675.16 354.08"/>
          <polygon class="cls-3" points="677.21 365.09 645.92 410.89 644.25 400.68 675.16 354.08 677.21 365.09"/>
          <polygon class="cls-3" points="625.06 392.74 598.45 436.5 585.34 339.02 609.01 287.81 625.06 392.74"/>
          <polygon class="cls-3" points="745.15 392.5 706.74 436.2 598.45 436.5 625.06 392.74 745.15 392.5"/>
          <path class="cls-5" d="M609.01,287.81h112.97s23.16,104.69,23.16,104.69l-120.08.24-16.05-104.93ZM723.37,330.3l-2.28-10.55-46.09,18.52-53.11-18.45,1.67,10.57,53.46,18.68,46.35-18.76M726.99,347.02l-2.33-10.76-43.95,17.82,2.08,11.01,44.2-18.07M677.21,365.09l-2.04-11.01-50.67-17.73,1.7,10.78,51.01,17.96"/>
        </g>
        <g class="cls-30">
          <polygon class="cls-3" points="633.89 483.84 605.13 520.21 603.61 508.71 632 471.26 633.89 483.84"/>
          <polygon class="cls-3" points="580.46 493.47 557.1 529.04 506.21 509.11 523.48 471.64 580.46 493.47"/>
          <polygon class="cls-3" points="632 471.26 603.61 508.71 557.1 529.04 580.46 493.47 632 471.26"/>
          <polygon class="cls-3" points="636.88 503.76 607.53 538.4 605.99 526.69 634.96 490.93 636.88 503.76"/>
          <polygon class="cls-3" points="634.96 490.93 605.99 526.69 561.63 546.25 585.76 512.34 634.96 490.93"/>
          <polygon class="cls-3" points="579.67 512.36 556.18 546.28 507.66 527.13 525.27 491.34 579.67 512.36"/>
          <polygon class="cls-3" points="581.24 525.52 557.44 558.26 556.18 546.28 579.67 512.36 581.24 525.52"/>
          <polygon class="cls-3" points="522.26 558.83 504.39 588.53 495.72 474.25 511.44 433.62 522.26 558.83"/>
          <polygon class="cls-3" points="654.18 558.16 622.22 587.87 504.39 588.53 522.26 558.83 654.18 558.16"/>
          <path class="cls-5" d="M511.44,433.62l123.39-.34,19.35,124.88-131.92.66-10.82-125.2ZM633.89,483.84l-1.89-12.58-51.54,22.21-56.98-21.84,1.15,12.6,57.39,22.11,51.88-22.51M636.88,503.76l-1.93-12.83-49.2,21.41,1.61,13.16,49.52-21.74M581.24,525.52l-1.57-13.16-54.4-21.02,1.17,12.86,54.8,21.32"/>
        </g>
        <g class="cls-30">
          <polygon class="cls-8" points="23.13 323.74 55.16 373 53.44 382.98 21.01 334.48 23.13 323.74"/>
          <polygon class="cls-3" points="124.73 323.67 146.95 372.85 98.53 390.36 70.84 342.47 124.73 323.67"/>
          <polygon class="cls-3" points="70.84 342.47 98.53 390.36 55.16 373 23.13 323.74 70.84 342.47"/>
          <polygon class="cls-8" points="19.82 340.53 52.47 388.6 50.71 398.76 17.67 351.49 19.82 340.53"/>
          <polygon class="cls-3" points="122.44 340.42 145.08 388.42 98.91 405.26 71 358.54 122.44 340.42"/>
          <polygon class="cls-3" points="65.31 358.55 93.78 405.27 52.47 388.6 19.82 340.53 65.31 358.55"/>
          <polygon class="cls-8" points="71 358.54 98.91 405.26 97.41 415.6 69.15 369.71 71 358.54"/>
          <polygon class="cls-8" points="137.15 291.24 157.81 342.62 146.37 441.3 123.12 397.57 137.15 291.24"/>
          <polygon class="cls-3" points="123.12 397.57 146.37 441.3 35.62 441.62 0 397.83 123.12 397.57"/>
          <path class="cls-5" d="M21.49,291.25h115.66s-14.03,106.32-14.03,106.32l-123.12.25,21.49-106.57ZM123.27,334.38l1.46-10.71-53.89,18.8-47.71-18.72-2.11,10.73,48,18.97,54.26-19.06M120.95,351.36l1.5-10.94-51.45,18.12-1.84,11.17,51.79-18.35M63.43,369.72l1.88-11.17-45.49-18.02-2.16,10.96,45.76,18.23"/>
        </g>
        <g class="cls-30">
          <polygon class="cls-8" points="120.17 475.46 144.64 512.83 143.34 524.46 118.54 488.19 120.17 475.46"/>
          <polygon class="cls-3" points="230.45 475.08 243.45 512.42 192.35 532.96 173.19 497.53 230.45 475.08"/>
          <polygon class="cls-3" points="173.19 497.53 192.35 532.96 144.64 512.83 120.17 475.46 173.19 497.53"/>
          <polygon class="cls-8" points="117.62 495.38 142.6 531.02 141.26 542.88 115.96 508.39 117.62 495.38"/>
          <polygon class="cls-3" points="229.1 494.95 242.37 530.58 193.59 550.34 174.39 516.61 229.1 494.95"/>
          <polygon class="cls-3" points="168.21 516.63 188.07 550.36 142.6 531.02 117.62 495.38 168.21 516.63"/>
          <polygon class="cls-8" points="174.39 516.61 193.59 550.34 192.57 562.44 173.11 529.91 174.39 516.61"/>
          <polygon class="cls-8" points="241.73 436.69 253.34 477.23 246.93 592.38 233.74 562.95 241.73 436.69"/>
          <polygon class="cls-3" points="233.74 562.95 246.93 592.38 127.33 593.05 99.58 563.63 233.74 562.95"/>
          <path class="cls-5" d="M116.39,437.04l125.34-.35-7.99,126.26-134.16.68,16.81-126.59ZM229.59,487.77l.86-12.7-57.26,22.46-53.02-22.07-1.63,12.73,53.37,22.37,57.67-22.78M228.22,507.93l.88-12.97-54.71,21.65-1.28,13.31,55.11-21.98M166.88,529.94l1.33-13.31-50.59-21.25-1.66,13,50.92,21.55"/>
        </g>
        <g class="cls-30">
          <polygon class="cls-3" points="410.58 29.5 406.19 94.25 405.95 87.33 410.3 22.32 410.58 29.5"/>
          <polygon class="cls-8" points="327.71 21.92 329.96 87.06 329.84 93.99 327.56 29.12 327.71 21.92"/>
          <polygon class="cls-3" points="410.3 22.32 405.95 87.33 368.08 99.3 369.15 34.7 410.3 22.32"/>
          <polygon class="cls-3" points="369.15 34.7 368.08 99.3 329.96 87.06 327.71 21.92 369.15 34.7"/>
          <polygon class="cls-3" points="411.03 40.86 406.56 105.17 406.32 98.15 410.74 33.56 411.03 40.86"/>
          <polygon class="cls-8" points="327.48 33.18 329.77 97.89 329.65 104.92 327.33 40.49 327.48 33.18"/>
          <polygon class="cls-3" points="410.74 33.56 406.32 98.15 370.28 109.62 371.55 45.43 410.74 33.56"/>
          <polygon class="cls-3" points="366.94 45.41 366.04 109.6 329.77 97.89 327.48 33.18 366.94 45.41"/>
          <polygon class="cls-3" points="367 52.85 366.09 116.74 366.04 109.6 366.94 45.41 367 52.85"/>
          <polygon class="cls-3" points="419.08 71.61 413.87 134.66 322.8 134.41 319.82 71.22 419.08 71.61"/>
          <path class="cls-5" d="M321.6,0l94.36.49,3.12,71.12-99.27-.39,1.79-71.22ZM410.58,29.5l-.28-7.19-41.15,12.38-41.44-12.78-.15,7.2,41.66,12.9,41.36-12.52M411.03,40.86l-.29-7.3-39.19,11.88.08,7.43,39.4-12.01M367,52.85l-.06-7.44-39.46-12.24-.15,7.31,39.67,12.36"/>
        </g>
        <g class="cls-30">
          <g class="cls-30">
            <g class="cls-22">
              <g class="cls-30">
                <path class="cls-2" d="M414.71,160.47l-5.13,58.87c-.04.46-.09.92-.15,1.37s-.14.91-.22,1.37-.18.91-.28,1.36-.22.9-.35,1.35c-1.08,3.89-2.17,7.8-3.27,11.73-1.1,3.94-2.22,7.9-3.33,11.86-1.12,3.98-2.25,7.97-3.37,11.96-1.13,4.01-2.26,8.02-3.39,12.02l3.9-55.8c1.23-4.25,2.46-8.5,3.69-12.75s2.45-8.45,3.67-12.67c1.21-4.19,2.42-8.38,3.62-12.54,1.19-4.15,2.38-8.28,3.55-12.38.14-.47.26-.95.38-1.42s.22-.96.31-1.44.17-.96.24-1.45.12-.97.16-1.45"/>
              </g>
            </g>
          </g>
          <g class="cls-30">
            <g class="cls-27">
              <g class="cls-30">
                <path class="cls-2" d="M397.13,252.75l-3.8,53.63c.03-.83.07-1.63.1-2.41s.07-1.54.1-2.29.06-1.48.09-2.2.04-1.44.05-2.15c.02-1.36-.18-2.58-.58-3.65-.4-1.06-1-1.96-1.79-2.69-.78-.73-1.75-1.29-2.88-1.67-1.13-.38-2.42-.57-3.86-.57-.14,0-.29,0-.43,0s-.29,0-.44.02-.3.02-.45.03-.3.03-.46.04c-1.03.1-2.06.21-3.11.31s-2.1.2-3.17.3-2.17.2-3.3.31-2.28.21-3.48.32l1.39-54.71c1.32-.12,2.59-.23,3.83-.34,1.24-.11,2.44-.22,3.63-.32s2.34-.21,3.49-.32,2.28-.21,3.42-.32c.17-.02.34-.03.5-.04s.33-.02.5-.03.33-.01.49-.02.32,0,.48,0c1.58,0,3.01.21,4.25.62,1.24.4,2.31,1,3.17,1.78s1.53,1.74,1.97,2.87.67,2.43.64,3.88c0,.76-.03,1.52-.05,2.29s-.06,1.55-.09,2.34-.07,1.6-.11,2.43-.07,1.69-.11,2.57"/>
              </g>
            </g>
          </g>
          <g class="cls-30">
            <g class="cls-21">
              <g class="cls-30">
                <path class="cls-2" d="M338.67,259.09l1.59,53.29c-1.69-.11-3.21-.42-4.56-.9-1.34-.48-2.5-1.15-3.47-1.97-.97-.83-1.74-1.82-2.32-2.95-.57-1.14-.94-2.42-1.1-3.84-.07-.61-.13-1.22-.19-1.83s-.13-1.22-.2-1.83-.16-1.21-.26-1.81-.22-1.2-.36-1.79c-.34-1.4-.75-2.77-1.26-4.1s-1.1-2.61-1.79-3.85c-.7-1.23-1.5-2.42-2.42-3.54s-1.96-2.19-3.13-3.18c-.4-.34-.82-.65-1.25-.91s-.88-.49-1.34-.67-.94-.32-1.43-.42-.99-.14-1.51-.14c-.25,0-.51.01-.76.03s-.52.06-.78.11-.53.11-.79.18-.54.16-.81.25c-.8.28-1.45.65-1.98,1.07s-.94.92-1.26,1.45-.54,1.12-.69,1.73-.24,1.25-.27,1.91c-.03.46-.05.93-.07,1.4s-.03.93-.03,1.4,0,.94.02,1.4.04.93.09,1.4l-4.98-54.73c-.04-.49-.07-.99-.09-1.49s-.02-.99-.01-1.49.02-.99.04-1.49.05-.99.08-1.49c.04-.7.14-1.38.31-2.03s.42-1.27.77-1.84.81-1.09,1.39-1.54,1.3-.84,2.18-1.14c.3-.1.6-.19.89-.27s.59-.14.87-.19.57-.09.86-.11.56-.04.84-.04c.57,0,1.12.05,1.66.15s1.06.25,1.57.44,1,.43,1.48.72.93.61,1.37.97c1.29,1.06,2.43,2.19,3.44,3.39,1.01,1.2,1.89,2.46,2.65,3.77s1.41,2.68,1.97,4.1,1.01,2.87,1.38,4.37c.16.63.29,1.27.4,1.91s.2,1.29.28,1.93.15,1.3.22,1.95c.07.65.13,1.3.21,1.95.17,1.51.58,2.88,1.21,4.09.63,1.21,1.48,2.27,2.55,3.15,1.07.88,2.34,1.59,3.82,2.11s3.16.85,5.02.97"/>
              </g>
            </g>
          </g>
          <g class="cls-30">
            <g class="cls-20">
              <g class="cls-30">
                <path class="cls-2" d="M394.04,159.27l-3.33,58.95c.04-.8-.08-1.57-.35-2.3-.27-.73-.68-1.41-1.21-2.01s-1.17-1.12-1.9-1.53-1.54-.71-2.42-.87c-.13-.02-.26-.04-.39-.06s-.26-.03-.39-.04-.26-.02-.39-.03-.26,0-.39,0c-.79,0-1.56.11-2.27.32s-1.39.52-1.99.93-1.13.9-1.57,1.48-.78,1.25-1.01,2c-1.76,5.73-3.52,11.5-5.29,17.32-1.79,5.86-3.58,11.76-5.39,17.71-1.82,5.99-3.66,12.03-5.51,18.11s-3.74,12.3-5.63,18.52c-.42,1.38-.84,2.77-1.26,4.16s-.83,2.79-1.25,4.19-.84,2.8-1.27,4.2-.87,2.81-1.31,4.21c-.32.99-.85,1.97-1.52,2.89-.67.92-1.49,1.78-2.36,2.52s-1.81,1.35-2.73,1.78-1.82.68-2.62.68l-1.59-53.29c.88,0,1.87-.26,2.89-.72,1.01-.46,2.04-1.11,3.01-1.9s1.86-1.7,2.61-2.69c.74-.98,1.33-2.03,1.68-3.08.49-1.49.98-2.99,1.45-4.49.47-1.49.94-2.98,1.4-4.47s.92-2.97,1.38-4.45.92-2.96,1.38-4.43c2.08-6.61,4.15-13.17,6.19-19.67,2.03-6.45,4.04-12.85,6.04-19.19,1.98-6.29,3.95-12.53,5.9-18.72,1.94-6.14,3.86-12.23,5.78-18.27.25-.79.63-1.49,1.11-2.1s1.06-1.14,1.72-1.56,1.39-.75,2.18-.97,1.62-.33,2.49-.33c.14,0,.28,0,.42.01s.28.02.43.03.29.03.43.05.29.04.43.07c.96.17,1.85.49,2.65.92s1.5.99,2.08,1.62,1.03,1.35,1.33,2.12.44,1.59.39,2.43"/>
              </g>
            </g>
          </g>
          <g class="cls-30">
            <g class="cls-19">
              <g class="cls-30">
                <path class="cls-2" d="M422.64,268.51l-6.2,52.62c-.06-.7-.12-1.37-.19-2.01s-.12-1.25-.18-1.85-.11-1.18-.15-1.75-.08-1.13-.11-1.7c-.06-1.53-.29-2.85-.7-3.98s-.99-2.06-1.75-2.8-1.71-1.29-2.85-1.66c-1.14-.37-2.47-.55-4-.55-.18,0-.35,0-.53,0s-.36.01-.55.02-.38.02-.57.04-.39.03-.58.05c-.9.09-1.79.19-2.69.3s-1.8.23-2.7.36-1.82.26-2.75.39-1.86.26-2.82.39l3.8-53.63c1.05-.13,2.08-.27,3.1-.41s2.02-.28,3.02-.41,1.99-.26,2.97-.38,1.97-.23,2.96-.32c.22-.02.43-.04.64-.05s.42-.03.62-.04.41-.02.61-.02.4,0,.59,0c1.68,0,3.15.2,4.4.59s2.3.98,3.14,1.77,1.49,1.79,1.94,2.99c.45,1.2.71,2.62.79,4.25.03.6.07,1.2.12,1.81s.11,1.23.17,1.87.13,1.29.2,1.98.14,1.39.21,2.14"/>
              </g>
            </g>
          </g>
          <g class="cls-30">
            <g class="cls-23">
              <g class="cls-30">
                <path class="cls-2" d="M446.92,275.12l-8.48,52.17c.16-.98.12-1.92-.1-2.78s-.62-1.65-1.19-2.34-1.29-1.28-2.17-1.74-1.89-.8-3.04-.98c-.17-.03-.35-.05-.52-.07s-.35-.03-.52-.05-.35-.02-.53-.03-.35,0-.53,0c-.46,0-.91.02-1.37.05s-.92.07-1.38.12-.92.1-1.37.16-.91.11-1.36.16c-.65.07-1.29.16-1.94.26s-1.29.21-1.95.33c-.65.12-1.31.24-1.98.37s-1.35.25-2.05.38l6.2-52.62c.77-.13,1.52-.27,2.26-.4s1.46-.27,2.18-.39c.72-.13,1.43-.25,2.14-.35s1.42-.2,2.13-.28c.5-.05,1-.11,1.5-.17s1.01-.12,1.51-.17,1.01-.1,1.52-.13,1.01-.05,1.51-.05c.2,0,.39,0,.58,0s.39.02.58.03.39.03.58.05.38.04.57.07c1.27.2,2.39.56,3.36,1.05s1.77,1.13,2.4,1.87,1.08,1.58,1.32,2.51c.25.92.3,1.92.13,2.97"/>
              </g>
            </g>
          </g>
          <g class="cls-30">
            <g class="cls-25">
              <g class="cls-30">
                <path class="cls-2" d="M285.65,276.14l6.56,52.25c-.29-2.31-.61-4.61-.97-6.9-.35-2.28-.74-4.56-1.14-6.82-.41-2.26-.84-4.51-1.29-6.75s-.92-4.46-1.4-6.68c-.09-.41-.18-.82-.26-1.24s-.16-.83-.23-1.24-.14-.83-.2-1.24-.12-.83-.17-1.24l-7-54.4c.06.44.12.88.19,1.32s.14.88.22,1.32.16.88.25,1.32.18.88.28,1.32c.52,2.37,1.03,4.74,1.52,7.12.49,2.39.95,4.79,1.39,7.2.44,2.42.85,4.84,1.23,7.28s.73,4.91,1.04,7.38"/>
              </g>
            </g>
          </g>
          <g class="cls-30">
            <g class="cls-24">
              <g class="cls-30">
                <path class="cls-2" d="M299.92,351.82l5.44,47.04c-.14-1.17-.31-2.34-.53-3.5s-.47-2.32-.75-3.48-.61-2.31-.96-3.46-.73-2.3-1.14-3.45c-.93-2.61-1.78-5.23-2.55-7.86-.77-2.62-1.46-5.25-2.07-7.88-.61-2.63-1.15-5.26-1.62-7.9-.47-2.63-.87-5.27-1.21-7.9l-6.42-50.47c.36,2.83.79,5.66,1.3,8.48.51,2.83,1.1,5.66,1.76,8.49s1.42,5.66,2.26,8.48c.84,2.83,1.77,5.65,2.79,8.45.45,1.24.87,2.47,1.25,3.71s.74,2.48,1.05,3.73c.31,1.25.59,2.5.82,3.75s.43,2.51.57,3.77"/>
              </g>
            </g>
          </g>
          <g class="cls-30">
            <g class="cls-28">
              <g class="cls-30">
                <path class="cls-2" d="M323.97,354.08l3.11,46.86c.08,1.28.13,2.57.12,3.86s-.07,2.61-.18,3.92c-.11,1.32-.28,2.65-.51,3.99s-.52,2.7-.88,4.06l-3.3-45.6c.4-1.48.73-2.94.98-4.39.26-1.45.45-2.88.57-4.31s.19-2.83.21-4.23c.01-1.4-.03-2.79-.12-4.17"/>
              </g>
            </g>
          </g>
          <g class="cls-30">
            <g class="cls-26">
              <g class="cls-30">
                <path class="cls-2" d="M468.86,280.61l-10.55,51.8c-.03.13-.05.25-.08.38s-.06.25-.09.37-.06.25-.09.37-.07.25-.1.37c-1.08,3.87-2.11,7.76-3.11,11.69s-1.97,7.92-2.9,11.92c-.94,4.02-1.84,8.07-2.72,12.14-.88,4.09-1.74,8.21-2.58,12.35-.82,4.07-1.96,8-3.38,11.79-1.43,3.81-3.15,7.48-5.13,11.04-1.99,3.57-4.25,7.03-6.75,10.39-2.51,3.37-5.25,6.64-8.21,9.84-.91.98-1.8,1.96-2.69,2.96s-1.77,2-2.64,3.02-1.73,2.05-2.58,3.08-1.68,2.09-2.51,3.15c-.43.56-.84,1.14-1.23,1.74-.39.6-.75,1.22-1.09,1.85s-.66,1.28-.95,1.93-.57,1.31-.83,1.98c-.54,1.43-1.29,2.73-2.2,3.89s-1.99,2.17-3.2,3-2.53,1.48-3.95,1.93c-1.41.45-2.91.69-4.45.69-.31,0-.61,0-.92-.03s-.62-.05-.93-.08-.62-.08-.94-.14-.63-.12-.94-.2c-6.53-1.59-13.06-3.19-19.57-4.78-6.5-1.59-12.99-3.19-19.47-4.79-6.47-1.6-12.93-3.19-19.37-4.79-6.44-1.6-12.86-3.19-19.28-4.79-1.43-.36-2.77-.91-3.97-1.63s-2.28-1.58-3.19-2.57c-.91-.99-1.67-2.09-2.24-3.28s-.95-2.45-1.12-3.76l-5.8-45.08c.18,1.41.6,2.78,1.23,4.06s1.46,2.48,2.47,3.55c1.01,1.07,2.2,2.01,3.53,2.79,1.33.77,2.81,1.37,4.4,1.76,7.12,1.74,14.25,3.47,21.39,5.21,7.16,1.74,14.33,3.47,21.51,5.21,7.2,1.74,14.41,3.47,21.63,5.21,7.24,1.74,14.49,3.47,21.75,5.2.35.08.7.16,1.05.22s.7.11,1.04.15.69.07,1.04.09.69.03,1.03.03c1.71,0,3.37-.26,4.94-.75,1.57-.48,3.04-1.19,4.38-2.09s2.53-1.99,3.54-3.25,1.84-2.67,2.43-4.21c.28-.72.58-1.44.91-2.14s.68-1.41,1.05-2.09.78-1.35,1.2-2,.88-1.28,1.36-1.89c.91-1.15,1.83-2.29,2.77-3.41.94-1.12,1.89-2.24,2.85-3.34s1.93-2.19,2.92-3.27,1.97-2.14,2.97-3.2c3.27-3.45,6.3-6.98,9.06-10.62,2.75-3.62,5.23-7.35,7.42-11.21,2.18-3.84,4.06-7.8,5.62-11.9,1.55-4.08,2.79-8.31,3.67-12.69.9-4.45,1.82-8.88,2.77-13.27s1.92-8.72,2.93-13.03,2.04-8.55,3.12-12.77,2.19-8.37,3.35-12.51c.04-.13.07-.27.11-.4s.07-.27.1-.4.06-.27.09-.4.06-.27.09-.4"/>
              </g>
            </g>
          </g>
          <path class="cls-5" d="M443.29,248.13c4.89.89,9.13,2.59,12.7,4.85s6.47,5.1,8.64,8.26c2.18,3.17,3.62,6.66,4.28,10.23.66,3.59.54,7.25-.44,10.74-1.16,4.13-2.28,8.3-3.35,12.51s-2.12,8.48-3.12,12.77-1.99,8.66-2.93,13.03-1.87,8.82-2.77,13.27c-.88,4.38-2.12,8.61-3.67,12.69-1.56,4.1-3.44,8.06-5.62,11.9-2.19,3.85-4.67,7.58-7.42,11.21-2.76,3.64-5.79,7.17-9.06,10.62-1,1.06-1.99,2.12-2.97,3.2s-1.96,2.17-2.92,3.27-1.91,2.21-2.85,3.34c-.94,1.13-1.86,2.26-2.77,3.41-.48.61-.93,1.24-1.36,1.89s-.83,1.32-1.2,2-.73,1.38-1.05,2.09-.63,1.42-.91,2.14c-.6,1.55-1.42,2.96-2.43,4.21s-2.21,2.35-3.54,3.25-2.81,1.61-4.38,2.09c-1.57.48-3.23.74-4.94.75-.34,0-.68,0-1.03-.03s-.69-.05-1.04-.09-.69-.09-1.04-.15-.7-.13-1.05-.22c-7.26-1.73-14.51-3.47-21.75-5.2-7.22-1.73-14.44-3.47-21.63-5.21-7.18-1.73-14.36-3.47-21.51-5.21-7.14-1.73-14.28-3.47-21.39-5.21-2.12-.52-4.03-1.41-5.68-2.58-1.64-1.17-3.01-2.62-4.02-4.24-1.02-1.62-1.68-3.42-1.93-5.3s-.08-3.83.59-5.76c1.08-3.14,1.78-6.23,2.17-9.28.39-3.04.46-6.04.27-9.01-.19-2.96-.65-5.89-1.32-8.81-.67-2.91-1.55-5.8-2.6-8.69-1.38-3.81-2.6-7.65-3.66-11.49-1.05-3.83-1.95-7.67-2.7-11.52s-1.36-7.68-1.83-11.52c-.47-3.83-.81-7.66-1.04-11.49-.22-3.78-.54-7.53-.95-11.25s-.91-7.37-1.47-11.01-1.2-7.23-1.9-10.8c-.69-3.56-1.43-7.1-2.21-10.63-.43-1.97-.78-3.95-1.01-5.93s-.35-3.96-.34-5.95c.01-1.98.15-3.96.44-5.94.29-1.97.73-3.95,1.33-5.91.92-3.01,2.41-5.65,4.32-7.92s4.22-4.16,6.81-5.68c2.59-1.52,5.44-2.66,8.43-3.43s6.1-1.15,9.2-1.14c1.45,0,2.89.09,4.32.26s2.84.43,4.22.78,2.73.78,4.04,1.3,2.57,1.13,3.77,1.83c.94.54,1.84,1.12,2.74,1.74s1.77,1.26,2.66,1.93,1.78,1.36,2.7,2.07,1.87,1.43,2.87,2.15c.3-.91.59-1.8.88-2.69s.57-1.75.86-2.61.56-1.71.84-2.56.56-1.69.84-2.53c1.51-4.58,3.01-9.14,4.5-13.67,1.48-4.5,2.96-8.98,4.42-13.43s2.9-8.83,4.33-13.2c1.42-4.35,2.84-8.68,4.24-12.98.41-1.26.9-2.47,1.49-3.64s1.26-2.27,2.04-3.33c.78-1.06,1.66-2.06,2.65-3.02s2.1-1.85,3.33-2.7c1.26-.86,2.62-1.62,4.06-2.28,1.43-.65,2.94-1.2,4.49-1.64,1.55-.44,3.16-.77,4.78-.99s3.27-.33,4.92-.33c1.02,0,2.04.05,3.05.14s2.02.23,3.01.4,1.98.4,2.94.67,1.91.59,2.84.95c2.75,1.08,5.24,2.41,7.41,3.93,2.17,1.53,4.03,3.26,5.53,5.13s2.65,3.91,3.38,6.04c.74,2.13,1.07,4.36.94,6.63-.03.55-.08,1.11-.14,1.66s-.14,1.11-.24,1.66-.21,1.1-.33,1.65-.27,1.09-.42,1.63c-1.17,4.11-2.35,8.24-3.55,12.38-1.2,4.17-2.41,8.35-3.62,12.54-1.22,4.22-2.44,8.44-3.67,12.67s-2.46,8.5-3.69,12.75c1.15.77,2.36,1.49,3.57,2.19s2.41,1.39,3.57,2.09c1.15.7,2.25,1.42,3.23,2.2s1.86,1.6,2.57,2.52c1.03,1.32,2.11,2.51,3.27,3.58s2.39,2.03,3.7,2.91c1.31.88,2.71,1.67,4.19,2.42s3.06,1.43,4.72,2.09c1.09.43,2.1,1.02,3.06,1.7.96.69,1.87,1.47,2.77,2.3.89.83,1.77,1.7,2.65,2.55.89.85,1.79,1.69,2.73,2.45.31.25.63.52.96.78s.67.53,1.02.77.7.46,1.07.63.74.31,1.11.38ZM446.79,275.77c.28-1.12.3-2.2.11-3.19s-.62-1.91-1.24-2.71-1.44-1.48-2.44-2.02-2.18-.92-3.51-1.13c-.19-.03-.38-.05-.57-.07s-.38-.04-.58-.05-.39-.02-.58-.03-.39,0-.58,0c-.5,0-1.01.02-1.51.05s-1.01.08-1.52.13-1.01.11-1.51.17-1,.12-1.5.17c-.71.08-1.42.17-2.13.28s-1.42.23-2.14.35c-.72.13-1.45.26-2.18.39s-1.49.27-2.26.4c-.07-.75-.14-1.46-.21-2.14s-.14-1.34-.2-1.98-.12-1.26-.17-1.87-.09-1.21-.12-1.81c-.07-1.63-.33-3.04-.79-4.25-.45-1.2-1.1-2.2-1.94-2.99s-1.89-1.38-3.14-1.77-2.72-.59-4.4-.59c-.19,0-.39,0-.59,0s-.4.01-.61.02-.41.02-.62.04-.42.03-.64.05c-.99.09-1.97.2-2.96.32s-1.98.25-2.97.38-2,.27-3.02.41-2.05.28-3.1.41c.03-.88.07-1.74.11-2.57s.07-1.64.11-2.43.06-1.57.09-2.34.04-1.53.05-2.29c.02-1.45-.2-2.75-.64-3.88s-1.11-2.09-1.97-2.87-1.93-1.38-3.17-1.78c-1.24-.4-2.67-.61-4.25-.62-.16,0-.32,0-.48,0s-.32.01-.49.02-.33.02-.5.03-.33.03-.5.04c-1.13.11-2.27.22-3.42.32s-2.31.21-3.49.32-2.39.21-3.63.32c-1.24.11-2.51.22-3.83.34.13-.44.25-.85.37-1.23s.22-.74.33-1.08.2-.66.3-.98.19-.62.28-.93c1.8-5.93,3.59-11.82,5.36-17.66,1.76-5.8,3.51-11.56,5.24-17.27,1.72-5.67,3.43-11.3,5.12-16.89,1.68-5.55,3.35-11.06,5.01-16.52.08-.26.16-.52.25-.78s.17-.52.25-.77.15-.52.22-.78.11-.52.15-.78c.11-.88.02-1.74-.25-2.56s-.71-1.58-1.29-2.25-1.3-1.26-2.12-1.72-1.75-.8-2.75-.98c-.14-.03-.29-.05-.43-.07s-.29-.03-.43-.05-.29-.02-.43-.03-.28,0-.42-.01c-.87,0-1.7.11-2.49.33s-1.52.55-2.18.97-1.24.95-1.72,1.56-.86,1.32-1.11,2.1c-1.92,6.04-3.84,12.13-5.78,18.27-1.95,6.19-3.92,12.43-5.9,18.72-2,6.34-4.01,12.74-6.04,19.19-2.05,6.5-4.11,13.06-6.19,19.67-.46,1.47-.92,2.95-1.38,4.43s-.92,2.97-1.38,4.45-.93,2.98-1.4,4.47c-.47,1.49-.96,2.99-1.45,4.49-.35,1.05-.94,2.1-1.68,3.08-.74.98-1.64,1.9-2.61,2.69s-2,1.44-3.01,1.9c-1.01.46-2,.72-2.89.72-1.86-.12-3.54-.45-5.02-.97s-2.75-1.23-3.82-2.11c-1.06-.88-1.92-1.94-2.55-3.15-.63-1.21-1.04-2.58-1.21-4.09-.07-.65-.14-1.3-.21-1.95-.07-.65-.14-1.3-.22-1.95s-.17-1.29-.28-1.93-.24-1.28-.4-1.91c-.37-1.49-.83-2.95-1.38-4.37s-1.2-2.78-1.97-4.1-1.64-2.57-2.65-3.77c-1.01-1.2-2.15-2.33-3.44-3.39-.44-.36-.9-.69-1.37-.97s-.97-.52-1.48-.72-1.03-.34-1.57-.44-1.09-.15-1.66-.15c-.28,0-.56.01-.84.04s-.57.06-.86.11-.58.11-.87.19-.59.17-.89.27c-.88.3-1.6.69-2.18,1.14s-1.04.97-1.39,1.54-.6,1.19-.77,1.84-.26,1.33-.31,2.03c-.04.61-.07,1.22-.09,1.84s-.04,1.23-.03,1.84.03,1.23.07,1.84.11,1.22.21,1.82c.62,3.92,1.28,7.85,1.95,11.81.68,3.97,1.36,7.96,2.04,11.97.68,4.03,1.35,8.08,1.99,12.16.64,4.1,1.24,8.22,1.79,12.37.42,3.22.81,6.45,1.24,9.69s.88,6.51,1.42,9.77c.54,3.27,1.18,6.53,1.96,9.79s1.71,6.52,2.84,9.76c1.28,3.65,2.55,7.32,3.66,11.02,1.12,3.72,2.08,7.48,2.74,11.29.67,3.83,1.03,7.72.95,11.7s-.62,8.07-1.75,12.25c5.86,1.4,11.69,2.79,17.51,4.19,5.83,1.39,11.64,2.78,17.45,4.16,5.81,1.38,11.62,2.76,17.43,4.14,5.82,1.38,11.63,2.75,17.46,4.11.26,0,.52-.03.79-.11s.52-.18.76-.31.47-.27.67-.43.38-.32.51-.48c1.64-1.89,3.27-3.79,4.89-5.68s3.22-3.78,4.83-5.67,3.2-3.76,4.81-5.62,3.2-3.72,4.82-5.56c1.78-2.03,3.56-4.07,5.27-6.14s3.35-4.16,4.85-6.31c1.5-2.15,2.86-4.36,4.02-6.65,1.15-2.29,2.1-4.67,2.78-7.15,1.45-5.31,2.84-10.6,4.2-15.86,1.35-5.23,2.66-10.44,3.94-15.61,1.28-5.15,2.53-10.26,3.78-15.35s2.46-10.08,3.7-15.07"/>
        </g>
        <g class="cls-30">
          <polygon class="cls-3" points="435.34 551.32 426.83 581.76 426.38 569.46 434.78 537.77 435.34 551.32"/>
          <polygon class="cls-8" points="321.54 538.3 325.2 569.99 325.01 582.31 321.3 551.88 321.54 538.3"/>
          <polygon class="cls-3" points="434.78 537.77 426.38 569.46 376.06 591.26 378.49 561.77 434.78 537.77"/>
          <polygon class="cls-3" points="378.49 561.77 376.06 591.26 325.2 569.99 321.54 538.3 378.49 561.77"/>
          <polygon class="cls-3" points="436.23 572.8 427.54 601.22 427.08 588.69 435.66 558.96 436.23 572.8"/>
          <polygon class="cls-8" points="321.16 559.54 324.9 589.26 324.7 601.82 320.91 573.41 321.16 559.54"/>
          <polygon class="cls-3" points="435.66 558.96 427.08 588.69 379.07 609.67 381.9 582.12 435.66 558.96"/>
          <polygon class="cls-3" points="375.53 582.16 373.39 609.7 324.9 589.26 321.16 559.54 375.53 582.16"/>
          <polygon class="cls-3" points="375.67 596.36 373.51 622.53 373.39 609.7 375.53 582.16 375.67 596.36"/>
          <polygon class="cls-3" points="448.19 631.55 437.93 654.2 315.35 655.03 310.27 632.42 448.19 631.55"/>
          <path class="cls-5" d="M313.35,497.39l128.62-.5,6.22,134.66-137.92.88,3.08-135.04ZM435.34,551.32l-.56-13.55-56.29,24-56.95-23.48-.24,13.58,57.36,23.78,56.69-24.34M436.23,572.8l-.57-13.84-53.76,23.16.19,14.2,54.15-23.52M375.67,596.36l-.14-14.2-54.37-22.62-.25,13.87,54.76,22.95"/>
        </g>
      </g>
    </g>
  </g>
</svg>