<?xml version="1.0" encoding="UTF-8"?>
<svg id="Layer_2" data-name="Layer 2" xmlns="http://www.w3.org/2000/svg" xmlns:xlink="http://www.w3.org/1999/xlink" viewBox="0 0 553.56 808.05">
  <defs>
    <style>
      .cls-1 {
        letter-spacing: -.05em;
      }

      .cls-2 {
        font-size: 76.3px;
        stroke: #fff;
        stroke-miterlimit: 10;
        stroke-width: 1.21px;
      }

      .cls-2, .cls-3 {
        fill: none;
      }

      .cls-2, .cls-4 {
        font-family: Futura-Bold, Futura;
      }

      .cls-2, .cls-4, .cls-5 {
        font-weight: 700;
      }

      .cls-6 {
        fill: #c71c3d;
      }

      .cls-6, .cls-7, .cls-8, .cls-9, .cls-3, .cls-10, .cls-11, .cls-12 {
        stroke-width: 0px;
      }

      .cls-7 {
        fill: #d61e42;
      }

      .cls-8 {
        fill: #6f1022;
      }

      .cls-9 {
        fill: #6b0f21;
      }

      .cls-13 {
        letter-spacing: -.04em;
      }

      .cls-14 {
        letter-spacing: -.04em;
      }

      .cls-15 {
        letter-spacing: -.04em;
      }

      .cls-16 {
        letter-spacing: -.04em;
      }

      .cls-17 {
        clip-path: url(#clippath);
      }

      .cls-18 {
        letter-spacing: -.09em;
      }

      .cls-19 {
        letter-spacing: -.05em;
      }

      .cls-4 {
        font-size: 170.52px;
      }

      .cls-4, .cls-5 {
        fill: #fff;
      }

      .cls-10 {
        fill: #d51e42;
      }

      .cls-20 {
        letter-spacing: -.05em;
      }

      .cls-21 {
        clip-path: url(#clippath-1);
      }

      .cls-22 {
        clip-path: url(#clippath-4);
      }

      .cls-23 {
        clip-path: url(#clippath-3);
      }

      .cls-24 {
        clip-path: url(#clippath-2);
      }

      .cls-25 {
        clip-path: url(#clippath-7);
      }

      .cls-26 {
        clip-path: url(#clippath-8);
      }

      .cls-27 {
        clip-path: url(#clippath-6);
      }

      .cls-28 {
        clip-path: url(#clippath-5);
      }

      .cls-29 {
        clip-path: url(#clippath-9);
      }

      .cls-30 {
        filter: url(#drop-shadow-1);
      }

      .cls-31 {
        clip-path: url(#clippath-14);
      }

      .cls-32 {
        clip-path: url(#clippath-13);
      }

      .cls-33 {
        clip-path: url(#clippath-12);
      }

      .cls-34 {
        clip-path: url(#clippath-10);
      }

      .cls-35 {
        clip-path: url(#clippath-15);
      }

      .cls-36 {
        clip-path: url(#clippath-17);
      }

      .cls-37 {
        clip-path: url(#clippath-16);
      }

      .cls-38 {
        clip-path: url(#clippath-19);
      }

      .cls-39 {
        clip-path: url(#clippath-11);
      }

      .cls-40 {
        clip-path: url(#clippath-18);
      }

      .cls-11 {
        fill: #6d0f21;
      }

      .cls-41 {
        letter-spacing: -.03em;
      }

      .cls-42 {
        letter-spacing: 0em;
      }

      .cls-43 {
        opacity: .25;
      }

      .cls-5 {
        font-family: TWKEverett-Extrabold, 'TWK Everett';
        font-size: 34.23px;
      }

      .cls-44 {
        letter-spacing: -.04em;
      }

      .cls-45 {
        letter-spacing: -.07em;
      }

      .cls-46 {
        letter-spacing: -.07em;
      }

      .cls-47 {
        isolation: isolate;
      }

      .cls-48 {
        letter-spacing: -.06em;
      }

      .cls-49 {
        letter-spacing: -.06em;
      }

      .cls-12 {
        fill: #6c0f21;
      }
    </style>
    <clipPath id="clippath">
      <path class="cls-3" d="M301.05,468.37l-2.85,34.9c-.02.29-.05.58-.09.87s-.08.58-.14.87-.11.58-.18.86-.14.57-.22.86c-.66,2.37-1.33,4.74-2,7.13s-1.35,4.79-2.03,7.2-1.37,4.83-2.05,7.25-1.38,4.85-2.06,7.27l2.18-33.23c.74-2.55,1.48-5.11,2.22-7.66s1.48-5.09,2.21-7.63,1.46-5.05,2.19-7.57,1.44-5,2.15-7.48c.08-.3.16-.6.23-.9s.13-.6.19-.91.1-.61.15-.91.07-.61.1-.91Z"/>
    </clipPath>
    <clipPath id="clippath-1">
      <path class="cls-3" d="M290.39,523.98l-2.12,32.08c.02-.5.04-.98.06-1.45s.04-.93.07-1.37.04-.89.06-1.32.03-.87.03-1.3c.01-.82-.11-1.56-.35-2.2s-.6-1.18-1.08-1.62-1.05-.78-1.74-1.01-1.46-.35-2.33-.35c-.09,0-.17,0-.26,0s-.18,0-.27.01-.18.01-.27.02-.18.02-.28.02c-.62.06-1.24.12-1.87.19s-1.26.12-1.91.18-1.31.12-1.99.18-1.38.13-2.1.2l.85-32.65c.79-.07,1.54-.14,2.28-.21s1.46-.13,2.16-.19,1.4-.13,2.08-.19,1.36-.13,2.04-.19c.1,0,.2-.02.3-.03s.2-.01.29-.02.19,0,.29-.01.19,0,.28,0c.95,0,1.8.13,2.54.37s1.38.6,1.89,1.07.91,1.04,1.17,1.72.4,1.45.38,2.32c0,.45-.02.91-.04,1.37s-.04.93-.06,1.4-.04.96-.07,1.45-.05,1-.07,1.53Z"/>
    </clipPath>
    <clipPath id="clippath-2">
      <path class="cls-3" d="M235.81,546.55l-2.52-32.67c-.02-.28-.03-.55-.04-.83s0-.56,0-.83.01-.56.02-.83.02-.55.04-.83c.02-.42.08-.83.18-1.22s.24-.76.45-1.1.48-.65.83-.92.78-.5,1.3-.68c.18-.06.35-.12.53-.16s.35-.08.52-.11.34-.05.51-.07.34-.02.5-.02c.34,0,.67.03.99.09s.64.15.94.27.6.26.88.43.56.36.82.58c.77.64,1.45,1.32,2.06,2.03s1.13,1.47,1.59,2.26.85,1.61,1.18,2.45.61,1.72.83,2.61c.1.38.18.76.24,1.14s.12.77.17,1.16.09.78.13,1.16.08.78.13,1.17c.1.9.35,1.72.73,2.44s.89,1.35,1.52,1.88,1.4.95,2.28,1.26,1.88.51,2.99.58l.72,31.9c-1.02-.07-1.93-.25-2.74-.55s-1.51-.69-2.09-1.19-1.05-1.09-1.4-1.78-.57-1.46-.67-2.31c-.04-.37-.08-.73-.12-1.1s-.08-.73-.12-1.1-.1-.73-.16-1.09-.14-.72-.22-1.08c-.21-.84-.46-1.67-.76-2.47s-.67-1.57-1.09-2.32-.91-1.46-1.47-2.14-1.19-1.32-1.9-1.92c-.24-.21-.49-.39-.76-.55s-.53-.29-.81-.4-.57-.19-.86-.25-.6-.09-.91-.09c-.15,0-.3,0-.46.02s-.31.04-.47.06-.32.06-.48.11-.32.09-.49.15c-.48.17-.87.39-1.19.65s-.57.55-.76.88-.32.67-.41,1.04-.14.76-.16,1.15c-.01.26-.02.52-.03.78s-.02.53-.02.79,0,.53,0,.79.02.53.04.79Z"/>
    </clipPath>
    <clipPath id="clippath-3">
      <path class="cls-3" d="M288.64,467.78l-1.88,34.94c.03-.48-.05-.96-.21-1.4s-.41-.86-.73-1.22-.71-.68-1.15-.93-.93-.43-1.46-.53c-.08-.01-.16-.03-.24-.04s-.16-.02-.24-.03-.16-.01-.24-.02-.16,0-.23,0c-.48,0-.95.07-1.38.19s-.84.32-1.21.56-.69.55-.95.9-.47.76-.61,1.21c-1.06,3.49-2.13,7-3.21,10.53s-2.17,7.14-3.26,10.74-2.21,7.28-3.32,10.96-2.25,7.43-3.39,11.18c-.25.83-.5,1.67-.75,2.51s-.5,1.68-.75,2.52-.5,1.69-.76,2.53-.52,1.69-.79,2.54c-.19.59-.51,1.19-.92,1.74s-.89,1.07-1.42,1.52-1.09.81-1.64,1.07-1.09.41-1.58.41l-.72-31.9c.53,0,1.12-.16,1.72-.43s1.22-.66,1.79-1.13,1.11-1.02,1.55-1.6.79-1.21,1-1.84c.29-.89.58-1.79.86-2.68s.56-1.78.83-2.67.54-1.78.82-2.66.54-1.77.82-2.65c1.24-3.96,2.46-7.89,3.68-11.8s2.41-7.72,3.6-11.54,2.36-7.56,3.53-11.29,2.32-7.4,3.47-11.05c.15-.47.38-.9.66-1.27s.64-.69,1.03-.95.84-.46,1.31-.59.98-.2,1.5-.2c.08,0,.17,0,.25,0s.17,0,.26.02.17.02.26.03.17.02.26.04c.57.1,1.11.29,1.59.56s.9.6,1.24.98.62.82.79,1.28.26.96.23,1.47Z"/>
    </clipPath>
    <clipPath id="clippath-4">
      <path class="cls-3" d="M305.55,533.38l-3.38,31.55c-.03-.42-.07-.82-.11-1.2s-.07-.75-.1-1.11-.06-.71-.09-1.05-.05-.68-.06-1.02c-.04-.92-.18-1.71-.42-2.39s-.59-1.24-1.05-1.69-1.03-.78-1.71-1-1.48-.33-2.41-.33c-.11,0-.21,0-.32,0s-.22,0-.33.01-.23.01-.34.02-.23.02-.35.03c-.54.05-1.08.11-1.62.18s-1.08.14-1.63.21-1.1.15-1.66.23-1.12.16-1.7.23l2.12-32.08c.63-.08,1.24-.16,1.85-.24s1.21-.16,1.8-.24,1.19-.15,1.77-.22,1.18-.13,1.76-.19c.13-.01.26-.02.38-.03s.25-.02.37-.02.24-.01.36-.01.24,0,.35,0c1,0,1.87.12,2.62.35s1.37.59,1.87,1.06.88,1.07,1.15,1.78.42,1.56.46,2.53c.02.36.04.72.07,1.08s.06.73.1,1.11.08.77.12,1.18.08.83.12,1.27Z"/>
    </clipPath>
    <clipPath id="clippath-5">
      <path class="cls-3" d="M319.98,537.2c-1.53,10.44-3.05,20.88-4.58,31.32.08-.58.05-1.12-.09-1.63s-.38-.97-.72-1.37-.77-.75-1.29-1.02-1.13-.47-1.81-.58c-.1-.02-.21-.03-.31-.04s-.21-.02-.32-.03-.21-.01-.32-.02-.21,0-.32,0c-.27,0-.55.01-.82.03s-.55.04-.83.07-.55.06-.83.1-.55.07-.82.1c-.39.04-.78.1-1.17.16s-.78.13-1.17.2-.79.15-1.19.22-.81.15-1.23.22l3.38-31.55c.46-.08.9-.15,1.34-.23s.87-.16,1.3-.23.85-.15,1.27-.21.84-.12,1.27-.17c.29-.03.59-.07.89-.1s.6-.07.9-.1.6-.06.9-.08.6-.03.9-.03c.12,0,.23,0,.35,0s.23,0,.35.02.23.02.34.03.23.03.34.04c.74.12,1.4.33,1.97.61s1.04.66,1.41,1.08.64.92.79,1.46.19,1.12.1,1.73Z"/>
    </clipPath>
    <clipPath id="clippath-6">
      <path class="cls-3" d="M224.55,541.5l3.31,31.15c-.18-1.68-.39-3.35-.63-5.02s-.5-3.31-.79-4.95-.6-3.26-.93-4.89-.67-3.23-1.03-4.83c-.07-.31-.14-.62-.2-.93s-.12-.62-.17-.93-.1-.62-.15-.94-.08-.62-.12-.94l-3.59-32.53c.04.33.08.66.12.99s.1.66.15.99.12.66.18.99.14.66.21.99c.39,1.7.76,3.4,1.11,5.11s.69,3.44,1,5.18.59,3.49.85,5.24.48,3.54.67,5.32Z"/>
    </clipPath>
    <clipPath id="clippath-7">
      <path class="cls-3" d="M232.94,583.5l2.7,28.61c-.07-.76-.17-1.52-.3-2.28s-.29-1.51-.47-2.26-.39-1.5-.62-2.25-.48-1.49-.75-2.24c-.64-1.76-1.21-3.52-1.73-5.3s-.97-3.54-1.37-5.32-.74-3.56-1.03-5.34-.53-3.56-.72-5.35h0c-1.09-10.2-2.18-20.39-3.26-30.58.2,1.9.46,3.79.77,5.68s.68,3.79,1.11,5.68.92,3.79,1.48,5.67,1.18,3.77,1.88,5.65c.29.8.57,1.59.82,2.39s.47,1.6.67,2.4.37,1.61.51,2.41.25,1.62.33,2.43Z"/>
    </clipPath>
    <clipPath id="clippath-8">
      <path class="cls-3" d="M247.1,584.61l1.49,28.53c.04.71.05,1.43.04,2.16s-.05,1.45-.12,2.19-.17,1.47-.3,2.22-.29,1.5-.49,2.26l-1.58-27.93c.22-.81.4-1.61.54-2.41s.25-1.59.33-2.37.12-1.56.14-2.34,0-1.54-.04-2.3Z"/>
    </clipPath>
    <clipPath id="clippath-9">
      <path class="cls-3" d="M333.07,540.2l-5.67,31.14c-.02.11-.04.21-.06.32s-.05.21-.07.32-.05.21-.08.31-.06.21-.09.31c-.66,2.32-1.3,4.65-1.91,7s-1.21,4.74-1.78,7.13-1.13,4.82-1.67,7.25-1.07,4.89-1.59,7.36c-.5,2.43-1.2,4.76-2.06,7.02s-1.91,4.45-3.1,6.56-2.56,4.17-4.06,6.16-3.16,3.93-4.93,5.82c-.54.58-1.08,1.16-1.61,1.75s-1.06,1.18-1.58,1.78-1.04,1.21-1.55,1.82-1.01,1.24-1.5,1.86c-.26.33-.5.67-.74,1.03s-.45.72-.65,1.09-.4.75-.57,1.14-.34.78-.49,1.17c-.33.84-.78,1.61-1.32,2.29s-1.19,1.28-1.91,1.77-1.51.88-2.36,1.14-1.74.4-2.66.41c-.18,0-.37,0-.55-.02s-.37-.03-.56-.05-.37-.05-.56-.08-.37-.07-.56-.12c-3.89-.94-7.78-1.88-11.67-2.83s-7.75-1.89-11.62-2.83-7.72-1.89-11.57-2.83c-3.84-.94-7.68-1.89-11.51-2.83-.88-.22-1.69-.55-2.42-.99s-1.38-.97-1.94-1.57-1-1.28-1.34-2.01-.55-1.5-.64-2.29l-2.88-27.68c.09.85.33,1.68.69,2.45s.86,1.5,1.46,2.15,1.32,1.22,2.12,1.69,1.69.83,2.65,1.06c4.2,1.01,8.4,2.03,12.61,3.04s8.44,2.03,12.67,3.04,8.48,2.03,12.73,3.04,8.52,2.03,12.79,3.04c.21.05.41.09.62.13s.41.07.61.09.41.04.61.05.4.02.6.02c1.01,0,1.99-.15,2.91-.43s1.79-.69,2.58-1.22,1.49-1.16,2.09-1.89,1.09-1.56,1.44-2.46c.17-.42.34-.84.54-1.25s.4-.82.63-1.22.46-.79.71-1.17.52-.75.8-1.1c.54-.67,1.09-1.34,1.64-1.99s1.12-1.31,1.69-1.95,1.15-1.28,1.73-1.91,1.17-1.25,1.76-1.87c1.94-2.02,3.73-4.09,5.37-6.22s3.11-4.31,4.42-6.58,2.43-4.58,3.36-7,1.68-4.89,2.22-7.48c.55-2.63,1.12-5.24,1.7-7.84s1.17-5.15,1.79-7.71,1.25-5.06,1.91-7.57,1.34-4.97,2.04-7.43c.03-.11.06-.22.09-.33s.06-.22.08-.33.05-.22.07-.33.05-.22.07-.34Z"/>
    </clipPath>
    <clipPath id="clippath-10">
      <path class="cls-3" d="M303.82,431.7l-3.17,37.52c-.03.3-.06.6-.1.9s-.09.6-.14.9-.12.6-.19.9-.15.59-.23.89c-.7,2.51-1.4,5.03-2.11,7.57s-1.43,5.09-2.15,7.65-1.45,5.13-2.18,7.7-1.46,5.16-2.19,7.73l2.41-35.64c.79-2.72,1.58-5.45,2.37-8.18s1.57-5.43,2.36-8.13,1.56-5.38,2.33-8.06,1.53-5.32,2.28-7.97c.09-.31.17-.62.25-.93s.14-.63.2-.95.11-.63.15-.95.08-.64.11-.95Z"/>
    </clipPath>
    <clipPath id="clippath-11">
      <path class="cls-3" d="M292.49,490.98l-2.35,34.32c.02-.53.04-1.04.07-1.55s.05-.99.07-1.47.04-.95.06-1.41.03-.92.04-1.38c.01-.88-.11-1.66-.37-2.34s-.64-1.26-1.15-1.73-1.13-.83-1.85-1.07-1.56-.37-2.48-.37c-.09,0-.18,0-.28,0s-.19,0-.28.01-.19.01-.29.02-.19.02-.29.03c-.66.07-1.33.13-2,.2s-1.35.13-2.04.19-1.39.13-2.12.2-1.47.14-2.24.21l.9-34.98c.84-.08,1.66-.15,2.45-.22s1.56-.14,2.32-.21,1.5-.14,2.23-.2,1.46-.14,2.18-.21c.11-.01.21-.02.32-.03s.21-.01.31-.02.21,0,.31-.01.2,0,.3,0c1.01,0,1.92.13,2.72.39s1.48.64,2.03,1.14.98,1.11,1.26,1.84.43,1.56.41,2.49c0,.49-.02.97-.04,1.47s-.04.99-.06,1.5-.05,1.02-.07,1.56-.05,1.08-.07,1.64Z"/>
    </clipPath>
    <clipPath id="clippath-12">
      <path class="cls-3" d="M234.24,515.26l-2.95-34.99c-.03-.3-.04-.61-.05-.92s-.01-.61,0-.92.01-.61.03-.92.03-.61.05-.92c.03-.45.08-.88.19-1.3s.26-.81.49-1.18.51-.7.89-.99.83-.54,1.39-.73c.19-.07.38-.12.57-.17s.37-.09.56-.12.37-.06.55-.07.36-.02.53-.02c.36,0,.72.03,1.06.1s.68.16,1.01.28.64.28.95.46.6.39.88.62c.82.68,1.55,1.4,2.2,2.17s1.21,1.57,1.7,2.42.91,1.72,1.26,2.62.65,1.84.89,2.8c.1.4.18.81.25,1.22s.13.82.18,1.24.1.83.14,1.25.09.83.14,1.25c.11.97.37,1.84.77,2.62s.95,1.45,1.63,2.02,1.5,1.02,2.44,1.35,2.01.54,3.2.62l.9,34.12c-1.09-.07-2.06-.27-2.92-.58s-1.61-.74-2.23-1.27-1.12-1.16-1.49-1.9-.61-1.55-.71-2.46c-.05-.39-.09-.78-.13-1.17s-.08-.78-.13-1.17-.1-.78-.17-1.16-.14-.77-.23-1.15c-.22-.9-.49-1.78-.82-2.63s-.71-1.68-1.16-2.47-.97-1.55-1.56-2.28-1.26-1.41-2.01-2.05c-.26-.22-.53-.42-.81-.59s-.57-.32-.87-.43-.61-.21-.92-.27-.64-.09-.97-.09c-.16,0-.32,0-.49.02s-.33.04-.5.07-.34.07-.51.11-.34.1-.52.16c-.51.18-.93.42-1.27.69s-.6.59-.81.93-.34.72-.44,1.11-.15.8-.17,1.22c-.02.29-.03.57-.04.86s-.02.58-.02.87,0,.58,0,.87.02.58.05.86Z"/>
    </clipPath>
    <clipPath id="clippath-13">
      <path class="cls-3" d="M290.57,431.01l-2.07,37.56c.03-.51-.05-1.01-.23-1.49s-.44-.91-.78-1.3-.75-.72-1.22-.99-.99-.46-1.56-.56c-.09-.02-.17-.03-.26-.04s-.17-.02-.25-.03-.17-.01-.25-.02-.17,0-.25,0c-.51,0-1,.07-1.46.21s-.89.34-1.28.6-.73.58-1.01.96-.5.81-.65,1.29c-1.13,3.7-2.27,7.42-3.41,11.17s-2.31,7.58-3.47,11.41-2.35,7.74-3.54,11.65-2.4,7.91-3.61,11.91c-.27.89-.54,1.78-.8,2.68s-.53,1.79-.8,2.69-.54,1.8-.81,2.7-.56,1.8-.84,2.7c-.2.63-.55,1.26-.98,1.86s-.95,1.14-1.52,1.62-1.16.87-1.75,1.14-1.17.43-1.68.43l-.9-34.12c.56,0,1.2-.17,1.84-.46s1.3-.71,1.92-1.21,1.19-1.09,1.66-1.72.85-1.3,1.07-1.97c.31-.96.62-1.91.92-2.87s.6-1.91.89-2.86.59-1.9.88-2.85.58-1.89.88-2.84c1.33-4.23,2.64-8.44,3.95-12.61s2.58-8.24,3.86-12.31,2.53-8.05,3.78-12.03,2.48-7.87,3.71-11.76c.16-.51.4-.96.71-1.36s.68-.73,1.1-1.01.89-.48,1.39-.63,1.04-.22,1.59-.21c.09,0,.18,0,.27,0s.18.01.28.02.18.02.28.03.19.03.28.04c.61.11,1.19.31,1.7.59s.96.63,1.33,1.04.66.87.85,1.37.28,1.02.25,1.56Z"/>
    </clipPath>
    <clipPath id="clippath-14">
      <path class="cls-3" d="M308.76,501.05l-3.79,33.71c-.04-.45-.08-.87-.12-1.28s-.08-.8-.11-1.19-.07-.76-.1-1.12-.05-.73-.07-1.09c-.04-.98-.19-1.83-.44-2.55s-.63-1.32-1.12-1.8-1.1-.83-1.82-1.06-1.58-.35-2.56-.35c-.11,0-.23,0-.35,0s-.24,0-.36.01-.24.01-.37.02-.25.02-.38.03c-.58.06-1.15.12-1.73.19s-1.15.15-1.74.23-1.17.16-1.77.24-1.2.17-1.81.25l2.35-34.32c.67-.08,1.33-.17,1.98-.26s1.29-.17,1.93-.26,1.27-.16,1.9-.24,1.26-.14,1.89-.2c.14-.01.28-.02.41-.03s.27-.02.4-.02.26-.01.39-.01.25,0,.38,0c1.07,0,2.01.12,2.81.37s1.47.63,2,1.13.95,1.14,1.23,1.91.45,1.67.5,2.71c.02.38.05.77.08,1.16s.07.79.11,1.19.08.83.13,1.26.09.89.13,1.37Z"/>
    </clipPath>
    <clipPath id="clippath-15">
      <path class="cls-3" d="M324.26,505.21c-1.72,11.15-3.45,22.3-5.17,33.45.1-.62.07-1.21-.08-1.76s-.4-1.05-.77-1.49-.83-.81-1.39-1.11-1.21-.51-1.95-.62c-.11-.02-.22-.03-.34-.04s-.23-.02-.34-.03-.23-.01-.34-.02-.23,0-.34,0c-.29,0-.58.01-.87.03s-.59.05-.88.08-.59.07-.88.1-.58.07-.87.1c-.41.05-.83.11-1.24.17s-.83.14-1.25.22-.84.16-1.27.24-.87.16-1.32.24l3.79-33.71c.49-.08.97-.17,1.44-.25s.94-.17,1.39-.25.91-.16,1.37-.23.9-.13,1.36-.18c.32-.03.64-.07.96-.11s.64-.07.96-.11.64-.06.96-.08.64-.03.96-.03c.13,0,.25,0,.38,0s.25.01.37.02.25.02.37.03.25.03.37.05c.81.12,1.52.35,2.13.66s1.13.71,1.53,1.18.69,1,.85,1.58.2,1.21.09,1.87Z"/>
    </clipPath>
    <clipPath id="clippath-16">
      <path class="cls-3" d="M221.6,507.86l3.88,33.37c-.19-1.64-.41-3.27-.65-4.9s-.51-3.23-.79-4.83-.59-3.19-.91-4.78-.65-3.16-1-4.73c-.07-.3-.13-.59-.19-.89s-.11-.59-.16-.89-.1-.59-.14-.89-.08-.6-.12-.89l-4.17-34.81c.04.32.08.63.13.95s.1.63.15.95.11.63.18.95.13.63.2.94c.37,1.67.74,3.34,1.08,5.02s.67,3.38.98,5.08.59,3.42.85,5.14.49,3.47.7,5.21Z"/>
    </clipPath>
    <clipPath id="clippath-17">
      <path class="cls-3" d="M230.64,554.52l3.19,30.35c-.08-.78-.19-1.56-.33-2.33s-.3-1.55-.49-2.32-.4-1.54-.64-2.31-.49-1.53-.77-2.3c-.64-1.77-1.21-3.55-1.74-5.34s-.98-3.57-1.39-5.36-.77-3.58-1.07-5.37-.56-3.58-.77-5.38l-3.81-32.51c.22,1.92.5,3.83.83,5.74s.72,3.83,1.16,5.74.95,3.83,1.51,5.73,1.2,3.82,1.89,5.72c.3.82.58,1.64.84,2.46s.49,1.65.69,2.47.39,1.66.54,2.49.27,1.67.36,2.51Z"/>
    </clipPath>
    <clipPath id="clippath-18">
      <path class="cls-3" d="M245.92,555.86l1.79,30.25c.05.79.07,1.59.06,2.39s-.05,1.61-.12,2.42-.18,1.64-.32,2.46-.32,1.66-.55,2.51l-1.9-29.52c.25-.9.45-1.8.61-2.69s.28-1.77.36-2.65.13-1.74.14-2.6,0-1.71-.06-2.56Z"/>
    </clipPath>
    <clipPath id="clippath-19">
      <path class="cls-3" d="M338.28,508.58l-6.42,33.23c-.02.1-.04.19-.06.29s-.04.19-.06.29-.05.19-.07.29-.05.19-.08.29c-.7,2.48-1.37,4.97-2.01,7.49s-1.27,5.07-1.88,7.63-1.19,5.16-1.76,7.76-1.13,5.24-1.67,7.89c-.53,2.6-1.27,5.11-2.19,7.53s-2.03,4.77-3.31,7.04-2.73,4.48-4.33,6.62-3.37,4.23-5.26,6.27c-.58.62-1.16,1.25-1.73,1.88s-1.14,1.27-1.69,1.92-1.11,1.3-1.65,1.96-1.08,1.33-1.61,2c-.28.36-.54.73-.79,1.11s-.48.78-.7,1.18-.42.81-.61,1.23-.37.84-.53,1.26c-.35.91-.83,1.73-1.41,2.47s-1.28,1.38-2.05,1.9-1.62.94-2.53,1.23-1.86.44-2.85.44c-.2,0-.39,0-.59-.02s-.39-.03-.59-.05-.4-.05-.6-.09-.4-.08-.6-.13c-4.17-1.01-8.34-2.03-12.5-3.04s-8.3-2.03-12.45-3.05-8.27-2.03-12.39-3.05-8.23-2.03-12.33-3.05c-.93-.23-1.79-.59-2.57-1.05s-1.47-1.02-2.06-1.66-1.07-1.36-1.43-2.12-.6-1.58-.7-2.43l-3.4-29.22c.11.91.37,1.79.76,2.61s.93,1.6,1.57,2.29,1.41,1.3,2.26,1.79,1.81.88,2.83,1.13c4.52,1.1,9.06,2.2,13.6,3.3s9.1,2.2,13.67,3.3,9.15,2.2,13.74,3.29,9.2,2.2,13.81,3.29c.22.05.44.1.66.14s.44.07.66.1.44.04.65.06.43.02.65.02c1.09,0,2.14-.17,3.14-.47s1.93-.75,2.78-1.32,1.61-1.26,2.25-2.05,1.17-1.69,1.55-2.66c.18-.46.37-.91.58-1.36s.43-.89.67-1.32.49-.86.76-1.27.56-.81.86-1.19c.58-.73,1.17-1.45,1.76-2.16s1.2-1.41,1.82-2.11,1.23-1.38,1.86-2.07,1.26-1.35,1.89-2.02c2.08-2.19,4.01-4.42,5.77-6.73s3.34-4.66,4.74-7.11c1.39-2.43,2.6-4.95,3.6-7.55s1.79-5.28,2.37-8.06c.58-2.83,1.18-5.64,1.79-8.44s1.24-5.55,1.89-8.29,1.32-5.45,2.02-8.14,1.41-5.34,2.16-7.98c.03-.1.06-.2.08-.3s.05-.2.08-.3.05-.2.07-.31.04-.2.06-.31Z"/>
    </clipPath>
    <filter id="drop-shadow-1" filterUnits="userSpaceOnUse">
      <feOffset dx="0" dy="3.77"/>
      <feGaussianBlur result="blur" stdDeviation="5.38"/>
      <feFlood flood-color="#000" flood-opacity=".75"/>
      <feComposite in2="blur" operator="in"/>
      <feComposite in="SourceGraphic"/>
    </filter>
  </defs>
  <g id="Layer_2-2" data-name="Layer 2">
    <g>
      <g class="cls-43">
        <g>
          <g class="cls-47">
            <polygon class="cls-12" points="153.75 406.7 161.92 444.39 161.47 448.89 153.22 411.38 153.75 406.7"/>
            <polygon class="cls-9" points="205.28 406.89 209.64 444.52 185.19 452.31 178.83 414.97 205.28 406.89"/>
            <polygon class="cls-9" points="178.83 414.97 185.19 452.31 161.92 444.39 153.75 406.7 178.83 414.97"/>
            <polygon class="cls-12" points="152.93 414.02 161.21 451.42 160.76 455.98 152.39 418.77 152.93 414.02"/>
            <polygon class="cls-9" points="204.84 414.2 209.26 451.54 186 458.99 179.66 421.93 204.84 414.2"/>
            <polygon class="cls-9" points="176.79 421.92 183.35 458.99 161.21 451.42 152.93 414.02 176.79 421.92"/>
            <polygon class="cls-12" points="179.66 421.93 186 458.99 185.65 463.61 179.25 426.75 179.66 421.93"/>
            <polygon class="cls-12" points="210.21 392.68 214.15 430.83 211.95 475.16 207.63 438.84 210.21 392.68"/>
            <polygon class="cls-9" points="207.63 438.84 211.95 475.16 154.89 475.06 145.88 438.67 207.63 438.84"/>
            <path class="cls-6" d="M151.26,392.44l58.95.24-2.57,46.16-61.76-.17,5.38-46.23ZM205,411.56l.28-4.67-26.45,8.08-25.08-8.27-.53,4.68,25.19,8.35,26.58-8.16M204.56,418.94l.28-4.74-25.18,7.74-.41,4.82,25.3-7.81M176.37,426.74l.42-4.82-23.86-7.91-.53,4.75,23.97,7.98"/>
          </g>
          <g class="cls-47">
            <polygon class="cls-11" points="84.33 472.2 98.46 507.12 97.68 512.2 83.41 477.53 84.33 472.2"/>
            <polygon class="cls-9" points="139.47 472.3 149.26 507.17 122.72 516.01 110.56 481.57 139.47 472.3"/>
            <polygon class="cls-9" points="110.56 481.57 122.72 516.01 98.46 507.12 84.33 472.2 110.56 481.57"/>
            <polygon class="cls-11" points="82.9 480.54 97.25 515.06 96.46 520.2 81.97 485.95 82.9 480.54"/>
            <polygon class="cls-9" points="138.48 480.63 148.42 515.09 123.16 523.56 110.94 489.51 138.48 480.63"/>
            <polygon class="cls-9" points="107.87 489.51 120.33 523.55 97.25 515.06 82.9 480.54 107.87 489.51"/>
            <polygon class="cls-12" points="110.94 489.51 123.16 523.56 122.49 528.78 110.15 495.01 110.94 489.51"/>
            <polygon class="cls-12" points="145.75 456.12 154.92 491.74 149.8 541.79 139.72 508.77 145.75 456.12"/>
            <polygon class="cls-9" points="139.72 508.77 149.8 541.79 88.94 541.79 73.48 508.71 139.72 508.77"/>
            <path class="cls-6" d="M82.73,455.98l63.02.15-6.03,52.65-66.24-.06,9.25-52.73ZM138.83,477.63l.63-5.32-28.9,9.27-26.23-9.37-.91,5.33,26.36,9.46,29.06-9.36M137.83,486.04l.64-5.41-27.53,8.88-.79,5.5,27.68-8.97M107.06,495.01l.81-5.5-24.97-8.97-.93,5.42,25.09,9.06"/>
          </g>
          <g class="cls-47">
            <polygon class="cls-9" points="394.1 411.23 384.55 448.49 384.03 444.03 393.49 406.59 394.1 411.23"/>
            <polygon class="cls-9" points="368.88 414.61 361.16 451.77 336.81 443.9 342.54 406.4 368.88 414.61"/>
            <polygon class="cls-9" points="393.49 406.59 384.03 444.03 361.16 451.77 368.88 414.61 393.49 406.59"/>
            <polygon class="cls-9" points="395.05 418.56 385.37 455.53 384.84 451.01 394.44 413.85 395.05 418.56"/>
            <polygon class="cls-9" points="394.44 413.85 384.84 451.01 363.09 458.41 371.02 421.53 394.44 413.85"/>
            <polygon class="cls-9" points="368.18 421.52 360.46 458.4 337.3 450.89 343.11 413.67 368.18 421.52"/>
            <polygon class="cls-9" points="368.68 426.31 360.89 463 360.46 458.4 368.18 421.52 368.68 426.31"/>
            <polygon class="cls-9" points="340.82 438.16 335.05 474.38 332.09 430.26 337.37 392.23 340.82 438.16"/>
            <polygon class="cls-9" points="401.86 438.33 391.49 474.48 335.05 474.38 340.82 438.16 401.86 438.33"/>
            <path class="cls-6" d="M337.37,392.23l58.3.24,6.19,45.86-61.04-.17-3.45-45.93ZM394.1,411.23l-.61-4.64-24.61,8.02-26.34-8.21.37,4.65,26.47,8.29,24.72-8.1M395.05,418.56l-.62-4.71-23.42,7.69.51,4.79,23.52-7.76M368.68,426.31l-.5-4.79-25.07-7.85.37,4.72,25.19,7.93"/>
          </g>
          <g class="cls-47">
            <polygon class="cls-9" points="465 476.36 449.36 510.73 448.51 505.72 464 471.1 465 476.36"/>
            <polygon class="cls-9" points="438.48 480.25 424.86 514.46 398.6 505.67 409.9 470.99 438.48 480.25"/>
            <polygon class="cls-9" points="464 471.1 448.51 505.72 424.86 514.46 438.48 480.25 464 471.1"/>
            <polygon class="cls-9" points="466.58 484.67 450.7 518.64 449.84 513.55 465.56 479.32 466.58 484.67"/>
            <polygon class="cls-9" points="465.56 479.32 449.84 513.55 427.34 521.92 441.28 488.1 465.56 479.32"/>
            <polygon class="cls-9" points="438.26 488.1 424.56 521.92 399.57 513.51 411.04 479.23 438.26 488.1"/>
            <polygon class="cls-9" points="439.14 493.53 425.31 527.09 424.56 521.92 438.26 488.1 439.14 493.53"/>
            <polygon class="cls-9" points="410.39 507.06 398.69 539.94 392.75 490.37 403.39 454.95 410.39 507.06"/>
            <polygon class="cls-9" points="475.33 507.12 458.45 539.95 398.69 539.94 410.39 507.06 475.33 507.12"/>
            <path class="cls-6" d="M403.39,454.95l61.84.15,10.1,52.03-64.94-.06-7-52.11ZM465,476.36l-1-5.26-25.52,9.15-28.58-9.26.73,5.27,28.73,9.34,25.64-9.25M466.58,484.67l-1.02-5.35-24.28,8.78.9,5.44,24.4-8.87M439.14,493.53l-.89-5.44-27.21-8.87.74,5.35,27.36,8.96"/>
          </g>
          <g class="cls-47">
            <polygon class="cls-9" points="483.57 570.02 465.1 599.29 464.1 593.44 482.38 563.79 483.57 570.02"/>
            <polygon class="cls-9" points="454.79 574.72 438.67 603.73 410.17 593.51 423.54 563.82 454.79 574.72"/>
            <polygon class="cls-9" points="482.38 563.79 464.1 593.44 438.67 603.73 454.79 574.72 482.38 563.79"/>
            <polygon class="cls-9" points="485.45 579.88 466.68 608.55 465.66 602.6 484.24 573.54 485.45 579.88"/>
            <polygon class="cls-9" points="484.24 573.54 465.66 602.6 441.45 612.45 457.96 584.03 484.24 573.54"/>
            <polygon class="cls-9" points="454.67 584.03 438.45 612.46 411.31 602.68 424.9 573.59 454.67 584.03"/>
            <polygon class="cls-9" points="455.73 590.5 439.33 618.51 438.45 612.46 454.67 584.03 455.73 590.5"/>
            <polygon class="cls-9" points="424.6 606.7 410.68 633.68 403.69 575.67 416.25 544.86 424.6 606.7"/>
            <polygon class="cls-9" points="495.44 606.57 475.41 633.52 410.68 633.68 424.6 606.7 495.44 606.57"/>
            <path class="cls-6" d="M416.25,544.86h67.17s12.02,61.71,12.02,61.71l-70.84.12-8.35-61.83ZM483.57,570.02l-1.19-6.23-27.6,10.93-31.25-10.9.87,6.24,31.43,11.01,27.74-11.06M485.45,579.88l-1.21-6.34-26.28,10.49,1.07,6.46,26.42-10.61M455.73,590.5l-1.06-6.46-29.77-10.44.88,6.35,29.95,10.55"/>
          </g>
          <g class="cls-47">
            <polygon class="cls-9" points="428.75 659.59 413.89 682.89 413.1 676.16 427.79 652.34 428.75 659.59"/>
            <polygon class="cls-9" points="397.36 665.13 385.29 688.03 355.19 676.37 364.17 652.53 397.36 665.13"/>
            <polygon class="cls-9" points="427.79 652.34 413.1 676.16 385.29 688.03 397.36 665.13 427.79 652.34"/>
            <polygon class="cls-9" points="430.27 671.07 415.15 693.51 414.34 686.67 429.29 663.68 430.27 671.07"/>
            <polygon class="cls-9" points="429.29 663.68 414.34 686.67 387.85 698.07 400.28 675.97 429.29 663.68"/>
            <polygon class="cls-9" points="396.74 675.99 384.62 698.08 355.95 686.9 365.09 663.89 396.74 675.99"/>
            <polygon class="cls-9" points="397.53 683.53 385.28 705.05 384.62 698.08 396.74 675.99 397.53 683.53"/>
            <polygon class="cls-9" points="362.89 702.55 353.69 722.6 349.12 655.91 357.35 630.5 362.89 702.55"/>
            <polygon class="cls-9" points="439.72 702.22 423.38 722.27 353.69 722.6 362.89 702.55 439.72 702.22"/>
            <path class="cls-6" d="M357.35,630.5l72.53-.17,9.83,71.89-76.83.33-5.53-72.05ZM428.75,659.59l-.96-7.25-30.42,12.79-33.19-12.6.59,7.27,33.4,12.75,30.6-12.95M430.27,671.07l-.98-7.39-29.01,12.3.82,7.54,29.17-12.45M397.53,683.53l-.79-7.54-31.65-12.1.6,7.4,31.84,12.24"/>
          </g>
          <g class="cls-47">
            <polygon class="cls-11" points="68.99 566.12 85.58 595.92 84.68 601.86 67.91 572.45 68.99 566.12"/>
            <polygon class="cls-9" points="129.08 566.08 140.55 595.84 111.75 606.25 97.46 577.15 129.08 566.08"/>
            <polygon class="cls-9" points="97.46 577.15 111.75 606.25 85.58 595.92 68.99 566.12 97.46 577.15"/>
            <polygon class="cls-11" points="67.3 576.01 84.17 605.2 83.25 611.24 66.21 582.45 67.3 576.01"/>
            <polygon class="cls-9" points="127.91 575.95 139.57 605.11 112.14 615.1 97.77 586.6 127.91 575.95"/>
            <polygon class="cls-9" points="94.42 586.6 109.07 615.11 84.17 605.2 67.3 576.01 94.42 586.6"/>
            <polygon class="cls-12" points="97.77 586.6 112.14 615.1 111.36 621.23 96.84 593.15 97.77 586.6"/>
            <polygon class="cls-12" points="136.09 546.89 146.8 577.79 140.84 636.43 128.96 609.45 136.09 546.89"/>
            <polygon class="cls-9" points="128.96 609.45 140.84 636.43 74.82 636.6 56.57 609.58 128.96 609.45"/>
            <path class="cls-6" d="M67.52,546.9h68.57s-7.13,62.55-7.13,62.55l-72.4.13,10.96-62.68ZM128.33,572.4l.75-6.32-31.62,11.07-28.47-11.04-1.08,6.33,28.62,11.16,31.8-11.2M127.15,582.38l.76-6.43-30.14,10.64-.94,6.55,30.31-10.77M93.46,593.15l.96-6.55-27.11-10.59-1.1,6.44,27.26,10.71"/>
          </g>
          <g class="cls-47">
            <polygon class="cls-12" points="128.09 654.62 140.46 678.44 139.79 685.24 127.28 661.96 128.09 654.62"/>
            <polygon class="cls-9" points="192.6 654.43 199.1 678.23 168.91 690.21 159.29 667.35 192.6 654.43"/>
            <polygon class="cls-9" points="159.29 667.35 168.91 690.21 140.46 678.44 128.09 654.62 159.29 667.35"/>
            <polygon class="cls-12" points="126.83 666.1 139.41 689.07 138.73 695.98 126 673.57 126.83 666.1"/>
            <polygon class="cls-9" points="191.93 665.88 198.55 688.84 169.77 700.33 160.16 678.3 191.93 665.88"/>
            <polygon class="cls-9" points="156.56 678.31 166.5 700.34 139.41 689.07 126.83 666.1 156.56 678.31"/>
            <polygon class="cls-12" points="160.16 678.3 169.77 700.33 169.25 707.36 159.53 685.91 160.16 678.3"/>
            <polygon class="cls-12" points="198.97 632.23 204.8 657.61 201.56 724.74 195.05 704.79 198.97 632.23"/>
            <polygon class="cls-9" points="195.05 704.79 201.56 724.74 130.96 725.09 117.11 705.13 195.05 704.79"/>
            <path class="cls-6" d="M125.45,632.41l73.52-.18-3.92,72.56-77.94.34,8.34-72.73ZM192.17,661.75l.43-7.32-33.3,12.92-31.2-12.73-.81,7.33,31.38,12.87,33.51-13.08M191.49,673.34l.43-7.46-31.77,12.41-.63,7.61,31.97-12.57M155.9,685.92l.65-7.61-29.73-12.21-.83,7.47,29.9,12.35"/>
          </g>
          <g class="cls-47">
            <polygon class="cls-9" points="298.8 388.41 296.31 426.62 296.18 422.33 298.64 383.97 298.8 388.41"/>
            <polygon class="cls-12" points="248.58 383.75 249.72 422.18 249.66 426.47 248.51 388.2 248.58 383.75"/>
            <polygon class="cls-9" points="298.64 383.97 296.18 422.33 273.03 429.75 273.7 391.63 298.64 383.97"/>
            <polygon class="cls-9" points="273.7 391.63 273.03 429.75 249.72 422.18 248.58 383.75 273.7 391.63"/>
            <polygon class="cls-9" points="299.04 395.42 296.53 433.38 296.39 429.03 298.88 390.92 299.04 395.42"/>
            <polygon class="cls-12" points="248.46 390.71 249.62 428.89 249.56 433.24 248.39 395.22 248.46 390.71"/>
            <polygon class="cls-9" points="298.88 390.92 296.39 429.03 274.36 436.13 275.14 398.25 298.88 390.92"/>
            <polygon class="cls-9" points="272.36 398.24 271.78 436.12 249.62 428.89 248.46 390.71 272.36 398.24"/>
            <polygon class="cls-9" points="272.4 402.82 271.82 440.53 271.78 436.12 272.36 398.24 272.4 402.82"/>
            <polygon class="cls-9" points="303.86 414.34 300.94 451.57 245.44 451.43 243.92 414.13 303.86 414.34"/>
            <path class="cls-6" d="M244.83,370.18l57.29.27,1.74,43.9-59.94-.21.91-43.95ZM298.8,388.41l-.16-4.44-24.94,7.67-25.12-7.88-.07,4.45,25.24,7.95,25.05-7.74M299.04,395.42l-.16-4.51-23.74,7.34.05,4.58,23.85-7.41M272.4,402.82l-.04-4.58-23.9-7.53-.07,4.51,24.01,7.6"/>
          </g>
          <g class="cls-47">
            <g class="cls-47">
              <g class="cls-17">
                <g class="cls-47">
                  <path class="cls-8" d="M301.05,468.37l-2.85,34.9c-.02.29-.05.58-.09.87s-.08.58-.14.87-.11.58-.18.86-.14.57-.22.86c-.66,2.37-1.33,4.74-2,7.13s-1.35,4.79-2.03,7.2-1.37,4.83-2.05,7.25-1.38,4.85-2.06,7.27l2.18-33.23c.74-2.55,1.48-5.11,2.22-7.66s1.48-5.09,2.21-7.63,1.46-5.05,2.19-7.57,1.44-5,2.15-7.48c.08-.3.16-.6.23-.9s.13-.6.19-.91.1-.61.15-.91.07-.61.1-.91"/>
                </g>
              </g>
            </g>
            <g class="cls-47">
              <g class="cls-21">
                <g class="cls-47">
                  <path class="cls-8" d="M290.39,523.98l-2.12,32.08c.02-.5.04-.98.06-1.45s.04-.93.07-1.37.04-.89.06-1.32.03-.87.03-1.3c.01-.82-.11-1.56-.35-2.2s-.6-1.18-1.08-1.62-1.05-.78-1.74-1.01-1.46-.35-2.33-.35c-.09,0-.17,0-.26,0s-.18,0-.27.01-.18.01-.27.02-.18.02-.28.02c-.62.06-1.24.12-1.87.19s-1.26.12-1.91.18-1.31.12-1.99.18-1.38.13-2.1.2l.85-32.65c.79-.07,1.54-.14,2.28-.21s1.46-.13,2.16-.19,1.4-.13,2.08-.19,1.36-.13,2.04-.19c.1,0,.2-.02.3-.03s.2-.01.29-.02.19,0,.29-.01.19,0,.28,0c.95,0,1.8.13,2.54.37s1.38.6,1.89,1.07.91,1.04,1.17,1.72.4,1.45.38,2.32c0,.45-.02.91-.04,1.37s-.04.93-.06,1.4-.04.96-.07,1.45-.05,1-.07,1.53"/>
                </g>
              </g>
            </g>
            <g class="cls-47">
              <g class="cls-24">
                <g class="cls-47">
                  <path class="cls-8" d="M255.59,527.77l.72,31.9c-1.02-.07-1.93-.25-2.74-.55s-1.51-.69-2.09-1.19-1.05-1.09-1.4-1.78-.57-1.46-.67-2.31c-.04-.37-.08-.73-.12-1.1s-.08-.73-.12-1.1-.1-.73-.16-1.09-.14-.72-.22-1.08c-.21-.84-.46-1.67-.76-2.47s-.67-1.57-1.09-2.32-.91-1.46-1.47-2.14-1.19-1.32-1.9-1.92c-.24-.21-.49-.39-.76-.55s-.53-.29-.81-.4-.57-.19-.86-.25-.6-.09-.91-.09c-.15,0-.3,0-.46.02s-.31.04-.47.06-.32.06-.48.11-.32.09-.49.15c-.48.17-.87.39-1.19.65s-.57.55-.76.88-.32.67-.41,1.04-.14.76-.16,1.15c-.01.26-.02.52-.03.78s-.02.53-.02.79,0,.53,0,.79.02.53.04.79l-2.52-32.67c-.02-.28-.03-.55-.04-.83s0-.56,0-.83.01-.56.02-.83.02-.55.04-.83c.02-.42.08-.83.18-1.22s.24-.76.45-1.1.48-.65.83-.92.78-.5,1.3-.68c.18-.06.35-.12.53-.16s.35-.08.52-.11.34-.05.51-.07.34-.02.5-.02c.34,0,.67.03.99.09s.64.15.94.27.6.26.88.43.56.36.82.58c.77.64,1.45,1.32,2.06,2.03s1.13,1.47,1.59,2.26.85,1.61,1.18,2.45.61,1.72.83,2.61c.1.38.18.76.24,1.14s.12.77.17,1.16.09.78.13,1.16.08.78.13,1.17c.1.9.35,1.72.73,2.44s.89,1.35,1.52,1.88,1.4.95,2.28,1.26,1.88.51,2.99.58"/>
                </g>
              </g>
            </g>
            <g class="cls-47">
              <g class="cls-23">
                <g class="cls-47">
                  <path class="cls-8" d="M288.64,467.78l-1.88,34.94c.03-.48-.05-.96-.21-1.4s-.41-.86-.73-1.22-.71-.68-1.15-.93-.93-.43-1.46-.53c-.08-.01-.16-.03-.24-.04s-.16-.02-.24-.03-.16-.01-.24-.02-.16,0-.23,0c-.48,0-.95.07-1.38.19s-.84.32-1.21.56-.69.55-.95.9-.47.76-.61,1.21c-1.06,3.49-2.13,7-3.21,10.53s-2.17,7.14-3.26,10.74-2.21,7.28-3.32,10.96-2.25,7.43-3.39,11.18c-.25.83-.5,1.67-.75,2.51s-.5,1.68-.75,2.52-.5,1.69-.76,2.53-.52,1.69-.79,2.54c-.19.59-.51,1.19-.92,1.74s-.89,1.07-1.42,1.52-1.09.81-1.64,1.07-1.09.41-1.58.41l-.72-31.9c.53,0,1.12-.16,1.72-.43s1.22-.66,1.79-1.13,1.11-1.02,1.55-1.6.79-1.21,1-1.84c.29-.89.58-1.79.86-2.68s.56-1.78.83-2.67.54-1.78.82-2.66.54-1.77.82-2.65c1.24-3.96,2.46-7.89,3.68-11.8s2.41-7.72,3.6-11.54,2.36-7.56,3.53-11.29,2.32-7.4,3.47-11.05c.15-.47.38-.9.66-1.27s.64-.69,1.03-.95.84-.46,1.31-.59.98-.2,1.5-.2c.08,0,.17,0,.25,0s.17,0,.26.02.17.02.26.03.17.02.26.04c.57.1,1.11.29,1.59.56s.9.6,1.24.98.62.82.79,1.28.26.96.23,1.47"/>
                </g>
              </g>
            </g>
            <g class="cls-47">
              <g class="cls-22">
                <g class="cls-47">
                  <path class="cls-8" d="M305.55,533.38l-3.38,31.55c-.03-.42-.07-.82-.11-1.2s-.07-.75-.1-1.11-.06-.71-.09-1.05-.05-.68-.06-1.02c-.04-.92-.18-1.71-.42-2.39s-.59-1.24-1.05-1.69-1.03-.78-1.71-1-1.48-.33-2.41-.33c-.11,0-.21,0-.32,0s-.22,0-.33.01-.23.01-.34.02-.23.02-.35.03c-.54.05-1.08.11-1.62.18s-1.08.14-1.63.21-1.1.15-1.66.23-1.12.16-1.7.23l2.12-32.08c.63-.08,1.24-.16,1.85-.24s1.21-.16,1.8-.24,1.19-.15,1.77-.22,1.18-.13,1.76-.19c.13-.01.26-.02.38-.03s.25-.02.37-.02.24-.01.36-.01.24,0,.35,0c1,0,1.87.12,2.62.35s1.37.59,1.87,1.06.88,1.07,1.15,1.78.42,1.56.46,2.53c.02.36.04.72.07,1.08s.06.73.1,1.11.08.77.12,1.18.08.83.12,1.27"/>
                </g>
              </g>
            </g>
            <g class="cls-47">
              <g class="cls-28">
                <g class="cls-47">
                  <path class="cls-8" d="M319.98,537.2l-4.58,31.32c.08-.58.05-1.12-.09-1.63s-.38-.97-.72-1.37-.77-.75-1.29-1.02-1.13-.47-1.81-.58c-.1-.02-.21-.03-.31-.04s-.21-.02-.32-.03-.21-.01-.32-.02-.21,0-.32,0c-.27,0-.55.01-.82.03s-.55.04-.83.07-.55.06-.83.1-.55.07-.82.1c-.39.04-.78.1-1.17.16s-.78.13-1.17.2-.79.15-1.19.22-.81.15-1.23.22l3.38-31.55c.46-.08.9-.15,1.34-.23s.87-.16,1.3-.23.85-.15,1.27-.21.84-.12,1.27-.17c.29-.03.59-.07.89-.1s.6-.07.9-.1.6-.06.9-.08.6-.03.9-.03c.12,0,.23,0,.35,0s.23,0,.35.02.23.02.34.03.23.03.34.04c.74.12,1.4.33,1.97.61s1.04.66,1.41,1.08.64.92.79,1.46.19,1.12.1,1.73"/>
                </g>
              </g>
            </g>
            <g class="cls-47">
              <g class="cls-27">
                <g class="cls-47">
                  <path class="cls-8" d="M224.55,541.5l3.31,31.15c-.18-1.68-.39-3.35-.63-5.02s-.5-3.31-.79-4.95-.6-3.26-.93-4.89-.67-3.23-1.03-4.83c-.07-.31-.14-.62-.2-.93s-.12-.62-.17-.93-.1-.62-.15-.94-.08-.62-.12-.94l-3.59-32.53c.04.33.08.66.12.99s.1.66.15.99.12.66.18.99.14.66.21.99c.39,1.7.76,3.4,1.11,5.11s.69,3.44,1,5.18.59,3.49.85,5.24.48,3.54.67,5.32"/>
                </g>
              </g>
            </g>
            <g class="cls-47">
              <g class="cls-25">
                <g class="cls-47">
                  <path class="cls-8" d="M232.94,583.5l2.7,28.61c-.07-.76-.17-1.52-.3-2.28s-.29-1.51-.47-2.26-.39-1.5-.62-2.25-.48-1.49-.75-2.24c-.64-1.76-1.21-3.52-1.73-5.3s-.97-3.54-1.37-5.32-.74-3.56-1.03-5.34-.53-3.56-.72-5.35l-3.26-30.58c.2,1.9.46,3.79.77,5.68s.68,3.79,1.11,5.68.92,3.79,1.48,5.67,1.18,3.77,1.88,5.65c.29.8.57,1.59.82,2.39s.47,1.6.67,2.4.37,1.61.51,2.41.25,1.62.33,2.43"/>
                </g>
              </g>
            </g>
            <g class="cls-47">
              <g class="cls-26">
                <g class="cls-47">
                  <path class="cls-8" d="M247.1,584.61l1.49,28.53c.04.71.05,1.43.04,2.16s-.05,1.45-.12,2.19-.17,1.47-.3,2.22-.29,1.5-.49,2.26l-1.58-27.93c.22-.81.4-1.61.54-2.41s.25-1.59.33-2.37.12-1.56.14-2.34,0-1.54-.04-2.3"/>
                </g>
              </g>
            </g>
            <g class="cls-47">
              <g class="cls-29">
                <g class="cls-47">
                  <path class="cls-8" d="M333.07,540.2l-5.67,31.14c-.02.11-.04.21-.06.32s-.05.21-.07.32-.05.21-.08.31-.06.21-.09.31c-.66,2.32-1.3,4.65-1.91,7s-1.21,4.74-1.78,7.13-1.13,4.82-1.67,7.25-1.07,4.89-1.59,7.36c-.5,2.43-1.2,4.76-2.06,7.02s-1.91,4.45-3.1,6.56-2.56,4.17-4.06,6.16-3.16,3.93-4.93,5.82c-.54.58-1.08,1.16-1.61,1.75s-1.06,1.18-1.58,1.78-1.04,1.21-1.55,1.82-1.01,1.24-1.5,1.86c-.26.33-.5.67-.74,1.03s-.45.72-.65,1.09-.4.75-.57,1.14-.34.78-.49,1.17c-.33.84-.78,1.61-1.32,2.29s-1.19,1.28-1.91,1.77-1.51.88-2.36,1.14-1.74.4-2.66.41c-.18,0-.37,0-.55-.02s-.37-.03-.56-.05-.37-.05-.56-.08-.37-.07-.56-.12c-3.89-.94-7.78-1.88-11.67-2.83s-7.75-1.89-11.62-2.83-7.72-1.89-11.57-2.83c-3.84-.94-7.68-1.89-11.51-2.83-.88-.22-1.69-.55-2.42-.99s-1.38-.97-1.94-1.57-1-1.28-1.34-2.01-.55-1.5-.64-2.29l-2.88-27.68c.09.85.33,1.68.69,2.45s.86,1.5,1.46,2.15,1.32,1.22,2.12,1.69,1.69.83,2.65,1.06c4.2,1.01,8.4,2.03,12.61,3.04s8.44,2.03,12.67,3.04,8.48,2.03,12.73,3.04,8.52,2.03,12.79,3.04c.21.05.41.09.62.13s.41.07.61.09.41.04.61.05.4.02.6.02c1.01,0,1.99-.15,2.91-.43s1.79-.69,2.58-1.22,1.49-1.16,2.09-1.89,1.09-1.56,1.44-2.46c.17-.42.34-.84.54-1.25s.4-.82.63-1.22.46-.79.71-1.17.52-.75.8-1.1c.54-.67,1.09-1.34,1.64-1.99s1.12-1.31,1.69-1.95,1.15-1.28,1.73-1.91,1.17-1.25,1.76-1.87c1.94-2.02,3.73-4.09,5.37-6.22s3.11-4.31,4.42-6.58,2.43-4.58,3.36-7,1.68-4.89,2.22-7.48c.55-2.63,1.12-5.24,1.7-7.84s1.17-5.15,1.79-7.71,1.25-5.06,1.91-7.57,1.34-4.97,2.04-7.43c.03-.11.06-.22.09-.33s.06-.22.08-.33.05-.22.07-.33.05-.22.07-.34"/>
                </g>
              </g>
            </g>
            <path class="cls-6" d="M317.9,521.23c2.91.53,5.43,1.55,7.55,2.9s3.84,3.04,5.11,4.93,2.13,3.97,2.51,6.1.28,4.31-.31,6.38c-.71,2.46-1.39,4.93-2.04,7.43s-1.29,5.03-1.91,7.57-1.21,5.12-1.79,7.71-1.15,5.21-1.7,7.84c-.54,2.58-1.29,5.07-2.22,7.48s-2.06,4.74-3.36,7-2.78,4.45-4.42,6.58-3.44,4.2-5.37,6.22c-.59.62-1.18,1.24-1.76,1.87s-1.16,1.27-1.73,1.91-1.13,1.29-1.69,1.95-1.1,1.32-1.64,1.99c-.28.35-.55.72-.8,1.1s-.49.77-.71,1.17-.43.81-.63,1.22-.37.83-.54,1.25c-.36.9-.85,1.73-1.44,2.46s-1.3,1.37-2.09,1.89-1.66.94-2.58,1.22-1.9.43-2.91.43c-.2,0-.4,0-.6-.02s-.41-.03-.61-.05-.41-.05-.61-.09-.41-.08-.62-.13c-4.27-1.01-8.54-2.02-12.79-3.04s-8.5-2.03-12.73-3.04-8.45-2.03-12.67-3.04-8.41-2.03-12.61-3.04c-1.25-.3-2.38-.83-3.35-1.51s-1.78-1.53-2.39-2.48-1-2-1.16-3.1-.06-2.24.33-3.38c.63-1.84,1.03-3.65,1.25-5.44s.25-3.54.13-5.29-.4-3.46-.81-5.18-.94-3.42-1.57-5.12c-.83-2.25-1.56-4.51-2.2-6.78s-1.18-4.53-1.64-6.81-.83-4.54-1.13-6.82-.51-4.54-.65-6.81c-.14-2.24-.35-4.47-.61-6.68s-.57-4.38-.92-6.55-.75-4.3-1.17-6.44-.88-4.24-1.36-6.34c-.27-1.18-.48-2.36-.63-3.54s-.23-2.37-.23-3.56.07-2.37.24-3.56.41-2.36.77-3.54c.54-1.8,1.42-3.39,2.55-4.75s2.51-2.5,4.05-3.41,3.24-1.6,5.03-2.06,3.64-.69,5.5-.69c.86,0,1.73.05,2.58.16s1.7.26,2.53.47,1.64.47,2.42.78,1.54.68,2.26,1.1c.56.33,1.1.68,1.63,1.05s1.06.76,1.59,1.16,1.07.82,1.62,1.24,1.12.86,1.72,1.29c.18-.55.35-1.08.52-1.61s.34-1.05.51-1.57.33-1.03.5-1.54.33-1.01.49-1.52c.89-2.76,1.79-5.5,2.67-8.23s1.76-5.41,2.63-8.1,1.73-5.33,2.59-7.98,1.7-5.25,2.53-7.86c.24-.76.54-1.5.89-2.2s.75-1.38,1.22-2.02.99-1.25,1.59-1.83,1.26-1.12,2-1.64c.76-.52,1.57-.99,2.43-1.38s1.76-.73,2.7-1,1.89-.47,2.87-.6,1.97-.2,2.96-.2c.61,0,1.22.03,1.83.08s1.21.14,1.81.25,1.19.25,1.77.41,1.15.36,1.71.58c1.65.65,3.14,1.46,4.44,2.39s2.42,1.98,3.32,3.12,1.58,2.37,2.02,3.66.63,2.64.55,4.02c-.02.33-.05.67-.09,1s-.09.67-.15,1-.13.67-.2,1-.16.66-.25.99c-.71,2.48-1.43,4.98-2.15,7.48s-1.45,5.04-2.19,7.57-1.47,5.08-2.21,7.63-1.48,5.11-2.22,7.66c.69.46,1.41.89,2.13,1.31s1.44.83,2.13,1.25,1.34.85,1.93,1.32,1.11.96,1.53,1.51c.61.79,1.26,1.5,1.95,2.14s1.42,1.22,2.2,1.74,1.61,1,2.49,1.45,1.82.86,2.81,1.25c.65.26,1.25.61,1.82,1.02s1.11.88,1.64,1.37,1.05,1.01,1.57,1.52,1.06,1.01,1.62,1.47c.18.15.37.31.57.47s.4.32.6.46.42.27.64.38.44.18.66.23ZM319.88,537.7c.17-.67.19-1.31.08-1.9s-.36-1.13-.73-1.61-.85-.88-1.45-1.2-1.29-.55-2.08-.67c-.11-.02-.23-.03-.34-.04s-.23-.02-.34-.03-.23-.01-.35-.02-.23,0-.35,0c-.3,0-.6.01-.9.03s-.6.05-.9.08-.6.07-.9.1-.6.07-.89.1c-.42.05-.85.1-1.27.17s-.85.14-1.27.21-.86.15-1.3.23-.88.16-1.34.23c-.04-.44-.08-.87-.12-1.27s-.08-.8-.12-1.18-.07-.75-.1-1.11-.05-.72-.07-1.08c-.04-.97-.2-1.81-.46-2.53s-.65-1.31-1.15-1.78-1.12-.82-1.87-1.06-1.62-.35-2.62-.35c-.11,0-.23,0-.35,0s-.24,0-.36.01-.25.01-.37.02-.25.02-.38.03c-.59.05-1.17.12-1.76.19s-1.18.15-1.77.22-1.19.16-1.8.24-1.22.16-1.85.24c.02-.53.04-1.03.07-1.53s.05-.98.07-1.45.04-.94.06-1.4.03-.92.04-1.37c.01-.87-.12-1.65-.38-2.32s-.66-1.25-1.17-1.72-1.15-.82-1.89-1.07-1.59-.37-2.54-.37c-.09,0-.19,0-.28,0s-.19,0-.29.01-.2.01-.29.02-.2.02-.3.03c-.68.07-1.35.13-2.04.19s-1.38.13-2.08.19-1.42.13-2.16.19-1.5.13-2.28.21c.08-.26.15-.51.22-.73s.13-.44.19-.65.12-.4.18-.59.11-.37.17-.56c1.07-3.55,2.14-7.08,3.2-10.59s2.1-6.95,3.14-10.38,2.06-6.81,3.08-10.18,2.02-6.68,3.02-9.99c.05-.16.1-.31.15-.47s.1-.31.15-.47.09-.31.13-.47.07-.31.09-.47c.07-.53.01-1.06-.15-1.55s-.42-.96-.77-1.36-.78-.76-1.27-1.04-1.05-.48-1.65-.59c-.09-.02-.17-.03-.26-.04s-.17-.02-.26-.03-.17-.01-.26-.02-.17,0-.25,0c-.52,0-1.02.07-1.5.2s-.91.33-1.31.59-.74.58-1.03.95-.51.8-.66,1.27c-1.15,3.66-2.31,7.34-3.47,11.05s-2.35,7.5-3.53,11.29-2.39,7.67-3.6,11.54-2.44,7.84-3.68,11.8c-.28.88-.55,1.76-.82,2.65s-.54,1.77-.82,2.66-.55,1.78-.83,2.67-.57,1.79-.86,2.68c-.21.63-.56,1.25-1,1.84s-.97,1.13-1.55,1.6-1.19.86-1.79,1.13-1.19.43-1.72.43c-1.11-.07-2.11-.27-2.99-.58s-1.64-.73-2.28-1.26-1.14-1.16-1.52-1.88-.62-1.54-.73-2.44c-.05-.39-.09-.78-.13-1.17s-.08-.78-.13-1.16-.1-.77-.17-1.16-.15-.76-.24-1.14c-.22-.89-.5-1.76-.83-2.61s-.72-1.66-1.18-2.45-.99-1.54-1.59-2.26-1.29-1.4-2.06-2.03c-.26-.22-.54-.41-.82-.58s-.58-.31-.88-.43-.62-.21-.94-.27-.65-.09-.99-.09c-.16,0-.33,0-.5.02s-.34.04-.51.07-.35.07-.52.11-.35.1-.53.16c-.52.18-.95.41-1.3.68s-.62.58-.83.92-.35.71-.45,1.1-.15.8-.18,1.22c-.02.36-.04.73-.05,1.1s-.02.74-.01,1.1.02.74.05,1.1.07.73.13,1.09c.38,2.34.79,4.7,1.2,7.06s.84,4.75,1.25,7.14.83,4.81,1.22,7.24.76,4.89,1.1,7.35c.26,1.91.5,3.83.76,5.75s.54,3.86.87,5.79.72,3.87,1.19,5.79,1.03,3.85,1.71,5.77c.77,2.15,1.53,4.32,2.2,6.5s1.25,4.4,1.65,6.65.63,4.54.58,6.87-.35,4.73-1.01,7.18c3.46.82,6.9,1.64,10.34,2.45s6.87,1.63,10.29,2.44,6.85,1.62,10.28,2.42,6.86,1.61,10.29,2.41c.16,0,.31-.02.47-.06s.31-.1.45-.18.28-.16.4-.25.22-.19.3-.28c.97-1.11,1.93-2.21,2.89-3.32s1.91-2.21,2.86-3.32,1.89-2.2,2.84-3.3,1.89-2.18,2.85-3.26c1.06-1.19,2.11-2.39,3.13-3.6s1.99-2.44,2.88-3.71,1.7-2.56,2.39-3.91,1.26-2.75,1.66-4.21c.87-3.13,1.71-6.26,2.53-9.36s1.6-6.17,2.38-9.24,1.53-6.08,2.29-9.1,1.49-5.99,2.24-8.96"/>
          </g>
          <g class="cls-47">
            <polygon class="cls-9" points="312.31 698.23 307.85 718.65 307.61 711.52 312.02 690.5 312.31 698.23"/>
            <polygon class="cls-12" points="246.03 690.76 247.74 711.79 247.65 718.94 245.92 698.51 246.03 690.76"/>
            <polygon class="cls-9" points="312.02 690.5 307.61 711.52 277.83 724.13 279.21 704.17 312.02 690.5"/>
            <polygon class="cls-9" points="279.21 704.17 277.83 724.13 247.74 711.79 246.03 690.76 279.21 704.17"/>
            <polygon class="cls-9" points="312.77 710.47 308.22 729.92 307.98 722.66 312.47 702.59 312.77 710.47"/>
            <polygon class="cls-12" points="245.86 702.88 247.6 722.96 247.5 730.22 245.74 710.78 245.86 702.88"/>
            <polygon class="cls-9" points="312.47 702.59 307.98 722.66 279.6 734.78 281.18 715.75 312.47 702.59"/>
            <polygon class="cls-9" points="277.49 715.77 276.26 734.8 247.6 722.96 245.86 702.88 277.49 715.77"/>
            <polygon class="cls-9" points="277.58 723.82 276.33 742.19 276.26 734.8 277.49 715.77 277.58 723.82"/>
            <polygon class="cls-9" points="319.53 743.74 314.23 760.43 242.1 760.86 239.72 744.17 319.53 743.74"/>
            <path class="cls-6" d="M241.16,667.31l75.18-.25,3.19,76.68-79.81.43,1.43-76.86ZM312.31,698.23l-.29-7.73-32.81,13.67-33.18-13.41-.11,7.75,33.38,13.57,33.01-13.85M312.77,710.47l-.3-7.88-31.3,13.16.1,8.05,31.49-13.33M277.58,723.82l-.08-8.05-31.64-12.89-.11,7.9,31.83,13.05"/>
          </g>
        </g>
      </g>
      <g>
        <g class="cls-47">
          <polygon class="cls-12" points="146.92 366.29 156.19 406.9 155.68 411.64 146.32 371.22 146.92 366.29"/>
          <polygon class="cls-9" points="201.78 366.5 206.75 407.05 180.81 415.25 173.57 375.02 201.78 366.5"/>
          <polygon class="cls-9" points="173.57 375.02 180.81 415.25 156.19 406.9 146.92 366.29 173.57 375.02"/>
          <polygon class="cls-12" points="145.99 374 155.4 414.31 154.88 419.11 145.38 379.02 145.99 374"/>
          <polygon class="cls-9" points="201.28 374.2 206.33 414.44 181.62 422.3 174.4 382.38 201.28 374.2"/>
          <polygon class="cls-9" points="171.34 382.37 178.81 422.29 155.4 414.31 145.99 374 171.34 382.37"/>
          <polygon class="cls-12" points="174.4 382.38 181.62 422.3 181.23 427.18 173.93 387.47 174.4 382.38"/>
          <polygon class="cls-12" points="207.09 351.52 211.59 392.64 209.08 439.38 204.14 400.28 207.09 351.52"/>
          <polygon class="cls-9" points="204.14 400.28 209.08 439.38 148.52 439.27 138.25 400.08 204.14 400.28"/>
          <path class="cls-10" d="M144.39,351.25l62.7.27-2.96,48.76-65.89-.2,6.14-48.83ZM201.46,371.43l.32-4.93-28.21,8.52-26.64-8.73-.6,4.94,26.78,8.82,28.36-8.61M200.95,379.21l.33-5.01-26.88,8.17-.47,5.1,27.02-8.26M170.86,387.46l.48-5.1-25.36-8.37-.61,5.02,25.49,8.45"/>
        </g>
        <g class="cls-47">
          <polygon class="cls-12" points="72.11 435.68 88.24 473.22 87.36 478.61 71.06 441.35 72.11 435.68"/>
          <polygon class="cls-9" points="131.09 435.8 142.29 473.28 113.98 482.66 100.07 445.65 131.09 435.8"/>
          <polygon class="cls-9" points="100.07 445.65 113.98 482.66 88.24 473.22 72.11 435.68 100.07 445.65"/>
          <polygon class="cls-12" points="70.47 444.55 86.87 481.64 85.97 487.11 69.4 450.32 70.47 444.55"/>
          <polygon class="cls-9" points="129.95 444.65 141.33 481.68 114.37 490.68 100.38 454.12 129.95 444.65"/>
          <polygon class="cls-9" points="97.09 454.12 111.35 490.68 86.87 481.64 70.47 444.55 97.09 454.12"/>
          <polygon class="cls-12" points="100.38 454.12 114.37 490.68 113.61 496.24 99.47 459.99 100.38 454.12"/>
          <polygon class="cls-12" points="137.95 418.59 148.41 456.91 142.59 510.08 131 474.68 137.95 418.59"/>
          <polygon class="cls-9" points="131 474.68 142.59 510.08 77.72 510.08 59.99 474.61 131 474.68"/>
          <path class="cls-10" d="M70.63,418.42l67.32.17-6.95,56.1-71.01-.07,10.64-56.19ZM130.36,441.46l.73-5.67-31.02,9.85-27.96-9.97-1.05,5.68,28.1,10.08,31.2-9.96M129.21,450.42l.74-5.76-29.57,9.47-.91,5.87,29.74-9.58M96.16,459.99l.93-5.87-26.62-9.57-1.07,5.77,26.76,9.67"/>
        </g>
        <g class="cls-47">
          <polygon class="cls-9" points="402.75 371.13 392.04 411.26 391.46 406.56 402.06 366.24 402.75 371.13"/>
          <polygon class="cls-9" points="375.94 374.69 367.29 414.71 341.45 406.42 347.86 366.02 375.94 374.69"/>
          <polygon class="cls-9" points="402.06 366.24 391.46 406.56 367.29 414.71 375.94 374.69 402.06 366.24"/>
          <polygon class="cls-9" points="403.83 378.86 392.96 418.68 392.37 413.91 403.13 373.89 403.83 378.86"/>
          <polygon class="cls-9" points="403.13 373.89 392.37 413.91 369.37 421.71 378.26 382 403.13 373.89"/>
          <polygon class="cls-9" points="375.24 381.99 366.59 421.71 342 413.77 348.5 373.68 375.24 381.99"/>
          <polygon class="cls-9" points="375.8 387.05 367.06 426.56 366.59 421.71 375.24 381.99 375.8 387.05"/>
          <polygon class="cls-9" points="346.17 399.57 339.7 438.56 336.41 392.06 342.3 351.09 346.17 399.57"/>
          <polygon class="cls-9" points="411.25 399.77 399.58 438.68 339.7 438.56 346.17 399.57 411.25 399.77"/>
          <path class="cls-10" d="M342.3,351.09l61.97.27,6.98,48.42-65.08-.2-3.87-48.49ZM402.75,371.13l-.68-4.9-26.12,8.46-28.08-8.67.41,4.9,28.23,8.75,26.25-8.55M403.83,378.86l-.7-4.97-24.87,8.12.57,5.06,25-8.2M375.8,387.05l-.56-5.06-26.74-8.31.42,4.98,26.88,8.39"/>
        </g>
        <g class="cls-47">
          <polygon class="cls-9" points="479.04 440.16 461.34 477.08 460.39 471.76 477.91 434.56 479.04 440.16"/>
          <polygon class="cls-9" points="450.76 444.29 435.34 481.03 407.36 471.7 420.13 434.44 450.76 444.29"/>
          <polygon class="cls-9" points="477.91 434.56 460.39 471.76 435.34 481.03 450.76 444.29 477.91 434.56"/>
          <polygon class="cls-9" points="480.84 449 462.85 485.46 461.88 480.07 479.68 443.31 480.84 449"/>
          <polygon class="cls-9" points="479.68 443.31 461.88 480.07 438.04 488.95 453.83 452.65 479.68 443.31"/>
          <polygon class="cls-9" points="450.61 452.65 435.09 488.95 408.45 480.02 421.43 443.2 450.61 452.65"/>
          <polygon class="cls-9" points="451.62 458.45 435.94 494.44 435.09 488.95 450.61 452.65 451.62 458.45"/>
          <polygon class="cls-9" points="421 472.88 407.72 508.12 401.03 455.49 413.03 417.39 421 472.88"/>
          <polygon class="cls-9" points="490.51 472.95 471.33 508.13 407.72 508.12 421 472.88 490.51 472.95"/>
          <path class="cls-10" d="M413.03,417.39l65.98.17,11.5,55.39-69.52-.07-7.96-55.49ZM479.04,440.16l-1.14-5.6-27.15,9.73-30.63-9.85.83,5.61,30.8,9.95,27.28-9.84M480.84,449l-1.16-5.69-25.85,9.35,1.03,5.8,25.98-9.45M451.62,458.45l-1.01-5.8-29.18-9.45.84,5.7,29.35,9.55"/>
        </g>
        <g class="cls-47">
          <polygon class="cls-9" points="500.26 540.44 479.11 571.53 477.98 565.25 498.89 533.72 500.26 540.44"/>
          <polygon class="cls-9" points="469.37 545.5 450.92 576.28 420.39 565.34 435.66 533.76 469.37 545.5"/>
          <polygon class="cls-9" points="498.89 533.72 477.98 565.25 450.92 576.28 469.37 545.5 498.89 533.72"/>
          <polygon class="cls-9" points="502.42 551.05 480.9 581.44 479.75 575.06 501.03 544.22 502.42 551.05"/>
          <polygon class="cls-9" points="501.03 544.22 479.75 575.06 453.98 585.65 472.9 555.54 501.03 544.22"/>
          <polygon class="cls-9" points="469.37 555.54 450.77 585.65 421.68 575.16 437.22 544.27 469.37 555.54"/>
          <polygon class="cls-9" points="470.59 562.52 451.78 592.15 450.77 585.65 469.37 555.54 470.59 562.52"/>
          <polygon class="cls-9" points="437.24 580.04 421.26 608.47 413.31 546.24 427.63 513.38 437.24 580.04"/>
          <polygon class="cls-9" points="513.58 579.9 490.54 608.29 421.26 608.47 437.24 580.04 513.58 579.9"/>
          <path class="cls-10" d="M427.63,513.38h72.1s13.86,66.52,13.86,66.52l-76.34.14-9.61-66.66ZM500.26,540.44l-1.37-6.71-29.51,11.77-33.71-11.73,1,6.72,33.92,11.87,29.67-11.92M502.42,551.05l-1.39-6.84-28.13,11.32,1.24,6.98,28.28-11.46M470.59,562.52l-1.22-6.98-32.15-11.27,1.02,6.85,32.35,11.4"/>
        </g>
        <g class="cls-47">
          <polygon class="cls-9" points="442.3 637.49 425.13 661.58 424.22 654.31 441.18 629.59 442.3 637.49"/>
          <polygon class="cls-9" points="408.41 643.54 394.46 667.17 362.06 654.55 372.4 629.81 408.41 643.54"/>
          <polygon class="cls-9" points="441.18 629.59 424.22 654.31 394.46 667.17 408.41 643.54 441.18 629.59"/>
          <polygon class="cls-9" points="444.07 650.01 426.58 673.1 425.65 665.69 442.93 641.95 444.07 650.01"/>
          <polygon class="cls-9" points="442.93 641.95 425.65 665.69 397.28 678.05 411.67 655.39 442.93 641.95"/>
          <polygon class="cls-9" points="407.82 655.41 393.81 678.07 362.93 665.95 373.47 642.2 407.82 655.41"/>
          <polygon class="cls-9" points="408.74 663.65 394.56 685.63 393.81 678.07 407.82 655.41 408.74 663.65"/>
          <polygon class="cls-9" points="371.34 684.48 360.69 704.71 355.47 632.45 364.91 605.86 371.34 684.48"/>
          <polygon class="cls-9" points="454.66 684.09 435.67 704.32 360.69 704.71 371.34 684.48 454.66 684.09"/>
          <path class="cls-10" d="M364.91,605.86l78.28-.2,11.46,78.43-83.32.39-6.42-78.62ZM442.3,637.49l-1.12-7.9-32.77,13.95-36-13.73.68,7.92,36.24,13.9,32.97-14.14M444.07,650.01l-1.14-8.06-31.26,13.44.95,8.24,31.45-13.62M408.74,663.65l-.93-8.24-34.34-13.21.7,8.08,34.57,13.38"/>
        </g>
        <g class="cls-47">
          <polygon class="cls-12" points="54.35 536.24 73.5 567.94 72.46 574.32 53.09 543.07 54.35 536.24"/>
          <polygon class="cls-9" points="119.02 536.2 132.28 567.86 101.38 579.03 84.85 548.15 119.02 536.2"/>
          <polygon class="cls-9" points="84.85 548.15 101.38 579.03 73.5 567.94 54.35 536.24 84.85 548.15"/>
          <polygon class="cls-12" points="52.38 546.91 71.88 577.9 70.83 584.38 51.1 553.86 52.38 546.91"/>
          <polygon class="cls-9" points="117.66 546.84 131.16 577.8 101.7 588.53 85.06 558.34 117.66 546.84"/>
          <polygon class="cls-9" points="81.44 558.34 98.42 588.53 71.88 577.9 52.38 546.91 81.44 558.34"/>
          <polygon class="cls-12" points="85.06 558.34 101.7 588.53 100.8 595.12 83.97 565.42 85.06 558.34"/>
          <polygon class="cls-12" points="126.74 515.56 139.1 548.53 132.24 611.48 118.43 583.05 126.74 515.56"/>
          <polygon class="cls-9" points="118.43 583.05 132.24 611.48 61.47 611.67 40.28 583.2 118.43 583.05"/>
          <path class="cls-10" d="M53.03,515.57h73.7s-8.31,67.49-8.31,67.49l-78.15.15,12.75-67.64ZM118.15,543.01l.87-6.81-34.17,11.95-30.5-11.9-1.26,6.82,30.67,12.04,34.38-12.1M116.77,553.78l.89-6.94-32.59,11.49-1.09,7.08,32.8-11.64M80.33,565.42l1.11-7.08-29.06-11.43-1.28,6.95,29.22,11.57"/>
        </g>
        <g class="cls-47">
          <polygon class="cls-12" points="117.01 632.16 131.47 656.85 130.69 664.21 116.06 640.16 117.01 632.16"/>
          <polygon class="cls-9" points="186.83 631.93 194.47 656.61 161.96 669.59 150.67 646.03 186.83 631.93"/>
          <polygon class="cls-9" points="150.67 646.03 161.96 669.59 131.47 656.85 117.01 632.16 150.67 646.03"/>
          <polygon class="cls-12" points="115.52 644.67 130.26 668.35 129.47 675.85 114.54 652.83 115.52 644.67"/>
          <polygon class="cls-9" points="186.04 644.41 193.83 668.08 162.83 680.57 151.53 658 186.04 644.41"/>
          <polygon class="cls-9" points="147.61 658.01 159.3 680.58 130.26 668.35 115.52 644.67 147.61 658.01"/>
          <polygon class="cls-12" points="151.53 658 162.83 680.57 162.22 688.2 150.78 666.32 151.53 658"/>
          <polygon class="cls-12" points="193.84 607.77 200.68 634.31 196.89 707.09 189.18 687 193.84 607.77"/>
          <polygon class="cls-9" points="189.18 687 196.89 707.09 120.84 707.49 104.54 687.4 189.18 687"/>
          <path class="cls-10" d="M114.39,607.98l79.45-.21-4.66,79.23-84.64.4,9.84-79.43ZM186.32,639.92l.51-7.98-36.16,14.1-33.66-13.87-.96,8,33.87,14.05,36.4-14.29M185.52,652.56l.52-8.14-34.51,13.58-.75,8.33,34.74-13.77M146.84,666.34l.77-8.33-32.09-13.34-.97,8.16,32.3,13.51"/>
        </g>
        <g class="cls-47">
          <polygon class="cls-9" points="301.28 347.05 298.54 388.23 298.4 383.72 301.11 342.38 301.28 347.05"/>
          <polygon class="cls-12" points="247.91 342.14 249.25 383.55 249.18 388.06 247.83 346.82 247.91 342.14"/>
          <polygon class="cls-9" points="301.11 342.38 298.4 383.72 273.91 391.52 274.61 350.44 301.11 342.38"/>
          <polygon class="cls-9" points="274.61 350.44 273.91 391.52 249.25 383.55 247.91 342.14 274.61 350.44"/>
          <polygon class="cls-9" points="301.56 354.44 298.78 395.33 298.63 390.77 301.38 349.69 301.56 354.44"/>
          <polygon class="cls-12" points="247.78 349.45 249.14 390.6 249.06 395.18 247.69 354.21 247.78 349.45"/>
          <polygon class="cls-9" points="301.38 349.69 298.63 390.77 275.32 398.23 276.15 357.41 301.38 349.69"/>
          <polygon class="cls-9" points="273.19 357.4 272.59 398.22 249.14 390.6 247.78 349.45 273.19 357.4"/>
          <polygon class="cls-9" points="273.22 362.23 272.62 402.86 272.59 398.22 273.19 357.4 273.22 362.23"/>
          <polygon class="cls-9" points="306.72 374.38 303.48 414.49 244.67 414.33 242.9 374.15 306.72 374.38"/>
          <path class="cls-10" d="M243.96,327.87l60.83.3,1.93,46.21-63.82-.24,1.06-46.28ZM301.28,347.05l-.17-4.68-26.5,8.06-26.69-8.3-.09,4.68,26.82,8.38,26.63-8.14M301.56,354.44l-.18-4.75-25.23,7.73.05,4.83,25.36-7.81M273.22,362.23l-.04-4.83-25.41-7.95-.09,4.75,25.53,8.02"/>
        </g>
        <g class="cls-47">
          <g class="cls-47">
            <g class="cls-34">
              <g class="cls-47">
                <path class="cls-8" d="M303.82,431.7l-3.17,37.52c-.03.3-.06.6-.1.9s-.09.6-.14.9-.12.6-.19.9-.15.59-.23.89c-.7,2.51-1.4,5.03-2.11,7.57s-1.43,5.09-2.15,7.65-1.45,5.13-2.18,7.7-1.46,5.16-2.19,7.73l2.41-35.64c.79-2.72,1.58-5.45,2.37-8.18s1.57-5.43,2.36-8.13,1.56-5.38,2.33-8.06,1.53-5.32,2.28-7.97c.09-.31.17-.62.25-.93s.14-.63.2-.95.11-.63.15-.95.08-.64.11-.95"/>
              </g>
            </g>
          </g>
          <g class="cls-47">
            <g class="cls-39">
              <g class="cls-47">
                <path class="cls-8" d="M292.49,490.98l-2.35,34.32c.02-.53.04-1.04.07-1.55s.05-.99.07-1.47.04-.95.06-1.41.03-.92.04-1.38c.01-.88-.11-1.66-.37-2.34s-.64-1.26-1.15-1.73-1.13-.83-1.85-1.07-1.56-.37-2.48-.37c-.09,0-.18,0-.28,0s-.19,0-.28.01-.19.01-.29.02-.19.02-.29.03c-.66.07-1.33.13-2,.2s-1.35.13-2.04.19-1.39.13-2.12.2-1.47.14-2.24.21l.9-34.98c.84-.08,1.66-.15,2.45-.22s1.56-.14,2.32-.21,1.5-.14,2.23-.2,1.46-.14,2.18-.21c.11-.01.21-.02.32-.03s.21-.01.31-.02.21,0,.31-.01.2,0,.3,0c1.01,0,1.92.13,2.72.39s1.48.64,2.03,1.14.98,1.11,1.26,1.84.43,1.56.41,2.49c0,.49-.02.97-.04,1.47s-.04.99-.06,1.5-.05,1.02-.07,1.56-.05,1.08-.07,1.64"/>
              </g>
            </g>
          </g>
          <g class="cls-47">
            <g class="cls-33">
              <g class="cls-47">
                <path class="cls-8" d="M255.17,495.04l.9,34.12c-1.09-.07-2.06-.27-2.92-.58s-1.61-.74-2.23-1.27-1.12-1.16-1.49-1.9-.61-1.55-.71-2.46c-.05-.39-.09-.78-.13-1.17s-.08-.78-.13-1.17-.1-.78-.17-1.16-.14-.77-.23-1.15c-.22-.9-.49-1.78-.82-2.63s-.71-1.68-1.16-2.47-.97-1.55-1.56-2.28-1.26-1.41-2.01-2.05c-.26-.22-.53-.42-.81-.59s-.57-.32-.87-.43-.61-.21-.92-.27-.64-.09-.97-.09c-.16,0-.32,0-.49.02s-.33.04-.5.07-.34.07-.51.11-.34.1-.52.16c-.51.18-.93.42-1.27.69s-.6.59-.81.93-.34.72-.44,1.11-.15.8-.17,1.22c-.02.29-.03.57-.04.86s-.02.58-.02.87,0,.58,0,.87.02.58.05.86l-2.95-34.99c-.03-.3-.04-.61-.05-.92s-.01-.61,0-.92.01-.61.03-.92.03-.61.05-.92c.03-.45.08-.88.19-1.3s.26-.81.49-1.18.51-.7.89-.99.83-.54,1.39-.73c.19-.07.38-.12.57-.17s.37-.09.56-.12.37-.06.55-.07.36-.02.53-.02c.36,0,.72.03,1.06.1s.68.16,1.01.28.64.28.95.46.6.39.88.62c.82.68,1.55,1.4,2.2,2.17s1.21,1.57,1.7,2.42.91,1.72,1.26,2.62.65,1.84.89,2.8c.1.4.18.81.25,1.22s.13.82.18,1.24.1.83.14,1.25.09.83.14,1.25c.11.97.37,1.84.77,2.62s.95,1.45,1.63,2.02,1.5,1.02,2.44,1.35,2.01.54,3.2.62"/>
              </g>
            </g>
          </g>
          <g class="cls-47">
            <g class="cls-32">
              <g class="cls-47">
                <path class="cls-8" d="M290.57,431.01l-2.07,37.56c.03-.51-.05-1.01-.23-1.49s-.44-.91-.78-1.3-.75-.72-1.22-.99-.99-.46-1.56-.56c-.09-.02-.17-.03-.26-.04s-.17-.02-.25-.03-.17-.01-.25-.02-.17,0-.25,0c-.51,0-1,.07-1.46.21s-.89.34-1.28.6-.73.58-1.01.96-.5.81-.65,1.29c-1.13,3.7-2.27,7.42-3.41,11.17s-2.31,7.58-3.47,11.41-2.35,7.74-3.54,11.65-2.4,7.91-3.61,11.91c-.27.89-.54,1.78-.8,2.68s-.53,1.79-.8,2.69-.54,1.8-.81,2.7-.56,1.8-.84,2.7c-.2.63-.55,1.26-.98,1.86s-.95,1.14-1.52,1.62-1.16.87-1.75,1.14-1.17.43-1.68.43l-.9-34.12c.56,0,1.2-.17,1.84-.46s1.3-.71,1.92-1.21,1.19-1.09,1.66-1.72.85-1.3,1.07-1.97c.31-.96.62-1.91.92-2.87s.6-1.91.89-2.86.59-1.9.88-2.85.58-1.89.88-2.84c1.33-4.23,2.64-8.44,3.95-12.61s2.58-8.24,3.86-12.31,2.53-8.05,3.78-12.03,2.48-7.87,3.71-11.76c.16-.51.4-.96.71-1.36s.68-.73,1.1-1.01.89-.48,1.39-.63,1.04-.22,1.59-.21c.09,0,.18,0,.27,0s.18.01.28.02.18.02.28.03.19.03.28.04c.61.11,1.19.31,1.7.59s.96.63,1.33,1.04.66.87.85,1.37.28,1.02.25,1.56"/>
              </g>
            </g>
          </g>
          <g class="cls-47">
            <g class="cls-31">
              <g class="cls-47">
                <path class="cls-8" d="M308.76,501.05l-3.79,33.71c-.04-.45-.08-.87-.12-1.28s-.08-.8-.11-1.19-.07-.76-.1-1.12-.05-.73-.07-1.09c-.04-.98-.19-1.83-.44-2.55s-.63-1.32-1.12-1.8-1.1-.83-1.82-1.06-1.58-.35-2.56-.35c-.11,0-.23,0-.35,0s-.24,0-.36.01-.24.01-.37.02-.25.02-.38.03c-.58.06-1.15.12-1.73.19s-1.15.15-1.74.23-1.17.16-1.77.24-1.2.17-1.81.25l2.35-34.32c.67-.08,1.33-.17,1.98-.26s1.29-.17,1.93-.26,1.27-.16,1.9-.24,1.26-.14,1.89-.2c.14-.01.28-.02.41-.03s.27-.02.4-.02.26-.01.39-.01.25,0,.38,0c1.07,0,2.01.12,2.81.37s1.47.63,2,1.13.95,1.14,1.23,1.91.45,1.67.5,2.71c.02.38.05.77.08,1.16s.07.79.11,1.19.08.83.13,1.26.09.89.13,1.37"/>
              </g>
            </g>
          </g>
          <g class="cls-47">
            <g class="cls-35">
              <g class="cls-47">
                <path class="cls-8" d="M324.26,505.21l-5.17,33.45c.1-.62.07-1.21-.08-1.76s-.4-1.05-.77-1.49-.83-.81-1.39-1.11-1.21-.51-1.95-.62c-.11-.02-.22-.03-.34-.04s-.23-.02-.34-.03-.23-.01-.34-.02-.23,0-.34,0c-.29,0-.58.01-.87.03s-.59.05-.88.08-.59.07-.88.1-.58.07-.87.1c-.41.05-.83.11-1.24.17s-.83.14-1.25.22-.84.16-1.27.24-.87.16-1.32.24l3.79-33.71c.49-.08.97-.17,1.44-.25s.94-.17,1.39-.25.91-.16,1.37-.23.9-.13,1.36-.18c.32-.03.64-.07.96-.11s.64-.07.96-.11.64-.06.96-.08.64-.03.96-.03c.13,0,.25,0,.38,0s.25.01.37.02.25.02.37.03.25.03.37.05c.81.12,1.52.35,2.13.66s1.13.71,1.53,1.18.69,1,.85,1.58.2,1.21.09,1.87"/>
              </g>
            </g>
          </g>
          <g class="cls-47">
            <g class="cls-37">
              <g class="cls-47">
                <path class="cls-8" d="M221.6,507.86l3.88,33.37c-.19-1.64-.41-3.27-.65-4.9s-.51-3.23-.79-4.83-.59-3.19-.91-4.78-.65-3.16-1-4.73c-.07-.3-.13-.59-.19-.89s-.11-.59-.16-.89-.1-.59-.14-.89-.08-.6-.12-.89l-4.17-34.81c.04.32.08.63.13.95s.1.63.15.95.11.63.18.95.13.63.2.94c.37,1.67.74,3.34,1.08,5.02s.67,3.38.98,5.08.59,3.42.85,5.14.49,3.47.7,5.21"/>
              </g>
            </g>
          </g>
          <g class="cls-47">
            <g class="cls-36">
              <g class="cls-47">
                <path class="cls-8" d="M230.64,554.52l3.19,30.35c-.08-.78-.19-1.56-.33-2.33s-.3-1.55-.49-2.32-.4-1.54-.64-2.31-.49-1.53-.77-2.3c-.64-1.77-1.21-3.55-1.74-5.34s-.98-3.57-1.39-5.36-.77-3.58-1.07-5.37-.56-3.58-.77-5.38l-3.81-32.51c.22,1.92.5,3.83.83,5.74s.72,3.83,1.16,5.74.95,3.83,1.51,5.73,1.2,3.82,1.89,5.72c.3.82.58,1.64.84,2.46s.49,1.65.69,2.47.39,1.66.54,2.49.27,1.67.36,2.51"/>
              </g>
            </g>
          </g>
          <g class="cls-47">
            <g class="cls-40">
              <g class="cls-47">
                <path class="cls-8" d="M245.92,555.86l1.79,30.25c.05.79.07,1.59.06,2.39s-.05,1.61-.12,2.42-.18,1.64-.32,2.46-.32,1.66-.55,2.51l-1.9-29.52c.25-.9.45-1.8.61-2.69s.28-1.77.36-2.65.13-1.74.14-2.6,0-1.71-.06-2.56"/>
              </g>
            </g>
          </g>
          <g class="cls-47">
            <g class="cls-38">
              <g class="cls-47">
                <path class="cls-8" d="M338.28,508.58l-6.42,33.23c-.02.1-.04.19-.06.29s-.04.19-.06.29-.05.19-.07.29-.05.19-.08.29c-.7,2.48-1.37,4.97-2.01,7.49s-1.27,5.07-1.88,7.63-1.19,5.16-1.76,7.76-1.13,5.24-1.67,7.89c-.53,2.6-1.27,5.11-2.19,7.53s-2.03,4.77-3.31,7.04-2.73,4.48-4.33,6.62-3.37,4.23-5.26,6.27c-.58.62-1.16,1.25-1.73,1.88s-1.14,1.27-1.69,1.92-1.11,1.3-1.65,1.96-1.08,1.33-1.61,2c-.28.36-.54.73-.79,1.11s-.48.78-.7,1.18-.42.81-.61,1.23-.37.84-.53,1.26c-.35.91-.83,1.73-1.41,2.47s-1.28,1.38-2.05,1.9-1.62.94-2.53,1.23-1.86.44-2.85.44c-.2,0-.39,0-.59-.02s-.39-.03-.59-.05-.4-.05-.6-.09-.4-.08-.6-.13c-4.17-1.01-8.34-2.03-12.5-3.04s-8.3-2.03-12.45-3.05-8.27-2.03-12.39-3.05-8.23-2.03-12.33-3.05c-.93-.23-1.79-.59-2.57-1.05s-1.47-1.02-2.06-1.66-1.07-1.36-1.43-2.12-.6-1.58-.7-2.43l-3.4-29.22c.11.91.37,1.79.76,2.61s.93,1.6,1.57,2.29,1.41,1.3,2.26,1.79,1.81.88,2.83,1.13c4.52,1.1,9.06,2.2,13.6,3.3s9.1,2.2,13.67,3.3,9.15,2.2,13.74,3.29,9.2,2.2,13.81,3.29c.22.05.44.1.66.14s.44.07.66.1.44.04.65.06.43.02.65.02c1.09,0,2.14-.17,3.14-.47s1.93-.75,2.78-1.32,1.61-1.26,2.25-2.05,1.17-1.69,1.55-2.66c.18-.46.37-.91.58-1.36s.43-.89.67-1.32.49-.86.76-1.27.56-.81.86-1.19c.58-.73,1.17-1.45,1.76-2.16s1.2-1.41,1.82-2.11,1.23-1.38,1.86-2.07,1.26-1.35,1.89-2.02c2.08-2.19,4.01-4.42,5.77-6.73s3.34-4.66,4.74-7.11c1.39-2.43,2.6-4.95,3.6-7.55s1.79-5.28,2.37-8.06c.58-2.83,1.18-5.64,1.79-8.44s1.24-5.55,1.89-8.29,1.32-5.45,2.02-8.14,1.41-5.34,2.16-7.98c.03-.1.06-.2.08-.3s.05-.2.08-.3.05-.2.07-.31.04-.2.06-.31"/>
              </g>
            </g>
          </g>
          <path class="cls-10" d="M321.98,488.03c3.12.57,5.83,1.66,8.1,3.11s4.12,3.26,5.5,5.28,2.3,4.26,2.71,6.54.32,4.63-.31,6.85c-.75,2.64-1.47,5.3-2.16,7.98s-1.37,5.41-2.02,8.14-1.28,5.51-1.89,8.29-1.21,5.61-1.79,8.44c-.57,2.79-1.37,5.47-2.37,8.06s-2.21,5.12-3.6,7.55c-1.4,2.45-2.98,4.81-4.74,7.11s-3.69,4.55-5.77,6.73c-.64.67-1.27,1.34-1.89,2.02s-1.25,1.37-1.86,2.07-1.22,1.4-1.82,2.11-1.19,1.43-1.76,2.16c-.3.38-.59.78-.86,1.19s-.53.84-.76,1.27-.46.88-.67,1.32-.4.9-.58,1.36c-.38.98-.91,1.87-1.55,2.66s-1.4,1.48-2.25,2.05-1.79,1.02-2.78,1.32-2.05.47-3.14.47c-.22,0-.43,0-.65-.02s-.44-.03-.65-.06-.44-.06-.66-.1-.44-.08-.66-.14c-4.61-1.1-9.21-2.19-13.81-3.29s-9.17-2.2-13.74-3.29-9.12-2.2-13.67-3.3-9.07-2.2-13.6-3.3c-1.34-.33-2.56-.89-3.61-1.63s-1.91-1.66-2.56-2.69-1.08-2.17-1.24-3.36-.06-2.42.36-3.65c.68-1.99,1.12-3.95,1.37-5.88s.28-3.83.16-5.71-.42-3.74-.86-5.59-1-3.68-1.67-5.52c-.89-2.42-1.67-4.86-2.35-7.31s-1.26-4.88-1.74-7.33-.88-4.89-1.19-7.34-.53-4.88-.68-7.32c-.15-2.41-.36-4.8-.63-7.17s-.6-4.7-.97-7.03-.78-4.61-1.23-6.9-.93-4.54-1.43-6.79c-.28-1.26-.5-2.52-.66-3.79s-.23-2.53-.23-3.81.09-2.54.27-3.8.45-2.53.83-3.79c.58-1.93,1.53-3.62,2.75-5.08s2.69-2.67,4.35-3.64,3.48-1.71,5.39-2.2,3.9-.74,5.89-.73c.93,0,1.85.06,2.76.17s1.82.28,2.7.5,1.75.5,2.59.83,1.65.72,2.42,1.17c.6.35,1.18.72,1.75,1.12s1.13.81,1.7,1.24,1.14.87,1.73,1.33,1.2.92,1.84,1.38c.19-.58.38-1.16.56-1.72s.37-1.12.55-1.67.36-1.1.54-1.64.35-1.08.53-1.62c.96-2.94,1.92-5.87,2.87-8.77s1.89-5.77,2.82-8.63,1.85-5.68,2.77-8.49,1.82-5.59,2.71-8.36c.26-.81.57-1.59.95-2.34s.8-1.46,1.3-2.15,1.06-1.33,1.7-1.95,1.35-1.19,2.14-1.74c.81-.56,1.68-1.05,2.6-1.47s1.88-.78,2.88-1.06,2.02-.5,3.07-.64,2.1-.21,3.16-.21c.65,0,1.31.03,1.95.09s1.29.15,1.93.26,1.27.26,1.89.44,1.23.38,1.82.61c1.77.7,3.36,1.55,4.75,2.54s2.58,2.1,3.55,3.31,1.69,2.52,2.16,3.89.68,2.81.59,4.27c-.02.35-.05.71-.09,1.06s-.09.71-.16,1.07-.13.71-.22,1.06-.17.7-.27,1.05c-.75,2.64-1.52,5.3-2.28,7.97s-1.55,5.37-2.33,8.06-1.57,5.42-2.36,8.13-1.58,5.45-2.37,8.18c.74.49,1.51.96,2.28,1.41s1.54.89,2.28,1.34,1.44.91,2.07,1.41,1.19,1.02,1.64,1.61c.66.85,1.35,1.61,2.09,2.29s1.53,1.3,2.36,1.87,1.73,1.07,2.67,1.55,1.95.91,3.02,1.34c.7.28,1.34.65,1.95,1.09s1.19.94,1.76,1.47,1.13,1.08,1.69,1.63,1.14,1.08,1.74,1.57c.2.16.4.33.61.5s.43.34.65.49.45.29.68.4.47.2.71.24ZM324.16,505.69c.18-.71.2-1.4.08-2.04s-.39-1.22-.78-1.73-.92-.95-1.56-1.29-1.39-.59-2.24-.72c-.12-.02-.25-.03-.37-.05s-.25-.02-.37-.03-.25-.01-.37-.02-.25,0-.38,0c-.32,0-.64.01-.96.03s-.64.05-.96.08-.64.07-.96.11-.64.07-.96.11c-.45.05-.9.11-1.36.18s-.91.15-1.37.23-.92.17-1.39.25-.95.17-1.44.25c-.04-.48-.09-.93-.13-1.37s-.09-.86-.13-1.26-.08-.8-.11-1.19-.06-.77-.08-1.16c-.05-1.04-.21-1.94-.5-2.71s-.7-1.4-1.23-1.91-1.2-.88-2-1.13-1.73-.37-2.81-.37c-.12,0-.25,0-.38,0s-.26,0-.39.01-.27.01-.4.02-.27.02-.41.03c-.63.06-1.26.13-1.89.2s-1.26.15-1.9.24-1.28.17-1.93.26-1.31.18-1.98.26c.02-.56.05-1.11.07-1.64s.05-1.05.07-1.56.04-1,.06-1.5.03-.98.04-1.47c.01-.93-.13-1.76-.41-2.49s-.71-1.34-1.26-1.84-1.23-.88-2.03-1.14-1.71-.39-2.72-.39c-.1,0-.2,0-.3,0s-.2,0-.31.01-.21.01-.31.02-.21.02-.32.03c-.73.07-1.45.14-2.18.21s-1.47.14-2.23.2-1.53.14-2.32.21-1.61.14-2.45.22c.09-.28.16-.54.24-.79s.14-.47.21-.69.13-.43.19-.63.12-.4.18-.6c1.15-3.8,2.29-7.57,3.43-11.32s2.24-7.41,3.35-11.08,2.2-7.26,3.29-10.85,2.15-7.11,3.22-10.63c.05-.17.1-.33.16-.5s.11-.33.16-.5.1-.33.14-.5.07-.34.09-.5c.07-.57.01-1.12-.16-1.65s-.45-1.01-.83-1.45-.83-.81-1.36-1.11-1.12-.51-1.76-.63c-.09-.02-.19-.03-.28-.04s-.19-.02-.28-.03-.18-.01-.28-.02-.18,0-.27,0c-.55,0-1.09.07-1.59.21s-.97.35-1.39.63-.79.61-1.1,1.01-.55.85-.71,1.36c-1.23,3.89-2.46,7.81-3.71,11.76s-2.51,7.99-3.78,12.03-2.56,8.18-3.86,12.31-2.62,8.37-3.95,12.61c-.3.94-.59,1.89-.88,2.84s-.58,1.9-.88,2.85-.59,1.91-.89,2.86-.61,1.91-.92,2.87c-.22.67-.6,1.34-1.07,1.97s-1.05,1.21-1.66,1.72-1.27.92-1.92,1.21-1.28.46-1.84.46c-1.19-.08-2.26-.29-3.2-.62s-1.76-.78-2.44-1.35-1.23-1.24-1.63-2.02-.66-1.65-.77-2.62c-.05-.42-.09-.83-.14-1.25s-.09-.83-.14-1.25-.11-.83-.18-1.24-.15-.82-.25-1.22c-.24-.96-.53-1.89-.89-2.8s-.77-1.78-1.26-2.62-1.05-1.65-1.7-2.42-1.38-1.49-2.2-2.17c-.28-.23-.58-.44-.88-.62s-.62-.33-.95-.46-.66-.22-1.01-.28-.7-.1-1.06-.1c-.18,0-.35,0-.53.02s-.36.04-.55.07-.37.07-.56.12-.38.11-.57.17c-.56.19-1.02.44-1.39.73s-.66.62-.89.99-.38.76-.49,1.18-.16.85-.19,1.3c-.02.39-.04.78-.06,1.17s-.02.79-.02,1.18.02.79.05,1.18.07.78.14,1.17c.4,2.51.83,5.03,1.27,7.55s.88,5.09,1.32,7.65.87,5.16,1.29,7.77.8,5.25,1.15,7.89c.27,2.05.53,4.11.8,6.18s.57,4.15.92,6.22.76,4.16,1.26,6.23,1.1,4.15,1.83,6.21c.82,2.32,1.63,4.65,2.34,7.01s1.33,4.75,1.76,7.17.66,4.9.62,7.42-.38,5.11-1.1,7.76c3.73.89,7.44,1.77,11.13,2.65s7.4,1.76,11.09,2.64,7.38,1.75,11.07,2.62,7.39,1.74,11.09,2.6c.16,0,.33-.02.5-.07s.33-.11.49-.19.3-.17.43-.27.24-.2.33-.3c1.05-1.2,2.08-2.39,3.11-3.59s2.05-2.39,3.07-3.59,2.04-2.38,3.06-3.56,2.04-2.36,3.06-3.52c1.14-1.29,2.27-2.58,3.36-3.89s2.13-2.64,3.09-4.01,1.83-2.77,2.56-4.22,1.35-2.96,1.78-4.54c.93-3.38,1.83-6.74,2.7-10.09s1.71-6.64,2.53-9.94,1.63-6.54,2.43-9.78,1.59-6.43,2.38-9.61"/>
        </g>
        <g class="cls-47">
          <polygon class="cls-9" points="316.45 679.77 311.33 700.43 311.06 692.68 316.11 671.3 316.45 679.77"/>
          <polygon class="cls-12" points="244.57 671.61 246.66 692.99 246.54 700.76 244.43 680.1 244.57 671.61"/>
          <polygon class="cls-9" points="316.11 671.3 311.06 692.68 279.03 706.41 280.55 686.3 316.11 671.3"/>
          <polygon class="cls-9" points="280.55 686.3 279.03 706.41 246.66 692.99 244.57 671.61 280.55 686.3"/>
          <polygon class="cls-9" points="316.98 693.2 311.76 712.68 311.49 704.79 316.64 684.55 316.98 693.2"/>
          <polygon class="cls-12" points="244.35 684.89 246.48 705.13 246.37 713.04 244.21 693.55 244.35 684.89"/>
          <polygon class="cls-9" points="316.64 684.55 311.49 704.79 280.94 717.99 282.69 699 316.64 684.55"/>
          <polygon class="cls-9" points="278.68 699.02 277.34 718.01 246.48 705.13 244.35 684.89 278.68 699.02"/>
          <polygon class="cls-9" points="278.77 707.88 277.41 726.07 277.34 718.01 278.68 699.02 278.77 707.88"/>
          <polygon class="cls-9" points="324.43 729.8 318.31 745.98 240.48 746.47 237.58 730.31 324.43 729.8"/>
          <path class="cls-10" d="M239.34,645.97l81.4-.29,3.7,84.13-86.85.51,1.75-84.35ZM316.45,679.77l-.33-8.47-35.57,15-35.98-14.69-.14,8.49,36.22,14.88,35.8-15.21M316.98,693.2l-.34-8.65-33.95,14.46.12,8.85,34.18-14.66M278.77,707.88l-.09-8.85-34.33-14.14-.14,8.67,34.56,14.32"/>
        </g>
      </g>
    </g>
  </g>
  <g id="Layer_3" data-name="Layer 3">
    <g>
      <g class="cls-30">
        <path class="cls-7" d="M254.66,27.19h-8.84c-.15,0-.25-.13-.21-.29l7.41-14.52c.09-.22.36-.31.44,0l1.58,14.42c.04.27-.1.39-.37.39M270.68,40.3l-4.09-32.35c-.23-1.76-.46-3.02-3.81-3.02h-17.23c-2.15,0-3.22.11-3.99,1.48l-18.86,34.36c-.81,1.37-.15,2.54,1.19,2.54h11.12c1.48-.02,2.23-.34,3.02-1.63,1.08-1.96,2.1-3.99,2.93-5.77.11-.14.23-.21.41-.21h14.27c.17,0,.38.15.39.31l.54,5c.2,1.84,1.11,2.31,2.58,2.31h9.18c1.97,0,2.66-.93,2.34-3.02"/>
        <path class="cls-7" d="M412.09,27.18h-8.84c-.15,0-.25-.12-.21-.3l7.41-14.5c.1-.23.39-.32.45,0l1.58,14.41c.04.26-.1.39-.38.39M428.12,40.3l-4.11-32.36c-.22-1.77-.44-3.01-3.79-3.01h-17.23c-2.15,0-3.24.11-4,1.47l-18.85,34.35c-.8,1.39-.16,2.57,1.2,2.57h11.11c1.48-.04,2.24-.36,3.02-1.63,1.08-1.98,2.1-3.99,2.94-5.77.1-.14.21-.21.41-.23h14.26c.17,0,.38.17.38.33l.55,5c.2,1.82,1.11,2.31,2.59,2.31h9.19c1.94,0,2.64-.95,2.33-3.02"/>
        <path class="cls-7" d="M363.15,40.75l2.96-16.19c.19-.87-.23-.91-.53-.44l-13.47,17.59c-.68.9-1.74,1.63-2.59,1.63h-3.26c-.89,0-1.62-.63-1.88-1.34l-6.51-17.82c-.28-.73-.5-.48-.61.16l-3.15,17.14c-.19,1.06-.89,1.86-1.99,1.86h-9.79c-1.44,0-2.08-.72-1.8-2.18l6.59-33.5c.43-2.13,1.56-2.73,3.18-2.73h10.73c1.97,0,3.33.42,3.87,1.83l5.69,15.4c.32.74.37.74.85.06l12.17-15.51c1.04-1.34,1.9-1.81,3.72-1.81h13.49c2.34,0,2.66,1.22,2.34,2.88l-6.52,33.89c-.23,1.08-1.02,1.78-2.21,1.78h-9.3c-2,0-2.2-1.34-1.96-2.68"/>
        <path class="cls-7" d="M303.13,21.81l2.63-14.21c.38-2.14,1.47-2.56,3.17-2.56h8.43c1.58,0,2.71.57,2.28,2.75l-6.49,32.81c-.42,2.13-1.51,2.74-2.84,2.74h-6.76c-1.21,0-2.2-.39-2.75-1.32l-9.13-15.51c-.21-.37-.38-.26-.43.02l-2.52,13.79c-.33,1.79-.81,3.12-2.75,3.12h-9.66c-1.59,0-2.16-.85-1.85-2.45l6.3-33.31c.41-2.25,1.63-2.63,2.74-2.63h6.99c1.72,0,2.56.68,3.67,2.56l8.46,14.23c.15.25.48.39.55-.02"/>
        <path class="cls-7" d="M461.15,14.9c-.05.79-.53,3.25-.89,4.77-.41,1.76-1.11,2.19-3.62,2.19h-6.87c-.44,0-.53-.14-.46-.49l1.57-8.19c.04-.1.12-.2.31-.2,1.79-.05,7.8-.09,8.4,0,1.31.13,1.64.71,1.57,1.92M468.66,4.88l-26.85.05c-3.04,0-3.75.55-4.12,2.49l-6.55,33.6c-.3,1.52-.02,2.21,1.82,2.32.96.06,9.1,0,9.96,0,1.51,0,2.26-.72,2.52-1.92.85-3.7,1.94-9.51,2.18-10.81.11-.63.17-.68,1.22-.68h7.47c1.24,0,1.73.59,1.47,2.31l-1.47,9.01c-.19,1.2.29,2.07,1.7,2.07,1.92.01,8.59.08,9.8,0,1.87,0,2.62-.43,3.05-2.87l1.51-8.4c.48-2.63.53-6.32-3.69-7.72-.21-.06-.18-.25-.02-.28,3.41-.93,4.82-2.98,5.65-5.52.53-1.61.97-4.46,1.3-6.6.81-4.88-2.18-7.05-6.96-7.05"/>
        <path class="cls-7" d="M208.76,17.95l9.83-12.05c.53-.64.84-1.05,1.91-1.05h13.35c1.87,0,1.56,1.23,1.09,1.81l-19.67,23.62c-.14.19-.28.74-.32.97l-2.32,10.7c-.24,1.18-1.24,1.64-2.52,1.64h-10.02c-2.07,0-2.21-1.17-1.95-2.53l1.89-9.45c.08-.36.1-.53-.04-.82l-12.72-24.38c-.36-.84.22-1.55,1.31-1.55h11.2c1.08,0,1.96.38,2.34,1.18l5.82,11.94c.24.53.52.35.83-.02"/>
        <polygon class="cls-7" points="122.03 48.43 167.8 29.47 167.8 17.94 122.03 36.9 122.03 48.43"/>
        <polygon class="cls-7" points="119.37 20.06 70.95 0 70.95 11.52 119.37 31.58 167.8 11.52 167.8 0 119.37 20.06"/>
        <polygon class="cls-7" points="70.95 29.47 116.71 48.42 116.71 36.9 70.95 17.94 70.95 29.47"/>
      </g>
      <text class="cls-2" transform="translate(9.01 118.46)"><tspan class="cls-18" x="0" y="0">Y</tspan><tspan class="cls-13" x="47.99" y="0">OU </tspan><tspan class="cls-42" x="197.53" y="0">C</tspan><tspan class="cls-16" x="247.81" y="0">HOOSE</tspan></text>
      <text class="cls-4" transform="translate(4.99 271.92)"><tspan class="cls-15" x="0" y="0">DEA</tspan><tspan class="cls-41" x="347.52" y="0">L</tspan><tspan class="cls-15" x="433.47" y="0">S</tspan></text>
    </g>
    <text class="cls-5" transform="translate(0 758.15)"><tspan class="cls-14" x="0" y="0">Limi</tspan><tspan class="cls-19" x="68.46" y="0">t</tspan><tspan class="cls-14" x="81.64" y="0">ed</tspan><tspan class="cls-45" x="123.47" y="0"> </tspan><tspan class="cls-44" x="128.74" y="0">T</tspan><tspan class="cls-14" x="150.37" y="0">ime! </tspan><tspan class="cls-45" x="227.18" y="0"> </tspan><tspan class="cls-1" x="232.45" y="0">T</tspan><tspan class="cls-14" x="254.02" y="0">he BIGGE</tspan><tspan class="cls-49" x="412.4" y="0">S</tspan><tspan class="cls-46" x="435.13" y="0">T</tspan><tspan class="cls-14" x="455.97" y="0" xml:space="preserve"> deals</tspan><tspan class="cls-14" x="13.28" y="38.95">ac</tspan><tspan class="cls-19" x="53.67" y="38.95">r</tspan><tspan class="cls-14" x="67.13" y="38.95">oss ou</tspan><tspan class="cls-48" x="173.71" y="38.95">r</tspan><tspan class="cls-14" x="186.59" y="38.95" xml:space="preserve"> mo</tspan><tspan class="cls-20" x="245.49" y="38.95">s</tspan><tspan class="cls-14" x="264.18" y="38.95">t popula</tspan><tspan class="cls-49" x="397.47" y="38.95">r</tspan><tspan class="cls-14" x="410.34" y="38.95" xml:space="preserve"> models</tspan></text>
  </g>
</svg>