<?xml version="1.0" encoding="UTF-8"?>
<svg id="Layer_2" data-name="Layer 2" xmlns="http://www.w3.org/2000/svg" xmlns:xlink="http://www.w3.org/1999/xlink" viewBox="0 0 628.04 465.97">
  <defs>
    <style>
      .cls-1 {
        font-size: 197px;
      }

      .cls-1, .cls-2 {
        font-family: Futura-Bold, Futura;
      }

      .cls-1, .cls-2, .cls-3 {
        font-weight: 700;
      }

      .cls-1, .cls-3 {
        fill: #fff;
      }

      .cls-4 {
        letter-spacing: -.04em;
      }

      .cls-5 {
        letter-spacing: -.04em;
      }

      .cls-6 {
        letter-spacing: -.04em;
      }

      .cls-7 {
        letter-spacing: -.03em;
      }

      .cls-8 {
        letter-spacing: -.03em;
      }

      .cls-9 {
        letter-spacing: -.09em;
      }

      .cls-10 {
        letter-spacing: -.05em;
      }

      .cls-11 {
        letter-spacing: -.05em;
      }

      .cls-12 {
        letter-spacing: -.03em;
      }

      .cls-13 {
        letter-spacing: -.02em;
      }

      .cls-14 {
        filter: url(#drop-shadow-1);
      }

      .cls-15 {
        fill: #d71240;
        stroke-width: 0px;
      }

      .cls-16 {
        letter-spacing: -.05em;
      }

      .cls-17 {
        letter-spacing: -.03em;
      }

      .cls-18 {
        letter-spacing: -.03em;
      }

      .cls-19 {
        letter-spacing: 0em;
      }

      .cls-2 {
        fill: none;
        font-size: 87.56px;
        stroke: #fff;
        stroke-miterlimit: 10;
        stroke-width: 1.64px;
      }

      .cls-20 {
        letter-spacing: -.03em;
      }

      .cls-21 {
        letter-spacing: -.03em;
      }

      .cls-3 {
        font-family: TWKEverett-Extrabold, 'TWK Everett';
        font-size: 36px;
      }

      .cls-22 {
        letter-spacing: -.05em;
      }

      .cls-23 {
        letter-spacing: -.05em;
      }
    </style>
    <filter id="drop-shadow-1" filterUnits="userSpaceOnUse">
      <feOffset dx="0" dy="4.19"/>
      <feGaussianBlur result="blur" stdDeviation="5.99"/>
      <feFlood flood-color="#000" flood-opacity=".75"/>
      <feComposite in2="blur" operator="in"/>
      <feComposite in="SourceGraphic"/>
    </filter>
  </defs>
  <g id="Layer_3" data-name="Layer 3">
    <g class="cls-14">
      <path class="cls-15" d="M289.39,30.26h-9.84c-.16,0-.28-.14-.23-.33l8.25-16.15c.1-.25.4-.34.49,0l1.75,16.04c.04.3-.11.44-.42.44M307.21,44.84l-4.56-36c-.26-1.96-.51-3.36-4.24-3.36h-19.17c-2.4,0-3.58.12-4.44,1.65l-20.98,38.23c-.9,1.52-.17,2.83,1.33,2.83h12.38c1.64-.02,2.48-.38,3.36-1.82,1.2-2.19,2.34-4.44,3.26-6.42.12-.15.26-.24.46-.24h15.88c.19,0,.42.17.44.34l.6,5.56c.22,2.04,1.24,2.57,2.87,2.57h10.21c2.19,0,2.96-1.04,2.6-3.36"/>
      <path class="cls-15" d="M464.56,30.24h-9.84c-.17,0-.27-.13-.24-.33l8.25-16.14c.11-.26.44-.36.5,0l1.76,16.03c.05.29-.11.44-.43.44M482.39,44.84l-4.58-36.01c-.25-1.97-.49-3.35-4.22-3.35h-19.17c-2.39,0-3.6.12-4.46,1.63l-20.97,38.22c-.89,1.55-.18,2.86,1.34,2.86h12.37c1.64-.04,2.49-.4,3.36-1.82,1.2-2.2,2.34-4.44,3.27-6.42.11-.15.24-.24.46-.26h15.87c.19,0,.42.19.42.37l.61,5.56c.23,2.03,1.24,2.57,2.88,2.57h10.23c2.16,0,2.94-1.05,2.59-3.36"/>
      <path class="cls-15" d="M410.1,45.34l3.29-18.02c.21-.97-.26-1.01-.59-.49l-14.99,19.57c-.76,1.01-1.93,1.81-2.89,1.81h-3.63c-.99,0-1.8-.7-2.1-1.49l-7.24-19.83c-.31-.81-.56-.54-.68.18l-3.5,19.07c-.21,1.18-1,2.07-2.21,2.07h-10.89c-1.6,0-2.32-.81-2-2.43l7.33-37.28c.48-2.37,1.74-3.04,3.54-3.04h11.93c2.2,0,3.71.47,4.3,2.04l6.33,17.13c.36.82.42.82.94.07l13.54-17.26c1.15-1.49,2.11-2.01,4.14-2.01h15.01c2.6,0,2.96,1.36,2.61,3.2l-7.26,37.71c-.25,1.2-1.14,1.98-2.45,1.98h-10.35c-2.22,0-2.44-1.49-2.18-2.99"/>
      <path class="cls-15" d="M343.32,24.26l2.92-15.81c.43-2.38,1.63-2.85,3.52-2.85h9.38c1.76,0,3.02.64,2.53,3.06l-7.22,36.5c-.47,2.37-1.68,3.04-3.16,3.04h-7.52c-1.34,0-2.44-.44-3.06-1.47l-10.16-17.26c-.23-.41-.43-.28-.48.02l-2.8,15.34c-.36,1.99-.91,3.48-3.07,3.48h-10.75c-1.77,0-2.41-.95-2.06-2.73l7.01-37.06c.45-2.5,1.81-2.92,3.05-2.92h7.77c1.92,0,2.85.76,4.08,2.85l9.41,15.83c.17.28.53.43.61-.03"/>
      <path class="cls-15" d="M519.15,16.58c-.06.88-.59,3.61-1,5.3-.45,1.96-1.23,2.44-4.03,2.44h-7.64c-.49,0-.59-.16-.51-.55l1.74-9.11c.04-.12.13-.22.34-.22,1.99-.05,8.67-.1,9.35,0,1.46.15,1.83.79,1.74,2.14M527.51,5.43l-29.88.06c-3.38,0-4.17.61-4.59,2.77l-7.29,37.38c-.33,1.69-.03,2.45,2.03,2.58,1.07.07,10.13.01,11.09,0,1.68,0,2.51-.8,2.81-2.13.95-4.11,2.16-10.59,2.42-12.03.13-.7.19-.76,1.35-.76h8.32c1.38,0,1.93.66,1.63,2.57l-1.63,10.03c-.21,1.33.32,2.31,1.89,2.31,2.14.01,9.56.09,10.91,0,2.08,0,2.92-.48,3.4-3.2l1.69-9.35c.54-2.93.59-7.03-4.11-8.59-.23-.07-.2-.28-.03-.31,3.8-1.04,5.36-3.32,6.28-6.14.59-1.79,1.08-4.97,1.45-7.34.9-5.43-2.42-7.84-7.74-7.84"/>
      <path class="cls-15" d="M238.31,19.97l10.94-13.41c.59-.71.93-1.17,2.12-1.17h14.85c2.08,0,1.74,1.37,1.22,2.01l-21.88,26.28c-.16.21-.31.82-.35,1.08l-2.58,11.91c-.26,1.32-1.38,1.83-2.81,1.83h-11.15c-2.3,0-2.45-1.3-2.17-2.81l2.1-10.52c.09-.4.11-.59-.05-.92l-14.16-27.13c-.4-.93.24-1.73,1.46-1.73h12.47c1.2,0,2.18.43,2.6,1.31l6.47,13.28c.27.59.58.39.92-.02"/>
      <polygon class="cls-15" points="141.81 53.88 192.73 32.79 192.73 19.96 141.81 41.06 141.81 53.88"/>
      <polygon class="cls-15" points="138.85 22.32 84.97 0 84.97 12.82 138.85 35.14 192.73 12.82 192.73 0 138.85 22.32"/>
      <polygon class="cls-15" points="84.97 32.79 135.89 53.88 135.89 41.06 84.97 19.97 84.97 32.79"/>
    </g>
    <text class="cls-2" transform="translate(5.67 147.64)"><tspan class="cls-9" x="0" y="0">Y</tspan><tspan class="cls-4" x="55.07" y="0">OU </tspan><tspan class="cls-19" x="226.68" y="0">C</tspan><tspan class="cls-4" x="284.38" y="0">HOOSE</tspan></text>
    <text class="cls-1" transform="translate(0 326.52)"><tspan class="cls-6" x="0" y="0">DEA</tspan><tspan class="cls-17" x="401.49" y="0">L</tspan><tspan class="cls-5" x="500.78" y="0">S</tspan></text>
    <text class="cls-3" transform="translate(12.19 412.86)"><tspan class="cls-13" x="0" y="0">Limi</tspan><tspan class="cls-21" x="74.16" y="0">t</tspan><tspan class="cls-12" x="88.56" y="0">ed</tspan><tspan class="cls-16" x="133.63" y="0"> </tspan><tspan class="cls-18" x="139.71" y="0">T</tspan><tspan class="cls-13" x="163.01" y="0">ime! </tspan><tspan class="cls-23" x="246.49" y="0"> </tspan><tspan class="cls-8" x="252.57" y="0">T</tspan><tspan class="cls-12" x="275.79" y="0">he BIGGE</tspan><tspan class="cls-11" x="446.68" y="0">S</tspan><tspan class="cls-22" x="471.13" y="0">T</tspan><tspan class="cls-13" x="493.59" y="0" xml:space="preserve"> deals</tspan><tspan class="cls-13" x="14.51" y="41.59">ac</tspan><tspan class="cls-20" x="58.07" y="41.59">r</tspan><tspan class="cls-13" x="72.76" y="41.59">oss ou</tspan><tspan class="cls-10" x="188.1" y="41.59">r</tspan><tspan class="cls-13" x="202.17" y="41.59" xml:space="preserve"> mo</tspan><tspan class="cls-7" x="265.75" y="41.59">s</tspan><tspan class="cls-13" x="285.94" y="41.59">t popula</tspan><tspan class="cls-11" x="430.45" y="41.59">r</tspan><tspan class="cls-13" x="444.52" y="41.59" xml:space="preserve"> models</tspan></text>
  </g>
</svg>