<?xml version="1.0" encoding="UTF-8"?>
<svg id="Layer_2" data-name="Layer 2" xmlns="http://www.w3.org/2000/svg" viewBox="0 0 200 168">
  <defs>
    <style>
      .cls-1 {
        fill: #fff;
      }

      .cls-2 {
        fill: #57a47b;
      }
    </style>
  </defs>
  <g id="Layer_1-2" data-name="Layer 1">
    <g>
      <polygon class="cls-2" points="0 83.99 50 168 150 168 200 83.99 150 0 50 0 0 83.99"/>
      <path class="cls-1" d="M50.39,60.82c-.11-.02-.51-.22-.64-.3-1.8-1.05-1.25-3.85.84-4.1h28.03c.52.03,1.04.16,1.45.5,2.92,2.89,5.65,6.02,8.67,8.77,6.49-.15,13.01-.1,19.51-.18,15.74-.19,31.51-.49,47.26-.76.58,0,1.06.12,1.54.43,1.54,1.88,4.42,3.84,5.67,5.86.9,1.45.05,2.51-.68,3.8-.56,1-1.19,2.35-2.34,2.72l-14.16,2.96-8.17,11.1.03.21c5.96,5.26,7.74,14.05,4.04,21.19-8.54,16.47-33.67,10.23-33.16-9.05,0-.15.19-.7-.04-.7h-23.45c-.09.06-.12.13-.14.23-.12.65.04,1.72,0,2.44-.64,11.28-11.77,19.26-22.68,15.82-8.94-2.82-14.11-12.08-11.75-21.2l-6.31-3.58c-.38-.32-.63-1.05-.63-1.53,0-3.74.2-7.59.29-11.34.05-1.96-.02-3.95.09-5.91.04-.63.06-1.41.43-1.92s.95-.68,1.52-.92c2.43-1.02,5.05-1.8,7.51-2.76l2.83-11.79h-5.58ZM139.06,81.92l-52.75,10.88c-.94-.11-1.52-.51-1.93-1.36l-11.2-30.52-12.48-.09-.19.09-3.56,14.62-.7.61-8.52,3.2-.47,15.44,4.24,2.21c.57-.77,1-1.67,1.58-2.45,7.47-10.2,23.28-9.12,29.45,1.84.47.84.79,1.75,1.26,2.58h25.4c.12.01.16-.06.22-.14.22-.28.57-1.37.8-1.82,3.77-7.29,11.81-10.9,19.84-9.05,1.25.29,2.41.79,3.59,1.26l5.41-7.3ZM87.86,88l69.49-14.38c.5-.1.68-.61.81-1.04l-3.2-3.33c-.54-.31-1-.09-1.5-.09-8.81.05-17.64.35-26.45.47-11.64.16-23.26.05-34.89.27-1.92.04-4.53.73-6.09-.56-1.41-1.16-3.02-3.19-4.36-4.55-1.2-1.22-2.42-2.43-3.66-3.61l9.85,26.8ZM65.7,91.88c-7.13.63-12.49,7.71-11.6,14.72,1.32,10.44,14.01,15.32,21.89,8.22,9.52-8.59,2.54-24.08-10.29-22.94ZM124.41,91.88c-8.69.71-14.11,10.39-10.69,18.32,4.07,9.42,17.03,10.78,22.92,2.35,6.53-9.36-.96-21.59-12.23-20.66Z"/>
    </g>
  </g>
</svg>