<?xml version="1.0" encoding="UTF-8"?>
<svg id="Layer_2" data-name="Layer 2" xmlns="http://www.w3.org/2000/svg" viewBox="0 0 200 168">
  <defs>
    <style>
      .cls-1 {
        fill: #fff;
      }

      .cls-2 {
        fill: #57a47b;
      }
    </style>
  </defs>
  <g id="Layer_1-2" data-name="Layer 1">
    <g>
      <polygon class="cls-2" points="0 83.99 50 168 150 168 200 83.99 150 0 50 0 0 83.99"/>
      <g>
        <g>
          <path class="cls-1" d="M95.07,38.83c.14-.68,1.66-.59,2.23-.52.41.05.65.31.63.74l-.03,15.36-.11.28c-.49.2-2.71.39-2.71-.37v-6.6l-.17-.17h-1.94l-.17.17v6.49c0,.09-.21.41-.27.52-.23.18-2.22.17-2.43-.04l-.11-.28-.03-15.24.15-.71c.62-.18,2.71-.46,2.71.49v5.47l.17.17h1.94l.17-.17v-5.58Z"/>
          <path class="cls-1" d="M67.49,38.12c2.44-.04,3.36.78,3.75,3.14.42,2.57.55,9.57-.3,11.93-.51,1.41-1.59,1.82-3.02,1.88-1.65.07-3.05-.27-3.65-1.94-.78-2.18-.77-10.8-.03-13,.53-1.59,1.66-1.97,3.25-2ZM68.16,41.31c-.62-.46-1.22-.03-1.4.64-.38,1.47-.28,6.34-.16,8.03.06.89.13,2.24,1.4,1.86.3-.09.48-.67.52-.95.32-1.98.3-6.74-.02-8.73-.03-.21-.19-.73-.35-.85Z"/>
          <path class="cls-1" d="M76.15,38.12c1.3-.02,2.55.18,3.21,1.39,1.05,1.94.91,8.92.68,11.27-.24,2.48-.63,4.16-3.47,4.28-1.66.07-3.05-.25-3.65-1.94-.78-2.19-.77-10.79-.03-13,.53-1.59,1.66-1.97,3.25-2ZM75.62,51.73c.24.24,1.05.22,1.28-.09.26-.34.37-1.73.4-2.22.12-2.02.15-5.19-.12-7.16-.1-.69-.67-1.44-1.4-.97-.36.23-.5,1.32-.53,1.75-.14,1.93-.13,5.01,0,6.95.02.33.18,1.54.37,1.73Z"/>
          <path class="cls-1" d="M84.8,38.12c1.13-.01,2.36.13,3.03,1.12,1.28,1.91.99,7.61.87,9.95-.14,2.76.13,5.72-3.47,5.87-1.9.08-3.23-.34-3.76-2.28-.63-2.29-.66-10.26.02-12.5.52-1.7,1.63-2.14,3.32-2.16ZM84.68,41.19c-.66.13-.72,1.19-.77,1.75-.12,1.61-.22,6.9.16,8.26.08.27.15.62.46.68.99.19,1.22-.32,1.31-1.2.25-2.3.29-6.02-.01-8.3-.08-.65-.36-1.35-1.16-1.19Z"/>
          <path class="cls-1" d="M58.91,38.32h3.19c.12,0,.45.56.4.74-.33,4.81.42,10.18,0,14.92-.12,1.39-1.63.74-2.63.79-.22-.11-.3-.67-.33-.93-.41-3.86.27-8.36,0-12.29.07-.64-.78-.2-.9-.58.03-.41-.21-2.66.27-2.66Z"/>
        </g>
        <path class="cls-1" d="M149.64,59.22l-11.48,5.45c-.61.26-1.04-.08-1.24-.25l-.07-.05c-1.24-.94-2.19-2.87-2.45-3.44-.62-1.35-1.26-3.11-.84-3.8l.07-.12,11.07-6.95c1.02-1.45,1.28-2.66.76-3.59-1.27-2.28-6.84-2.96-10.4-2.72-9.68.66-16.54,6.98-17.07,15.73-.03.55.02,1.19.07,1.81.06.72.12,1.46.05,2.1-.06.54-.3,1.09-.65,1.52l-41.4,41.5-.09.04c-.86.44-1.76.63-2.63.82-.61.13-1.25.27-1.86.49-4.97,1.81-8.32,6.32-8.73,11.77-.41,5.39,2.19,10.29,6.77,12.8,3.66,2,7.74,2.33,11.49.92,3.73-1.4,6.57-4.31,8-8.18.25-.68.38-1.38.51-2.06.19-1,.39-2.04.95-2.99l.09-.12,41.62-41.5.14-.04c.58-.19,1.44,0,2.27.19.39.09.75.17.99.19,5.9.47,11.64-3.05,15.33-9.41,1.33-2.29,3.23-6.74,1.92-8.87-.53-.86-1.62-1.27-3.23-1.2ZM85.12,123.2c-1.05,3.54-4.04,5.99-7.82,6.4-.37.04-.73.06-1.09.06-3.37,0-6.37-1.73-8-4.67-1.48-2.67-1.46-6.13.04-9.03,1.37-2.66,3.73-4.36,6.46-4.67,3.38-.38,6.64.88,8.73,3.36,1.98,2.36,2.59,5.47,1.69,8.54ZM147.49,66.64c-1.17,2.83-5.74,7.05-8.99,7.65-1.49.28-2.81.06-3.98-.14-1.91-.32-3.41-.57-5.4,1.07l-40.25,40.17-.38-.75c-1.5-2.96-3.78-5.31-6.44-6.62l-.26-.13-.2-.9,39.44-39.43c1.3-1.8,1.34-3.9,1.39-6.12.03-1.48.07-3.01.48-4.52,1.56-5.71,7.01-9.02,14.55-8.87l1.61.03-1.23,1.04c-1.04.89-2.33,1.6-3.58,2.28-1.35.74-2.74,1.51-3.74,2.47-3.24,3.1-.15,9.92,2.49,12.87,3.36,3.75,6.15,2.35,10.02.41l.72-.36c.27-.13.6-.33.96-.54.7-.41,1.43-.84,1.97-1,.29-.09.58-.01.77.2.24.26.25.65.04,1.16Z"/>
      </g>
    </g>
  </g>
</svg>