<?xml version="1.0" encoding="UTF-8"?>
<svg id="Layer_2" data-name="Layer 2" xmlns="http://www.w3.org/2000/svg" viewBox="0 0 200 168">
  <defs>
    <style>
      .cls-1 {
        fill: #fff;
      }

      .cls-2 {
        fill: #57a47b;
      }
    </style>
  </defs>
  <g id="Layer_1-2" data-name="Layer 1">
    <polygon class="cls-2" points="0 83.99 50 168 150 168 200 83.99 150 0 50 0 0 83.99"/>
    <g id="kcahT9">
      <g>
        <path class="cls-1" d="M121.8,109.56c-13.61,5.76-28.56,5.94-42.17.58-13.24-5.22-24.45-14.64-32.87-26.14,8.97-12.27,21.17-22.2,35.55-27.12,12.72-4.28,26.39-3.81,38.8,1.28,12.83,5.21,23.97,14.62,32.12,25.84-8.06,11.05-18.68,20.17-31.44,25.57ZM84.55,104.43c-6.31-4.89-10.1-12.31-10.13-20.32s3.59-15.28,9.98-20.49c-11.34,3.27-22.15,11.42-29.48,20.39,7.38,8.95,18.12,17.13,29.63,20.42ZM145.09,83.99c-7.56-9.13-18.16-17.08-29.5-20.37,6.47,5.28,10.09,12.62,9.99,20.75-.09,7.9-3.89,15.21-10.12,20.08,11.46-3.31,22.31-11.49,29.63-20.45ZM119.41,84c0-10.72-8.69-19.41-19.41-19.41s-19.41,8.69-19.41,19.41,8.69,19.41,19.41,19.41,19.41-8.69,19.41-19.41Z"/>
        <path class="cls-1" d="M90.1,80.12c2.05,1.91,4.94,2.2,7.08.61s2.85-4.63,1.34-7.27c6.69-.93,12.32,4.36,12.13,10.86-.19,6.46-6.13,11.32-12.56,10.14s-10.49-7.81-7.99-14.35Z"/>
      </g>
    </g>
  </g>
</svg>