<?xml version="1.0" encoding="UTF-8"?>
<svg id="Layer_2" data-name="Layer 2" xmlns="http://www.w3.org/2000/svg" viewBox="0 0 200 168">
  <defs>
    <style>
      .cls-1 {
        fill: #fff;
      }

      .cls-2 {
        fill: #57a47b;
      }
    </style>
  </defs>
  <g id="Layer_1-2" data-name="Layer 1">
    <polygon class="cls-2" points="0 83.99 50 168 150 168 200 83.99 150 0 50 0 0 83.99"/>
    <path class="cls-1" d="M66.66,137.48c-.77,0-1.55-.31-2.16-.91-1.11-1.11-1.2-2.81-.22-4.04l29.34-38.86-33.14.23c-1,.04-1.95-.58-2.34-1.56-.39-.98-.13-2.1.66-2.8l70.85-57.11c.98-.83,2.38-.82,3.35.04.98.87,1.16,2.29.42,3.37l-28.19,42.65,34.4-.12h.01c.98,0,1.86.62,2.19,1.55.33.93.03,1.97-.74,2.59l-72.59,54.32c-.54.43-1.18.64-1.83.64ZM67.46,134.95l-.02.03s.02-.02.02-.03ZM66.09,133.64s-.03.02-.04.03l.04-.03ZM101.7,89.61l-30.17,39.95,63.04-47.17-36.81.12,27.24-41.2-60.24,48.56,36.93-.26ZM60.45,89.9s-.04,0-.06,0h.11s-.03,0-.04,0ZM139.64,82.37h0,0ZM130.1,33.61s-.01.02-.02.03l.02-.03Z"/>
  </g>
</svg>