<?xml version="1.0" encoding="UTF-8"?>
<svg id="Layer_1" data-name="Layer 1" xmlns="http://www.w3.org/2000/svg" viewBox="0 0 180 180">
  <defs>
    <style>
      .cls-1 {
        fill: #57a47b;
      }
    </style>
  </defs>
  <path class="cls-1" d="M62.86,35.48c3.69-.23,7.68.01,11.29.79,9.39,2.03,17.78,8.32,21.38,17.34l4.56-.48c6.68-.17,13.38,1.56,18.45,6.02,1.5,1.32,5.87,6.09,6.08,7.93.24,2.08-1.08,3.72-3.24,3.5-1.89-.19-2.66-2.28-3.66-3.61-4.65-6.19-11.5-8.69-19.19-7.87-2.24.24-5.72,1.86-7.25-.45-.85-1.29-1.36-3.42-2.2-4.94-5.83-10.55-19.57-14.63-30.85-11.5-9.57,2.65-17.98,14.36-19.25,23.96-.18,1.38,0,2.81-.16,4.07-.34,2.48-3.32,2.27-5.14,2.65-11.65,2.45-19.72,15.5-17.14,27.05,1.44,6.45,6.64,14.02,13.14,16.06l57.46.03c3.78.65,3.44,5.81-.39,5.95H29.77c-9.96-1.51-17.87-13.04-19.32-22.44-2.21-14.35,8-29.91,22.5-32.53,2.22-15.51,13.25-30.49,29.91-31.54Z"/>
  <path class="cls-1" d="M160.39,71.42c1.21,1.3.93,3.86-.74,4.65-1.16.55-2.3.23-3.51.32-30.33,2.14-52.11,26.49-53.73,56.35-.14,2.6.76,7.26-3.6,6.51-1.81-.31-2.25-1.74-2.35-3.33-.38-5.86,1.31-14.86,3.01-20.52,7.25-24.06,30.21-43.67,55.75-44.82,1.43-.06,4.15-.26,5.17.84Z"/>
  <path class="cls-1" d="M156.97,88.06c1.83-.06,4.31-.1,4.64,2.28.61,4.39-4,3.49-6.79,3.76-17.83,1.71-31.64,17.21-34.52,34.33-.45,2.69-.32,5.04-.57,7.62-.36,3.61-4.91,3.69-5.78.76-.61-2.08.26-7.52.67-9.83,3.64-20.6,20.8-38.25,42.36-38.91Z"/>
  <path class="cls-1" d="M159.62,124.93c7.62-.25,12.64,7.85,9.04,14.58-3.74,6.99-14.24,6.74-17.58-.44-2.99-6.42,1.42-13.91,8.55-14.15ZM159.08,130.86c-4.43.7-4.08,8.64,1.65,7.86,4.71-.64,4.13-8.77-1.65-7.86Z"/>
  <path class="cls-1" d="M157.37,107.35c1.55-.1,3.23-.3,4.26,1.08,1.27,1.7.47,4.05-1.56,4.65-1.25.37-3.22.2-4.68.47-9.39,1.76-15.75,10.53-16.63,19.72-.11,1.11.13,2.07-.23,3.21-.84,2.69-4.74,2.6-5.55-.08-.53-1.75.17-5.79.58-7.67,2.47-11.32,11.97-20.66,23.81-21.39Z"/>
</svg>