<?xml version="1.0" encoding="UTF-8"?>
<svg id="Layer_2" data-name="Layer 2" xmlns="http://www.w3.org/2000/svg" viewBox="0 0 200 168">
  <defs>
    <style>
      .cls-1 {
        fill: #fff;
      }

      .cls-2 {
        fill: #57a47b;
      }
    </style>
  </defs>
  <g id="Layer_1-2" data-name="Layer 1">
    <g>
      <polygon class="cls-2" points="0 83.99 50 168 150 168 200 83.99 150 0 50 0 0 83.99"/>
      <g>
        <path class="cls-1" d="M115.55,76.33v-2.79c0-.48,1.14-.91,1.55-.96.67-.08,4.03.1,4.24-.03,1.73-5.16,9.29-6.06,12.3-1.61.35.52.55,1.09.89,1.61,1.41.22,4.14-.39,5.32.38.14.09.53.48.53.61v2.62c.1.16.23.16.39.18,1.64.19,3.66-.14,5.36,0,3.3.27,5.7,3.08,5.87,6.32v42.92c-.13,3.12-2.68,5.53-5.75,5.76h-36.79c-2.67-.32-5.06-2.33-5.42-5.07v-44.41c.16-2.47,3.03-5.52,5.53-5.52h5.98ZM122.79,75.99c-1.09.19-2.72-.14-3.87,0l-.17.17v5.24l.17.17h18.11l.17-.17v-5.24l-.17-.17h-3.99c-.17,0-.86-.4-1.02-.58-.45-.51-.48-1.47-.84-2.12-1.46-2.66-5.1-2.64-6.58-.04-.52.91-.51,2.5-1.82,2.74ZM115.55,79.74h-5.87c-1.02,0-2.6,1.94-2.45,3.01v42.7c.11,1.72,1.58,2.44,3.13,2.56h35.09c1.56-.03,3.16-.85,3.24-2.56v-42.93c.02-1.03-1.47-2.79-2.45-2.79h-5.87v4.04c0,.34-.94,1.16-1.36,1.15l-21.82.05c-.52.04-1.65-.7-1.65-1.2v-4.04Z"/>
        <path class="cls-1" d="M108.92,36.21c-8.03-4.42-17.38-4.07-25,.93-7.62,4.99-11.66,13.4-10.81,22.49.75,8.07,5.58,15.39,12.6,19.12.57.3,1.2.55,1.8.78.41.16.81.31,1.17.48-2.38.12-4.9.42-7.51.88-12.94,2.28-20.78,7.91-23.97,17.22-1.85,5.39-1.88,11.03-1.91,16.49v1.12c0,.36-.03.74-.06,1.13-.06,1.02-.14,2.17.16,3.14.27.87,1.05,1.42,2,1.42h.01c.93,0,1.69-.54,1.93-1.37.31-1.03.21-2.44.13-3.67-.03-.51-.07-.98-.07-1.4-.04-5.17.08-11.11,2.02-16.21,2.38-6.24,8.03-13.58,30.7-14.89h5.39s0-6.47,0-6.47h-.29s-.04,0-.06,0c-6.3,0-12.1-2.86-15.91-7.84-3.82-4.99-5.05-11.36-3.37-17.47,1.51-5.51,5.12-9.97,10.15-12.56,5.05-2.59,10.8-2.93,16.2-.93,9.06,3.34,14.55,13.06,12.78,22.61l-.06.34h4.13l.04-.24c1.73-10.05-3.17-20.14-12.2-25.11Z"/>
        <path class="cls-1" d="M114.04,117.35l28.22-.03c2.82.35,2.77,3.24-.11,3.53h-27.79c-2.76-.25-3.07-2.96-.31-3.5Z"/>
        <path class="cls-1" d="M114.27,104.71l27.76-.03c2.86.26,3.2,2.96.34,3.53h-28.25c-2.73-.45-2.66-3.16.15-3.5Z"/>
        <path class="cls-1" d="M113.81,92.18l28.68-.03c2.43.42,2.44,2.98,0,3.42h-28.48c-2.38-.36-2.59-2.81-.2-3.39Z"/>
      </g>
    </g>
  </g>
</svg>