<?xml version="1.0" encoding="UTF-8"?>
<svg id="Layer_2" data-name="Layer 2" xmlns="http://www.w3.org/2000/svg" viewBox="0 0 200 168">
  <defs>
    <style>
      .cls-1 {
        fill: #fff;
      }

      .cls-2 {
        fill: #57a47b;
      }
    </style>
  </defs>
  <g id="Layer_1-2" data-name="Layer 1">
    <g>
      <polygon class="cls-2" points="0 83.99 50 168 150 168 200 83.99 150 0 50 0 0 83.99"/>
      <g>
        <path class="cls-1" d="M111.4,45.44v36.78c1.17-.26,2.35-.64,3.53-.86,1-.18,2.34-.33,2.68.97.85,3.25-4.49,2.45-6.2,3.61v24.16s22.2,13.23,22.2,13.23v-40.93c0-.11.46-.66.6-.77.94-.74,2.19-.4,2.73.63l.04,44.83c-.43,1.07-1.34,1.37-2.42,1.05l-24.95-15.04-27.29,12.64c-.6.26-1.15.26-1.75,0-8.12-3.73-16.79-6.68-24.86-10.44-.86-.4-1.61-.58-1.72-1.7l.06-69.63c.33-.87,1.21-1.32,2.11-1.08l25.23,10.86,27.73-13.14c.59-.12,1.02-.07,1.56.16,1.35.57,4.28,2.53,5.56,3.43,1.02.71,1.4,1.98.34,2.85-1.61,1.33-3.68-1.16-5.18-1.6ZM107.87,45.1l-24.72,11.73v40.76c1.48-.38,3.59-2.87,5.13-1.54.73.63.8,1.84.17,2.57l-5.3,3.13v19.64l24.72-11.56v-22.37c-1.26.48-2.13,1.72-3.63,1.29-.96-.28-1.26-1.44-.99-2.32.3-.97,3.79-2.35,4.62-3.12v-38.2ZM79.74,94.86v-37.86l-22.33-9.73v14.29c.97,1.8,2.52,3.38,3.51,5.15.67,1.19,1.14,2.84-.6,3.34-1.64.47-2.05-1.09-2.91-2.05v44.18l22.33,9.17v-19.81c-.99-2.05-3.16-4.18-4.08-6.17-.96-2.06,1.52-3.75,3.11-1.74.08.1.78,1.47.98,1.24Z"/>
        <path class="cls-1" d="M130.17,41.83c9.91-.78,16.76,6.64,14.89,16.48-.91,4.77-5.16,11-7.87,15.13-1.99,3.03-4.99,7.46-8.76,3.66s-6.24-11.02-9.57-15.37c-3.74-8.89,1.29-19.11,11.32-19.9ZM131.08,45.25c-5.34.25-9.17,3.74-9.87,9.03-.41,3.04.15,4.68,1.56,7.29,2.3,4.26,5.33,8.51,7.82,12.68l.8.69c.87-.59,1.52-1.47,2.13-2.31,1.74-2.4,3.6-5.59,5.15-8.18,2.22-3.72,4.1-7.76,2.88-12.2s-5.83-7.22-10.47-7Z"/>
        <path class="cls-1" d="M126.76,78.49c1.74-.17,2.56,2.18,1.2,3.14-.28.2-.71.33-1.04.44-1.09.35-4.13,1.09-5.21,1.17-1.95.15-2.65-2.47-1-3.28.75-.37,5.14-1.38,6.05-1.48Z"/>
        <path class="cls-1" d="M100.77,88.98c.97.97.38,2.23-.58,2.92-.92.66-4.64,2.84-5.62,3.15-1.62.52-2.92-1.19-2.01-2.58.44-.67,3.12-2.18,3.96-2.64,1.16-.64,3.06-2.04,4.25-.85Z"/>
        <path class="cls-1" d="M62.39,71.43c.32-.07.86-.05,1.18.03,1.42.37,3.36,4.98,4.48,6.11.88,1.79-1.19,3.24-2.72,2.15-1.03-1.86-2.88-3.8-3.79-5.66-.45-.92-.27-2.38.86-2.63Z"/>
        <path class="cls-1" d="M70.03,82.36c.55-.08,1.09.15,1.51.49.88,1.68,2.5,3.21,3.32,4.88,1.02,2.07-.66,3.68-2.59,2.47-.85-1.66-2.81-3.62-3.52-5.25-.48-1.1.02-2.4,1.27-2.58Z"/>
        <path class="cls-1" d="M131.08,49.46c7.82-.63,8.64,11.21.88,11.69-7.69.47-8.4-11.08-.88-11.69ZM129.9,53.57c-2.01,2.01.84,5.61,3.27,3.55,2.45-2.08-1.04-5.78-3.27-3.55Z"/>
      </g>
    </g>
  </g>
</svg>