<?xml version="1.0" encoding="UTF-8"?>
<svg id="Layer_2" data-name="Layer 2" xmlns="http://www.w3.org/2000/svg" viewBox="0 0 200 168">
  <defs>
    <style>
      .cls-1 {
        fill: #fff;
      }

      .cls-2 {
        fill: #57a47b;
      }
    </style>
  </defs>
  <g id="Layer_1-2" data-name="Layer 1">
    <polygon class="cls-2" points="0 83.99 50 168 150 168 200 83.99 150 0 50 0 0 83.99"/>
    <g id="PZAPov">
      <path class="cls-1" d="M92.37,142.97c-7.59-2.24-13.68-6.8-17.98-13.35-7.04-10.7-13.54-21.67-19.82-32.84-3.18-5.67-4.61-11.99.96-16.58s11.64-1.27,15.74,3.58l4.37,5.17.02-43.77c0-3.68,2.13-6.83,4.99-8.5,3.23-1.89,6.95-1.81,10.22,0,.05-.43.11-.98.09-1.46-.26-5.75,4.2-10.45,9.78-10.62s10.27,4.32,10.38,10.04l.06,3.28c3.62-2,7.65-1.86,10.95.38s4.77,5.92,4.31,10.05c3.39-1.83,7.05-1.95,10.33-.04,2.75,1.61,4.99,4.72,4.99,8.35l-.02,49.39c0,9.62-3.32,20.48-9.37,28.02-5.02,6.26-12.15,10.24-20.24,10.91-6.67.56-13.26-.09-19.77-2.01ZM111.49,140.15c6.25-.47,11.83-3.27,16-7.87,6.39-7.06,9.4-17.91,9.4-27.32v-47.86c0-3.02-2.34-5.27-5.23-5.27-2.61,0-5.13,2.14-5.14,5.04l-.02,24.26c0,1.51-1.18,2.55-2.57,2.47-1.23-.07-2.31-1.02-2.31-2.49l-.02-34.4c0-3.02-2.31-5.29-5.2-5.3-2.66-.01-5.18,2.14-5.18,5.08v33.3c-.01,1.47-1.02,2.5-2.35,2.57-1.22.06-2.53-.85-2.53-2.34l-.11-45.43c0-3.04-2.63-5.22-5.44-5.08s-4.93,2.35-4.94,5.3l-.04,44.98c0,1.5-1.29,2.44-2.54,2.39-1.36-.05-2.35-1.1-2.35-2.6l-.02-34.41c0-2.97-2.7-5.07-5.32-4.97-2.96.12-5.04,2.41-5.04,5.43v50.05c0,1.25-.63,2.15-1.63,2.5-.9.32-2.07.06-2.75-.76l-9.08-11.01c-1.03-1.25-2.38-2.28-3.74-3.01-1.67-.91-3.29-.55-4.66.55-1.58,1.26-2.42,3.05-1.95,5.15.43,1.93,1.19,3.73,2.21,5.53,6.08,10.79,12.36,21.34,19.12,31.73,1.86,2.86,3.98,5.3,6.62,7.35,7.15,5.56,18.03,7.09,26.8,6.44Z"/>
    </g>
  </g>
</svg>