<?xml version="1.0" encoding="UTF-8"?>
<svg id="Layer_1" data-name="Layer 1" xmlns="http://www.w3.org/2000/svg" viewBox="0 0 180 180">
  <defs>
    <style>
      .cls-1 {
        fill: #57a47b;
      }
    </style>
  </defs>
  <path class="cls-1" d="M138.75,144.63l-37.83-7.4-25.87,9.03-28.24-19.07-8.47,5.53c-1.2.78-1.53,2.38-.75,3.58.78,1.2,2.38,1.53,3.58.75l5.6-3.65,27.54,18.6,27-9.42,36.46,7.13c1.4.28,2.76-.64,3.03-2.04.27-1.4-.64-2.76-2.04-3.03Z"/>
  <path class="cls-1" d="M43.91,92.47c.03.12.06.25.09.37-1.09.75-1.62,2.14-1.21,3.46.96,3.13,2.25,6.18,3.82,9.06.67,1.23,2.04,1.81,3.34,1.55.06.1.13.2.2.3-.79,1.06-.85,2.56-.03,3.68,1.93,2.64,4.13,5.11,6.55,7.33,1.03.94,2.51,1.06,3.66.39.09.08.19.15.29.23-.41,1.26.02,2.69,1.16,3.5,2.69,1.88,5.57,3.51,8.57,4.82,1.27.56,2.71.19,3.57-.81.12.04.25.08.37.12.03,1.32.9,2.53,2.24,2.91,3.14.9,6.4,1.49,9.67,1.76,1.38.11,2.62-.71,3.12-1.93.13,0,.25,0,.38,0,.44,1.19,1.58,2.02,2.9,2.02.05,0,.11,0,.16,0,3.28-.16,6.55-.65,9.72-1.45,1.35-.34,2.26-1.52,2.33-2.84.12-.04.24-.08.36-.12.83,1.02,2.26,1.44,3.56.93,3.04-1.22,5.97-2.75,8.72-4.55,1.16-.76,1.64-2.17,1.28-3.44.1-.07.19-.15.29-.23,1.12.7,2.61.64,3.67-.27,2.48-2.14,4.76-4.54,6.77-7.12.86-1.1.85-2.59.09-3.68.07-.1.14-.2.21-.31,1.29.3,2.67-.25,3.38-1.45,1.66-2.83,3.04-5.84,4.1-8.94.45-1.32-.04-2.72-1.11-3.5.03-.12.07-.25.11-.37,1.31-.14,2.44-1.11,2.71-2.47.64-3.2.96-6.49.96-9.83v-.14c0-1.39-.92-2.56-2.18-2.95,0-.13-.02-.25-.03-.38,1.19-.56,1.95-1.84,1.76-3.22-.44-3.25-1.21-6.47-2.29-9.56-.46-1.31-1.71-2.11-3.03-2.07-.05-.12-.1-.23-.15-.35.95-.92,1.24-2.38.61-3.62-1.47-2.92-3.25-5.71-5.28-8.29-.86-1.1-2.31-1.45-3.55-.97-.08-.09-.16-.19-.24-.28.6-1.18.41-2.66-.59-3.63-2.34-2.29-4.93-4.36-7.67-6.14-1.17-.76-2.65-.62-3.67.22-.11-.06-.21-.13-.32-.19.19-1.31-.47-2.65-1.73-3.24-2.96-1.41-6.08-2.52-9.26-3.32-1.35-.34-2.71.27-3.39,1.4-.12-.02-.25-.04-.37-.07-.25-1.3-1.31-2.34-2.69-2.49-3.23-.36-6.58-.41-9.82-.13-1.38.12-2.47,1.13-2.76,2.41-.13.02-.26.04-.38.06-.66-1.14-1.99-1.78-3.35-1.48-3.2.71-6.35,1.74-9.34,3.06-1.28.56-1.97,1.88-1.82,3.2-.11.06-.22.11-.32.17-.99-.87-2.48-1.05-3.66-.32-2.79,1.71-5.43,3.7-7.84,5.93-1.03.95-1.26,2.43-.68,3.62-.08.09-.17.17-.25.26-1.23-.51-2.69-.2-3.58.88-2.1,2.53-3.95,5.27-5.5,8.15-.66,1.23-.4,2.7.52,3.64-.05.11-.1.23-.15.34-1.32-.08-2.6.69-3.09,1.99-1.16,3.07-2.02,6.26-2.55,9.5-.22,1.37.49,2.66,1.66,3.26-.01.13-.02.26-.03.39-1.27.36-2.22,1.5-2.26,2.88-.02.51-.02,1.03-.02,1.54,0,2.77.23,5.55.68,8.26.23,1.37,1.33,2.37,2.64,2.55ZM47.7,72.8c.12-.56.25-1.12.39-1.67.03-.13.06-.26.09-.39.16-.62.34-1.24.53-1.85.02-.05.03-.11.05-.16,4.03-12.88,13.9-23.21,26.51-27.85.06-.02.12-.04.18-.06.59-.21,1.19-.42,1.79-.61.12-.04.24-.07.36-.11.55-.17,1.1-.33,1.66-.47.16-.04.33-.08.49-.12,2.45-.61,4.99-1.01,7.59-1.18.33-.02.66-.05,1-.06.38-.02.75-.02,1.13-.03.36,0,.72-.01,1.09-.01.37,0,.74.02,1.11.03.36.01.72.02,1.07.04.41.02.81.06,1.22.09.31.03.61.05.92.08,2.12.23,4.2.6,6.21,1.12.01,0,.03,0,.04.01,14.49,3.75,26.06,14.8,30.55,28.98.03.09.06.19.09.28.17.54.32,1.1.47,1.65.04.16.09.32.13.49.13.5.24,1,.35,1.51.05.21.09.43.14.64.09.47.17.94.25,1.41.04.25.09.51.12.76.3,2.07.47,4.19.47,6.35,0,.74-.02,1.47-.06,2.19-.01.27-.04.53-.06.79-.03.47-.06.93-.11,1.39-.02.23-.06.47-.09.7-.06.5-.11,1-.19,1.49-.02.14-.05.27-.07.41-.44,2.71-1.13,5.35-2.05,7.87-.02.06-.05.12-.07.18-.23.63-.48,1.25-.73,1.86,0,0,0,.01,0,.02-4.4,10.37-12.71,18.69-23.08,23.1-.03.01-.06.02-.08.04-3.17,1.34-6.54,2.31-10.04,2.87-.08.01-.15.03-.23.04-.57.09-1.15.16-1.74.22-.15.02-.3.04-.44.06-.61.06-1.23.1-1.85.14-.11,0-.23.02-.34.03-.74.04-1.48.06-2.22.06-1.36,0-2.71-.07-4.04-.19-.31-.03-.63-.06-.94-.1-.42-.05-.83-.1-1.25-.16-.29-.04-.58-.09-.86-.13-.44-.07-.89-.15-1.32-.24-.24-.05-.48-.1-.72-.15-.49-.1-.97-.22-1.46-.34-.18-.05-.36-.09-.54-.14-16.43-4.36-29.07-18.14-31.77-35.18-.03-.19-.06-.39-.09-.59-.07-.47-.13-.93-.18-1.4-.03-.24-.05-.49-.08-.73-.04-.45-.07-.9-.1-1.35-.01-.24-.03-.48-.04-.71-.03-.67-.05-1.35-.05-2.04,0-2.84.28-5.61.8-8.29.04-.19.07-.38.11-.56Z"/>
  <path class="cls-1" d="M90.24,104.93c12.83,0,23.28-10.44,23.28-23.28s-10.44-23.28-23.28-23.28-23.28,10.44-23.28,23.28,10.44,23.28,23.28,23.28ZM90.24,63.55c9.98,0,18.1,8.12,18.1,18.1s-8.12,18.1-18.1,18.1-18.1-8.12-18.1-18.1,8.12-18.1,18.1-18.1Z"/>
</svg>