<?xml version="1.0" encoding="UTF-8"?>
<svg id="Layer_1" data-name="Layer 1" xmlns="http://www.w3.org/2000/svg" viewBox="0 0 180 180">
  <defs>
    <style>
      .cls-1 {
        fill: #57a47b;
      }
    </style>
  </defs>
  <path class="cls-1" d="M130.23,97.36h-3.65c-.27,0-.51-.19-.59-.46-.72-2.42-1.7-4.77-2.9-6.99-.14-.26-.1-.56.09-.75l2.58-2.58c1.15-1.15,1.78-2.67,1.78-4.29s-.63-3.14-1.78-4.29l-6.06-6.06c-2.37-2.36-6.21-2.36-8.57,0l-2.58,2.58c-.19.19-.49.23-.75.09-2.22-1.2-4.57-2.17-6.99-2.9-.28-.08-.46-.32-.46-.59v-3.65c0-3.34-2.72-6.06-6.06-6.06h-8.57c-3.34,0-6.06,2.72-6.06,6.06v3.65c0,.27-.19.51-.46.59-2.42.72-4.77,1.7-6.99,2.9-.26.14-.56.1-.75-.09l-2.58-2.58c-2.37-2.36-6.21-2.36-8.57,0l-6.06,6.06c-2.36,2.36-2.36,6.21,0,8.58l2.58,2.58c.19.19.23.49.09.75-1.2,2.22-2.17,4.57-2.9,6.99-.08.28-.32.46-.59.46h-3.65c-3.34,0-6.06,2.72-6.06,6.06v8.57c0,3.34,2.72,6.06,6.06,6.06h3.65c.27,0,.51.19.59.46.72,2.42,1.7,4.77,2.9,6.99.14.26.1.56-.09.75l-2.58,2.58c-2.36,2.36-2.36,6.21,0,8.58l6.06,6.06c2.36,2.37,6.21,2.36,8.58,0l2.58-2.58c.19-.19.49-.23.75-.09,2.22,1.2,4.57,2.17,6.99,2.9.28.08.46.32.46.59v3.65c0,3.34,2.72,6.06,6.06,6.06h8.57c3.34,0,6.06-2.72,6.06-6.06v-3.65c0-.27.19-.51.46-.59,2.42-.72,4.77-1.7,6.99-2.9.26-.14.56-.1.75.09l2.58,2.58c2.36,2.37,6.21,2.36,8.57,0l6.06-6.06c1.15-1.15,1.78-2.67,1.78-4.29s-.63-3.14-1.78-4.29l-2.58-2.58c-.19-.19-.23-.49-.09-.75,1.2-2.22,2.17-4.57,2.9-6.99.08-.28.32-.46.59-.46h3.65c3.34,0,6.06-2.72,6.06-6.06v-8.57c0-3.34-2.72-6.06-6.06-6.06ZM130.84,111.99c0,.34-.28.62-.62.62h-3.65c-2.69,0-5.03,1.75-5.81,4.34-.62,2.06-1.45,4.07-2.47,5.97-1.29,2.39-.87,5.28,1.03,7.18l2.58,2.58c.15.15.18.32.18.44s-.03.29-.18.44l-6.06,6.06c-.3.3-.57.3-.87,0l-2.58-2.58c-1.9-1.91-4.79-2.32-7.18-1.03-1.9,1.02-3.91,1.86-5.97,2.47-2.6.78-4.34,3.11-4.34,5.81v3.65c0,.34-.28.62-.62.62h-8.57c-.34,0-.62-.28-.62-.62v-3.65c0-2.69-1.75-5.03-4.34-5.81-2.06-.62-4.07-1.45-5.97-2.47-.93-.5-1.93-.74-2.92-.74-1.56,0-3.1.61-4.27,1.78l-2.58,2.58c-.3.3-.57.3-.87,0l-6.06-6.06c-.24-.24-.24-.63,0-.87l2.58-2.58c1.91-1.91,2.32-4.79,1.03-7.18-1.02-1.9-1.86-3.91-2.47-5.97-.78-2.6-3.11-4.34-5.81-4.34h-3.65c-.34,0-.62-.28-.62-.62v-8.57c0-.34.28-.62.62-.62h3.65c2.69,0,5.03-1.75,5.81-4.34.62-2.06,1.45-4.07,2.47-5.97,1.29-2.39.87-5.28-1.03-7.18l-2.58-2.58c-.24-.24-.24-.63,0-.87l6.06-6.06c.24-.24.63-.24.87,0l2.58,2.58c1.91,1.91,4.79,2.32,7.18,1.03,1.9-1.02,3.91-1.86,5.97-2.47,2.6-.78,4.34-3.11,4.34-5.81v-3.65c0-.34.28-.62.62-.62h8.57c.34,0,.62.28.62.62v3.65c0,2.69,1.75,5.03,4.34,5.81,2.06.62,4.07,1.45,5.97,2.47,2.39,1.29,5.28.87,7.18-1.03l2.58-2.58c.24-.24.63-.24.87,0l6.06,6.06c.15.15.18.32.18.44s-.03.29-.18.44l-2.58,2.58c-1.91,1.91-2.32,4.79-1.03,7.18,1.02,1.9,1.86,3.91,2.47,5.97.78,2.6,3.11,4.34,5.81,4.34h3.65c.34,0,.62.28.62.62v8.57Z"/>
  <path class="cls-1" d="M94.11,106.31l-2.24-.52v-14.21c3.73.52,5.96,2.87,6.19,6.53h5.56c-.4-6.65-4.81-10.89-11.75-11.52v-4.93h-3.67v4.99c-7.45.63-12.32,5.27-12.32,11.81,0,5.9,3.5,9.69,10.26,11.23l2.06.46v14.27c-4.36-.46-7.05-2.87-7.16-6.53h-5.73c.34,6.71,5.33,11,12.9,11.46v4.93h3.67v-4.99c7.57-.69,12.44-5.27,12.44-12.09,0-5.73-3.32-9.34-10.2-10.89ZM88.21,104.94l-.92-.23c-4.01-.97-5.9-3.1-5.9-6.42,0-3.67,2.58-6.13,6.82-6.71v13.35ZM91.88,124.31v-13.24l1.09.23c3.95.92,5.85,3.04,5.85,6.36,0,3.61-2.64,6.08-6.93,6.65Z"/>
  <path class="cls-1" d="M107.45,55.48c1.52,0,2.75-1.23,2.75-2.75v-25.98c0-1.52-1.23-2.75-2.75-2.75s-2.75,1.23-2.75,2.75v25.98c0,1.52,1.23,2.75,2.75,2.75Z"/>
  <path class="cls-1" d="M69.53,59.83c1.52,0,2.75-1.23,2.75-2.75v-22.39c0-1.52-1.23-2.75-2.75-2.75s-2.75,1.23-2.75,2.75v22.39c0,1.52,1.23,2.75,2.75,2.75Z"/>
</svg>