<?xml version="1.0" encoding="UTF-8"?>
<svg id="Layer_2" data-name="Layer 2" xmlns="http://www.w3.org/2000/svg" viewBox="0 0 200 168">
  <defs>
    <style>
      .cls-1 {
        fill: #fff;
      }

      .cls-2 {
        fill: #57a47b;
      }
    </style>
  </defs>
  <g id="Layer_1-2" data-name="Layer 1">
    <g>
      <polygon class="cls-2" points="0 83.99 50 168 150 168 200 83.99 150 0 50 0 0 83.99"/>
      <g>
        <path class="cls-1" d="M155.36,47c-.88-5.55-4.97-10.6-10.18-12.56-4.83-1.81-9.88-.81-14.24,2.82-2.76,2.3-3.36,4.27-4,6.36-.33,1.09-.68,2.22-1.37,3.44-.46.8-1.16,1.47-1.9,2.18-1.75,1.67-3.72,3.56-1.96,7.32l-7.33,7.22c-2.38-1.17-5.1-.6-7.03,1.46-.11-.11-.22-.23-.32-.34-1.65-1.73-3.53-3.68-6.44-1.74-1.47.98-7.34,6.95-8.53,8.48-.59.76-.9,1.46-1.17,2.07-.2.46-.39.9-.69,1.33-1.36,1.98-17.85,18.47-19.83,19.83-.43.3-.87.49-1.33.69-.62.27-1.31.57-2.08,1.17-1.24.97-7.67,7.23-8.49,8.54-1.73,2.76-.05,4.32.96,5.26.2.19.5.46.59.59-.94,1.3-2.12,2.6-3.36,3.98-2.99,3.3-6.07,6.71-6.56,10.79-.62,5.16,2.52,10.47,7.31,12.36,1.67.66,3.2.94,4.63.94,4.91,0,8.6-3.36,12.19-6.64,1.25-1.14,2.54-2.32,3.87-3.34.15.1.42.38.6.58.96,1.04,2.56,2.78,5.47.77,1.17-.81,8.16-7.79,8.9-8.9.38-.56.56-1.1.72-1.57.15-.43.28-.84.56-1.25,1.27-1.87,17.95-18.55,19.83-19.83.41-.28.82-.42,1.25-.56.47-.16,1-.34,1.57-.72,1.18-.8,8.21-7.87,9.06-9.12,1.95-2.87.27-4.48-1.35-6.04-.25-.23-.5-.47-.74-.73,1.04-.98,1.91-1.88,2.16-3.56.13-.86-.1-1.68-.3-2.41-.14-.51-.28-1.03-.23-1.22.27-.41,3.65-3.59,5.31-5.1.21-.19.41-.44.62-.7.41-.51.87-1.09,1.42-1.2.37-.08.85.02,1.4.12.98.18,2.2.41,3.54-.13.83-.34,1.62-1.25,2.45-2.21.63-.73,1.29-1.49,1.83-1.8.89-.5,1.79-.73,2.75-.99,1.46-.38,3.1-.81,4.92-2.27,4.38-3.49,6.34-8.25,5.53-13.4ZM75.45,127.08c-1.17.82-2.37,1.84-3.63,2.91-5.1,4.33-10.38,8.81-15.91,3.13-5.77-5.93.03-12.16,4.68-17.16.72-.77,1.41-1.51,2.03-2.22l12.82,13.34ZM90.22,119.38s-.07.07-.13.13c-.09.09-.19.18-.26.28-.69.9-7.32,7.53-7.85,7.87-.58.27-1.03-.18-1.81-1.28-.25-.36-.49-.69-.75-.93-5.89-5.52-11.78-11.35-18.01-17.82-.01-.09.03-.16.18-.38l.1-.14c.92-1.36,2.68-2.9,4.38-4.38,1.34-1.17,2.71-2.37,3.71-3.51l20.44,20.18ZM111.32,96.77l-19.25,19.25-18.87-18.87,19.25-19.25,18.87,18.87ZM94.49,74.69l8.42-8.73,20.36,20.36-8.48,8.41-20.3-20.03ZM124.5,59.19l.15.1c.96.64,2.02,1.87,3.05,3.05.85.98,1.73,1.99,2.6,2.74l-7.25,6.93-5.93-5.93c.99-1.35,6.2-6.59,6.92-7.05.18-.04.22-.02.46.15ZM131.01,60.69c-4.21-3.83-6.35-6.13-6.38-6.84-.03-.94,1.34-2.11,2.44-3.06.92-.78,1.71-1.46,2.01-2.14.37-.84.54-1.7.7-2.53.24-1.29.5-2.61,1.53-4.06,2.72-3.82,6.47-5.51,10.59-4.73,4.61.87,8.77,4.78,9.9,9.29,1.01,4.06-.5,7.95-4.26,10.97-1.69,1.35-2.97,1.62-4.32,1.89-.89.18-1.82.37-2.83.89-.79.41-1.49,1.21-2.24,2.07-.84.98-1.72,1.98-2.59,2.26-.62.08-2.41-1.84-3.09-2.57-.34-.36-.62-.67-.83-.86l-.64-.58ZM110.02,67.94c0-.06.02-.13.05-.19.27-.54,1.24-1.16,1.57-1.21.47-.07.72.1,1.21.46l.2.15c1.28.92,8.49,8.15,9.18,9.21.65,1,.21,2.02-.25,2.46-.15.15-.54.46-.83.27l-11.13-11.15Z"/>
        <path class="cls-1" d="M140.58,54.17c.49,0,.99-.06,1.49-.19,2.16-.57,3.67-2.25,3.94-4.39.25-1.96-.32-3.71-1.59-4.92-1.27-1.22-3.11-1.73-5.06-1.4-1.72.29-3.16,1.49-3.86,3.22-.75,1.85-.51,3.94.62,5.46,1.06,1.42,2.71,2.22,4.46,2.22ZM142.92,49.89c-.35.86-1.12,1.39-2.15,1.49-1.64.15-2.58-1.02-2.78-2.25-.19-1.17.3-2.59,1.82-2.94,1.09-.25,2.03.02,2.65.75.66.78.85,1.99.46,2.95Z"/>
        <path class="cls-1" d="M57.18,127.67c.21,2.23,1.76,4.5,4.76,4.57.04,0,.08,0,.12,0,1.91,0,3.47-.92,4.29-2.53.91-1.8.72-4.15-.47-5.7-1.15-1.5-2.99-2.07-5.19-1.62-2.7.56-3.71,3.13-3.51,5.28ZM63.74,125.74c.91,1.08.5,2.4-.38,3.14-.8.68-2.02.89-2.94-.18-.55-.64-.72-1.33-.48-2.01.28-.77,1.08-1.43,1.96-1.59.11-.02.25-.04.4-.04.43,0,.98.13,1.44.67Z"/>
      </g>
    </g>
  </g>
</svg>