<?xml version="1.0" encoding="UTF-8"?>
<svg id="Layer_1" data-name="Layer 1" xmlns="http://www.w3.org/2000/svg" viewBox="0 0 180 180">
  <defs>
    <style>
      .cls-1 {
        fill: #57a47b;
      }
    </style>
  </defs>
  <path class="cls-1" d="M105.39,38.85v48.29c1.54-.34,3.09-.84,4.64-1.12,1.32-.24,3.07-.44,3.52,1.27,1.12,4.26-5.9,3.21-8.14,4.73v31.73s29.15,17.37,29.15,17.37v-53.75c0-.14.6-.86.79-1.01,1.24-.97,2.88-.53,3.58.83l.05,58.87c-.57,1.4-1.76,1.8-3.18,1.37l-32.76-19.74-35.83,16.6c-.78.34-1.52.34-2.3,0-10.66-4.89-22.04-8.77-32.65-13.71-1.13-.53-2.12-.77-2.26-2.23l.08-91.44c.43-1.14,1.59-1.73,2.77-1.42l33.13,14.26,36.41-17.26c.77-.16,1.34-.09,2.05.21,1.78.74,5.62,3.32,7.31,4.51,1.33.94,1.83,2.6.45,3.74-2.12,1.75-4.84-1.52-6.81-2.1ZM100.75,38.41l-32.46,15.4v53.52c1.94-.5,4.71-3.77,6.74-2.02.96.83,1.05,2.42.22,3.37l-6.96,4.11v25.79l32.46-15.18v-29.38c-1.66.63-2.8,2.26-4.76,1.69-1.26-.36-1.66-1.89-1.31-3.05.39-1.28,4.98-3.08,6.07-4.1v-50.16ZM63.81,103.74v-49.71l-29.32-12.78v18.76c1.28,2.37,3.31,4.44,4.61,6.76.88,1.56,1.49,3.74-.79,4.39-2.16.62-2.69-1.43-3.82-2.7v58.01l29.32,12.04v-26.01c-1.3-2.69-4.15-5.49-5.36-8.1-1.26-2.71,1.99-4.92,4.08-2.28.1.13,1.02,1.93,1.28,1.63Z"/>
  <path class="cls-1" d="M130.04,34.11c13.01-1.02,22.01,8.72,19.55,21.64-1.19,6.27-6.78,14.45-10.34,19.87-2.61,3.98-6.55,9.8-11.51,4.8s-8.2-14.47-12.57-20.18c-4.91-11.67,1.7-25.09,14.86-26.13ZM131.24,38.6c-7.01.33-12.04,4.92-12.96,11.86-.53,3.99.2,6.15,2.05,9.58,3.02,5.59,7,11.17,10.27,16.65l1.05.9c1.15-.77,2-1.93,2.8-3.04,2.29-3.15,4.73-7.34,6.76-10.74,2.91-4.88,5.38-10.19,3.78-16.02-1.66-6.05-7.65-9.48-13.75-9.19Z"/>
  <path class="cls-1" d="M125.55,82.24c2.29-.23,3.36,2.86,1.58,4.13-.37.26-.93.44-1.36.58-1.43.46-5.42,1.43-6.84,1.54-2.56.19-3.48-3.24-1.32-4.31.98-.48,6.75-1.82,7.94-1.94Z"/>
  <path class="cls-1" d="M91.43,96.02c1.28,1.28.49,2.93-.77,3.84-1.21.87-6.1,3.73-7.37,4.14-2.12.68-3.83-1.56-2.64-3.39.57-.88,4.1-2.86,5.2-3.47,1.53-.84,4.02-2.68,5.58-1.12Z"/>
  <path class="cls-1" d="M41.03,72.97c.42-.09,1.13-.07,1.54.04,1.87.49,4.41,6.53,5.89,8.02,1.15,2.35-1.57,4.26-3.58,2.83-1.35-2.44-3.78-4.99-4.98-7.43-.59-1.21-.36-3.12,1.12-3.45Z"/>
  <path class="cls-1" d="M51.06,87.33c.72-.11,1.43.19,1.98.64,1.16,2.2,3.28,4.21,4.36,6.4,1.34,2.72-.86,4.84-3.39,3.24-1.12-2.18-3.69-4.75-4.62-6.89-.63-1.45.02-3.15,1.67-3.39Z"/>
  <path class="cls-1" d="M131.24,44.13c10.27-.83,11.34,14.72,1.15,15.35-10.09.62-11.03-14.55-1.15-15.35ZM129.68,49.52c-2.64,2.64,1.1,7.37,4.29,4.66,3.21-2.73-1.36-7.59-4.29-4.66Z"/>
</svg>