<?xml version="1.0" encoding="UTF-8"?>
<svg id="Layer_1" data-name="Layer 1" xmlns="http://www.w3.org/2000/svg" viewBox="0 0 180 180">
  <defs>
    <style>
      .cls-1 {
        fill: #57a47b;
      }
    </style>
  </defs>
  <path class="cls-1" d="M34.28,56.49c-.13-.02-.6-.26-.75-.35-2.1-1.23-1.46-4.5.98-4.79l32.76-.02c.61.06,1.22.21,1.7.6,3.41,3.38,6.6,7.03,10.14,10.24,7.58-.17,15.2-.12,22.79-.21,18.4-.23,36.82-.57,55.22-.89.67-.01,1.24.14,1.8.51,1.8,2.2,5.17,4.49,6.63,6.85,1.05,1.69.05,2.93-.79,4.45-.65,1.17-1.4,2.75-2.73,3.18l-16.54,3.46-9.55,12.97.03.25c6.97,6.15,9.04,16.42,4.72,24.76-9.98,19.24-39.34,11.95-38.74-10.58,0-.17.23-.82-.05-.82h-27.39c-.11.07-.14.15-.16.27-.14.75.05,2.01,0,2.85-.75,13.17-13.75,22.5-26.5,18.48-10.44-3.29-16.49-14.11-13.73-24.78l-7.38-4.19c-.45-.38-.74-1.22-.74-1.79,0-4.38.24-8.87.34-13.25.06-2.29-.02-4.62.11-6.9.04-.73.07-1.65.5-2.24s1.11-.8,1.77-1.08c2.84-1.19,5.9-2.1,8.77-3.23l3.31-13.78h-6.52ZM137.89,81.14l-61.63,12.71c-1.1-.13-1.77-.6-2.25-1.59l-13.09-35.66-14.58-.11-.22.11-4.16,17.09-.82.72-9.96,3.74-.55,18.04,4.96,2.58c.67-.9,1.17-1.95,1.84-2.87,8.72-11.92,27.2-10.66,34.41,2.15.55.98.93,2.04,1.48,3.02l29.68.02c.14,0,.19-.08.26-.18.26-.33.67-1.6.94-2.13,4.4-8.52,13.8-12.74,23.18-10.57,1.46.34,2.81.93,4.2,1.47l6.32-8.53ZM78.07,88.25l81.19-16.8c.59-.12.8-.71.95-1.21l-3.74-3.89c-.63-.36-1.17-.1-1.75-.1-10.3.05-20.61.41-30.9.55-13.6.18-27.18.06-40.77.32-2.24.04-5.29.86-7.12-.65-1.65-1.36-3.53-3.73-5.09-5.32-1.4-1.43-2.83-2.84-4.28-4.21l11.51,31.32ZM52.18,92.78c-8.33.74-14.59,9.01-13.55,17.2,1.55,12.2,16.38,17.9,25.58,9.6,11.12-10.03,2.97-28.13-12.02-26.81ZM120.77,92.78c-10.15.83-16.49,12.14-12.49,21.4,4.75,11.01,19.9,12.6,26.78,2.74,7.63-10.94-1.12-25.22-14.29-24.14Z"/>
</svg>