<?xml version="1.0" encoding="UTF-8"?>
<svg id="Layer_1" data-name="Layer 1" xmlns="http://www.w3.org/2000/svg" viewBox="0 0 180 180">
  <defs>
    <style>
      .cls-1 {
        fill: #57a47b;
      }
    </style>
  </defs>
  <path class="cls-1" d="M146.81,48.96c-.92-5.79-5.18-11.05-10.61-13.09-5.03-1.89-10.3-.85-14.84,2.94-2.88,2.4-3.51,4.45-4.17,6.63-.35,1.14-.71,2.32-1.43,3.59-.47.83-1.21,1.53-1.98,2.27-1.82,1.74-3.88,3.71-2.04,7.63l-7.64,7.52c-2.48-1.22-5.32-.62-7.32,1.53-.11-.12-.23-.24-.34-.35-1.72-1.8-3.68-3.84-6.71-1.81-1.53,1.02-7.65,7.25-8.89,8.84-.62.8-.94,1.52-1.22,2.16-.21.48-.41.94-.72,1.39-1.41,2.06-18.61,19.25-20.67,20.67-.45.31-.91.51-1.39.72-.64.28-1.37.6-2.16,1.22-1.29,1.01-7.99,7.54-8.85,8.9-1.8,2.88-.05,4.51,1,5.48.21.2.52.48.61.61-.98,1.35-2.21,2.71-3.51,4.15-3.11,3.44-6.33,6.99-6.84,11.25-.65,5.38,2.62,10.92,7.62,12.88,1.74.68,3.34.98,4.83.98,5.12,0,8.96-3.51,12.71-6.92,1.3-1.19,2.65-2.41,4.03-3.49.16.1.43.4.62.61,1,1.08,2.67,2.9,5.7.8,1.22-.84,8.5-8.12,9.28-9.27.4-.59.58-1.14.75-1.63.15-.45.29-.88.59-1.31,1.33-1.95,18.71-19.33,20.66-20.66.43-.29.85-.43,1.3-.59.49-.16,1.05-.35,1.64-.75,1.23-.83,8.56-8.2,9.44-9.5,2.04-2.99.28-4.67-1.41-6.29-.26-.24-.52-.49-.78-.76,1.08-1.02,1.99-1.96,2.25-3.71.13-.89-.1-1.75-.31-2.51-.15-.53-.3-1.07-.24-1.27.28-.43,3.8-3.74,5.53-5.32.22-.2.43-.46.65-.73.43-.53.91-1.13,1.49-1.25.38-.08.88.02,1.46.13,1.02.19,2.29.43,3.69-.14.86-.35,1.68-1.3,2.55-2.3.66-.77,1.35-1.56,1.91-1.87.93-.52,1.87-.77,2.87-1.03,1.52-.4,3.23-.85,5.13-2.36,4.56-3.64,6.61-8.6,5.76-13.96ZM63.52,132.42c-1.22.86-2.47,1.92-3.78,3.03-5.32,4.52-10.82,9.18-16.58,3.26-6.01-6.18.03-12.67,4.88-17.88.75-.81,1.47-1.58,2.11-2.31l13.37,13.9ZM78.92,124.4s-.07.07-.14.13c-.1.09-.19.18-.27.29-.72.94-7.63,7.85-8.19,8.21-.61.28-1.07-.19-1.89-1.34-.26-.37-.51-.72-.78-.97-6.14-5.75-12.28-11.83-18.77-18.57-.01-.09.03-.17.19-.4l.1-.15c.95-1.42,2.79-3.02,4.56-4.57,1.39-1.21,2.83-2.47,3.87-3.66l21.3,21.03ZM100.91,100.82l-20.06,20.06-19.67-19.67,20.06-20.06,19.67,19.67ZM83.36,77.82l8.77-9.1,21.22,21.22-8.84,8.77-21.15-20.88ZM114.64,61.66l.16.11c1,.67,2.11,1.95,3.18,3.18.89,1.02,1.8,2.07,2.71,2.85l-7.56,7.22-6.18-6.18c1.04-1.41,6.46-6.87,7.21-7.35.19-.04.23-.02.48.16ZM121.43,63.23c-4.39-3.99-6.62-6.39-6.65-7.13-.04-.98,1.4-2.2,2.55-3.19.95-.82,1.78-1.52,2.1-2.23.39-.87.56-1.77.72-2.64.25-1.34.52-2.72,1.59-4.24,2.83-3.99,6.75-5.74,11.03-4.93,4.8.91,9.15,4.98,10.32,9.68,1.06,4.23-.52,8.29-4.44,11.43-1.76,1.41-3.09,1.69-4.5,1.97-.93.19-1.9.39-2.95.93-.83.42-1.56,1.27-2.33,2.16-.88,1.02-1.79,2.07-2.7,2.36-.65.09-2.51-1.92-3.22-2.67-.35-.37-.65-.69-.87-.9l-.66-.61ZM99.55,70.78c0-.06.02-.14.05-.2.28-.56,1.29-1.21,1.64-1.26.49-.08.75.1,1.26.47l.21.15c1.34.95,8.85,8.49,9.56,9.6.67,1.04.21,2.1-.26,2.57-.16.15-.57.48-.87.29l-11.6-11.62Z"/>
  <path class="cls-1" d="M131.4,56.43c.51,0,1.03-.07,1.55-.2,2.26-.59,3.83-2.35,4.11-4.57.26-2.04-.33-3.86-1.65-5.13-1.32-1.27-3.24-1.8-5.28-1.46-1.79.3-3.3,1.56-4.02,3.36-.78,1.93-.53,4.11.65,5.69,1.1,1.48,2.83,2.31,4.65,2.31ZM133.85,51.97c-.37.9-1.16,1.45-2.25,1.55-1.71.16-2.69-1.06-2.9-2.34-.2-1.22.32-2.7,1.9-3.06,1.13-.26,2.11.02,2.76.78.69.81.89,2.08.48,3.07Z"/>
  <path class="cls-1" d="M44.48,133.04c.21,2.32,1.83,4.69,4.96,4.76.04,0,.09,0,.13,0,2,0,3.62-.96,4.47-2.64.95-1.88.75-4.32-.49-5.94-1.2-1.56-3.12-2.16-5.41-1.68-2.81.58-3.87,3.26-3.66,5.5ZM51.31,131.02c.95,1.12.52,2.5-.39,3.27-.83.71-2.1.93-3.06-.18-.57-.67-.75-1.39-.5-2.09.29-.81,1.13-1.49,2.04-1.65.12-.02.26-.04.42-.04.45,0,1.03.13,1.5.69Z"/>
</svg>