<?xml version="1.0" encoding="UTF-8"?>
<svg id="Layer_1" data-name="Layer 1" xmlns="http://www.w3.org/2000/svg" viewBox="0 0 180 180">
  <defs>
    <style>
      .cls-1 {
        fill: #57a47b;
      }
    </style>
  </defs>
  <path class="cls-1" d="M100.04,59.82l4.92,2.04c3.24-1.88,5.75-5.24,9.95-3.74,1.57.56,5.1,4.07,6.23,5.45,1.74,2.12,2.03,4.79.63,7.18-.38.64-3.25,4.36-3.21,4.64.8,1.6,1.55,3.24,2.02,4.98,3.62.82,8.66.45,10.03,4.8.54,1.74.58,7.99-.01,9.69-1.37,3.96-6.27,3.91-9.69,4.56-.28.1-.99,2.32-1.18,2.8-.31.77-.69,1.5-1.04,2.25,1.95,3.37,5.52,5.99,3.48,10.33-.51,1.08-4.58,5.19-5.65,6.03-.94.74-2.53,1.3-3.72,1.3-3.09,0-5.2-2.82-7.8-3.97l-4.97,2.11c-.75,2.66-.41,6.03-2.32,8.2-.78.88-2.36,1.75-3.53,1.86-1.74.17-6.1.2-7.8-.03-1.21-.16-2.43-1.03-3.18-1.96-1.81-2.23-1.56-5.55-2.31-8.21l-5.06-2.09c-3.28,2.22-6.08,5.47-10.4,3.43-1.12-.53-4.83-4.11-5.73-5.19-1.69-2.05-2.03-4.64-.7-6.98.4-.71,3.4-4.51,3.37-4.8l-2.04-4.9c-3.19-.99-7.29-.34-9.35-3.49-.45-.68-.84-1.59-.92-2.42-.17-1.71-.21-6.27.03-7.92.07-.51.41-1.2.67-1.64,1.96-3.35,6.37-2.91,9.67-3.75l1.94-4.88c-1.96-3.31-5.54-6-3.69-10.28.59-1.35,4.18-4.96,5.44-5.99,4.33-3.55,8.02.04,11.55,2.58.11.09.22.12.36.1.31-.04,2.03-.99,2.54-1.2.33-.14,2.18-.72,2.25-.83.83-3.71.34-8.42,4.65-9.98,1.63-.59,7.57-.64,9.28-.23.5.12,1.17.43,1.62.69,3.42,2.02,2.83,6.13,3.66,9.49ZM87.26,54.23c-.43.14-.68.43-.83.84-.8,2.14-.58,5.57-1.44,7.67-.08.2-.24.48-.39.64-.63.67-3.82,1.47-4.96,1.97-1.67.74-3.33,2.35-5.17,1.36s-3.77-2.98-5.62-4.01c-.63-.35-.96-.41-1.59.04-.54.38-3.73,3.58-4.1,4.11-.3.43-.36.81-.16,1.32.78,1.52,4.35,5.33,4.53,6.77s-1.01,2.84-1.57,4.09c-.32.72-.6,1.47-.88,2.2-.53,1.39-.47,2.97-2.15,3.5-2.15.66-5.06.57-7.22,1.25-.68.21-.96.43-1.03,1.15-.12,1.34-.14,4.34,0,5.65.07.63.28.96.9,1.16,2.13.67,5.06.61,7.22,1.25.6.18,1.15.55,1.46,1.11.55,1.02.91,2.9,1.41,4.11s1.92,3.37,1.86,4.43c-.02.3-.12.64-.25.91l-4.27,6c-.23.57-.12.92.22,1.38,1.02,1.37,3.02,2.56,4.11,3.98.39.34.97.34,1.44.16l5.98-4.16c1.64-.65,3.49.92,5.01,1.59,1.08.47,4.42,1.35,4.97,1.97.29.32.47.92.58,1.34.54,2.04.55,4.56,1.15,6.55.16.52.43,1.08,1.02,1.16,1.14.15,4.61.13,5.78,0,.48-.05.92-.21,1.1-.7.66-2.28.61-5.09,1.28-7.32.17-.58.53-1.07,1.06-1.38.95-.55,3.01-.97,4.2-1.45,1.02-.42,2.77-1.58,3.6-1.8.91-.23,1.42-.02,2.18.4,1.88,1.05,3.7,2.67,5.57,3.8.59.22.9.14,1.38-.22,1.43-1.07,2.79-3.09,4.24-4.23l.02-1.19c-.8-1.53-4.32-5.26-4.4-6.78-.06-1.04,1.15-2.76,1.61-3.79.36-.8.67-1.67.97-2.49.6-1.65.34-2.95,2.43-3.47,1.94-.49,4.19-.55,6.15-1.04.62-.16,1.47-.37,1.57-1.13.15-1.15.13-4.74,0-5.91-.07-.58-.37-.84-.9-1.02-2.08-.72-5.17-.6-7.29-1.31-1.64-.55-1.7-2.5-2.24-3.92-.31-.82-.65-1.65-1.01-2.45-.42-.92-1.44-2.2-1.39-3.21.08-1.63,3.65-5.34,4.46-6.97.35-.53.04-1.02-.3-1.46-.47-.6-3.43-3.61-3.98-3.98s-.95-.26-1.52.02c-1.84.91-3.98,3.27-5.82,4.07-.27.12-.73.27-1.02.27-.88.02-3.49-1.56-4.55-1.99s-3.88-1.05-4.49-1.8c-.24-.29-.37-.7-.47-1.07-.59-2.15-.54-5.09-1.23-7.12-.2-.6-.57-.82-1.18-.87-1.9-.17-4.08.12-6.01.03Z"/>
  <g>
    <path class="cls-1" d="M159.86,118.65l-5.98-15.78c-1.05-1.93-3.08-2.83-5.48-2.38l-15.88,6.01c-1.43.76-1.7,2.26-1.34,3.34.36,1.08,1.44,2.06,3.05,1.81l11.28-4.19c-5.57,18.58-20.62,33.57-39.45,39.23-16,4.81-32.74,2.78-47.14-5.71-14.18-8.35-24.31-22.33-27.8-38.35-.17-.8-.3-1.65-.42-2.46-.13-.86-.26-1.74-.45-2.58-.29-1.3-1.33-2.19-2.65-2.25-1.23-.06-2.25.62-2.63,1.73-.34,1.02.1,3.38.53,5.52l.07.36c3.57,17.73,14.08,32.71,29.59,42.19,10.28,6.28,22.06,9.51,33.92,9.51,5.91,0,11.83-.8,17.6-2.43,20.85-5.89,37.59-22.17,43.89-42.6,0,0,0,.02.01.03.63,1.55,1.21,3.16,1.77,4.72.56,1.55,1.13,3.16,1.76,4.71.07.16.13.33.2.51.34.93.77,2.09,1.82,2.52,1.05.44,2.16.26,2.96-.46.81-.73,1.1-1.86.76-2.99Z"/>
    <path class="cls-1" d="M28.8,77.81l16.86-3.99c1.64-.69,2.01-2.23,1.66-3.38-.36-1.17-1.52-2.19-3.31-1.84l-11.22,2.65c6.55-19.67,23.17-34.61,43.54-39.06,29.96-6.56,60.4,11.3,69.3,40.64.1.34.23.86.37,1.45.48,1.99.89,3.56,1.37,4.1.51.58,1.25.89,2.01.89.32,0,.64-.05.95-.16,1.06-.37,1.76-1.27,1.82-2.35.14-2.52-2.99-10.46-3.02-10.53-6.07-15.27-17.55-27.55-32.35-34.59-14.82-7.05-31.66-8.2-47.42-3.24-19.12,6.01-34.86,21.28-41.3,39.98l-2.89-11.91-.05-.12c-.91-1.37-2.36-1.58-3.39-1.18-1.02.4-1.95,1.52-1.69,3.18.7,2.48,1.26,5.08,1.8,7.6.56,2.6,1.14,5.3,1.87,7.86.79,2.76,2.39,4.01,5.09,4.01Z"/>
  </g>
  <path class="cls-1" d="M89.2,73.24c13.37-.96,22.4,13.32,15.79,25.03-5.95,10.55-21.2,11.3-28.2,1.41-7.53-10.64-.56-25.51,12.4-26.44ZM90.23,77.85c-9.02.17-14.69,10.03-10.32,17.94,4.53,8.19,16.42,8.24,21.02.08,4.55-8.08-1.46-18.2-10.7-18.02Z"/>
</svg>