<?xml version="1.0" encoding="UTF-8"?>
<svg id="Layer_1" data-name="Layer 1" xmlns="http://www.w3.org/2000/svg" viewBox="0 0 180 180">
  <defs>
    <style>
      .cls-1 {
        fill: #57a47b;
      }
    </style>
  </defs>
  <path class="cls-1" d="M58.32,68.84c6.59-4.74,8.1-13.96,3.36-20.55-2.3-3.19-5.7-5.3-9.58-5.94-3.88-.63-7.78.28-10.97,2.58-3.19,2.3-5.3,5.7-5.94,9.58-.63,3.88.28,7.78,2.58,10.97,2.87,4,7.39,6.12,11.98,6.12,2.98,0,5.98-.9,8.58-2.76ZM42.9,61.79c-1.31-1.82-1.84-4.05-1.47-6.27.36-2.22,1.57-4.16,3.39-5.47,1.48-1.07,3.2-1.58,4.9-1.58,2.62,0,5.2,1.22,6.84,3.5,2.71,3.77,1.85,9.04-1.92,11.75-3.77,2.71-9.04,1.85-11.75-1.92Z"/>
  <path class="cls-1" d="M140.84,113.92l-19.51-19.17c-2.99-3.51-7.48-5.33-12.04-4.87l-22.96,2.3-11.26-15.59c-2.17-3.02-5.4-5.02-9.1-5.62-3.69-.6-7.39.26-10.41,2.43-3.02,2.17-5.02,5.4-5.62,9.1-.6,3.69.26,7.39,2.44,10.42l16,22.17c.09.13.19.25.34.43l.07.08c.09.11.18.23.25.31.25.3.51.58.84.91,3.12,3.12,7.6,4.58,11.98,3.91l23.63-2.36,15.77,15.49c2.63,2.58,6.1,4,9.8,4,.04,0,.08,0,.11,0,3.74-.03,7.24-1.51,9.85-4.16,2.61-2.65,4.03-6.17,4-9.92-.03-3.74-1.51-7.24-4.16-9.85ZM136.5,129.26c-1.43,1.45-3.35,2.26-5.4,2.28-2.04.02-3.99-.76-5.44-2.19l-17.88-17.56-26.66,2.67-.18.02c-2.43.38-4.91-.42-6.66-2.16-.15-.15-.29-.3-.45-.49l-16.35-22.6c-1.19-1.65-1.66-3.68-1.33-5.71.33-2.03,1.43-3.8,3.08-4.99,1.65-1.19,3.68-1.66,5.71-1.33,2.03.33,3.8,1.43,4.99,3.08l13.39,18.54,26.58-2.66c2.53-.25,5.02.78,6.67,2.76l19.83,19.51c1.45,1.43,2.26,3.35,2.28,5.4.02,2.06-.76,3.99-2.19,5.44Z"/>
</svg>