<?xml version="1.0" encoding="UTF-8"?>
<svg id="Layer_1" data-name="Layer 1" xmlns="http://www.w3.org/2000/svg" viewBox="0 0 180 180">
  <defs>
    <style>
      .cls-1 {
        fill: #57a47b;
      }
    </style>
  </defs>
  <path class="cls-1" d="M65.45,52.05c-20.93,0-37.95,17.03-37.95,37.95s17.03,37.95,37.95,37.95,37.95-17.03,37.95-37.95-17.03-37.95-37.95-37.95ZM65.45,121.16c-12.18,0-22.74-7.03-27.86-17.23l22.36-9.74c1.26,1.66,3.25,2.73,5.5,2.73s4.23-1.08,5.5-2.73l22.36,9.74c-5.12,10.21-15.68,17.23-27.86,17.23ZM95.04,99.73l-22.69-9.89c-.08-3.75-3.14-6.76-6.9-6.76s-6.82,3.01-6.9,6.76l-22.69,9.89c-1.01-3.06-1.56-6.33-1.56-9.73,0-17.18,13.98-31.16,31.16-31.16s31.16,13.98,31.16,31.16c0,3.4-.55,6.67-1.56,9.73Z"/>
  <path class="cls-1" d="M142.3,64.51h-19.26c-5.62,0-10.2,4.57-10.2,10.2v30.59c0,5.62,4.57,10.2,10.2,10.2h19.26c5.62,0,10.2-4.57,10.2-10.2v-30.59c0-5.62-4.57-10.2-10.2-10.2ZM145.7,105.29c0,1.87-1.52,3.4-3.4,3.4h-19.26c-1.87,0-3.4-1.52-3.4-3.4v-30.59c0-1.87,1.52-3.4,3.4-3.4h19.26c1.87,0,3.4,1.52,3.4,3.4v30.59Z"/>
</svg>