<?xml version="1.0" encoding="UTF-8"?>
<svg id="Layer_2" data-name="Layer 2" xmlns="http://www.w3.org/2000/svg" viewBox="0 0 200 168">
  <defs>
    <style>
      .cls-1 {
        fill: #fff;
      }

      .cls-2 {
        fill: #57a47b;
      }
    </style>
  </defs>
  <g id="Layer_1-2" data-name="Layer 1">
    <g>
      <polygon class="cls-2" points="0 83.99 50 168 150 168 200 83.99 150 0 50 0 0 83.99"/>
      <g>
        <path class="cls-1" d="M127.28,84.6c-1.52-2.57-3.53-4.86-5.49-7.06-1.34-1.52-2.73-3.09-3.94-4.73-6.89-9.41-10.17-21.21-8.98-32.38.03-.3.1-.65.18-1.02.25-1.21.53-2.58-.28-3.4h0c-.5-.5-1.61-.6-2.23-.34-.4.16-1.33,1.19-2.59,2.69l-.26.31c-9.12,10.64-17.21,21.9-23.4,32.58-8.81,15.21-15.67,31.39-6.24,46.71,5.72,9.29,15.35,14.63,26.12,14.63.86,0,1.72-.03,2.6-.1,11.76-.92,21.46-7.92,25.96-18.72,3.77-9.05,3.16-21.31-1.46-29.15ZM104.78,47.59c.46,10.33,4.76,21.25,11.78,29.96.94,1.17,1.88,2.23,2.79,3.25,2.84,3.2,5.29,5.97,6.68,10.62,2.48,8.31,1.51,17.13-2.64,24.2-3.76,6.4-9.86,10.82-17.18,12.46-9.19,2.05-18.16-.44-24.61-6.84-6.72-6.66-9.49-16.41-7.41-26.08,2.63-12.27,11.84-28.31,27.35-47.66.4-.5.81-.99,1.23-1.49.68-.81,1.38-1.64,2.02-2.51.02.65,0,1.32,0,1.96-.02.69-.03,1.41,0,2.12Z"/>
        <path class="cls-1" d="M112.96,119.36c.1,0,.2,0,.31-.02,1.17-.17,3.67-2.98,3.7-3.01,4.8-5.42,6.66-13.34,5.08-21.74l-.06-.3c-.28-1.57-.76-4.19-2.93-3.82-.78.13-1.45.83-1.53,1.6-.06.57.12,1.08.29,1.59.08.25.16.49.21.73,1.16,5.42,1.42,13.16-3.91,19.25-.2.23-.63.62-1.08,1.03-1.06.98-1.77,1.65-1.9,2.03-.23.7-.1,1.44.35,1.98.37.44.89.68,1.46.68Z"/>
      </g>
    </g>
  </g>
</svg>