<?xml version="1.0" encoding="UTF-8"?>
<svg id="Layer_2" data-name="Layer 2" xmlns="http://www.w3.org/2000/svg" viewBox="0 0 200 168">
  <defs>
    <style>
      .cls-1 {
        fill: #fff;
      }

      .cls-2 {
        fill: #57a47b;
      }
    </style>
  </defs>
  <g id="Layer_1-2" data-name="Layer 1">
    <g>
      <polygon class="cls-2" points="0 83.99 50 168 150 168 200 83.99 150 0 50 0 0 83.99"/>
      <path class="cls-1" d="M84.7,148.21l-26.62-17.98-5.41,3.53c-1.16.75-2.71.43-3.46-.73-.75-1.16-.43-2.71.73-3.46l8.19-5.35,27.3,18.44,25.01-8.72,36.57,7.15c1.36.27,2.24,1.58,1.97,2.93-.26,1.35-1.58,2.24-2.93,1.97l-35.24-6.89-26.1,9.1Z"/>
      <g>
        <path class="cls-1" d="M102.38,128.15c-1.52,0-2.8-1.14-2.98-2.64-.23,1.55-1.63,2.67-3.21,2.54-3.17-.26-6.31-.83-9.35-1.7-1.53-.44-2.44-1.99-2.1-3.53-.72,1.4-2.41,2.01-3.87,1.37-2.9-1.27-5.69-2.84-8.29-4.66-1.3-.91-1.66-2.67-.85-4-1.13,1.08-2.92,1.11-4.09.03-2.33-2.15-4.46-4.53-6.33-7.08-.93-1.28-.71-3.05.48-4.06-1.42.65-3.12.09-3.87-1.3-1.52-2.79-2.76-5.74-3.69-8.76-.47-1.52.33-3.12,1.79-3.68-1.56.15-2.98-.93-3.25-2.49-.44-2.62-.66-5.3-.66-7.98,0-.5,0-1,.02-1.49.05-1.58,1.32-2.84,2.88-2.91-1.52-.36-2.52-1.84-2.27-3.4.51-3.13,1.34-6.22,2.46-9.18.56-1.49,2.18-2.26,3.68-1.81-1.33-.83-1.8-2.56-1.04-3.96,1.5-2.78,3.29-5.43,5.32-7.88,1.01-1.22,2.79-1.43,4.06-.52-.98-1.22-.87-3.01.3-4.08,2.33-2.15,4.88-4.08,7.58-5.74,1.35-.83,3.09-.46,4,.81-.52-1.47.17-3.11,1.61-3.75,2.9-1.28,5.94-2.28,9.03-2.96,1.55-.34,3.08.58,3.52,2.08-.02-1.56,1.17-2.9,2.75-3.03,3.14-.27,6.37-.22,9.5.13,1.58.18,2.73,1.54,2.66,3.1.48-1.48,2.04-2.37,3.58-1.98,3.07.77,6.09,1.84,8.95,3.21,1.44.68,2.08,2.36,1.5,3.81.94-1.25,2.7-1.58,4.04-.72,2.66,1.73,5.15,3.72,7.42,5.94,1.13,1.11,1.2,2.9.19,4.09,1.29-.88,3.06-.62,4.04.63,1.96,2.5,3.68,5.2,5.1,8.02.71,1.42.2,3.13-1.14,3.93,1.51-.41,3.1.41,3.62,1.91,1.04,2.99,1.78,6.1,2.21,9.25.21,1.57-.83,3.02-2.36,3.34,1.56.1,2.8,1.4,2.8,2.99v.13c0,3.23-.31,6.41-.93,9.5-.31,1.56-1.78,2.6-3.34,2.39,1.45.6,2.2,2.24,1.69,3.74-1.03,3-2.36,5.9-3.96,8.64-.8,1.37-2.53,1.87-3.93,1.17,1.17,1.04,1.35,2.83.37,4.08-1.95,2.5-4.15,4.82-6.55,6.88-1.2,1.04-2.99.95-4.09-.16.76,1.36.35,3.1-.97,3.97-2.66,1.74-5.49,3.22-8.43,4.4-1.47.59-3.13-.07-3.81-1.47.28,1.54-.68,3.05-2.22,3.44-3.06.78-6.22,1.25-9.4,1.41-.05,0-.1,0-.15,0ZM87.67,120.47c.27,0,.55.04.83.12,2.66.76,5.41,1.26,8.18,1.49,1.45.12,2.57,1.24,2.74,2.63.21-1.38,1.37-2.47,2.82-2.54,2.78-.14,5.54-.55,8.22-1.23,1.4-.35,2.82.34,3.43,1.59-.25-1.37.5-2.77,1.84-3.31,2.57-1.03,5.05-2.32,7.37-3.85,1.21-.79,2.79-.6,3.77.39-.68-1.22-.44-2.79.66-3.73,2.1-1.81,4.03-3.84,5.73-6.03.89-1.15,2.45-1.47,3.7-.84-1.04-.93-1.32-2.5-.59-3.75,1.4-2.39,2.57-4.94,3.47-7.56.47-1.38,1.85-2.19,3.24-2-1.29-.54-2.07-1.93-1.79-3.36.54-2.71.82-5.49.82-8.28v-.18c0-1.45,1.02-2.65,2.38-2.94-1.39-.09-2.57-1.15-2.77-2.59-.37-2.75-1.02-5.47-1.93-8.08-.48-1.37.1-2.85,1.3-3.56-1.35.37-2.81-.25-3.46-1.54-1.25-2.47-2.75-4.83-4.46-7.02-.9-1.14-.83-2.73.07-3.79-1.16.78-2.74.67-3.78-.34-1.98-1.94-4.17-3.69-6.49-5.2-1.22-.79-1.67-2.32-1.16-3.62-.84,1.12-2.37,1.53-3.69.91-2.5-1.19-5.14-2.13-7.82-2.8-1.41-.35-2.33-1.64-2.27-3.03-.43,1.32-1.75,2.21-3.19,2.05-2.74-.31-5.57-.34-8.32-.11-1.45.13-2.73-.8-3.13-2.14.02,1.39-.94,2.66-2.35,2.97-2.71.6-5.37,1.47-7.9,2.59-1.32.58-2.84.14-3.65-.99.47,1.31-.03,2.81-1.26,3.56-2.36,1.45-4.59,3.13-6.63,5.02-1.06.99-2.65,1.05-3.79.23.88,1.09.9,2.68-.03,3.8-1.77,2.14-3.34,4.46-4.65,6.89-.69,1.28-2.17,1.85-3.51,1.45,1.18.74,1.72,2.24,1.21,3.6-.98,2.59-1.7,5.29-2.15,8.03-.23,1.43-1.44,2.46-2.83,2.51,1.36.32,2.35,1.56,2.3,3.01-.01.44-.02.87-.02,1.31,0,2.35.2,4.7.58,6.99.24,1.43-.57,2.79-1.87,3.29,1.38-.13,2.72.72,3.15,2.1.81,2.64,1.9,5.22,3.23,7.66.69,1.27.37,2.82-.69,3.72,1.27-.57,2.81-.2,3.66.97,1.63,2.24,3.5,4.33,5.54,6.2,1.07.98,1.26,2.56.54,3.76,1.01-.96,2.6-1.11,3.78-.28,2.27,1.59,4.71,2.96,7.25,4.08,1.33.58,2.03,2.02,1.73,3.39.52-1,1.55-1.62,2.66-1.62Z"/>
        <path class="cls-1" d="M100.11,126.21c-25.36,0-46-20.64-46-46s20.64-46,46-46,46,20.64,46,46-20.64,46-46,46ZM100.11,38.21c-23.16,0-42,18.84-42,42s18.84,42,42,42,42-18.84,42-42-18.84-42-42-42Z"/>
        <path class="cls-1" d="M100.11,102.71c-12.41,0-22.5-10.09-22.5-22.5s10.09-22.5,22.5-22.5,22.5,10.09,22.5,22.5-10.09,22.5-22.5,22.5ZM100.11,62.71c-9.65,0-17.5,7.85-17.5,17.5s7.85,17.5,17.5,17.5,17.5-7.85,17.5-17.5-7.85-17.5-17.5-17.5Z"/>
      </g>
    </g>
  </g>
</svg>