<?xml version="1.0" encoding="UTF-8"?>
<svg id="Layer_2" data-name="Layer 2" xmlns="http://www.w3.org/2000/svg" viewBox="0 0 200 168">
  <defs>
    <style>
      .cls-1 {
        fill: #fff;
      }

      .cls-2 {
        fill: #57a47b;
      }
    </style>
  </defs>
  <g id="Layer_1-2" data-name="Layer 1">
    <g>
      <polygon class="cls-2" points="0 83.99 50 168 150 168 200 83.99 150 0 50 0 0 83.99"/>
      <g>
        <path class="cls-1" d="M77.17,42.82c2.81-.18,5.85.01,8.59.61,7.15,1.55,13.54,6.33,16.28,13.2l3.47-.36c5.08-.13,10.19,1.19,14.04,4.58,1.14,1,4.47,4.64,4.63,6.04.18,1.58-.82,2.83-2.47,2.67-1.44-.15-2.03-1.74-2.78-2.75-3.54-4.71-8.76-6.61-14.61-5.99-1.71.18-4.35,1.42-5.52-.35-.65-.98-1.04-2.61-1.67-3.76-4.43-8.03-14.9-11.14-23.48-8.75-7.28,2.02-13.69,10.93-14.65,18.24-.14,1.05,0,2.14-.12,3.09-.26,1.89-2.53,1.73-3.92,2.02-8.87,1.86-15.01,11.8-13.05,20.59,1.1,4.91,5.05,10.68,10.01,12.23l43.74.03c2.88.49,2.62,4.42-.3,4.53h-43.37c-7.58-1.15-13.61-9.92-14.71-17.08-1.68-10.93,6.09-22.77,17.13-24.76,1.69-11.81,10.09-23.21,22.77-24.01Z"/>
        <path class="cls-1" d="M151.41,70.18c.92.99.71,2.94-.56,3.54-.88.42-1.75.18-2.68.24-23.09,1.63-39.67,20.16-40.9,42.9-.11,1.98.58,5.53-2.74,4.96-1.38-.24-1.71-1.32-1.79-2.54-.29-4.46.99-11.31,2.29-15.62,5.52-18.31,22.99-33.24,42.44-34.12,1.09-.05,3.16-.2,3.94.64Z"/>
        <path class="cls-1" d="M148.81,82.85c1.39-.04,3.28-.07,3.53,1.74.46,3.34-3.05,2.65-5.17,2.86-13.58,1.3-24.08,13.1-26.28,26.13-.35,2.05-.24,3.84-.44,5.8-.27,2.75-3.74,2.81-4.4.58-.47-1.59.2-5.73.51-7.48,2.77-15.68,15.83-29.12,32.25-29.62Z"/>
        <path class="cls-1" d="M150.82,110.91c5.8-.19,9.62,5.98,6.88,11.1s-10.84,5.13-13.38-.33c-2.28-4.89,1.08-10.59,6.5-10.77ZM150.42,115.43c-3.37.53-3.1,6.58,1.26,5.98,3.58-.49,3.14-6.68-1.26-5.98Z"/>
        <path class="cls-1" d="M149.11,97.53c1.18-.07,2.46-.23,3.24.83.96,1.29.36,3.08-1.19,3.54-.95.28-2.45.15-3.56.36-7.15,1.34-11.99,8.02-12.66,15.01-.08.85.1,1.57-.17,2.44-.64,2.05-3.61,1.98-4.23-.06-.4-1.33.13-4.41.44-5.84,1.88-8.62,9.11-15.72,18.12-16.28Z"/>
      </g>
    </g>
  </g>
</svg>