<?xml version="1.0" encoding="UTF-8"?>
<svg id="Layer_2" data-name="Layer 2" xmlns="http://www.w3.org/2000/svg" viewBox="0 0 200 168">
  <defs>
    <style>
      .cls-1 {
        fill: #fff;
      }

      .cls-2 {
        fill: #57a47b;
      }
    </style>
  </defs>
  <g id="Layer_1-2" data-name="Layer 1">
    <g>
      <polygon class="cls-2" points="0 83.99 50 168 150 168 200 83.99 150 0 50 0 0 83.99"/>
      <g>
        <path class="cls-1" d="M147.39,58.17l-19.77,19.7c-.15.32.43,1.11.57,1.48,3.93,10.14-4.79,20.4-15.41,18.14-8.63-1.83-13.09-11.72-8.92-19.47l-.84-.94-13.95,13.95c5.87,7.3,2.36,18.53-6.64,21.15-10.47,3.05-19.96-6.62-16.68-17.02,2.63-8.33,12.83-11.89,20.13-7.08h.23s15.72-15.73,15.72-15.73c2.06-1.41,3.37,1.07,4.73,2.22,5.01-4.81,13.31-4.79,18.34,0l19.42-19.58h-8.26c-.18,0-1.01-.91-1.13-1.15-.82-1.76.61-2.94,2.26-3.07,2.54-.2,5.21.08,7.74.12,1.51.02,3.07-.14,4.55-.11,1,.02,2.03.84,2.12,1.87l-.03,13.41c-.39,1.78-2.71,2.25-3.78.76-.07-.09-.41-.69-.41-.73v-7.91ZM115.14,74.03c-8.19.53-12.64,9.92-7.66,16.58,5.45,7.28,17.04,4.31,18.47-4.63,1.02-6.39-4.34-12.36-10.81-11.95ZM77.21,89.06c-4.06.41-7.72,3.79-8.69,7.71-2.18,8.79,7.27,16.05,15.17,11.52,9.62-5.52,4.98-20.39-6.48-19.23Z"/>
        <path class="cls-1" d="M149.75,123.66c.15.02.53.24.69.34,1.81,1.1,1.01,3.99-1.14,3.99H55.3c-1.22,0-2.11-.77-2.22-1.99V43.79c.18-1.63,2.18-2.4,3.46-1.41.18.14.76.92.76,1.06v80.04l.17.17h92.29Z"/>
        <path class="cls-1" d="M119.37,80.6l.33,1.43.91.04c.2-1.58,1.38-1.26.69.24.36.05,1.26.11,1.49.39.24.3.19,1.21.36,1.4.12.14.64.08.75.45.06.21.06,1.44.02,1.68-.14.75-1.45.24-1.97.42-.24.14-.2.45-.36.66-1.06,1.46-3.21,1.03-3.72-.66l-2.08-.13c-.34,1.28-1.59,2.04-2.87,1.51-.38-.16-.54-.43-.89-.59-.09,0-.19.54-.31.66-.24.23-4.05.21-4.17.01v-.48c.1-.31.54-.11.78-.24.59-.34.6-2.34.96-2.91.17-.14,1.14-.16,1.36-.08.29.09.24.73.64.66.13-.31,1.31-2.37,1.44-2.4.62-.13.8.91,1.12,1.26.34-.37,2.13-1.23,2.31-1.51.03-.05.3-1.07.26-1.11l-.52-.11-.05-.58h3.53ZM118.8,81.29h-1.57c-.14.53-.7,1.63.16,1.81s.49-.21.73-.52c.16-.21.71-.19.8-.46l-.11-.83ZM115.79,84.24h1.82c.33.3.12.85.17,1.25l.87-1.01c1.2-.69,2.38-.43,3.06.77.1.17.14.47.22.58.17.21.93.12,1.2.06.56-1.16-.42-1.02-.63-1.32-.17-.23-.15-.98-.28-1.28-.74-.31-2.77-.82-3.42-.26-.2.17-.03.57-.22.69-.05.04-1.17.16-1.31.15-.42-.02-.69-.27-.86-.63l-.15-.04-1.56.9c-.04.31.34.36.52.56.25.3.33.7.74.8.1-.12-.69-1.09-.17-1.25ZM113.54,84.83c-1.41.26-1.5,2.37-.02,2.59,2.18.32,1.82-2.93.02-2.59ZM119.69,84.83c-1.58.23-1.48,2.87.42,2.59,1.73-.25,1.19-2.82-.42-2.59ZM109.24,87.43h1.88c.11,0,.29-.39.24-.57-.02-.09-.85-1.42-.96-1.56-.72-.91-.81,1.15-.94,1.61-.06.22-.24.3-.22.52Z"/>
        <path class="cls-1" d="M76.43,99.38l.91-.06-.56-2.95-.7-.25.06-.4c1.09-.4,1.41.13,1.48,1.15l9.33.22.64,1.66-1.69,1.36c1.39,2.27-1.57,4.12-3.03,2-.67.98-2.1,1.3-2.98.41-.24-.24-.34-.78-.46-.88-.54-.45-1.97-.83-2.66-.62-.94.28-.88.9-1.31,1.42-.6.73-1.92.79-2.62.12-.27-.26-.47-.85-.58-.92-.33-.21-1.13-.2-1.6-.42-1.04-.5-1.41-1.28-1.12-2.42.17-.35,2.34-.85,2.51-1.13.37-.59-.98-.3-.58-1.04l.14-.09c1.33.1,3.03-.2,4.32-.02.15.02.51.15.51.29v2.56ZM74.5,97.56c.04-.53-1.86-.53-1.82,0h1.82ZM85.6,97.68h-7.8l.34,2.11-.17.28h-2.05c-.41-.46.04-1.26-.28-1.77-.13-.09-2.79-.08-3.11-.02-.22.04-2.24.89-2.31,1-.53.87,1.39,1.76,2.1,1.59.24-1.81,3.14-1.88,3.43-.1.36,0,.56-.36.88-.43.89-.2,1.95.04,2.71.53.27-.25.31-.64.56-.91.77-.82,2.47-.57,2.97.46.2-.36.55-.75.96-.86.57-.15,1.28.11,1.59,0,.15-.05,1.33-.93,1.34-1.02l-.3-.69c-.27,0-.64-.15-.86-.17ZM73.28,100.45c-1.02,1,.49,2.58,1.55,1.61s-.51-2.62-1.55-1.61ZM81.16,100.12c-1.17.03-1.51,1.84-.29,2.17,1.69.45,2.01-2.21.29-2.17ZM84.46,100.13c-1.41,0-1.52,2.3.11,2.23,1.33-.06,1.3-2.23-.11-2.23Z"/>
        <path class="cls-1" d="M72.42,100.16c-.14.08-.38,0-.55.02-.18-1.45,2.32-1.96,3.27-1.39.21.13.44.34.15.54-.36.25-1.45-.54-2.57.39-.14.12-.26.41-.3.44Z"/>
      </g>
    </g>
  </g>
</svg>