<?xml version="1.0" encoding="UTF-8"?>
<svg id="Layer_1" data-name="Layer 1" xmlns="http://www.w3.org/2000/svg" viewBox="0 0 180 180">
  <defs>
    <style>
      .cls-1 {
        fill: #57a47b;
      }
    </style>
  </defs>
  <g>
    <path class="cls-1" d="M54.34,159.46c-5.39-1.99-8.09-5.46-7.42-11.44.6-5.37,9.78-21.58,9.18-25.14-.2-1.19-1.46-2.33-1.72-3.9-.74-4.48.76-6.53,2.37-10.33-12.11-11.7-18.63-28.19-17.14-45.12.6-6.82,2.63-20.01,12.29-17.38,5.44,1.48,15.52,16.5,21.3,19.47,1,.1,18.19-5.59,19.07-6.24,1.64-1.21.49-3.76,1.93-6.09,5.17-8.37,18.36-3.53,16.19,6.93-1,4.83-5.9,6.29-10.05,7.23l-6.35,19.37,22.11,22.31c5.64,11.05-7.59,13.83-15.76,14.5-9.01.74-17.73-.7-26.19-3.68l-.82,3.49c4.88,10.44,27.29,28.02,8.19,36.01h-27.17ZM49.7,49.22c-4.74,0-6.04,9.35-6.48,13.01-1.66,14.06,2.75,29.09,12.03,39.82.69.79,4.47,4.68,5.02,4.79,2.89.55,5.3-1.85,9.7.87,4.63,2.86,4.25,7.9,5.35,8.85.69.6,6.14,2.19,7.41,2.47,6.43,1.42,13.39,1.74,19.9.75,4.84-.73,15.18-2.42,10.06-9.1l-60.18-60.21c-.75-.67-1.8-1.25-2.81-1.25ZM99.84,52.77c-5.51,1.66-4.37,12.65,3.92,10.09,6.35-1.96,3.29-12.26-3.92-10.09ZM94.47,62.53c-5.8,1.72-12.06,3.26-17.67,5.49-.63.25-1.06-.33-.85.98l6.39,5.83,12.12-12.3ZM97.55,65.62c-1.16-.27-1.47.65-2.16,1.23-3.75,3.14-7.08,7.53-10.79,10.81l6.47,6.48,6.48-18.51ZM69.56,111.51c-6.37-6.62-16.63,3.53-10.08,10.08,6.42,6.42,16.59-3.31,10.08-10.08ZM59.58,125.51l-9.45,23.3c-.24,4.02,1.65,6.6,5.72,6.97,5.79.53,19.08.65,24.74-.02,4.13-.48,6.13-4.18,4.95-8.07-.37-1.21-12.98-19.8-14.21-20.98-.42-.41-.74-.93-1.34-1.12-3.18,1.38-7.43,2.07-10.41-.08Z"/>
    <path class="cls-1" d="M81.61,160l-27.46-.03c-5.89-2.17-8.44-6.1-7.78-12.01.3-2.64,2.55-7.72,4.74-12.63,2.22-4.99,4.74-10.65,4.45-12.36-.08-.45-.37-.95-.69-1.48-.41-.69-.87-1.47-1.03-2.42-.64-3.87.35-6.06,1.6-8.82.21-.47.43-.95.65-1.47-12.3-12.03-18.51-28.52-17.04-45.29.78-8.86,2.9-14.56,6.32-16.94,1.87-1.3,4.11-1.61,6.65-.92,3.06.83,7.22,5.41,11.61,10.26,3.48,3.84,7.08,7.8,9.67,9.2,1.64-.21,17.55-5.43,18.62-6.13.63-.46.72-1.21.83-2.4.1-1.09.21-2.32.96-3.53,2.88-4.66,7.85-5.27,11.5-3.82,3.68,1.47,6.86,5.48,5.68,11.15-1.12,5.38-6.85,6.83-10.16,7.58l-6.15,18.77,21.97,22.21c1.68,3.29,1.87,6.15.56,8.5-2.61,4.69-10.55,6.28-16.75,6.79-8.47.7-16.93-.45-25.85-3.51l-.64,2.72c1.27,2.64,3.67,5.76,6.21,9.06,5.1,6.64,10.88,14.16,9.25,20.28-.81,3.06-3.31,5.42-7.63,7.23l-.1.04ZM54.43,158.91h26.96c3.93-1.66,6.19-3.78,6.9-6.47,1.49-5.6-4.12-12.9-9.07-19.34-2.63-3.42-5.11-6.65-6.41-9.43l-.08-.17,1-4.27.57.2c8.98,3.16,17.47,4.35,25.97,3.65,4.86-.4,13.39-1.74,15.89-6.24,1.11-2,.93-4.49-.54-7.4l-22.28-22.48,6.55-19.98.3-.07c4.17-.94,8.71-2.32,9.64-6.81,1.12-5.39-2-8.71-5.02-9.92-3.23-1.29-7.62-.74-10.17,3.38-.62,1-.71,2.05-.8,3.06-.11,1.18-.21,2.4-1.27,3.19-.72.53-18.03,6.48-19.45,6.34l-.19-.06c-2.77-1.43-6.33-5.35-10.1-9.5-4.1-4.52-8.34-9.19-11.1-9.94-2.22-.61-4.16-.35-5.75.76-3.14,2.19-5.11,7.62-5.86,16.15-1.45,16.57,4.74,32.85,16.98,44.68l.27.26-.14.34c-.28.66-.55,1.26-.81,1.84-1.22,2.7-2.1,4.65-1.52,8.19.12.74.51,1.4.89,2.04.37.62.71,1.2.82,1.85.34,2.03-1.91,7.11-4.52,12.98-2.15,4.84-4.38,9.84-4.65,12.31-.6,5.38,1.62,8.83,6.98,10.83ZM68.82,156.76c-4.92,0-9.96-.16-13.02-.44-4.21-.38-6.47-3.13-6.21-7.54l.04-.17,9.71-23.94.56.41c3.46,2.5,8.43.65,9.87.02l.18-.08.19.06c.59.18.95.58,1.27.94.1.11.19.21.29.31,1.36,1.31,13.96,19.95,14.35,21.21.65,2.14.4,4.33-.68,5.98-1.02,1.56-2.7,2.55-4.72,2.78-2.68.31-7.21.45-11.83.45ZM50.67,148.94c-.14,2.67.67,5.89,5.23,6.3,5.89.54,19.14.63,24.63-.01,1.7-.2,3.1-1.02,3.94-2.3.91-1.39,1.11-3.24.55-5.07-.42-1.21-12.91-19.63-14.06-20.75-.12-.12-.23-.24-.35-.37-.21-.23-.39-.44-.62-.56-1.71.71-6.46,2.32-10.16.15l-9.16,22.61ZM64.25,124.22c-1.76,0-3.57-.67-5.15-2.25-1.99-1.99-2.7-4.49-2-7.04.77-2.81,3.18-5.18,5.99-5.9,2.51-.64,4.95.11,6.87,2.1h0c3.59,3.73,2.42,8.18-.19,10.74-1.46,1.43-3.45,2.35-5.51,2.35ZM64.81,109.9c-.48,0-.97.06-1.46.19-2.44.62-4.54,2.68-5.21,5.13-.59,2.16.02,4.28,1.72,5.99,3.07,3.07,6.89,2.1,9.13-.11,2.24-2.2,3.25-6.02.17-9.21-1.26-1.31-2.77-1.99-4.36-1.99ZM94.85,120.89c-4.07,0-8.2-.45-12.23-1.34-.95-.21-6.78-1.84-7.65-2.59-.47-.41-.68-1.17-.97-2.21-.56-2.01-1.33-4.75-4.3-6.59-2.66-1.64-4.51-1.3-6.3-.97-1.03.19-2.09.39-3.22.17-.91-.17-5.29-4.92-5.33-4.96-9.31-10.77-13.86-25.82-12.15-40.24,1.05-8.95,3.42-13.49,7.02-13.49h0c1.46,0,2.7.97,3.17,1.38l60.2,60.23c1.46,1.89,1.88,3.56,1.29,5-1.4,3.48-8.33,4.52-11.66,5.02-2.56.39-5.2.58-7.86.58ZM65.71,105.83c1.3,0,2.78.31,4.55,1.41,3.34,2.06,4.21,5.17,4.78,7.22.2.73.41,1.49.64,1.68.52.44,5.57,1.99,7.17,2.35,6.54,1.45,13.35,1.71,19.7.75,2.88-.43,9.64-1.45,10.81-4.35.43-1.06.06-2.37-1.1-3.88l-60.13-60.15c-.76-.67-1.67-1.09-2.42-1.09-2.03,0-4.72,2.17-5.94,12.53-1.67,14.13,2.78,28.86,11.9,39.4.81.93,4.2,4.36,4.77,4.63.87.16,1.79-.01,2.76-.19.78-.14,1.61-.3,2.52-.3ZM91.3,85.13l-7.49-7.5.43-.38c1.73-1.53,3.42-3.34,5.05-5.1,1.84-1.98,3.75-4.04,5.76-5.72.16-.14.3-.29.43-.45.44-.49,1.03-1.17,2.2-.89l.59.14-6.97,19.9ZM85.39,77.67l5.46,5.46,5.91-16.9c-.14.1-.29.25-.47.46-.17.19-.35.39-.55.56-1.96,1.64-3.84,3.66-5.66,5.62-1.51,1.63-3.07,3.31-4.69,4.79ZM82.36,75.58l-6.92-6.31-.03-.19c-.1-.59-.1-.99.14-1.27.23-.27.54-.26.74-.26.11,0,.21,0,.3-.04,4.18-1.67,8.74-2.95,13.15-4.2,1.54-.44,3.07-.87,4.57-1.31l2.02-.6-13.97,14.17ZM76.46,68.73l5.86,5.35,10.29-10.44c-.85.24-1.71.49-2.58.73-4.38,1.24-8.91,2.52-13.04,4.16-.21.08-.4.11-.55.11,0,.03,0,.06.01.09ZM101.43,63.79c-1.45,0-2.72-.46-3.69-1.37-1.53-1.42-2.17-3.81-1.64-6.09.48-2.05,1.79-3.53,3.6-4.08,4.12-1.24,6.92,1.23,7.78,4.05.83,2.72-.12,6.02-3.55,7.08-.87.27-1.71.4-2.49.4ZM99.84,52.77l.16.52c-1.43.43-2.47,1.63-2.85,3.29-.44,1.87.1,3.9,1.32,5.05,1.22,1.13,2.99,1.38,5.13.72,2.87-.89,3.48-3.59,2.83-5.72-.71-2.32-3.03-4.35-6.43-3.33l-.16-.52Z"/>
  </g>
  <g>
    <path class="cls-1" d="M114.84,20.54c9.83,3.64,18.23,9.58,23.57,18.72,1.07,1.84,4.65,8.82,4.17,10.52-.32,1.13-2.44,1.71-3.21.23-1.18-2.29-1.78-5.24-3.22-7.88-4.82-8.91-13.94-15.92-23.73-18.57l.56-3.03h1.85Z"/>
    <path class="cls-1" d="M140.83,51.46c-.84,0-1.56-.43-1.95-1.18-.57-1.1-.99-2.3-1.44-3.58-.5-1.43-1.02-2.91-1.77-4.29-4.69-8.66-13.65-15.67-23.39-18.3l-.48-.13.74-3.97,2.49.03c10.82,4.01,18.84,10.39,23.85,18.96.05.08,4.87,8.67,4.22,10.95-.22.79-1.05,1.41-2.01,1.5-.09,0-.17.01-.25.01ZM113.05,23.18c9.83,2.8,18.83,9.93,23.58,18.7.79,1.46,1.32,2.98,1.84,4.45.44,1.24.85,2.42,1.38,3.45.3.58.84.62,1.13.59.5-.05.98-.37,1.08-.72.36-1.26-2.5-7.34-4.11-10.1-4.86-8.33-12.66-14.53-23.2-18.46h-1.3l-.39,2.1Z"/>
  </g>
  <g>
    <path class="cls-1" d="M127.18,50.79c-3.71.51-4.51-3.94-6.78-6.49-.74-.84-1.66-1.7-2.54-2.4-1.91-1.53-6.98-2.87-4.91-5.63,1.98-1.37,7.87,3.47,9.31,4.93,1.23,1.25,6.44,8.05,4.91,9.6Z"/>
    <path class="cls-1" d="M126.6,51.38c-2.48,0-3.69-2.09-4.86-4.12-.53-.91-1.08-1.86-1.74-2.6-.72-.81-1.62-1.66-2.47-2.34-.47-.37-1.16-.75-1.9-1.14-1.64-.89-3.34-1.8-3.65-3.22-.15-.66.04-1.34.55-2.02l.13-.12c2.75-1.9,9.94,4.93,10.01,5,.08.08,7.11,8.14,4.9,10.36l-.13.13-.18.02c-.23.03-.45.05-.66.05ZM113.34,36.67c-.27.39-.37.74-.3,1.06.2.93,1.75,1.76,3.11,2.49.78.42,1.52.82,2.06,1.25.9.71,1.84,1.61,2.6,2.47.73.82,1.31,1.82,1.86,2.78,1.15,1.99,2.14,3.72,4.21,3.56.59-1.29-3.21-6.89-5-8.7-1.91-1.94-7.04-5.72-8.55-4.91Z"/>
  </g>
</svg>