<?xml version="1.0" encoding="UTF-8"?>
<svg id="Layer_2" data-name="Layer 2" xmlns="http://www.w3.org/2000/svg" viewBox="0 0 200 168">
  <defs>
    <style>
      .cls-1 {
        fill: #fff;
      }

      .cls-2 {
        fill: #57a47b;
      }
    </style>
  </defs>
  <g id="Layer_1-2" data-name="Layer 1">
    <g>
      <polygon class="cls-2" points="0 83.99 50 168 150 168 200 83.99 150 0 50 0 0 83.99"/>
      <g>
        <g>
          <path class="cls-1" d="M71.36,147.54c-4.96-1.83-7.45-5.03-6.83-10.53.55-4.95,9-19.86,8.45-23.13-.19-1.09-1.34-2.14-1.58-3.59-.68-4.12.7-6.01,2.18-9.51-11.14-10.76-17.14-25.94-15.78-41.52.55-6.27,2.42-18.42,11.31-16,5.01,1.36,14.28,15.19,19.6,17.92.92.09,16.74-5.14,17.55-5.74,1.51-1.11.45-3.46,1.78-5.61,4.76-7.7,16.9-3.25,14.9,6.38-.92,4.44-5.43,5.79-9.25,6.65l-5.84,17.83,20.34,20.53c5.19,10.16-6.98,12.73-14.5,13.35-8.3.68-16.31-.65-24.1-3.39l-.75,3.21c4.49,9.61,25.11,25.78,7.54,33.13h-25ZM67.1,46.1c-4.36,0-5.56,8.6-5.96,11.97-1.53,12.93,2.53,26.77,11.07,36.65.63.73,4.11,4.31,4.62,4.4,2.66.51,4.88-1.71,8.93.8,4.26,2.63,3.91,7.27,4.92,8.15.63.55,5.65,2.01,6.82,2.27,5.91,1.31,12.33,1.6,18.31.69,4.45-.67,13.97-2.23,9.26-8.38l-55.38-55.4c-.69-.61-1.65-1.15-2.58-1.15ZM113.24,49.37c-5.07,1.53-4.02,11.64,3.61,9.28,5.84-1.81,3.03-11.29-3.61-9.28ZM108.29,58.35c-5.34,1.58-11.1,3-16.26,5.05-.58.23-.97-.31-.78.9l5.88,5.36,11.16-11.32ZM111.13,61.19c-1.07-.25-1.35.59-1.99,1.13-3.45,2.89-6.51,6.93-9.93,9.94l5.96,5.96,5.96-17.04ZM85.37,103.42c-5.86-6.09-15.3,3.25-9.28,9.28,5.91,5.91,15.27-3.05,9.28-9.28ZM76.19,116.31l-8.69,21.44c-.22,3.7,1.52,6.07,5.26,6.41,5.33.49,17.56.59,22.77-.01,3.8-.44,5.64-3.85,4.56-7.43-.34-1.12-11.94-18.22-13.07-19.31-.39-.38-.68-.86-1.24-1.03-2.92,1.27-6.84,1.9-9.58-.07Z"/>
          <path class="cls-1" d="M96.46,148.04l-25.27-.03c-5.42-2-7.77-5.61-7.16-11.05.27-2.42,2.35-7.1,4.36-11.62,2.04-4.59,4.36-9.8,4.09-11.37-.07-.42-.34-.88-.63-1.36-.38-.64-.8-1.36-.95-2.23-.59-3.56.32-5.57,1.47-8.12.19-.43.4-.88.6-1.35-11.32-11.07-17.03-26.25-15.68-41.68.71-8.15,2.67-13.4,5.81-15.59,1.72-1.2,3.78-1.48,6.12-.84,2.82.77,6.64,4.98,10.69,9.44,3.2,3.53,6.51,7.18,8.9,8.46,1.51-.19,16.15-4.99,17.14-5.64.58-.43.67-1.12.76-2.21.09-1,.19-2.13.88-3.25,2.65-4.29,7.22-4.85,10.58-3.51,3.39,1.35,6.32,5.04,5.23,10.26-1.03,4.95-6.3,6.28-9.35,6.98l-5.66,17.27,20.22,20.43c1.54,3.03,1.72,5.66.51,7.82-2.4,4.31-9.71,5.78-15.42,6.25-7.8.64-15.58-.42-23.78-3.23l-.59,2.5c1.17,2.42,3.38,5.3,5.71,8.34,4.69,6.11,10.01,13.03,8.52,18.66-.75,2.81-3.04,4.99-7.02,6.66l-.09.04ZM71.45,147.04h24.81c3.62-1.53,5.7-3.48,6.35-5.95,1.37-5.15-3.79-11.87-8.34-17.79-2.42-3.15-4.7-6.12-5.9-8.68l-.07-.16.92-3.92.53.19c8.26,2.91,16.07,4.01,23.9,3.36,4.47-.37,12.32-1.6,14.62-5.74,1.02-1.84.86-4.13-.49-6.81l-20.5-20.69,6.03-18.39.28-.06c3.84-.87,8.01-2.14,8.87-6.27,1.03-4.96-1.84-8.02-4.62-9.13-2.97-1.18-7.02-.68-9.36,3.11-.57.92-.65,1.88-.74,2.81-.1,1.09-.2,2.21-1.17,2.93-.66.49-16.59,5.96-17.9,5.83l-.18-.05c-2.55-1.31-5.82-4.92-9.29-8.74-3.77-4.16-7.67-8.45-10.21-9.15-2.05-.56-3.82-.32-5.29.7-2.89,2.01-4.7,7.01-5.39,14.86-1.33,15.25,4.36,30.23,15.62,41.12l.25.24-.13.32c-.25.6-.51,1.16-.75,1.69-1.12,2.48-1.94,4.28-1.4,7.54.11.68.47,1.29.82,1.88.34.57.66,1.11.76,1.71.32,1.87-1.76,6.54-4.16,11.95-1.98,4.45-4.03,9.06-4.28,11.33-.55,4.95,1.49,8.12,6.43,9.97ZM84.69,145.06c-4.53,0-9.16-.15-11.98-.4-3.87-.35-5.96-2.88-5.71-6.94l.04-.16,8.93-22.03.52.37c3.18,2.3,7.76.6,9.09.02l.17-.07.18.06c.54.17.87.54,1.17.86.09.1.18.2.27.29,1.25,1.21,12.85,18.36,13.2,19.52.6,1.97.37,3.98-.63,5.51-.94,1.43-2.48,2.34-4.35,2.56-2.47.29-6.63.42-10.89.42ZM67.99,137.86c-.13,2.46.62,5.42,4.81,5.8,5.42.49,17.62.58,22.66-.01,1.56-.18,2.85-.93,3.62-2.12.84-1.28,1.02-2.98.51-4.67-.39-1.11-11.88-18.07-12.94-19.09-.11-.11-.22-.22-.32-.34-.19-.21-.36-.4-.57-.51-1.58.66-5.94,2.14-9.35.14l-8.43,20.8ZM80.49,115.11c-1.62,0-3.29-.61-4.74-2.07-1.83-1.83-2.49-4.14-1.84-6.48.71-2.59,2.93-4.77,5.51-5.43,2.31-.59,4.56.1,6.32,1.93h0c3.3,3.43,2.22,7.53-.18,9.88-1.34,1.32-3.17,2.16-5.07,2.16ZM81,101.94c-.44,0-.89.06-1.34.17-2.25.57-4.18,2.47-4.79,4.72-.54,1.98.02,3.94,1.59,5.51,2.83,2.83,6.34,1.93,8.41-.1,2.06-2.02,2.99-5.54.16-8.48-1.16-1.2-2.55-1.83-4.01-1.83ZM108.64,112.05c-3.74,0-7.55-.41-11.25-1.23-.87-.19-6.24-1.69-7.04-2.38-.43-.38-.63-1.07-.9-2.03-.51-1.85-1.22-4.37-3.96-6.06-2.45-1.51-4.15-1.19-5.8-.89-.95.17-1.92.36-2.96.16-.84-.16-4.87-4.53-4.9-4.57-8.57-9.91-12.75-23.76-11.18-37.03.97-8.23,3.14-12.41,6.46-12.41h0c1.34,0,2.49.89,2.92,1.27l55.4,55.42c1.34,1.74,1.73,3.27,1.19,4.6-1.29,3.2-7.66,4.16-10.73,4.62-2.36.36-4.79.53-7.24.53ZM81.83,98.19c1.2,0,2.56.29,4.19,1.29,3.07,1.9,3.87,4.76,4.4,6.65.19.67.38,1.37.59,1.55.48.41,5.13,1.83,6.6,2.16,6.02,1.33,12.29,1.57,18.13.69,2.65-.4,8.87-1.34,9.95-4.01.4-.98.05-2.18-1.01-3.57l-55.33-55.35c-.7-.62-1.54-1-2.23-1-1.87,0-4.34,2-5.46,11.53-1.53,13,2.56,26.55,10.95,36.26.74.86,3.87,4.01,4.39,4.26.8.15,1.64,0,2.54-.17.72-.13,1.48-.27,2.32-.27ZM105.38,79.14l-6.9-6.9.4-.35c1.59-1.41,3.14-3.08,4.64-4.69,1.7-1.83,3.45-3.71,5.3-5.26.15-.12.28-.27.4-.41.4-.45.95-1.07,2.03-.82l.54.13-6.41,18.31ZM99.94,72.28l5.02,5.03,5.44-15.55c-.13.09-.26.23-.43.43-.16.18-.32.36-.51.51-1.8,1.51-3.53,3.37-5.21,5.18-1.39,1.5-2.83,3.05-4.32,4.4ZM97.15,70.36l-6.37-5.81-.03-.17c-.09-.54-.1-.91.13-1.17.21-.25.49-.24.68-.24.1,0,.19,0,.28-.03,3.85-1.53,8.04-2.72,12.1-3.86,1.42-.4,2.83-.8,4.21-1.21l1.86-.55-12.86,13.04ZM91.72,64.05l5.4,4.92,9.47-9.61c-.79.23-1.58.45-2.37.67-4.03,1.14-8.2,2.31-12,3.83-.19.08-.36.1-.5.1,0,.02,0,.05,0,.08ZM114.7,59.5c-1.34,0-2.51-.42-3.4-1.26-1.41-1.31-2-3.51-1.51-5.6.44-1.88,1.64-3.25,3.31-3.75,3.79-1.14,6.37,1.13,7.16,3.73.76,2.5-.11,5.54-3.26,6.51-.8.25-1.57.37-2.3.37ZM113.24,49.37l.14.48c-1.31.4-2.27,1.5-2.62,3.02-.4,1.73.09,3.59,1.22,4.64,1.12,1.04,2.75,1.27,4.72.66,2.64-.82,3.2-3.3,2.6-5.27-.65-2.14-2.79-4-5.92-3.06l-.14-.48Z"/>
        </g>
        <g>
          <path class="cls-1" d="M127.04,19.71c9.04,3.35,16.77,8.82,21.69,17.23.99,1.69,4.28,8.12,3.84,9.69-.3,1.04-2.25,1.58-2.95.21-1.09-2.11-1.64-4.82-2.96-7.26-4.44-8.2-12.83-14.65-21.83-17.09l.52-2.79h1.7Z"/>
          <path class="cls-1" d="M150.96,48.16c-.78,0-1.43-.4-1.79-1.09-.52-1.01-.91-2.12-1.33-3.3-.46-1.32-.94-2.68-1.63-3.95-4.31-7.97-12.56-14.42-21.52-16.84l-.45-.12.68-3.65,2.29.03c9.96,3.69,17.34,9.56,21.94,17.45.05.08,4.48,7.98,3.88,10.07-.21.73-.97,1.29-1.85,1.38-.08,0-.16.01-.23.01ZM125.39,22.14c9.05,2.58,17.33,9.14,21.7,17.21.73,1.34,1.22,2.74,1.69,4.09.4,1.14.78,2.22,1.27,3.17.27.53.77.57,1.04.54.46-.05.9-.34.99-.66.33-1.16-2.3-6.75-3.79-9.3-4.47-7.66-11.65-13.38-21.34-16.98h-1.2l-.36,1.93Z"/>
        </g>
        <g>
          <path class="cls-1" d="M138.4,47.55c-3.41.47-4.15-3.63-6.23-5.97-.68-.77-1.53-1.57-2.33-2.21-1.76-1.4-6.42-2.64-4.51-5.18,1.82-1.26,7.24,3.19,8.57,4.54,1.13,1.15,5.93,7.41,4.52,8.83Z"/>
          <path class="cls-1" d="M137.86,48.08c-2.28,0-3.39-1.92-4.47-3.79-.49-.84-.99-1.71-1.6-2.39-.66-.74-1.49-1.53-2.27-2.15-.43-.34-1.07-.69-1.75-1.05-1.51-.82-3.08-1.66-3.36-2.96-.13-.61.04-1.24.51-1.86l.12-.11c2.53-1.75,9.14,4.54,9.21,4.6.07.07,6.55,7.49,4.51,9.53l-.12.12-.17.02c-.21.03-.41.04-.6.04ZM125.66,34.55c-.25.36-.34.68-.28.97.19.85,1.61,1.62,2.86,2.3.72.39,1.4.75,1.89,1.15.82.66,1.7,1.48,2.4,2.27.67.76,1.2,1.67,1.71,2.56,1.06,1.83,1.97,3.43,3.87,3.28.54-1.19-2.96-6.34-4.6-8.01-1.75-1.78-6.48-5.26-7.86-4.52Z"/>
        </g>
      </g>
    </g>
  </g>
</svg>