<?xml version="1.0" encoding="UTF-8"?>
<svg id="Layer_2" data-name="Layer 2" xmlns="http://www.w3.org/2000/svg" viewBox="0 0 200 168">
  <defs>
    <style>
      .cls-1 {
        fill: #fff;
      }

      .cls-2 {
        fill: #57a47b;
      }
    </style>
  </defs>
  <g id="Layer_1-2" data-name="Layer 1">
    <g>
      <polygon class="cls-2" points="0 83.99 50 168 150 168 200 83.99 150 0 50 0 0 83.99"/>
      <path class="cls-1" d="M64.19,63.42c-4.36,0-8.66-2.02-11.39-5.82-2.18-3.04-3.05-6.74-2.45-10.43.6-3.69,2.61-6.93,5.65-9.11,3.04-2.18,6.75-3.05,10.43-2.45,3.69.6,6.93,2.61,9.11,5.65,4.51,6.27,3.07,15.04-3.2,19.54-2.47,1.77-5.32,2.63-8.16,2.63ZM64.16,41.42c-1.62,0-3.25.49-4.66,1.5-1.74,1.25-2.88,3.1-3.23,5.21-.34,2.11.15,4.23,1.4,5.96,2.58,3.58,7.59,4.4,11.17,1.83,3.58-2.58,4.4-7.59,1.83-11.17-1.56-2.17-4.02-3.33-6.51-3.33Z"/>
      <path class="cls-1" d="M141.49,126.42c-3.52,0-6.82-1.35-9.32-3.81l-15-14.73-22.47,2.25c-4.17.63-8.42-.76-11.39-3.72-.31-.31-.56-.58-.79-.86-.07-.08-.15-.18-.24-.29l-.06-.08c-.14-.17-.23-.29-.32-.41l-15.21-21.09c-2.07-2.88-2.89-6.4-2.32-9.91.57-3.51,2.47-6.58,5.35-8.65,2.87-2.07,6.39-2.89,9.9-2.31,3.51.57,6.58,2.47,8.65,5.35l10.71,14.83,21.84-2.18c4.34-.44,8.61,1.3,11.45,4.63l18.56,18.23c2.52,2.48,3.93,5.81,3.96,9.37.03,3.56-1.32,6.91-3.81,9.43-2.48,2.52-5.81,3.93-9.37,3.96-.04,0-.07,0-.11,0ZM119.37,101.63l17,16.7c1.38,1.36,3.23,2.11,5.18,2.08,1.96-.02,3.78-.78,5.14-2.16,1.36-1.38,2.1-3.22,2.08-5.17-.02-1.96-.78-3.78-2.16-5.14l-18.86-18.55c-1.56-1.88-3.94-2.86-6.34-2.62l-25.28,2.53-12.74-17.64c-1.13-1.58-2.82-2.62-4.75-2.93-1.93-.32-3.86.13-5.43,1.26-1.57,1.13-2.61,2.82-2.93,4.75-.32,1.93.13,3.86,1.26,5.43l15.54,21.5c.15.18.29.32.42.46,1.67,1.66,4.03,2.42,6.34,2.06l.17-.02,25.35-2.54Z"/>
    </g>
  </g>
</svg>