<?xml version="1.0" encoding="UTF-8"?>
<svg id="Layer_1" data-name="Layer 1" xmlns="http://www.w3.org/2000/svg" viewBox="0 0 180 180">
  <defs>
    <style>
      .cls-1 {
        fill: #57a47b;
      }
    </style>
  </defs>
  <g>
    <path class="cls-1" d="M76.39,30.89c.18-.86,2.07-.74,2.78-.65.51.07.81.39.78.92l-.04,19.2-.14.35c-.62.25-3.38.49-3.38-.46v-8.26l-.21-.21h-2.42l-.21.21v8.11c0,.11-.26.52-.34.65-.29.22-2.78.21-3.04-.05l-.14-.35-.04-19.06.18-.89c.78-.22,3.38-.58,3.38.61v6.83l.21.21h2.42l.21-.21v-6.98Z"/>
    <path class="cls-1" d="M41.9,30c3.05-.05,4.21.97,4.68,3.92.52,3.21.68,11.97-.38,14.91-.64,1.77-1.98,2.28-3.77,2.35-2.06.08-3.82-.34-4.56-2.43-.97-2.72-.96-13.51-.04-16.26.67-1.99,2.07-2.46,4.07-2.5ZM42.73,34c-.78-.57-1.53-.04-1.75.8-.48,1.84-.35,7.93-.2,10.04.08,1.11.17,2.8,1.75,2.32.37-.11.6-.84.66-1.19.4-2.48.37-8.43-.02-10.91-.04-.26-.24-.91-.43-1.06Z"/>
    <path class="cls-1" d="M52.72,30c1.63-.03,3.19.22,4.02,1.74,1.32,2.42,1.14,11.15.85,14.1-.3,3.1-.78,5.2-4.34,5.35-2.08.09-3.81-.32-4.56-2.43-.97-2.73-.96-13.49-.04-16.26.67-1.99,2.07-2.46,4.07-2.5ZM52.07,47.02c.31.3,1.31.27,1.6-.11.33-.43.46-2.16.5-2.78.15-2.52.19-6.49-.15-8.96-.12-.87-.84-1.8-1.75-1.21-.45.29-.62,1.65-.66,2.19-.18,2.42-.17,6.27,0,8.7.03.42.23,1.93.47,2.17Z"/>
    <path class="cls-1" d="M63.55,30c1.42-.02,2.96.17,3.79,1.4,1.6,2.38,1.24,9.52,1.08,12.45-.18,3.46.16,7.15-4.34,7.34-2.37.1-4.04-.43-4.71-2.85-.79-2.86-.82-12.83.03-15.63.65-2.12,2.03-2.67,4.15-2.7ZM63.39,33.84c-.83.17-.9,1.49-.96,2.18-.15,2.01-.27,8.63.21,10.33.1.34.19.77.57.85,1.24.24,1.52-.4,1.64-1.5.31-2.88.36-7.52-.01-10.38-.11-.81-.45-1.69-1.45-1.49Z"/>
    <path class="cls-1" d="M31.17,30.25h3.99c.14,0,.57.7.5.92-.41,6.02.53,12.73,0,18.66-.15,1.74-2.03.93-3.28.99-.28-.14-.37-.84-.41-1.16-.51-4.83.34-10.45-.01-15.36.09-.8-.97-.25-1.13-.72.04-.52-.26-3.33.34-3.33Z"/>
  </g>
  <path class="cls-1" d="M144.62,56.39l-14.36,6.81c-.77.32-1.3-.1-1.56-.31l-.09-.07c-1.55-1.18-2.73-3.59-3.06-4.3-.77-1.69-1.58-3.89-1.05-4.76l.09-.15,13.84-8.7c1.28-1.82,1.6-3.33.96-4.49-1.58-2.85-8.56-3.71-13.01-3.4-12.1.83-20.68,8.73-21.35,19.67-.04.69.02,1.49.09,2.26.07.9.15,1.83.06,2.62-.07.68-.37,1.37-.81,1.9l-51.76,51.89-.11.05c-1.07.55-2.2.79-3.29,1.02-.77.16-1.56.33-2.32.61-6.22,2.26-10.4,7.9-10.91,14.71-.51,6.74,2.73,12.87,8.47,16,4.58,2.5,9.68,2.91,14.36,1.15,4.67-1.75,8.22-5.39,10-10.23.31-.84.48-1.73.64-2.58.24-1.25.49-2.55,1.19-3.74l.12-.15,52.04-51.89.17-.06c.72-.23,1.8,0,2.84.24.48.11.94.21,1.24.23,7.38.59,14.55-3.81,19.17-11.77,1.66-2.87,4.04-8.43,2.41-11.09-.66-1.08-2.02-1.58-4.04-1.5ZM63.94,136.39c-1.31,4.42-5.05,7.49-9.77,8.01-.46.05-.92.08-1.37.08-4.21,0-7.97-2.16-10-5.84-1.85-3.33-1.83-7.66.05-11.29,1.72-3.32,4.66-5.45,8.08-5.84,4.23-.47,8.31,1.1,10.91,4.21,2.48,2.95,3.24,6.84,2.11,10.68ZM141.93,65.67c-1.46,3.53-7.17,8.81-11.24,9.57-1.87.35-3.52.07-4.97-.17-2.38-.4-4.27-.72-6.75,1.33l-50.33,50.23-.47-.94c-1.87-3.7-4.73-6.64-8.06-8.28l-.33-.16-.25-1.12,49.32-49.3c1.62-2.26,1.68-4.87,1.74-7.65.04-1.85.08-3.76.6-5.65,1.95-7.14,8.77-11.27,18.2-11.1l2.01.04-1.53,1.3c-1.31,1.11-2.92,2-4.48,2.85-1.69.93-3.43,1.89-4.68,3.09-4.05,3.88-.19,12.41,3.11,16.1,4.2,4.69,7.69,2.94,12.53.52l.9-.45c.33-.17.75-.41,1.2-.67.88-.52,1.78-1.05,2.47-1.25.37-.11.73-.02.97.25.3.33.31.82.05,1.45Z"/>
</svg>