<?xml version="1.0" encoding="UTF-8"?>
<svg id="Layer_1" data-name="Layer 1" xmlns="http://www.w3.org/2000/svg" viewBox="0 0 180 180">
  <defs>
    <style>
      .cls-1 {
        fill: #57a47b;
      }
    </style>
  </defs>
  <path class="cls-1" d="M104.83,82.69v-3.46c0-.6,1.41-1.12,1.92-1.18.83-.1,4.99.12,5.26-.04,2.14-6.39,11.52-7.51,15.24-2,.44.65.69,1.35,1.1,2,1.75.28,5.13-.49,6.59.47.18.12.66.59.66.75v3.25c.12.2.28.19.49.22,2.04.24,4.54-.18,6.64,0,4.1.33,7.06,3.81,7.27,7.83v53.2c-.16,3.87-3.32,6.85-7.12,7.13h-45.6c-3.31-.4-6.28-2.89-6.71-6.28v-55.04c.19-3.06,3.76-6.85,6.85-6.85h7.41ZM113.79,82.27c-1.36.24-3.37-.18-4.8,0l-.21.21v6.49l.21.21h22.45l.21-.21v-6.49l-.21-.21h-4.94c-.22,0-1.07-.5-1.26-.71-.55-.63-.6-1.83-1.04-2.63-1.8-3.3-6.32-3.27-8.15-.05-.64,1.13-.63,3.1-2.25,3.39ZM104.83,86.92h-7.27c-1.26,0-3.22,2.4-3.04,3.73v52.93c.14,2.13,1.95,3.02,3.88,3.18h43.49c1.93-.04,3.91-1.05,4.02-3.18v-53.21c.03-1.27-1.82-3.46-3.04-3.46h-7.27v5.01c0,.42-1.17,1.43-1.69,1.42l-27.04.06c-.64.05-2.05-.86-2.05-1.48v-5.01Z"/>
  <path class="cls-1" d="M96.6,32.97c-9.95-5.48-21.53-5.05-30.99,1.15-9.44,6.19-14.45,16.61-13.4,27.88.93,10,6.91,19.08,15.62,23.69.71.37,1.48.68,2.23.97.51.2,1,.39,1.45.6-2.95.15-6.08.52-9.3,1.09-16.03,2.82-25.75,9.81-29.71,21.35-2.29,6.68-2.33,13.68-2.36,20.44v1.39c-.01.44-.04.92-.07,1.4-.08,1.26-.17,2.69.2,3.89.33,1.07,1.3,1.76,2.48,1.76h.01c1.15,0,2.09-.67,2.39-1.7.38-1.28.26-3.02.16-4.55-.04-.63-.08-1.22-.09-1.73-.05-6.41.1-13.77,2.51-20.09,2.95-7.74,9.95-16.83,38.05-18.46h6.68s0-8.02,0-8.02h-.36s-.05,0-.07,0c-7.81,0-14.99-3.54-19.72-9.72-4.73-6.19-6.25-14.08-4.18-21.65,1.88-6.83,6.34-12.36,12.58-15.56,6.25-3.21,13.38-3.63,20.08-1.16,11.22,4.14,18.03,16.19,15.84,28.03l-.08.42h5.12l.05-.3c2.14-12.45-3.93-24.96-15.12-31.12Z"/>
  <path class="cls-1" d="M102.96,133.53l34.97-.04c3.5.44,3.43,4.02-.14,4.37h-34.44c-3.41-.31-3.8-3.66-.39-4.34Z"/>
  <path class="cls-1" d="M103.24,117.87l34.4-.04c3.54.32,3.96,3.67.43,4.37h-35.01c-3.39-.55-3.3-3.92.18-4.34Z"/>
  <path class="cls-1" d="M102.67,102.34l35.54-.03c3.01.53,3.03,3.7,0,4.23h-35.29c-2.95-.44-3.21-3.48-.25-4.2Z"/>
</svg>