<?xml version="1.0" encoding="UTF-8"?>
<svg id="Layer_1" data-name="Layer 1" xmlns="http://www.w3.org/2000/svg" viewBox="0 0 180 180">
  <defs>
    <style>
      .cls-1 {
        fill: #57a47b;
      }
    </style>
  </defs>
  <path class="cls-1" d="M124.91,90.71c-1.97-3.34-4.58-6.3-7.12-9.16-1.74-1.97-3.54-4-5.11-6.13-8.94-12.2-13.19-27.51-11.64-42,.04-.39.13-.84.23-1.32.32-1.57.69-3.35-.37-4.41h0c-.65-.65-2.09-.77-2.89-.45-.52.21-1.72,1.55-3.35,3.49l-.34.4c-11.83,13.8-22.32,28.41-30.35,42.25-11.43,19.73-20.33,40.72-8.1,60.59,7.41,12.05,19.91,18.98,33.88,18.98,1.11,0,2.24-.04,3.37-.13,15.25-1.2,27.84-10.28,33.68-24.28,4.89-11.74,4.1-27.65-1.89-37.82ZM95.73,42.69c.6,13.4,6.17,27.56,15.29,38.86,1.22,1.51,2.44,2.89,3.61,4.21,3.68,4.16,6.87,7.75,8.67,13.78,3.21,10.77,1.97,22.22-3.42,31.4-4.87,8.3-12.79,14.04-22.29,16.16-11.92,2.66-23.55-.58-31.92-8.87-8.71-8.64-12.31-21.29-9.62-33.83,3.42-15.92,15.35-36.72,35.48-61.83.52-.65,1.06-1.29,1.59-1.93.88-1.05,1.79-2.13,2.62-3.25.03.85.01,1.71-.01,2.55-.02.9-.04,1.83,0,2.75Z"/>
  <path class="cls-1" d="M106.34,135.79c.13,0,.26,0,.4-.03,1.52-.22,4.77-3.87,4.8-3.9,6.23-7.03,8.63-17.31,6.6-28.19l-.07-.39c-.37-2.03-.99-5.43-3.81-4.95-1.01.17-1.88,1.08-1.98,2.07-.07.74.15,1.41.37,2.06.11.32.21.63.28.94,1.5,7.03,1.85,17.07-5.08,24.97-.26.3-.81.81-1.4,1.34-1.38,1.27-2.3,2.13-2.47,2.64-.3.91-.13,1.86.46,2.56.48.57,1.16.88,1.9.88Z"/>
</svg>