<?xml version="1.0" encoding="UTF-8"?>
<svg id="Layer_1" data-name="Layer 1" xmlns="http://www.w3.org/2000/svg" viewBox="0 0 180 180">
  <defs>
    <style>
      .cls-1 {
        fill: #57a47b;
      }
    </style>
  </defs>
  <path class="cls-1" d="M149.44,54.64l-26.08,25.99c-.19.43.56,1.46.75,1.95,5.19,13.38-6.31,26.91-20.34,23.93-11.38-2.42-17.27-15.46-11.77-25.69l-1.1-1.25-18.4,18.4c7.74,9.63,3.11,24.45-8.76,27.91-13.81,4.02-26.33-8.74-22.01-22.45,3.46-10.99,16.92-15.68,26.55-9.34h.3s20.74-20.75,20.74-20.75c2.72-1.86,4.45,1.41,6.24,2.93,6.61-6.34,17.56-6.31,24.2,0l25.62-25.84h-10.9c-.24,0-1.34-1.2-1.49-1.52-1.08-2.32.81-3.87,2.98-4.05,3.35-.26,6.88.11,10.22.16,1.99.03,4.05-.19,6-.14,1.32.03,2.67,1.11,2.8,2.46l-.04,17.69c-.52,2.35-3.57,2.97-4.99,1-.09-.12-.54-.91-.54-.97v-10.44ZM106.88,75.56c-10.81.7-16.68,13.09-10.1,21.87,7.19,9.61,22.49,5.68,24.37-6.11,1.34-8.43-5.73-16.31-14.27-15.76ZM56.83,95.39c-5.36.55-10.18,5-11.47,10.17-2.88,11.6,9.59,21.18,20.01,15.2,12.69-7.28,6.57-26.91-8.55-25.37Z"/>
  <path class="cls-1" d="M152.55,141.05c.19.03.7.32.91.45,2.39,1.46,1.33,5.27-1.5,5.27H27.93c-1.61,0-2.79-1.01-2.93-2.63V35.67c.24-2.15,2.87-3.16,4.57-1.86.23.18,1,1.22,1,1.41v105.61l.23.23h121.76Z"/>
  <path class="cls-1" d="M112.47,84.23l.44,1.89,1.2.05c.27-2.09,1.82-1.66.92.32.48.07,1.67.15,1.96.52.32.39.25,1.59.47,1.85.16.19.84.1.99.59.08.28.08,1.9.02,2.22-.18.98-1.92.32-2.61.55-.32.19-.27.59-.48.88-1.39,1.93-4.23,1.35-4.9-.87l-2.75-.18c-.45,1.69-2.1,2.7-3.79,1.99-.51-.21-.71-.57-1.17-.78-.12,0-.25.71-.42.86-.32.3-5.34.28-5.5.02v-.63c.14-.41.72-.14,1.03-.32.77-.45.79-3.09,1.26-3.85.23-.19,1.51-.21,1.8-.11.38.12.32.96.85.88.17-.41,1.72-3.12,1.9-3.16.81-.18,1.06,1.2,1.48,1.66.45-.49,2.81-1.63,3.04-1.99.04-.06.4-1.41.34-1.46l-.69-.14-.06-.76h4.66ZM111.71,85.14h-2.08c-.18.7-.92,2.16.21,2.39s.65-.27.96-.69c.21-.28.94-.25,1.05-.61l-.14-1.09ZM107.74,89.04h2.4c.43.4.16,1.12.23,1.65l1.15-1.33c1.59-.91,3.13-.57,4.04,1.02.13.23.18.63.29.76.23.28,1.22.16,1.59.08.74-1.53-.55-1.35-.83-1.74-.22-.3-.2-1.29-.38-1.69-.97-.41-3.65-1.09-4.51-.34-.26.22-.04.75-.29.92-.07.05-1.54.21-1.73.2-.55-.02-.91-.36-1.14-.83l-.2-.05-2.05,1.19c-.05.41.45.47.68.74.34.39.43.92.97,1.06.13-.16-.91-1.44-.22-1.65ZM104.77,89.82c-1.85.35-1.98,3.13-.03,3.42,2.87.42,2.4-3.86.03-3.42ZM112.89,89.82c-2.08.3-1.95,3.79.55,3.42,2.28-.34,1.57-3.72-.55-3.42ZM99.09,93.24h2.48c.14,0,.38-.51.31-.75-.03-.12-1.12-1.87-1.26-2.05-.95-1.2-1.07,1.51-1.24,2.12-.08.29-.31.4-.29.69Z"/>
  <path class="cls-1" d="M55.81,109.02l1.2-.08-.74-3.89-.93-.33.07-.52c1.44-.53,1.86.17,1.96,1.52l12.3.29.85,2.19-2.23,1.79c1.84,2.99-2.07,5.44-4,2.64-.88,1.29-2.77,1.72-3.93.55-.31-.31-.44-1.03-.6-1.16-.72-.6-2.6-1.1-3.51-.82-1.25.38-1.16,1.19-1.73,1.88-.79.96-2.54,1.05-3.46.16-.36-.34-.62-1.12-.77-1.22-.44-.28-1.49-.26-2.11-.56-1.37-.66-1.86-1.68-1.48-3.19.23-.46,3.08-1.12,3.32-1.49.48-.77-1.3-.4-.77-1.37l.18-.12c1.76.14,4-.26,5.7-.03.2.03.67.19.67.38v3.38ZM53.26,106.61c.05-.69-2.45-.69-2.4,0h2.4ZM67.91,106.76h-10.29l.45,2.78-.23.37h-2.71c-.55-.6.05-1.66-.37-2.34-.18-.12-3.68-.11-4.11-.03-.29.05-2.96,1.17-3.04,1.31-.7,1.15,1.83,2.33,2.77,2.09.32-2.39,4.14-2.48,4.52-.14.47,0,.74-.48,1.16-.57,1.17-.26,2.58.06,3.58.71.35-.33.41-.84.74-1.2,1.01-1.09,3.26-.75,3.92.61.26-.48.72-.99,1.27-1.13.75-.2,1.68.14,2.1,0,.19-.06,1.75-1.23,1.77-1.35l-.4-.91c-.36,0-.85-.19-1.13-.22ZM51.66,110.42c-1.35,1.32.65,3.41,2.04,2.12s-.68-3.46-2.04-2.12ZM62.05,109.99c-1.55.04-1.99,2.43-.38,2.86,2.23.59,2.65-2.92.38-2.86ZM66.41,110c-1.86,0-2,3.04.15,2.94,1.76-.08,1.72-2.94-.15-2.94Z"/>
  <path class="cls-1" d="M50.52,110.03c-.18.1-.5,0-.72.03-.24-1.92,3.06-2.59,4.31-1.83.28.17.57.45.2.71-.47.33-1.91-.71-3.39.51-.19.16-.35.55-.4.58Z"/>
</svg>