<?xml version="1.0" encoding="UTF-8"?>
<svg id="Layer_2" data-name="Layer 2" xmlns="http://www.w3.org/2000/svg" viewBox="0 0 200 168">
  <defs>
    <style>
      .cls-1 {
        fill: #fff;
      }

      .cls-2 {
        fill: #57a47b;
      }
    </style>
  </defs>
  <g id="Layer_1-2" data-name="Layer 1">
    <g>
      <polygon class="cls-2" points="0 83.99 50 168 150 168 200 83.99 150 0 50 0 0 83.99"/>
      <path class="cls-1" d="M102.85,141.85h-7.87c-3.07,0-5.57-2.5-5.57-5.57v-3.35c0-.25-.17-.47-.42-.54-2.22-.67-4.38-1.56-6.42-2.66-.24-.13-.51-.09-.69.08l-2.37,2.37c-2.17,2.17-5.7,2.17-7.87,0l-5.56-5.56c-2.17-2.17-2.17-5.7,0-7.87l2.37-2.37c.18-.18.21-.45.08-.69-1.1-2.04-1.99-4.2-2.66-6.42-.08-.25-.29-.42-.54-.42h-3.35c-3.07,0-5.57-2.5-5.57-5.57v-7.87c0-3.07,2.5-5.57,5.57-5.57h3.35c.25,0,.47-.17.54-.42.67-2.22,1.56-4.38,2.66-6.42.13-.24.09-.51-.08-.69l-2.37-2.37c-2.17-2.17-2.17-5.7,0-7.87l5.56-5.56c2.17-2.17,5.7-2.17,7.87,0l2.37,2.37c.18.18.45.21.69.08,2.04-1.1,4.2-1.99,6.42-2.66.25-.08.42-.29.42-.54v-3.35c0-3.07,2.5-5.57,5.57-5.57h7.87c3.07,0,5.57,2.5,5.57,5.57v3.35c0,.25.17.47.42.54,2.22.67,4.38,1.56,6.42,2.66.24.13.51.09.69-.08l2.37-2.37c2.17-2.17,5.7-2.17,7.87,0l5.56,5.56c1.05,1.05,1.63,2.45,1.63,3.94s-.58,2.89-1.63,3.94l-2.37,2.37c-.18.18-.21.45-.08.69,1.1,2.04,1.99,4.2,2.66,6.42.08.25.29.42.54.42h3.35c3.07,0,5.57,2.5,5.57,5.57v7.87c0,3.07-2.5,5.57-5.57,5.57h-3.35c-.25,0-.47.17-.54.42-.67,2.22-1.56,4.38-2.66,6.42-.13.24-.09.51.08.69l2.37,2.37c1.05,1.05,1.63,2.45,1.63,3.94s-.58,2.89-1.63,3.94l-5.56,5.56c-2.17,2.17-5.7,2.17-7.87,0l-2.37-2.37c-.18-.17-.45-.21-.69-.08-2.04,1.1-4.2,1.99-6.42,2.66-.25.08-.42.29-.42.54v3.35c0,3.07-2.5,5.57-5.57,5.57ZM82.28,124.65c.91,0,1.83.22,2.68.68,1.74.94,3.59,1.7,5.48,2.27,2.39.72,3.99,2.86,3.99,5.33v3.35c0,.31.25.57.57.57h7.87c.31,0,.57-.25.57-.57v-3.35c0-2.47,1.6-4.62,3.99-5.33,1.89-.57,3.74-1.33,5.48-2.27,2.19-1.18,4.85-.8,6.59.95l2.37,2.37c.28.27.53.27.8,0l5.56-5.56c.14-.14.17-.29.17-.4s-.03-.26-.17-.4l-2.37-2.37c-1.75-1.75-2.13-4.4-.95-6.59.94-1.74,1.7-3.59,2.27-5.48.72-2.39,2.86-3.99,5.33-3.99h3.35c.31,0,.57-.25.57-.57v-7.87c0-.31-.25-.57-.57-.57h-3.35c-2.47,0-4.62-1.6-5.33-3.99-.57-1.89-1.33-3.74-2.27-5.48-1.18-2.19-.8-4.84.95-6.59l2.37-2.37c.14-.14.17-.29.17-.4s-.03-.26-.17-.4l-5.56-5.56c-.22-.22-.58-.22-.8,0l-2.37,2.37c-1.75,1.75-4.4,2.13-6.59.95-1.74-.94-3.59-1.7-5.48-2.27-2.39-.72-3.99-2.86-3.99-5.33v-3.35c0-.31-.25-.57-.57-.57h-7.87c-.31,0-.57.25-.57.57v3.35c0,2.47-1.6,4.62-3.99,5.33-1.89.57-3.74,1.33-5.48,2.27-2.19,1.18-4.85.8-6.59-.95l-2.37-2.37c-.22-.22-.58-.22-.8,0l-5.56,5.56c-.22.22-.22.58,0,.8l2.37,2.37c1.75,1.75,2.13,4.4.95,6.6-.94,1.74-1.7,3.59-2.27,5.48-.72,2.39-2.86,3.99-5.33,3.99h-3.35c-.31,0-.57.25-.57.57v7.87c0,.31.25.57.57.57h3.35c2.47,0,4.62,1.6,5.33,3.99.57,1.89,1.33,3.74,2.27,5.48,1.18,2.19.8,4.85-.95,6.59l-2.37,2.37c-.22.22-.22.58,0,.8l5.56,5.56c.28.28.53.27.8,0l2.37-2.37c1.07-1.07,2.48-1.63,3.92-1.63Z"/>
      <path class="cls-1" d="M97.46,118.8c-6.88-.42-11.42-4.33-11.73-10.43h5.21c.1,3.34,2.55,5.53,6.52,5.94v-12.98l-1.88-.42c-6.15-1.41-9.33-4.85-9.33-10.22,0-5.94,4.43-10.17,11.21-10.74v-4.54h3.34v4.48c6.31.57,10.32,4.43,10.69,10.48h-5.06c-.21-3.34-2.24-5.47-5.63-5.94v12.93l2.03.47c6.26,1.41,9.28,4.69,9.28,9.91,0,6.2-4.43,10.38-11.31,11v4.54h-3.34v-4.48ZM97.46,96.59v-12.15c-3.86.52-6.2,2.76-6.2,6.1,0,3.02,1.72,4.95,5.37,5.84l.83.21ZM100.8,102.16v12.04c3.91-.52,6.31-2.76,6.31-6.05,0-3.02-1.72-4.95-5.32-5.79l-.99-.21Z"/>
      <path class="cls-1" d="M114.97,51.59c-1.38,0-2.5-1.12-2.5-2.5v-23.64c0-1.38,1.12-2.5,2.5-2.5s2.5,1.12,2.5,2.5v23.64c0,1.38-1.12,2.5-2.5,2.5Z"/>
      <path class="cls-1" d="M80.47,55.55c-1.38,0-2.5-1.12-2.5-2.5v-20.37c0-1.38,1.12-2.5,2.5-2.5s2.5,1.12,2.5,2.5v20.37c0,1.38-1.12,2.5-2.5,2.5Z"/>
    </g>
  </g>
</svg>