<?xml version="1.0" encoding="UTF-8"?>
<svg id="Layer_2" data-name="Layer 2" xmlns="http://www.w3.org/2000/svg" viewBox="0 0 200 168">
  <defs>
    <style>
      .cls-1 {
        fill: #fff;
      }

      .cls-2 {
        fill: #57a47b;
      }
    </style>
  </defs>
  <g id="Layer_1-2" data-name="Layer 1">
    <g>
      <polygon class="cls-2" points="0 83.99 50 168 150 168 200 83.99 150 0 50 0 0 83.99"/>
      <g>
        <path class="cls-1" d="M108.72,61.18l3.85,1.59c2.54-1.47,4.5-4.1,7.79-2.93,1.23.44,3.99,3.19,4.88,4.27,1.36,1.66,1.59,3.75.49,5.62-.29.5-2.55,3.41-2.51,3.63.62,1.25,1.21,2.54,1.58,3.9,2.83.64,6.78.35,7.85,3.76.43,1.36.45,6.26,0,7.59-1.07,3.1-4.91,3.06-7.59,3.57-.22.08-.78,1.82-.93,2.19-.24.6-.54,1.18-.82,1.76,1.53,2.64,4.32,4.69,2.73,8.09-.4.85-3.58,4.07-4.43,4.72-.74.58-1.98,1.02-2.91,1.02-2.42,0-4.07-2.21-6.11-3.11l-3.89,1.65c-.59,2.08-.32,4.72-1.82,6.42-.61.69-1.85,1.37-2.76,1.46-1.36.14-4.78.15-6.11-.03-.95-.13-1.9-.81-2.49-1.53-1.42-1.75-1.22-4.35-1.81-6.43l-3.96-1.64c-2.57,1.74-4.77,4.29-8.15,2.69-.88-.42-3.79-3.22-4.48-4.06-1.33-1.61-1.59-3.63-.55-5.47.31-.55,2.66-3.53,2.64-3.76l-1.6-3.84c-2.5-.78-5.71-.26-7.32-2.74-.35-.54-.66-1.25-.72-1.89-.13-1.34-.16-4.91.03-6.21.06-.4.32-.94.52-1.29,1.54-2.62,4.99-2.28,7.57-2.93l1.52-3.83c-1.53-2.6-4.34-4.7-2.89-8.05.46-1.06,3.28-3.89,4.26-4.69,3.39-2.78,6.28.03,9.05,2.02.09.07.17.09.28.08.25-.03,1.59-.77,1.99-.94.26-.11,1.71-.56,1.76-.65.65-2.9.27-6.6,3.64-7.82,1.28-.46,5.93-.5,7.27-.18.39.09.92.33,1.27.54,2.68,1.58,2.22,4.8,2.87,7.43ZM98.72,56.8c-.33.11-.53.34-.65.66-.62,1.68-.45,4.36-1.13,6.01-.07.16-.19.37-.31.5-.5.53-3,1.15-3.89,1.54-1.31.58-2.6,1.84-4.05,1.07s-2.95-2.34-4.4-3.14c-.49-.27-.75-.32-1.24.03-.42.3-2.92,2.8-3.21,3.22-.23.34-.29.63-.12,1.03.61,1.19,3.41,4.17,3.55,5.3s-.79,2.22-1.23,3.2c-.25.56-.47,1.15-.69,1.72-.42,1.09-.37,2.33-1.69,2.74-1.68.52-3.96.45-5.66.98-.53.17-.75.34-.81.9-.1,1.05-.11,3.4,0,4.43.06.49.22.75.7.91,1.67.52,3.97.47,5.66.98.47.14.9.43,1.14.87.43.8.71,2.27,1.1,3.22s1.5,2.64,1.46,3.47c-.01.23-.1.5-.2.71l-3.35,4.7c-.18.45-.1.72.17,1.08.8,1.08,2.37,2.01,3.22,3.11.3.27.76.26,1.13.12l4.68-3.26c1.28-.51,2.73.72,3.92,1.24.84.37,3.46,1.05,3.89,1.54.23.25.37.72.45,1.05.42,1.6.43,3.57.9,5.13.12.4.34.85.8.91.89.12,3.61.1,4.53,0,.38-.04.72-.16.86-.55.52-1.78.48-3.99,1-5.73.14-.45.41-.84.83-1.08.74-.43,2.36-.76,3.29-1.14.8-.33,2.17-1.24,2.82-1.41.71-.18,1.11-.02,1.7.31,1.48.82,2.9,2.09,4.36,2.98.46.18.71.11,1.08-.17,1.12-.83,2.19-2.42,3.32-3.31l.02-.93c-.62-1.2-3.38-4.12-3.45-5.31-.04-.82.9-2.16,1.26-2.97.28-.63.53-1.3.76-1.95.47-1.29.27-2.31,1.9-2.72,1.52-.38,3.28-.43,4.81-.82.49-.12,1.15-.29,1.23-.88.12-.9.1-3.71,0-4.63-.05-.45-.29-.66-.71-.8-1.63-.56-4.05-.47-5.71-1.03-1.29-.43-1.33-1.96-1.76-3.07-.25-.64-.51-1.29-.79-1.92-.33-.72-1.12-1.72-1.09-2.51.06-1.28,2.86-4.18,3.5-5.46.27-.42.03-.8-.23-1.14-.36-.47-2.68-2.83-3.12-3.11s-.74-.2-1.19.02c-1.44.71-3.12,2.56-4.55,3.19-.21.09-.57.21-.8.22-.69.02-2.73-1.22-3.57-1.56s-3.04-.82-3.52-1.41c-.19-.23-.29-.55-.37-.84-.46-1.68-.42-3.99-.96-5.57-.16-.47-.45-.64-.92-.69-1.49-.13-3.2.09-4.71.03Z"/>
        <g>
          <path class="cls-1" d="M155.58,107.25l-4.69-12.36c-.82-1.51-2.41-2.21-4.29-1.86l-12.44,4.71c-1.12.6-1.33,1.77-1.05,2.61.28.85,1.12,1.62,2.39,1.42l8.84-3.28c-4.36,14.55-16.15,26.29-30.9,30.73-12.53,3.76-25.64,2.18-36.92-4.47-11.11-6.54-19.04-17.49-21.78-30.03-.14-.63-.24-1.29-.33-1.93-.1-.67-.2-1.36-.35-2.02-.23-1.02-1.04-1.71-2.07-1.77-.96-.05-1.77.48-2.06,1.35-.27.8.08,2.65.42,4.32l.06.28c2.8,13.89,11.03,25.62,23.18,33.04,8.05,4.92,17.28,7.45,26.57,7.45,4.63,0,9.27-.63,13.78-1.91,16.33-4.62,29.44-17.37,34.38-33.37,0,0,0,.01,0,.02.5,1.22.95,2.48,1.39,3.7.44,1.22.89,2.47,1.38,3.69.05.13.1.26.15.4.27.73.61,1.63,1.42,1.97.82.34,1.69.2,2.32-.36.63-.57.86-1.46.6-2.34Z"/>
          <path class="cls-1" d="M52.93,75.27l13.21-3.12c1.28-.54,1.58-1.75,1.3-2.65-.28-.92-1.19-1.72-2.59-1.44l-8.78,2.08c5.13-15.41,18.15-27.1,34.1-30.6,23.47-5.13,47.31,8.85,54.28,31.83.08.26.18.67.29,1.13.38,1.56.7,2.79,1.07,3.21.4.45.98.7,1.57.7.25,0,.5-.04.74-.13.83-.29,1.38-1,1.42-1.84.11-1.97-2.34-8.19-2.36-8.25-4.75-11.96-13.75-21.58-25.34-27.09-11.61-5.52-24.8-6.42-37.14-2.54-14.98,4.71-27.3,16.67-32.35,31.31l-2.27-9.33-.04-.1c-.71-1.07-1.85-1.23-2.65-.92-.8.31-1.52,1.19-1.32,2.49.55,1.94.98,3.98,1.41,5.95.44,2.04.89,4.15,1.47,6.16.62,2.16,1.87,3.14,3.99,3.14Z"/>
        </g>
        <path class="cls-1" d="M100.23,71.68c10.48-.75,17.55,10.43,12.37,19.6-4.66,8.26-16.61,8.85-22.09,1.11-5.9-8.34-.44-19.98,9.72-20.71ZM101.04,75.3c-7.06.13-11.5,7.86-8.08,14.05,3.55,6.42,12.86,6.45,16.46.07,3.57-6.33-1.14-14.25-8.38-14.12Z"/>
      </g>
    </g>
  </g>
</svg>