<?xml version="1.0" encoding="UTF-8"?>
<svg id="Layer_2" data-name="Layer 2" xmlns="http://www.w3.org/2000/svg" viewBox="0 0 200 168">
  <defs>
    <style>
      .cls-1 {
        fill: #fff;
      }

      .cls-2 {
        fill: #57a47b;
      }
    </style>
  </defs>
  <g id="Layer_1-2" data-name="Layer 1">
    <polygon class="cls-2" points="0 83.99 50 168 150 168 200 83.99 150 0 50 0 0 83.99"/>
    <g>
      <path class="cls-1" d="M134.12,63.16c-.83-.01-1.71.14-2.49-.06-.51-.13-1.18-.67-1.3-1.15-.42-1.66-.54-3.39-.94-5.06-1.58-6.81-4.95-12.43-11.05-16.16-1.04-.62-2.05-1.13-1.88-2.64.04-.35-.4-.9-.75-1.13-4.78-3.14-9.99-5.14-15.74-4.87-4.5.2-8.7,1.77-12.59,4.11-1.11.67-2.07,1.37-2.04,2.87,0,.34-.43.82-.78,1.03-7.63,4.34-11.3,11.25-12.75,19.61-.57,3.28-.56,3.3-4.01,3.44-1.47.05-2.41.67-2.56,2.16-.14,1.32.92,2.23,2.59,2.3,1.06.05,2.13.01,3.37.01.17,1.84.35,3.42.45,5.01.02.37-.13.85-.36,1.13-3.29,3.87-1.51,12.59,3.44,15.19.94.49,1.54,1.82,2.06,2.87,1.32,2.69,2.18,5.67,3.82,8.15,3.26,4.93,8.05,8.2,13.37,10.63,4.05,1.85,8.31,2.25,12.46.45,2.86-1.25,5.66-2.78,8.22-4.57,4.99-3.5,8.74-8.06,10.14-14.16.41-1.76,1.24-2.92,2.79-3.86,4.06-2.49,6.08-9.41,3.59-13.44-1.59-2.56-.46-4.85-.67-7.42,1.38,0,2.51.05,3.62-.02,1.42-.09,2.46-.77,2.39-2.3-.07-1.39-1-2.09-2.39-2.13ZM125.77,63.04h-15.18c1.57-6.3,3.1-12.47,4.64-18.66,5.88,2.17,10.32,10.68,10.55,18.66ZM91.56,38.93c6.29-3.08,12.53-3.12,18.82.02,1.04.51,1.38,1.08,1.08,2.22-1.76,6.89-3.46,13.79-5.27,20.67-.14.52-.94,1.14-1.52,1.23-1.21.18-2.48.05-3.73.05v.11c-1.59-.1-3.62.36-4.64-.45-1.02-.81-1.06-2.88-1.44-4.42-1.45-5.74-2.83-11.51-4.32-17.24-.29-1.12-.04-1.68,1.01-2.19ZM86.72,44.36c1.54,6.15,3.08,12.29,4.7,18.78-4.79,0-9.18.01-13.56,0-.59,0-1.16-.05-1.73-.09-.12-7.53,4.64-16.49,10.59-18.7ZM123.99,88.11c-1.34.81-2.06,1.81-2.42,3.33-1.21,5.28-4.45,9.22-8.77,12.25-2.21,1.56-4.63,2.88-7.11,3.95-3.59,1.57-7.28,1.21-10.79-.39-4.6-2.1-8.74-4.94-11.56-9.2-1.42-2.15-2.17-4.73-3.31-7.06-.45-.91-.97-2.06-1.78-2.49-4.28-2.25-5.83-9.79-2.98-13.14.2-.23.34-.65.32-.98-.08-1.38-.24-4.88-.39-6.48h51.31c.18,2.23-.79,6.34.58,8.56,2.16,3.48.41,9.47-3.1,11.63Z"/>
      <path class="cls-1" d="M65.2,121.14c-8.18,1.97-12.61,7.07-13.35,15.14-.14,1.5-.72,2.54-2.34,2.59-1.36.04-2.17-1.14-2.13-2.91.16-8.09,5.72-15.59,13.6-18.28,6.68-2.28,13.39-4.52,20.08-6.77.51-.17,1.09-.54,1.52-.42.84.24,1.89.59,2.29,1.23.33.54-.07,1.6-.29,2.38-.09.33-.57.55-1.04.97.7.52,1.29.97,1.9,1.39,4.66,3.29,9.34,6.55,13.99,9.86.98.7,1.72.87,2.82.08,4.91-3.55,9.9-7,14.86-10.49.33-.23.64-.5.93-.74-.05-.19-.05-.34-.12-.4-.97-.85-1.92-1.72-1.08-3.17.9-1.54,2.19-1.28,3.58-.8,6.8,2.31,13.62,4.55,20.42,6.87,7.79,2.66,13.31,10.09,13.54,18.15.05,1.88-.78,3.05-2.18,3.05-1.33,0-2.16-1.03-2.29-2.86-.56-7.63-5.56-13.28-13.33-14.85,0,2.15,0,4.26,0,6.37,0,2.91-.01,5.82,0,8.74,0,1.46-.66,2.42-2.14,2.58-1.33.15-2.29-.91-2.3-2.57-.04-4.93-.08-9.87.01-14.8.03-1.59-.45-2.34-2.02-2.7-1.67-.38-3.24-1.2-4.91-1.58-.8-.18-1.92-.08-2.58.37-6.19,4.21-12.33,8.5-18.43,12.84-.56.4-.95,1.29-1.04,2.01-.17,1.29-.04,2.61-.05,3.92-.02,1.44-.66,2.48-2.17,2.51-1.52.03-2.18-.99-2.26-2.43,0-.06-.01-.12,0-.18.88-4.05-1.19-6.29-4.47-8.33-5.14-3.2-10-6.85-14.94-10.36-.92-.65-1.74-.83-2.79-.43-1.78.67-3.58,1.3-5.4,1.83-1.11.33-1.44.95-1.43,2.06.05,4.58.03,9.15.03,13.73,0,.48.01.95,0,1.43-.07,1.67-.9,2.68-2.23,2.68-1.34,0-2.21-.98-2.22-2.67-.03-4.34-.01-8.68-.02-13.02,0-.65,0-1.3,0-2.07Z"/>
    </g>
  </g>
</svg>