<?xml version="1.0" encoding="UTF-8"?>
<svg id="Layer_2" data-name="Layer 2" xmlns="http://www.w3.org/2000/svg" viewBox="0 0 172.73 127.04">
  <defs>
    <style>
      .cls-1 {
        fill: none;
        stroke: #57a67b;
        stroke-miterlimit: 10;
      }
    </style>
  </defs>
  <g id="Layer_5" data-name="Layer 5">
    <g>
      <polygon class="cls-1" points="113.1 .5 38.06 .5 .58 63.52 38.06 126.54 113.1 126.54 150.58 63.52 113.1 .5"/>
      <line class="cls-1" x1="150.73" y1="63.14" x2="172.73" y2="63.14"/>
      <g>
        <path class="cls-1" d="M77.46,83.73c-6.27,0-12.53,0-18.79,0-3.34,0-5.42-2.08-5.45-5.42-.02-2.35-.02-4.7,0-7.05.03-3.32,2.11-5.39,5.44-5.39,3.29,0,6.59,0,9.89,0h3.03c0-.9,0-1.79,0-2.68-2.47-1.29-2.87-3.37-2.74-4.95.31-3.71-.35-7.08-2.03-10.31-.85-1.64-.89-3.28-.92-4.72,0-.37-.01-.74-.04-1.1-.02-.31-.12-.6-.21-.74-.68-1.04-1.39-2.05-2.1-3.07-.59-.85-1.19-1.7-1.77-2.56-.44-.65-.79-1.43-1.03-2.25-.51-1.79-.98-3.59-1.41-5.36-.64-2.67-.33-5.11.9-7.07,1.19-1.89,3.17-3.18,5.73-3.74l.58-.22,10.56.04c.29.06.59.11.88.16.73.12,1.56.26,2.38.55,4.14,1.45,6.15,4.39,6.16,8.98,0,4.86,0,9.73,0,14.59v9.29c0,2.48,0,4.97,0,7.45,0,2.27-.95,3.63-1.96,4.43,0,1.07,0,2.14,0,3.23h3.1c3.14,0,6.28,0,9.43,0,3.65,0,5.66,2.02,5.67,5.68v1.41c0,1.79,0,3.58,0,5.38-.02,3.37-2.12,5.47-5.47,5.47-6.6,0-13.2,0-19.8,0ZM64.48,69.87c-1.94,0-3.87,0-5.81,0-1.15,0-1.44.28-1.45,1.42-.02,2.33-.02,4.66,0,6.99,0,1.12.33,1.44,1.45,1.44,12.87,0,25.73,0,38.6,0,1.18,0,1.47-.29,1.48-1.49,0-1.78,0-3.57,0-5.35v-1.41c0-1.46-.22-1.68-1.67-1.68-3.14,0-6.28,0-9.42,0h-7.1s0-3.13,0-3.13c0-1.69,0-3.33.01-4.98,0-1.02.72-1.79,1.33-2.13.34-.19.63-.43.62-1.4,0-2.49,0-4.98,0-7.47v-9.28c0-4.86,0-9.72,0-14.59,0-2.91-.95-4.32-3.48-5.21-.5-.17-1.09-.28-1.73-.38-.27-.05-.55-.09-.82-.14h-9.22c-.14.05-.27.09-.4.12-1.54.33-2.63.99-3.25,1.98-.64,1.02-.78,2.4-.4,4,.41,1.71.87,3.46,1.37,5.2.12.41.3.81.5,1.12.56.84,1.14,1.67,1.72,2.5.73,1.05,1.46,2.09,2.16,3.16.5.75.8,1.71.87,2.68.03.42.04.85.04,1.27.02,1.15.04,2.14.47,2.96,2.01,3.87,2.84,8.07,2.47,12.49-.05.56-.07.85,1.04,1.27.83.32,1.69,1.21,1.7,2.31.02,1.47.02,2.96.02,4.48v3.24s-7.03,0-7.03,0c-1.36,0-2.71,0-4.07,0ZM71.56,62.2h0s0,0,0,0ZM84.57,61.72h0s0,0,0,0Z"/>
        <path class="cls-1" d="M107.77,104.64h-59.55l-.37-.15c-2.44-1.01-3.64-3-3.56-5.91.06-2.28.05-3.29.04-4.69,0-.76-.01-.63-.01-1.86,0-3.38,2.09-5.48,5.46-5.48,18.81,0,37.62,0,56.43,0,3.36,0,5.45,2.1,5.46,5.48,0,1.22,0,1.09-.01,1.85-.01,1.41-.02,2.42.04,4.7.08,2.91-1.12,4.9-3.56,5.91l-.37.15Z"/>
      </g>
    </g>
  </g>
</svg>