<?xml version="1.0" encoding="UTF-8"?>
<svg id="Layer_2" data-name="Layer 2" xmlns="http://www.w3.org/2000/svg" viewBox="0 0 78.13 101.14">
  <defs>
    <style>
      .cls-1 {
        fill: none;
        stroke: #57a67b;
        stroke-miterlimit: 10;
        stroke-width: 1.14px;
      }
    </style>
  </defs>
  <g id="Layer_2-2" data-name="Layer 2">
    <g>
      <path class="cls-1" d="M38.46,76.69c-7.16,0-14.31,0-21.46,0-3.81,0-6.2-2.37-6.22-6.19-.02-2.68-.02-5.37,0-8.05.03-3.8,2.41-6.16,6.22-6.16,3.76,0,7.52,0,11.29,0h3.46c0-1.03,0-2.05-.01-3.06-2.82-1.48-3.28-3.84-3.12-5.66.36-4.24-.4-8.09-2.32-11.78-.97-1.88-1.01-3.74-1.05-5.39,0-.42-.02-.84-.04-1.26-.02-.36-.14-.69-.25-.85-.78-1.19-1.59-2.35-2.4-3.51-.68-.97-1.36-1.94-2.02-2.93-.5-.75-.91-1.64-1.17-2.57-.58-2.04-1.12-4.1-1.61-6.12-.73-3.05-.38-5.84,1.03-8.07,1.36-2.16,3.62-3.64,6.54-4.28l.66-.25,12.06.05c.33.07.67.12,1.01.18.84.14,1.78.3,2.72.63,4.73,1.65,7.03,5.01,7.03,10.26,0,5.55,0,11.11,0,16.66v10.6c0,2.84,0,5.68,0,8.51,0,2.6-1.08,4.15-2.24,5.05,0,1.22-.01,2.45-.01,3.69h3.54c3.59,0,7.18,0,10.77,0,4.17,0,6.47,2.31,6.47,6.48v1.61c0,2.05,0,4.09,0,6.14-.02,3.85-2.42,6.24-6.25,6.24-7.54,0-15.08,0-22.62,0ZM23.63,60.86c-2.21,0-4.42,0-6.64,0-1.32,0-1.64.32-1.65,1.63-.02,2.66-.02,5.32,0,7.98,0,1.28.38,1.65,1.66,1.65,14.69,0,29.39,0,44.08,0,1.35,0,1.68-.33,1.69-1.7.01-2.04,0-4.07,0-6.11v-1.61c0-1.67-.25-1.92-1.91-1.92-3.59,0-7.17,0-10.76,0h-8.1s0-3.58,0-3.58c0-1.93,0-3.81.02-5.69,0-1.17.82-2.04,1.52-2.43.39-.22.72-.49.71-1.59,0-2.84,0-5.69,0-8.53v-10.6c0-5.55,0-11.11,0-16.66,0-3.33-1.08-4.94-3.97-5.95-.57-.2-1.25-.31-1.97-.44-.31-.05-.62-.11-.93-.17h-10.53c-.16.06-.31.1-.46.13-1.75.37-3,1.13-3.72,2.27-.74,1.17-.89,2.75-.46,4.57.47,1.96,1,3.95,1.56,5.94.13.47.34.93.57,1.28.64.96,1.31,1.91,1.97,2.86.84,1.2,1.67,2.39,2.47,3.61.57.86.92,1.95.99,3.07.03.48.04.97.05,1.46.03,1.31.05,2.45.53,3.38,2.3,4.41,3.24,9.21,2.82,14.26-.05.64-.08.97,1.18,1.45.95.36,1.93,1.38,1.94,2.64.03,1.68.02,3.38.02,5.12v3.7s-8.03,0-8.03,0c-1.55,0-3.1,0-4.65,0ZM31.72,52.1h0s0,0,0,0ZM46.57,51.55h0s0,0,0,0Z"/>
      <path class="cls-1" d="M73.07,100.57H5.06l-.42-.17c-2.79-1.16-4.16-3.43-4.06-6.75.07-2.6.06-3.76.05-5.36,0-.86-.02-.72-.01-2.12,0-3.86,2.39-6.26,6.23-6.26,21.48,0,42.97,0,64.45,0,3.84,0,6.23,2.4,6.23,6.26,0,1.4,0,1.25-.02,2.11-.01,1.61-.02,2.77.05,5.37.09,3.33-1.27,5.6-4.06,6.75l-.42.17Z"/>
    </g>
  </g>
</svg>