<?xml version="1.0" encoding="UTF-8"?>
<svg id="Layer_2" data-name="Layer 2" xmlns="http://www.w3.org/2000/svg" viewBox="0 0 101.42 101.27">
  <defs>
    <style>
      .cls-1 {
        fill: none;
        stroke: #57a67b;
        stroke-miterlimit: 10;
        stroke-width: 1.27px;
      }
    </style>
  </defs>
  <g id="Layer_2-2" data-name="Layer 2">
    <g>
      <path class="cls-1" d="M22.93,33.91c-1.16,0-2.16.03-3.15,0-1.56-.07-2.55-.92-2.42-2.15.14-1.39,1.02-1.97,2.4-2.02,3.23-.12,3.22-.15,3.75-3.22,1.35-7.82,4.79-14.28,11.93-18.35.33-.19.73-.64.72-.96-.02-1.41.87-2.06,1.92-2.68,3.64-2.19,7.57-3.66,11.78-3.85,5.38-.24,10.26,1.62,14.73,4.56.34.22.74.73.7,1.06-.16,1.41.79,1.89,1.76,2.48,5.71,3.48,8.87,8.74,10.35,15.12.36,1.57.48,3.19.88,4.74.11.45.74.96,1.22,1.08.73.18,1.55.05,2.33.06,1.31.02,2.18.69,2.24,1.98.07,1.43-.91,2.08-2.23,2.16-1.05.06-2.1.01-3.39.01.2,2.4-.87,4.54.62,6.94,2.34,3.77.45,10.25-3.36,12.58-1.44.88-2.23,1.96-2.61,3.61-1.31,5.71-4.82,9.98-9.49,13.26-2.39,1.68-5.01,3.1-7.69,4.27-3.88,1.7-7.87,1.32-11.66-.42-4.98-2.28-9.46-5.34-12.51-9.95-1.53-2.32-2.34-5.11-3.58-7.63-.49-.99-1.05-2.23-1.93-2.69-4.63-2.43-6.3-10.6-3.23-14.21.22-.26.36-.71.34-1.06-.09-1.49-.26-2.98-.41-4.69ZM50.77,29.83s0-.07,0-.1c1.17,0,2.35.12,3.49-.05.53-.08,1.29-.66,1.41-1.15,1.69-6.44,3.28-12.9,4.93-19.35.27-1.07-.05-1.6-1.01-2.08-5.88-2.94-11.72-2.89-17.61-.01-.99.48-1.22,1-.95,2.05,1.38,5.37,2.68,10.76,4.04,16.14.36,1.44.4,3.38,1.35,4.14.95.76,2.85.33,4.34.42ZM41.86,29.74c-1.52-6.09-2.96-11.83-4.4-17.59-5.57,2.08-10.01,10.45-9.91,17.51.53.03,1.08.08,1.62.08,4.11,0,8.21,0,12.69,0ZM74.01,29.64c-.21-7.46-4.37-15.43-9.87-17.46-1.44,5.79-2.87,11.56-4.34,17.46h14.21Z"/>
      <path class="cls-1" d="M17.31,84.02c-7.66,1.84-11.81,6.61-12.49,14.17-.13,1.4-.68,2.38-2.19,2.43-1.27.04-2.03-1.07-1.99-2.72.15-7.57,5.35-14.59,12.73-17.11,6.26-2.14,12.53-4.23,18.8-6.34.47-.16,1.02-.51,1.42-.39.78.23,1.77.55,2.14,1.16.31.51-.06,1.49-.27,2.23-.09.31-.53.51-.97.9.66.48,1.21.9,1.78,1.3,4.36,3.08,8.75,6.13,13.09,9.23.92.66,1.61.81,2.64.07,4.6-3.32,9.26-6.55,13.9-9.81.31-.22.6-.47.87-.69-.05-.18-.04-.32-.11-.38-.91-.8-1.8-1.61-1.01-2.97.84-1.44,2.05-1.19,3.36-.75,6.37,2.16,12.75,4.26,19.11,6.43,7.3,2.49,12.46,9.45,12.67,16.99.05,1.76-.73,2.85-2.04,2.86-1.24,0-2.02-.96-2.15-2.67-.53-7.14-5.21-12.43-12.48-13.9,0,2.01,0,3.99,0,5.97,0,2.73,0,5.45,0,8.18,0,1.36-.62,2.26-2,2.41-1.24.14-2.15-.86-2.16-2.41-.04-4.62-.08-9.23.01-13.85.03-1.49-.42-2.19-1.89-2.53-1.56-.36-3.03-1.12-4.6-1.48-.75-.17-1.8-.07-2.41.35-5.79,3.94-11.54,7.96-17.25,12.02-.52.37-.89,1.21-.98,1.88-.16,1.2-.04,2.44-.05,3.67-.02,1.35-.62,2.32-2.03,2.35-1.42.03-2.04-.93-2.11-2.27,0-.06-.01-.11,0-.17.82-3.79-1.11-5.89-4.18-7.8-4.81-2.99-9.36-6.41-13.98-9.7-.86-.61-1.63-.77-2.61-.4-1.66.63-3.35,1.21-5.05,1.72-1.04.31-1.35.88-1.34,1.93.05,4.28.03,8.57.03,12.85,0,.44.01.89,0,1.33-.06,1.57-.85,2.51-2.09,2.51-1.26,0-2.07-.92-2.08-2.5-.03-4.06-.01-8.12-.02-12.18,0-.61,0-1.21,0-1.94Z"/>
      <path class="cls-1" d="M50.77,63.11c-2.71.1-5.17-.59-7.3-2.3-1.03-.83-1.53-1.83-.65-3.01.84-1.14,1.92-1.16,3.06-.38,3.25,2.22,6.5,2.2,9.74-.03,1.08-.74,2.13-.7,2.94.34.9,1.15.5,2.18-.54,3.03-2.11,1.74-4.56,2.45-7.26,2.35Z"/>
      <path class="cls-1" d="M42.62,38.09c2.2-.09,4.08.77,5.47,2.66.76,1.03.86,2.08-.11,2.98-.98.92-1.97.72-2.94-.18-1.94-1.8-3.13-1.81-5.13-.02-.95.85-1.93,1.15-2.96.25-1.11-.96-.88-2.01-.09-3.09,1.4-1.91,3.32-2.67,5.76-2.61Z"/>
      <path class="cls-1" d="M59.39,38.09c2.12-.08,4,.76,5.4,2.65.76,1.03.87,2.07-.09,2.98-.98.92-1.97.73-2.94-.16-1.97-1.82-3.14-1.82-5.13-.04-.95.85-1.93,1.16-2.96.27-1.11-.95-.89-2.01-.11-3.09,1.31-1.79,3.06-2.63,5.83-2.62Z"/>
    </g>
  </g>
</svg>