<?xml version="1.0" encoding="UTF-8"?>
<svg id="Layer_2" data-name="Layer 2" xmlns="http://www.w3.org/2000/svg" viewBox="0 0 172.23 127.04">
  <defs>
    <style>
      .cls-1 {
        fill: none;
        stroke: #57a67b;
        stroke-miterlimit: 10;
      }
    </style>
  </defs>
  <g id="Layer_5" data-name="Layer 5">
    <g>
      <polygon class="cls-1" points="113.1 .5 38.06 .5 .58 63.52 38.06 126.54 113.1 126.54 150.58 63.52 113.1 .5"/>
      <line class="cls-1" x1="150.23" y1="63.14" x2="172.23" y2="63.14"/>
      <g>
        <path class="cls-1" d="M54.68,48.22c-.91,0-1.69.03-2.47,0-1.23-.05-2-.72-1.9-1.69.11-1.09.8-1.55,1.88-1.59,2.53-.1,2.53-.11,2.94-2.53,1.06-6.14,3.75-11.2,9.36-14.39.26-.15.57-.5.57-.75-.02-1.11.69-1.61,1.5-2.11,2.85-1.72,5.94-2.87,9.24-3.02,4.22-.19,8.05,1.27,11.55,3.58.26.17.58.57.55.83-.12,1.11.62,1.48,1.38,1.94,4.48,2.73,6.96,6.86,8.12,11.86.29,1.23.38,2.5.69,3.72.09.35.58.75.95.85.58.14,1.21.04,1.82.05,1.03.02,1.71.54,1.76,1.55.05,1.12-.71,1.63-1.75,1.69-.82.05-1.65.01-2.66.01.15,1.89-.68,3.56.49,5.45,1.83,2.96.35,8.04-2.63,9.87-1.13.69-1.75,1.54-2.05,2.83-1.03,4.48-3.78,7.83-7.44,10.4-1.87,1.32-3.93,2.43-6.03,3.35-3.04,1.33-6.17,1.03-9.15-.33-3.9-1.79-7.42-4.19-9.81-7.81-1.2-1.82-1.84-4-2.81-5.99-.38-.78-.82-1.75-1.51-2.11-3.63-1.91-4.94-8.31-2.53-11.15.18-.21.28-.56.27-.83-.07-1.17-.2-2.33-.33-3.68ZM76.52,45.02s0-.05,0-.08c.92,0,1.85.1,2.74-.04.42-.06,1.01-.52,1.11-.9,1.33-5.05,2.57-10.12,3.87-15.18.21-.84-.04-1.26-.79-1.64-4.61-2.3-9.2-2.27-13.81-.01-.78.38-.96.78-.74,1.61,1.09,4.21,2.1,8.44,3.17,12.66.28,1.13.31,2.65,1.06,3.24.75.6,2.24.26,3.4.33ZM69.53,44.95c-1.2-4.77-2.32-9.28-3.45-13.8-4.37,1.63-7.86,8.2-7.78,13.73.42.02.85.06,1.27.06,3.22,0,6.44,0,9.96,0ZM94.75,44.87c-.17-5.85-3.43-12.1-7.74-13.7-1.13,4.54-2.25,9.07-3.4,13.7h11.15Z"/>
        <path class="cls-1" d="M50.27,87.53c-6.01,1.45-9.26,5.19-9.8,11.12-.1,1.1-.53,1.87-1.72,1.9-1,.03-1.59-.84-1.56-2.13.12-5.94,4.2-11.45,9.99-13.42,4.91-1.68,9.83-3.32,14.74-4.97.37-.13.8-.4,1.12-.31.61.18,1.39.43,1.68.91.24.4-.05,1.17-.21,1.75-.07.24-.42.4-.76.71.52.38.95.71,1.39,1.02,3.42,2.41,6.86,4.81,10.27,7.24.72.52,1.27.64,2.07.06,3.61-2.61,7.27-5.14,10.91-7.7.24-.17.47-.37.68-.54-.04-.14-.03-.25-.09-.3-.71-.63-1.41-1.26-.79-2.33.66-1.13,1.61-.94,2.63-.59,4.99,1.69,10,3.34,14.99,5.05,5.72,1.95,9.77,7.41,9.94,13.33.04,1.38-.58,2.24-1.6,2.24-.98,0-1.58-.75-1.68-2.1-.41-5.6-4.08-9.75-9.79-10.91,0,1.58,0,3.13,0,4.68,0,2.14,0,4.28,0,6.41,0,1.07-.48,1.77-1.57,1.89-.98.11-1.68-.67-1.69-1.89-.03-3.62-.06-7.24.01-10.86.02-1.17-.33-1.72-1.48-1.98-1.23-.28-2.38-.88-3.61-1.16-.59-.13-1.41-.06-1.89.27-4.55,3.09-9.05,6.24-13.53,9.43-.41.29-.7.95-.77,1.47-.12.94-.03,1.92-.04,2.88-.01,1.06-.49,1.82-1.6,1.85-1.12.03-1.6-.73-1.66-1.78,0-.04,0-.09,0-.13.64-2.98-.87-4.62-3.28-6.12-3.77-2.35-7.34-5.03-10.97-7.61-.67-.48-1.28-.61-2.05-.31-1.3.49-2.62.95-3.96,1.35-.82.24-1.06.69-1.05,1.51.04,3.36.02,6.72.02,10.08,0,.35,0,.7,0,1.05-.05,1.23-.66,1.97-1.64,1.97-.99,0-1.62-.72-1.63-1.96-.02-3.19-.01-6.37-.01-9.56,0-.48,0-.95,0-1.52Z"/>
        <path class="cls-1" d="M76.52,71.12c-2.13.08-4.05-.46-5.72-1.8-.81-.65-1.2-1.43-.51-2.36.66-.89,1.5-.91,2.4-.3,2.55,1.74,5.1,1.72,7.64-.02.85-.58,1.67-.55,2.31.27.7.9.39,1.71-.43,2.38-1.66,1.36-3.57,1.92-5.69,1.84Z"/>
        <path class="cls-1" d="M70.13,51.5c1.73-.07,3.2.6,4.29,2.09.59.81.68,1.63-.08,2.34-.77.72-1.55.56-2.31-.14-1.52-1.42-2.46-1.42-4.03-.02-.74.66-1.51.9-2.32.2-.87-.75-.69-1.58-.07-2.42,1.1-1.5,2.6-2.1,4.52-2.05Z"/>
        <path class="cls-1" d="M83.28,51.5c1.66-.07,3.14.59,4.23,2.08.59.81.69,1.63-.07,2.34-.77.72-1.55.58-2.3-.13-1.54-1.43-2.46-1.43-4.03-.03-.74.67-1.51.91-2.32.21-.87-.75-.7-1.57-.08-2.42,1.03-1.41,2.4-2.06,4.58-2.06Z"/>
      </g>
    </g>
  </g>
</svg>