<?xml version="1.0" encoding="UTF-8"?>
<svg id="Layer_2" data-name="Layer 2" xmlns="http://www.w3.org/2000/svg" viewBox="0 0 101.65 101.3">
  <defs>
    <style>
      .cls-1 {
        fill: #57a67b;
      }

      .cls-2 {
        fill: none;
        stroke: #57a67b;
        stroke-miterlimit: 10;
        stroke-width: 1.3px;
      }

      .cls-3 {
        fill: #54a177;
      }
    </style>
  </defs>
  <g id="Layer_2-2" data-name="Layer 2">
    <g>
      <g>
        <path class="cls-2" d="M.66,53.55c0-13.03-.02-26.06.02-39.09,0-1.34.16-2.75.56-4.02.61-1.9,2.04-3.15,4.03-3.54,1.16-.23,2.37-.3,3.56-.3,13.95-.02,27.9-.02,41.85-.01,5.43,0,7.64,2.24,7.65,7.72,0,3.93.07,7.86-.03,11.78-.04,1.55.49,1.99,1.96,1.89,1.59-.11,3.19-.05,4.78.02,4.2.19,7.71,3.43,8.05,7.62.22,2.66.18,5.34.18,8.01.01,15.19-.02,30.39.03,45.58,0,1.44.21,2.99.79,4.28,1.06,2.37,3.23,3.24,5.82,2.73,2.11-.41,3.75-2.18,3.92-4.59.17-2.49.11-5,.12-7.51,0-17.93,0-35.85,0-53.78,0-3.18-.03-6.37,0-9.55.06-6.78,2.78-12.21,8.35-16.14,1.63-1.15,3.28-2.25,4.94-3.35,1.15-.76,2.33-1.06,3.32.24.83,1.09.47,2.3-.95,3.29-1.54,1.07-3.11,2.11-4.65,3.18-4.49,3.12-6.75,7.41-6.72,12.89,0,.97.1,1.95-.02,2.9-.21,1.71.53,2.23,2.13,2.04.78-.09,1.6-.07,2.38.05,1.15.17,1.87.9,1.83,2.1-.03,1.16-.68,1.93-1.88,2.05-.85.08-1.72.14-2.56.04-1.55-.19-1.91.48-1.9,1.93.04,19.29,0,38.58.04,57.87,0,3.57-.95,6.62-3.85,8.86-5.6,4.32-14.05.93-15.18-6.1-.18-1.12-.22-2.27-.22-3.4-.01-17.07,0-34.14,0-51.22,0-4.29-1.54-5.81-5.89-5.81-.85,0-1.71,0-2.56,0-2.2.01-2.21.01-2.21,2.3,0,19.52.02,39.03-.03,58.55,0,1.39-.22,2.87-.75,4.13-.91,2.15-2.68,3.31-5.12,3.31-15.26,0-30.52,0-45.78,0-2.88,0-5.1-1.81-5.73-4.64-.18-.83-.25-1.69-.25-2.54-.01-13.26-.01-26.52-.01-39.78h0ZM29.42,37.2s0,0,0,0c7.63,0,15.25-.03,22.88.02,1.32,0,1.78-.37,1.77-1.74-.05-9.84-.02-11.85-.03-21.69,0-2.41-.53-2.91-2.93-2.91-14.4,0-28.8,0-43.2,0-2.42,0-2.93.5-2.93,2.9-.02,9.84.02,11.86-.04,21.7,0,1.37.45,1.74,1.77,1.73,7.57-.05,15.14-.03,22.71-.03Z"/>
        <path class="cls-2" d="M29.5,32.58c-2.85,0-5.69.02-8.54,0-4.51-.04-8.2-3.49-8.51-7.91-.3-4.38,2.91-8.65,7.41-8.88,6.41-.33,12.85-.33,19.26,0,4.5.23,7.72,4.49,7.42,8.87-.3,4.42-4,7.87-8.51,7.92-2.85.03-5.69,0-8.54,0ZM29.38,28.28s0-.01,0-.02c2.96,0,5.92.06,8.88-.02,2.01-.05,3.63-1.63,3.96-3.6.27-1.59-.79-3.64-2.45-4.29-.98-.39-2.1-.54-3.16-.56-4.72-.06-9.45-.03-14.17-.02-.51,0-1.03.01-1.53.1-2.56.42-4.39,2.42-4.19,4.55.23,2.31,2.11,3.85,4.79,3.87,2.62.02,5.23,0,7.85,0Z"/>
      </g>
      <path class="cls-3" d="M35.45,73.12v2.92h-.9s-6.71-5.45-7.07-8.61h2.44c.24,2.06,1.51,3.37,3.32,3.75v-6.96l-.6-.14c-2.65-.69-4.76-1.86-4.76-4.61s2.22-4.64,5.35-4.95v-2.8h2.2v2.82c3.04.41,5,2.22,5.35,4.92h-2.44c-.33-1.6-1.41-2.61-2.92-2.96v5.95l.81.22c3.06.86,4.73,2.22,4.73,4.95,0,3.06-2.13,5.12-5.55,5.5ZM33.25,61.84v-5.4c-1.79.29-2.94,1.41-2.94,2.84,0,1.51,1.1,2.01,2.94,2.56ZM35.45,71.19c1.98-.31,3.13-1.51,3.13-3.32,0-1.53-.93-2.37-3.13-3.04v6.36Z"/>
      <g>
        <line class="cls-2" x1="8.86" y1="51.41" x2="47.08" y2="87.9"/>
        <polygon class="cls-1" points="40.27 88.77 40.29 87.47 46.72 87.55 46.33 81.13 47.64 81.06 48.1 88.87 40.27 88.77"/>
      </g>
    </g>
  </g>
</svg>