<?xml version="1.0" encoding="UTF-8"?>
<svg id="Layer_2" data-name="Layer 2" xmlns="http://www.w3.org/2000/svg" viewBox="0 0 173.23 127.04">
  <defs>
    <style>
      .cls-1 {
        fill: #57a67b;
      }

      .cls-2 {
        fill: none;
        stroke: #57a67b;
        stroke-miterlimit: 10;
      }

      .cls-3 {
        fill: #54a177;
      }
    </style>
  </defs>
  <g id="Layer_2-2" data-name="Layer 2">
    <g>
      <polygon class="cls-2" points="135.16 .5 60.13 .5 22.65 63.52 60.13 126.54 135.16 126.54 172.65 63.52 135.16 .5"/>
      <line class="cls-2" y1="63.14" x2="22" y2="63.14"/>
      <g>
        <path class="cls-2" d="M60.14,65.04c0-9.99-.01-19.98.02-29.97,0-1.03.12-2.11.43-3.08.47-1.46,1.56-2.42,3.09-2.72.89-.17,1.82-.23,2.73-.23,10.7-.02,21.39-.01,32.09,0,4.17,0,5.86,1.72,5.87,5.92,0,3.01.05,6.02-.03,9.03-.03,1.19.37,1.53,1.5,1.45,1.22-.08,2.45-.04,3.67.01,3.22.14,5.91,2.63,6.17,5.84.17,2.04.14,4.1.14,6.14,0,11.65-.02,23.3.02,34.95,0,1.1.16,2.29.6,3.28.81,1.82,2.48,2.48,4.46,2.1,1.62-.32,2.88-1.67,3-3.52.13-1.91.09-3.84.09-5.76,0-13.75,0-27.49,0-41.24,0-2.44-.03-4.88,0-7.32.05-5.2,2.13-9.36,6.4-12.38,1.25-.88,2.52-1.73,3.79-2.57.88-.58,1.79-.81,2.54.18.64.84.36,1.76-.73,2.52-1.18.82-2.38,1.62-3.57,2.44-3.44,2.4-5.18,5.69-5.16,9.89,0,.74.07,1.49-.02,2.22-.16,1.31.41,1.71,1.63,1.56.6-.07,1.23-.05,1.83.04.88.13,1.43.69,1.41,1.61-.03.89-.52,1.48-1.44,1.57-.65.06-1.32.11-1.96.03-1.19-.15-1.46.36-1.46,1.48.03,14.79,0,29.59.03,44.38,0,2.74-.73,5.08-2.95,6.79-4.29,3.31-10.77.71-11.64-4.68-.14-.86-.17-1.74-.17-2.61-.01-13.09,0-26.18,0-39.27,0-3.29-1.18-4.45-4.51-4.45-.65,0-1.31,0-1.96,0-1.69,0-1.69,0-1.69,1.76,0,14.97.01,29.93-.02,44.9,0,1.06-.17,2.2-.58,3.17-.7,1.65-2.06,2.54-3.92,2.53-11.7,0-23.4,0-35.1,0-2.21,0-3.91-1.39-4.39-3.56-.14-.63-.19-1.3-.19-1.95-.01-10.17,0-20.33,0-30.5h0ZM82.19,52.5s0,0,0,0c5.85,0,11.7-.02,17.54.02,1.02,0,1.36-.29,1.36-1.33-.04-7.54-.01-9.09-.03-16.63,0-1.84-.4-2.23-2.25-2.23-11.04,0-22.08,0-33.13,0-1.86,0-2.25.38-2.25,2.22-.01,7.55.01,9.09-.03,16.64,0,1.05.35,1.33,1.36,1.32,5.8-.04,11.61-.02,17.41-.02Z"/>
        <path class="cls-2" d="M82.25,48.96c-2.18,0-4.36.02-6.55,0-3.46-.03-6.29-2.67-6.52-6.07-.23-3.36,2.23-6.63,5.68-6.81,4.91-.25,9.86-.25,14.77,0,3.45.18,5.92,3.45,5.69,6.8-.23,3.39-3.07,6.04-6.52,6.07-2.18.02-4.36,0-6.55,0ZM82.16,45.67s0,0,0-.01c2.27,0,4.54.05,6.81-.02,1.54-.04,2.79-1.25,3.04-2.76.21-1.22-.6-2.79-1.88-3.29-.75-.3-1.61-.42-2.42-.43-3.62-.04-7.24-.02-10.86-.02-.39,0-.79.01-1.17.07-1.97.32-3.37,1.85-3.21,3.49.17,1.77,1.62,2.95,3.67,2.97,2.01.02,4.01,0,6.02,0Z"/>
      </g>
      <path class="cls-3" d="M86.82,80.05v2.24h-.69s-5.14-4.18-5.42-6.6h1.87c.18,1.58,1.15,2.58,2.55,2.88v-5.33l-.46-.11c-2.03-.53-3.65-1.43-3.65-3.54s1.7-3.56,4.11-3.79v-2.14h1.69v2.16c2.33.31,3.83,1.7,4.11,3.78h-1.87c-.26-1.23-1.08-2-2.24-2.27v4.56l.62.17c2.35.66,3.63,1.7,3.63,3.79,0,2.35-1.63,3.92-4.25,4.22ZM85.13,71.4v-4.14c-1.37.22-2.25,1.08-2.25,2.18,0,1.15.84,1.54,2.25,1.96ZM86.82,78.56c1.52-.24,2.4-1.15,2.4-2.55,0-1.17-.71-1.81-2.4-2.33v4.88Z"/>
      <g>
        <line class="cls-2" x1="66.43" y1="63.4" x2="95.74" y2="91.38"/>
        <polygon class="cls-1" points="90.51 92.05 90.53 91.05 95.46 91.11 95.16 86.19 96.16 86.13 96.52 92.13 90.51 92.05"/>
      </g>
    </g>
  </g>
</svg>