<?xml version="1.0" encoding="UTF-8"?>
<svg id="Layer_2" data-name="Layer 2" xmlns="http://www.w3.org/2000/svg" viewBox="0 0 172.73 127.04">
  <defs>
    <style>
      .cls-1 {
        fill: none;
        stroke: #57a67b;
        stroke-miterlimit: 10;
      }
    </style>
  </defs>
  <g id="Layer_5" data-name="Layer 5">
    <g>
      <polygon class="cls-1" points="134.66 .5 59.63 .5 22.15 63.52 59.63 126.54 134.66 126.54 172.15 63.52 134.66 .5"/>
      <line class="cls-1" y1="63.14" x2="22" y2="63.14"/>
      <path class="cls-1" d="M96.87,65.3c-1.04-.96-1.96-1.82-2.94-2.74-.92.41-1.94.85-2.96,1.3.79,5.01-2.33,8.2-6.57,8.42-.05.31-.13.64-.17.98-.37,3.15-2.48,5.4-5.65,5.78-1.03.12-1.34.52-1.48,1.49-.6,4.18-5.01,6.67-8.87,4.98-.83-.36-1.22-.16-1.76.4-2.01,2.06-4.03,4.11-6.13,6.09-.4.38-1.21.63-1.73.51-.46-.11-1.08-.81-1.08-1.25,0-.6.4-1.32.84-1.78,1.77-1.87,3.62-3.66,5.44-5.48.33-.33.64-.68,1.06-1.13-.83-.79-1.58-1.52-2.34-2.23-4.43-4.11-2.19-10.09,2.18-11.4.07-.02.12-.12.27-.28-.11-.3-.24-.65-.37-1-1.45-4.03,1.05-8.14,5.28-8.77.37-.06.92-.5.98-.83.9-4.73,3.55-6.72,8.4-6.12.11-.24.25-.51.34-.78,1.45-4.48,6.68-6.13,10.38-3.22.95.75,1.78,1.67,2.61,2.56.49.52.92.69,1.58.28.44-.27.96-.55,1.45-.56,1.71,0,2.79-1,3.85-2.13,1.28-1.37,2.62-2.69,3.98-3.98.64-.6.81-1.13.55-2.04-2.47-8.86,2.19-17.6,10.71-20.19,2.91-.88,5.85-.9,8.78-.14,2.56.66,3.39,3.52,1.59,5.46-1.07,1.15-2.18,2.27-3.34,3.32-.98.89-1.62,1.86-1.62,3.25,0,1.03-.19,2.06-.31,3.27,2.51-.37,5.04.17,6.78-2.2.79-1.08,1.86-1.96,2.84-2.89,2.2-2.07,4.94-1.27,5.73,1.65,2.62,9.7-5.04,19.81-15.1,19.84-1.77,0-3.54-.39-5.31-.56-.39-.04-.93-.02-1.18.21-1.8,1.71-3.54,3.47-5.33,5.25.76,1.03,1.55,1.91,2.12,2.92,3.47,6.06,2.48,12.81-2.65,17.78-2.37,2.3-3.4,4.98-2.48,8.16.35,1.2,1.14,2.34,1.92,3.35,1.2,1.55,2.57,2.96,3.88,4.43.74.84.93,1.71.04,2.53-.88.81-1.7.44-2.39-.32-1.8-2.02-3.8-3.9-5.31-6.12-2.67-3.92-2.69-9.83,2.05-14.39,4.01-3.85,4.88-9.11,2.21-13.59-.92-1.54-2.32-2.82-3.57-4.15-1.44-1.52-2.94-2.98-4.44-4.44-1.53-1.48-3.39-1.58-4.63-.28-1.28,1.35-1.16,3.1.36,4.64,1.29,1.31,2.6,2.58,3.9,3.88,2.16,2.15,2.15,2.52.02,4.62-7.15,7.04-14.29,14.09-21.44,21.14-.22.21-.42.44-.74.77.44.48.85.96,1.29,1.41,1.35,1.37,2.72,2.72,4.06,4.09.74.75.93,1.62.16,2.43-.79.84-1.69.61-2.43-.09-1.49-1.41-2.94-2.86-4.37-4.33-.33-.34-.56-.79-.92-1.32-1.27,1.23-2.27,2.19-3.26,3.15-.91.88-1.79,1.79-2.73,2.64-.77.7-1.64.65-2.34-.08-.68-.7-.6-1.54.05-2.23.99-1.05,2.04-2.04,3.06-3.05,8.76-8.64,17.53-17.27,26.29-25.91.28-.27.52-.57.9-.98ZM122.79,25.43c-4.89-1.64-10.63.16-14.03,5.06-3.42,4.92-2.66,12.11,1.68,16.31,4.43,4.28,11.57,4.94,16.34,1.5,4.52-3.26,6.9-9.68,4.88-13.78-1.35,1.41-2.55,2.85-3.97,4.05-.85.72-1.97,1.26-3.05,1.54-1.38.35-2.84.41-4.28.5-2.59.16-4.04-1.35-3.81-3.91.13-1.34.35-2.68.44-4.03.08-1.24.53-2.26,1.44-3.11,1.4-1.31,2.78-2.63,4.36-4.13Z"/>
    </g>
  </g>
</svg>