<?xml version="1.0" encoding="UTF-8"?>
<svg id="Layer_2" data-name="Layer 2" xmlns="http://www.w3.org/2000/svg" viewBox="0 0 103.11 101.3">
  <defs>
    <style>
      .cls-1 {
        fill: none;
        stroke: #57a67b;
        stroke-miterlimit: 10;
        stroke-width: 1.3px;
      }
    </style>
  </defs>
  <g id="Layer_2-2" data-name="Layer 2">
    <path class="cls-1" d="M51.88,57.74c-1.35-1.26-2.55-2.37-3.83-3.56-1.2.53-2.53,1.11-3.85,1.7,1.03,6.53-3.04,10.69-8.56,10.97-.07.41-.17.84-.22,1.27-.48,4.11-3.23,7.03-7.35,7.52-1.34.16-1.74.68-1.93,1.94-.78,5.45-6.53,8.69-11.55,6.49-1.08-.47-1.59-.21-2.3.52-2.62,2.69-5.26,5.36-7.98,7.93-.53.5-1.57.82-2.25.67-.6-.14-1.41-1.06-1.41-1.63,0-.78.52-1.72,1.09-2.32,2.3-2.44,4.72-4.77,7.09-7.14.43-.43.83-.89,1.38-1.48-1.09-1.03-2.05-1.98-3.05-2.9-5.77-5.35-2.86-13.15,2.84-14.85.09-.03.16-.15.35-.36-.14-.39-.31-.85-.48-1.31-1.89-5.25,1.37-10.61,6.88-11.43.49-.07,1.2-.65,1.28-1.09,1.17-6.17,4.63-8.76,10.94-7.98.14-.32.32-.66.44-1.02,1.89-5.84,8.7-7.99,13.52-4.2,1.24.98,2.32,2.18,3.4,3.34.64.68,1.2.9,2.05.37.57-.35,1.25-.72,1.89-.72,2.23,0,3.63-1.3,5.02-2.78,1.67-1.78,3.41-3.51,5.18-5.19.83-.79,1.05-1.47.72-2.66-3.22-11.54,2.86-22.92,13.95-26.3,3.79-1.15,7.62-1.18,11.44-.19,3.33.86,4.41,4.59,2.07,7.12-1.39,1.5-2.84,2.96-4.35,4.33-1.28,1.16-2.11,2.42-2.11,4.23,0,1.34-.24,2.68-.4,4.26,3.27-.48,6.56.22,8.83-2.87,1.03-1.4,2.42-2.56,3.7-3.76,2.86-2.7,6.43-1.66,7.46,2.15,3.42,12.63-6.57,25.81-19.67,25.84-2.3,0-4.61-.51-6.92-.72-.51-.05-1.21-.03-1.53.28-2.35,2.22-4.62,4.53-6.94,6.84.99,1.35,2.02,2.49,2.77,3.8,4.52,7.89,3.23,16.68-3.45,23.16-3.09,2.99-4.43,6.48-3.23,10.63.46,1.57,1.48,3.04,2.51,4.36,1.57,2.01,3.35,3.86,5.05,5.77.97,1.09,1.21,2.23.05,3.29-1.14,1.05-2.22.58-3.11-.42-2.35-2.63-4.95-5.08-6.92-7.97-3.47-5.11-3.5-12.8,2.67-18.74,5.22-5.02,6.35-11.86,2.87-17.7-1.2-2.01-3.02-3.67-4.65-5.4-1.87-1.98-3.83-3.88-5.79-5.79-1.99-1.93-4.42-2.06-6.03-.36-1.67,1.75-1.51,4.04.47,6.05,1.67,1.7,3.39,3.36,5.08,5.05,2.81,2.8,2.8,3.29.03,6.02-9.31,9.18-18.62,18.36-27.93,27.54-.28.28-.55.57-.96,1.01.57.63,1.1,1.25,1.68,1.84,1.75,1.78,3.54,3.54,5.29,5.33.96.98,1.22,2.11.21,3.17-1.03,1.09-2.21.8-3.17-.12-1.94-1.84-3.82-3.73-5.7-5.64-.43-.44-.72-1.03-1.2-1.72-1.66,1.6-2.95,2.85-4.24,4.1-1.18,1.15-2.33,2.33-3.56,3.44-1,.91-2.13.84-3.04-.1-.88-.91-.79-2,.06-2.9,1.29-1.36,2.65-2.65,3.99-3.97,11.42-11.25,22.83-22.5,34.25-33.75.36-.35.68-.74,1.17-1.28ZM85.65,5.8c-6.37-2.13-13.85.21-18.28,6.58-4.46,6.41-3.47,15.77,2.18,21.24,5.77,5.58,15.07,6.43,21.29,1.95,5.89-4.25,8.98-12.6,6.36-17.94-1.76,1.83-3.33,3.71-5.16,5.28-1.1.94-2.56,1.64-3.98,2-1.8.46-3.71.53-5.57.65-3.37.21-5.27-1.76-4.96-5.09.16-1.75.45-3.49.57-5.25.11-1.62.69-2.95,1.88-4.05,1.82-1.7,3.62-3.43,5.68-5.38Z"/>
  </g>
</svg>