<?xml version="1.0" encoding="UTF-8"?>
<svg id="Layer_2" data-name="Layer 2" xmlns="http://www.w3.org/2000/svg" viewBox="0 0 128 128">
  <defs>
    <style>
      .cls-1 {
        fill: #007cb1;
      }
    </style>
  </defs>
  <path class="cls-1" d="M121.97,93.29l-5.98-17.44c-.16-.47-.48-.87-.89-1.13l-11.92-7.62,7.97-10.95c.71-.98.5-2.34-.48-3.06-.97-.71-2.35-.49-3.06.48l-8.12,11.16-2.8-1.79-3.12-15.32c-.11-.52-.4-.98-.82-1.31l-17.14-13c-.38-.29-.84-.44-1.32-.44h-25.87c-.66,0-1.28.3-1.7.81l-6.18,7.6-3.26-9.79c-.38-1.15-1.62-1.77-2.77-1.38-1.15.38-1.77,1.62-1.38,2.77l3.84,11.51c.1.29.26.53.45.75l-4.59,5.65c-.06.08-.12.16-.18.25l-2.9,4.82-9.98-1.85c-1.19-.21-2.33.57-2.55,1.75-.22,1.19.56,2.33,1.75,2.55l8.37,1.55-2.4,4-14.87,10.94c-.43.32-.73.79-.85,1.32l-3.58,17.17h-3.63v4.37h123.99v-4.37h-4.03ZM13.34,77.83l14.54-10.7c.23-.17.43-.39.58-.63l7.86-13.07,13.14-16.16h24.09l15.9,12.06,3.14,15.42c.12.58.47,1.09.96,1.4l18.54,11.86,5.24,15.3H10.11l3.22-15.46Z"/>
  <path class="cls-1" d="M94.65,83.7h-13.42c-1.21,0-2.19.98-2.19,2.19s.98,2.19,2.19,2.19h13.42c1.21,0,2.19-.98,2.19-2.19s-.98-2.19-2.19-2.19Z"/>
  <path class="cls-1" d="M65.68,69.18c-.75-.94-2.13-1.1-3.07-.34-.94.75-1.1,2.13-.34,3.07l7.67,9.59c.43.54,1.07.82,1.71.82.48,0,.96-.16,1.36-.48.94-.75,1.1-2.13.34-3.07l-7.67-9.59Z"/>
  <path class="cls-1" d="M48.32,77.97l-13.42,1.92c-1.2.17-2.03,1.28-1.86,2.47.16,1.09,1.09,1.88,2.16,1.88.1,0,.21,0,.31-.02l13.42-1.92c1.2-.17,2.03-1.28,1.86-2.47-.17-1.19-1.27-2.04-2.47-1.86Z"/>
  <path class="cls-1" d="M48.63,47.27c-1.21,0-2.19.98-2.19,2.19v17.26c0,1.21.98,2.19,2.19,2.19s2.19-.98,2.19-2.19v-17.26c0-1.21-.98-2.19-2.19-2.19Z"/>
  <path class="cls-1" d="M70.52,61.57c.61,0,1.21-.25,1.65-.75.8-.91.7-2.29-.2-3.09l-7.35-6.44c-.91-.8-2.29-.7-3.09.2-.8.91-.7,2.29.2,3.09l7.35,6.44c.42.36.93.54,1.44.54Z"/>
  <path class="cls-1" d="M80.54,72.62l5.75,1.92c.23.08.46.11.69.11.92,0,1.77-.58,2.08-1.5.38-1.15-.24-2.39-1.38-2.77l-5.75-1.92c-1.14-.39-2.38.24-2.77,1.38-.38,1.15.24,2.39,1.38,2.77Z"/>
</svg>