<?xml version="1.0" encoding="UTF-8"?>
<svg id="Layer_2" data-name="Layer 2" xmlns="http://www.w3.org/2000/svg" viewBox="0 0 128 128">
  <defs>
    <style>
      .cls-1 {
        fill: #fff;
      }
    </style>
  </defs>
  <path class="cls-1" d="M13.48,96.48c.09-.17.19-.33.26-.51.3-.74.82-1.19,1.62-1.3.96-.14,1.93-.21,2.87-.43,2.2-.53,3.85-1.86,5.06-3.74,1.14-1.78,2.83-1.84,4.01-.06,1.35,2.03,3.13,3.45,5.55,3.91,2.94.55,5.72.19,8.08-1.84.53-.45.92-1.07,1.37-1.61.34-.41.6-.93,1.02-1.22,1.36-.96,2.63-.6,3.43.72,1.58,2.61,3.87,3.91,6.82,4.14,3.62.28,6.55-.96,8.56-4.09.15-.23.32-.46.52-.66.91-.92,1.99-.93,2.9-.01.32.32.6.68.86,1.05,2.07,2.93,4.97,3.97,8.44,3.68,2.82-.24,5.02-1.53,6.57-3.92.16-.25.37-.48.58-.69,1.12-1.11,2.3-1.01,3.3.22.7.87,1.37,1.78,2.21,2.51,1.82,1.58,4.03,2.06,6.39,1.92,3.05-.19,5.4-1.54,7.07-4.13,1.09-1.68,2.73-1.71,3.87-.06,1.11,1.6,2.42,2.95,4.28,3.59.94.33,1.97.41,2.95.63.58.13,1.2.2,1.73.46.74.37,1.11,1.42.92,2.17-.25.94-1.06,1.59-2.09,1.61-3.53.07-6.59-1.09-9.16-3.52-.17-.16-.34-.33-.57-.55-2.71,2.53-5.87,4.06-9.66,4.07-3.81.01-6.95-1.57-9.71-4.16-2.73,2.68-5.93,4.15-9.71,4.15-3.76,0-6.93-1.51-9.62-4.07-.57.44-1.09.85-1.62,1.25-4.5,3.41-9.31,3.72-14.32,1.29-1.07-.52-2-1.34-2.95-2.08-.42-.32-.66-.44-1.12-.02-1.85,1.67-3.95,2.92-6.44,3.38-3.73.68-7.2.09-10.31-2.16-.54-.39-1.08-.78-1.59-1.22-.35-.3-.59-.28-.92.04-1.85,1.82-4.07,2.95-6.62,3.39-.89.15-1.8.2-2.7.19-.89-.01-1.54-.48-1.87-1.34-.06-.15-.16-.29-.24-.43,0-.17,0-.34,0-.52Z"/>
  <path class="cls-1" d="M13.48,70.87c.44.99.31,1.98,0,2.98v-2.98Z"/>
  <path class="cls-1" d="M112.55,71.91H17.72c.38,1.72.65,3.37,1.13,4.96.63,2.11,1.55,4.11,2.83,5.92.25.35.47.72.65,1.11.51,1.06.22,2.09-.72,2.71-.84.55-2.06.38-2.72-.53-.78-1.08-1.51-2.21-2.14-3.38-1.29-2.4-2.23-4.95-2.66-7.65-.22-1.35-.23-2.74-.21-4.11.02-1.23,1.46-2.71,2.92-3.03.83-.18,1.7-.21,2.56-.26.75-.04,1.51-.03,2.26-.01.39.01.54-.11.54-.51,0-1.16.1-2.33.05-3.49-.12-2.71,1.9-4.62,4.46-4.64,4.12-.03,8.24-.07,12.35,0,2.92.05,4.51,1.84,4.51,4.77,0,1.12.03,2.24.02,3.36,0,.35.09.51.47.51,7.03,0,14.05,0,21.13,0v-34.58c-5.68,0-11.35,0-17.01,0-6.36,0-12.72,0-19.08.01-1.11,0-1.98-.29-2.47-1.37-.51-1.14.15-2.51,1.38-2.76.42-.09.86-.12,1.28-.12,11.64,0,23.28-.02,34.92.02.99,0,2.04.17,2.95.53,1.34.52,2.06,1.69,2.19,3.12.13,1.41.17,2.84.17,4.26,0,10.11,0,20.22-.03,30.33,0,.4.08.57.53.57,3.9-.02,7.8-.03,11.71,0,.6,0,.75-.16.75-.76-.02-7.13-.02-14.27-.01-21.4,0-2.25.12-4.51,1.28-6.52,2.19-3.78,5.4-5.83,9.87-5.8,7.16.06,13.18,5.68,14.33,12.03.19,1.05.24,2.14.24,3.21.03,5.99.03,11.99.04,17.98,0,.38,0,.77,0,1.24.8,0,1.53-.03,2.25,0,.99.05,1.99.05,2.95.24,2.3.47,3.54,2.27,3.3,4.59-.49,4.83-2.17,9.23-4.88,13.25-.89,1.31-2.36,1.57-3.36.6-.61-.59-.81-1.47-.46-2.26.21-.47.47-.92.76-1.35,2.13-3.15,3.3-6.65,3.75-10.4.02-.13,0-.25,0-.42ZM104.02,67.65c0-.32,0-.58,0-.83,0-6.17-.11-12.33.03-18.5.13-5.34-4.26-10.65-10.22-10.94-3.33-.16-6.15,1.76-6.91,4.99-.22.92-.07,1.93-.15,2.89-.05.63.17.8.79.79,2.15,0,4.32-.05,6.46.11,3.15.24,5.61,3.12,5.6,6.37,0,3.18-2.49,6.05-5.63,6.27-2.21.16-4.44.1-6.66.12-.41,0-.56.09-.56.54.02,2.52.02,5.04,0,7.57,0,.5.19.62.65.61,1.29-.02,2.59-.01,3.88-.01,4.2,0,8.41,0,12.71,0ZM39.32,63.25h-12.87v4.37h12.87v-4.37ZM86.8,50.3c0,1.06,0,2.07,0,3.07q0,1.34,1.37,1.34c1.7,0,3.4.02,5.1-.03,1.25-.04,2.14-.98,2.15-2.14,0-1.19-.85-2.19-2.06-2.23-2.15-.06-4.3-.02-6.56-.02Z"/>
  <path class="cls-1" d="M35.08,51.51c-.05.47-.07.95-.16,1.41-.19.97-1.11,1.69-2.1,1.67-1.03-.02-1.9-.73-1.99-1.75-.08-.89-.1-1.81-.01-2.7.1-1.11,1.04-1.88,2.11-1.88,1.01,0,1.88.81,2.02,1.9.06.45.09.9.13,1.35Z"/>
  <path class="cls-1" d="M35.09,40.75c-.07.44-.1,1.01-.25,1.54-.26.97-1.17,1.59-2.12,1.53-.92-.05-1.78-.76-1.88-1.74-.09-.95-.1-1.93,0-2.88.11-1.02,1.06-1.73,2.03-1.71,1.03.03,1.89.77,2.05,1.79.07.44.1.9.15,1.46Z"/>
</svg>