<?xml version="1.0" encoding="UTF-8"?>
<svg id="Layer_2" data-name="Layer 2" xmlns="http://www.w3.org/2000/svg" viewBox="0 0 128 128">
  <defs>
    <style>
      .cls-1 {
        fill: #fff;
      }
    </style>
  </defs>
  <path class="cls-1" d="M26.2,99.71c-8.64,0-15.66-7.03-15.66-15.66s7.03-15.66,15.66-15.66,15.66,7.03,15.66,15.66-7.03,15.66-15.66,15.66ZM26.2,72.76c-6.22,0-11.29,5.06-11.29,11.29s5.06,11.29,11.29,11.29,11.29-5.06,11.29-11.29-5.06-11.29-11.29-11.29Z"/>
  <path class="cls-1" d="M101.06,99.71c-8.64,0-15.66-7.03-15.66-15.66s7.03-15.66,15.66-15.66,15.66,7.03,15.66,15.66-7.03,15.66-15.66,15.66ZM101.06,72.76c-6.22,0-11.29,5.06-11.29,11.29s5.06,11.29,11.29,11.29,11.29-5.06,11.29-11.29-5.06-11.29-11.29-11.29Z"/>
  <path class="cls-1" d="M79.29,99.71h-31.32v-31.32h31.32v31.32ZM52.34,95.33h22.57v-22.57h-22.57v22.57Z"/>
  <path class="cls-1" d="M41.17,59.28c-8.64,0-15.66-7.03-15.66-15.66s7.03-15.66,15.66-15.66,15.66,7.03,15.66,15.66-7.03,15.66-15.66,15.66ZM41.17,32.34c-6.22,0-11.29,5.06-11.29,11.29s5.06,11.29,11.29,11.29,11.29-5.06,11.29-11.29-5.06-11.29-11.29-11.29Z"/>
  <path class="cls-1" d="M94.26,59.28h-31.32v-31.32h31.32v31.32ZM67.31,54.91h22.57v-22.57h-22.57v22.57Z"/>
</svg>