<?xml version="1.0" encoding="UTF-8"?>
<svg id="Layer_2" data-name="Layer 2" xmlns="http://www.w3.org/2000/svg" viewBox="0 0 128 128">
  <defs>
    <style>
      .cls-1 {
        fill: #fff;
      }
    </style>
  </defs>
  <path class="cls-1" d="M23.06,72.12c-4.62,0-8.37,3.76-8.37,8.37s3.76,8.37,8.37,8.37,8.37-3.76,8.37-8.37-3.76-8.37-8.37-8.37ZM23.06,84.49c-2.21,0-4-1.79-4-4s1.79-4,4-4,4,1.79,4,4-1.79,4-4,4Z"/>
  <path class="cls-1" d="M57.66,88.87c4.62,0,8.37-3.76,8.37-8.37s-3.76-8.37-8.37-8.37-8.37,3.76-8.37,8.37,3.76,8.37,8.37,8.37ZM57.66,76.5c2.21,0,4,1.79,4,4s-1.79,4-4,4-4-1.79-4-4,1.79-4,4-4Z"/>
  <path class="cls-1" d="M41.39,55.88c4.62,0,8.37-3.76,8.37-8.37s-3.76-8.37-8.37-8.37-8.37,3.76-8.37,8.37,3.76,8.37,8.37,8.37ZM41.39,43.51c2.21,0,4,1.79,4,4s-1.79,4-4,4-4-1.79-4-4,1.79-4,4-4Z"/>
  <path class="cls-1" d="M103.64,62.43h-6.11c4.77-3.25,7.91-8.73,7.91-14.93,0-9.96-8.1-18.06-18.06-18.06h-45.98c-9.96,0-18.06,8.1-18.06,18.06,0,6.2,3.14,11.67,7.91,14.93h-8.17c-9.96,0-18.06,8.1-18.06,18.06s8.1,18.06,18.06,18.06h80.58c9.96,0,18.06-8.1,18.06-18.06s-8.1-18.06-18.06-18.06ZM71.35,80.5c0,7.55-6.14,13.69-13.69,13.69s-13.69-6.14-13.69-13.69,6.14-13.69,13.69-13.69,13.69,6.14,13.69,13.69ZM87.38,33.81c7.55,0,13.69,6.14,13.69,13.69,0,1.42-.22,2.79-.62,4.07v-1.37h-27.62v4.37h26.25c-2.4,3.96-6.74,6.62-11.7,6.62h-34.23c3.86-3.32,6.31-8.22,6.31-13.69,0-.83-.08-1.64-.19-2.45h23.85v-4.37h-25.01c-1.09-2.67-2.81-5.02-4.96-6.87h34.23ZM27.7,47.5c0-7.55,6.14-13.69,13.69-13.69s13.69,6.14,13.69,13.69-6.14,13.69-13.69,13.69-13.69-6.14-13.69-13.69ZM45.91,66.81c-2.59,2.22-4.54,5.16-5.54,8.5-1.01-3.35-2.96-6.28-5.54-8.5h11.09ZM9.37,80.5c0-7.55,6.14-13.69,13.69-13.69s13.69,6.14,13.69,13.69-6.14,13.69-13.69,13.69-13.69-6.14-13.69-13.69ZM40.36,85.68c1.01,3.35,2.96,6.28,5.54,8.5h-11.09c2.59-2.22,4.54-5.16,5.54-8.5ZM103.64,94.18h-34.23c3.86-3.32,6.31-8.22,6.31-13.69,0-.83-.08-1.64-.19-2.45h24.08v-4.37h-25.24c-1.09-2.67-2.81-5.02-4.96-6.87h34.23c7.55,0,13.69,6.14,13.69,13.69,0,1.1-.14,2.16-.39,3.19v-.49h-27.62v4.37h26.02c-2.4,3.96-6.74,6.62-11.7,6.62Z"/>
</svg>