<?xml version="1.0" encoding="UTF-8"?><svg id="Layer_2" xmlns="http://www.w3.org/2000/svg" viewBox="0 0 987.24 1452.37"><defs><style>.cls-1{fill:#fff;}.cls-2{fill:#57a67b;}</style></defs><g id="Layer_1-2"><g><path class="cls-2" d="M607.24,90.17l-2.09-1.08-1.48,.61,1.67,1.07,1.45,1.7,.45-2.31Z"/><path class="cls-2" d="M579.54,65.42l.36,1.79,.24,1.17,.67-3.57-1.27,.62Z"/><path class="cls-2" d="M661.58,225.35l2.08,1.71-.03,2.74-.44,1.89-2.52-.45-1.66-1.49,1.48-.61,1.28-1.04-1.9-.02-1.04-.85,.44-1.89,2.32,.03Z"/><path class="cls-2" d="M674.52,268.66l4-.37,3.77,1.94,1.69-.61,.02-1.9,3.59-.8,1.5-1.87,3.77,1.52-1.71,2.08-1.69,.82-.24,2.1-.47,4.2-1.88-1.08-1.07,1.67-3.35-1.51-1.26-.02s-1.9,.4-2.31-.45c-.41-.85-.82-1.9-1.45-1.91-.63,0-3.58-.25-3.58-.25l-1.23-2.33,1.91-1.24Z"/><path class="cls-2" d="M693.17,276.26l-.67,2.94-.05,4-1.88-1.29-1.44-2.33,.85-.83,.03-2.11,3.16-.38Z"/><path class="cls-2" d="M659.38,267.64l-.65,1.25,.61,1.69,3.35,1.3,1.28-1.04-.81-2.96-2.3-1.08-1.48,.83Z"/><path class="cls-2" d="M665.72,266.03l.03-2.53,1.68,.86-.03,2.11-.03,2.74-1.91,1.45-1.65-2.55,.02-1.9,1.9-.19Z"/><path class="cls-2" d="M709.83,187.42l3.36,.88-.03,2.32,2.5,1.92-.45,2.52-2.32,.39,2.49,2.98,3.34,1.93,1.87,1.71-1.08,2.09,.37,3.79,.8,3.17,2.08,1.92,1.65,3.18,.6,2.74-1.28,1.25-2.32,.18-2.51-1.29,.02-2.11-1.25-.86-2.52-.66-1.02-2.54s-.41-1.27-1.03-1.7c-.63-.43-1.25-.65-1.88-1.5-.62-.85-1.87-2.13-2.7-2.98-.83-.85-2.08-1.71-2.08-1.71l-1.46-1.49-.4-1.9,2.11-.18s.63,.43,.84-.2c.22-.63,.64-1.04,.23-1.89-.41-.85-1.03-1.7-1.03-1.7l-2.08-2.13s1.89,.02,2.52,.03c.63,0,1.68,.44,1.69-.4,0-.84,.22-.84-.19-1.48-.41-.64-1.87-2.13-1.87-2.13,0,0-.83-1.06,.23-2.1,1.06-1.04,2.76-2.07,2.76-2.07Z"/><path class="cls-2" d="M507.36,766l3.92,1.94,1.28-1.09-1.88-1.13-2.67-1.45-3.48-.04,2.82,1.77Z"/><path class="cls-2" d="M560.7,729.08l2.39-1.71,2.54-1.55s2.71-2.34,2.72-2.81c0-.48,1.94-3.92,1.94-3.92l.12,3s1.26,.33,1.27-.14c0-.48,.19-2.52,.19-2.52,0,0,.65-1.41,1.29-1.72,.63-.31,1.75-1.08,1.75-1.08,0,0,.03-2.21,.03-2.68,0-.47,.02-1.58,.02-1.58,0,0-.63-.17-.62-.8,0-.63-.3-1.11,.49-1.73,.8-.62,.81-1.25,.81-1.25,0,0,.04-3,.04-3.47,0-.47,.67-3.31,.67-3.31l-.29-2.37-1.3,2.98-.5,2.2-.98,2.67-2.06,.29-1.12,1.41s-.96,1.25-.01,1.1c.95-.15,2.53-.44,2.53-.44l-.49,1.41-1.28,1.56-.62-.95-1.12,.77-1.27,1.09,1.13-1.88s-1.09-1.28-.93-1.75,.81-1.57,.81-1.57c0,0,1.12-1.41,.97-2.04-.15-.63-2.01-3.18-2.01-3.18,0,0,.44,2.53-.04,3.16-.48,.62-1.27,.62-1.43,1.09s-1.92,1.71-1.92,1.71l-.33,1.42-.02,1.74-1.12,.93-.03,2.53,.77,2.06,1.42,.02,.33-1.26s.3,.79,.3,1.42c0,.63-.51,2.83-.51,2.83l-1.56-1.76s-.81,1.25-1.42-.02c-.62-1.27-.77-1.74-.77-1.74l-.96,1.41s-.81,1.73-.82,2.36c0,.63,.61,1.74,.6,2.22,0,.47,.94,.64,.94,1.12,0,.47-.18,1.89-.18,1.89l-1.29,2.35,.93,.49Z"/><path class="cls-2" d="M595.49,763.29l1.75-.93,.34-1.73s.33-1.26-.46-1.27c-.79,0-2.23,1.4-2.23,1.4l-1.28,1.56,1.88,.97Z"/><path class="cls-2" d="M16.79,1328.33l1.89,.02,1.04,1.07-1.49,1.24-1.27,.4-1.25-.85,1.08-1.88Z"/><path class="cls-2" d="M113.53,1387.61c-1.75-.29-2.89-.43-4.62-.1-.8,.15-1.32,3.04-1.46,3.93-.27,1.77-.73,3.57-.49,5.36,.26,1.98,2.66,4.11,3.63,5.93,1.65,3.1,1.98,6.7,.95,10.04-.57,1.84-1.71,1.85-3.2,2.94-1.13,.83-2.67-1.04-3.34-2.1-.03,2.48,.63,4.49,2.08,6.57,.82,1.18,2.91,3.4,1.43,4.26-.97,.57-2.54,.18-3.65,.33-3.21,.44-4.17,2.09-5.49,4.86-.49,1.03,.59,1.69,.98,2.66,.52,1.31,.6,2.74,.48,4.11-.14,1.56-.64,1.98-1.66,3.2-.64,.76-2.22,1.05-2.58,1.88-.31,.71-.62,1.43-.92,2.14-.2,.45-1.1-.28-1.56,.38-1.34,1.96-1.31,4.04-1.34,6.3-.02,1.32,6.44,2.41,7.34,1.99,.64-.3,2.11-3.38,1.6-3.9-.94-.96-2.71-1.95-1.94-3.48,1.15,1.32,1.21,2.19,2.76,1.25,1.75-1.06,.51-1.88,1.05-3.31,.47-1.24,3.16-2.47,3.96-3.56,.95-1.3,2.5-1.13,4.09-1.39-.06,.47,.27,1,.19,1.48,2.35-.76,10.35,2.1,11.69-.93,.63-1.42,1.82-2.33,2.37-3.74,.72-1.84,3.88-1.99,5.61-2.67,.73-.28,4.87-.9,5.09-1.27,.62-1.03,4.42-.24,5.7-.79,1.7-.73,1.25-1.73,1.27-3.46,0-.39,3.43-.17,4.21-.39-.83-.49-2.32-.99-2.93-1.72-1.5-1.79-.14-1.48,1.7-1.45-1.28-2.39,3-2.68,.57-5.17-1.21-1.24-2.79-3.48-4.64-3.51-2.14-.03-2.63,1.74-4.7,2.4-.3,.1-1.98-.34-2.08-.59-.59-1.45,2.57-1.75,3.18-2.07-1.45-.66-2.62-1.01-4.18-1.32-1.6-.32-2.39-1.98-3.77-2.35-1.62-.43-2.91,1.33-3.95,2.27-.42,.38-1.42,2.57-1.73,2.45-.86-.34-1.71-.69-2.57-1.02,1.17-1.34,3.16-2.41,3.73-4.05,.74-2.12,.59-3.92,1.66-5.99,1.49,1.9,2.13,3.87,4.79,3.85-.24-1.54,6.18-.77,7.21-.75,.95,.01,.06-4.33-.42-4.22-2.81,.67-3.02-.59-4.83-2.26-1.71-1.57-3.43-3.1-5.19-4.6-1.08-.91-1.18-1.19-1.73-2.73-.22-.63,.22-2.43,.01-2.66-1.4-1.57-2.81-3.02-4.35-4.46-.87-.81-4.19-1.42-5.43-2.01-2.36-1.11-3.55,2.17-4.61,3.47"/><path class="cls-2" d="M613.08,745.19c-.86,1.31-1.79,2.96-3.23,3.69-.5,.25-4.49,1.2-4.73,1.59-1.48,2.44,4.33,2.83,5.36,.85,.06,3.82-2.91,3.35-5.56,4.76-1.69,.9-2.45,2.66-4.17,3.49-1.93,.94,.61,3.21-1.63,3.93-1.89,.6-2.48,1.11-4.59,1.24-2.6,.15-1.14-.93-3.37-1.59-2-.6-5.23,4.32-5.93,.98-.65,.8-2.47,3.27-3.52,3.43-.91,.13-4.18-1.44-5.24-1.7-.96-.24-2.82,2.77-4.23,1.74-1.69-1.22,2.29-2.59,3.06-2.72,1.79-.3,2.72-1.38,4.03-2.4,.67-.53,3.23,1.23,3.48-.35,.29-1.87,1.83-.52,3.09-.99,1.63-.61,1.87-3.07,3.8-.74,.02-.53,.45-1.04,.49-1.57,1.98,1.56,1.93-.88,3.18-2.01,.58,.69,1.43,1.2,2.35,1.45,.19-1.49,1.11-5.1-.73-5.9-3.32-1.43-1.83-2.67-.87-5.17,.28,.87,1.78,6.93,3.73,4.55,.54-.66-.1-.65-.6-1.29-1.17-1.49,.53-.55,.79-.68,.33-.17,1.5,.13,1.86,.16,.79,.07,.23-1.02,.52-1.55,.24-.42-.43-.91-.06-1.5,.44-.72,1.04-1.33,1.59-1.98,.98-1.15,.6-2.86,1.24-3.75,.56-.78,3-1.59,3.04-2.16,.14-1.95,.51-3.9,.53-5.85-2.42,2.14-.7,4.75-3.45,6.25-.98,.53-2.48,.86-3.28,1.57-.81,.7-1.08,2.93-2.11,2.72-.77-.17-4.14-.69-3.74-2.31,.36-1.48,2.79-.73,2.63-1.94-.38-2.93,3.62-2.91,1.89-6.37-.75,1.27-2.06,4.73-4.31,3.74-2.27-1,.43-4.67-2.63-4.14,1.43,1.52,.14,4.23-.08,6.16-.96-1.27-1.71-2.84-3.28-3.35-.13,2-.26,4-.39,6-.99-1.98-2.52-3.76-1.98-5.95,.48-1.95,.74-3.9,.86-5.91-4.11,.72-2.63,3.31-3.08,6.75-4.11-.27-2.43-.98-3.26-4.62,0,1.65-1.1,2.07-2.48,2.52-1.31,.44-.94,1.48-1.53,2.48-.41,.69-2.44,2.03-1.29,2.91,.77,.6,2.08,1.74,3.06,1.37,1.39-.54,3.38-3.81,5.15-2.14,3.15,2.97-2.56,3.74-3.49,4.7,.15-.16,3.12,4.85,3.68,5.56-1.24-.86-2.83-2.54-3.91-.67-.44,.75-.59,3.01-1.78,2.62-.58-.19-1.35,.05-1.91,.32,.3-2.3,.23-4.72,1.97-6.45-1.39,.32-4.43,.61-4.45,2.45,0,.7,.2,1.15-.39,1.53-1.04,.67-.49,1.56-.6,1.64-1.39,1.05-3.76,.14-3.98,2.16-.08,.81,1.39,2.54,1.37,3.79-.02,1.27,5.96,.07,7.11-.06,1.65-.18,1.83,1.05,2.85-1.18,.51-1.11,2.57-1.29,3.65-1.11-.3,.5-.2,1.23-.5,1.73,2.2,.08,4.32-.22,6.48-.56-2.83,2.76-6.52,3.42-10.47,4.2-1.44,.29-13.06,1.07-8.1,3.41-1.71,1.16-5.72,1.24-6.56,2.66,1.21,.42,2.25,1.26,2.92,2.35-3.64-.04-7.07-.96-10.72-1.18,2.18-.44,3.65-1.47,5.51-2.67,.55-.36,2.47-.37,3.26-.67,.8-.31,1.01-2.18,1.26-2.93,.47-1.4,1.49-4.83,.02-6.03-1.39-1.14-5.1,.1-5.7,1.61,.01-.65-.36-3.81,.32-4.02,1.2-.37,3.09,.71,3.53-.56,.62-1.78,2.31,.62,2.34-1.85,0-.33,2.4-.91,2.97-1.87-2.59-1.49-.51-2.53,1.32-2.51,1.34,.02,1.36-2.31,3.79-2.06-2.38-.71-8.1-2.5-10.13-.52-2.41,2.36-2.32,5.89-6.56,5.57,2.32-2.26,2.36-3.57,2.4-6.79,0-.83,.5-1.03,1.11-1.62,.89-.87-.59-.79-.23-1.44,.69-1.26,1.08-1.95,2.76-2.28,.45,5.49,6.4-.52,8.86-1.78-.77-.5-1.53-1-2.3-1.5,1.81-1.09,6.5-.59,4.04-3.74,1.61,.43,2.4-.3,1.71-1.87,1.92-.39,3.89,4.11,3.69-.27-.05-1.19-1.73-3.37-3.27-2.53-1.75,.95-5.52,2.4-5.73,4.72-.31,3.23-2.09,3.3-5.07,3.63,.14-1.75,.31-3.5,.28-5.26-1.85,1.13-2.11,4.27-3.52,4.95-2.2,1.06-4.46,1.66-6.42,3.1-2.57,1.88-3.76,1.08-4.2,4.53-.43,3.27,2.87,1.03,3.89-.08,2.85,2.11-2.05,3.32-3.33,4.09-.79,.47-4.18,4.58-4.38,2.49-.15-1.52,.24-5.06-1.98-5.43-1.37-.22-6.06,4.28-6.68,5.43-.02,.07-.06,.13-.07,.2,0-.05,.03-.11,.07-.2,.03-.08,.05-.17,.09-.25-1.54,1.51-1.64,3.47-3,4.81-1.37,1.34-6.04,4.29-4.84-.06-2.37,1.92-5.53,3.53-7.66,5.6-1.71,1.67-1.47,3.56-2.81,5.06-3.12,3.48-8.06,3.89-8.3,9.11-4.24-.76-7.56-3.56-10.87-6.23,1.06-.48,2.11-.96,3.18-1.44-2.14-3.1-4.17-6.19-6.11-9.42-1.79-3-2.14-7.03-2.75-10.45-.71-3.98-1.23-6.61,1.02-10.03,1.43-2.16,1.09-3.96,1.12-6.4,.03-2.5,1.11-4.96,1.15-7.56-1.72,.55-3.29,.93-5.07,1.2,1.25-2.42,1.31-3.76,1.34-6.51,.02-2.23-2.69-3.34-4.62-2.01-3.9,2.72-6.6,4.03-11.42,2.52-4.03-1.27-6.51-5.29-9.35-8.19-.47-.48-2.6-1.57-2.71-2.14-.14-.72,1.27-1.53,1-2.31-.8-2.24-1.4-4.18-1.73-6.54,2.66,.82,2.14-5.57,2.83-7.54,1.29-3.65,2.93-5.91,6.81-6.02,3.82-.11,7.04,.29,10.73,1.14,2.17,.5,6.92,4.31,8.38,2.88,3.02-2.94-4.67-4.86-6.25-5.55-3.31-1.46-5.64-2.32-9.46-1.63-5.09,.91-18.49-1.16-19.85,6.12,.56,0,2.8-.31,3.16,.04,.17,.16,.12,3.17-.04,3.36-1.99,2.35-4.82-1.59-4.87,2.47-.02,2.1-.33,4.59-2.59,5.13-2.72,.64-1.98-3.11-1.83-4.97-4.09,3.66-8.81,5.89-12.91,9.55-1.9,1.7-4.67,2.68-6.42,4.31-.73,.69-1.27,2.56-2.09,3.47-.8,.88-3.3,.69-4.45,.84-1.35,.18-2.87,4.7-3.81,5.82-1.66,2-4.05,4.18-4.87,6.73-1.93,6.08-1.7,11.41-1.19,17.73,.45,5.64,.12,11.43,.18,17.09,.02,2.27,.93,4.61,.77,6.86-.19,2.69-1.79,5.24-2.04,7.94-.19,2.07,.34,6.46-1.24,7.92-2.65,2.46-4.47,4.49-6.45,7.5-3.03,4.61-4.33,10.22-7.16,14.96-2.98,5-6.82,9.1-11.19,12.85-1.81,1.56-3.71,3-5.55,4.52-2.44,2.02-4.94,.52-7.91,1.06-2.96,.54-4.35,1.41-7.45,1.26-2.94-.14-4.86,.46-4.37,4.05,.4,2.96,.77,5.36,.33,8.3-.4,2.69-2.56,4.74-2.93,7.32-.82,5.84-.77,11.88-3.53,17.07-2.76,5.19-.56,10.76-1.44,16.43-.9,5.82-3.92,9.82-5.6,15.35-.67,2.19-3.48,3.52-3.5,5.15-.04,3-1.66,5.23-2.33,8.11-.54,2.37-1.12,4.67-1.98,6.94-.43,1.14-.73,3-1.58,3.9-1.02,1.08-2.17,1.99-2.71,3.38-1.09,2.76-2.26,4.85-3.97,7.28-1.5,2.15-3.66,3.56-5.16,5.65-1.75,2.44-3.54,4.63-5.55,6.87-1.67,1.84-2.85,5.27-4.37,7.4-1.58,2.22-1.95,4.56-3.53,6.31-1.51,1.67-3.75,4.3-5.67,5.34-2.31,1.26-5.49,2.3-7.26,4.28-1.73,1.93-3.31,5.04-5.74,5.87-3.02,1.03-5.49,1.79-8.65,2.1-2.31,.23-4.31,3.87-5.82,5.23-1.74,1.56-4.48,3.62-6.58,4.55-.92,.4-3,.17-3.54,1.06-.85,1.42-1.61,2.53-2.73,3.73-1.6,1.72-1.32,4.64-2.93,6.67-.69,.87-1.77,1.56-2.61,2.31-.67,.61-1.35,1.21-2.02,1.81-.53,.48,.08,1.27-.28,1.71-1.43,1.72-4.1,3.77-6.01,4.96-1.75,1.09-3.12,5.02-4.4,6.72-2.11,2.8-3.4,3.44-6.64,4.86-1.04,.46-2.58,.32-3.71,.43-1.16,.12-2.74,2.12-3.59,2.85-4.73,4.03-4.69,9.89-7.82,14.85-1.18,1.87-1.18,1.76-3.42,1.73-1-.01-1.59,1.96-2.15,2.71-.5,.68-1.44,2.3-2.32,2.29-1.95-.02-3.07-.35-4.5,1.04-2.29,2.23-4.07,2.44-7.08,2.4-2.56-.03-5.06,2.45-7.06,3.7-4.03,2.54-7.2,5.89-11.85,8.15-1.57,.76-3.41,4.37-4.63,5.81-1.64,1.95-2.97,4.26-4.85,5.98-1.59,1.45-4.54,4.05-2.88,6.68,1.72,2.72,4.4,5.84-.5,4.72-3.89-.88-5.44-5.31-9.19-1.88-2.65,2.43-4.12,5.6-6.34,8.44-1.75,2.24-5.65,2.1-8.38,3.16-3.47,1.34-5.34-.09-6.57-3.41-4.65,3.21-8.21,5.54-13.95,5.69-.92,.02-1.83,.01-2.75,0-2.34-.03-1.36,.02-2.55,1.65-.33,.45,.23,1.02-.25,1.5-.59,.6-1.18,1.21-1.77,1.81-.91,.93-.86,2.29-.67,3.45,.09,.56-3.26,3.95-3.8,5.09-1.12,2.36-3,3.81-5,5.43-1.83,1.48-3.44,2.99-4.77,4.93-1.52,2.23-3.77,2.78-6.25,3.71,.92,2.45,5.35,1.23,5.31,4.53-.05,3.89-2.76,3.5-5.95,3.46-3.86-.05-1.01,3.15-3.47,4.94-.69,.51-3.47,1.61-3.69,2.15-.49,1.18-.97,2.66-1.81,3.65-1.87,2.21-3.35,3.01-3.93,6.24-.11,.63-.12,1.54-.38,2.13-.16,.34-1.35,.26-1.48,.61-.42,1.13-.04,3.09-.05,4.34-.05,3.86-.83,5.68,2.54,7.91,2.19,1.44,5.9,4.26,4.21,7.4-1.17-3.67-1.24-3.74-4.85-4.99-3.76-1.3-3.58-1.58-4.49-5.43-1.58,1.07-1.97,2.83-3.2,3.75-.44,.33-1.4-.2-1.95,.15-.74,.48-1.61,.91-2.28,1.48-.47,.4-3.41,3.18-3.41,3.75-.01,1.67,2.78,1.69,1.43,3.81-1.41-1.06-2.48-2.74-4.1-1.77-2.1,1.25-2.01,1.97-2.61,4.37-.65,2.61,6.66,5.07,5.09,8.96-1.03-1.16-3.23-4.25-4.93-4.27-2.73-.03-5.71,.6-3.28,3.96,.93,1.29,5,2.86,2.35,4.93-2.48,1.94-1.57,3.38-1.22,6.46-2.21-1.81-2.06-1.88-1.67-4.72,.39-2.85,1.23-3.06-1.47-5.27-2.56-2.1-8.23,2.03-9.01,4.8-.63,2.25,1.99,8.81,3.14,10.51,.6,.89,3.82,4.42,3.62,5.36-.29,1.38-3.35,2.2-4.25,3.53,1.05-3.11,1.05-4.9-2.67-5.51,2.87-3.77-.03-7.99-2.82-10.56-1.21,1.68-1.32,1.58-2.95,2.23-3.16,1.27-.7,1.94-2.47,3.68-.5,.49-1.21,1-1.62,1.58-.48,.69,.7,1.38-.25,1.95-1.91,1.16-.77,2.38-2.89,3.53-3.51,1.9-2.66,5.18,1.2,5.23,1.6,.02,2.34,1.93,4.08,1.95,2.09,.02,3.21-.1,4.84,1.32-4.3,1.18-10.39-.49-14.38-2.15-1.42-.59-1.01,5.35-.12,6.26,2.56,2.62,4.22,1.79,7.68,2.33-.89,.97-3.75,.8-3.91,1.43-.46,1.74,.12,2.77,1.75,3.6-1.48,3.26-6.93-6.59-8.11-8.31-1.03,.91-5.08,4.31-1.54,5.24,2.59,.68,2.37,5.91,5.6,7.02-3.41,1.29-6.78-8.31-9.62-5.59-1.66,1.59-.05,9.51,.61,11.34,.65,1.81,1.31,3.41,2.35,5.02,1.5,2.31,2.65,1.27,5.31,.76,1.46-.29,3.09-2.7,4-1.35,1.02,1.5,3.07,3.17,2,5.05-2.17-2.02-3.66-2.78-6.7-1.86-1.49,.45-2.72,.69-3.92,1.67-.52,.43-.92,2.88-.3,3.1,6.05,2.1,7.78,6.68,10.3,12.24-2.74,.26-5.71-6.54-7.71-8.4-2.91-2.71-6.28-4.5-9.15-7.17,1.04,.01,4.15,.63,4.27-.49,.21-1.9-.46-2.79-1.35-4.5-1.97-3.81-2.15-6.45-2.1-10.78-3.31-.32-3.06,3.75-4.71,6.15-1.52,2.22-1.26,1.38-.46,3.26,.45,1.06,2.94,2.73,2.9,3.82-.05,1.27-1.74,2.08-2.69,1.91-2.41-.44-2.59-.94-3.64,1.26-1.44,3.02-2.81,6.05-4.13,9.12,2.06,.68,4.65,2.49,6.31,.29,.48,1.5,3.84,7.21,6,4.27,.91-1.24,1.4-2.64,2.97-2.8,1.53-.15,3.23-.91,3.42,1.2-.9,0-2.98-.47-3.6,.22-.7,.78-2.1,3.14-2.97,3.49-2.82,1.15-5.14-2.11-7.33-2.83-7.44-2.42-7.74,7.36-6.88,11.92-3.51-.79-2.59,5.1-2.62,7.34,1.22-.1,3.48,.17,4.47-.55,1.96-1.44,3.51-2.93,6.1-2.9,1.68,.02,5.16-2.68,6.53-3.63,2.21-1.54,4.28-3.18,6.21-5.05-.04,4.77-3.73,5.33-7.46,7.7,2.25,.1,4.49,.19,6.73,.29-2.33,.49-4.4,1.02-6.62,1.85-1.89,.71-3.62,.02-5.41,1.08-2.11,1.25-3.78,2.3-5.52,4-1.28,1.25,.25,4.98,.33,6.54,2.7-.53,5.8-1.05,8.03-2.85,1.23-.99,.74-1.75,2.35-2.37,1.9-.72,3.8-1.44,5.71-2.17-.8,3.52-2.43,4.01-5.66,5.32-2.75,1.12-8.54,2.35-9.83,5.16-2.18,4.75,4.45,1.75,5.79,1.85,3.47,.26,7.19,.17,10.59,.74-3.68,.82-6.32,1.93-6.6,6.24-1.78-.5-5.4-1.85-7.11-.66-2.53,1.76-4.17,1.48-6.88,2.49-1.27,.47-2.26,.58-2.96,1.72-.94,1.53-.88,2.58-2.58,1.78-2.62-1.23-5.07-.82-7.8-.08-2.78,.76-3.36,4.71-3.65,7.03-.54,4.22,.68,4.93,2.14,8.51,.85,2.09,.02,5.96,.93,7.49,1.37,2.31,4.66-.92,6.55-2.24-.81,3.13,2.24,1.98,2.63-.36,.35-2.12,2.25-4.23,3.25-6.28,.78-1.61,.88-3.46,1.63-5.06,1.04-2.21,1.47-2.25,3.83-3.32-2.02,2.8-2.77,6.57-3.91,9.85,3.78,1.34,5.92,.31,8.86-1.79,1.54,2.93-7.86,4.63-9.88,6-2.54,1.73-1.52,3.04-1.85,5.85-.25,2.14-1.09,4.26-1.76,6.3,1.2-.81,2.39-1.63,3.58-2.44,1.08-.73,2.17,.67,2.97,.21,.7-.4,1.09-2.68,2.13-3.43,1.03-.75,1.9-1.74,2.81-2.63,1.43-1.4,1.89-1.28,1.91-3.49,.01-1.26,.72-2.09,1.83-2.42,4.46-1.31,5.71-4.22,9.23-7.17-.95,1.97-1.69,4.56-3.02,6.28-.79,1.03-.7,1.63-2,1.77-.84,.09-3.61-.08-3.93,1.1-.45,1.7-1.08,1.92-.25,3.47,.65,1.23,1.28,2.44-.49,2.41,.17,0-3.59,4.79-4.54,5.57-1.75,1.42-1.75,4.46-3.58,4.96-3.22,.88-.55,3.27,.61,5.06,1.65,2.54,2.45,2.03,5.12,2.06,2.61,.03,4.33,1.05,6.83,1.56-.75-3.06,6.46-1.81,8.41-1.79,2.73,.04,5.74,.5,8.44,.94,3.97,.66,7.52,1.15,11.56,1.19,2.19,.03,2.92,.28,4.5-1.1,1.32-1.15,3.87-1.15,5.56-1.04,4.91,.33,3.15-1.61,3.56-5.19,.43-3.8,3.91-5.28,7.1-6.4,2.45-.86,6.5,1.36,8.87,2.22,1.62,.59,1.59,2.27,3.27,1.17,1.51-.98,2.18-2.64,3.1-4.17,.83,1.64-1.84,6.5-1.12,7.05,2.08,1.6,4.07,3.05,6.17,4.57,4.08,2.95-.73,3.81-1.11,6.28-.33,2.15,1.65,2.68,3.08,3.82,.87,.7,4.81,4.39,6.15,3.91,.72-.26,.78-2.49,1.51-2.72,.91-.29,2.58,2.07,3.56,1.94,2.2-.29,2.85-3.12,5.8-3.09,2.34,.03,4.54,1.61,6.63,2.61-.39-3.78,1.05-6.63,5.47-5.35,4.73,1.38,6.84,4.25,9.44,8.26,1.08,1.66,4.2,10.61,5.95,5.04,.18-.57-.08-1.27,.12-1.8,.29-.78,1.23-.44,1.34-1.47,.22-2.24,.44-4.48,.66-6.72,.78,2.92,1.21,8.46,4.3,9.95-1.9,1.85-3.45,3.26-5.74,4.56,2.81,1.08,9.48,4.71,11.16,.14,.47-1.27-.92-4.64,.84-4.62,2.35,.03,4.65,.09,7,.3-1.08,1.94-3.83,7.15,.86,7.17,2.74,0,4.08-.52,6.37-2.04,1.53-1.02,1.17-3.95,2.03-4.6,.79-.59,3.14-.34,4.24-.55,3.24-.59,1.81,3.25,1.43,5.04-.62,2.94,4.66,2.69,6.02,5.31,.95,1.84,1.37,3.15,1.75,5.19,.18,.93,3.96,.51,4.84,.46,2.82-.15,7.13,1.19,9.61,.35,1.97-.67,8.88-.98,8.37-3.56-.28-1.41-.6-3.23,1.27-3.89,1.28-.45,.92,4.72,.83,5.37,1.36,2.66,4.86-.37,6.11-1.67,3.05-3.18,3.18-.88,6.98-1.11,2.31-.14,5.46-2.19,7.49-3.12,1.12-.52,.77-1.3,.79-2.48,.02-1.77,.94-1.62,2.55-2.27-.39-.1-.96-.15-1.27-.42,.38,.33,3.58-.23,4.65-.13,2.4,.21,2.96,.77,4.81,2.34-.32-4.47,2.12-4.12,5.13-6.46,1.26-.98,2.42-1.89,2.94-3.39,.91-2.62,.24-2.24-2.22-3.34,1.98-1.2,14.44-.65,9.12-6.89-5.08-5.95,2.91-7.94,6.47-11.02,2.06-1.79,2.85-3.87,5.23-5.41,2.35-1.53,3.64-3.55,5.69-5.41,4.21-3.81,10.69-7.23,11.27-13.33,.54-5.63,1.27-9.86,4.88-14.55,2.07-2.69,3.31-4.19,6.2-5.9,1.15-.68,2.39-.6,3.72-.73,1.67-.15,3.06-1.08,4.57-1.81,4.84-2.35,11.3-1.28,15.9-3.52,.62-.31,.45-1.01,1.25-1.07,.56-.04,1.62,.09,2.13-.15,.72-.33,2.42-1.3,2.23-2.09-.3-1.25-1.47-1.89-1.75-2.95-.34-1.29,.48-3.22,.9-4.41,.22-.63,.44-1.26,.65-1.89-1.31,1.15-2.35,1.98-3.91,2.73-.75,.37-1.65-.02-2.46,.31-.39,.16-.46,2.36-.84,3.01-2.29,3.89-5.69,4.67-9.76,5.52,.57-2.46,3.27-2.17,4.47-3.94,.94-1.39-.04-3.03,2.35-2.92-3.63-1.2,1.64-3.15,3.26-3.77,2.99-1.15,3.57-3.23,.03-3.27-2.97-.04-2.75-2.86-5.97-2.33-1.86,.3,2.62-4.86,2.64-4.94,1.9-2.36,2.4-3.27,2.81-6.28-3.84,.13,.85-2.17,2.57-2.92,2.14-1.44,2.2-3.03,2.69-5.36,.54-2.6,1.09-2.76,2.77-4.78,1.38-1.66,2.51-3.62,3.84-5.34,.3-.38-1.53-2.42-1.27-3.56,.81-3.56,4.27-5.84,4.31-9.04,.01-1.11-2.44-2.23-2.9-3.59-.44-1.29,.05-3.05,.27-4.31,.69-3.96,2.23-6.84,3.42-10.62,.51-1.61,1.18-3.23,2.24-4.58,.87-1.11,3.32-2.31,3.45-3.75,.52-5.99,8.71-12.34,11.95-17.52,2.09-9.87,1.91-19.07,.24-28.95-.72-4.26,.24-9.05,.82-13.27,.61-4.46,5.13-8.03,4.97-12.22-.07-1.97-1.41-4.79-.98-6.55,.65-2.66,1.9-3.49,3.55-5.63,1.49-1.93,2.44-4.6,4.41-6.11,2.14-1.65,2.76-4.29,5.4-5.25,5.1-1.85,2.07-9.79-.48-12.93-1.44-1.77-8.71-10.1-7.41-11.89,2.08,3.23,6.6,5.34,9.55,7.68,3.42,2.71,4.48,6.16,5.39,10.19,3.67-3.31,8.44-5.31,12.71-7.79,4.44-2.59,8.51-6.35,13.14-8.44,4.57-2.06,8.62-6.47,13.2-8.01,3.28-1.1,4.79-2.04,7.4-4.32,1.82-1.59,4.18-2.37,5.94-4.07-1.69-1.59-3.72-3.09-5.17-4.91-2.28-2.86-3.32-6.04-5.24-9.08-3.16-5.01-12.59-4.15-13.5-10.09,3.99,2.11,7.98,4.24,11.96,6.36,3.31,1.77,8.54,4.53,11.24,7.18,1.94,1.9,3.1,4.69,4.96,6.72,2.53,2.75,2.8,1.71,5.96,.31,1.73-.76,4.31,.65,5.44-1.78,.63-1.35,.15-5.76-1.83-5.49,.36-3.44,3.42-6.52,5.17-9.41,2.13,2.56,2.79-.97,4.85-.78,1.96,.17,3.99,4.69,6.04,5.34,1.7,.53,3.6-.54,5.27-.35,2.6,.28,3.38,1.84,4.58,3.84-6.31,1.89-14.96,1.7-19.65,6.29,5.31,.06,10.48-1.55,15.76-2.07,2.42-.24,4.51-.88,6.77-1.82,2.2-.91,3.36-2.66,5.77-3.56-1.88,2.17-3.85,3.06-2.55,5.74,.7,1.45,4.15,1.11,5.4,3.05,1.79,2.76,9.86,4.28,12.38,2.13-3.39-1.19-3.62-4.65-4.07-7.75-.46-3.18,1.17-5.46,1.95-8.48,1.11,.82,1.4,1.95,1.74,3.19,.24,.88-.87,1.09-.96,1.86-.11,.93,.66,.92,.29,2.11-.26,.84-.33,1.28-.34,2.16-.03,2.53,3.34,9.31,6.52,5.59,1.23-1.44,2.34-2.86,3.69-4.17,.47-.46,1.69-.45,1.99-.9,.45-.68,.17-1.95,.45-2.73,.73-1.98,5.23-8.72,.11-8.63,1.42-1.99,.68-4.57-1.62-5.18-2.12-.56,0-3.44-3.32-3.94-2.61-.39-3.19,2.08-4.87-1.02-.83-1.54-4.38-2.84-4.73-.58-.12,.76-1.49,6.5-2.64,4.4-.59-1.08,1.09-4.52,.5-6.2-.36-1.02-4.02-2.98-4.23-1.51-.31,2.13-.43,5.68-3.19,5.95,1.46-1.76,2.13-3.86,1.34-6.09-1.52,.7-3.58,2.24-5.15,2.57-2.31,.48-4.01-.4-4.8,2.36-.48-.78-.96-1.56-1.44-2.33-.15,.84-.3,1.68-.45,2.52-1.69-.14-.95-1.65-.86-3.03,.12-1.7,2.09-1.44,3.62-1.78,1.41-.32,6.78-1.24,7.32-2.12,.65-1.05-1.18-1.82-2.1-2.19-1.97-.78-1.93-1.15-2.68-3.17-.93-2.49-1.42-5.21-2-7.8-1.44-6.38-1.86-11.74-.97-18.23,.35-2.54,.15-5.38,1.19-7.74,1.76-3.96,1.17-4.05-2.69-5.73,1.67,.02,4.51,.74,5.29-.86,1.04-2.14,2.39-4.64,.7-6.85,1.76,1.48,3.76,2.84,6.09,.92,.95-.79,.76-3.01,1.73-3.77,.72-.56,2.46-.57,3.41-.92,2.35-.85,5.15-1.67,7.19-3.12,.83-.59,2.23-2.12,3.26-2.1,.72,.01,3.74,.46,4-.21,2.19-5.79,4.92-7.83,10.91-9.32,3.14-.78,2.87-4.44,4.56-6.87,1.87-2.67,2.25-3.53,3.24-6.7,.93-2.98,1.88-4.05,4.28-5.88,1.05-.81,2.06-7.6,2.7-9.33,2-5.38,4.23-10.61,6.6-15.84,.76-1.68,2.44,.18,1.46-2.24-.63-1.58-.21-2.06,.41-3.69,.87-2.29,.99-5.22,2.53-7.16,1.31-1.64,4.22-4.56,6.2-5.36,2.14-.86,5.05,1.11,7.35,1.67,.7-1.71-.07-2.44-1.11-3.62-1.03-1.16-.66-2.06-.57-3.63,.1-1.73,.18-1.9,1.35-3.17,.95-1.02,2.9-.68,3.63-1.54,.26-.31,.25-3.43,.32-3.94,.22-1.51,1.18-1.6,2.49-2.24,1.65-.8,.47-1.48,1.51-2.61,.96-1.06,2.54-1.86,3.82-2.48,2.39-1.16,2.37-4.71,4.48-5.31,3.96-1.14,1.51-3.19,1.55-6.22,.06-4.38,2.76-11.35,6.22-14.24,4.78-3.99,9.92-8.74,12.85-14.23,1.38-2.57,2.39-3.91,3.13-6.83,.23-.91,1.48-2.19,2.35-2.52,.49-.18,4.17-2.13,1.49-2.66-3.23-.64-4.27-.91-6.51-3.35-2.71-2.96-2.36-5.35-2.54-9.26-.07-1.45,.01-5.57-1.22-6.51-1.7-1.29-2.93-1.79-3.86-3.82-.57-1.24-2.4-1.44-3.14-2.55-3.02-4.54-1.85-8.25-.79-13.37,.35,.33,.92,.46,1.25,.81-.85-3.23,6.64-15.05,9.11-9.52-1.14,.95-5.17,3.14-4.16,4.53,1,1.36,3.77-.85,4.95-1.77,.76-.59,1.82-.83,2.7-1.18,1.39-.56,.86-2,1.42-2.78,1.5-2.1,4.14-2.75,4.17-5.61,.02-1.23,2.34-3.84,3.35-4.41,1.54-.87,4.7-.1,4.84-2.03,.3-4.48,2.08-7.79,1.51-12.24ZM69.73,1304.93c-1.79,3.47-2.69,4.96-6.5,4.91,.03-2.06-.08-4.06-.22-6.11-.1-1.47-2.85-3.76-3.87-4.8-1.26-1.29-4.3-.31-4.27-2.46,.02-1.95,2.01-3.45,3.88-3.43,2.42,.03,2.95,1.85,5.05,3.09,2.06,1.21,1.27,3.71,3.97,4.29,1.76,.38,2.94,2.61,1.97,4.5Zm8.14-56.79l-2.87,2.49-.03,2.53-2.52-.66-2.19-1.29-.62-.95-1.9,.29-1.58-.02,.97-2.2,.02-1.9,2.22-.6,1.58,.02,1.91-1.24,1.89,.34,1.25,.96,1.58,.02,1.27-.62,.61,1.59-1.59,1.24Zm27.11-58.16c-2.14,2.68-5.29,6.38-3.63,9.81,1.3,2.68-.56,7.31-.6,10.35,0,.7,.79,5.26,.69,5.42-1.59,2.32-1.13,3.64-4.01,4.33-.56,.13-1.05,4.48-.96,5.11,.29,1.88,2.17,3.28,2.15,5.27-.04,3.52-3.89,6.81-6.74,8.89,.26-2.1,.44-2.69-.7-4.45-.54-.82-2.65-2.54-3.62-2.55-4.7-.06-7.06-.65-10.71-3.92,2.03,.03,4.05,.05,6.08,.07,2.28,.03,4.56,1.19,5.97-.54,1.72-2.1,1.77-3.72,2.13-6.37,.34-2.48,.16-3.28-1.86-4.8-2.01-1.51-3.91-3.1-6.15-4.25-2.12-1.09-4.58,1.12-4.37-2.73,.07-1.25,2.06-1.1,.66-3.08-.61-.86-1.7-1.71-1.86-2.72-.35-2.29-1.22-3.64-.77-5.9,1.25,3.02,2.43,5.38,4.32,8.05,2.37,3.34,5.58,3.77,9.16,5.35,.74,.33,3.88,1.12,3.96,.4,.16-1.32,.92-3.77,.66-5.06-.28-1.39-1.94-3.27-2.95-4.3-1.16-1.19-.98-3.04-2-4.6,2.05,.02,3.16-.5,4.2,1.3,1.12,1.92,1.54,2.09,3.64,2.9,.29-2.35-.15-2.91-.57-5.06-.47-2.41,.69-3.17,2.27-4.71,2.87-2.8,2.85-7.01,4.17-10.79,.78-2.24,1.97,3.18,2,3.32,.3,1.6,.47,3.95-.57,5.26Zm65.93,21.42c.32,2.53,.19,5.05,.16,7.61-.03,2.52,.96,6.39-1.89,7.2-.52-2.85-.46-6.16-2.07-8.55-1.92-2.85-3.18-5.94-1.08-8.53,2.03-2.51,3.35-4.52,1.77-7.88-1.32-2.81-7.76-1.09-9.71-.55-4.16,1.15-10.24,2.99-13.95,.14-1.67-1.28-4-4.4-4.15-6.55-.16-2.3,1.13-4,1.15-6.23,.03-2.14-.84-4.43-1.59-6.43-.99-2.66-1.16-4.04-1.25-6.86-.09-2.8-.75-4.65-1.78-7.21-.55-1.37-1.18-5.3,1.16-4.23,2.31,1.05,2.39,3.52,3.69,5.6,1.49,2.39,1.51,2.97,1.59,6.02,.07,2.49,.97,3.96,1.28,6.26,.43,3.24,.47,5.48,2.4,8.19,.75,1.06,.58,2.32,.67,3.62,.08,1.22,1.21,1.24,2.26,1.68,1.65,.7,3.91-1.03,5.63-1.55,4.57-1.39,8.47-1.84,12.86,.24,1.29,3.21,.72,6.11,2.73,9.09,1.19,1.76-.19,6.67,.09,8.92Zm28.46-71.11c.15,2.68,.75,4.9,2.24,7.19,1.51,2.33,1.52,2.81,1.21,5.56-4.46-.65-8.62-1.97-13-2.75-2.24-.4-1.94-2.7-1.73-4.9,.18-1.88,.05-4.5,.76-6.27,1.06-2.66,1.56-4.27,1.6-7.12,0-.8,2.46-1.81,3.18-1.8,1.04,.01,1.43-2.42,1.62-3.14,1.19-4.52,.8-8.66,.48-13.26,2.7-1.97,2.45-1.95,5.06,.19,.96,.79,.06,1.18,.6,2.09,.45,.75,1.39,1.42,2,2.05,1.18,1.2-.91,9.18-1.53,10.9-.73,2.01-2.2,3.3-2.38,5.48-.17,1.99-.21,3.79-.1,5.78Zm13.41-17.31c-.45,.7,1.65,3.83,2.04,4.63-4.02,.1-2.19,6.1-2,8.19,.3,3.22-.89,6.47-4.51,7.21-.27-3.15-.56-6.1-.33-9.24,.15-2.14,.25-3.63,1.37-5.53,.71-1.21-.84-1.69-1.84-2.48-1.24-.98,5.75-11.85,6.86-13.62,.74-.3,1.48-.61,2.22-.92-.04,3.51-.4,6.3,1.15,9.49-3.09-.04-3.32-.28-4.96,2.28Zm43.13-22.87c-.34,.41-.8,.51-1.43,.13-3.19-1.97-5.5-4.22-5.45-8.17,.04-3.49,1.23-5.82,2.95-8.83,1.19,3.47,2.69,6.53,4.29,9.82,.49,1.01,.76,5.7-.36,7.06Zm24.2-13.24c-.2,.51-3.5,.66-4.18,.77-.29-3.26-1.07-6.38-1.44-9.62-.28-2.51,1.1-7.89,4-4.17,.54,.69,2.48,2.6,2.23,3.31-.7,2.01-.26,3.18,.2,5.29,.36,1.66-.22,2.9-.81,4.43Zm24.54-39.55c-.5,2.14-.63,4.37-.84,6.55-.2,2.19,.12,5.16-.4,7.26-.77,3.07-2.42,3.54-5.11,4.04-1.37-2.11-.97-3.19-.82-5.59,.14-2.4,.32-4.79,.35-7.19,.01-1.17-.26-1.76-.73-2.85-.67-1.55,.02-1.55,1.31-2.62,1.97-1.65,5.32-3.67,6-2.83,1,1.23,.61,1.66,.24,3.23Z"/><path class="cls-2" d="M327.17,1251.93c-.1,.04-.24,.1-.41,.17h0c.14-.05,.28-.11,.42-.17Z"/><path class="cls-2" d="M540.18,746.59c-.04,.08-.07,.15-.07,.2,.01-.07,.05-.13,.07-.2Z"/><path class="cls-2" d="M5.19,1287.13c1.56-2.62,1.63-3.9,1.67-6.93,.37,1.57,.45,4.14,1.47,5.4,.8,.98,1.19,1.09,2.4,1.51,1.87,.65-.25,1.52,.65,2.62,.35,.43,2.27,.32,2.54-.14,.93-1.59,1.41-.18,2.32-1.06,2.08-2.03-2.68-3.14,.49-5.26,1.01,.79,.66,1.45,.65,2.12,0,.46,2.11,.66,2.47,.66,.06-5-.91-14.54-8.2-12.04-1.84,.63-2.37,.99-3.69,2.42-1.21,1.31-1.96,1.55-2.82,3.22-.98,1.91-1.82,2.27-1.85,4.62-.03,2.31-1.84,3.9-3.28,5.54,1.79,2.31,4.26-1.12,5.19-2.68Z"/><path class="cls-2" d="M6.52,1290.1l-1.69,.4-1.71,1.87,1.67,.86s2.11-.6,2.74-.6c.63,0,2.74-.18,2.74-.18l-2.08-1.92-1.68-.44Z"/><path class="cls-2" d="M663.98,300.12c-.06,0-.12,0-.17-.01,0,.02,.14,.02,.17,.01Z"/><path class="cls-2" d="M663.98,300.12h0Z"/><path class="cls-2" d="M586,516.84c-.05,0-.13,0-.2,0-.02,.05-.05,.1-.06,.15,0,0,.23-.14,.25-.15Z"/><path class="cls-2" d="M987.2,382.8c-.27-.96-3.76-3.06-4.67-3.73-4.18-3.04-8.78-3.82-13.65-5.1,.43,.11-2.15-4.29-2.15-4.26-.38-1.97,2.36-2.67,3.62-3.32-2.07-.64-3.88-1.13-6.02-1.37-1.69-.19-3.89-1.46-5.53-1.29-.85,.08-1.65,1.09-2.52,1.01-.82-.08-1.65-.14-2.47-.24-1.98-.25-3.87-.46-5.86-.48-2.06-.03-4.11,.04-6.17,.11-1,.04-2,0-2.99-.02-.46,0-.19,1.67-.23,2.1-.43,4.34-4.4,6.41-8.05,4.32-.42,1.09-.74,3.13-1.52,3.98-.78,.85-2.87,1.35-3.97,1.75-2.17,.78-4.79,1.1-7.08,1.41-.69,.1-2.79,0-3.31,.46-.8,.7-.23,2.84-1.15,3.81-.8,.84-3.77,1.99-3.2,3.48,.43,1.12,.25,1.15-.32,2.44-.48,1.07-1.01,1.96-1.71,2.92-.39,.54-.82,1.17-1.37,1.57-.77,.57-1.23-.24-1.69-.02-1.46,.69-2.97,4.08-3.81,5.48-3.79,6.33-9.35,11.85-16.85,13.26-4.41,.83-8.57,2.08-13.05,1.35-1.53-.25-3.02-.86-4.52-1.23-1.86-.46-.95,.89-1.38,2.13-.42,1.21-2.55,.29-3.41,.71-1.06,.52,.71,1.59,.64,2-.31,1.87-4.37,3.68-4.47,.67-.11-2.94,.25-3.26-2.3-4.67-1.53-.85-2.34-3.58-3.16-5.08-.5-.92-4.22-1.62-5.2-1.98-1.68-.61-3-1.19-4.52-2.12-1.38-.84-3.25-2.56-4.83-2.93-3.76-.87-7.85-1.38-11.5-2.66-3.28-1.15-6.58-2.96-9.68-4.56-3.63-1.87-7.78-3.11-10.12-6.52-1.35-1.96-1.71-3.75-4.13-3.65-2.02,.09-3.01-.19-4.94-.88-4.32-1.54-8.66-3.04-12.12-6.14-1.26-1.12-3.17-1.75-4.21-3.07-.78-1-1.46-2.1-2.15-3.17-.96-1.49-3.11-1.73-4.73-2.31-1.99-.72-2.82-3.34-4.77-3.85-.73-.19-1.64-2.41-2.02-2.29-.87,.25-1.73,.51-2.59,.76,.96,2.71,2.6,5.74,5.39,7.01,1.72,.79,4.97-.35,6.12,1.02,2.07,2.47-.04,3.06-2.38,3.03-1.97-.02-4.96,.27-6.58-.9-2.38-1.72-4.25-3.9-6.6-5.61-2.45-1.79-2.83-2.24-3.88-5.13-.7-1.94-.53-4.7,1.24-5.65,1.17-.63,.03-1.68-.48-2.74-.45-.92-.27-1.89-.26-2.9,1.97,2.02,3.72,4.28,5.68,6.29,.9,.92,1.91,2.23,3.17,1.71,1.3-.54,.15-1.84-.29-2.98-1.74-4.51-6.01-7.54-8.1-11.85-1.13-2.33-.66-4.22-1.24-6.66-.59-2.5-1.25-4.92-2.01-7.37-.35-1.13-.98-2.42-1.11-3.59-.18-1.61,.67-1.93-.63-3.02-2.55-2.14-2.86-4.17-3.03-7.34,1.11,1.77,1.88,2.99,3.53,4.25,.05-3.97,.1-7.94,.15-11.91,.02-1.5,.7-5.77-.12-7.04-1.49-2.29-3.34,1.03-4.23,2.05,.45-1.46,.9-2.92,1.36-4.38,.46-1.5,.18-1.62-.72-2.99-.59-.91-.22-3.09-.25-4.16-.04-1.32,.62-.95,1.87-1.07-.83-1.54-1.52-3.08-2.19-4.7-.44-1.06-1.69-2.65-1.71-3.76,0-.47,.91-1.63,.56-1.98-.64-.65-1.27-1.31-1.91-1.96-1.02-1.04-2.2-.95-3.64-1.17-.02,1.12-.03,2.25-.04,3.37-1.18-1.14-2.36-2.27-3.54-3.41-1.81,2.36-1.54,4.66-1.35,7.56-1.79-1.17-2.26-1.2-2.49-3.29-.31-2.93,.31-.67,1.71-2.19,.67-.72,0-2.79,.7-3.82,.96-1.4,2.45-1.14,3.37-2.24,.61-.72,.17-3.08,1.1-3.44,1.5-.58,2.7-1.23,4.06-2.07,1.07-.66,2.82,.17,2.3-1.76-.2-.75-1.9-1.95-2.49-2.56-1.29-1.32-1.55-.23-3.17,.24-1.42,.41-2.84,.8-4.26,1.19-1.13,.31-3.16,.23-3.66,1.18-.77,1.5-1.29,2.29-2.77,3.12-3.48,1.93-2.37-3.98-2.35-5.72,0-.57-1.76-2.51-2.28-2.76-1.57-.74-2.16,.7-2.93-1.51,.92-.13,1.83-.26,2.74-.39-.53-1.22-1.3-1.95-.49-3.06,.77-1.05,.28-1.82-.02-3.08-.35-1.49-3.93-1.58-5.28-2.15,.62-1.35,.61-2.16,.92-3.52,.42-1.84,1.09-2.47-.52-3.53-.64-.42-2.28-2.87-2.57-2.87-1.75-.02-2.68-.48-2.36,1.66-1.54-.6-2.05-1.08-3.13-2.35-.17,.5-.51,.96-.65,1.47-.44-2.16-.45-2.84-2.14-4.22-1.49-1.22-2.43-1.42-4.32-.91-2.42,.65-2.33,1.47-2.36,3.77-.02,1.8,.26,3.85,1.41,5.27,2.17,2.69,5.73,2.93,7.59,5.79,.35,.53,3.26,2.02,3.27,1.7-.03,2.31-.75,1.74-2.97,1.87,.33,1.01,.65,2.02,.97,3.03,.04,.14-1.07,1.17-1.19,1.67-.38,1.55-1.16,3.85,.27,5.13,1.28,1.14,3.87,1.88,1.93,3.55-1.5,1.28-1.92,2.83-2.41,4.71,1.04-.4,1.98-.44,2.36-1.52,.35-1,.59-2.72,2.11-2.21,1.08,.36,1.94,3.75,1.01,4.35-1.83,1.19-2.79,1.94-5.01,1.91-2.73-.03,1.8,2.24,2.42,2.56-1.12-.15-2.24-.31-3.36-.46,.14,1.49,1.99,1.69,3.13,2.14-1.18,.04-2.36,.07-3.54,.1-1.55,.05-1.51-.17-1.54,1.41-.02,1.89,1.24,3.61,2.27,5.11,1.18,1.74,2.36,3.48,3.52,5.23,1.12,1.68,1.39,3.5,1.9,5.46,1.04,4.08,.76,7.25,.42,11.39-.09,1.06,2.24,4.06,2.79,5.13,.8,1.52,1,3.16,1.92,4.78-1.47-.88-2.05-1.85-3.47-.78-1.23,.93-1.59,2.05-2.25,3.45-1.96-1.36-2.8-1.42-4.85-.23-1.22,.7-2.69,.83-4.06,1.14-1.73,.38-5.12-1.51-6.22-2.78-1.74-2-1.75-4.71-2.24-7.17-.31-1.59-.67-2.67-.24-4.21,.46-1.64,.49-2.08,.03-3.7-.75-2.68-1.05-5.43-1.73-8.13-.48-1.91-3.53-4.08-4.86-5.45-.51-.52-2.72-1.8-3.43-1.8-.55,0-2.45,2.14-3.09,1.26-1.27-1.74-1.24-1.48-3.27-.77-1.02,.35-2.27,.31-3.34,.44-.06-1-.11-1.99-.16-2.99-.03-.55-.66-.91-.6-1.47,.05-.45,.47-1.99,.01-2.14-1.15-.39-2.3-.72-3.48-.96-.58-.12-4.79-.96-4.27,1.11,.5,1.98,.84,2.79,.1,4.67-.48-.5-.97-.99-1.45-1.49-.36,.91-.73,1.82-1.09,2.72-.13-1.79,.29-2.82-1.86-2.76,1.46-1.2,1.77-3.7-.15-4.61-1.5-.71-2.04-1.44-3.12-2.8-.58,2.56-.8,4.73-3.02,6.28,1.31,1.04,1.85,1.21,2,2.86,.12,1.37-1.93,.98-3.1,1.12,.33-2,.78-3.81-.84-5.46-.64-.66-2.64-.58-2.93-1.51-.25-.78-.5-1.56-.75-2.35,1.67,.41,3.28,.84,4.91,1.37,1.93,.62,1.61-1.25,1.63-2.57,0-.14-3.85-.41-4.44-.5-2.52-.37-.08-1.54-1.27-3-1.01-1.23-2.54-2.54-3.25-3.96-.68-1.36-.84-3.28-1.22-4.75-.7-2.74-.72-5.73-.94-8.54-.7,.06-1.4,.12-2.11,.19,.06-.56-.07-1.86,.24-2.31,.18-.27,.92,0,1.16-.35,.94-1.32,1.37-1.92,2.82-2.62,1.03-.5,2.54-.17,3.74-.63,1.13-.44,1.19-1.47,1.61-2.59-1.58,.19-2.97,.31-4.43,.89-.47,.19-2.96,1.76-3.08,1.69-1.21-.7-3.04-1.22-3.44-2.61-.38-1.35-.38-2.46-.36-3.87,.02-1.78,.21-2.81,.83-4.47,.35-.92-.82-3.21-1.09-4.14-.68-2.34-.75-5.01-1.23-7.42,3.29-1.6,3.89,6.72,4.11,8.47,1.45-2.21,2.7-4.43,3.66-6.9-1.62-.52-3.42-.73-3.76-2.78-.43-2.64,1.37-2.37,3.23-2.48,1.69-.1,3.06-.82,4.82-.79,1.68,.02,3.04-.63,4.62-1.21-1.2-1.23-3.31-.86-4.83-1.64-.94-.49-2.01-.82-2.66-1.68-.59-.77-.85-1.59-1.92-1.43,.06,.98,.12,1.97,.17,2.95-1.39-2-2.52-2.41-.96-4.36,.85-1.07,2.96-.63,3.65-1.64,.62-.91,2.72-3.11,.43-3.68-1.76-.44-3.14-.63-4.54-1.75-5.53-4.41-9.56-10.28-12.51-16.64-.7-1.52-.84-3.26-1.58-4.77-1.14-2.35-1.79-1.99-4.4-2.29-3.03-.36-4.33-4.51-5.6-6.73-1.95-3.41-2.42-5.91-1.73-9.77,.25-1.36,1.18-2.72,1.89-3.9,1.07-1.78,1.21-2.46,1.24-4.54,.7,.33,2.24,.71,2.72,1.3,.33,.39,.21,2.51,.73,2.54,2.46,.17,3.38,.45,5.35-.99-1.99-2.62-3.52-4.37-3.48-7.8,.02-1.57,.04-3.15,.06-4.72,.01-1.15-4.32-.18-4.84,0,1.52-1.11,2.69-1.27,2.25-3.16-.25-1.05-1.55-2.51-1.54-3.4,.03-2.46-.53-6.32,3.06-4.98,.03-2.47,.32-5.21-.54-7.58-.54-1.47-.96-2.22-2.44-2.24-1-.01-1.94,.1-2.48-.76-1.57-2.51-.02-4.32-.97-6.86-.9-2.43-2.5-4.18-3.07-6.83-1.06,.49-2.78,1.15-3.63,.25-1.27-1.33-2.71-1.99-3.44-3.81-.75-1.9-.56-2.65-1.98-4.23-.91-1.01-1.41-2.35-2.03-3.56,1.78,.77,4.21,2.24,5.37,.07-2.73-1.01-4.02-2.14-5.28-4.75-.82-1.69-1.9-4.01,.82-4.3-1.75-1.2-.85-2.48-.55-4.15,.39-2.18,1.24-2.11,3.32-2.6-.2-.58-.41-1.16-.61-1.74-.58,.71-3.8,1.13-3.78,1.33,.03,.44,.19,1.03,.11,1.47-.26,.05-.53,.1-.79,.15-.09,.63,.09,1.41,.13,2.05-2.74,.1-5.26,.02-3.83,3.27-.83-.2-3.37-.94-4.1-.52-1.56,.9-.04,2.22,.59,3.17-2.01,.44-2.97,.25-4.89-.6-1.54-.68-3.01-2.57-4.54-2.83,.41,.84,1.02,3.32,1.73,3.78,2.01,1.29,.23,1.17-1.16,.81,.38,1.6,.11,1.9,1.78,1.92,1.13,.01,2.27,.03,3.4,.04,1.53,.02,5.54,2.01,4.37,3.84-1.59-1.47-3.06-1.95-5.35-1.49-.86,.17-1.69,.97-2.7,1.07-.9,.09-1.93-.13-2.84-.19,.08-.82,.67-3.68,.06-4.24-1.19-1.08-2.37-1.79-3.77-2.6,2.68-1.74,.72-3.77-.62-6.01-1.04-1.74-5.95-.63-7.35-.08,1.96-2.16,3.63-2.71,6.5-1.97-.63-1.8-3.48-5.11-5.8-3.7,1.09-2.12,3.15-3.66,4.92-1.24,.4,.55,.52-.59,.91-.11,.49,.59,.97,1.18,1.46,1.77,.77,.94-.51,1.92,1.2,2.54,.53-.97,.8-2.32,1.96-2.4,.9-.07,1.77-.15,2.65-.39-.15-1.54-4.04-4.78-5.48-5.21-2.61-.78-5.23,.7-7.88-.21-2.82-.98-4.54-3.15-4.5-6.34,.01-1.25,.04-3.33-1.05-4.25-.79-.67-2.9-.67-3.94-.68-1.73-.02-2.21-1.14-3.77-1.62-1.07-.33-2.73-.03-3.87,.03-1.5,.08-2.56,.16-3.88-.58-.77-.43-3.03-.11-3.36-.65-.81-1.32-1.48-2.91-2.72-3.86-1.31-1.01-2.07,1.4-3.1,.76-.63-.39-2.84-2.76-3.23-2.7-1.3,.2-2.29,.21-3.59,.08,.62-2.15,.04-2.1-1.69-3.49-.58,2.27-2.11,3.42-2.29,5.67-.21,2.65-1.22,3.54-4.04,3.38-5-.29-9.27-1.72-10.3-7.22-.27-1.46-1.1-5.11,1.41-5.2,1.24-.04,2.43,.17,3.44-.57,1.01-.74,2.09,0,2.78-1.07,.61-.95,0-1.78-.65-2.62-1-1.29-1.49-1.04-3.14-1.06-.9-.01-.46-4.72-2.23-5.13-.57,2.17-.49,5.8-2.19,7.13-1.68,1.31-4.86,2.09-6.97,1.6-.02,2.01,.65,3.12,1.43,4.96,.66,1.55,2.23,4.4,.75,6.01-.29,.32-1.33-.07-1.69,.19-.34,.24-.31,1.01-.65,1.26-.76,.55-1.17,.83-2.09,.82-2.28-.03-2.4-1.86-2.58-3.93-.18-2.01,.11-.79,1.36-1.77,.49-.38,1.23-1.32,1.5-1.88,1.1-2.27-.74-2.83-2.64-3.33-1.86-.49-3.65-1.43-5.39-2.22-2.08-.94-2.17-1.82-1.74-3.83-2.37-.03-3.47-.13-4.6-2.16-.98-1.75-1.84-3.46-2.67-5.29,.94,.96,2.52,1.61,3.34,2.57,.91,1.06,1.05,2.35,2.12,3.45,.58,.59,2.97-.29,2.37-1.25-.74-1.19-1.48-2.37-2.27-3.54-1.48-2.19-3.41-3.39-5.25-5.15-2.36-2.24-3.67-4.31-5.35-7.12-1.31-2.2-2.01-4.66-2.14-7.26-.08-1.66-1.71-6.84-.72-7.48,1.2-.78,.19-1.83,.49-3.07,.29-1.23,.77-2.54,.87-3.79,.25-3.25,.62-4.84,4.06-5.49-1.31-.84-2.7-2.45-4.19-1.74-.87,.42-2.55,3.17-3.08,3.11-3.43-.39-6.83-.74-10.28-.95-.67-.04-.96,2.95-1.95,3.32-1.89,.7-3.57,1.23-5.61,1-3.02-.34-5.95-1.47-8.81-2.42-.73,2.63-.74,3.75-3.01,5.23,.81,.28,2.54,.5,3.15,1.09,.58,.57,.63,1.78,1.11,2.46,.37,.52,1.12,2.15,1.76,2.23,1.65,.21,1.31,.46,2.52,1.27,3.61,2.39,6.41,6.05,9.16,9.43,1.31,1.62,2.82,3.05,4.27,4.54,.43,.44,.23,1.43,.48,1.98,.32,.68,1.07,1.36,1.53,1.95,2.4,3.05,4.52,6.23,6.8,9.38,4.38,6.08,8.26,12.27,12.15,18.66,1.88,3.09,4.39,6.8,4.52,10.57,.08,2.38,.15,3.94-.62,6.16-.5,1.45-.65,3.68-1.43,4.93-1.29,2.08-3.25,2.07-5.33,2.04-.69,0-1.41-1.15-2.05-1.08-.58,.07-1.75,1.55-2.21,1.96-1.9,1.68,1.92,2.93,2.56,3.52,1.29,1.16,1.98,2.59,3.39,3.72,1.37,1.09,2.32,3.19,3.59,4.5,.71,.73,3.38,.15,3.27,1.16-.07,.61,.55,.84,.93,1.27,.45,.5-1.85,2.27-1.46,2.82,.51,.71,.31,1.15,.77,1.9,.37,.61,2.31-1.05,2.69-.44,.57,.91,1.23,.13,1.88,.97,.38,.49-1.84,2.97-1.46,3.46,.7,.9,4.12,5.15,4.82,6.06,.56,.73-.58,1.48-.02,2.21,.53,.71,3.21,3.75,3.73,4.47,.02,.02-.81-2.51-1.04-3.81-.14-.79,.71,.1,.78-.62,.07-.63-.68-2.89-.28-3.16,1.21-.8,2.21,1.85,3.46,1.15,1.28-.72,4.99-1.87,5.55-1.83,1.63,.12-1.29,1.47,.45,1.58,2.29,.15,2.67,4.94,2.78,5.09,1.23,1.72-8.38,.71-6.81,2.13,.75,.69-.94,4.11-.96,5.12,0,.63,1.05,1.4,1.45,1.84,2.49,2.73,4.3,6.07,6.35,9.14,2.3,3.45,5,6.68,7.49,9.99,4.15,5.53,8.47,10.92,12.55,16.5,4.56,6.24,8.72,12.75,13.26,19,4.49,6.18,9.25,12.28,12.87,19.04,1.68,3.13,4.21,6.88,4.78,10.4,.34,2.12,.37,9.78,3.31,9.82,4.25,.05,6.95,.22,10.77-1.9,.38-.21,.31-4.67,.19-5.12-.51-1.86-2.45-2.43-3.96-3.21,2.25-1.88,1.54-2.46-.1-4.39-1.84-2.16-2.64-3.01-5.49-3.05,2.08-2.41-1.81-5.49-3.39-7.29-1.75-1.99-3.25-4.3-5.19-6.09-2.38-2.2-4.39-4.15-5.7-7.21-.77-1.81-2.21-6.54,.51-7.36,2.14,3.73,3.91,7.64,6.07,11.34,1.09,1.87,1.54,3.79,3.23,5.17,.68,.56,4.11,4.16,4.69,4.03,.83-.18,2.69-1.34,3.46-1.17,.58,.14,1.48,1.74,1.83,2.31,1.21,1.96,2.72,2.94,4.4,4.51,2.01,1.87,2.7,2.62,5.32,3.48,1.46,.48,3.46-2.16,4.35-3.15-1.23-.43-2.45-.87-3.68-1.27-2.06-.66-2.39-.98-3.68-2.75-1.77-2.43-.98-5.09,.56-7.23,.27,.47,.77,.81,1.04,1.28,.17-.41,.59-2.1,1.03-2.09,.44,0,2.51-.26,2.78,.03,.94,1.03-2.34,2.53-2.36,3.66-.02,2.16,1.57,2.45,3.5,2.38,2.63-.09,2.96-.65,3.19,2.01-.77,0-1.54-.02-2.32-.03,1.52,1.78,1.43,1.71,3.65,1.05,1.12-.33,2.42,.53,3.48,.93,.67-3.45,.69-6.59,.55-10.1,.53,.41,3.1,3.25,2.96,3.31,2.05-.74,1.74,.33,2.45,2.23-1.5-.27-3.36-.98-3.38,1.38-.02,2,.21,2.97-1.53,4.24-.38,.28-4.05,1.54-3.87,.99-.7,2.03-.15,2.52,.85,4.44-2.02,1.41-2.82-2.03-4.62-.69-.23,.17-.98,2.68-.88,2.94,.2,.49,1.9,1.14,2.37,1.42,.47,.28,1.32,1.96,1.77,1.68,.66-.41,1.96-.87,2.27-1.61,.42-1.01,1.05-1.17,2.03-1.7,.47-.25-.11-1.92-.19-2.43,.27,.71,.54,1.41,.81,2.12,.73-1.59,1.35-3.18,1.95-4.82-.16,1.61-.32,3.22-.48,4.83,2.4,.03,2-.69,3.81-2.06,.81-.61,1.61-.4,1.83-1.45,.18-.84,.36-1.68,.54-2.52,1.08,.78,2.64,1.46,2.69,3.02,.03,1.12-2.61,1.77-3.49,2.24-1.62,.86-.54,1.77-1.61,2.72-.8,.71-2.39-.16-3.37,.79-.43,.42-.94-.11-1.46,.29-.68,.52-.23,1.42-1.32,1.74-.47,.14-1.02,.06-1.46,.24-.48,.19-.5,1.05-1.09,1.04-2.69-.03-4.01-1.77-6.25-3.23-.55,1.43-.26,2.53-.69,3.89-.34,1.08-.71,2.33-.39,3.47,.3,1.04,.91,3.15,2.64,2.55,1.29-.45,1.08-2.61,1.1-3.56,1.46,2.25,3.24,4.5,6.04,5.13,.13-1.08,.33-2.08,.04-3.16,.91,.01,2.88,.41,2.49-1.21-.3-1.25-.49-2.5-1.17-3.62,1.49,1.34,2.75,1.98,4.6,2.79-1.29,1.7,.56,1.42,.35,2.31-.2,.84-1.11,2.53-.99,3.27,.41,2.67-1.37,4-1.4,6.37-.03,2.24,1.59,4.34,1.39,6.77-.03,.4-1.06,.78-.75,1.18,.41,.54,.82,1.09,1.23,1.63,.46,.6,1.72,.9,2.41,1.22-1.96,.15-4.5-.53-4.83,1.6-.08,.51,2.46,.85,2.98,.98,.73,.18,.7,1.4,.09,1.4-3.6-.04-1.08,.7-.92,2.75,.1,1.24,1.76,2.89,2.34,4.21-1.67-1.26-3.34-2.52-4.98-3.82-.92-.73-1.57-.83-2.74-1.08-.5-.11-.19-2.06-.19-2.57-.45,.15-1.04,0-1.48,.19,.04-2.96-.43-5.06-3.5-6.36-1.74-.74-1.69,.6-1.66-1.89,.01-1.15-.9-1.8-1.44-2.78-1.13-2.03-1.36-4.5-2.87-6.25-2.6-3-3.55,3.22-3.85,4.9-1.28-2.18-1.42-4.53-1.39-6.96-3.38,1.69-2.6,5.81-2.28,8.89,.25,2.32,4.65,6.49,6.05,8.32,4.37,5.7,7.55,12.58,11.1,18.82,4,7.01,6.34,14.25,8.72,21.94,.56,1.83,.96,3.67,1.37,5.54,.58,2.62,.86,2.68,3.19,4.12,2.73,1.69,8.07-1.89,9.94-3.72,2.41-2.35,5.29-5.06,8.88-5.01,1.94,.02,3.88,0,5.82,.13,2.97,.18,3.06-.2,3.51,2.72-.71-.06-4.23-.73-4.72,.08-.81,1.36-1.91,2.58-1.23,4.26,.87,2.19,2.23,2.34,4.23,2.37,2.14,.03,1.67-1.46,3.1,.88-4.45,.71,4.19,4.07,5.19,3.44h-.01s-.16,0-.17-.01c.06,0,.12,0,.17,.01h.01c1.34,.08,2.68,.17,4.02,.25-1.17,.72-1.92,1.49-3.29,1.34-1.22-.13-2.47-.36-3.7-.37-1.99-.02-2.04-.07-3.24,1.49-.92,1.19-1.52,1.12-3.07,1.17-2.49,.08-3.58,1.33-5.29,3.16-1.6,1.71-4.19,3.15-3.35,5.51,.25,.7,1.66,7.2,.67,6.18-1.56-1.61-2.24-2.18-2.77-4.26-.32-1.25-.83-2.15-1.47-3.29-.63-1.1-1.91-1.78-2.81-2.66-1.13-1.09-1.82-2.58-2.89-3.77-1.44-1.6-3.79-4.79-5.82-4.95,2.07,8.2,5.55,16,9.39,23.55,1.66,3.25,3.6,6.36,5.39,9.54,.69,1.23,.5,1.51,1.84,1.1,.93-.28,2.11-.45,2.97-.9,1.53-.8,2.92-2.42,4.25-3.53-.5,.98-1.01,1.95-1.51,2.93,1.47,.15,2.94,.29,4.41,.44,.97,.1,1.59,2,2.07,2.8-.7-.4-2.58,2.57-3.32,3.5-.82,1.04-1.47,.53-2.82,.35-1.13-.16-2.63-1.71-3.36-1.06-1.16,1.01-2.32,2.03-3.48,3.03-.47,.41-.75,3.28-.61,3.91,.3,1.31,1.92,2.96,2.65,4.08,1.92,2.96,2.36,5.22,3.07,8.73,.54,2.68,.19,5.56,.84,8.21,.78,3.17,1.58,6.28,2.54,9.39,.53,1.72,.81,3.35,1.74,4.9,1.27,2.12,1.34,2.09,3.78,2.24,2.09,.13,1.79-.49,3.35-1.59,1.11-.79,2.68-1.24,3.93-1.81-.91,1.42-1.87,2.75-2.88,4.1-1.1,1.49-1.71,1.52-3.65,1.5-3.81-.05-6.42,.13-8.94,3.2-1.29,1.57-1.59,3.06-2.04,5.08-.4,1.8,1.18,3.68,2.05,5.18,.95,1.62-.03,7.44-.05,9.37,1.12-1.09,1.3-1.37,1.59-2.87,.11-.57,.19-2.82,.75-3.07,2.17-.95,3.77-1.01,6.16-1.11-.01,1.05,.14,1.86-.45,2.73-.66,.96,.07,1.54,.6,2.53-.56,.24-1.44,.42-1.9,.82-.45,.38-.47,1.26-1.01,1.54-1.31,.69-2.41,1.14-3.36,2.26-1.32,1.57-2.02,2.25-2.04,4.4-.02,1.78,.58,3.32,1.66,.81,.74-1.71,2.51-3.78,4.67-2.7,1.29,.64,1.66,2.12,1.33,3.28-.79,2.76-5.14,2.47-2.7,5.97-3.16-.83-6.88-1.42-8.87-4.15-.47-.65-3.76,.75-4.54,1.04-1.85,.69-.42,1.77-.21,3.42,.47,3.79,1.36,7.39,1.18,11.21-.2,4.27-.76,7.33-2.79,11.14-.85,1.6-1.57,2.72-2.78,4.06-1.54,1.71-1.49,1.93-1.43,4.24,.09,4.04-.18,8.02-.44,12.06-.42,6.47-1.74,12.97-2.36,19.44-1.97,2.82-3.94,5.63-5.95,8.46-1.74,2.47-4.78,4.57-7.11,6.56-2.57,2.19-4.25,5.15-6.47,7.7-1.69,1.95-6.89,1.29-9.21,.95,.03,0,.31,.01,.32,.02-.58-.9-8.46-1.93-8.1,.09-1.86,.55-4.61,1.06-6.15,2.26-1.09,.85-2.17,1.69-3.25,2.54-.65,.51-3.48,2.07-3.94,3.05,.07,0,.14,0,.2,0-.02,0-.25,.14-.25,.15,.01-.05,.03-.1,.06-.15-.86,0-2.88-.2-3.28,.29-.84,1.04-1.6,2.25-2.63,3.11-1.06,.88-2.15,1.73-3.13,2.7-.9,.88-2.43-.6-2.92-.05-3.62,4.04-7.9,7.27-11.98,10.85-1.57,1.38-1.41,5.84-1.43,7.75-.03,2.81-.25,5.71-.01,8.58,.38,4.59,4.09,9.13,6.9,12.59,1.32,1.62,2.46,3.62,4.32,4.63,1.74,.95,3.48,1.81,5.28,2.66,3.57,1.69,6.8,3.25,10.68,4.07,2.64,.56,5.2,.32,7.86,1.25,1.64,.57,3.38,.88,5.07,1.29,3.62,.87,5.83,4.48,8.02,7.07,1.19,1.41,2.77,2.62,3.81,4.15,.9,1.31,1.78,3.37,3.06,4.32,3.29,2.43,6.58,4.85,9.9,7.25,1.37,1,2.16,3.09,3.63,3.9,1.47,.82,4.11,.79,5.78,1.11,1.56,.3,9.8,3.33,8.04,4.75,1.54-.24,3.09-.59,4.65-.57,4.28,.05,8.08,.36,11.94,2.35,3.02,1.55,5.75,5.35,8.16,7.82,2.77,2.84,5.56,4.83,7.79,8.17,2.01,3.02,3.59,6.11,5.02,9.42,1.57,3.64,2.41,7.32,3.54,11.11,1.05,3.53,.52,7.09,1.15,10.69,.78,4.48,.53,7.73-.05,12.27-.21,1.64-.94,3.74-.66,5.37,.21,1.26-.06,1.97,1.21,2.26,1.13,.27,3.03,.6,2.07,2.17-3.01-2.2-3.57,1.34-4.11,3.82-.64,2.97,.11,7.28-1.41,9.8-3.01,4.99-4.32,10.63-6.98,15.78-1.13,2.18-1.66,4.73-2.88,6.83-1.38,2.38-4.05,3.7-6.04,5.54-3.75,3.46-4.93,8.54-5.77,13.48-.01-.01,.08-.19,.1-.17,.42,.43-.68,3.68-.84,4.1-.42,1.08-1.29,1.82-2.46,1.36-1.48-.57-2.88,.23-4.11,1.42-1.96,1.91-1.63,2.8-.11,4.94,.6,.84,.19,2,.1,3-.04,.47-1.68,.51-2.13,.6,.15-1.21,.27-2.36,.25-3.58-1.15,.98-1.57,2.61-2.75,3.46-.54,.39-2.13,.7-2.43,1.22-.96,1.67-1.92,3.32-2.98,4.93-1.9,2.91-6.41,3.15-8.19,6.12-2.11,3.51-1.07,8.42,1.7,11.45,1.42,1.55,2.56,1.89,4.61,1.74,1.14-.08,1.38,.37,1.69-.82,.26-.98,.23-1.89,.25-2.91,.05-4.26,1.75-6.42,5.55-8.27,.86-.41,1.22-1.05,1.81-1.81,.29-.38,1.68,.78,2.07,1.02,1.67,1.03,2.24,1.88,2.22,3.71-.02,1.12-.03,2.24-.04,3.35-.02,1.45-1.49,2.48-1.94,3.77-.48,1.4,.79,4.43,1.72,5.39,.85,.87,.99,1.19,1.27,2.38,.15,.64,1.8,.87,2.39,1.07,.69,.24,3.98-2.09,4.84-2.51,1.03-.5,1.71-1.89,2.64-2.6,.83-.64,2.33-.24,3.3-.18,2.12,.15,3.18,.37,5.02,1.38,2.58,1.41,6.74,4.23,6.91,7.51,.23,4.56-.37,9.06,1.02,13.45,.79,2.52,8.08,4.15,9.85,2.42,1.7-1.66,2.74-2.71,5.12-3.11,1.53-.26,3.44,1.3,4.76,.2,2.66-2.22,3.9-5.21,6.94-6.87,1.82-1,3.28-1.72,5.29-2.23,1.98-.49,2.09-1.28,3.4-2.9,1-1.24,2.33-2.84,3.86-3.33,1.66-.54,3.35-.75,4.85-1.65,1.56-.93,3.11-2.43,4.7-3.2,1.87-.91,3.73-1.32,4.58-3.28,.44-1,.5-3.4,1.14-4.1,.5-.54,1.8-.31,2.21-.97,.33-.53,.79-1.82,1.41-2,.85-.24,1.68-.3,2.26-.97,1.49-1.72,2.4-2.99,3.1-5.15,.78-2.4,2.75-2.42,4.33-4.18,1.04-1.16,1.95-3.94,3.43-4.07,2.36-.21,2.41-2.69,2.85-4.78,.52-2.46,2.21-4.04,3.36-6.29,1-1.95,1.98-3.79,3.22-5.6,.51-.75,.09-2.01,.59-2.72,.33-.48,1.69-.58,1.7-1.23,.02-1.87,.64-3.01,1.83-4.53,2.42-3.07,4.79-4.84,5.1-8.98,.21-2.75,.61-3.19,2.35-5.34,1.17-1.45,2.16-2.9,3.1-4.5,.87-1.49,2.27-2.77,2.89-4.37,1.04-2.66,1.13-2.84,3.77-3.89,3.14-1.25,3.17-6.75,6.71-7.88,1.95-.62,2.15-2.61,2.69-4.49,.54-1.87,2.29-2.74,3.79-3.94,1.25-1,2.84-2.37,4.4-2.8,1.52-.42,3.76,.6,4.87-.67,1.3-1.48,.97-3.4,.57-5.26-.39-1.8,.38-2.81,.92-4.53,.65-2.09,1.31-4.05,2.21-6.05,.67-1.48,.65-3.39,1.44-4.75,1.05-1.81,1.55-5.45,2.9-6.86,1.18-1.24,3.7-1.73,5.26-2.26,1.45-.49,3.31-1.23,4.27-2.42,1.33-1.64,1.8-3.06,2.85-4.77,.5-.82,1.78-1.4,2.13-2.29,.28-.71,.02-2.01,.03-2.78,.02-1.47,1.59-2.92,1.74-4.56,.16-1.78,.11-3.5,.96-5.15,.86-1.68,1.76-3.32,2.32-5.13,.34-1.1,.86-4.86,2.4-5.06,2.13-.28,1.93-2.22,2.98-3.93,.98-1.6,2.62-2.2,3.14-3.94,.33-1.1-.07-2.34,.21-3.47,.25-1.03,.66-1.94,.84-3,.62-3.48,1.72-8.04,4.38-10.63,1.3-1.27,2.81-3.3,1.08-4.73-1.01-.83-3.92-.28-5.32-.49-2.46-.38-2.97-.74-4.58-2.66-1-1.2-1.16-2.94-1.8-4.4-1.39-3.16-1.21-7.12-1.41-10.51-.56,.13-1.12,.26-1.69,.4-.05-3.42-.3-7.04,.8-10.23,.93-2.67,3.61-6,5.84-7.69,1.2-.91,3.04-2.27,3.6-3.65,.64-1.55,.78-3.46,1.49-4.92,.69-1.4,1.27-3.75,2.61-4.62,2.03-1.32,3.24-1.47,5.68-1.78,2.96-.37,6.41-3.67,9.14-5.13,3.04-1.63,6.79-2.18,9.19-4.85,2.5-2.79,7.39-2.28,11-2.41,3.54-.13,7.12,.06,10.66,.11,4.32,.05,8.45,.13,12.72,.88,2.41,.42,4.58,1.3,7.06,1.59,1,.12,3.96,.04,3.81,1.04-.33,2.18-.64,4.23-1.26,6.34-.46,1.58-1.79,3.38-1.97,4.92-.38,3.17,1.49,7.75,2.4,10.77,3.12-2.28,5.36-5.36,5.92-9.2,.21-1.42,2.31-2.78,3.47-3.61,1.89-1.35,2.71-1.65,3.23-3.88-2.47-.32-4.13-.72-6.4-1.74-2.13-.96-2.02-2.52-2.12-4.57-.2-4.07,.66-8.28,1.2-12.29,.26-1.92,.45-3.84,.66-5.77,.11-.99,.39-1.98,.58-2.96,.15-.77,.96-.91,1.17-1.56,.26-.8-.28-1.89,.1-2.66,.46-.96,.92-1.91,1.38-2.87,.65-1.36,2.78-2.64,3.9-3.67-1.49,.09-3.54,.75-3.98-1.31-.29-1.36,.86-3.53,1.48-4.72,.94-1.82,1.49-2.91,3.88-2.79,1.14,.06,3.45,.88,4.15,1.8,1.46,1.93,2.4,1.57,3.65-.41,1.57-2.47,2.86-2.47,5.07-3.98,2.61-1.79,4.04-6.04,6.84-7.39,2.79-1.35,6.36-3.57,6.86-6.78,.31-1.95-.14-5.51,1.31-6.92,1.25-1.22,2.56-2.31,3.91-3.42,.4-.33,.14-1.95,.15-2.46,.01-.9-.48-.63-1.36-.71-2.19-.19-1.85-2.29,.03-2.83,1.38-.39,1.09-2.7,1.23-4.03,.24-2.3,.74-2.49,2.55-3.94-1.82-1.02-2.4-1.47-3.44-3.25-.81-1.4,1.25-2.4,1.4-3.75,.13-1.25,1.1-2.61,1.56-3.84,.8-2.15-1.46-1.09-1.44-2.94,.02-1.17,.03-2.35,.04-3.53,.02-1.2,.58-.87,1.71-.98,.5-.05,3.5-2.61,3.33-3.09-.95-2.78-4.54-8.99-.65-10.71,1.48-.65,3.61-2.25,3.63-4.03,0-.69-.27-2.14,.16-2.7,.67-.87,1.17-1.23,1.09-2.31-.09-1.2-.42-4.84,.46-5.59,1.47-1.24,2.88-2.35,4.06-3.85,2.31-2.95,4.23-6.14,6.35-9.22,.75-1.1,3.59-5,3.19-6.46Zm-293.25,384.76c-2.18,2.49-7.48,9.03-11.52,7-2.16-1.08-2.05-3.55-1.07-5.73,1.31-2.91,3.38-2.66,5.77-3.93,4.01-2.14,7.65-6.58,10.97-9.58-1.56,4.02-1.39,9.09-4.15,12.24Zm70.7-273.38c-.1,8.79-10.38,5.81-15.13,9.29-5.45,3.99-8.7,11.77-16.6,9.41,1.68-3.27,2.61-5.37,3.06-9,.3-2.45,2.6-3.96,2.64-7.02,.07-5.46-4.64-.89-5.03-3.44-.44-2.85,.49-5.61,3.65-6.49-1.59-6.66,11.29-5.21,14.96-3.79,3.57,1.39,5.78,2.62,9.69,3.05,3.85,.43,2.8,5.39,2.77,7.99Zm19.43-75.68l-1.04,2.99-2.02,1.48-2.98-1.54,.05-4.5,1.06-4.99,2.51-1.47,2.48,2.03,.96,3.51-1.03,2.49Zm52.02,80.64l-4-.05-1.02,1.99-3.02,1.46-2.49-1.03,1.04-3.49,2.54-3.47,3.51-.46,5.49,1.07,1.97,2.52-4.02,1.45Z"/></g><path class="cls-1" d="M610.75,150.08l-7.13-11.99h11.87l7.15,12.01-7.15,12.01h-11.87l7.13-12.03Zm-11.94-20l-11.9,20,11.9,20h23.81l11.9-20-11.9-20h-23.81Z"/><path class="cls-1" d="M627.75,233.08l-7.13-11.99h11.87l7.15,12.01-7.15,12.01h-11.87l7.13-12.03Zm-11.94-20l-11.9,20,11.9,20h23.81l11.9-20-11.9-20h-23.81Z"/><path class="cls-1" d="M653.75,276.08l-7.13-11.99h11.87l7.15,12.01-7.15,12.01h-11.87l7.13-12.03Zm-11.94-20l-11.9,20,11.9,20h23.81l11.9-20-11.9-20h-23.81Z"/><path class="cls-1" d="M687.93,357.93l-7.13-11.99h11.87l7.15,12.01-7.15,12.01h-11.87l7.13-12.03Zm-11.94-20l-11.9,20,11.9,20h23.81l11.9-20-11.9-20h-23.81Z"/><path class="cls-1" d="M765.93,354.93l-7.13-11.99h11.87l7.15,12.01-7.15,12.01h-11.87l7.13-12.03Zm-11.94-20l-11.9,20,11.9,20h23.81l11.9-20-11.9-20h-23.81Z"/><path class="cls-1" d="M761.93,464.93l-7.13-11.99h11.87l7.15,12.01-7.15,12.01h-11.87l7.13-12.03Zm-11.94-20l-11.9,20,11.9,20h23.81l11.9-20-11.9-20h-23.81Z"/><path class="cls-1" d="M790.93,408.93l-7.13-11.99h11.87l7.15,12.01-7.15,12.01h-11.87l7.13-12.03Zm-11.94-20l-11.9,20,11.9,20h23.81l11.9-20-11.9-20h-23.81Z"/><path class="cls-1" d="M937.93,477.93l-7.13-11.99h11.87l7.15,12.01-7.15,12.01h-11.87l7.13-12.03Zm-11.94-20l-11.9,20,11.9,20h23.81l11.9-20-11.9-20h-23.81Z"/><path class="cls-1" d="M835.93,546.93l-7.13-11.99h11.87l7.15,12.01-7.15,12.01h-11.87l7.13-12.03Zm-11.94-20l-11.9,20,11.9,20h23.81l11.9-20-11.9-20h-23.81Z"/><path class="cls-1" d="M587.93,515.93l-7.13-11.99h11.87l7.15,12.01-7.15,12.01h-11.87l7.13-12.03Zm-11.94-20l-11.9,20,11.9,20h23.81l11.9-20-11.9-20h-23.81Z"/><path class="cls-1" d="M715.93,660.93l-7.13-11.99h11.87l7.15,12.01-7.15,12.01h-11.87l7.13-12.03Zm-11.94-20l-11.9,20,11.9,20h23.81l11.9-20-11.9-20h-23.81Z"/><path class="cls-1" d="M656.93,767.93l-7.13-11.99h11.87l7.15,12.01-7.15,12.01h-11.87l7.13-12.03Zm-11.94-20l-11.9,20,11.9,20h23.81l11.9-20-11.9-20h-23.81Z"/><path class="cls-1" d="M523.93,767.93l-7.13-11.99h11.87l7.15,12.01-7.15,12.01h-11.87l7.13-12.03Zm-11.94-20l-11.9,20,11.9,20h23.81l11.9-20-11.9-20h-23.81Z"/><path class="cls-1" d="M369.93,882.93l-7.13-11.99h11.87l7.15,12.01-7.15,12.01h-11.87l7.13-12.03Zm-11.94-20l-11.9,20,11.9,20h23.81l11.9-20-11.9-20h-23.81Z"/><path class="cls-1" d="M472.93,1018.93l-7.13-11.99h11.87l7.15,12.01-7.15,12.01h-11.87l7.13-12.03Zm-11.94-20l-11.9,20,11.9,20h23.81l11.9-20-11.9-20h-23.81Z"/><path class="cls-1" d="M320.93,1273.93l-7.13-11.99h11.87l7.15,12.01-7.15,12.01h-11.87l7.13-12.03Zm-11.94-20l-11.9,20,11.9,20h23.81l11.9-20-11.9-20h-23.81Z"/><path class="cls-1" d="M228.93,1204.93l-7.13-11.99h11.87l7.15,12.01-7.15,12.01h-11.87l7.13-12.03Zm-11.94-20l-11.9,20,11.9,20h23.81l11.9-20-11.9-20h-23.81Z"/><path class="cls-1" d="M157.93,1351.93l-7.13-11.99h11.87l7.15,12.01-7.15,12.01h-11.87l7.13-12.03Zm-11.94-20l-11.9,20,11.9,20h23.81l11.9-20-11.9-20h-23.81Z"/></g></svg>