<?xml version="1.0" encoding="UTF-8"?><svg id="Layer_2" xmlns="http://www.w3.org/2000/svg" viewBox="0 0 150 150"><defs><style>.cls-1,.cls-2{fill:#fff;}.cls-3{fill:#57a67b;}.cls-2{opacity:.15;}</style></defs><g id="Layer_1-2"><rect class="cls-2" x="0" y="0" width="150" height="150" rx="75" ry="75"/><path class="cls-1" d="m16.06,75l9.08-9.08v-2.12l-11.2,11.2,14.5,14.5h2.12l-14.5-14.5Zm109.08-10.92v2.12l8.8,8.8-14.5,14.5h2.12l14.5-14.5-10.92-10.92Zm-84.7-15.58h2.12l32.44-32.44,32.44,32.44h2.12L75,13.94l-34.56,34.56Zm48,72l-13.44,13.44-13.44-13.44h-2.12l15.56,15.56,15.56-15.56h-2.12Z"/><path class="cls-3" d="m20.7,75l4.44-4.44v-1.41l-5.85,5.85,14.5,14.5h1.41l-14.5-14.5Zm104.44-5.56v1.41l4.15,4.15-14.5,14.5h1.41l14.5-14.5-5.56-5.56Zm-79.35-20.94h1.41l27.8-27.79,27.79,27.79h1.41l-29.2-29.21-29.21,29.21Zm38,72l-8.79,8.79-8.79-8.79h-1.42l10.21,10.21,10.21-10.21h-1.42Z"/><path class="cls-3" d="m37.3,77.04h15.7v4.74h-22.61v-6.11l12.75-10.01c1.86-1.52,3.19-2.92,3.19-4.67,0-2.28-1.78-3.98-4.78-3.98s-4.86,1.52-5.04,4.4h-6.03c.3-5.61,4.93-8.91,11.08-8.91s10.85,3.41,10.85,8.38c0,3.38-1.78,5.77-5.12,8.35l-9.98,7.81Z"/><path class="cls-3" d="m78.95,69.45v4.74h-4.1v7.59h-5.92v-7.59h-14.53v-6.07l9.45-15.17h11v16.5h4.1Zm-19.5,0h9.48v-15.33l-9.48,15.33Z"/><path class="cls-3" d="m80.35,81.78l12.75-28.83h6.22l-12.75,28.83h-6.22Z"/><path class="cls-3" d="m100.49,52.95h19.95v6.11l-11.68,22.72h-7.09l13.01-24.09h-14.19v-4.74Z"/><path class="cls-1" d="m29.67,102.78l-.71-2.25h-3.65l-.71,2.25h-1.83l2.77-8.36h3.19l2.77,8.36h-1.83Zm-3.91-3.71h2.73l-1.36-4.3-1.36,4.3Z"/><path class="cls-1" d="m31.75,98.6c0-2.65,1.76-4.31,4.09-4.31,1.98,0,3.5,1.11,3.94,2.98h-1.82c-.32-.9-.96-1.61-2.12-1.61-1.39,0-2.3,1.16-2.3,2.94s.95,2.94,2.3,2.94c1.1,0,1.84-.58,2.18-1.63h1.82c-.55,2.07-2.06,3-4,3-2.31,0-4.08-1.65-4.08-4.31Z"/><path class="cls-1" d="m46.98,94.42v1.45h-2.6v6.91h-1.74v-6.91h-2.6v-1.45h6.93Z"/><path class="cls-1" d="m48.04,102.78v-8.36h1.74v8.36h-1.74Z"/><path class="cls-1" d="m57.15,94.42h1.87l-2.54,8.36h-3.28l-2.53-8.36h1.87l2.31,8.03,2.3-8.03Z"/><path class="cls-1" d="m61.65,101.33h4.11v1.45h-5.85v-8.36h5.75v1.45h-4.02v1.89h3.94v1.45h-3.94v2.11Z"/><path class="cls-1" d="m79.96,102.78h-1.73v-8.08l-1.84,8.08h-3.09l-1.83-8.02v8.02h-1.74v-8.36h3.37l1.75,8.09,1.74-8.09h3.37v8.36Z"/><path class="cls-1" d="m87.73,102.78l-.71-2.25h-3.65l-.71,2.25h-1.83l2.77-8.36h3.19l2.77,8.36h-1.83Zm-3.91-3.71h2.73l-1.36-4.3-1.36,4.3Z"/><path class="cls-1" d="m89.81,98.6c0-2.65,1.76-4.31,4.09-4.31,1.98,0,3.5,1.11,3.94,2.98h-1.82c-.32-.9-.96-1.61-2.12-1.61-1.39,0-2.3,1.16-2.3,2.94s.95,2.94,2.3,2.94c1.1,0,1.84-.58,2.18-1.63h1.82c-.55,2.07-2.06,3-4,3-2.31,0-4.08-1.65-4.08-4.31Z"/><path class="cls-1" d="m104.28,94.42h1.74v8.36h-1.74v-3.5h-3.53v3.5h-1.74v-8.36h1.74v3.3h3.53v-3.3Z"/><path class="cls-1" d="m107.76,102.78v-8.36h1.74v8.36h-1.74Z"/><path class="cls-1" d="m117.35,94.42h1.73v8.36h-3.36l-2.76-8.08v8.08h-1.73v-8.36h3.37l2.75,8.08v-8.08Z"/><path class="cls-1" d="m122.55,101.33h4.11v1.45h-5.85v-8.36h5.75v1.45h-4.02v1.89h3.94v1.45h-3.94v2.11Z"/><path class="cls-1" d="m45.68,115.98h-1.73v-8.08l-1.84,8.08h-3.09l-1.83-8.02v8.02h-1.74v-8.36h3.37l1.75,8.09,1.74-8.09h3.37v8.36Z"/><path class="cls-1" d="m46.98,111.8c0-2.63,1.72-4.31,4.18-4.31s4.18,1.68,4.18,4.31-1.72,4.31-4.18,4.31-4.18-1.68-4.18-4.31Zm6.57,0c0-1.78-.95-2.94-2.39-2.94s-2.39,1.16-2.39,2.94.95,2.94,2.39,2.94,2.39-1.16,2.39-2.94Z"/><path class="cls-1" d="m62.77,107.62h1.73v8.36h-3.36l-2.76-8.08v8.08h-1.73v-8.36h3.37l2.75,8.08v-8.08Z"/><path class="cls-1" d="m66.23,115.98v-8.36h1.74v8.36h-1.74Z"/><path class="cls-1" d="m75.96,107.62v1.45h-2.6v6.91h-1.74v-6.91h-2.6v-1.45h6.93Z"/><path class="cls-1" d="m76.17,111.8c0-2.63,1.72-4.31,4.18-4.31s4.18,1.68,4.18,4.31-1.72,4.31-4.18,4.31-4.18-1.68-4.18-4.31Zm6.57,0c0-1.78-.95-2.94-2.39-2.94s-2.39,1.16-2.39,2.94.95,2.94,2.39,2.94,2.39-1.16,2.39-2.94Z"/><path class="cls-1" d="m90.92,115.98l-1.81-3.11h-1.53v3.11h-1.74v-8.36h3.32c2.01,0,3.27,1.03,3.27,2.63,0,1.08-.57,1.91-1.6,2.33l2.07,3.4h-1.98Zm-3.34-6.91v2.34h1.63c.9,0,1.44-.44,1.44-1.17s-.54-1.18-1.44-1.18h-1.63Z"/><path class="cls-1" d="m93.95,115.98v-8.36h1.74v8.36h-1.74Z"/><path class="cls-1" d="m103.54,107.62h1.73v8.36h-3.36l-2.76-8.08v8.08h-1.73v-8.36h3.37l2.75,8.08v-8.08Z"/><path class="cls-1" d="m110.39,111.25h4.37v4.73h-1.44v-1.98c-.34,1.02-1.13,2.11-2.85,2.11-2.02,0-3.88-1.59-3.88-4.31s1.71-4.31,4.15-4.31c2.04,0,3.41.97,3.91,2.75h-1.82c-.32-.84-.99-1.38-2.09-1.38-1.43,0-2.35,1.16-2.35,2.94s.96,2.94,2.43,2.94c1.3,0,2.19-.77,2.23-2.1h-2.65v-1.39Z"/></g></svg>