<?xml version="1.0" encoding="UTF-8"?><svg id="Layer_2" xmlns="http://www.w3.org/2000/svg" viewBox="0 0 520.48 272.91"><defs><style>.cls-1,.cls-2,.cls-3,.cls-4,.cls-5,.cls-6,.cls-7,.cls-8,.cls-9,.cls-10,.cls-11,.cls-12,.cls-13{fill:none;stroke-miterlimit:10;}.cls-1,.cls-3{stroke-width:1.5px;}.cls-1,.cls-9,.cls-10{stroke:#fff;}.cls-2{stroke-dasharray:0 0 0 3.92;}.cls-2,.cls-3,.cls-4,.cls-5,.cls-6,.cls-7,.cls-8,.cls-11,.cls-12,.cls-13{stroke:#57a67b;}.cls-2,.cls-3,.cls-4,.cls-5,.cls-6,.cls-7,.cls-11,.cls-12{stroke-linecap:round;}.cls-2,.cls-4,.cls-5,.cls-6,.cls-7,.cls-8,.cls-9,.cls-11,.cls-12{stroke-width:2px;}.cls-14,.cls-15{fill:#fff;}.cls-16{fill:#57a67b;}.cls-4{stroke-dasharray:0 0 0 3.92;}.cls-5{stroke-dasharray:0 0 0 3.97;}.cls-15{opacity:.15;}.cls-7{stroke-dasharray:0 0 0 3.97;}.cls-11{stroke-dasharray:0 0 0 4.2;}.cls-12{stroke-dasharray:0 0 0 4;}.cls-13{stroke-width:3.5px;}</style></defs><g id="Layer_1-2"><rect class="cls-15" x="0" y="46.9" width="150" height="150" rx="75" ry="75"/><rect class="cls-15" x="370.48" y="46.9" width="150" height="150" rx="75" ry="75"/><path class="cls-16" d="m431.78,1.32h1.87l-2.54,8.36h-3.28l-2.53-8.36h1.87l2.31,8.03,2.3-8.03Z"/><path class="cls-16" d="m433.96,5.5c0-2.63,1.72-4.31,4.18-4.31s4.18,1.68,4.18,4.31-1.72,4.31-4.18,4.31-4.18-1.68-4.18-4.31Zm6.57,0c0-1.78-.95-2.94-2.39-2.94s-2.39,1.16-2.39,2.94.95,2.94,2.39,2.94,2.39-1.16,2.39-2.94Z"/><path class="cls-16" d="m445.36,8.23h3.62v1.45h-5.36V1.32h1.74v6.91Z"/><path class="cls-16" d="m454.7,1.32h1.87l-2.54,8.36h-3.28l-2.53-8.36h1.87l2.31,8.03,2.3-8.03Z"/><path class="cls-16" d="m456.88,5.5c0-2.63,1.72-4.31,4.18-4.31s4.18,1.68,4.18,4.31-1.72,4.31-4.18,4.31-4.18-1.68-4.18-4.31Zm6.57,0c0-1.78-.95-2.94-2.39-2.94s-2.39,1.16-2.39,2.94.95,2.94,2.39,2.94,2.39-1.16,2.39-2.94Z"/><path class="cls-16" d="m426.2,14.52c2.54,0,4.26,1.36,4.26,4.18s-1.72,4.18-4.26,4.18h-3.08v-8.36h3.08Zm.04,6.91c1.53,0,2.42-.96,2.42-2.73s-.89-2.73-2.42-2.73h-1.39v5.46h1.39Z"/><path class="cls-16" d="m433.51,21.43h4.11v1.45h-5.85v-8.36h5.75v1.45h-4.02v1.89h3.94v1.45h-3.94v2.11Z"/><path class="cls-16" d="m445.08,22.88l-.71-2.25h-3.65l-.71,2.25h-1.83l2.77-8.36h3.19l2.77,8.36h-1.83Zm-3.91-3.71h2.73l-1.36-4.3-1.36,4.3Z"/><path class="cls-16" d="m449.5,21.43h3.62v1.45h-5.36v-8.36h1.74v6.91Z"/><path class="cls-16" d="m455.92,21.43h4.11v1.45h-5.85v-8.36h5.75v1.45h-4.02v1.89h3.94v1.45h-3.94v2.11Z"/><path class="cls-16" d="m466.54,22.88l-1.81-3.11h-1.53v3.11h-1.74v-8.36h3.32c2.01,0,3.27,1.03,3.27,2.63,0,1.08-.57,1.91-1.6,2.33l2.07,3.4h-1.98Zm-3.34-6.91v2.34h1.63c.9,0,1.44-.44,1.44-1.17s-.54-1.18-1.44-1.18h-1.63Z"/><rect class="cls-15" x="182.33" y="46.9" width="150" height="150" rx="75" ry="75"/><line class="cls-6" x1="186.27" y1="29.4" x2="186.27" y2="29.4"/><path class="cls-12" d="m190.11,30.53c7.06,2.29,13.67,5.59,19.64,9.74"/><line class="cls-6" x1="211.38" y1="41.44" x2="211.38" y2="41.44"/><polygon class="cls-16" points="207.09 44.47 216.95 45.96 213.31 36.68 207.09 44.47"/><line class="cls-6" x1="113.55" y1="49.29" x2="113.55" y2="49.29"/><path class="cls-4" d="m116.37,46.57c7.17-6.57,15.62-11.76,24.94-15.15"/><line class="cls-6" x1="143.16" y1="30.77" x2="143.16" y2="30.77"/><line class="cls-6" x1="165.36" y1="193.73" x2="165.36" y2="193.73"/><path class="cls-7" d="m161.59,192.49c-3.13-1.13-6.16-2.46-9.08-3.97"/><line class="cls-6" x1="150.76" y1="187.58" x2="150.76" y2="187.58"/><polygon class="cls-16" points="154.62 183.96 144.65 183.81 149.5 192.52 154.62 183.96"/><line class="cls-6" x1="216.47" y1="190.89" x2="216.47" y2="190.89"/><path class="cls-11" d="m212.57,192.43c-4.55,1.65-9.3,2.87-14.21,3.62"/><line class="cls-6" x1="196.27" y1="196.33" x2="196.27" y2="196.33"/><line class="cls-6" x1="366.62" y1="28.53" x2="366.62" y2="28.53"/><path class="cls-5" d="m370.48,29.46c8.44,2.26,16.3,5.97,23.29,10.83"/><line class="cls-6" x1="395.38" y1="41.44" x2="395.38" y2="41.44"/><polygon class="cls-16" points="391.09 44.5 400.95 45.96 397.29 36.68 391.09 44.5"/><line class="cls-6" x1="297.55" y1="49.29" x2="297.55" y2="49.29"/><path class="cls-2" d="m300.37,46.57c9.06-8.3,20.17-14.39,32.47-17.45"/><line class="cls-6" x1="334.76" y1="28.67" x2="334.76" y2="28.67"/><path class="cls-16" d="m218.86,1.32h1.87l-2.54,8.36h-3.28l-2.53-8.36h1.87l2.31,8.03,2.3-8.03Z"/><path class="cls-16" d="m221.04,5.5c0-2.63,1.72-4.31,4.18-4.31s4.18,1.68,4.18,4.31-1.72,4.31-4.18,4.31-4.18-1.68-4.18-4.31Zm6.57,0c0-1.78-.95-2.94-2.39-2.94s-2.39,1.16-2.39,2.94.95,2.94,2.39,2.94,2.39-1.16,2.39-2.94Z"/><path class="cls-16" d="m232.45,8.23h3.62v1.45h-5.36V1.32h1.74v6.91Z"/><path class="cls-16" d="m241.79,1.32h1.87l-2.54,8.36h-3.28l-2.53-8.36h1.87l2.31,8.03,2.3-8.03Z"/><path class="cls-16" d="m243.96,5.5c0-2.63,1.72-4.31,4.18-4.31s4.18,1.68,4.18,4.31-1.72,4.31-4.18,4.31-4.18-1.68-4.18-4.31Zm6.57,0c0-1.78-.95-2.94-2.39-2.94s-2.39,1.16-2.39,2.94.95,2.94,2.39,2.94,2.39-1.16,2.39-2.94Z"/><path class="cls-16" d="m256.1,6.35V1.32h1.74v5.18c0,1.3.6,1.94,1.75,1.94s1.74-.65,1.74-1.96V1.32h1.74v5.01c0,2.18-1.01,3.49-3.48,3.49s-3.49-1.3-3.49-3.46Z"/><path class="cls-16" d="m268.01,1.32c2.18,0,3.4,1.02,3.4,2.74s-1.22,2.73-3.4,2.73h-1.56v2.89h-1.74V1.32h3.3Zm.03,4.02c1.02,0,1.57-.45,1.57-1.28s-.55-1.29-1.57-1.29h-1.6v2.56h1.6Z"/><path class="cls-16" d="m278.74,1.32v1.45h-2.6v6.91h-1.74V2.77h-2.6v-1.45h6.93Z"/><path class="cls-16" d="m279.79,9.68V1.32h1.74v8.36h-1.74Z"/><path class="cls-16" d="m293.49,9.68h-1.73V1.6l-1.84,8.08h-3.09l-1.83-8.02v8.02h-1.74V1.32h3.37l1.75,8.09,1.74-8.09h3.37v8.36Z"/><path class="cls-16" d="m296.96,8.23h4.11v1.45h-5.85V1.32h5.75v1.45h-4.02v1.89h3.94v1.45h-3.94v2.11Z"/><path class="cls-16" d="m233.27,18.7c0-2.65,1.76-4.31,4.09-4.31,1.98,0,3.5,1.11,3.94,2.98h-1.82c-.32-.9-.96-1.61-2.12-1.61-1.39,0-2.3,1.16-2.3,2.94s.95,2.94,2.3,2.94c1.1,0,1.84-.58,2.18-1.63h1.82c-.55,2.07-2.06,3-4,3-2.31,0-4.08-1.65-4.08-4.31Z"/><path class="cls-16" d="m244.21,21.43h4.11v1.45h-5.85v-8.36h5.75v1.45h-4.02v1.89h3.94v1.45h-3.94v2.11Z"/><path class="cls-16" d="m255.87,14.52h1.73v8.36h-3.36l-2.76-8.08v8.08h-1.73v-8.36h3.37l2.75,8.08v-8.08Z"/><path class="cls-16" d="m265.59,14.52v1.45h-2.6v6.91h-1.74v-6.91h-2.6v-1.45h6.93Z"/><path class="cls-16" d="m268.38,21.43h4.11v1.45h-5.85v-8.36h5.75v1.45h-4.02v1.89h3.94v1.45h-3.94v2.11Z"/><path class="cls-16" d="m279.01,22.88l-1.81-3.11h-1.53v3.11h-1.74v-8.36h3.32c2.01,0,3.27,1.03,3.27,2.63,0,1.08-.57,1.91-1.6,2.33l2.07,3.4h-1.98Zm-3.34-6.91v2.34h1.63c.9,0,1.44-.44,1.44-1.17s-.54-1.18-1.44-1.18h-1.63Z"/><path class="cls-16" d="m41.57,18.5c0-2.65,1.76-4.31,4.09-4.31,1.98,0,3.5,1.11,3.94,2.98h-1.82c-.32-.9-.96-1.61-2.12-1.61-1.39,0-2.3,1.16-2.3,2.94s.95,2.94,2.3,2.94c1.1,0,1.84-.58,2.18-1.63h1.82c-.55,2.07-2.06,3-4,3-2.31,0-4.08-1.65-4.08-4.31Z"/><path class="cls-16" d="m50.69,19.35v-5.03h1.74v5.18c0,1.3.6,1.94,1.75,1.94s1.74-.65,1.74-1.96v-5.16h1.74v5.01c0,2.18-1.01,3.49-3.48,3.49s-3.49-1.3-3.49-3.46Z"/><path class="cls-16" d="m58.77,20.11h1.82c.12.89.85,1.33,1.76,1.33,1.17,0,1.84-.43,1.84-1.08s-.53-.87-1.66-1.12l-1.19-.26c-1.4-.3-2.32-1-2.32-2.32,0-1.45,1.41-2.46,3.23-2.46,2.06,0,3.21.97,3.45,2.37h-1.82c-.22-.69-.81-.99-1.64-.99s-1.52.35-1.52.94.45.79,1.61,1.06l1.19.26c1.57.34,2.39,1.03,2.39,2.37,0,1.65-1.45,2.63-3.63,2.63-1.9,0-3.29-1-3.51-2.71Z"/><path class="cls-16" d="m73.17,14.32v1.45h-2.6v6.91h-1.74v-6.91h-2.6v-1.45h6.93Z"/><path class="cls-16" d="m73.38,18.5c0-2.63,1.72-4.31,4.18-4.31s4.18,1.68,4.18,4.31-1.72,4.31-4.18,4.31-4.18-1.68-4.18-4.31Zm6.57,0c0-1.78-.95-2.94-2.39-2.94s-2.39,1.16-2.39,2.94.95,2.94,2.39,2.94,2.39-1.16,2.39-2.94Z"/><path class="cls-16" d="m93.26,22.68h-1.73v-8.08l-1.84,8.08h-3.09l-1.83-8.02v8.02h-1.74v-8.36h3.37l1.75,8.09,1.74-8.09h3.37v8.36Z"/><path class="cls-16" d="m96.74,21.23h4.11v1.45h-5.85v-8.36h5.75v1.45h-4.02v1.89h3.94v1.45h-3.94v2.11Z"/><path class="cls-16" d="m107.37,22.68l-1.81-3.11h-1.53v3.11h-1.74v-8.36h3.32c2.01,0,3.27,1.03,3.27,2.63,0,1.08-.57,1.91-1.6,2.33l2.07,3.4h-1.98Zm-3.34-6.91v2.34h1.63c.9,0,1.44-.44,1.44-1.17s-.54-1.18-1.44-1.18h-1.63Z"/><path class="cls-13" d="m237.99,251.29c-38.32-3.68-72.66-17.19-98.56-37.14"/><polygon class="cls-16" points="143.93 210.98 133.57 209.42 137.4 219.16 143.93 210.98"/><path class="cls-13" d="m383.57,210.47c-27.25,22.7-64.95,37.92-107.25,41.18"/><circle class="cls-16" cx="106.14" cy="181.4" r="35"/><circle class="cls-14" cx="165.14" cy="26.4" r="2.65"/><path class="cls-1" d="m171.38,20.16c1.6,1.6,2.58,3.8,2.58,6.24s-.99,4.64-2.58,6.24"/><path class="cls-1" d="m158.9,32.64c-1.6-1.6-2.58-3.8-2.58-6.24s.99-4.64,2.58-6.24"/><path class="cls-1" d="m154.54,37.01c-2.71-2.71-4.39-6.46-4.39-10.61s1.68-7.89,4.39-10.61"/><path class="cls-1" d="m175.75,15.79c2.71,2.71,4.39,6.46,4.39,10.61s-1.68,7.89-4.39,10.61"/><circle class="cls-16" cx="410.14" cy="181.4" r="35"/><polygon class="cls-1" points="180.62 182.88 178.07 179.04 169.24 179.04 169.24 182.88 169.24 202.06 169.24 211.01 192.24 211.01 192.24 182.88 180.62 182.88"/><line class="cls-9" x1="173.02" y1="192.33" x2="188.47" y2="192.33"/><line class="cls-9" x1="173.02" y1="187.76" x2="188.47" y2="187.76"/><line class="cls-9" x1="173.02" y1="201.47" x2="188.47" y2="201.47"/><line class="cls-9" x1="173.02" y1="206.04" x2="182.1" y2="206.04"/><line class="cls-9" x1="173.02" y1="196.9" x2="188.47" y2="196.9"/><path class="cls-14" d="m349.52,43.81l-.58-1.85h-2.99l-.59,1.85h-1.49l2.27-6.84h2.61l2.27,6.84h-1.49Zm-3.2-3.03h2.23l-1.12-3.52-1.12,3.52Z"/><path class="cls-14" d="m353.13,42.62h2.96v1.19h-4.38v-6.84h1.42v5.65Z"/><path class="cls-14" d="m358.38,42.62h3.37v1.19h-4.79v-6.84h4.71v1.19h-3.29v1.55h3.22v1.19h-3.22v1.73Z"/><path class="cls-14" d="m367.08,43.81l-1.49-2.55h-1.25v2.55h-1.42v-6.84h2.72c1.65,0,2.67.85,2.67,2.15,0,.88-.47,1.57-1.31,1.91l1.69,2.78h-1.62Zm-2.74-5.65v1.92h1.33c.74,0,1.18-.36,1.18-.95s-.44-.96-1.18-.96h-1.33Z"/><path class="cls-14" d="m374.45,36.97v1.19h-2.12v5.65h-1.42v-5.65h-2.12v-1.19h5.67Z"/><polyline class="cls-1" points="361.96 33.58 361.96 12.96 350.35 12.96 347.79 9.12 338.96 9.12 338.96 12.96 338.96 32.14 338.96 41.09 341.06 41.09"/><line class="cls-9" x1="342.74" y1="22.41" x2="358.19" y2="22.41"/><line class="cls-9" x1="342.74" y1="17.85" x2="358.19" y2="17.85"/><line class="cls-9" x1="342.74" y1="31.55" x2="358.19" y2="31.55"/><line class="cls-9" x1="342.74" y1="26.98" x2="358.19" y2="26.98"/><path class="cls-1" d="m269.23,222.75c2.3,0,4.61.88,6.36,2.64s2.64,4.06,2.64,6.36"/><path class="cls-1" d="m268.82,217.17c3.84,0,7.68,1.46,10.61,4.39,2.93,2.93,4.39,6.77,4.39,10.61"/><path class="cls-1" d="m269.23,227.75c1.02,0,2.05.39,2.83,1.17s1.17,1.8,1.17,2.83"/><rect class="cls-1" x="245.21" y="232.16" width="24" height="40" rx="2" ry="2"/><line class="cls-9" x1="245.21" y1="264.16" x2="269.21" y2="264.16"/><line class="cls-9" x1="245.21" y1="240.16" x2="269.21" y2="240.16"/><rect class="cls-1" x="251.71" y="234.66" width="11" height="3" rx="1.5" ry="1.5"/><circle class="cls-1" cx="257.21" cy="268.16" r="1.5"/><path class="cls-14" d="m411.19,158.02c-.17.07-.34.05-.51.05-.48,0-.96,0-1.44,0-.1,0-.21,0-.3-.06h2.25Z"/><path class="cls-14" d="m417.72,189.24c-.3-.06-.6-.11-.89-.17-.63-.13-1.91-.23-1.91-.23,0,0-2.48-.25-3.72-.24h-2.17c-1.22-.01-2.44.09-3.65.21-.93.1-1.86.24-2.78.42l-2.33.59c-.4.11-.8.25-1.2.34-.2.04-.23.13-.22.3,0,2.78,0,1.2,0,3.98,0,.54-.23.89-.67.98-.52.11-.91-.15-1.01-.68-.1-.56,0-1.11-.01-1.67-.02-2.12-.01.11-.01-2.01,0-.21-.11-.16-.22-.11-.5.21-.99.44-1.46.69-.82.44-1.62.91-2.38,1.47-.77.56-1.19,1.28-1.16,2.26.03,1.15.01,2.3,0,3.46,0,.65-.56,1.11-1.12.93-.33-.11-.54-.34-.61-.69-.05-.24-.05-.49-.05-.73.01-1.04,0-2.08.04-3.11.07-1.43.67-2.57,1.8-3.43,1.5-1.15,3.17-1.97,4.91-2.7,1.45-.61,2.96-1,4.47-1.36,1.13-.26,2.27-.46,3.43-.59,1.45-.17,2.91-.28,4.37-.32,1.4-.04,2.79,0,4.18.1,1.44.11,2.88.32,4.31.57,1.61.28,3.18.73,4.72,1.23,1.51.49,2.96,1.18,4.32,2.01.76.47,1.52.93,2.15,1.56.68.67,1.07,1.48,1.18,2.44.16,1.37.07,2.74.09,4.1,0,.48-.27.84-.65.94-.58.16-1.11-.29-1.12-.94,0-1.19-.01-2.37,0-3.56.01-.81-.31-1.46-.92-1.96-1.23-.99-2.62-1.72-4.06-2.35-.18-.08-.23-.06-.23.16,0,2.29,0,.22,0,2.51,0,.36.07.73-.02,1.09-.12.51-.45.77-.93.72-.45-.05-.76-.41-.76-.91,0-2.78,0-1.22,0-4,0-.23-.07-.33-.28-.38-.42-.1-.84-.22-1.25-.36l-2.21-.55Z"/><path class="cls-14" d="m398.83,173.83c0-.68,0-1.14,0-1.6,0-.19-.07-.24-.24-.24-.47,0-.94.01-1.41,0-.58-.02-.97-.44-.91-.95.05-.44.43-.75.97-.76.49-.01.98,0,1.47,0,.12,0,.22.01.23-.16.08-1.26.41-2.46.95-3.6.86-1.81,2.03-3.38,3.67-4.55.77-.55,1.61-1.01,2.51-1.33.18-.06.28-.15.33-.35.21-.88.69-1.55,1.53-1.93.29-.13.6-.18.91-.18.81,0,1.62.04,2.43,0,1.09-.06,2.21.67,2.53,1.82.11.42.34.62.73.78,2.22.87,3.89,2.4,5.15,4.41.82,1.3,1.34,2.7,1.61,4.2.04.22.06.45.06.68,0,.17.05.23.23.23.51,0,1.03-.01,1.54,0,.56.01.92.38.91.9,0,.38-.26.68-.66.77-.5.11-1.01.04-1.51.05-.46.01-.39-.05-.4.38,0,.73.02,1.47,0,2.2-.13,4.65-2.32,8.03-6.38,10.22-1.1.59-2.31.88-3.56,1.03-2.3.27-4.51-.06-6.54-1.17-3.08-1.67-5.08-4.22-5.87-7.67-.25-1.11-.29-2.24-.26-3.16Zm11.31-1.83c-3.09,0-6.18,0-9.27,0-.23,0-.31.06-.3.29.04.75.03,1.5.01,2.25-.02.97.08,1.93.37,2.85.84,2.71,2.58,4.66,5.09,5.9,1.82.9,3.77,1.1,5.77.75,1.04-.18,2.04-.5,2.96-1.03,1.4-.8,2.54-1.89,3.43-3.23.91-1.37,1.39-2.89,1.45-4.53.04-.98,0-1.95.03-2.93,0-.27-.04-.34-.31-.34-3.08,0-6.16,0-9.24,0Zm0-1.72h0c1.3,0,2.6,0,3.9,0,.2,0,.26-.02.2-.26-.18-.74-.33-1.49-.49-2.23-.34-1.61-.7-3.21-1.03-4.82-.14-.7-.34-1.4-.46-2.1-.12-.72-.41-1-1-1.01-.77-.01-1.54-.01-2.3,0-.47,0-.76.25-.87.71-.2.89-.39,1.77-.59,2.66-.49,2.27-.97,4.53-1.47,6.8-.05.22,0,.25.2.25,1.3,0,2.6,0,3.9,0Zm7.67,0h0c.54,0,1.08,0,1.62,0,.16,0,.21-.03.2-.21-.05-.68-.19-1.34-.41-1.98-.74-2.19-2.11-3.88-4.06-5.12-.19-.12-.39-.23-.58-.35-.05-.03-.1-.08-.16-.03-.05.05,0,.1,0,.15.08.38.17.76.25,1.14.44,2.07.89,4.14,1.32,6.21.04.17.11.18.24.18.52,0,1.05,0,1.57,0Zm-15.33,0s0,0,0,0c.52,0,1.05,0,1.57,0,.09,0,.2.03.24-.13.51-2.43,1.03-4.86,1.55-7.29.02-.08.05-.17-.01-.22-.08-.06-.16.01-.24.06-1.4.83-2.58,1.88-3.48,3.26-.81,1.24-1.27,2.6-1.43,4.06-.02.19.03.27.24.26.52-.01,1.05,0,1.57,0Z"/><path class="cls-14" d="m410.16,180.69c-1.13-.03-2.15-.32-3.04-.99-.27-.2-.47-.46-.42-.82.06-.39.3-.63.67-.75.12-.04.22-.03.33,0,.22.08.42.21.62.32,1.23.72,2.45.69,3.68-.02.13-.07.25-.15.39-.22.38-.18.79-.08,1.04.25.26.34.25.76-.07,1.07-.55.53-1.24.82-1.98,1-.41.1-.82.15-1.22.16Z"/><path class="cls-14" d="m406.73,173.36c.66-.08,1.25.73,1.22,1.32-.04.66-.65,1.24-1.32,1.22-.65-.02-1.25-.64-1.23-1.28.02-.75.59-1.28,1.34-1.26Z"/><path class="cls-14" d="m413.67,173.35c.68,0,1.21.54,1.22,1.26.01.7-.55,1.27-1.27,1.28-.67,0-1.27-.58-1.28-1.25,0-.71.57-1.28,1.33-1.28Z"/><path class="cls-14" d="m411.02,165.95c-.04.59.04,1.19-.03,1.79-.06.44-.43.78-.84.77-.44-.01-.79-.35-.83-.81-.07-.8,0-1.6-.02-2.4-.01-.39-.05-.78.02-1.17.07-.45.39-.77.81-.77.47,0,.81.29.87.75.08.61,0,1.22.04,1.84Z"/><g id="b"><polygon class="cls-14" points="395.44 198.04 396.49 199.94 397.7 199.94 398.73 198.04 399.25 198.04 399.25 197.69 397.7 197.69 397.7 198.04 398.14 198.04 397.4 199.42 396.63 198.04 397.18 198.04 397.18 197.69 394.93 197.69 394.93 198.04 395.44 198.04"/><path class="cls-14" d="m408.79,198.04v-.34h2.08v.34h-.52v1.55h.48c.44,0,.74-.29.74-.69h.34v1.04h-3.12v-.35h.52v-1.55h-.52,0Z"/><path class="cls-14" d="m403.74,199.65c-.38,0-.55-.43-.54-.85,0-.43.21-.81.57-.8.36,0,.54.39.54.82,0,.41-.18.83-.57.83m.01-2.01c-1.04,0-1.6.52-1.6,1.17s.53,1.19,1.6,1.19,1.6-.53,1.6-1.19-.56-1.17-1.6-1.17"/><polygon class="cls-14" points="415.45 198.04 416.5 199.94 417.71 199.94 418.74 198.04 419.25 198.04 419.25 197.69 417.7 197.69 417.7 198.04 418.15 198.04 417.4 199.42 416.64 198.04 417.19 198.04 417.19 197.69 414.93 197.69 414.93 198.04 415.45 198.04"/><path class="cls-14" d="m423.75,199.65c-.38,0-.55-.43-.54-.85,0-.43.21-.81.57-.8.36,0,.54.39.54.82,0,.41-.18.83-.57.83m.01-2.01c-1.04,0-1.6.52-1.6,1.17s.53,1.19,1.6,1.19,1.6-.53,1.6-1.19-.56-1.17-1.6-1.17"/></g><path class="cls-14" d="m107.89,159.06c2.05.12,3.96.68,5.64,1.89,1.44,1.03,2.39,2.44,2.99,4.09.64,1.76.77,3.58.69,5.43-.03.7-.07,1.41-.23,2.1-.02.1.03.18.08.25,1.29,1.97.73,4.53-1.28,5.74-.39.24-.61.54-.71.96-.05.23-.12.45-.18.67-.42,1.53-1.3,2.78-2.42,3.87-1.11,1.08-2.36,1.98-3.8,2.6-.87.37-1.77.61-2.73.59-.93-.03-1.8-.28-2.63-.67-1.36-.64-2.58-1.49-3.67-2.53-1.32-1.27-2.22-2.77-2.59-4.58-.08-.39-.25-.68-.6-.86-1.19-.6-1.77-1.64-1.99-2.89-.18-1.03-.09-2.03.63-2.87.13-.16.08-.35.05-.5-.24-1.19-.22-2.38-.19-3.58.06-2.09.55-4.06,1.74-5.82,1.28-1.88,3.1-2.97,5.28-3.53.77-.2,1.55-.35,2.35-.36.03,0,3.51,0,3.57,0Zm-1.68,26.55c.23,0,.6-.05.97-.14,1.13-.29,2.09-.89,3.01-1.58,1.61-1.21,2.88-2.66,3.29-4.72.19-.93.69-1.62,1.56-2.04.23-.11.41-.28.56-.48.43-.57.54-1.23.54-1.93,0-.39-.11-.71-.46-.93-.29-.18-.43-.46-.38-.81.07-.58.16-1.15.22-1.73.02-.22,0-.25-.22-.21-1.07.22-2.15.38-3.24.38-.93,0-1.86-.11-2.78-.27-1.26-.21-2.45-.63-3.61-1.17-1.26-.58-2.42-1.33-3.48-2.23-.32-.27-.31-.27-.58.05-.63.76-1.34,1.44-2.13,2.04-.81.61-1.64,1.2-2.58,1.61-.17.08-.21.19-.19.35.05.29.08.59.14.88.09.48.04.88-.44,1.16-.22.12-.35.36-.36.63-.08,1.38.27,2.28,1.4,2.86.55.28.89.74,1.08,1.32.07.21.13.43.18.65.21.92.6,1.76,1.15,2.52.88,1.2,2.02,2.1,3.28,2.85.9.54,1.85.94,3.07.94Zm-9.61-16.67c-.01.21-.02.42-.03.62-.01.18.04.26.23.16.06-.03.12-.06.17-.1,1.41-.85,2.67-1.88,3.68-3.19.18-.24.38-.47.58-.69.21-.24.47-.33.79-.22.22.07.37.22.53.37.58.58,1.2,1.11,1.87,1.58,2.19,1.55,4.66,2.22,7.3,2.31.78.03,1.54-.14,2.31-.22.47-.05.93-.16,1.39-.28.12-.03.2-.06.2-.23-.04-.86-.13-1.71-.33-2.54-.46-1.93-1.44-3.5-3.16-4.55-1.3-.8-2.75-1.14-4.25-1.3-.86-.09-1.73-.1-2.6-.06-1.42.06-2.81.26-4.14.81-1.53.63-2.71,1.64-3.5,3.11-.74,1.38-1.01,2.87-1.03,4.42Z"/><path class="cls-14" d="m86.24,195.54c.04-1.17.49-2.2,1.12-3.15.78-1.2,1.83-2.09,3.14-2.7,1.19-.55,2.45-.89,3.68-1.31,1.62-.55,3.26-1.08,4.89-1.62.09-.03.18-.05.27-.06.49-.07.78.12.91.57.11.4-.08.77-.5.93-.21.08-.23.19-.18.38.28.99.53,1.98.78,2.97.35,1.4.68,2.81,1.02,4.21.15.63.31,1.26.47,1.89.17.69.13.82-.43,1.25-.02.01-.41.06-.59.06-.27-.26-.48-.55-.57-.93-.19-.84-.42-1.67-.63-2.5-.14-.55-.26-1.11-.41-1.66l-.13-.5c-.09-.33-.17-.67-.25-1.01-.16-.66-.33-1.32-.49-1.98-.11-.43-.22-.85-.32-1.27-.05-.21-.12-.29-.36-.2-.46.18-.94.33-1.41.48-.24.08-.38.22-.49.45-.56,1.16-1.13,2.32-1.72,3.47-.12.23-.06.3.14.41.55.3,1.13.53,1.64.89.66.46,1,1.42.45,2.22-.5.73-.85,1.58-1.61,2.13-.15,0-.47-.07-.49-.08-.71-.42-.63-.88-.26-1.41.31-.45.6-.9.91-1.35.1-.14.08-.21-.08-.27-.07-.03-.13-.07-.2-.1-.52-.29-1.09-.5-1.58-.85-.65-.46-.88-1.23-.57-1.96.29-.69.61-1.37.98-2.02.11-.19.21-.39.3-.65-.46.15-.88.3-1.31.43-1.47.43-2.71,1.17-3.57,2.48-.57.86-.91,1.79-.99,2.83-.05.69.03,1.38-.04,2.07-.03.32-.15.6-.45.75-.06.03-.98.31-1.1-.46-.11-.7.06-2.8.06-2.85Z"/><path class="cls-14" d="m126.14,198.22c-.13.19-.17.44-.39.58-.26.12-.68.12-.7.11-.45-.21-.56-.59-.56-1.05,0-.63.01-1.27-.04-1.9-.14-1.72-.95-3.06-2.24-4.13-.98-.81-2.22-1.05-3.38-1.47-.05-.02-.12-.03-.17.01-.05.05,0,.11.02.16.02.05.05.11.07.16.34.69.71,1.38,1.03,2.08.39.85.04,1.85-.77,2.32-.42.24-.86.45-1.29.67-.41.21-.4.21-.15.58.32.49.69.94.95,1.47.18.37.07.74-.27.98-.57.34-1.02-.02-1.14-.21-.38-.59-.79-1.16-1.15-1.76-.49-.81-.31-1.62.46-2.19.52-.39,1.14-.61,1.71-.92.26-.14.24-.19-.32-.96-.6-.83-1.02-1.77-1.28-2.76-.1-.37-.24-.52-.58-.58-.48-.09-.93-.26-1.36-.48-.26-.13-.32-.04-.36.12-.09.37-.17.74-.27,1.11-.29,1-.44,2.04-.74,3.04-.34,1.16-.57,2.35-.91,3.51-.19.65-.19,1.39-.61,1.96-.15.2-.4.3-.65.26-.14-.02-.26-.05-.28-.06-.39-.24-.53-.59-.42-1.05.38-1.52.77-3.04,1.14-4.57.1-.42.18-.84.24-1.26.03-.18.17-.36.22-.56.23-.96.47-1.92.73-2.88.05-.2,0-.27-.18-.34-.44-.17-.62-.59-.47-1.01.17-.47.52-.61,1.05-.46,1.21.34,2.39.78,3.59,1.18,1.54.51,3.1.96,4.61,1.57,1.89.76,3.42,2.23,4.23,4.1.31.71.54,1.44.51,2.23l.12,2.4Z"/><path class="cls-14" d="m104.21,192.53c-.19-.17-.4-.3-.6-.46-.11-.09-.21-.21-.27-.34l-.12-.24c-.3-.51-.45-1.05-.46-1.64,0-.48.29-.81.76-.86.4-.04.74.24.84.68.04.16.07.32.09.49.1.61.69,1.15,1.29,1.26.91.16,1.89-.36,2.02-1.65.07-.69.68-.98,1.25-.65.29.17.39.46.37.77-.05.93-.37,1.76-1.12,2.36-.27.22-.34.43-.26.77.27,1.05.58,2.08.88,3.13.16.56.32,1.11.47,1.67.14.52.03.77-.42,1.04-.04.02-.16.04-.33.07-.18.03-.37-.03-.49-.17-.21-.23-.32-.52-.41-.83-.41-1.48-.83-2.95-1.26-4.42-.05-.18-.07-.44-.33-.43-.26,0-.29.25-.34.44-.36,1.26-.7,2.52-1.08,3.77-.18.61-.21,1.3-.84,1.68-.15,0-.55-.12-.62-.14-.36-.15-.51-.57-.4-.97.43-1.51.86-3.02,1.29-4.53.01-.05.02-.1.04-.14,0,0,.16-.54.04-.65Z"/><path class="cls-14" d="m109.42,180.6c.02.24-.09.43-.27.6-.8.75-1.75,1.16-2.85,1.21-1.22.05-2.28-.34-3.18-1.17-.25-.23-.39-.5-.29-.85.17-.57.77-.78,1.25-.43.34.24.65.52,1.06.65.98.32,1.88.2,2.7-.43.13-.1.25-.2.38-.28.54-.31,1.18.06,1.18.7Z"/><path class="cls-14" d="m111.09,174.74c-.28.01-.49-.15-.65-.36-.38-.49-.89-.52-1.44-.4-.17.04-.29.14-.4.27-.17.21-.36.41-.63.47-.32.07-.59-.03-.79-.3-.22-.29-.27-.6-.07-.9.46-.72,1.1-1.18,1.97-1.23.4-.02.81-.02,1.22.08.64.16,1.12.54,1.48,1.07.19.28.23.59.05.9-.16.28-.41.41-.73.4Z"/><path class="cls-14" d="m100.31,173.94c0-.21.08-.38.19-.53.52-.72,1.21-1.13,2.11-1.12.28,0,.57-.02.85.04.84.18,1.45.64,1.77,1.45.13.33-.05.59-.29.79-.24.2-.52.26-.81.11-.19-.1-.34-.26-.49-.42-.37-.4-1.14-.46-1.57-.11-.15.13-.29.28-.44.41-.26.22-.55.26-.86.12-.31-.15-.44-.41-.46-.72Z"/><path class="cls-16" d="m246.78,91.56c0-5.01-4.65-9.67-10.43-9.03-4.08.45-8.95,4.4-8.13,10.69.09.68.29,1.4.6,2.12h2.1c-.47-.84-.73-1.76-.81-2.74-.09-1.1-.02-2.18.35-3.23.08-.23.12-.18.26-.07,1.14.97,2.41,1.73,3.8,2.31,2.13.88,4.34,1.29,6.65,1.14,1.14-.07,2.24-.3,3.33-.59.34-.09.33-.09.32.24-.04,1.05-.35,2.04-.84,2.93h2.12c.47-1.15.73-2.42.68-3.78Zm-2.33-1.41c-.56.21-1.15.32-1.74.44-.82.17-1.65.28-2.48.24-3.21.07-5.97-1.06-8.39-3.09-.36-.3-.35-.3-.05-.68,1.14-1.4,2.61-2.29,4.39-2.54,2.87-.42,5.28.46,7.13,2.75.63.78,1.05,1.66,1.31,2.62.05.18-.05.22-.18.27Z"/><path class="cls-14" d="m253.92,97.71h-32.93c-1.04,0-1.9.85-1.9,1.9v8.53h1.9v-8.53h32.93v8.53h1.9v-8.53c0-1.04-.85-1.9-1.9-1.9Z"/><path class="cls-16" d="m287.05,91.56c0-5.01-4.65-9.67-10.43-9.03-4.08.45-8.95,4.4-8.13,10.69.09.68.29,1.4.6,2.12h2.1c-.47-.84-.73-1.76-.81-2.74-.09-1.1-.02-2.18.35-3.23.08-.23.12-.18.26-.07,1.14.97,2.41,1.73,3.8,2.31,2.13.88,4.34,1.29,6.65,1.14,1.14-.07,2.24-.3,3.33-.59.34-.09.33-.09.32.24-.04,1.05-.35,2.04-.84,2.93h2.12c.47-1.15.73-2.42.68-3.78Zm-2.33-1.41c-.56.21-1.15.32-1.74.44-.82.17-1.65.28-2.48.24-3.21.07-5.97-1.06-8.39-3.09-.36-.3-.35-.3-.05-.68,1.14-1.4,2.61-2.29,4.39-2.54,2.87-.42,5.28.46,7.13,2.75.63.78,1.05,1.66,1.31,2.62.05.18-.05.22-.18.27Z"/><path class="cls-14" d="m294.2,97.71h-32.93c-1.04,0-1.9.85-1.9,1.9v8.53h1.9v-8.53h32.93v8.53h1.9v-8.53c0-1.04-.85-1.9-1.9-1.9Z"/><path class="cls-16" d="m246.77,119.99c0-5.01-4.65-9.67-10.43-9.03-4.08.45-8.95,4.4-8.13,10.69.09.68.29,1.4.6,2.12h2.1c-.47-.84-.73-1.76-.81-2.74-.09-1.1-.02-2.18.35-3.23.08-.23.12-.18.26-.07,1.14.97,2.41,1.73,3.8,2.31,2.13.88,4.34,1.29,6.65,1.14,1.14-.07,2.24-.3,3.33-.59.34-.09.33-.09.32.24-.04,1.05-.35,2.04-.84,2.93h2.12c.47-1.15.73-2.42.68-3.78Zm-2.33-1.41c-.56.21-1.15.32-1.74.44-.82.17-1.65.28-2.48.24-3.21.07-5.97-1.06-8.39-3.09-.36-.3-.35-.3-.05-.68,1.14-1.4,2.61-2.29,4.39-2.54,2.87-.42,5.28.46,7.13,2.75.63.78,1.05,1.66,1.31,2.62.05.18-.05.22-.18.27Z"/><path class="cls-14" d="m253.92,152.91h-32.93c-1.05,0-1.9-.85-1.9-1.9v-22.98c0-1.05.85-1.9,1.9-1.9h32.93c1.05,0,1.9.85,1.9,1.9v22.98c0,1.05-.85,1.9-1.9,1.9Zm-32.93-24.88v22.98h32.93v-22.98h-32.93Z"/><path class="cls-14" d="m245.79,160.02h-16.66c-.5,0-.96-.26-1.22-.69-.26-.43-.27-.96-.04-1.4l1.39-2.61c.25-.46.73-.75,1.25-.75h13.88c.53,0,1.01.29,1.25.75l1.39,2.61c.24.44.22.97-.04,1.4-.26.43-.72.69-1.22.69Zm-15.87-1.9h15.08l-.88-1.66h-13.32l-.88,1.66Z"/><path class="cls-16" d="m287.05,119.99c0-5.01-4.65-9.67-10.43-9.03-4.08.45-8.95,4.4-8.13,10.69.09.68.29,1.4.6,2.12h2.1c-.47-.84-.73-1.76-.81-2.74-.09-1.1-.02-2.18.35-3.23.08-.23.12-.18.26-.07,1.14.97,2.41,1.73,3.8,2.31,2.13.88,4.34,1.29,6.65,1.14,1.14-.07,2.24-.3,3.33-.59.34-.09.33-.09.32.24-.04,1.05-.35,2.04-.84,2.93h2.12c.47-1.15.73-2.42.68-3.78Zm-2.33-1.41c-.56.21-1.15.32-1.74.44-.82.17-1.65.28-2.48.24-3.21.07-5.97-1.06-8.39-3.09-.36-.3-.35-.3-.05-.68,1.14-1.4,2.61-2.29,4.39-2.54,2.87-.42,5.28.46,7.13,2.75.63.78,1.05,1.66,1.31,2.62.05.18-.05.22-.18.27Z"/><path class="cls-14" d="m294.2,152.91h-32.93c-1.05,0-1.9-.85-1.9-1.9v-22.98c0-1.05.85-1.9,1.9-1.9h32.93c1.05,0,1.9.85,1.9,1.9v22.98c0,1.05-.85,1.9-1.9,1.9Zm-32.93-24.88v22.98h32.93v-22.98h-32.93Z"/><path class="cls-14" d="m286.06,160.02h-16.66c-.5,0-.96-.26-1.22-.69-.26-.43-.27-.96-.04-1.4l1.39-2.61c.25-.46.73-.75,1.25-.75h13.88c.53,0,1.01.29,1.25.75l1.39,2.61c.24.44.22.97-.04,1.4-.26.43-.72.69-1.22.69Zm-15.87-1.9h15.08l-.88-1.66h-13.32l-.88,1.66Z"/><path class="cls-14" d="m421.14,96.4v46.53c-3.19-.91-6.54-1.43-10-1.52v-45.01h10Z"/><rect class="cls-10" x="398.99" y="80.2" width="60" height="16" rx="1" ry="1"/><rect class="cls-14" x="411.14" y="72.4" width="10" height="8"/><g id="b-2"><polygon class="cls-14" points="404.09 86.87 405.86 90.09 407.92 90.09 409.66 86.87 410.54 86.87 410.54 86.28 407.91 86.28 407.91 86.87 408.67 86.87 407.4 89.21 406.11 86.87 407.03 86.87 407.03 86.28 403.22 86.28 403.22 86.87 404.09 86.87"/><path class="cls-14" d="m426.7,86.86v-.58h3.52v.58h-.88v2.63h.81c.75,0,1.24-.5,1.24-1.17h.58v1.76h-5.28v-.59h.89v-2.63h-.89,0Z"/><path class="cls-14" d="m418.15,89.6c-.64-.01-.93-.72-.92-1.43.01-.73.36-1.37.97-1.36.6.01.92.66.91,1.4-.01.69-.3,1.41-.96,1.4m.02-3.4c-1.77,0-2.7.88-2.7,1.99s.9,2.01,2.71,2.01,2.7-.89,2.7-2.01-.95-1.99-2.71-1.99"/><polygon class="cls-14" points="437.97 86.87 439.75 90.09 441.8 90.09 443.55 86.87 444.42 86.87 444.42 86.28 441.79 86.28 441.79 86.87 442.55 86.87 441.28 89.21 440 86.87 440.92 86.87 440.92 86.28 437.1 86.28 437.1 86.87 437.97 86.87"/><path class="cls-14" d="m452.03,89.6c-.64-.01-.93-.72-.92-1.43.01-.73.36-1.37.97-1.36.6.01.92.66.91,1.4-.01.69-.3,1.41-.96,1.4m.02-3.4c-1.77,0-2.7.88-2.7,1.99s.9,2.01,2.71,2.01,2.7-.89,2.7-2.01-.95-1.99-2.71-1.99"/></g><line class="cls-6" x1="429.64" y1="104.9" x2="497.64" y2="104.9"/><line class="cls-8" x1="434.64" y1="112.9" x2="493.64" y2="112.9"/><line class="cls-8" x1="434.64" y1="120.9" x2="493.64" y2="120.9"/><line class="cls-3" x1="434.14" y1="105.4" x2="434.14" y2="146.4"/><line class="cls-3" x1="494.14" y1="105.4" x2="494.14" y2="146.4"/><line class="cls-3" x1="479.14" y1="105.4" x2="479.14" y2="146.4"/><line class="cls-3" x1="471.64" y1="121.4" x2="471.64" y2="146.4"/><line class="cls-3" x1="464.14" y1="105.4" x2="464.14" y2="146.4"/><line class="cls-3" x1="449.14" y1="105.4" x2="449.14" y2="146.4"/><path class="cls-10" d="m33.51,119.41c0,2.17,1.89,3.93,4.22,3.93h24.45s5.95,0,5.95,0h6.85c1.82,0,3.3-1.56,3.3-3.48l-1.59-12.55c0-.2-.03-.39-.06-.58l6.06-7.65c.7-.89,1.76-1.41,2.89-1.44l15.1-.32-4.39,26.03s-.15,5.07-3,9.92c-1.11,1.9-5.29,5.1-7.1,6.44-.26.19-.12.61.2.61h13.35c4.48,0,8.39-3.35,8.74-7.81.29-3.76-1.88-7.05-5.07-8.44l-.38-.69,5.98-32.1c.06-1.95-1.5-3.57-3.45-3.58h-1.55c-1.85-.01-3.34,1.43-3.45,3.24l-18.81.3c-2.08.03-4.04.95-5.4,2.52l-8.76,10.07h-2.77c-3.18.08-3.53,4.58-3.53,4.58h-22.72c-2.33,0-4.22,1.76-4.22,3.93l-.84,7.07Z"/><path class="cls-14" d="m71.74,117.91l-3.36-2.22-4.71-3.11s.82-4.12.85-4.26c.19-.95.98-1.66,1.92-1.68.01,0,.03,0,.04,0h5.22c1.11,0,2.01.95,2.01,2.12l.02.18.94,7.45c0,1.17-.9,2.12-2.01,2.12l-.92-.61Z"/><rect class="cls-1" x="31.64" y="127.9" width="48" height="12" rx="6" ry="6"/><g id="b-3"><polygon class="cls-14" points="38.1 118.33 39.12 120.18 40.3 120.18 41.3 118.33 41.8 118.33 41.8 118 40.29 118 40.29 118.33 40.73 118.33 40 119.68 39.26 118.33 39.79 118.33 39.79 118 37.6 118 37.6 118.33 38.1 118.33"/><path class="cls-14" d="m51.06,118.33v-.33h2.02v.33h-.5v1.51h.47c.43,0,.71-.28.71-.67h.33v1.01h-3.03v-.34h.51v-1.51h-.51,0Z"/><path class="cls-14" d="m46.16,119.9c-.37,0-.53-.42-.53-.82,0-.42.21-.79.55-.78.35,0,.53.38.52.8,0,.4-.17.81-.55.8m.01-1.95c-1.01,0-1.55.51-1.55,1.14s.52,1.15,1.56,1.15,1.55-.51,1.55-1.15-.54-1.14-1.56-1.14"/><polygon class="cls-14" points="57.52 118.33 58.54 120.18 59.72 120.18 60.72 118.33 61.22 118.33 61.22 118 59.71 118 59.71 118.33 60.15 118.33 59.42 119.68 58.68 118.33 59.21 118.33 59.21 118 57.02 118 57.02 118.33 57.52 118.33"/><path class="cls-14" d="m65.58,119.9c-.37,0-.53-.42-.53-.82,0-.42.21-.79.55-.78.35,0,.53.38.52.8,0,.4-.17.81-.55.8m.01-1.95c-1.01,0-1.55.51-1.55,1.14s.52,1.15,1.56,1.15,1.55-.51,1.55-1.15-.54-1.14-1.56-1.14"/></g><circle class="cls-16" cx="105.93" cy="87.67" r="2.65"/><path class="cls-16" d="m115.51,87.67h-1.5c0-2.16-.84-4.18-2.36-5.71s-3.55-2.36-5.71-2.36v-1.5c2.56,0,4.96,1,6.77,2.8s2.8,4.21,2.8,6.77Z"/><path class="cls-16" d="m121.68,87.67h-1.5c0-3.81-1.48-7.39-4.17-10.08s-6.27-4.17-10.08-4.17v-1.5c4.21,0,8.16,1.64,11.14,4.61s4.61,6.93,4.61,11.14Z"/><circle class="cls-16" cx="78.56" cy="91.59" r="2.65"/><path class="cls-16" d="m85.33,84.82l-1.06,1.06c-1.53-1.52-3.55-2.36-5.71-2.36s-4.18.84-5.71,2.36l-1.06-1.06c1.81-1.81,4.21-2.8,6.77-2.8s4.96,1,6.77,2.8Z"/><path class="cls-16" d="m89.7,80.45l-1.06,1.06c-2.69-2.69-6.27-4.17-10.08-4.17s-7.39,1.48-10.08,4.17l-1.06-1.06c2.97-2.98,6.93-4.61,11.14-4.61s8.16,1.64,11.14,4.61Z"/><circle class="cls-16" cx="34.2" cy="108.67" r="2.65"/><path class="cls-16" d="m34.2,99.1v1.5c-2.16,0-4.18.84-5.71,2.36s-2.36,3.55-2.36,5.71h-1.5c0-2.56,1-4.96,2.8-6.77s4.21-2.8,6.77-2.8Z"/><path class="cls-16" d="m34.2,92.92v1.5c-3.81,0-7.39,1.48-10.08,4.17s-4.17,6.27-4.17,10.08h-1.5c0-4.21,1.64-8.16,4.61-11.14,2.97-2.97,6.93-4.61,11.14-4.61Z"/></g></svg>