<?xml version="1.0" encoding="UTF-8"?><svg id="Layer_2" xmlns="http://www.w3.org/2000/svg" viewBox="0 0 550 188.15"><defs><style>.cls-1{fill:#fff;}.cls-2{fill:#78b834;}</style></defs><g id="Layer_1-2"><path class="cls-1" d="m440.42,129.6c0-17.13,0-34.27,0-51.4,0-6.06,1.22-7.25,7.28-7.25,7.55,0,15.11-.07,22.66.04,6.13.09,11.86,1.31,16.52,5.87,2.43,2.37,3.87,5.21,5.01,8.23,4.02,10.69,4.8,21.81,2.7,32.89-1.02,5.37-3.17,10.77-7.89,14.53-2.49,1.98-.44,4.73.09,6.63,2.94,10.44,4.08,21.22,6.53,31.74.93,3.99,1.93,7.95,2.85,11.94.95,4.13.06,5.23-4.25,5.26-3.9.03-7.82-.21-11.7.04-3.84.25-5.16-1.93-5.71-5.07-2.31-13.36-4.68-26.72-6.74-40.12-.44-2.87-1.68-3.51-4.15-3.55-3.1-.05-2.81,1.98-2.8,4.03.02,12.72.01,25.45-.03,38.17-.02,4.72-1.63,6.37-6.29,6.49-2.89.08-5.79.05-8.69-.03-3.97-.11-5.37-1.54-5.37-5.53-.02-17.64,0-35.28,0-52.91,0,0-.01,0-.02,0Zm34.05-24.83c0-1.13,0-2.26,0-3.39-.01-8.24-2.27-10.22-10.28-9.62-2.67.2-3.44,1.28-3.4,3.75.1,5.9,0,11.81.06,17.71.02,1.92-.67,4.2,1.83,5.21,2.62,1.06,7.96-.14,9.42-1.88,2.93-3.52,2.31-7.71,2.37-11.79Z"/><path class="cls-1" d="m403.36,70.95c2.27,0,4.53,0,6.8,0,8.37,0,9.5,1.16,10.64,9.53,1.61,11.84,3.5,23.64,5.14,35.48,1.16,8.4,1.63,16.92,3.26,25.21,2.18,11.03,2.93,22.24,4.9,33.29.61,3.43.71,6.95,1.13,10.43.28,2.38-.89,3.19-3.04,3.19-5.03-.02-10.07,0-15.1-.04-2.35-.02-3.58-1.08-3.86-3.62-.87-7.81-2.01-15.6-2.94-23.41-.31-2.62-1.15-4.36-4.19-3.92-.25.04-.5.02-.75.02-9.22.05-9.09.05-9.53,9.43-.27,5.87-.91,11.73-1.58,17.57-.28,2.39-1.36,4.16-4.41,4.03-4.77-.21-9.56,0-14.35-.09-3.78-.07-4.33-1.07-3.81-4.88,1.37-9.99,2.31-20.05,3.9-30.01,1.57-9.84,2.12-19.81,4.23-29.6,1.41-6.56,1.71-13.35,2.51-20.04,1.03-8.68,1.96-17.37,3.12-26.03.59-4.4,3.26-6.49,7.76-6.55,3.4-.05,6.8,0,10.2,0v.02Zm2.11,36.63c-.85-2.84-.03-7.94-1.13-12.86-.2-.91.09-2.45-1.26-2.34-1.47.12-1.12,1.67-1.22,2.75-.42,4.99-.75,9.98-1.29,14.96-.82,7.59-1.5,15.19-1.71,22.83-.13,4.82,3.55,2.61,5.7,3.03,2.33.45,2.84-.75,2.77-3.07-.24-7.77-1.15-15.47-1.88-25.29Z"/><path class="cls-1" d="m502.41,129.78c0-17.12,0-34.24,0-51.36,0-5.77,1.65-7.47,7.27-7.47,10.82,0,21.64,0,32.45.03,5.2.01,6.3,1.17,6.31,6.45,0,3.02-.02,6.04,0,9.06.03,3.15-1.15,4.92-4.65,4.89-5.65-.05-11.31.32-16.96.22-3.19-.06-4.24,1.22-4.15,4.25.14,5.16.2,10.33.02,15.48-.11,3.05,1.46,4.08,4.05,4.17,3.02.11,6.04.11,9.06.03,2.17-.06,3.29.98,3.55,3.01.59,4.5.7,9.01.22,13.54-.29,2.74-1.52,4.03-4.37,3.87-2.76-.15-5.53-.07-8.3,0-2.82.07-4.3,1.24-4.23,4.41.18,7.42.15,14.85.04,22.28-.05,3.28,1.33,4.44,4.55,4.35,5.28-.16,10.57-.04,15.85,0,4.62.03,6.72,2.03,6.82,6.55.07,2.77.07,5.54.02,8.31-.08,4.08-2.18,6.21-6.35,6.22-11.7.05-23.4.04-35.1-.02-4.56-.02-6.08-1.59-6.09-6.14-.03-17.37-.01-34.74-.02-52.12Z"/><path class="cls-1" d="m321.12,126.49c.38-8.2-.79-18.17.75-28.06.78-5.03.78-10.18,2.32-15.1,2.89-9.21,7.31-11.76,16.18-12.3,7.39-.45,14.84-.13,22.26-.06,4.59.04,6.01,1.56,6.03,6.16.01,3.27.03,6.55,0,9.82-.03,2.84-1.25,4.4-4.34,4.41-5.15,0-10.3.32-15.45.29-3.1-.01-4.55,1.52-5.08,4.35-.92,4.94-1.65,9.86-1.59,14.93.14,12.96.12,25.93,0,38.89-.04,4.58,1.05,8.96,1.73,13.4.37,2.36,1.88,3.87,4.75,3.75,4.65-.18,9.31-.06,13.96.02,4.06.07,5.9,1.9,6.02,6.01.09,3.14.09,6.3-.02,9.44-.1,3.07-1.3,5.6-4.77,5.54-8.9-.16-17.81.68-26.71-.55-6.76-.94-10.44-4.99-12.21-11.05-2.61-8.93-3.32-18.18-3.76-27.42-.33-6.91-.06-13.84-.06-22.49Z"/><path class="cls-2" d="m31.47,70.96c3.27,0,6.55.04,9.82,0,5.5-.08,6.99,2.6,7.66,6.6,1.69,10.06,2.56,20.25,3.98,30.36,1.3,9.24,2.97,18.43,4.31,27.66,1.43,9.87,2.8,19.76,3.91,29.68.65,5.84,1.82,11.58,2.8,17.35.77,4.49.19,5.45-4.35,5.48-4.41.03-8.82-.21-13.21.05-3.43.21-4.4-1.67-4.77-4.43-1.03-7.66-2.01-15.33-3.06-23-.33-2.4-1.46-4-4.23-3.62-.25.03-.5,0-.75,0-8.02-.04-8.2-.07-9.27,7.55-.82,5.81-1.24,11.68-1.59,17.55-.31,5.26-.78,5.9-5.8,5.9-4.41,0-8.81-.08-13.22.02-2.76.06-3.98-1.09-3.64-3.84.86-6.93,1.67-13.87,2.59-20.8,1.1-8.28,2.33-16.54,3.45-24.82,1.22-9.02,2.38-18.05,3.57-27.08,1.07-8.16,2.14-16.31,3.23-24.47.51-3.83.9-7.68,1.63-11.47.65-3.35,3.15-4.64,6.37-4.67,3.52-.03,7.05,0,10.57,0h0Zm.27,65.01c4.68.03,4.97-.11,4.51-4.9-.61-6.49-.81-13.03-1.65-19.46-.78-5.96-.93-11.99-1.99-17.91-.13-.73-.11-1.68-1.08-1.72-1.23-.05-1.23,1-1.29,1.87-.26,3.5-.51,7.01-.76,10.51-.64,8.88-1.12,17.77-1.96,26.63-.46,4.76-.55,4.95,4.22,4.98Z"/><path class="cls-2" d="m234.54,188.07c-2.01,0-4.03-.06-6.04,0-7.86.25-7.18-1.5-8.36-7.04-2.11-9.95-3.19-20.12-4.76-30.19-1.31-8.36-2.73-16.69-4.07-25.05-1.45-9.09-2.82-18.2-4.3-27.28-1.08-6.62-2.28-13.22-3.41-19.84-.15-.86-.29-1.73-.32-2.59-.16-4.99,0-5.16,4.88-5.16,3.65,0,7.3.12,10.95.01,3.21-.09,4.91,1.29,5.28,4.5.98,8.55,1.52,17.2,3.15,25.63,2.34,12.15,2.84,24.52,5.01,36.68.33,1.84.19,3.76.5,5.6.15.9.57,2.2,1.8,2.05,1.07-.13,1.47-1.29,1.6-2.28.57-4.2,1.06-8.41,1.57-12.62,1.19-9.78,2.33-19.57,3.56-29.35,1.03-8.17,2.22-16.33,3.21-24.5.54-4.51,1.65-5.7,6.11-5.71,3.77,0,7.55-.04,11.32.03,3.78.06,4.54,1.19,3.95,4.81-1.9,11.66-3.63,23.34-5.55,34.99-1.86,11.28-3.94,22.51-5.78,33.79-1.45,8.84-2.66,17.71-4.05,26.56-.71,4.54-1.41,9.1-2.41,13.58-.46,2.06-1.99,3.43-4.4,3.39-3.14-.05-6.29-.01-9.44-.02Z"/><path class="cls-2" d="m272.02,129.32c0-17.12,0-34.24,0-51.36,0-5.2,1.77-7,6.99-7.01,11.07-.01,22.14,0,33.21.03,4.4.01,5.82,1.48,5.83,5.85.01,3.27,0,6.55,0,9.82,0,2.99-1.24,4.67-4.48,4.7-6.03.06-12.05.34-18.08.44-2.41.04-3.25,1.05-3.18,3.48.16,5.53.22,11.08,0,16.61-.12,2.82,1.36,3.52,3.54,3.61,3.01.12,6.04.1,9.05.04,2.6-.05,3.95,1.03,4.16,3.71.34,4.28.26,8.53.03,12.82-.15,2.78-1.54,3.8-4.03,3.84-2.77.04-5.54-.04-8.3.05-2.98.1-4.71,1.05-4.53,4.72.34,7.29.3,14.6.06,21.9-.12,3.63,1.34,4.53,4.63,4.42,5.15-.17,10.31-.05,15.47.06,4.96.1,7.04,2.24,7.14,7.19.05,2.64.12,5.29,0,7.93-.18,3.81-2.14,5.85-5.91,5.87-11.95.07-23.9.07-35.85-.02-4.11-.03-5.72-1.85-5.73-6.21-.03-17.5-.01-34.99-.01-52.49Z"/><path class="cls-2" d="m97.13,70.98c3.9,0,7.8-.06,11.7.02,3.05.06,5.1,1.14,5.6,4.7.62,4.44.36,8.77-.41,13.11-.35,1.96-1.92,2.47-3.68,2.5-4.15.08-8.3.05-12.44.25-8.17.39-8.64.31-9.32,8.92-1.07,13.53-1.52,27.17-.71,40.73.42,6.99-.18,14.06,1.25,21.01.65,3.16,2.01,4.89,5.49,4.76,4.52-.16,9.06-.07,13.58,0,4.46.08,5.87,1.52,5.9,5.87.02,3.4-.17,6.81.03,10.19.2,3.32-1.8,4.92-4.43,4.9-9.03-.08-18.06.74-27.09-.52-6.34-.88-9.5-4.71-11.64-10.22-2.44-6.28-3.2-12.86-3.59-19.44-.58-9.91-.89-19.86-.76-29.79.17-12.31.77-24.61,1.46-36.9.28-4.87,2.05-9.51,4.46-13.74,2.98-5.24,8.4-5.87,13.65-6.34,3.62-.32,7.29-.06,10.94-.06v.03Z"/><path class="cls-2" d="m134.5,138.39c0-13.86-.1-27.72.07-41.58.05-3.79-1.44-5.27-5.03-5.25-2.51.02-5.03-.27-7.54-.2-3.04.08-3.98-1.73-4.05-4.26-.1-3.4-.07-6.8-.02-10.2.06-4.09,1.51-5.88,5.55-5.91,14.48-.11,28.96-.1,43.44.04,3.75.04,5.28,1.99,5.33,5.84.04,3.02-.03,6.05.02,9.07.06,3.44-1.19,5.49-5,5.47-3.14-.01-6.27.32-9.41.43-1.51.05-2.08.64-2.37,2.21-.42,2.27-.29,4.52-.29,6.77,0,25.33.03,50.65.03,75.98,0,1.88-.24,3.77-.33,5.65-.22,4.57-1.29,5.61-5.96,5.64-2.9.02-5.79,0-8.69-.04-2.89-.04-4.64-1.31-5.2-4.34-.44-2.38-.49-4.76-.5-7.14-.02-12.73-.01-25.45-.01-38.18,0,0-.02,0-.03,0Z"/><path class="cls-2" d="m178.29,129.33c0-17.51-.03-35.01.02-52.52.01-4.41,1.54-5.81,5.92-5.87,2.77-.04,5.54-.04,8.31.04,3.07.09,5.15,1.16,5.56,4.73.24,2.11.6,4.21.6,6.35-.01,31.74.04,63.48-.06,95.22-.04,12.57-1.79,10.77-10.66,10.81-.76,0-1.51,0-2.27,0-6.44-.03-7.47-.98-7.48-7.36-.04-17.13-.01-34.26-.01-51.39.02,0,.04,0,.07,0Z"/><g id="b"><polygon class="cls-1" points="163.81 2.96 171.73 17.32 180.9 17.33 188.68 2.96 192.57 2.96 192.57 .36 180.85 .36 180.85 2.96 184.23 2.96 178.58 13.42 172.83 2.96 176.94 2.96 176.94 .36 159.92 .36 159.92 2.96 163.81 2.96"/><path class="cls-1" d="m264.68,2.95V.34h15.69v2.6h-3.91v11.73h3.62c3.35,0,5.55-2.21,5.55-5.22h2.59v7.85h-23.57v-2.63h3.95V2.95h-3.95.01Z"/><path class="cls-1" d="m226.53,15.14c-2.87-.04-4.15-3.23-4.09-6.39.06-3.28,1.62-6.12,4.31-6.07,2.7.04,4.12,2.95,4.06,6.22-.06,3.08-1.33,6.3-4.3,6.24M226.61,0C218.73,0,214.54,3.93,214.54,8.85s4.03,8.97,12.11,8.97,12.07-3.98,12.07-8.97-4.24-8.85-12.11-8.85"/><polygon class="cls-1" points="315.01 2.96 322.93 17.32 332.09 17.33 339.88 2.96 343.77 2.96 343.77 .36 332.05 .36 332.05 2.96 335.43 2.96 329.77 13.42 324.02 2.96 328.14 2.96 328.14 .36 311.12 .36 311.12 2.96 315.01 2.96"/><path class="cls-1" d="m377.73,15.14c-2.87-.04-4.15-3.23-4.09-6.39.06-3.28,1.62-6.12,4.31-6.07,2.7.04,4.12,2.95,4.06,6.22-.06,3.08-1.33,6.3-4.3,6.24M377.81,0C369.93,0,365.74,3.93,365.74,8.85s4.03,8.97,12.11,8.97,12.07-3.98,12.07-8.97-4.24-8.85-12.11-8.85"/></g></g></svg>