<?xml version="1.0" encoding="UTF-8"?><svg id="Layer_2" xmlns="http://www.w3.org/2000/svg" viewBox="0 0 520.48 150"><defs><style>.cls-1{fill:none;stroke:#fff;stroke-miterlimit:10;stroke-width:1.5px;}.cls-2,.cls-3{fill:#fff;}.cls-4{fill:#57a67b;}.cls-3{opacity:.15;}</style></defs><g id="Layer_1-2"><rect class="cls-3" x="0" y="0" width="150" height="150" rx="75" ry="75"/><path class="cls-2" d="m16.06,75l9.08-9.08v-2.12l-11.2,11.2,14.5,14.5h2.12l-14.5-14.5Zm109.08-10.92v2.12l8.8,8.8-14.5,14.5h2.12l14.5-14.5-10.92-10.92Zm-84.7-15.58h2.12l32.44-32.44,32.44,32.44h2.12L75,13.94l-34.56,34.56Zm48,72l-13.44,13.44-13.44-13.44h-2.12l15.56,15.56,15.56-15.56h-2.12Z"/><path class="cls-4" d="m20.7,75l4.44-4.44v-1.41l-5.85,5.85,14.5,14.5h1.41l-14.5-14.5Zm104.44-5.56v1.41l4.15,4.15-14.5,14.5h1.41l14.5-14.5-5.56-5.56Zm-79.35-20.94h1.41l27.8-27.79,27.79,27.79h1.41l-29.2-29.21-29.21,29.21Zm38,72l-8.79,8.79-8.79-8.79h-1.42l10.21,10.21,10.21-10.21h-1.42Z"/><path class="cls-4" d="m37.3,77.04h15.7v4.74h-22.61v-6.11l12.75-10.01c1.86-1.52,3.19-2.92,3.19-4.67,0-2.28-1.78-3.98-4.78-3.98s-4.86,1.52-5.04,4.4h-6.03c.3-5.61,4.93-8.91,11.08-8.91s10.85,3.41,10.85,8.38c0,3.38-1.78,5.77-5.12,8.35l-9.98,7.81Z"/><path class="cls-4" d="m78.95,69.45v4.74h-4.1v7.59h-5.92v-7.59h-14.53v-6.07l9.45-15.17h11v16.5h4.1Zm-19.5,0h9.48v-15.33l-9.48,15.33Z"/><path class="cls-4" d="m80.35,81.78l12.75-28.83h6.22l-12.75,28.83h-6.22Z"/><path class="cls-4" d="m100.49,52.95h19.95v6.11l-11.68,22.72h-7.09l13.01-24.09h-14.19v-4.74Z"/><path class="cls-2" d="m29.67,102.78l-.71-2.25h-3.65l-.71,2.25h-1.83l2.77-8.36h3.19l2.77,8.36h-1.83Zm-3.91-3.71h2.73l-1.36-4.3-1.36,4.3Z"/><path class="cls-2" d="m31.75,98.6c0-2.65,1.76-4.31,4.09-4.31,1.98,0,3.5,1.11,3.94,2.98h-1.82c-.32-.9-.96-1.61-2.12-1.61-1.39,0-2.3,1.16-2.3,2.94s.95,2.94,2.3,2.94c1.1,0,1.84-.58,2.18-1.63h1.82c-.55,2.07-2.06,3-4,3-2.31,0-4.08-1.65-4.08-4.31Z"/><path class="cls-2" d="m46.98,94.42v1.45h-2.6v6.91h-1.74v-6.91h-2.6v-1.45h6.93Z"/><path class="cls-2" d="m48.04,102.78v-8.36h1.74v8.36h-1.74Z"/><path class="cls-2" d="m57.15,94.42h1.87l-2.54,8.36h-3.28l-2.53-8.36h1.87l2.31,8.03,2.3-8.03Z"/><path class="cls-2" d="m61.65,101.33h4.11v1.45h-5.85v-8.36h5.75v1.45h-4.02v1.89h3.94v1.45h-3.94v2.11Z"/><path class="cls-2" d="m79.96,102.78h-1.73v-8.08l-1.84,8.08h-3.09l-1.83-8.02v8.02h-1.74v-8.36h3.37l1.75,8.09,1.74-8.09h3.37v8.36Z"/><path class="cls-2" d="m87.73,102.78l-.71-2.25h-3.65l-.71,2.25h-1.83l2.77-8.36h3.19l2.77,8.36h-1.83Zm-3.91-3.71h2.73l-1.36-4.3-1.36,4.3Z"/><path class="cls-2" d="m89.81,98.6c0-2.65,1.76-4.31,4.09-4.31,1.98,0,3.5,1.11,3.94,2.98h-1.82c-.32-.9-.96-1.61-2.12-1.61-1.39,0-2.3,1.16-2.3,2.94s.95,2.94,2.3,2.94c1.1,0,1.84-.58,2.18-1.63h1.82c-.55,2.07-2.06,3-4,3-2.31,0-4.08-1.65-4.08-4.31Z"/><path class="cls-2" d="m104.28,94.42h1.74v8.36h-1.74v-3.5h-3.53v3.5h-1.74v-8.36h1.74v3.3h3.53v-3.3Z"/><path class="cls-2" d="m107.76,102.78v-8.36h1.74v8.36h-1.74Z"/><path class="cls-2" d="m117.35,94.42h1.73v8.36h-3.36l-2.76-8.08v8.08h-1.73v-8.36h3.37l2.75,8.08v-8.08Z"/><path class="cls-2" d="m122.55,101.33h4.11v1.45h-5.85v-8.36h5.75v1.45h-4.02v1.89h3.94v1.45h-3.94v2.11Z"/><path class="cls-2" d="m45.68,115.98h-1.73v-8.08l-1.84,8.08h-3.09l-1.83-8.02v8.02h-1.74v-8.36h3.37l1.75,8.09,1.74-8.09h3.37v8.36Z"/><path class="cls-2" d="m46.98,111.8c0-2.63,1.72-4.31,4.18-4.31s4.18,1.68,4.18,4.31-1.72,4.31-4.18,4.31-4.18-1.68-4.18-4.31Zm6.57,0c0-1.78-.95-2.94-2.39-2.94s-2.39,1.16-2.39,2.94.95,2.94,2.39,2.94,2.39-1.16,2.39-2.94Z"/><path class="cls-2" d="m62.77,107.62h1.73v8.36h-3.36l-2.76-8.08v8.08h-1.73v-8.36h3.37l2.75,8.08v-8.08Z"/><path class="cls-2" d="m66.23,115.98v-8.36h1.74v8.36h-1.74Z"/><path class="cls-2" d="m75.96,107.62v1.45h-2.6v6.91h-1.74v-6.91h-2.6v-1.45h6.93Z"/><path class="cls-2" d="m76.17,111.8c0-2.63,1.72-4.31,4.18-4.31s4.18,1.68,4.18,4.31-1.72,4.31-4.18,4.31-4.18-1.68-4.18-4.31Zm6.57,0c0-1.78-.95-2.94-2.39-2.94s-2.39,1.16-2.39,2.94.95,2.94,2.39,2.94,2.39-1.16,2.39-2.94Z"/><path class="cls-2" d="m90.92,115.98l-1.81-3.11h-1.53v3.11h-1.74v-8.36h3.32c2.01,0,3.27,1.03,3.27,2.63,0,1.08-.57,1.91-1.6,2.33l2.07,3.4h-1.98Zm-3.34-6.91v2.34h1.63c.9,0,1.44-.44,1.44-1.17s-.54-1.18-1.44-1.18h-1.63Z"/><path class="cls-2" d="m93.95,115.98v-8.36h1.74v8.36h-1.74Z"/><path class="cls-2" d="m103.54,107.62h1.73v8.36h-3.36l-2.76-8.08v8.08h-1.73v-8.36h3.37l2.75,8.08v-8.08Z"/><path class="cls-2" d="m110.39,111.25h4.37v4.73h-1.44v-1.98c-.34,1.02-1.13,2.11-2.85,2.11-2.02,0-3.88-1.59-3.88-4.31s1.71-4.31,4.15-4.31c2.04,0,3.41.97,3.91,2.75h-1.82c-.32-.84-.99-1.38-2.09-1.38-1.43,0-2.35,1.16-2.35,2.94s.96,2.94,2.43,2.94c1.3,0,2.19-.77,2.23-2.1h-2.65v-1.39Z"/><rect class="cls-3" x="370.48" y="0" width="150" height="150" rx="75" ry="75"/><path class="cls-2" d="m402.75,98.6c0-2.65,1.76-4.31,4.09-4.31,1.98,0,3.5,1.11,3.94,2.98h-1.82c-.32-.9-.96-1.61-2.12-1.61-1.39,0-2.3,1.16-2.3,2.94s.95,2.94,2.3,2.94c1.1,0,1.84-.58,2.18-1.63h1.82c-.55,2.07-2.06,3-4,3-2.31,0-4.08-1.65-4.08-4.31Z"/><path class="cls-2" d="m411.87,99.45v-5.03h1.74v5.18c0,1.3.6,1.94,1.75,1.94s1.74-.65,1.74-1.96v-5.16h1.74v5.01c0,2.18-1.01,3.49-3.48,3.49s-3.49-1.3-3.49-3.46Z"/><path class="cls-2" d="m426.73,94.42v1.45h-2.6v6.91h-1.74v-6.91h-2.6v-1.45h6.93Z"/><path class="cls-2" d="m435.95,94.42v1.45h-2.6v6.91h-1.74v-6.91h-2.6v-1.45h6.93Z"/><path class="cls-2" d="m442.28,94.42h1.74v8.36h-1.74v-3.5h-3.53v3.5h-1.74v-8.36h1.74v3.3h3.53v-3.3Z"/><path class="cls-2" d="m450.84,102.78l-1.81-3.11h-1.53v3.11h-1.74v-8.36h3.32c2.01,0,3.27,1.03,3.27,2.63,0,1.08-.57,1.91-1.6,2.33l2.07,3.4h-1.98Zm-3.34-6.91v2.34h1.63c.9,0,1.44-.44,1.44-1.17s-.54-1.18-1.44-1.18h-1.63Z"/><path class="cls-2" d="m453.3,98.6c0-2.63,1.72-4.31,4.18-4.31s4.18,1.68,4.18,4.31-1.72,4.31-4.18,4.31-4.18-1.68-4.18-4.31Zm6.57,0c0-1.78-.95-2.94-2.39-2.94s-2.39,1.16-2.39,2.94.95,2.94,2.39,2.94,2.39-1.16,2.39-2.94Z"/><path class="cls-2" d="m462.88,99.45v-5.03h1.74v5.18c0,1.3.6,1.94,1.75,1.94s1.74-.65,1.74-1.96v-5.16h1.74v5.01c0,2.18-1.01,3.49-3.48,3.49s-3.49-1.3-3.49-3.46Z"/><path class="cls-2" d="m474.87,98.05h4.37v4.73h-1.44v-1.98c-.34,1.02-1.13,2.11-2.85,2.11-2.02,0-3.88-1.59-3.88-4.31s1.71-4.31,4.15-4.31c2.04,0,3.41.97,3.91,2.75h-1.82c-.32-.84-.99-1.38-2.09-1.38-1.43,0-2.35,1.16-2.35,2.94s.96,2.94,2.43,2.94c1.3,0,2.19-.77,2.23-2.1h-2.65v-1.39Z"/><path class="cls-2" d="m486.04,94.42h1.74v8.36h-1.74v-3.5h-3.53v3.5h-1.74v-8.36h1.74v3.3h3.53v-3.3Z"/><path class="cls-2" d="m420.93,107.62v1.45h-2.6v6.91h-1.74v-6.91h-2.6v-1.45h6.93Z"/><path class="cls-2" d="m427.26,107.62h1.74v8.36h-1.74v-3.5h-3.53v3.5h-1.74v-8.36h1.74v3.3h3.53v-3.3Z"/><path class="cls-2" d="m432.47,114.53h4.11v1.45h-5.85v-8.36h5.75v1.45h-4.02v1.89h3.94v1.45h-3.94v2.11Z"/><path class="cls-2" d="m446.68,107.62h1.73v8.36h-3.36l-2.76-8.08v8.08h-1.73v-8.36h3.37l2.75,8.08v-8.08Z"/><path class="cls-2" d="m449.72,111.8c0-2.63,1.72-4.31,4.18-4.31s4.18,1.68,4.18,4.31-1.72,4.31-4.18,4.31-4.18-1.68-4.18-4.31Zm6.57,0c0-1.78-.95-2.94-2.39-2.94s-2.39,1.16-2.39,2.94.95,2.94,2.39,2.94,2.39-1.16,2.39-2.94Z"/><path class="cls-2" d="m459.39,115.98v-8.36h1.74v8.36h-1.74Z"/><path class="cls-2" d="m462.32,113.4h1.82c.12.89.85,1.33,1.76,1.33,1.17,0,1.84-.43,1.84-1.08s-.53-.87-1.66-1.12l-1.19-.26c-1.4-.3-2.32-1-2.32-2.32,0-1.45,1.41-2.46,3.23-2.46,2.06,0,3.21.97,3.45,2.37h-1.82c-.22-.69-.81-.99-1.64-.99s-1.52.35-1.52.94.45.79,1.61,1.06l1.19.26c1.57.34,2.39,1.03,2.39,2.37,0,1.65-1.45,2.63-3.63,2.63-1.9,0-3.29-1-3.51-2.71Z"/><path class="cls-2" d="m472.47,114.53h4.11v1.45h-5.85v-8.36h5.75v1.45h-4.02v1.89h3.94v1.45h-3.94v2.11Z"/><rect class="cls-3" x="182.33" y="0" width="150" height="150" rx="75" ry="75"/><path class="cls-1" d="m285.1,38.41l-25.16,44.04c-1.15,2.02-4.06,2.02-5.21,0l-25.16-44.04c-1.14-2,.3-4.49,2.6-4.49h50.33c2.3,0,3.75,2.49,2.6,4.49Z"/><path class="cls-1" d="m196.9,91.51l25.16-44.04c1.15-2.02,4.06-2.02,5.21,0l25.16,44.04c1.14,2-.3,4.49-2.6,4.49h-50.33c-2.3,0-3.75-2.49-2.6-4.49Z"/><path class="cls-1" d="m262.23,91.51l25.16-44.04c1.15-2.02,4.06-2.02,5.21,0l25.16,44.04c1.14,2-.3,4.49-2.6,4.49h-50.33c-2.3,0-3.75-2.49-2.6-4.49Z"/><path class="cls-2" d="m217.45,108.87h-3.88v2.02h3.82v1.45h-3.82v3.43h-1.74v-8.36h5.62v1.45Z"/><path class="cls-2" d="m220.52,114.33h3.62v1.45h-5.36v-8.36h1.74v6.91Z"/><path class="cls-2" d="m226.93,114.33h4.11v1.45h-5.85v-8.36h5.75v1.45h-4.02v1.89h3.94v1.45h-3.94v2.11Z"/><path class="cls-2" d="m234.21,114.33h4.11v1.45h-5.85v-8.36h5.75v1.45h-4.02v1.89h3.94v1.45h-3.94v2.11Z"/><path class="cls-2" d="m245.97,107.42v1.45h-2.6v6.91h-1.74v-6.91h-2.6v-1.45h6.93Z"/><path class="cls-2" d="m254.34,115.78l-1.81-3.11h-1.53v3.11h-1.74v-8.36h3.32c2.01,0,3.27,1.03,3.27,2.63,0,1.08-.57,1.91-1.6,2.33l2.07,3.4h-1.98Zm-3.34-6.91v2.34h1.63c.9,0,1.44-.44,1.44-1.17s-.54-1.18-1.44-1.18h-1.63Z"/><path class="cls-2" d="m259.12,114.33h4.11v1.45h-5.85v-8.36h5.75v1.45h-4.02v1.89h3.94v1.45h-3.94v2.11Z"/><path class="cls-2" d="m267.96,107.42c2.18,0,3.4,1.02,3.4,2.74s-1.22,2.73-3.4,2.73h-1.56v2.89h-1.74v-8.36h3.3Zm.03,4.02c1.02,0,1.57-.45,1.57-1.28s-.55-1.29-1.57-1.29h-1.6v2.56h1.6Z"/><path class="cls-2" d="m272.07,111.6c0-2.63,1.72-4.31,4.18-4.31s4.18,1.68,4.18,4.31-1.72,4.31-4.18,4.31-4.18-1.68-4.18-4.31Zm6.57,0c0-1.78-.95-2.94-2.39-2.94s-2.39,1.16-2.39,2.94.95,2.94,2.39,2.94,2.39-1.16,2.39-2.94Z"/><path class="cls-2" d="m286.82,115.78l-1.81-3.11h-1.53v3.11h-1.74v-8.36h3.32c2.01,0,3.27,1.03,3.27,2.63,0,1.08-.57,1.91-1.6,2.33l2.07,3.4h-1.98Zm-3.34-6.91v2.34h1.63c.9,0,1.44-.44,1.44-1.17s-.54-1.18-1.44-1.18h-1.63Z"/><path class="cls-2" d="m295.83,107.42v1.45h-2.6v6.91h-1.74v-6.91h-2.6v-1.45h6.93Z"/><path class="cls-2" d="m296.17,113.2h1.82c.12.89.85,1.33,1.76,1.33,1.17,0,1.84-.43,1.84-1.08s-.53-.87-1.66-1.12l-1.19-.26c-1.4-.3-2.32-1-2.32-2.32,0-1.45,1.41-2.46,3.23-2.46,2.06,0,3.21.97,3.45,2.37h-1.82c-.22-.69-.81-.99-1.64-.99s-1.52.35-1.52.94.45.79,1.61,1.06l1.19.26c1.57.34,2.39,1.03,2.39,2.37,0,1.65-1.45,2.63-3.63,2.63-1.9,0-3.29-1-3.51-2.71Z"/><path class="cls-4" d="m224.13,84.79c-.4,0-.81.01-1.13-.28-1.21-1.13-2.44-2.23-3.7-3.3-2.03-1.72-3.99-3.51-6-5.25-1.11-.96-1.21-1.18-.71-2.46.88-2.26,1.79-4.5,2.69-6.74.3-.75,1.08-.95,1.73-.39,1.31,1.12,2.61,2.27,3.87,3.45.33.31.52.39.85.06.4-.41.81-.35,1.22.01.39.34.79.67,1.18,1.01,1.14,1.01,2.32,1.97,3.4,3.06.38.39.49.74.12,1.21-.28.35-.3.65.2.95.43.25.76.7,1.13,1.06.4.39.36.8.05,1.23-.6.83-1.35,1.53-2.01,2.31-.21.25-.31.41.16.5.87.16,1.75.22,2.62.34,2.37.33,4.76.57,7.12.98.67.12,1.38-.02,2.01.3.12.06.34.05.24.3-.18.49-1.19,1.2-1.74,1.24-4,.29-8.02.21-12.03.43-.42,0-.84,0-1.26,0Zm-6.9-14.25c.26-.31.54-.62.8-.93.34-.39.25-.54-.11-.79-.41-.29-.77-.65-1.15-.98-.22-.19-.33-.21-.46.12-.65,1.73-1.33,3.44-2.01,5.16-.13.34-.51.61-.31,1.12,1.11-1.26,2.19-2.46,3.24-3.69Z"/><path class="cls-2" d="m239.74,86.39c-.65,1.16-1.27,2.18-1.82,3.24-.46.89-.25,1.86.46,2.42.73.58,1.81.57,2.56-.03.7-.56.95-1.5.53-2.34-.53-1.08-.97-2.2-1.73-3.29Z"/><path class="cls-4" d="m290.56,89.39c0,.23-.19.41-.42.41s-.42-.19-.42-.41v-1.1c0-.23.19-.41.42-.41s.42.19.42.41v1.1Z"/><path class="cls-4" d="m290.14,64.65c-7.73,0-14,6.2-14,13.85s6.27,13.85,14,13.85,14-6.2,14-13.85-6.27-13.85-14-13.85m0,25.54c-6.53,0-11.82-5.23-11.82-11.69s5.29-11.69,11.82-11.69,11.81,5.23,11.81,11.69-5.29,11.69-11.81,11.69"/><path class="cls-4" d="m290.56,68.84c0,.23-.19.41-.42.41s-.42-.19-.42-.41v-1.1c0-.23.19-.41.42-.41s.42.18.42.41v1.1Z"/><path class="cls-4" d="m280.6,78.08c.23,0,.42.19.42.42s-.19.41-.42.41h-1.11c-.23,0-.42-.19-.42-.41s.18-.42.42-.42h1.11Z"/><path class="cls-4" d="m300.92,78.08c.23,0,.42.19.42.42s-.19.41-.42.41h-1.11c-.23,0-.42-.19-.42-.41s.19-.42.42-.42h1.11Z"/><path class="cls-4" d="m297.33,71.94c-.16.16-.43.16-.59,0s-.16-.43,0-.59l.78-.78c.16-.16.42-.16.59,0s.16.42,0,.59l-.78.78Z"/><path class="cls-4" d="m282.8,86.47c-.16.16-.42.16-.59,0s-.17-.43,0-.59l.78-.78c.16-.16.42-.16.59,0s.16.43,0,.59l-.78.78Z"/><path class="cls-4" d="m283.76,71.43c.16.16.16.43,0,.59s-.42.16-.59,0l-.79-.79c-.17-.17-.16-.43,0-.59s.42-.16.59,0l.79.79Z"/><path class="cls-4" d="m298.13,85.8c.16.16.17.43,0,.59s-.43.16-.59,0l-.79-.79c-.16-.16-.16-.43,0-.59s.43-.16.59,0l.79.79Z"/><rect class="cls-2" x="280.84" y="78.44" width="9.48" height="1.14" transform="translate(-6.52 29.26) rotate(-5.8)"/><circle class="cls-2" cx="290.14" cy="78.5" r="1.43"/><path class="cls-4" d="m271.65,44.18l-.31-.65c.32-.3.61-.6.9-.93-.37-.65-.85-1.23-1.37-1.77-.38.19-.77.42-1.13.65-.18-.16-.35-.33-.55-.46-.2-.13-.38-.29-.59-.41.12-.41.23-.84.32-1.26-.65-.37-1.35-.65-2.07-.84-.24.37-.45.74-.66,1.12-.23-.07-.47-.08-.71-.12-.24-.04-.48-.04-.72-.06-.1-.42-.22-.85-.36-1.26-.74.02-1.5.1-2.22.31-.02.44-.03.86,0,1.3l-.68.25-.65.31c-.3-.32-.6-.61-.93-.9-.65.37-1.24.85-1.77,1.37.19.38.42.77.65,1.13-.16.18-.33.35-.46.55-.14.2-.3.38-.41.6-.41-.12-.83-.23-1.26-.32-.37.65-.65,1.35-.84,2.07.37.23.74.46,1.12.66-.07.23-.08.48-.12.71-.04.24-.04.48-.06.72-.42.1-.85.22-1.25.36.02.74.1,1.5.31,2.22.44.02.86.02,1.3,0l.25.68.31.65c-.32.3-.61.61-.9.93.37.65.85,1.24,1.37,1.77.38-.2.77-.42,1.13-.65.18.15.35.33.55.46.2.13.38.29.59.41-.12.41-.22.83-.31,1.26.65.37,1.34.65,2.07.84.24-.37.46-.74.66-1.12.23.07.47.08.71.12.24.04.48.04.72.06.1.42.22.85.36,1.26.74-.02,1.5-.1,2.22-.31.02-.44.03-.86,0-1.3l.68-.25.65-.31c.3.32.6.61.93.9.65-.37,1.24-.85,1.77-1.37-.19-.39-.42-.77-.65-1.13.16-.18.33-.35.46-.55.14-.2.29-.38.41-.59.41.12.83.22,1.26.32.37-.65.65-1.35.84-2.07-.37-.24-.74-.46-1.12-.66.07-.23.08-.47.12-.71.04-.24.04-.48.06-.72.42-.1.85-.22,1.25-.36-.02-.75-.1-1.5-.31-2.22-.44-.02-.86-.02-1.3,0l-.25-.68Zm-3.67,5.65c-.45.62-1.09,1.07-1.78,1.39-.71.28-1.48.41-2.24.3-.76-.09-1.49-.39-2.1-.86-.62-.45-1.08-1.08-1.39-1.78-.28-.71-.41-1.48-.3-2.24.09-.76.39-1.49.86-2.1.45-.62,1.08-1.07,1.78-1.39.71-.28,1.48-.41,2.24-.3.76.09,1.49.39,2.1.86.62.45,1.07,1.08,1.39,1.78.28.71.41,1.48.3,2.24-.09.76-.39,1.49-.85,2.1"/><path class="cls-2" d="m253.01,47.76l-.19-.4c.19-.18.37-.37.55-.57-.23-.4-.52-.75-.84-1.08-.23.12-.47.26-.69.4-.11-.1-.22-.2-.34-.28-.12-.08-.23-.18-.36-.25.07-.25.14-.51.19-.77-.4-.22-.82-.4-1.26-.51-.14.23-.28.45-.4.69-.14-.04-.29-.05-.43-.08-.14-.03-.29-.02-.44-.03-.06-.26-.13-.52-.22-.77-.45.01-.91.06-1.35.19-.01.27-.02.53,0,.79l-.41.15-.4.19c-.18-.2-.37-.37-.57-.55-.4.23-.76.52-1.08.84.12.23.26.47.4.69-.1.11-.2.22-.28.34-.08.12-.18.24-.25.36-.25-.07-.51-.14-.77-.19-.23.4-.4.82-.52,1.26.23.14.45.28.69.4-.04.14-.05.29-.08.44-.03.14-.03.29-.03.44-.26.06-.52.14-.77.22.01.45.06.91.19,1.35.27.01.52.02.79,0l.15.41.19.4c-.19.18-.37.37-.55.57.23.4.52.76.84,1.08.23-.12.47-.26.69-.4.11.09.22.2.34.28.12.08.23.18.36.25-.07.25-.14.51-.19.77.4.23.82.4,1.26.52.14-.22.28-.45.4-.69.14.04.29.05.43.07.14.03.29.03.44.04.06.26.13.52.22.77.46-.01.92-.06,1.35-.19.01-.27.02-.52,0-.79l.41-.15.4-.19c.18.2.37.37.57.55.4-.22.76-.52,1.08-.83-.12-.24-.26-.47-.4-.69.1-.11.2-.22.28-.34.08-.12.18-.23.25-.36.25.07.51.14.77.19.22-.4.4-.82.51-1.26-.23-.15-.46-.28-.69-.4.04-.14.05-.29.08-.43.03-.14.02-.29.03-.44.26-.06.52-.13.77-.22-.01-.46-.06-.92-.19-1.36-.27-.01-.53-.01-.79,0l-.15-.42Zm-2.24,3.45c-.28.38-.66.66-1.09.85-.44.17-.91.25-1.37.19-.46-.06-.91-.24-1.28-.52-.38-.28-.66-.66-.85-1.09-.17-.44-.25-.91-.19-1.37.06-.46.24-.91.52-1.28.28-.38.66-.66,1.09-.85.44-.17.91-.25,1.37-.18.46.06.91.24,1.28.52.38.28.66.66.85,1.09.17.44.25.91.19,1.37-.06.46-.24.91-.52,1.28"/><path class="cls-2" d="m261.2,60.26l-.24-.51c.25-.23.47-.47.7-.72-.29-.51-.66-.96-1.07-1.38-.3.15-.6.33-.88.5-.14-.12-.27-.26-.43-.36-.15-.1-.3-.23-.46-.32.09-.32.18-.65.25-.98-.51-.29-1.05-.51-1.61-.65-.18.29-.35.58-.51.87-.18-.05-.37-.07-.55-.1-.18-.03-.37-.03-.56-.04-.08-.33-.17-.66-.28-.98-.58.02-1.16.08-1.72.24-.02.34-.02.67,0,1.01l-.53.19-.51.24c-.23-.25-.47-.48-.72-.7-.51.29-.96.66-1.38,1.06.15.3.32.6.5.88-.12.14-.26.28-.36.43-.11.15-.23.3-.32.46-.32-.09-.65-.18-.98-.25-.29.5-.51,1.05-.66,1.61.29.18.58.35.87.51-.05.18-.06.37-.1.55-.03.18-.03.37-.04.56-.33.08-.66.17-.98.28.01.58.08,1.16.24,1.72.34.01.67.02,1.01,0l.19.53.24.5c-.25.23-.47.47-.7.72.29.51.66.96,1.07,1.38.3-.15.6-.33.88-.5.14.12.27.25.43.36.15.1.3.23.46.32-.09.32-.17.65-.24.98.5.29,1.05.51,1.61.66.18-.29.35-.58.51-.87.18.05.37.06.55.1.18.03.37.03.56.04.08.33.17.66.28.98.58-.02,1.17-.08,1.72-.24.01-.34.02-.67,0-1.01l.53-.19.51-.24c.23.25.47.47.72.7.51-.29.96-.66,1.38-1.06-.15-.3-.33-.6-.5-.88.12-.14.26-.28.36-.43.11-.15.23-.3.32-.46.32.1.65.17.98.25.29-.51.51-1.05.65-1.61-.29-.19-.58-.36-.87-.51.05-.18.06-.37.1-.55.03-.18.03-.37.04-.56.33-.08.66-.17.98-.28-.02-.58-.08-1.17-.24-1.73-.34-.01-.67-.02-1.01,0l-.19-.53Zm-2.85,4.39c-.35.48-.84.83-1.39,1.08-.55.22-1.15.32-1.74.24-.59-.07-1.16-.31-1.63-.67-.48-.35-.84-.84-1.08-1.39-.22-.56-.32-1.15-.24-1.74.07-.59.3-1.16.67-1.63.35-.48.84-.84,1.39-1.08.56-.22,1.15-.32,1.74-.24.59.07,1.16.3,1.63.67.48.35.84.84,1.08,1.39.22.56.32,1.15.24,1.74-.07.59-.31,1.16-.66,1.63"/><polygon class="cls-2" points="441.29 22.66 441.29 51.87 412.97 62.17 412.97 43.04 423.51 43.04 441.29 22.66"/><polygon class="cls-2" points="431.08 74.74 441.29 71.02 441.29 86.45 431.08 74.74"/><path class="cls-2" d="m449.41,33.42c.55-.04,1.11-.08,1.67-.08,6.74,0,12.71,3.56,16.34,9.02l-2.72.99c-3.28-5.53-8.85-9.35-15.29-9.93Z"/><path class="cls-2" d="m470.45,60.4c-2.29,9.15-10.1,15.89-19.37,15.89-.56,0-1.12-.04-1.67-.09,8.07-.71,14.79-6.53,17.31-14.44l3.73-1.36Z"/><path class="cls-2" d="m447.24,39.23c.4-.04.81-.07,1.22-.07,4.65,0,8.78,2.32,11.46,5.93l-1.95.71c-2.42-3.67-6.3-6.18-10.73-6.57Z"/><path class="cls-2" d="m460.21,64.13c-2.66,3.85-6.93,6.34-11.75,6.34-.41,0-.82-.03-1.22-.07,3.78-.33,7.16-2.21,9.58-5.03l3.39-1.24Z"/><path class="cls-2" d="m452.83,47.67l-.98.35c-1.27-1.14-2.87-1.87-4.61-2.03.23-.02.46-.04.69-.04,1.84,0,3.53.64,4.9,1.72Z"/><polygon class="cls-4" points="490.03 43.7 470.7 37.81 473.15 44.53 400.93 70.81 404.35 80.21 476.57 53.92 479.01 60.64 490.03 43.7"/></g></svg>