<?xml version="1.0" encoding="UTF-8"?><svg id="Layer_2" xmlns="http://www.w3.org/2000/svg" viewBox="0 0 150 150"><defs><style>.cls-1,.cls-2{fill:#fff;}.cls-3{fill:#57a67b;}.cls-2{opacity:.15;}</style></defs><g id="Layer_1-2"><rect class="cls-2" x="0" y="0" width="150" height="150" rx="75" ry="75"/><path class="cls-1" d="m32.28,98.6c0-2.65,1.76-4.31,4.09-4.31,1.98,0,3.5,1.11,3.94,2.98h-1.82c-.32-.9-.96-1.61-2.12-1.61-1.39,0-2.3,1.16-2.3,2.94s.95,2.94,2.3,2.94c1.1,0,1.84-.58,2.18-1.63h1.82c-.55,2.07-2.06,3-4,3-2.31,0-4.08-1.65-4.08-4.31Z"/><path class="cls-1" d="m41.4,99.45v-5.03h1.74v5.18c0,1.3.6,1.94,1.75,1.94s1.74-.65,1.74-1.96v-5.16h1.74v5.01c0,2.18-1.01,3.49-3.48,3.49s-3.49-1.3-3.49-3.46Z"/><path class="cls-1" d="m56.26,94.42v1.45h-2.6v6.91h-1.74v-6.91h-2.6v-1.45h6.93Z"/><path class="cls-1" d="m65.48,94.42v1.45h-2.6v6.91h-1.74v-6.91h-2.6v-1.45h6.93Z"/><path class="cls-1" d="m71.8,94.42h1.74v8.36h-1.74v-3.5h-3.53v3.5h-1.74v-8.36h1.74v3.3h3.53v-3.3Z"/><path class="cls-1" d="m80.36,102.78l-1.81-3.11h-1.53v3.11h-1.74v-8.36h3.32c2.01,0,3.27,1.03,3.27,2.63,0,1.08-.57,1.91-1.6,2.33l2.07,3.4h-1.98Zm-3.34-6.91v2.34h1.63c.9,0,1.44-.44,1.44-1.17s-.54-1.18-1.44-1.18h-1.63Z"/><path class="cls-1" d="m82.82,98.6c0-2.63,1.72-4.31,4.18-4.31s4.18,1.68,4.18,4.31-1.72,4.31-4.18,4.31-4.18-1.68-4.18-4.31Zm6.57,0c0-1.78-.95-2.94-2.39-2.94s-2.39,1.16-2.39,2.94.95,2.94,2.39,2.94,2.39-1.16,2.39-2.94Z"/><path class="cls-1" d="m92.4,99.45v-5.03h1.74v5.18c0,1.3.6,1.94,1.75,1.94s1.74-.65,1.74-1.96v-5.16h1.74v5.01c0,2.18-1.01,3.49-3.48,3.49s-3.49-1.3-3.49-3.46Z"/><path class="cls-1" d="m104.39,98.05h4.37v4.73h-1.44v-1.98c-.34,1.02-1.13,2.11-2.85,2.11-2.02,0-3.88-1.59-3.88-4.31s1.71-4.31,4.15-4.31c2.04,0,3.41.97,3.91,2.75h-1.82c-.32-.84-.99-1.38-2.09-1.38-1.43,0-2.35,1.16-2.35,2.94s.96,2.94,2.43,2.94c1.3,0,2.19-.77,2.23-2.1h-2.65v-1.39Z"/><path class="cls-1" d="m115.56,94.42h1.74v8.36h-1.74v-3.5h-3.53v3.5h-1.74v-8.36h1.74v3.3h3.53v-3.3Z"/><path class="cls-1" d="m50.46,107.62v1.45h-2.6v6.91h-1.74v-6.91h-2.6v-1.45h6.93Z"/><path class="cls-1" d="m56.78,107.62h1.74v8.36h-1.74v-3.5h-3.53v3.5h-1.74v-8.36h1.74v3.3h3.53v-3.3Z"/><path class="cls-1" d="m61.99,114.53h4.11v1.45h-5.85v-8.36h5.75v1.45h-4.02v1.89h3.94v1.45h-3.94v2.11Z"/><path class="cls-1" d="m76.21,107.62h1.73v8.36h-3.36l-2.76-8.08v8.08h-1.73v-8.36h3.37l2.75,8.08v-8.08Z"/><path class="cls-1" d="m79.24,111.8c0-2.63,1.72-4.31,4.18-4.31s4.18,1.68,4.18,4.31-1.72,4.31-4.18,4.31-4.18-1.68-4.18-4.31Zm6.57,0c0-1.78-.95-2.94-2.39-2.94s-2.39,1.16-2.39,2.94.95,2.94,2.39,2.94,2.39-1.16,2.39-2.94Z"/><path class="cls-1" d="m88.91,115.98v-8.36h1.74v8.36h-1.74Z"/><path class="cls-1" d="m91.85,113.4h1.82c.12.89.85,1.33,1.76,1.33,1.17,0,1.84-.43,1.84-1.08s-.53-.87-1.66-1.12l-1.19-.26c-1.4-.3-2.32-1-2.32-2.32,0-1.45,1.41-2.46,3.23-2.46,2.06,0,3.21.97,3.45,2.37h-1.82c-.22-.69-.81-.99-1.64-.99s-1.52.35-1.52.94.45.79,1.61,1.06l1.19.26c1.57.34,2.39,1.03,2.39,2.37,0,1.65-1.45,2.63-3.63,2.63-1.9,0-3.29-1-3.51-2.71Z"/><path class="cls-1" d="m101.99,114.53h4.11v1.45h-5.85v-8.36h5.75v1.45h-4.02v1.89h3.94v1.45h-3.94v2.11Z"/><polygon class="cls-1" points="70.82 22.66 70.82 51.87 42.5 62.17 42.5 43.04 53.04 43.04 70.82 22.66"/><polygon class="cls-1" points="60.61 74.74 70.82 71.02 70.82 86.45 60.61 74.74"/><path class="cls-1" d="m78.94,33.42c.55-.04,1.11-.08,1.67-.08,6.74,0,12.71,3.56,16.34,9.02l-2.72.99c-3.28-5.53-8.85-9.35-15.29-9.93Z"/><path class="cls-1" d="m99.98,60.4c-2.29,9.15-10.1,15.89-19.37,15.89-.56,0-1.12-.04-1.67-.09,8.07-.71,14.79-6.53,17.31-14.44l3.73-1.36Z"/><path class="cls-1" d="m76.77,39.23c.4-.04.81-.07,1.22-.07,4.65,0,8.78,2.32,11.46,5.93l-1.95.71c-2.42-3.67-6.3-6.18-10.73-6.57Z"/><path class="cls-1" d="m89.74,64.13c-2.66,3.85-6.93,6.34-11.75,6.34-.41,0-.82-.03-1.22-.07,3.78-.33,7.16-2.21,9.58-5.03l3.39-1.24Z"/><path class="cls-1" d="m82.36,47.67l-.98.35c-1.27-1.14-2.87-1.87-4.61-2.03.23-.02.46-.04.69-.04,1.84,0,3.53.64,4.9,1.72Z"/><polygon class="cls-3" points="119.55 43.7 100.22 37.81 102.67 44.53 30.45 70.81 33.87 80.21 106.09 53.92 108.53 60.64 119.55 43.7"/></g></svg>