<?xml version="1.0" encoding="UTF-8"?><svg id="Layer_2" xmlns="http://www.w3.org/2000/svg" viewBox="0 0 64.82 64.33"><defs><style>.cls-1{fill:#57a57b;}</style></defs><g id="Layer_2-2"><g><path class="cls-1" d="M32.41,21.14c.86,0,1.56,0,2.27,0,1.13,.01,1.76,.49,1.77,1.35,0,.82-.66,1.32-1.81,1.33-3.04,0-6.08,0-9.11,0-.36,0-.73,0-1.15,0v10.82c.73,0,1.46-.01,2.18,0,1.19,.02,1.77,.47,1.78,1.34,0,.85-.61,1.34-1.78,1.35-3.95,.01-7.9,0-11.85,0-.36,0-.73,0-1.15,0v10.74c.36,.02,.71,.05,1.06,.05,2.63,0,5.27,0,7.9,0,1.28,0,1.77,.49,1.78,1.77,.01,3.51,0,7.02,0,10.53,0,.36,0,.73,0,1.15h18.91c0-.41,0-.77,0-1.13,0-2.87,0-5.73,0-8.6,0-.27-.01-.54,0-.81,.07-1.03,.55-1.56,1.38-1.53,.95,.04,1.28,.68,1.3,1.5,.04,1.48,.02,2.96,.03,4.44,0,2.02,0,4.04,0,6.12,.39,.03,.68,.06,.98,.06,4.73,0,9.45-.01,14.18,.02,.75,0,1.07-.14,1.06-.99-.05-2.97-.02-5.94-.02-8.91,0-.26-.04-.52-.08-.91-.41,0-.77,0-1.13,0-3.34,0-6.68,0-10.03,0-.37,0-.75,0-1.11-.07-.73-.15-1.13-.67-1.07-1.38,.06-.69,.48-1.18,1.23-1.25,.17-.02,.34-.01,.51-.01,4.19,0,8.37,0,12.56,0,1.34,0,1.81,.48,1.82,1.83,0,4.19,0,8.37,0,12.56,0,1.34-.47,1.81-1.84,1.81-20.39,0-40.78,0-61.16,0-1.36,0-1.81-.47-1.81-1.85C0,44.83,0,27.18,0,9.53c0-1.47,.45-1.9,1.95-1.9,9.48,0,18.97,0,28.45,0,1.6,0,2,.41,2,2.06,0,3.41,0,6.82,0,10.23,0,.37,0,.73,0,1.23ZM2.78,61.65c6.14,0,12.17,0,18.2-.03,.21,0,.59-.42,.6-.65,.04-3.06,.02-6.13,.03-9.19,0-.65-.22-.94-.95-.93-5.7,.03-11.39,.03-17.09,0-.78,0-.88,.35-.87,.98,.02,3,0,6,.01,9,0,.23,.04,.46,.08,.83Zm18.69-27.05v-10.72H2.79v10.72H21.47ZM13.55,10.35c-.02,.43-.05,.73-.05,1.03,0,2.9,.03,5.8-.02,8.7-.01,.83,.22,1.09,1.07,1.08,4.72-.04,9.44-.02,14.17-.02,.29,0,.58-.04,.92-.07,.02-.36,.06-.66,.06-.95,0-2.9-.03-5.8,.02-8.7,.01-.83-.22-1.09-1.07-1.08-4.69,.04-9.38,.02-14.07,.02h-1.03Zm-2.8,0c-2.43,0-4.75,.04-7.07-.02-.85-.02-1.01,.3-1,1.05,.04,2.36,.01,4.72,.01,7.08q0,2.68,2.67,2.68c1.78,0,3.55,0,5.38,0V10.35Zm-.02,37.72v-10.66H2.77v10.66h7.96Z"/><path d="M50.16,20.28c1.35,1.56,2.75,3.19,4.15,4.82,1.56,1.8,1.48,3.13-.27,4.69-.65,.58-1.3,1.16-2.12,1.89,1.11,1.07,2.17,2.08,3.21,3.12,2.97,2.94,1.94,7.41-1.98,8.91-7.43,2.85-14.84,5.75-22.26,8.62-.28,.11-.57,.31-.85,.3-.67-.03-1.45,.02-1.96-.31-.71-.45-.74-1.31-.43-2.11,.99-2.58,1.98-5.16,2.98-7.74,1.84-4.74,3.69-9.49,5.55-14.23,.56-1.43,1.06-2.88,2.42-3.82,2.1-1.45,4.98-1.18,6.85,.69,1.43,1.43,2.87,2.86,4.3,4.29,.07,.07,.16,.11,.36,.24,.83-.73,1.67-1.48,2.57-2.27-2.47-2.85-4.88-5.68-7.34-8.45-2.51-2.81-2.43-5.89,.36-8.44,3.26-2.99,6.54-5.95,9.83-8.9,2.45-2.19,5.64-2.07,7.77,.25,1.98,2.15,1.78,5.58-.53,7.71-3.32,3.07-6.67,6.11-10.05,9.11-.73,.65-1.67,1.07-2.58,1.64Zm-2.19,11.26c-.07-.13-.09-.2-.14-.24-1.4-1.41-2.8-2.83-4.22-4.22-1.59-1.57-3.61-1.14-4.43,.95-2.64,6.74-5.27,13.49-7.9,20.24-.13,.32-.21,.66-.36,1.13,.34-.12,.49-.17,.64-.22,4.71-1.82,9.43-3.64,14.14-5.48,2.38-.93,4.78-1.84,7.12-2.88,1.38-.61,1.79-2.6,.81-3.71-1.14-1.28-2.39-2.46-3.61-3.71-.3,.25-.51,.41-.71,.58-1.19,1.05-2.37,2.1-3.57,3.14-.89,.78-1.64,.84-2.23,.21-.58-.63-.44-1.42,.39-2.19,.25-.23,.51-.44,.76-.67,1.11-.98,2.21-1.96,3.3-2.93Zm-1.7-17.09c.06,1.45,.53,2.29,1.49,2.75,1.06,.5,2.1,.42,3.01-.4,3.43-3.1,6.86-6.19,10.27-9.3,1.18-1.08,1.27-2.69,.31-3.81-1-1.17-2.64-1.33-3.88-.22-3.49,3.12-6.96,6.28-10.38,9.48-.47,.44-.66,1.19-.82,1.5Z"/></g></g></svg>