<?xml version="1.0" encoding="UTF-8"?><svg id="Layer_2" xmlns="http://www.w3.org/2000/svg" viewBox="0 0 51.33 68.44"><defs><style>.cls-1{fill:#57a57b;}</style></defs><g id="Layer_2-2"><g><path class="cls-1" d="M45.6,45.54c0,1.62,0,3.14,0,4.67,0,3.99,.01,7.98,0,11.98-.02,3.98-2.29,6.25-6.24,6.24-1.24,0-2.51,0-3.72-.24-2.35-.45-4.12-2.48-4.22-4.88-.12-2.74-.07-5.48-.07-8.22,0-8.06,0-16.11,0-24.17,0-.39-.02-.79,.04-1.17,.13-.79,.64-1.17,1.42-1.17,.74,0,1.2,.41,1.35,1.12,.07,.34,.04,.71,.04,1.07,0,10.37,0,20.74,0,31.11,0,2.79,.9,3.68,3.72,3.69,.71,0,1.43,.02,2.14-.03,1.57-.11,2.6-1.18,2.69-2.77,.02-.32,0-.64,0-.96,0-10.34,0-20.67,0-31.01,0-.36-.03-.72,.03-1.07,.13-.72,.58-1.13,1.32-1.15,.78-.02,1.3,.35,1.44,1.13,.06,.35,.05,.71,.05,1.07,0,3.07,0,6.13,0,9.2,0,.39,.03,.78,.03,1.18,0,.93,.45,1.51,1.37,1.59,.82,.08,1.43-.61,1.44-1.64,.02-4.42,.11-8.84-.02-13.26-.12-4.07-3.65-7.53-7.72-7.78-1.21-.07-2.42-.08-3.63,0-3.9,.26-6.9,2.98-7.73,6.82-.24,1.1-.51,2.26-1.06,3.21-1.12,1.9-2.97,2.69-5.14,2.71-1.71,.02-3.42,0-5.13,0-.32,0-.64,0-.96,.02-.83,.06-1.34,.5-1.33,1.36,0,.83,.45,1.41,1.3,1.38,3.32-.12,6.7,.58,9.95-.68,.82-.32,1.53,0,1.84,.82,.31,.8,.05,1.58-.82,1.81-1.5,.4-3.03,.81-4.57,.93-2.02,.16-4.06,.06-6.09,.04-2.63-.03-4.51-1.83-4.51-4.28,0-2.44,1.89-4.24,4.52-4.27,1.96-.02,3.92,0,5.88,0,1.8-.02,2.83-.8,3.1-2.58,.67-4.36,2.85-7.74,6.97-9.29,6.08-2.29,13.83-1.29,17.07,5.87,.57,1.26,.88,2.74,.92,4.13,.12,4.2,.04,8.41,.04,12.62,0,3.42-1.86,5.13-5.24,4.84-.1,0-.21,0-.45,.02Z"/><path d="M11.34,68.44c-1.5,0-2.99,.01-4.49,0-2.27-.02-3.92-1.28-4.31-3.52-.57-3.37-1-6.76-1.49-10.14-.34-2.36-.68-4.72-1.02-7.08-.16-1.09,.25-1.86,1.09-2,.95-.16,1.58,.37,1.75,1.54,.81,5.57,1.59,11.13,2.41,16.7,.2,1.34,.54,1.62,1.91,1.62,2.78,.01,5.56,.02,8.34,0,1.45,0,1.8-.36,2-1.79,.79-5.53,1.58-11.05,2.38-16.58,.16-1.12,.75-1.62,1.68-1.5,.84,.11,1.28,.75,1.12,1.85-.81,5.78-1.62,11.56-2.5,17.33-.33,2.2-2.04,3.55-4.26,3.57-1.53,.02-3.06,0-4.6,0Z"/><path class="cls-1" d="M45.56,7.12c0,4.01-3.2,7.14-7.24,7.11-3.83-.03-6.97-3.19-6.99-7.04C31.31,3.26,34.55-.04,38.41,0c3.99,.04,7.16,3.19,7.15,7.12Zm-7.11,4.27c2.38,0,4.3-1.93,4.28-4.28-.02-2.37-1.96-4.26-4.33-4.23-2.35,.03-4.2,1.9-4.21,4.22,0,2.38,1.89,4.29,4.26,4.28Z"/><path d="M13.47,40.66c-.01,1.21-.9,2.1-2.1,2.1-1.14,0-2.13-.97-2.14-2.1-.02-1.17,1.02-2.18,2.2-2.15,1.2,.03,2.06,.93,2.04,2.15Z"/><path d="M11.34,56.31c-.02,1.29-.87,2.14-2.14,2.12-1.17-.01-2.08-.93-2.09-2.1,0-1.22,.94-2.15,2.17-2.13,1.18,.03,2.08,.95,2.06,2.1Z"/><path d="M12.13,48.44c.02-1.21,.89-2.06,2.12-2.05,1.18,0,2.12,.93,2.13,2.08,0,1.14-1.07,2.19-2.22,2.15-1.16-.04-2.04-.99-2.03-2.18Z"/></g></g></svg>