<?xml version="1.0" encoding="UTF-8"?><svg id="Layer_2" xmlns="http://www.w3.org/2000/svg" viewBox="0 0 64.65 64.69"><defs><style>.cls-1{fill:#57a57b;}</style></defs><g id="Layer_2-2"><g><path class="cls-1" d="M64.28,58.17c-.35-.36-.92-.55-1.69-.55-.71,0-1.42,0-2.13,0-.97,0-1.93,0-2.9,0-1.65-.02-2.27-.64-2.27-2.29,0-5.5,0-10.99,0-16.49,0-1.6,.68-2.29,2.28-2.3,.7,0,1.4,0,2.1,0,1.09,0,2.22,0,3.33-.01,.53,0,1.01-.21,1.32-.56,.24-.27,.35-.61,.32-.95-.1-.98-.67-1.51-1.61-1.51h0c-.56,0-1.14,0-1.71-.01-1.42-.02-2.89-.04-4.33,.07-.99,.07-1.89-.08-2.92-.49-1.91-.77-3.83-1.52-5.75-2.27-1.94-.76-3.89-1.53-5.83-2.3-2.17-.87-4.3-.72-6.53,.44-1.79,.93-3.7,1.88-5.85,2.89-.28,.13-.75,.12-1-.01-2.07-1.17-4.2-1.28-6.53-.35l-2.03,.81c-2.39,.96-4.86,1.95-7.3,2.89-.24,.09-.73,0-.91-.17-1-.94-2.13-1.43-3.35-1.45-2.38-.04-4.85-.04-7.34,0-.41,0-.99,.23-1.25,.58-.26,.36-.47,1.14-.22,1.46,.34,.44,.98,.91,1.55,.93,1.54,.06,3.1,.06,4.61,.05,.68,0,1.36,0,2.03,0,1.66,0,2.34,.68,2.34,2.34,0,5.46,0,10.92-.02,16.39,0,1.77-.59,2.34-2.39,2.35-.99,0-1.98,0-2.97,0-1.16,0-2.31,0-3.47,0-.63,0-1.14,.19-1.47,.53-.27,.28-.4,.65-.39,1.07,.03,.85,.76,1.43,1.82,1.43h.43c2.17,.02,4.41,.03,6.61,0,2.03-.04,3.54-.99,4.27-2.67,.42-.99,.95-1.28,2-1.13,.27,.04,.56,.05,.84,.06,.58,.02,1.12,.04,1.48,.29,2.89,2.06,5.7,4.24,8.32,6.31,1,.79,1.95,1.18,2.87,1.18s1.83-.39,2.78-1.16c.46-.37,.91-.74,1.37-1.11,1.6-1.29,3.26-2.63,4.82-4.02,1.45-1.29,3-2.03,4.86-2.33,2.32-.36,4.58-.84,6.97-1.34,.93-.2,1.87-.39,2.82-.59v1.23c0,3.24,2.02,5.27,5.24,5.29,1.47,.01,2.94,0,4.41,0h.62c1.32,0,2.09-.53,2.12-1.44,.01-.43-.11-.78-.37-1.05Zm-12.02-10.3c0,1.06,0,2.12,0,3.19l-7.68,1.56c.03-.05,.06-.11,.09-.16,.17-.31,.32-.58,.43-.87,.61-1.56,.35-3-.78-4.28-1.03-1.16-2.06-2.31-3.1-3.46l-1.46-1.63c-.2-.22-.4-.45-.62-.7l-.24-.27c.21-.09,.41-.17,.6-.26,.54-.23,1.05-.45,1.55-.69,.49-.24,.82-.59,.95-.99,.11-.34,.07-.7-.11-1.05-.44-.83-1.18-1.07-2.09-.69l-.63,.26c-1.86,.78-3.72,1.56-5.57,2.35-1.73,.73-3.25,.27-3.98-1.2-.8-1.63-.23-3.35,1.4-4.19,2.39-1.23,4.75-2.41,6.55-3.29,1.24-.61,2.47-.69,3.66-.22,3.83,1.5,7.67,3,11.5,4.5,0,0,0,0,0,0-.05,.39-.11,.78-.17,1.15-.13,.87-.26,1.69-.27,2.53-.04,2.79-.03,5.53-.03,8.42ZM13.71,39.05c0-.63,.18-.9,.81-1.14,2.69-1.04,5.41-2.14,8.04-3.19l1.29-.52c1.29-.52,2.28-.51,3.3,.02l-.09,.21c-.1,.22-.19,.43-.28,.63-1.04,2.34-.58,5,1.18,6.8,1.67,1.7,4.33,2.19,6.62,1.22,.23-.1,.43-.18,.59-.26q.79-.35,1.32,.26c.12,.14,.27,.31,.45,.51,1.23,1.34,2.46,2.72,3.65,4.05l1.25,1.4c.41,.45,.58,.81,.56,1.12-.02,.3-.25,.62-.7,1-1.58,1.31-3.17,2.62-4.75,3.92-2.47,2.04-4.93,4.07-7.4,6.11-.66,.55-1.16,.55-1.83,.02-2.91-2.3-5.94-4.63-9-6.92-.35-.26-.89-.42-1.6-.45-.48-.03-.96-.03-1.44-.03-.33,0-.66,0-1,0-.29,0-.59,0-.89,0,0-.07-.01-.14-.02-.2-.02-.22-.04-.4-.04-.59,0-1.4,0-2.8,0-4.2,0-3.2,0-6.52-.02-9.77Z"/><path d="M27.26,23.57c.95,.98,1.9,1.96,2.85,2.94,.43,.44,.83,.66,1.23,.66h0c.39,0,.77-.21,1.18-.63,.88-.92,1.77-1.83,2.65-2.75,3.14-3.24,6.38-6.6,9.49-9.98,2.37-2.58,2.67-6.69,.72-9.76-2.04-3.21-5.7-4.69-9.32-3.77-1.65,.42-3.11,1.35-4.71,3l-.2-.19c-.23-.21-.43-.4-.63-.59-3.5-3.32-8.52-3.36-11.93-.09-3.31,3.17-3.44,8.33-.31,11.74,2.93,3.19,6,6.35,8.97,9.41ZM19.18,7.4c.33-1.85,1.61-3.35,3.45-4.03,.64-.23,1.29-.35,1.92-.35,1.2,0,2.36,.4,3.29,1.18,.48,.4,.94,.85,1.38,1.29,.26,.26,.52,.52,.79,.77,1,.93,1.64,.93,2.65-.01,.29-.27,.57-.55,.84-.82,.31-.31,.63-.62,.95-.92,1.53-1.41,4.08-1.89,5.8-1.1,2.22,1.02,3.55,3.17,3.3,5.35-.14,1.23-.57,2.36-1.16,3-2.68,2.95-5.37,5.76-8.22,8.73-.94,.98-1.89,1.97-2.84,2.97l-3.03-3.17c-2.64-2.76-5.24-5.48-7.84-8.2-1.19-1.25-1.63-2.83-1.3-4.69Z"/></g></g></svg>