<?xml version="1.0" encoding="UTF-8"?><svg id="Layer_2" xmlns="http://www.w3.org/2000/svg" viewBox="0 0 69.24 67.19"><defs><style>.cls-1{fill:#fff;}</style></defs><g id="Layer_2-2"><g><path class="cls-1" d="M33.98,50.31c-.53-3.58-1.69-7.19-3.54-11.04-.97-2.01-1.98-2.41-4.01-1.57-1.18,.48-2.36,.98-3.54,1.48l-1.22,.51c-.04-.09-.07-.16-.1-.22l-1.26-3.11c-3.66-9.08-7.44-18.47-11.15-27.71-.07-.18-.05-.5,.05-.75,.55-1.39,1.16-2.78,1.78-4.21,.49-1.11,.35-2.09-.39-2.91C9.84-.04,8.84-.22,7.64,.26c-1.96,.78-3.91,1.57-5.86,2.36C.57,3.11-.02,3.93,0,5.06c.03,1.12,.63,1.93,1.8,2.4,1.45,.59,2.75,1.13,4.04,1.74,.28,.13,.58,.43,.68,.69,2.13,5.24,4.25,10.49,6.37,15.73l2.57,6.36c.84,2.07,1.68,4.13,2.53,6.21l1.01,2.47c-.16,.07-.3,.14-.45,.19-.55,.22-1.09,.44-1.64,.66-1.04,.42-2.08,.83-3.12,1.26-1.56,.65-2.14,1.9-1.55,3.35l.31,.77c.99,2.47,2.02,5.02,3.25,7.42,1.5,2.94,3.42,5.11,5.87,6.63,1.21,.75,2.62,1.13,4.06,1.13,1.06,0,2.15-.21,3.18-.63,2.41-.98,4.21-2.98,4.8-5.36,.47-1.86,.56-3.81,.27-5.78ZM7.96,3.47l-1.24,2.9-2.94-1.25,4.18-1.65ZM24.53,53.17c.33,.14,.69,.13,1.04-.02,.78-.33,1.03-1.19,.62-2.19l-.75-1.85c-.87-2.16-1.74-4.33-2.61-6.49-.03-.07-.05-.14-.08-.22l5.06-1.94c1.19,2.45,2.44,5.35,2.99,8.51,.31,1.79,.43,3.47,.36,5-.07,1.61-.77,3.03-1.96,4.01-1.17,.96-2.66,1.37-4.19,1.14-1.54-.23-2.86-1.06-4.29-2.69-1.79-2.05-3.27-4.61-4.65-8.05-.3-.75-.57-1.51-.83-2.24-.07-.2-.14-.4-.21-.59l5.1-2.13,.51,1.32c.5,1.3,1.01,2.6,1.52,3.9,.41,1.03,.82,2.06,1.24,3.09l.11,.28c.24,.58,.59,.99,1.01,1.16Z"/><path d="M69.23,65.76c-.09-.46-.53-.89-.9-1.14-.24-.16-.56-.14-.85-.12-.08,0-.17,.01-.25,.01h0c-4.49,0-6.18,0-9.54,0h-3.72s0-6.75,0-6.75c0,0,0,0,0,0,2.17,.95,4.51,.87,6.57-.23,2.06-1.09,3.53-3.06,3.94-5.26,.03-.16,.22-.4,.47-.57,2.02-1.41,3.2-3.61,3.24-6.02,.04-2.41-1.07-4.64-3.04-6.12-.26-.19-.5-.6-.58-.98-.24-1.08-.66-2.43-1.83-3.32-.65-.49-1.38-.89-2.08-1.27-.31-.17-.62-.34-.96-.53-.03-.03-.06-.19-.08-.3-.6-3.46-3.58-5.96-7.08-5.96-.02,0-.04,0-.06,0-3.48,.03-6.4,2.58-6.94,6.08-.05,.33-.14,.42-.52,.54-2.58,.76-4.07,2.46-4.44,5.07-.02,.18-.2,.43-.41,.58-2.04,1.49-3.2,3.72-3.19,6.13,.01,2.41,1.19,4.63,3.24,6.1,.23,.16,.44,.48,.51,.75,.52,2.22,1.95,4.08,3.92,5.1,1.96,1.01,4.29,1.11,6.39,.26,.05-.02,.1-.03,.17-.05v6.68h-17.27l-2.31,.07h-2.44c-5.54,0-17.24,0-19.71,0h0c-.08,0-.17,0-.27-.01-.28-.02-.59-.04-.83,.11-.34,.21-.92,.65-1,1.15-.09,.55,.68,1.19,.77,1.26,.19,.16,.47,.18,.73,.18,.07,0,.13,0,.2,0h.17c16.42,0,41.63,0,58.1,0,.41,0,.86,0,1.2-.23,.33-.23,.74-.79,.66-1.2Zm-15.31-11.74c.04-.56,.03-1.14,.02-1.69,0-.18,0-.37,0-.55,.17-.05,.35-.09,.52-.14,.51-.13,.99-.26,1.46-.42,2.21-.76,3.99-2.19,5.29-4.23,.51-.8,.42-1.5-.24-1.98-.66-.47-1.36-.31-1.93,.46-1.62,2.17-3.02,3.14-5.09,3.52v-.93s0-2.39,0-2.39c0-.26,0-.53,0-.79,0-.62,0-1.23,0-1.85-.02-.99-.55-1.59-1.36-1.57-.79,.02-1.27,.59-1.3,1.54-.02,.74-.02,1.48-.01,2.2,0,.31,0,.62,0,.93v.57c-1.95-.51-3.45-2.08-3.8-4-.03-.17-.05-.35-.07-.53-.02-.18-.04-.36-.07-.53-.18-1.06-.84-1.29-1.36-1.28-.74,0-1.26,.59-1.28,1.46-.1,2.9,2.04,6.05,4.86,7.18,.07,.03,.14,.05,.22,.08l.1,.04c.16,.06,.34,.1,.52,.15,.34,.09,.7,.17,.82,.35,.14,.2,.1,.58,.07,.95-.01,.18-.03,.35-.03,.52,0,.3,0,.59,0,.89-.01,.61-.02,1.23,.03,1.85,.06,.65-.25,.97-.77,1.27-1.17,.68-2.61,.81-3.95,.34-1.35-.47-2.41-1.48-2.92-2.76-.56-1.44-1.33-2.57-2.48-3.66-1.1-1.04-1.63-2.48-1.48-3.97,.15-1.44,.95-2.7,2.18-3.45,.93-.56,1.32-1.25,1.38-2.38,.07-1.45,1.21-2.66,2.71-2.87,1.48-.21,2.12-.9,2.21-2.36,.15-2.27,1.97-4.03,4.24-4.09,2.36-.06,4.35,1.6,4.62,3.88,.22,1.91,.5,2.21,2.47,2.6,1.25,.25,2.26,1.37,2.39,2.65,.11,1.11,.63,1.96,1.63,2.66,1.31,.93,2.07,2.43,2.03,4.02-.04,1.55-.82,2.91-2.13,3.73-.91,.57-1.39,1.29-1.65,2.48-.33,1.55-1.38,2.8-2.87,3.43-1.46,.61-3.11,.48-4.41-.36-.45-.29-.6-.54-.56-.97Z"/></g></g></svg>