<?xml version="1.0" encoding="UTF-8"?><svg id="Layer_2" xmlns="http://www.w3.org/2000/svg" viewBox="0 0 57 68.43"><defs><style>.cls-1{fill:#fff;}</style></defs><g id="Layer_2-2"><g><g id="n2cFZR"><g><path d="M26.03,50.46c-.77,1.63-1.39,3.23-2.23,4.7-1.65,2.89-4.27,4.71-7.32,5.76-3.53,1.21-7.14,2.22-10.75,3.15-2.42,.62-5-1.2-5.58-3.67-.64-2.73,.87-5.25,3.6-6.04,2.77-.8,5.53-1.64,8.31-2.4,2.59-.71,3.91-2.39,4.46-5.01,1.17-5.63,3.26-10.98,5.46-16.27,.12-.29,.22-.58,.32-.87-3.1-1.17-6.36-.31-7.78,2.04-.29,.48-.48,1.03-.64,1.57-.81,2.88-3.35,4.44-6.13,3.73-2.66-.67-4.18-3.35-3.45-6.19,1.55-6.01,5.37-9.83,11.41-11.14,4.07-.88,8.17-.3,12.13,.92,3.3,1.02,6.54,2.2,10.06,2.26,1.81,.03,3.2-.51,3.89-2.18,.54-1.3,.86-2.7,1.16-4.08,.52-2.36,2.73-4.09,5.15-3.91,2.48,.18,4.55,2.11,4.55,4.54,0,1.58-.21,3.22-.66,4.73-1.21,4.1-3.43,7.51-7.38,9.51-3.26,1.65-6.74,1.57-10.25,1.19-.77-.08-1.53-.28-2.36-.43-.82,2.04-1.65,4.04-2.41,6.07-.08,.22,.12,.67,.32,.87,4.38,4.12,6.88,9.2,7.68,15.12,.49,3.63,.07,7.18-1.14,10.62-.96,2.72-3.59,3.97-6.27,3.09-2.5-.83-3.9-3.53-3.11-6.21,1.04-3.52,.9-6.96-.47-10.35-.11-.26-.22-.53-.34-.78-.06-.12-.16-.22-.25-.33Zm-6.5-28.03c-.53,0-1.07-.02-1.6,0-5.3,.26-9.88,4.22-10.9,9.39-.23,1.18,.35,2.25,1.38,2.57,1.04,.32,2.13-.24,2.58-1.34,.12-.3,.15-.64,.32-.9,.76-1.22,1.36-2.63,2.37-3.6,2.38-2.29,8.33-2.75,11.23-1.08,.74,.43,1.03,1.05,.67,1.9-.36,.85-.68,1.72-1.04,2.58-2.29,5.42-4.24,10.95-5.54,16.7-.51,2.26-1.67,4.15-3.88,5.07-2.12,.88-4.33,1.57-6.53,2.28-1.35,.44-2.75,.73-4.12,1.14-.87,.26-1.49,.84-1.61,1.8-.1,.86,.19,1.65,.96,1.98,.6,.26,1.41,.37,2.03,.21,2.96-.78,5.92-1.58,8.82-2.54,3.36-1.11,6.13-3.09,7.53-6.47,.71-1.7,1.03-3.55,1.64-5.29,.2-.56,.7-1.19,1.23-1.42,.76-.33,1.28,.33,1.73,.93,3.71,4.95,4.77,10.39,3.05,16.35-.38,1.3,.18,2.44,1.3,2.78,1.21,.37,2.29-.22,2.71-1.56,1.85-5.95,1.24-11.67-1.7-17.15-1.26-2.35-2.99-4.33-5.02-6.05-.6-.51-1.08-1.08-.74-1.94,1.12-2.85,2.26-5.69,3.4-8.53,.35-.87,1.02-1.14,1.91-.93,.76,.18,1.52,.39,2.29,.53,3.13,.56,6.28,.76,9.21-.72,4.37-2.22,6.08-6.18,6.66-10.78,.18-1.44-.57-2.44-1.77-2.59-1.32-.16-2.11,.72-2.48,2.21-.43,1.74-.95,3.52-1.81,5.07-1.05,1.92-2.88,2.87-5.15,2.87-2.91,0-5.76-.4-8.5-1.38-3.44-1.23-6.92-2.21-10.63-2.05Z"/><path d="M31.85,18.49c-4.55,.13-9.22-3.97-9.06-9.51C22.94,3.8,27.23-.15,32.51,0c5.01,.15,8.97,4.47,8.82,9.64-.14,5.02-4.4,8.99-9.48,8.85Zm-6.15-9.25c0,3.57,2.8,6.42,6.31,6.43,3.57,0,6.52-2.92,6.49-6.43-.03-3.53-2.92-6.39-6.43-6.36-3.59,.03-6.37,2.8-6.38,6.36Z"/></g></g><path class="cls-1" d="M57,61.32c0,4.01-3.2,7.14-7.24,7.11-3.83-.03-6.97-3.19-6.99-7.04-.03-3.93,3.22-7.22,7.08-7.19,3.99,.04,7.16,3.19,7.15,7.12Zm-7.11,4.27c2.38,0,4.3-1.93,4.28-4.28-.02-2.37-1.96-4.26-4.33-4.23-2.35,.03-4.2,1.9-4.21,4.22,0,2.38,1.89,4.29,4.26,4.28Z"/></g></g></svg>