<svg viewBox="0 0 960 1200" xmlns="http://www.w3.org/2000/svg"><path d="m0 0v1200h960v-1200zm592.63 800.76-113.96-129.91-114.33 129.91h-186.9l191.83-209.69-191.45-191.83h186.14l112.43 114.34 115.86-114.34h189.55l-196.01 189.56 196.77 211.96z"/><path d="m.53 425.41 160.17 166.08-160.17 178.17" fill="none" opacity=".5" stroke="#57a57b" stroke-miterlimit="10" stroke-width="1.02"/><path d="m15.87 398.53 186.09 192.97-186.1 207.03" fill="none" opacity=".6" stroke="#57a57b" stroke-miterlimit="10" stroke-width="1.02"/><path d="m57.14 398.53 186.09 192.97-186.1 207.03" fill="none" opacity=".7" stroke="#57a57b" stroke-miterlimit="10" stroke-width="1.02"/><path d="m98.41 398.53 186.09 192.97-186.1 207.03" fill="none" opacity=".8" stroke="#57a57b" stroke-miterlimit="10" stroke-width="1.02"/><path d="m139.67 398.53 186.1 192.97-186.11 207.03" fill="none" opacity=".9" stroke="#57a57b" stroke-miterlimit="10" stroke-width="1.02"/><path d="m.53 510.99 77.63 80.5-77.63 86.36" fill="none" opacity=".3" stroke="#57a57b" stroke-miterlimit="10" stroke-width="1.02"/><path d="m.53 468.19 118.9 123.3-118.9 132.27" fill="none" opacity=".4" stroke="#57a57b" stroke-miterlimit="10" stroke-width="1.02"/><g fill="#fff"><path d="m269.67 850.81c19.28 0 29.4 9.06 29.4 23.01s-10.13 23.01-29.4 23.01h-8.97v21.5h-19.81v-67.51h28.78zm0 30.38c6.04 0 9.06-3.02 9.06-7.37s-3.02-7.28-9.06-7.28h-8.97v14.66h8.97z"/><path d="m325.63 902.34h30.47v15.99h-50.28v-67.51h49.48v15.99h-29.67v9.15h29.05v15.99h-29.05z"/><path d="m405.93 918.32-13.24-22.83h-7.73v22.83h-19.81v-67.51h29.05c17.94 0 28.96 8.88 28.96 22.48 0 8.26-4 14.84-11.46 18.57l16.43 26.47h-22.21zm-20.97-52.15v14.12h9.15c5.69 0 8.71-2.93 8.71-7.02s-3.02-7.11-8.71-7.11h-9.15z"/><path d="m433.46 918.32v-67.51h19.81v67.51z"/><path d="m483.82 902.34h30.47v15.99h-50.28v-67.51h49.48v15.99h-29.67v9.15h29.05v15.99h-29.05z"/><path d="m573.54 850.81h17.94v67.51h-34.02l-16.08-61.74v61.74h-18.03v-67.51h34.11l16.08 61.74z"/><path d="m599.38 884.57c0-22.21 15.19-35 34.73-35 16.7 0 30.38 8.62 33.93 25.58h-20.61c-1.87-5.69-5.51-10.39-13.32-10.39-8.62 0-14.39 7.19-14.39 19.81s5.95 19.81 14.66 19.81c6.66 0 11.37-3.73 13.41-10.57h20.61c-4.26 18.3-17.77 25.76-34.02 25.76-19.72 0-35-12.79-35-35z"/><path d="m694.69 902.34h30.47v15.99h-50.28v-67.51h49.48v15.99h-29.67v9.15h29.05v15.99h-29.05z"/><path d="m358.26 281.9v16.58h-19.99v53.42h-20.54v-53.42h-19.89v-16.58z"/><path d="m407.34 281.9h20.54v70h-20.54v-26.25h-21.55v26.25h-20.54v-70h20.54v25.14h21.55z"/><path d="m459.47 335.32h31.59v16.58h-52.13v-70h51.3v16.58h-30.76v9.49h30.12v16.58h-30.12v10.78z"/><path d="m596.56 281.9v16.58h-19.99v53.42h-20.54v-53.42h-19.89v-16.58z"/><path d="m631.64 281.9c21.64 0 36.57 10.41 36.57 35s-14.92 35-36.57 35h-28.09v-70zm.46 53.42c9.58 0 15.01-6.45 15.01-18.42s-5.43-18.42-15.01-18.42h-8.01v36.84z"/></g></svg>