<?xml version="1.0" encoding="UTF-8"?><svg id="Layer_2" xmlns="http://www.w3.org/2000/svg" viewBox="0 0 1200 659"><defs><style>.cls-1{opacity:.9;}.cls-1,.cls-2,.cls-3,.cls-4,.cls-5,.cls-6,.cls-7{fill:none;stroke:#57a57b;stroke-miterlimit:10;stroke-width:1.02px;}.cls-8{fill:#fff;}.cls-2{opacity:.6;}.cls-3{opacity:.7;}.cls-4{opacity:.5;}.cls-5{opacity:.4;}.cls-6{opacity:.8;}.cls-7{opacity:.3;}</style></defs><g id="Layer_1-2"><g><path d="M0,0V659H1200V0H0ZM712.63,530.26l-113.96-129.91-114.33,129.91h-186.9l191.83-209.69-191.45-191.83h186.14l112.43,114.34,115.86-114.34h189.55l-196.01,189.56,196.77,211.96h-189.93Z"/><g><path class="cls-8" d="M762.06,299.61c12.37,0,18.87,5.81,18.87,14.76s-6.5,14.76-18.87,14.76h-5.76v13.8h-12.71v-43.33h18.47Zm0,19.5c3.88,0,5.81-1.94,5.81-4.73s-1.94-4.67-5.81-4.67h-5.76v9.41h5.76Z"/><path class="cls-8" d="M797.97,332.67h19.55v10.26h-32.27v-43.33h31.75v10.26h-19.04v5.87h18.64v10.26h-18.64v6.67Z"/><path class="cls-8" d="M849.5,342.93l-8.49-14.65h-4.96v14.65h-12.71v-43.33h18.64c11.52,0,18.58,5.7,18.58,14.42,0,5.3-2.57,9.52-7.35,11.91l10.55,16.99h-14.25Zm-13.45-33.46v9.06h5.87c3.65,0,5.59-1.88,5.59-4.5s-1.94-4.56-5.59-4.56h-5.87Z"/><path class="cls-8" d="M867.17,342.93v-43.33h12.71v43.33h-12.71Z"/><path class="cls-8" d="M899.49,332.67h19.55v10.26h-32.27v-43.33h31.75v10.26h-19.04v5.87h18.64v10.26h-18.64v6.67Z"/><path class="cls-8" d="M957.06,299.61h11.52v43.33h-21.83l-10.32-39.62v39.62h-11.57v-43.33h21.89l10.32,39.62v-39.62Z"/><path class="cls-8" d="M973.64,321.27c0-14.25,9.75-22.46,22.29-22.46,10.72,0,19.5,5.53,21.78,16.42h-13.23c-1.2-3.65-3.53-6.67-8.55-6.67-5.53,0-9.24,4.62-9.24,12.71s3.82,12.71,9.41,12.71c4.28,0,7.3-2.39,8.61-6.78h13.23c-2.74,11.74-11.4,16.53-21.83,16.53-12.66,0-22.46-8.21-22.46-22.46Z"/><path class="cls-8" d="M1034.8,332.67h19.55v10.26h-32.27v-43.33h31.75v10.26h-19.04v5.87h18.64v10.26h-18.64v6.67Z"/></g><g><polyline class="cls-4" points="35.68 155.75 195.85 321.83 35.68 500"/><polyline class="cls-2" points="51.02 128.86 237.11 321.83 51.01 528.86"/><polyline class="cls-3" points="92.29 128.86 278.38 321.83 92.28 528.86"/><polyline class="cls-6" points="133.56 128.86 319.65 321.83 133.54 528.86"/><polyline class="cls-1" points="174.82 128.86 360.91 321.83 174.81 528.86"/><polyline class="cls-1" points="216.09 128.86 402.18 321.83 216.08 528.86"/><polyline class="cls-1" points="257.36 128.86 443.45 321.83 257.35 528.86"/><polyline class="cls-7" points="35.68 241.33 113.31 321.83 35.68 408.19"/><polyline class="cls-5" points="35.68 198.53 154.58 321.83 35.68 454.1"/></g><g><path class="cls-8" d="M262.48,299.61v10.26h-12.37v33.06h-12.71v-33.06h-12.31v-10.26h37.4Z"/><path class="cls-8" d="M292.86,299.61h12.71v43.33h-12.71v-16.25h-13.34v16.25h-12.71v-43.33h12.71v15.56h13.34v-15.56Z"/><path class="cls-8" d="M325.12,332.67h19.55v10.26h-32.27v-43.33h31.75v10.26h-19.04v5.87h18.64v10.26h-18.64v6.67Z"/><path class="cls-8" d="M409.97,299.61v10.26h-12.37v33.06h-12.71v-33.06h-12.31v-10.26h37.4Z"/><path class="cls-8" d="M431.68,299.61c13.4,0,22.63,6.44,22.63,21.66s-9.24,21.66-22.63,21.66h-17.39v-43.33h17.39Zm.29,33.06c5.93,0,9.29-3.99,9.29-11.4s-3.36-11.4-9.29-11.4h-4.96v22.8h4.96Z"/></g></g></g></svg>