<?xml version="1.0" encoding="UTF-8"?><svg xmlns="http://www.w3.org/2000/svg" viewBox="0 0 1615.4 387.6"><defs><style>.c{fill:none;stroke:#57a67b;stroke-miterlimit:10;stroke-width:1.54px;}.d{fill:#fff;}.e{fill:#57a67b;}</style></defs><g id="a"/><g id="b"><path class="e" d="M246.58,193.8l-35.64-59.93h59.36l35.75,60.05-35.75,60.05h-59.36l35.64-60.16Zm-59.7-100l-59.48,100,59.48,100h119.07l59.48-100-59.48-100h-119.07Z"/><path class="d" d="M451.01,253.85v-83.31h-45.63v-36.66h144.49v36.66h-45.63v83.31h-53.23Zm372.19-119.98l-34.62,34.17-33.6-34.17h-55.62l57.21,57.32-57.32,62.66h55.85l34.17-38.82,34.05,38.82h56.75l-58.8-63.34,58.57-56.64h-56.64Zm-101.02,60.05c0,19.18-8.63,34.05-21.34,44.38-12.71,10.33-30.87,15.55-54.37,15.55h-86.49v-119.98h86.38c23.61,0,41.66,5.22,54.37,15.55,12.83,10.33,21.45,25.2,21.45,44.49h0Zm-49.72,0c0-7.49-3.41-14.53-9.31-19.18-5.33-4.43-13.05-6.7-22.81-6.7h-29.51v51.65h29.51c9.88,0,17.48-2.27,22.81-6.7,5.9-4.65,9.31-11.69,9.31-19.07h0Z"/><g><g><path class="e" d="M1056.56,132.69v5.53h-15.55v41.18h-6.21v-41.18h-15.55v-5.53h37.31Z"/><path class="e" d="M1089.33,158.87v20.53h-6.02v-19.61c0-6.7-3.07-9.59-7.87-9.59s-7.87,2.95-7.87,9.71v19.48h-6.02v-46.71h6.02v20.47c1.47-3.87,4.67-7.37,10.32-7.37,7.44,0,11.43,5.71,11.43,13.09Z"/><path class="e" d="M1126.88,164.7h-24.89c.49,7.13,4.12,10.94,9.59,10.94,4.79,0,7.31-2.21,8.54-5.9h6.15c-1.91,7.01-7.25,10.32-14.69,10.32-9.96,0-15.67-7.25-15.67-17.15s5.84-17.15,15.61-17.15c9.22,0,15.49,6.51,15.49,16.65,0,.61-.06,1.48-.12,2.27Zm-24.83-4.55h18.81c-.37-5.9-3.93-9.96-9.34-9.96s-8.73,3.38-9.46,9.96Z"/><path class="e" d="M1176.43,158.87v20.53h-6.02v-19.61c0-6.7-3.07-9.59-7.87-9.59s-7.87,2.95-7.87,9.71v19.48h-6.02v-32.94h6.02v6.7c1.47-3.87,4.67-7.37,10.32-7.37,7.44,0,11.43,5.71,11.43,13.09Z"/><path class="e" d="M1213.98,164.7h-24.89c.49,7.13,4.12,10.94,9.59,10.94,4.79,0,7.31-2.21,8.54-5.9h6.15c-1.91,7.01-7.25,10.32-14.69,10.32-9.96,0-15.67-7.25-15.67-17.15s5.84-17.15,15.61-17.15c9.22,0,15.49,6.51,15.49,16.65,0,.61-.06,1.48-.12,2.27Zm-24.83-4.55h18.81c-.37-5.9-3.93-9.96-9.34-9.96s-8.73,3.38-9.46,9.96Z"/><path class="e" d="M1263.71,146.45h5.84l-8.11,32.94h-11.49l-6.39-32.63-6.39,32.63h-11.49l-8.11-32.94h5.84l8.05,32.63,6.39-32.63h11.43l6.39,32.63,8.05-32.63Z"/><path class="e" d="M1316.64,158.87v20.53h-6.02v-19.61c0-6.7-3.07-9.59-7.87-9.59s-7.87,2.95-7.87,9.71v19.48h-6.02v-32.94h6.02v6.7c1.48-3.87,4.67-7.37,10.33-7.37,7.44,0,11.43,5.71,11.43,13.09Z"/><path class="e" d="M1351.86,158.19v21.2h-6.02v-6.76c-2.27,4.61-4.98,7.44-11.37,7.44s-11.06-4.49-11.06-10.57c0-7.68,7.68-9.16,13.58-9.77l8.85-.92v-.68c0-4.3-2.4-7.93-7.62-7.93-4.61,0-7.19,2.83-7.62,5.96h-6.15c.74-6.21,6.02-10.39,13.77-10.39,10.02,0,13.64,6.27,13.64,12.41Zm-6.02,7.19v-2.46l-6.58,.68c-4.55,.49-9.71,1.11-9.71,5.9,0,4.24,3.32,6.58,7.13,6.58,6.08,0,9.16-4.79,9.16-10.69Z"/><path class="e" d="M1408.04,158.87v20.53h-6.02v-19.61c0-6.64-2.58-9.59-7.37-9.59s-7.38,2.95-7.38,9.71v19.48h-6.02v-19.61c0-6.64-2.58-9.59-7.38-9.59s-7.37,2.95-7.37,9.71v19.48h-6.02v-32.94h6.02v6.7c1.47-3.93,4.42-7.37,9.83-7.37s9.16,3.99,10.33,8.23c1.35-3.99,4.55-8.23,10.45-8.23,7.19,0,10.94,5.47,10.94,13.09Z"/><path class="e" d="M1445.6,164.7h-24.89c.49,7.13,4.12,10.94,9.59,10.94,4.79,0,7.31-2.21,8.54-5.9h6.15c-1.91,7.01-7.25,10.32-14.69,10.32-9.96,0-15.67-7.25-15.67-17.15s5.84-17.15,15.61-17.15c9.22,0,15.49,6.51,15.49,16.65,0,.61-.06,1.48-.12,2.27Zm-24.83-4.55h18.81c-.37-5.9-3.93-9.96-9.34-9.96s-8.73,3.38-9.46,9.96Z"/><path class="e" d="M1036.77,211c-3.01,0-4.79,.98-4.79,4.61v4.61h8.48v4.55h-8.48v28.39h-6.02v-28.39h-6.82v-4.55h6.82v-4.61c0-6.33,4.42-9.16,10.2-9.16h4.3v4.55h-3.69Z"/><path class="e" d="M1042.31,236.69c0-10.2,6.27-17.15,16.04-17.15s15.98,6.94,15.98,17.15-6.21,17.15-15.98,17.15-16.04-6.94-16.04-17.15Zm25.87,0c0-7.75-3.56-12.72-9.83-12.72s-9.89,4.98-9.89,12.72,3.63,12.72,9.89,12.72,9.83-4.98,9.83-12.72Z"/><path class="e" d="M1087.24,227.28c1.48-4.61,4.73-7.74,10.82-7.74v5.96h-1.84c-6.02,0-8.97,1.91-8.97,7.81v19.85h-6.02v-32.94h6.02v7.07Z"/><path class="e" d="M1151.78,206.45v8.11h-14.5v38.6h-9.71v-38.6h-14.5v-8.11h38.72Z"/><path class="e" d="M1158.91,228.51c1.29-5.22,4.67-9.46,11.12-9.46v9.22h-2.4c-5.84,0-8.67,1.97-8.67,7.62v17.27h-9.4v-33.37h9.34v8.73Z"/><path class="e" d="M1204.09,232.14v21.02h-9.28v-6.27c-1.91,3.99-4.92,7.01-11.12,7.01s-11.62-4.42-11.62-10.88c0-7.62,7.25-9.53,13.83-10.14l8.79-.86v-.55c0-3.38-1.97-6.02-5.96-6.02-3.69,0-5.65,2.15-6.02,4.49h-9.46c.86-6.82,7.01-10.88,15.49-10.88,10.39,0,15.36,5.59,15.36,13.09Zm-9.4,6.82v-1.35l-5.35,.55c-3.81,.43-7.68,1.11-7.68,4.86,0,3.26,2.52,5.22,5.72,5.22,4.79,0,7.31-4.06,7.31-9.28Z"/><path class="e" d="M1242.08,232.01v21.14h-9.4v-19.11c0-5.78-2.21-8.42-6.15-8.42s-6.15,2.64-6.15,8.54v18.99h-9.4v-33.37h9.34v6.82c1.54-4.18,4.79-7.56,10.63-7.56,7.81,0,11.12,5.59,11.12,12.97Z"/><path class="e" d="M1246.94,243.08h9.46c.68,3.38,3.5,4.42,6.45,4.42,4.12,0,6.33-1.35,6.33-3.5,0-2.03-1.35-3.01-5.9-4.06l-5.9-1.29c-6.33-1.35-9.77-4.3-9.77-9.28,0-6.33,6.51-10.32,14.5-10.32,7.56,0,13.89,3.13,15.36,9.59h-9.46c-.74-2.09-3.13-3.2-5.84-3.2-3.01,0-5.59,1.11-5.59,3.2,0,1.9,1.91,2.64,5.35,3.38l5.9,1.29c7.01,1.54,10.33,4.55,10.33,9.96,0,6.82-6.76,10.63-15.67,10.63-8.24,0-14.38-3.5-15.55-10.82Z"/><path class="e" d="M1301.64,206.45c14.2,0,23.78,7.62,23.78,23.35s-9.59,23.35-23.78,23.35h-17.21v-46.71h17.21Zm.25,38.59c8.54,0,13.52-5.35,13.52-15.24s-4.98-15.24-13.52-15.24h-7.74v30.48h7.74Z"/><path class="e" d="M1331.15,215.3v-8.85h9.71v8.85h-9.71Zm.12,37.86v-33.37h9.4v33.37h-9.4Z"/><path class="e" d="M1379.82,239.27h-24.03c.68,5.59,3.56,8.23,7.44,8.23,3.63,0,5.41-1.54,6.58-4.24h9.46c-2.21,7.07-8.11,10.63-16.1,10.63-10.39,0-16.96-7.19-16.96-17.45s6.82-17.39,16.96-17.39,16.84,7.07,16.84,17.58c0,.8-.06,1.72-.18,2.64Zm-23.97-6.27h14.57c-.49-4.73-3.32-7.56-7.25-7.56s-6.51,2.34-7.31,7.56Z"/><path class="e" d="M1383.4,243.08h9.46c.68,3.38,3.5,4.42,6.45,4.42,4.12,0,6.33-1.35,6.33-3.5,0-2.03-1.35-3.01-5.9-4.06l-5.9-1.29c-6.33-1.35-9.77-4.3-9.77-9.28,0-6.33,6.51-10.32,14.5-10.32,7.56,0,13.89,3.13,15.36,9.59h-9.46c-.74-2.09-3.13-3.2-5.84-3.2-3.01,0-5.59,1.11-5.59,3.2,0,1.9,1.91,2.64,5.35,3.38l5.9,1.29c7.01,1.54,10.33,4.55,10.33,9.96,0,6.82-6.76,10.63-15.67,10.63-8.24,0-14.38-3.5-15.55-10.82Z"/><path class="e" d="M1451.8,239.27h-24.03c.68,5.59,3.56,8.23,7.44,8.23,3.63,0,5.41-1.54,6.58-4.24h9.46c-2.21,7.07-8.11,10.63-16.1,10.63-10.39,0-16.96-7.19-16.96-17.45s6.82-17.39,16.96-17.39,16.84,7.07,16.84,17.58c0,.8-.06,1.72-.18,2.64Zm-23.97-6.27h14.57c-.49-4.73-3.32-7.56-7.25-7.56s-6.51,2.34-7.31,7.56Z"/><path class="e" d="M1457.46,253.16v-46.71h9.4v46.71h-9.4Z"/><path class="e" d="M1474.25,253.16v-9.4h10.14v9.4h-10.14Z"/></g><line class="c" x1="953.85" y1="93.91" x2="953.85" y2="293.69"/></g></g></svg>