<?xml version="1.0" encoding="UTF-8"?><svg id="Layer_2" xmlns="http://www.w3.org/2000/svg" viewBox="0 0 171.04 236.2"><defs><style>.cls-1,.cls-2{fill:#fff;}.cls-2{stroke:#fff;stroke-miterlimit:10;stroke-width:.46px;}</style></defs><g id="Layer_1-2"><path class="cls-2" d="m54.96,139.98c-.37-.48-.84-.85-1.41-1.11-.57-.26-1.15-.39-1.76-.39-.74,0-1.41.14-2.01.42s-1.11.66-1.54,1.14c-.43.48-.76,1.05-.99,1.69-.24.65-.35,1.34-.35,2.08,0,.69.11,1.35.33,1.96.22.62.54,1.16.96,1.63.42.47.93.84,1.54,1.11.6.27,1.29.41,2.06.41s1.41-.15,1.98-.46c.57-.31,1.05-.74,1.44-1.3l1.5,1.13c-.1.14-.27.33-.52.58s-.57.51-.98.76-.9.47-1.47.67c-.57.19-1.24.29-1.99.29-1.04,0-1.97-.2-2.8-.59-.83-.4-1.54-.91-2.13-1.56-.59-.64-1.03-1.37-1.34-2.18-.31-.81-.46-1.63-.46-2.45,0-1.01.17-1.95.5-2.8.33-.86.8-1.6,1.4-2.22.6-.62,1.32-1.11,2.16-1.45.84-.35,1.77-.52,2.78-.52.86,0,1.71.17,2.55.5.83.33,1.52.85,2.05,1.54l-1.48,1.13Z"/><path class="cls-2" d="m66.68,137.15h1.61l5.61,13.11h-2.07l-1.31-3.24h-6.24l-1.3,3.24h-2.07l5.78-13.11Zm3.19,8.31l-2.45-6.02h-.04l-2.48,6.02h4.96Z"/><path class="cls-2" d="m79.31,137.15h4.61c.84,0,1.53.11,2.07.34.54.23.97.52,1.29.87s.53.75.66,1.19c.12.44.19.86.19,1.27s-.07.82-.22,1.21c-.15.39-.36.74-.64,1.06s-.62.58-1.02.8c-.4.22-.85.35-1.34.4l3.72,5.98h-2.22l-3.33-5.78h-1.98v5.78h-1.78v-13.11Zm1.78,5.78h2.33c.35,0,.69-.03,1.03-.08.34-.06.64-.16.91-.31.27-.15.48-.36.64-.64.16-.28.24-.64.24-1.08s-.08-.8-.24-1.08c-.16-.28-.37-.49-.64-.64-.26-.15-.57-.25-.91-.31-.34-.06-.68-.08-1.03-.08h-2.33v4.22Z"/><path class="cls-2" d="m94.33,137.15h4.56c.57,0,1.1.07,1.58.2.49.14.91.34,1.26.6.35.27.63.61.83,1.02s.31.9.31,1.45c0,.75-.21,1.37-.63,1.84-.42.48-.96.82-1.63,1.05v.04c.4.03.77.13,1.11.31s.64.41.9.7c.25.29.45.63.6,1.01s.22.8.22,1.24c0,.59-.12,1.11-.36,1.57-.24.45-.57.83-.99,1.14-.42.31-.91.54-1.46.7-.56.16-1.15.24-1.8.24h-4.5v-13.11Zm1.78,5.44h2.43c.33,0,.65-.03.94-.1.3-.07.56-.18.78-.34.22-.16.4-.37.53-.61.13-.25.19-.55.19-.91,0-.52-.17-.97-.5-1.35s-.86-.57-1.57-.57h-2.8v3.89Zm0,6.11h2.61c.27,0,.57-.03.9-.08.33-.06.63-.17.92-.33s.53-.39.72-.68.3-.66.3-1.13c0-.78-.25-1.36-.76-1.75s-1.19-.58-2.06-.58h-2.63v4.56Z"/><path class="cls-2" d="m115.72,150.59c-1,0-1.92-.18-2.76-.53-.84-.35-1.56-.84-2.16-1.45s-1.07-1.35-1.41-2.19c-.34-.84-.51-1.75-.51-2.72s.17-1.88.51-2.72c.34-.84.81-1.57,1.41-2.19.6-.62,1.32-1.1,2.16-1.45.84-.35,1.76-.53,2.76-.53s1.92.18,2.76.53c.84.35,1.56.84,2.16,1.45.6.62,1.07,1.35,1.41,2.19.34.84.51,1.75.51,2.72s-.17,1.88-.51,2.72c-.34.84-.81,1.57-1.41,2.19s-1.32,1.1-2.16,1.45c-.84.35-1.76.53-2.76.53Zm0-1.67c.75,0,1.43-.14,2.04-.42.6-.28,1.12-.65,1.56-1.12s.76-1.02,1-1.66c.23-.64.35-1.31.35-2.03s-.12-1.39-.35-2.03c-.24-.64-.57-1.19-1-1.66-.43-.47-.95-.84-1.56-1.12s-1.28-.42-2.04-.42-1.43.14-2.04.42-1.12.65-1.56,1.12c-.43.47-.77,1.02-1,1.66-.24.64-.35,1.31-.35,2.03s.12,1.39.35,2.03c.23.64.57,1.19,1,1.66.43.47.95.84,1.56,1.12.6.28,1.28.42,2.04.42Z"/><path class="cls-2" d="m128.81,137.15h2.33l7.22,10.78h.04v-10.78h1.78v13.11h-2.26l-7.3-10.78h-.04v10.78h-1.78v-13.11Z"/><path class="cls-2" d="m48.56,159.37h4.61c.84,0,1.53.11,2.07.34.54.23.97.52,1.29.87s.53.75.66,1.19c.12.44.19.86.19,1.27s-.07.82-.22,1.21c-.15.39-.36.74-.64,1.06s-.62.58-1.02.8c-.4.22-.85.35-1.34.4l3.72,5.98h-2.22l-3.33-5.78h-1.98v5.78h-1.78v-13.11Zm1.78,5.78h2.33c.35,0,.69-.03,1.03-.08.34-.06.64-.16.91-.31.27-.15.48-.36.64-.64.16-.28.24-.64.24-1.08s-.08-.8-.24-1.08c-.16-.28-.37-.49-.64-.64-.26-.15-.57-.25-.91-.31-.34-.06-.68-.08-1.03-.08h-2.33v4.22Z"/><path class="cls-2" d="m63.58,159.37h8.46v1.67h-6.68v3.91h6.22v1.67h-6.22v4.2h7.02v1.67h-8.8v-13.11Z"/><path class="cls-2" d="m78.3,159.37h4.57c.93,0,1.74.1,2.44.31.7.21,1.3.49,1.81.84.51.35.94.76,1.28,1.21.34.46.61.93.81,1.41.2.48.34.96.43,1.44.09.48.13.93.13,1.33,0,.84-.15,1.65-.46,2.43-.31.78-.77,1.48-1.37,2.09-.61.61-1.36,1.1-2.25,1.47s-1.93.56-3.1.56h-4.28v-13.11Zm1.78,11.44h2.24c.75,0,1.47-.1,2.14-.31.67-.2,1.26-.51,1.77-.92.51-.41.91-.92,1.2-1.53.3-.61.44-1.32.44-2.14,0-.42-.07-.91-.2-1.47-.14-.56-.39-1.1-.77-1.6-.38-.51-.9-.93-1.57-1.29-.67-.35-1.53-.53-2.59-.53h-2.67v9.78Z"/><path class="cls-2" d="m97.56,159.37v8.04c0,.41.06.83.17,1.27s.3.84.56,1.21c.26.37.6.67,1.02.91.42.24.94.35,1.56.35s1.14-.12,1.56-.35.76-.54,1.02-.91c.26-.37.44-.77.56-1.21s.17-.86.17-1.27v-8.04h1.78v8.31c0,.77-.13,1.46-.39,2.08-.26.62-.62,1.16-1.07,1.62-.46.46-.99.81-1.61,1.06-.62.25-1.28.37-2,.37s-1.38-.12-2-.37c-.62-.25-1.15-.6-1.61-1.06s-.81-1-1.07-1.62c-.26-.62-.39-1.32-.39-2.08v-8.31h1.78Z"/><path class="cls-2" d="m121.89,162.2c-.37-.48-.84-.85-1.41-1.11-.57-.26-1.15-.39-1.76-.39-.74,0-1.41.14-2.01.42s-1.11.66-1.54,1.14c-.43.48-.76,1.05-.99,1.69-.24.65-.35,1.34-.35,2.08,0,.69.11,1.35.33,1.96.22.62.54,1.16.96,1.63.42.47.93.84,1.54,1.11.6.27,1.29.41,2.06.41s1.41-.15,1.98-.46c.57-.31,1.05-.74,1.44-1.3l1.5,1.13c-.1.14-.27.33-.52.58s-.57.51-.98.76-.9.47-1.47.67c-.57.19-1.24.29-1.99.29-1.04,0-1.97-.2-2.8-.59-.83-.4-1.54-.91-2.13-1.56-.59-.64-1.03-1.37-1.34-2.18-.31-.81-.46-1.63-.46-2.45,0-1.01.17-1.95.5-2.8.33-.86.8-1.6,1.4-2.22.6-.62,1.32-1.11,2.16-1.45.84-.35,1.77-.52,2.78-.52.86,0,1.71.17,2.55.5.83.33,1.52.85,2.05,1.54l-1.48,1.13Z"/><path class="cls-2" d="m129.5,159.37h8.46v1.67h-6.68v3.91h6.22v1.67h-6.22v4.2h7.02v1.67h-8.8v-13.11Z"/><path class="cls-1" d="m8.6,170.91c-1.2-7.25-2.32-13.78-1.94-20.4,1.66-28.93,14.66-51.35,39.29-66.77,11.09-6.94,23.29-10.54,36.48-10.22,6.25.15,12.21,1.51,17.52,5,4.48,2.94,7.77,6.76,8.83,12.16,1.12,5.76-2.06,10.23-8.05,11.45-.16-.28-.48-.58-.46-.85.63-9.64-8.6-15.09-16.63-15.8-12.51-1.12-23.75,2.52-33.93,9.44-19.78,13.44-29.97,32.37-31.44,56.12-.19,2.98-.37,5.98-.96,8.89-.93,4.61-3.55,8.12-8.71,10.99Z"/><path class="cls-1" d="m114.23,76.53c2.29.8,4.14,1.35,5.92,2.09,27.26,11.44,43.66,31.81,49.42,60.61,3.11,15.57,1.29,30.77-5.62,45.17-3.37,7.01-8.09,12.91-15.06,16.81-4.28,2.39-8.79,3.03-13.5,2.27-6.73-1.08-10.21-6.95-7.94-13.08.31-.04.67-.22.91-.11,8.26,3.7,14.53,2.41,20.45-4.38,5.99-6.87,9.24-15.08,10.04-23.98,2.68-29.62-9.1-52.28-33.97-68.3-5.04-3.25-9.44-6.86-10.63-13.11-.2-1.06-.03-2.2-.03-4Z"/><path class="cls-1" d="m142.55,214.75c-.9.96-1.66,1.99-2.62,2.77-15.58,12.62-33.39,19.46-53.46,18.61-24.63-1.04-45.53-10.32-60.67-30.53-3.94-5.26-6.59-11.12-7.87-17.59-1.11-5.61-.38-10.95,2.48-15.89,3.27-5.65,9.35-7.94,14.35-5.48,1.24.61,2.24,1.69,3.84,2.93-4.4,2.13-7.02,4.94-8.3,8.94-1.58,4.93-.44,9.56,1.52,14.04,3.93,8.97,10.41,15.81,18.65,20.89,23.41,14.42,47.38,14.59,71.75,2.46,2.52-1.25,5.08-2.52,7.76-3.32,4.55-1.36,8.33-.59,12.57,2.19Z"/><path class="cls-1" d="m55.39,8.56c12.18,0,21.9,9.6,21.99,21.73.09,12.31-9.76,22.13-22.15,22.09-12.06-.05-21.76-9.86-21.74-22,.02-12.1,9.76-21.8,21.9-21.81Zm.1,6.19c-8.79-.03-16.01,7.01-16.03,15.63-.03,8.42,7.36,15.85,15.89,16,8.53.15,15.79-7.12,15.83-15.84.03-8.86-6.83-15.77-15.69-15.79Z"/><path class="cls-1" d="m136.77,10.13c4.09.62,5.1,1.62,5.2,5.69.12,5.15.02,10.31.04,15.46,0,1.66-.04,3.34.16,4.98.52,4.44,4.24,8.44,8.53,9.34,4.8,1.01,9.65-.99,11.77-5.42,1.11-2.31,1.68-5.05,1.8-7.62.27-5.64.01-11.3.12-16.95.07-3.72.94-4.6,5.04-5.58.21.54.62,1.11.63,1.68.03,7.98.28,15.97-.07,23.93-.51,11.49-11.52,18.91-22.34,15.11-6.9-2.42-11.03-7.63-11.41-14.92-.43-8.12-.09-16.28-.04-24.42,0-.43.38-.86.57-1.27Z"/><path class="cls-1" d="m18.76,50.51c-4.78.09-5.48-.42-5.53-4.56-.09-7.97-.03-15.95-.04-23.93,0-1.8,0-3.61,0-6.06-3.07-.2-5.81-.31-8.53-.59-3.57-.37-3.98-.88-4.67-5.3h31.72c.18,3.99-.4,4.87-3.93,5.27-2.61.29-5.25.28-8.42.43-.14,2.02-.37,3.78-.38,5.53-.04,8.14,0,16.28-.03,24.43,0,1.6-.14,3.21-.21,4.78Z"/><path class="cls-1" d="m97.29,10.06h31.95c-.58,4.38-1.02,4.96-4.55,5.31-2.6.26-5.23.27-8.39.42v34.4c-4.61.67-5.74-.03-5.92-3.84-.2-4.31-.07-8.63-.07-12.95,0-4.15.02-8.3,0-12.45-.03-5.29-.08-5.32-5.18-5.45-1.33-.03-2.67-.03-3.98-.2-2.69-.35-4.25-1.73-3.86-5.25Z"/><path class="cls-1" d="m85.56,10.17c2.9-.78,4.24.67,5.07,2.92.17.46.28.97.28,1.45.01,11.88.01,23.77.01,35.7-2.9,1.22-4.46.12-5.39-2.13-.36-.88-.44-1.93-.44-2.91-.03-10.92-.02-21.84.01-32.76,0-.78.31-1.55.46-2.27Z"/><path class="cls-1" d="m166.99.11c-.45,3.75-1.93,5.57-4.84,5.63-5.98.13-11.98.11-17.96,0-2.67-.05-4.31-1.51-4.58-5,4.38-1.33,8.97-.43,13.43-.6,4.46-.17,8.92-.04,13.95-.04Z"/></g></svg>