<?xml version="1.0" encoding="UTF-8"?><svg id="Layer_2" xmlns="http://www.w3.org/2000/svg" viewBox="0 0 457.35 563.28"><defs><style>.cls-1,.cls-2,.cls-3,.cls-4,.cls-5{fill:#fff;}.cls-2{stroke-width:.46px;}.cls-2,.cls-3,.cls-4,.cls-5{stroke:#fff;stroke-miterlimit:10;}.cls-3{stroke-width:.48px;}.cls-4{stroke-width:.49px;}.cls-5{stroke-width:.42px;}</style></defs><g id="Layer_1-2"><path class="cls-5" d="m57.67,468.3c-.34-.44-.77-.78-1.29-1.02-.52-.24-1.06-.36-1.61-.36-.68,0-1.29.13-1.84.38s-1.02.6-1.41,1.04c-.39.44-.69.96-.91,1.55-.22.6-.32,1.23-.32,1.91,0,.63.1,1.23.31,1.8.2.57.5,1.06.88,1.49.38.43.85.77,1.41,1.02.55.25,1.18.37,1.88.37s1.3-.14,1.82-.42c.52-.28.96-.68,1.32-1.19l1.38,1.03c-.09.13-.25.3-.48.54s-.53.46-.9.7-.82.44-1.35.61c-.53.18-1.13.26-1.83.26-.95,0-1.81-.18-2.57-.54-.76-.36-1.41-.84-1.95-1.43-.54-.59-.95-1.25-1.23-1.99-.28-.74-.42-1.49-.42-2.25,0-.93.15-1.78.46-2.57.31-.79.73-1.47,1.28-2.04.55-.57,1.21-1.02,1.98-1.33.77-.32,1.62-.47,2.55-.47.79,0,1.57.15,2.33.46.76.31,1.39.78,1.88,1.41l-1.36,1.04Z"/><path class="cls-5" d="m64.64,465.71h1.63v10.49h5.52v1.53h-7.15v-12.02Z"/><path class="cls-5" d="m76.85,465.71h1.63v12.02h-1.63v-12.02Z"/><path class="cls-5" d="m84.84,465.71h2.43l3.82,9.1h.07l3.79-9.1h2.43v12.02h-1.63v-9.88h-.03l-4.06,9.88h-1.09l-4.06-9.88h-.03v9.88h-1.63v-12.02Z"/><path class="cls-5" d="m107.51,465.71h1.48l5.14,12.02h-1.9l-1.21-2.97h-5.72l-1.19,2.97h-1.9l5.3-12.02Zm2.92,7.62l-2.24-5.52h-.03l-2.27,5.52h4.55Z"/><path class="cls-5" d="m120.03,467.24h-3.87v-1.53h9.37v1.53h-3.87v10.49h-1.63v-10.49Z"/><path class="cls-5" d="m130.66,465.71h7.76v1.53h-6.13v3.58h5.7v1.53h-5.7v3.85h6.43v1.53h-8.06v-12.02Z"/><path class="cls-5" d="m46.34,486.08h4.23c.77,0,1.4.1,1.9.31.5.21.89.48,1.18.8s.49.69.6,1.09c.11.4.17.79.17,1.16s-.06.76-.17,1.16c-.11.4-.31.76-.6,1.09-.29.32-.68.59-1.18.8s-1.13.31-1.9.31h-2.6v5.3h-1.63v-12.02Zm1.63,5.3h2.14c.32,0,.63-.03.94-.08.31-.05.59-.15.83-.28.24-.14.44-.33.59-.59.15-.25.22-.59.22-.99s-.07-.74-.22-.99c-.15-.25-.34-.45-.59-.59-.24-.14-.52-.23-.83-.28-.31-.05-.63-.08-.94-.08h-2.14v3.87Z"/><path class="cls-5" d="m65.32,498.4c-.92,0-1.76-.16-2.53-.48-.77-.32-1.43-.77-1.98-1.33s-.98-1.23-1.29-2c-.31-.77-.47-1.6-.47-2.49s.15-1.73.47-2.5c.31-.77.74-1.44,1.29-2,.55-.57,1.21-1.01,1.98-1.33.77-.32,1.61-.48,2.53-.48s1.76.16,2.53.48c.77.32,1.43.77,1.98,1.33.55.57.98,1.23,1.29,2,.31.77.47,1.6.47,2.5s-.16,1.73-.47,2.49c-.31.77-.74,1.44-1.29,2s-1.21,1.01-1.98,1.33c-.77.32-1.61.48-2.53.48Zm0-1.53c.69,0,1.31-.13,1.87-.38.55-.25,1.03-.6,1.43-1.03s.7-.94.92-1.52c.21-.58.32-1.2.32-1.86s-.11-1.28-.32-1.86c-.22-.58-.52-1.09-.92-1.52-.4-.43-.87-.77-1.43-1.03s-1.18-.38-1.87-.38-1.31.13-1.87.38-1.03.6-1.43,1.03c-.4.43-.7.94-.92,1.52-.22.58-.32,1.2-.32,1.86s.11,1.28.32,1.86c.21.58.52,1.09.92,1.52.4.43.87.77,1.43,1.03.55.26,1.18.38,1.87.38Z"/><path class="cls-5" d="m77.68,495.58c.29.44.67.77,1.13.98.46.21.93.31,1.42.31.27,0,.55-.04.83-.13.28-.09.54-.21.77-.38.23-.17.42-.38.57-.63s.22-.54.22-.87c0-.46-.15-.82-.44-1.06-.29-.24-.66-.45-1.09-.61-.44-.16-.91-.32-1.43-.47-.52-.15-.99-.36-1.43-.64-.44-.27-.8-.64-1.09-1.1-.29-.46-.44-1.08-.44-1.86,0-.35.08-.72.23-1.12.15-.4.39-.76.72-1.09s.75-.6,1.26-.82c.51-.22,1.13-.33,1.86-.33.66,0,1.28.09,1.88.27.6.18,1.13.55,1.58,1.1l-1.32,1.21c-.2-.32-.49-.57-.87-.76-.37-.19-.8-.29-1.27-.29s-.83.06-1.13.18c-.3.12-.54.27-.72.46-.18.19-.31.39-.38.6-.07.21-.11.41-.11.59,0,.51.15.9.44,1.17.29.27.66.49,1.09.66.44.17.91.32,1.43.46.51.14.99.33,1.43.57.44.24.8.57,1.09.98s.44.98.44,1.71c0,.58-.11,1.1-.33,1.56-.22.46-.52.85-.89,1.17-.37.32-.81.56-1.32.73-.51.17-1.05.25-1.63.25-.77,0-1.5-.14-2.19-.41-.69-.27-1.24-.69-1.65-1.26l1.34-1.15Z"/><path class="cls-5" d="m90.16,486.08h1.63v12.02h-1.63v-12.02Z"/><path class="cls-5" d="m100.78,487.61h-3.87v-1.53h9.37v1.53h-3.87v10.49h-1.63v-10.49Z"/><path class="cls-5" d="m111.41,486.08h1.63v12.02h-1.63v-12.02Z"/><path class="cls-5" d="m117.88,486.08h1.88l3.53,9.78h.03l3.67-9.78h1.78l-4.74,12.02h-1.53l-4.63-12.02Z"/><path class="cls-5" d="m133.61,486.08h7.76v1.53h-6.13v3.58h5.7v1.53h-5.7v3.85h6.43v1.53h-8.06v-12.02Z"/><path class="cls-1" d="m9.46,497.99c-1.2-7.25-2.32-13.78-1.94-20.4,1.66-28.93,14.66-51.35,39.29-66.77,11.09-6.94,23.29-10.54,36.48-10.22,6.25.15,12.21,1.51,17.52,5,4.48,2.94,7.77,6.76,8.83,12.16,1.12,5.76-2.06,10.23-8.05,11.45-.16-.28-.48-.58-.46-.85.63-9.64-8.6-15.09-16.63-15.8-12.51-1.12-23.75,2.52-33.93,9.44-19.78,13.44-29.97,32.37-31.44,56.12-.19,2.98-.37,5.98-.96,8.89-.93,4.61-3.55,8.12-8.71,10.99Z"/><path class="cls-1" d="m115.09,403.61c2.29.8,4.14,1.35,5.92,2.09,27.26,11.44,43.66,31.81,49.42,60.61,3.11,15.57,1.29,30.77-5.62,45.17-3.37,7.01-8.09,12.91-15.06,16.81-4.28,2.39-8.79,3.03-13.5,2.27-6.73-1.08-10.21-6.95-7.94-13.08.31-.04.67-.22.91-.11,8.26,3.7,14.53,2.41,20.45-4.38,5.99-6.87,9.24-15.08,10.04-23.98,2.68-29.62-9.1-52.28-33.97-68.3-5.04-3.25-9.44-6.86-10.63-13.11-.2-1.06-.03-2.2-.03-4Z"/><path class="cls-1" d="m143.4,541.84c-.9.96-1.66,1.99-2.62,2.77-15.58,12.62-33.39,19.46-53.46,18.61-24.63-1.04-45.53-10.32-60.67-30.53-3.94-5.26-6.59-11.12-7.87-17.59-1.11-5.61-.38-10.95,2.48-15.89,3.27-5.65,9.35-7.94,14.35-5.48,1.24.61,2.24,1.69,3.84,2.93-4.4,2.13-7.02,4.94-8.3,8.94-1.58,4.93-.44,9.56,1.52,14.04,3.93,8.97,10.41,15.81,18.65,20.89,23.41,14.42,47.38,14.59,71.75,2.46,2.52-1.25,5.08-2.52,7.76-3.32,4.55-1.36,8.33-.59,12.57,2.19Z"/><path class="cls-1" d="m55.39,335.65c12.18,0,21.9,9.6,21.99,21.73.09,12.31-9.76,22.13-22.15,22.09-12.06-.05-21.76-9.86-21.74-22,.02-12.1,9.76-21.8,21.9-21.81Zm.1,6.19c-8.79-.03-16.01,7.01-16.03,15.63-.03,8.42,7.36,15.85,15.89,16,8.53.15,15.79-7.12,15.83-15.84.03-8.86-6.83-15.77-15.69-15.79Z"/><path class="cls-1" d="m136.77,337.22c4.09.62,5.1,1.62,5.2,5.69.12,5.15.02,10.31.04,15.46,0,1.66-.04,3.34.16,4.98.52,4.44,4.24,8.44,8.53,9.34,4.8,1.01,9.65-.99,11.77-5.42,1.11-2.31,1.68-5.05,1.8-7.62.27-5.64.01-11.3.12-16.95.07-3.72.94-4.6,5.04-5.58.21.54.62,1.11.63,1.68.03,7.98.28,15.97-.07,23.93-.51,11.49-11.52,18.91-22.34,15.11-6.9-2.42-11.03-7.63-11.41-14.92-.43-8.12-.09-16.28-.04-24.42,0-.43.38-.86.57-1.27Z"/><path class="cls-1" d="m18.76,377.6c-4.78.09-5.48-.42-5.53-4.56-.09-7.97-.03-15.95-.04-23.93,0-1.8,0-3.61,0-6.06-3.07-.2-5.81-.31-8.53-.59-3.57-.37-3.98-.88-4.67-5.3h31.72c.18,3.99-.4,4.87-3.93,5.27-2.61.29-5.25.28-8.42.43-.14,2.02-.37,3.78-.38,5.53-.04,8.14,0,16.28-.03,24.43,0,1.6-.14,3.21-.21,4.78Z"/><path class="cls-1" d="m97.29,337.15h31.95c-.58,4.38-1.02,4.96-4.55,5.31-2.6.26-5.23.27-8.39.42v34.4c-4.61.67-5.74-.03-5.92-3.84-.2-4.31-.07-8.63-.07-12.95,0-4.15.02-8.3,0-12.45-.03-5.29-.08-5.32-5.18-5.45-1.33-.03-2.67-.03-3.98-.2-2.69-.35-4.25-1.73-3.86-5.25Z"/><path class="cls-1" d="m85.56,337.25c2.9-.78,4.24.67,5.07,2.92.17.46.28.97.28,1.45.01,11.88.01,23.77.01,35.7-2.9,1.22-4.46.12-5.39-2.13-.36-.88-.44-1.93-.44-2.91-.03-10.92-.02-21.84.01-32.76,0-.78.31-1.55.46-2.27Z"/><path class="cls-1" d="m166.99,327.19c-.45,3.75-1.93,5.57-4.84,5.63-5.98.13-11.98.11-17.96,0-2.67-.05-4.31-1.51-4.58-5,4.38-1.33,8.97-.43,13.43-.6,4.46-.17,8.92-.04,13.95-.04Z"/><path class="cls-3" d="m356.47,124.82h2.42l7.49,11.17h.04v-11.17h1.84v13.59h-2.34l-7.56-11.17h-.04v11.17h-1.84v-13.59Z"/><path class="cls-3" d="m375.59,124.82h8.77v1.73h-6.93v4.05h6.45v1.73h-6.45v4.36h7.27v1.73h-9.12v-13.59Z"/><path class="cls-3" d="m394,126.54h-4.38v-1.73h10.6v1.73h-4.38v11.86h-1.84v-11.86Z"/><path class="cls-3" d="m338.14,150.78c-.38-.5-.87-.88-1.46-1.15-.59-.27-1.2-.4-1.82-.4-.77,0-1.46.14-2.08.43s-1.15.68-1.59,1.18c-.44.5-.78,1.09-1.03,1.76-.24.67-.36,1.39-.36,2.16,0,.72.11,1.4.34,2.04.23.64.56,1.2,1,1.69.43.49.97.87,1.59,1.15.63.28,1.34.42,2.13.42s1.46-.16,2.05-.48c.59-.32,1.09-.77,1.5-1.34l1.55,1.17c-.1.14-.28.34-.54.61s-.59.52-1.02.79-.93.49-1.53.69c-.6.2-1.28.3-2.06.3-1.07,0-2.04-.2-2.91-.61-.86-.41-1.6-.95-2.21-1.61-.61-.67-1.07-1.42-1.39-2.25-.32-.84-.48-1.69-.48-2.54,0-1.05.17-2.02.52-2.91.34-.89.83-1.66,1.45-2.3.62-.65,1.37-1.15,2.24-1.51.87-.36,1.83-.54,2.88-.54.9,0,1.78.17,2.64.52.86.34,1.57.88,2.12,1.59l-1.54,1.17Z"/><path class="cls-3" d="m350.29,147.85h1.67l5.82,13.59h-2.15l-1.36-3.36h-6.47l-1.34,3.36h-2.15l5.99-13.59Zm3.3,8.62l-2.53-6.24h-.04l-2.57,6.24h5.14Z"/><path class="cls-3" d="m363.38,147.85h4.78c.87,0,1.59.12,2.15.35.56.24,1.01.54,1.33.9s.55.78.68,1.23c.13.45.19.89.19,1.31s-.08.85-.23,1.26c-.15.4-.37.77-.66,1.09s-.64.6-1.06.82c-.42.22-.88.36-1.39.41l3.86,6.2h-2.3l-3.46-5.99h-2.05v5.99h-1.84v-13.59Zm1.84,5.99h2.42c.36,0,.71-.03,1.07-.09.35-.06.67-.16.94-.32.28-.15.5-.37.66-.66.17-.29.25-.66.25-1.12s-.08-.83-.25-1.12c-.17-.29-.39-.51-.66-.66-.27-.15-.59-.26-.94-.32-.35-.06-.71-.09-1.07-.09h-2.42v4.38Z"/><path class="cls-3" d="m378.95,147.85h4.72c.59,0,1.13.07,1.64.21.51.14.94.35,1.3.62.37.28.65.63.86,1.06s.32.93.32,1.51c0,.78-.22,1.42-.65,1.91-.44.49-1,.85-1.69,1.09v.04c.41.03.79.13,1.15.32s.67.43.93.73c.26.3.47.65.62,1.05s.23.83.23,1.29c0,.61-.12,1.16-.37,1.62-.25.47-.59.86-1.03,1.18-.44.32-.94.56-1.52.73-.58.17-1.2.25-1.86.25h-4.66v-13.59Zm1.84,5.64h2.51c.34,0,.67-.03.98-.11.31-.07.58-.19.81-.35.23-.17.41-.38.55-.63.13-.26.2-.57.2-.94,0-.54-.17-1-.52-1.4s-.89-.6-1.63-.6h-2.9v4.03Zm0,6.33h2.71c.28,0,.59-.03.93-.09.34-.06.66-.17.95-.35s.54-.41.75-.7.31-.69.31-1.17c0-.81-.26-1.41-.79-1.81s-1.24-.6-2.13-.6h-2.73v4.72Z"/><path class="cls-3" d="m401.12,161.78c-1.04,0-1.99-.18-2.86-.55-.87-.36-1.62-.87-2.24-1.51s-1.11-1.39-1.46-2.27c-.35-.87-.53-1.81-.53-2.82s.18-1.95.53-2.82c.35-.87.84-1.62,1.46-2.27.62-.64,1.37-1.14,2.24-1.51.87-.36,1.82-.55,2.86-.55s1.99.18,2.86.55c.87.37,1.62.87,2.24,1.51.62.64,1.11,1.39,1.46,2.27.35.87.53,1.81.53,2.82s-.18,1.95-.53,2.82c-.35.87-.84,1.63-1.46,2.27s-1.37,1.14-2.24,1.51c-.87.37-1.82.55-2.86.55Zm0-1.73c.78,0,1.48-.14,2.11-.43.63-.29,1.16-.67,1.61-1.16s.79-1.06,1.04-1.72c.24-.66.36-1.36.36-2.1s-.12-1.44-.36-2.1c-.24-.66-.59-1.23-1.04-1.72-.45-.49-.99-.87-1.61-1.16s-1.33-.43-2.11-.43-1.48.14-2.11.43-1.16.68-1.61,1.16c-.45.49-.79,1.06-1.04,1.72-.24.66-.36,1.36-.36,2.1s.12,1.44.36,2.1c.24.66.59,1.23,1.04,1.72.45.49.99.87,1.61,1.16.63.29,1.33.43,2.11.43Z"/><path class="cls-3" d="m414.69,147.85h2.42l7.49,11.17h.04v-11.17h1.84v13.59h-2.34l-7.56-11.17h-.04v11.17h-1.84v-13.59Z"/><path class="cls-3" d="m347.03,182.74l7.74-10.13h-7.51v-1.73h9.81v1.73l-7.7,10.13h7.81v1.73h-10.15v-1.73Z"/><path class="cls-3" d="m363.38,170.88h8.77v1.73h-6.93v4.05h6.45v1.73h-6.45v4.36h7.27v1.73h-9.12v-13.59Z"/><path class="cls-3" d="m378.95,170.88h4.78c.87,0,1.59.12,2.15.35.56.24,1.01.54,1.33.9s.55.78.68,1.23c.13.45.19.89.19,1.31s-.08.85-.23,1.26c-.15.4-.37.77-.66,1.09s-.64.6-1.06.82c-.42.22-.88.36-1.39.41l3.86,6.2h-2.3l-3.46-5.99h-2.05v5.99h-1.84v-13.59Zm1.84,5.99h2.42c.36,0,.71-.03,1.07-.09.35-.06.67-.16.94-.32.28-.15.5-.37.66-.66.17-.29.25-.66.25-1.12s-.08-.83-.25-1.12c-.17-.29-.39-.51-.66-.66-.27-.15-.59-.26-.94-.32-.35-.06-.71-.09-1.07-.09h-2.42v4.38Z"/><path class="cls-3" d="m400.75,184.82c-1.04,0-1.99-.18-2.86-.55-.87-.36-1.62-.87-2.24-1.51s-1.11-1.39-1.46-2.27c-.35-.87-.53-1.81-.53-2.82s.18-1.95.53-2.82c.35-.87.84-1.62,1.46-2.27.62-.64,1.37-1.14,2.24-1.51.87-.36,1.82-.55,2.86-.55s1.99.18,2.86.55c.87.37,1.62.87,2.24,1.51.62.64,1.11,1.39,1.46,2.27.35.87.53,1.81.53,2.82s-.18,1.95-.53,2.82c-.35.87-.84,1.63-1.46,2.27s-1.37,1.14-2.24,1.51c-.87.37-1.82.55-2.86.55Zm0-1.73c.78,0,1.48-.14,2.11-.43.63-.29,1.16-.67,1.61-1.16s.79-1.06,1.04-1.72c.24-.66.36-1.36.36-2.1s-.12-1.44-.36-2.1c-.24-.66-.59-1.23-1.04-1.72-.45-.49-.99-.87-1.61-1.16s-1.33-.43-2.11-.43-1.48.14-2.11.43-1.16.68-1.61,1.16c-.45.49-.79,1.06-1.04,1.72-.24.66-.36,1.36-.36,2.1s.12,1.44.36,2.1c.24.66.59,1.23,1.04,1.72.45.49.99.87,1.61,1.16.63.29,1.33.43,2.11.43Z"/><path class="cls-1" d="m294.06,170.91c-1.2-7.25-2.32-13.78-1.94-20.4,1.66-28.93,14.66-51.35,39.29-66.77,11.09-6.94,23.29-10.54,36.48-10.22,6.25.15,12.21,1.51,17.52,5,4.48,2.94,7.77,6.76,8.83,12.16,1.12,5.76-2.06,10.23-8.05,11.45-.16-.28-.48-.58-.46-.85.63-9.64-8.6-15.09-16.63-15.8-12.51-1.12-23.75,2.52-33.93,9.44-19.78,13.44-29.97,32.37-31.44,56.12-.19,2.98-.37,5.98-.96,8.89-.93,4.61-3.55,8.12-8.71,10.99Z"/><path class="cls-1" d="m399.69,76.53c2.29.8,4.14,1.35,5.92,2.09,27.26,11.44,43.66,31.81,49.42,60.61,3.11,15.57,1.29,30.77-5.62,45.17-3.37,7.01-8.09,12.91-15.06,16.81-4.28,2.39-8.79,3.03-13.5,2.27-6.73-1.08-10.21-6.95-7.94-13.08.31-.04.67-.22.91-.11,8.26,3.7,14.53,2.41,20.45-4.38,5.99-6.87,9.24-15.08,10.04-23.98,2.68-29.62-9.1-52.28-33.97-68.3-5.04-3.25-9.44-6.86-10.63-13.11-.2-1.06-.03-2.2-.03-4Z"/><path class="cls-1" d="m428.01,214.75c-.9.96-1.66,1.99-2.62,2.77-15.58,12.62-33.39,19.46-53.46,18.61-24.63-1.04-45.53-10.32-60.67-30.53-3.94-5.26-6.59-11.12-7.87-17.59-1.11-5.61-.38-10.95,2.48-15.89,3.27-5.65,9.35-7.94,14.35-5.48,1.24.61,2.24,1.69,3.84,2.93-4.4,2.13-7.02,4.94-8.3,8.94-1.58,4.93-.44,9.56,1.52,14.04,3.93,8.97,10.41,15.81,18.65,20.89,23.41,14.42,47.38,14.59,71.75,2.46,2.52-1.25,5.08-2.52,7.76-3.32,4.55-1.36,8.33-.59,12.57,2.19Z"/><path class="cls-1" d="m340.42,8.56c12.18,0,21.9,9.6,21.99,21.73.09,12.31-9.76,22.13-22.15,22.09-12.06-.05-21.76-9.86-21.74-22,.02-12.1,9.76-21.8,21.9-21.81Zm.1,6.19c-8.79-.03-16.01,7.01-16.03,15.63-.03,8.42,7.36,15.85,15.89,16,8.53.15,15.79-7.12,15.83-15.84.03-8.86-6.83-15.77-15.69-15.79Z"/><path class="cls-1" d="m421.8,10.13c4.09.62,5.1,1.62,5.2,5.69.12,5.15.02,10.31.04,15.46,0,1.66-.04,3.34.16,4.98.52,4.44,4.24,8.44,8.53,9.34,4.8,1.01,9.65-.99,11.77-5.42,1.11-2.31,1.68-5.05,1.8-7.62.27-5.64.01-11.3.12-16.95.07-3.72.94-4.6,5.04-5.58.21.54.62,1.11.63,1.68.03,7.98.28,15.97-.07,23.93-.51,11.49-11.52,18.91-22.34,15.11-6.9-2.42-11.03-7.63-11.41-14.92-.43-8.12-.09-16.28-.04-24.42,0-.43.38-.86.57-1.27Z"/><path class="cls-1" d="m303.8,50.51c-4.78.09-5.48-.42-5.53-4.56-.09-7.97-.03-15.95-.04-23.93,0-1.8,0-3.61,0-6.06-3.07-.2-5.81-.31-8.53-.59-3.57-.37-3.98-.88-4.67-5.3h31.72c.18,3.99-.4,4.87-3.93,5.27-2.61.29-5.25.28-8.42.43-.14,2.02-.37,3.78-.38,5.53-.04,8.14,0,16.28-.03,24.43,0,1.6-.14,3.21-.21,4.78Z"/><path class="cls-1" d="m382.32,10.06h31.95c-.58,4.38-1.02,4.96-4.55,5.31-2.6.26-5.23.27-8.39.42v34.4c-4.61.67-5.74-.03-5.92-3.84-.2-4.31-.07-8.63-.07-12.95,0-4.15.02-8.3,0-12.45-.03-5.29-.08-5.32-5.18-5.45-1.33-.03-2.67-.03-3.98-.2-2.69-.35-4.25-1.73-3.86-5.25Z"/><path class="cls-1" d="m370.59,10.17c2.9-.78,4.24.67,5.07,2.92.17.46.28.97.28,1.45.01,11.88.01,23.77.01,35.7-2.9,1.22-4.46.12-5.39-2.13-.36-.88-.44-1.93-.44-2.91-.03-10.92-.02-21.84.01-32.76,0-.78.31-1.55.46-2.27Z"/><path class="cls-1" d="m452.02.11c-.45,3.75-1.93,5.57-4.84,5.63-5.98.13-11.98.11-17.96,0-2.67-.05-4.31-1.51-4.58-5,4.38-1.33,8.97-.43,13.43-.6,4.46-.17,8.92-.04,13.95-.04Z"/><path class="cls-2" d="m54.96,139.98c-.37-.48-.84-.85-1.41-1.11-.57-.26-1.15-.39-1.76-.39-.74,0-1.41.14-2.01.42s-1.11.66-1.54,1.14c-.43.48-.76,1.05-.99,1.69-.24.65-.35,1.34-.35,2.08,0,.69.11,1.35.33,1.96.22.62.54,1.16.96,1.63.42.47.93.84,1.54,1.11.6.27,1.29.41,2.06.41s1.41-.15,1.98-.46c.57-.31,1.05-.74,1.44-1.3l1.5,1.13c-.1.14-.27.33-.52.58s-.57.51-.98.76-.9.47-1.47.67c-.57.19-1.24.29-1.99.29-1.04,0-1.97-.2-2.8-.59-.83-.4-1.54-.91-2.13-1.56-.59-.64-1.03-1.37-1.34-2.18-.31-.81-.46-1.63-.46-2.45,0-1.01.17-1.95.5-2.8.33-.86.8-1.6,1.4-2.22.6-.62,1.32-1.11,2.16-1.45.84-.35,1.77-.52,2.78-.52.86,0,1.71.17,2.55.5.83.33,1.52.85,2.05,1.54l-1.48,1.13Z"/><path class="cls-2" d="m66.68,137.15h1.61l5.61,13.11h-2.07l-1.31-3.24h-6.24l-1.3,3.24h-2.07l5.78-13.11Zm3.19,8.31l-2.45-6.02h-.04l-2.48,6.02h4.96Z"/><path class="cls-2" d="m79.31,137.15h4.61c.84,0,1.53.11,2.07.34.54.23.97.52,1.29.87s.53.75.66,1.19c.12.44.19.86.19,1.27s-.07.82-.22,1.21c-.15.39-.36.74-.64,1.06s-.62.58-1.02.8c-.4.22-.85.35-1.34.4l3.72,5.98h-2.22l-3.33-5.78h-1.98v5.78h-1.78v-13.11Zm1.78,5.78h2.33c.35,0,.69-.03,1.03-.08.34-.06.64-.16.91-.31.27-.15.48-.36.64-.64.16-.28.24-.64.24-1.08s-.08-.8-.24-1.08c-.16-.28-.37-.49-.64-.64-.26-.15-.57-.25-.91-.31-.34-.06-.68-.08-1.03-.08h-2.33v4.22Z"/><path class="cls-2" d="m94.33,137.15h4.56c.57,0,1.1.07,1.58.2.49.14.91.34,1.26.6.35.27.63.61.83,1.02s.31.9.31,1.45c0,.75-.21,1.37-.63,1.84-.42.48-.96.82-1.63,1.05v.04c.4.03.77.13,1.11.31s.64.41.9.7c.25.29.45.63.6,1.01s.22.8.22,1.24c0,.59-.12,1.11-.36,1.57-.24.45-.57.83-.99,1.14-.42.31-.91.54-1.46.7-.56.16-1.15.24-1.8.24h-4.5v-13.11Zm1.78,5.44h2.43c.33,0,.65-.03.94-.1.3-.07.56-.18.78-.34.22-.16.4-.37.53-.61.13-.25.19-.55.19-.91,0-.52-.17-.97-.5-1.35s-.86-.57-1.57-.57h-2.8v3.89Zm0,6.11h2.61c.27,0,.57-.03.9-.08.33-.06.63-.17.92-.33s.53-.39.72-.68.3-.66.3-1.13c0-.78-.25-1.36-.76-1.75s-1.19-.58-2.06-.58h-2.63v4.56Z"/><path class="cls-2" d="m115.72,150.59c-1,0-1.92-.18-2.76-.53-.84-.35-1.56-.84-2.16-1.45s-1.07-1.35-1.41-2.19c-.34-.84-.51-1.75-.51-2.72s.17-1.88.51-2.72c.34-.84.81-1.57,1.41-2.19.6-.62,1.32-1.1,2.16-1.45.84-.35,1.76-.53,2.76-.53s1.92.18,2.76.53c.84.35,1.56.84,2.16,1.45.6.62,1.07,1.35,1.41,2.19.34.84.51,1.75.51,2.72s-.17,1.88-.51,2.72c-.34.84-.81,1.57-1.41,2.19s-1.32,1.1-2.16,1.45c-.84.35-1.76.53-2.76.53Zm0-1.67c.75,0,1.43-.14,2.04-.42.6-.28,1.12-.65,1.56-1.12s.76-1.02,1-1.66c.23-.64.35-1.31.35-2.03s-.12-1.39-.35-2.03c-.24-.64-.57-1.19-1-1.66-.43-.47-.95-.84-1.56-1.12s-1.28-.42-2.04-.42-1.43.14-2.04.42-1.12.65-1.56,1.12c-.43.47-.77,1.02-1,1.66-.24.64-.35,1.31-.35,2.03s.12,1.39.35,2.03c.23.64.57,1.19,1,1.66.43.47.95.84,1.56,1.12.6.28,1.28.42,2.04.42Z"/><path class="cls-2" d="m128.81,137.15h2.33l7.22,10.78h.04v-10.78h1.78v13.11h-2.26l-7.3-10.78h-.04v10.78h-1.78v-13.11Z"/><path class="cls-2" d="m48.56,159.37h4.61c.84,0,1.53.11,2.07.34.54.23.97.52,1.29.87s.53.75.66,1.19c.12.44.19.86.19,1.27s-.07.82-.22,1.21c-.15.39-.36.74-.64,1.06s-.62.58-1.02.8c-.4.22-.85.35-1.34.4l3.72,5.98h-2.22l-3.33-5.78h-1.98v5.78h-1.78v-13.11Zm1.78,5.78h2.33c.35,0,.69-.03,1.03-.08.34-.06.64-.16.91-.31.27-.15.48-.36.64-.64.16-.28.24-.64.24-1.08s-.08-.8-.24-1.08c-.16-.28-.37-.49-.64-.64-.26-.15-.57-.25-.91-.31-.34-.06-.68-.08-1.03-.08h-2.33v4.22Z"/><path class="cls-2" d="m63.58,159.37h8.46v1.67h-6.68v3.91h6.22v1.67h-6.22v4.2h7.02v1.67h-8.8v-13.11Z"/><path class="cls-2" d="m78.3,159.37h4.57c.93,0,1.74.1,2.44.31.7.21,1.3.49,1.81.84.51.35.94.76,1.28,1.21.34.46.61.93.81,1.41.2.48.34.96.43,1.44.09.48.13.93.13,1.33,0,.84-.15,1.65-.46,2.43-.31.78-.77,1.48-1.37,2.09-.61.61-1.36,1.1-2.25,1.47s-1.93.56-3.1.56h-4.28v-13.11Zm1.78,11.44h2.24c.75,0,1.47-.1,2.14-.31.67-.2,1.26-.51,1.77-.92.51-.41.91-.92,1.2-1.53.3-.61.44-1.32.44-2.14,0-.42-.07-.91-.2-1.47-.14-.56-.39-1.1-.77-1.6-.38-.51-.9-.93-1.57-1.29-.67-.35-1.53-.53-2.59-.53h-2.67v9.78Z"/><path class="cls-2" d="m97.56,159.37v8.04c0,.41.06.83.17,1.27s.3.84.56,1.21c.26.37.6.67,1.02.91.42.24.94.35,1.56.35s1.14-.12,1.56-.35.76-.54,1.02-.91c.26-.37.44-.77.56-1.21s.17-.86.17-1.27v-8.04h1.78v8.31c0,.77-.13,1.46-.39,2.08-.26.62-.62,1.16-1.07,1.62-.46.46-.99.81-1.61,1.06-.62.25-1.28.37-2,.37s-1.38-.12-2-.37c-.62-.25-1.15-.6-1.61-1.06s-.81-1-1.07-1.62c-.26-.62-.39-1.32-.39-2.08v-8.31h1.78Z"/><path class="cls-2" d="m121.89,162.2c-.37-.48-.84-.85-1.41-1.11-.57-.26-1.15-.39-1.76-.39-.74,0-1.41.14-2.01.42s-1.11.66-1.54,1.14c-.43.48-.76,1.05-.99,1.69-.24.65-.35,1.34-.35,2.08,0,.69.11,1.35.33,1.96.22.62.54,1.16.96,1.63.42.47.93.84,1.54,1.11.6.27,1.29.41,2.06.41s1.41-.15,1.98-.46c.57-.31,1.05-.74,1.44-1.3l1.5,1.13c-.1.14-.27.33-.52.58s-.57.51-.98.76-.9.47-1.47.67c-.57.19-1.24.29-1.99.29-1.04,0-1.97-.2-2.8-.59-.83-.4-1.54-.91-2.13-1.56-.59-.64-1.03-1.37-1.34-2.18-.31-.81-.46-1.63-.46-2.45,0-1.01.17-1.95.5-2.8.33-.86.8-1.6,1.4-2.22.6-.62,1.32-1.11,2.16-1.45.84-.35,1.77-.52,2.78-.52.86,0,1.71.17,2.55.5.83.33,1.52.85,2.05,1.54l-1.48,1.13Z"/><path class="cls-2" d="m129.5,159.37h8.46v1.67h-6.68v3.91h6.22v1.67h-6.22v4.2h7.02v1.67h-8.8v-13.11Z"/><path class="cls-1" d="m8.6,170.91c-1.2-7.25-2.32-13.78-1.94-20.4,1.66-28.93,14.66-51.35,39.29-66.77,11.09-6.94,23.29-10.54,36.48-10.22,6.25.15,12.21,1.51,17.52,5,4.48,2.94,7.77,6.76,8.83,12.16,1.12,5.76-2.06,10.23-8.05,11.45-.16-.28-.48-.58-.46-.85.63-9.64-8.6-15.09-16.63-15.8-12.51-1.12-23.75,2.52-33.93,9.44-19.78,13.44-29.97,32.37-31.44,56.12-.19,2.98-.37,5.98-.96,8.89-.93,4.61-3.55,8.12-8.71,10.99Z"/><path class="cls-1" d="m114.23,76.53c2.29.8,4.14,1.35,5.92,2.09,27.26,11.44,43.66,31.81,49.42,60.61,3.11,15.57,1.29,30.77-5.62,45.17-3.37,7.01-8.09,12.91-15.06,16.81-4.28,2.39-8.79,3.03-13.5,2.27-6.73-1.08-10.21-6.95-7.94-13.08.31-.04.67-.22.91-.11,8.26,3.7,14.53,2.41,20.45-4.38,5.99-6.87,9.24-15.08,10.04-23.98,2.68-29.62-9.1-52.28-33.97-68.3-5.04-3.25-9.44-6.86-10.63-13.11-.2-1.06-.03-2.2-.03-4Z"/><path class="cls-1" d="m142.55,214.75c-.9.96-1.66,1.99-2.62,2.77-15.58,12.62-33.39,19.46-53.46,18.61-24.63-1.04-45.53-10.32-60.67-30.53-3.94-5.26-6.59-11.12-7.87-17.59-1.11-5.61-.38-10.95,2.48-15.89,3.27-5.65,9.35-7.94,14.35-5.48,1.24.61,2.24,1.69,3.84,2.93-4.4,2.13-7.02,4.94-8.3,8.94-1.58,4.93-.44,9.56,1.52,14.04,3.93,8.97,10.41,15.81,18.65,20.89,23.41,14.42,47.38,14.59,71.75,2.46,2.52-1.25,5.08-2.52,7.76-3.32,4.55-1.36,8.33-.59,12.57,2.19Z"/><path class="cls-1" d="m55.39,8.56c12.18,0,21.9,9.6,21.99,21.73.09,12.31-9.76,22.13-22.15,22.09-12.06-.05-21.76-9.86-21.74-22,.02-12.1,9.76-21.8,21.9-21.81Zm.1,6.19c-8.79-.03-16.01,7.01-16.03,15.63-.03,8.42,7.36,15.85,15.89,16,8.53.15,15.79-7.12,15.83-15.84.03-8.86-6.83-15.77-15.69-15.79Z"/><path class="cls-1" d="m136.77,10.13c4.09.62,5.1,1.62,5.2,5.69.12,5.15.02,10.31.04,15.46,0,1.66-.04,3.34.16,4.98.52,4.44,4.24,8.44,8.53,9.34,4.8,1.01,9.65-.99,11.77-5.42,1.11-2.31,1.68-5.05,1.8-7.62.27-5.64.01-11.3.12-16.95.07-3.72.94-4.6,5.04-5.58.21.54.62,1.11.63,1.68.03,7.98.28,15.97-.07,23.93-.51,11.49-11.52,18.91-22.34,15.11-6.9-2.42-11.03-7.63-11.41-14.92-.43-8.12-.09-16.28-.04-24.42,0-.43.38-.86.57-1.27Z"/><path class="cls-1" d="m18.76,50.51c-4.78.09-5.48-.42-5.53-4.56-.09-7.97-.03-15.95-.04-23.93,0-1.8,0-3.61,0-6.06-3.07-.2-5.81-.31-8.53-.59-3.57-.37-3.98-.88-4.67-5.3h31.72c.18,3.99-.4,4.87-3.93,5.27-2.61.29-5.25.28-8.42.43-.14,2.02-.37,3.78-.38,5.53-.04,8.14,0,16.28-.03,24.43,0,1.6-.14,3.21-.21,4.78Z"/><path class="cls-1" d="m97.29,10.06h31.95c-.58,4.38-1.02,4.96-4.55,5.31-2.6.26-5.23.27-8.39.42v34.4c-4.61.67-5.74-.03-5.92-3.84-.2-4.31-.07-8.63-.07-12.95,0-4.15.02-8.3,0-12.45-.03-5.29-.08-5.32-5.18-5.45-1.33-.03-2.67-.03-3.98-.2-2.69-.35-4.25-1.73-3.86-5.25Z"/><path class="cls-1" d="m85.56,10.17c2.9-.78,4.24.67,5.07,2.92.17.46.28.97.28,1.45.01,11.88.01,23.77.01,35.7-2.9,1.22-4.46.12-5.39-2.13-.36-.88-.44-1.93-.44-2.91-.03-10.92-.02-21.84.01-32.76,0-.78.31-1.55.46-2.27Z"/><path class="cls-1" d="m166.99.11c-.45,3.75-1.93,5.57-4.84,5.63-5.98.13-11.98.11-17.96,0-2.67-.05-4.31-1.51-4.58-5,4.38-1.33,8.97-.43,13.43-.6,4.46-.17,8.92-.04,13.95-.04Z"/><path class="cls-4" d="m335.71,463.32h8.9v1.75h-7.03v4.11h6.55v1.75h-6.55v4.42h7.38v1.75h-9.25v-13.79Z"/><path class="cls-4" d="m351.51,463.32h2.45l7.6,11.34h.04v-11.34h1.87v13.79h-2.38l-7.68-11.34h-.04v11.34h-1.87v-13.79Z"/><path class="cls-4" d="m369.02,463.32h2.16l4.05,11.22h.04l4.21-11.22h2.05l-5.44,13.79h-1.75l-5.32-13.79Z"/><path class="cls-4" d="m387.08,463.32h1.87v13.79h-1.87v-13.79Z"/><path class="cls-4" d="m396.39,463.32h4.85c.88,0,1.61.12,2.18.36.57.24,1.02.55,1.35.92s.56.79.69,1.25c.13.46.19.91.19,1.33s-.08.87-.23,1.28c-.16.41-.38.78-.67,1.11s-.65.61-1.07.84c-.42.23-.89.37-1.41.42l3.92,6.29h-2.34l-3.51-6.08h-2.08v6.08h-1.87v-13.79Zm1.87,6.08h2.45c.36,0,.72-.03,1.08-.09.36-.06.68-.17.95-.32.28-.16.5-.38.67-.67.17-.29.25-.67.25-1.14s-.08-.85-.25-1.14c-.17-.29-.39-.52-.67-.67-.28-.16-.6-.26-.95-.32-.36-.06-.72-.09-1.08-.09h-2.45v4.44Z"/><path class="cls-4" d="m418.52,477.46c-1.05,0-2.02-.18-2.9-.56-.88-.37-1.64-.88-2.27-1.53s-1.12-1.42-1.48-2.3c-.36-.88-.54-1.84-.54-2.86s.18-1.98.54-2.86c.36-.88.85-1.65,1.48-2.3.63-.65,1.39-1.16,2.27-1.53.88-.37,1.85-.55,2.9-.55s2.02.19,2.9.55c.88.37,1.64.88,2.27,1.53.63.65,1.12,1.42,1.48,2.3.36.88.54,1.84.54,2.86s-.18,1.98-.54,2.86c-.36.88-.85,1.65-1.48,2.3s-1.39,1.16-2.27,1.53c-.88.37-1.85.56-2.9.56Zm0-1.75c.79,0,1.51-.15,2.14-.44.64-.29,1.18-.68,1.64-1.18s.8-1.07,1.05-1.74c.25-.67.37-1.38.37-2.13s-.12-1.46-.37-2.13c-.25-.67-.6-1.25-1.05-1.74-.45-.49-1-.89-1.64-1.18s-1.35-.44-2.14-.44-1.51.15-2.14.44-1.18.69-1.64,1.18c-.46.49-.81,1.07-1.05,1.74-.25.67-.37,1.38-.37,2.13s.12,1.46.37,2.13c.25.67.6,1.25,1.05,1.74.45.49,1,.89,1.64,1.18.64.29,1.35.44,2.14.44Z"/><path class="cls-4" d="m340.76,486.69h2.79l4.38,10.44h.08l4.34-10.44h2.79v13.79h-1.87v-11.34h-.04l-4.66,11.34h-1.25l-4.66-11.34h-.04v11.34h-1.87v-13.79Z"/><path class="cls-4" d="m366.77,486.69h1.7l5.9,13.79h-2.18l-1.38-3.41h-6.57l-1.36,3.41h-2.18l6.08-13.79Zm3.35,8.75l-2.57-6.33h-.04l-2.61,6.33h5.22Z"/><path class="cls-4" d="m380.06,486.69h4.85c.88,0,1.61.12,2.18.36.57.24,1.02.55,1.35.92s.56.79.69,1.25c.13.46.19.91.19,1.33s-.08.87-.23,1.28c-.16.41-.38.78-.67,1.11s-.65.61-1.07.84c-.42.23-.89.37-1.41.42l3.92,6.29h-2.34l-3.51-6.08h-2.08v6.08h-1.87v-13.79Zm1.87,6.08h2.45c.36,0,.72-.03,1.08-.09.36-.06.68-.17.95-.32.28-.16.5-.38.67-.67.17-.29.25-.67.25-1.14s-.08-.85-.25-1.14c-.17-.29-.39-.52-.67-.67-.28-.16-.6-.26-.95-.32-.36-.06-.72-.09-1.08-.09h-2.45v4.44Z"/><path class="cls-4" d="m395.85,486.69h1.87v5.96h.16l6.1-5.96h2.61l-6.66,6.37,7.11,7.42h-2.73l-6.43-6.9h-.16v6.9h-1.87v-13.79Z"/><path class="cls-4" d="m412.78,497.6c.34.51.77.88,1.3,1.12.53.24,1.07.36,1.63.36.31,0,.63-.05.95-.15.32-.1.62-.24.89-.44.27-.19.48-.43.65-.72s.25-.62.25-.99c0-.53-.17-.94-.51-1.22-.34-.28-.76-.51-1.26-.7-.5-.19-1.05-.37-1.64-.55-.59-.18-1.14-.42-1.64-.73-.5-.31-.92-.73-1.26-1.26-.34-.53-.51-1.24-.51-2.13,0-.4.09-.83.26-1.29.18-.45.45-.87.83-1.25s.86-.69,1.45-.95c.59-.25,1.3-.38,2.13-.38.75,0,1.47.1,2.16.31.69.21,1.29.63,1.81,1.27l-1.52,1.38c-.23-.36-.57-.66-.99-.88-.43-.22-.92-.33-1.46-.33s-.95.07-1.3.21c-.34.14-.62.31-.83.53-.21.21-.35.45-.44.69-.08.25-.13.47-.13.68,0,.58.17,1.03.51,1.34.34.31.76.57,1.26.76.5.19,1.05.37,1.64.53.59.16,1.14.37,1.64.65.5.28.92.66,1.26,1.13s.51,1.13.51,1.96c0,.66-.13,1.26-.38,1.79-.25.53-.59.98-1.02,1.34-.43.36-.94.64-1.52.84-.58.19-1.21.29-1.87.29-.88,0-1.72-.16-2.51-.47-.79-.31-1.42-.79-1.89-1.44l1.54-1.33Z"/><path class="cls-1" d="m294.92,497.99c-1.2-7.25-2.32-13.78-1.94-20.4,1.66-28.93,14.66-51.35,39.29-66.77,11.09-6.94,23.29-10.54,36.48-10.22,6.25.15,12.21,1.51,17.52,5,4.48,2.94,7.77,6.76,8.83,12.16,1.12,5.76-2.06,10.23-8.05,11.45-.16-.28-.48-.58-.46-.85.63-9.64-8.6-15.09-16.63-15.8-12.51-1.12-23.75,2.52-33.93,9.44-19.78,13.44-29.97,32.37-31.44,56.12-.19,2.98-.37,5.98-.96,8.89-.93,4.61-3.55,8.12-8.71,10.99Z"/><path class="cls-1" d="m400.55,403.61c2.29.8,4.14,1.35,5.92,2.09,27.26,11.44,43.66,31.81,49.42,60.61,3.11,15.57,1.29,30.77-5.62,45.17-3.37,7.01-8.09,12.91-15.06,16.81-4.28,2.39-8.79,3.03-13.5,2.27-6.73-1.08-10.21-6.95-7.94-13.08.31-.04.67-.22.91-.11,8.26,3.7,14.53,2.41,20.45-4.38,5.99-6.87,9.24-15.08,10.04-23.98,2.68-29.62-9.1-52.28-33.97-68.3-5.04-3.25-9.44-6.86-10.63-13.11-.2-1.06-.03-2.2-.03-4Z"/><path class="cls-1" d="m428.86,541.84c-.9.96-1.66,1.99-2.62,2.77-15.58,12.62-33.39,19.46-53.46,18.61-24.63-1.04-45.53-10.32-60.67-30.53-3.94-5.26-6.59-11.12-7.87-17.59-1.11-5.61-.38-10.95,2.48-15.89,3.27-5.65,9.35-7.94,14.35-5.48,1.24.61,2.24,1.69,3.84,2.93-4.4,2.13-7.02,4.94-8.3,8.94-1.58,4.93-.44,9.56,1.52,14.04,3.93,8.97,10.41,15.81,18.65,20.89,23.41,14.42,47.38,14.59,71.75,2.46,2.52-1.25,5.08-2.52,7.76-3.32,4.55-1.36,8.33-.59,12.57,2.19Z"/><path class="cls-1" d="m340.42,335.65c12.18,0,21.9,9.6,21.99,21.73.09,12.31-9.76,22.13-22.15,22.09-12.06-.05-21.76-9.86-21.74-22,.02-12.1,9.76-21.8,21.9-21.81Zm.1,6.19c-8.79-.03-16.01,7.01-16.03,15.63-.03,8.42,7.36,15.85,15.89,16,8.53.15,15.79-7.12,15.83-15.84.03-8.86-6.83-15.77-15.69-15.79Z"/><path class="cls-1" d="m421.8,337.22c4.09.62,5.1,1.62,5.2,5.69.12,5.15.02,10.31.04,15.46,0,1.66-.04,3.34.16,4.98.52,4.44,4.24,8.44,8.53,9.34,4.8,1.01,9.65-.99,11.77-5.42,1.11-2.31,1.68-5.05,1.8-7.62.27-5.64.01-11.3.12-16.95.07-3.72.94-4.6,5.04-5.58.21.54.62,1.11.63,1.68.03,7.98.28,15.97-.07,23.93-.51,11.49-11.52,18.91-22.34,15.11-6.9-2.42-11.03-7.63-11.41-14.92-.43-8.12-.09-16.28-.04-24.42,0-.43.38-.86.57-1.27Z"/><path class="cls-1" d="m303.8,377.6c-4.78.09-5.48-.42-5.53-4.56-.09-7.97-.03-15.95-.04-23.93,0-1.8,0-3.61,0-6.06-3.07-.2-5.81-.31-8.53-.59-3.57-.37-3.98-.88-4.67-5.3h31.72c.18,3.99-.4,4.87-3.93,5.27-2.61.29-5.25.28-8.42.43-.14,2.02-.37,3.78-.38,5.53-.04,8.14,0,16.28-.03,24.43,0,1.6-.14,3.21-.21,4.78Z"/><path class="cls-1" d="m382.32,337.15h31.95c-.58,4.38-1.02,4.96-4.55,5.31-2.6.26-5.23.27-8.39.42v34.4c-4.61.67-5.74-.03-5.92-3.84-.2-4.31-.07-8.63-.07-12.95,0-4.15.02-8.3,0-12.45-.03-5.29-.08-5.32-5.18-5.45-1.33-.03-2.67-.03-3.98-.2-2.69-.35-4.25-1.73-3.86-5.25Z"/><path class="cls-1" d="m370.59,337.25c2.9-.78,4.24.67,5.07,2.92.17.46.28.97.28,1.45.01,11.88.01,23.77.01,35.7-2.9,1.22-4.46.12-5.39-2.13-.36-.88-.44-1.93-.44-2.91-.03-10.92-.02-21.84.01-32.76,0-.78.31-1.55.46-2.27Z"/><path class="cls-1" d="m452.02,327.19c-.45,3.75-1.93,5.57-4.84,5.63-5.98.13-11.98.11-17.96,0-2.67-.05-4.31-1.51-4.58-5,4.38-1.33,8.97-.43,13.43-.6,4.46-.17,8.92-.04,13.95-.04Z"/></g></svg>