<?xml version="1.0" encoding="UTF-8"?><svg id="Layer_2" xmlns="http://www.w3.org/2000/svg" viewBox="0 0 200 200"><defs><style>.cls-1{fill:none;}.cls-2{fill:#fff;}.cls-3{fill:#1a1a1a;}.cls-4{fill:#57a67b;}</style></defs><g id="Layer_3"><circle class="cls-3" cx="100" cy="100" r="100"/><path class="cls-2" d="m123.09,68.5c6.55-2.89,13.08-5.82,19.66-8.63,2.11-.9,4.32-1.71,6.56-2.17,4.09-.83,7.67.64,10.8,3.2,3.12,2.54,4.79,5.93,4.88,9.92.1,4.48-1.74,8.17-5.19,11.04-1.52,1.27-3.26,2.13-5.11,2.81-7.28,2.68-14.55,5.39-21.84,8.06-1.01.37-1.72.88-2.22,1.89-3.23,6.57-6.54,13.11-9.81,19.66-2.64,5.3-5.27,10.6-7.92,15.9-.82,1.65-1.69,3.28-2.53,4.92-.7,1.37-1.68,2.44-3.06,3.14-3.54,1.79-7.06,3.61-10.6,5.4-1.64.83-3.27,1.71-4.97,2.42-1.18.5-2.44.33-3.57-.33-.43-.25-.8-.59-1.21-.86-2.24-1.45-2.59-3.2-1.85-5.61.95-3.04,2.17-6,3.29-8.99,2.87-7.62,5.74-15.24,8.61-22.86.03-.07,0-.16-.02-.37-.44.14-.85.24-1.24.4-10.71,4.28-21.41,8.56-32.12,12.84-.46.18-.93.34-1.4.48-1.56.44-3.05.27-4.26-.85-2.2-2.05-4.34-4.15-6.47-6.27-4.61-4.59-9.2-9.21-13.79-13.82-.58-.58-1.15-1.2-1.62-1.87-1.99-2.78-1.18-6.28,1.86-7.87,1.34-.7,2.76-1.25,4.14-1.86,3.13-1.37,6.27-2.71,9.38-4.12,2.32-1.05,4.55-1.02,6.83.15,4.18,2.16,8.4,4.25,12.59,6.39.54.28.98.27,1.55.02,7.41-3.25,14.84-6.47,22.26-9.69l28.4-12.46Zm-82.4,26.23c1.69,1.83,3.32,3.7,5.07,5.46,4.75,4.8,9.56,9.55,14.31,14.35.71.72,1.26.85,2.25.44,6.26-2.57,12.57-5.02,18.86-7.53,6.44-2.57,12.88-5.14,19.32-7.72,1.2-.48,2.21-.19,3.12.64.87.8,1.09,1.75.66,2.85-.12.31-.2.63-.31.94-4.49,11.93-8.98,23.85-13.47,35.78-.08.21-.12.43-.24.83.48-.2.78-.3,1.07-.45,4.49-2.28,8.99-4.55,13.47-6.86.38-.19.71-.6.9-.99,4.23-8.41,8.44-16.83,12.66-25.25,2.76-5.51,5.55-11.02,8.28-16.54.52-1.06,1.26-1.78,2.34-2.19.83-.31,1.65-.61,2.48-.92,6.93-2.61,13.85-5.22,20.78-7.84,1-.38,2.03-.74,2.96-1.25,3.36-1.84,4.99-5.17,4.27-8.78-.67-3.42-3.2-6.19-6.69-6.65-2.07-.28-3.99.11-5.87.94-8.07,3.54-16.13,7.08-24.2,10.59-9.36,4.07-18.74,8.09-28.11,12.15-7.22,3.13-14.44,6.27-21.65,9.43-1.09.48-2.08.49-3.15-.06-4.78-2.44-9.58-4.85-14.39-7.24-.33-.17-.87-.17-1.22-.03-2.26.94-4.5,1.94-6.74,2.93-2.34,1.03-4.67,2.06-6.75,2.97Z"/><path class="cls-4" d="m81.46,60.15c-3.42,1.4-6.84,2.81-10.38,4.27.31.16.52.27.74.37,5.3,2.21,10.61,4.42,15.91,6.63,2.48,1.03,5.98,2.57,9.23,4l-6.71,2.89c-7.01-2.93-14.01-5.86-21.04-8.75-3.87-1.59-4.2-5.95-2.42-8.14.59-.72,1.39-1.4,2.24-1.76,4.52-1.95,9.09-3.79,13.65-5.66,1.08-.45,2.19-.49,3.3-.05,3.7,1.5,7.4,2.98,11.1,4.48,5.2,2.12,14.52,5.98,20.02,8.26l-6.9,2.98c-7.68-3.19-15.75-6.57-22.9-9.63-2.07-.89-3.86-1.18-5.77.06-.03.01-.05.02-.08.03Z"/><line class="cls-1" x1="117.12" y1="66.71" x2="110.22" y2="69.7"/><line class="cls-1" x1="96.97" y1="75.42" x2="90.26" y2="78.32"/></g></svg>