<?xml version="1.0" encoding="UTF-8"?><svg id="Layer_2" xmlns="http://www.w3.org/2000/svg" viewBox="0 0 200 200"><defs><style>.cls-1{fill:#fff;}.cls-2{fill:#1a1a1a;}.cls-3{fill:#57a67b;}</style></defs><g id="Layer_3"><circle class="cls-2" cx="100" cy="100" r="100"/><path class="cls-1" d="m120.82,49.22c4.12.84,8.07,2.21,11.88,3.95,2.33,1.06,4.4,2.52,6.23,4.32,2.44,2.38,3.45,5.33,3.64,8.68.45,8.03.97,16.05,1.47,24.07.07,1.15.18,2.3.21,3.45.01.66.26.96.9,1.14,3.9,1.09,6.73,3.5,8.56,7.1,1.02,2.01,1.27,4.2,1.28,6.41.02,8.96.03,17.92,0,26.88,0,1.1-.19,2.27-.62,3.27-.69,1.6-2.07,2.54-3.81,2.82-.65.1-.85.4-.83,1.05.04,1.52.1,3.04-.04,4.55-.27,2.94-2.1,4.71-5.03,4.97-1.25.11-2.51.14-3.77.13-2.28,0-4.56.03-6.83-.13-3.15-.22-4.98-2.19-5.13-5.36-.07-1.49-.03-2.98-.05-4.48,0-.15-.02-.3-.04-.49h-57.64c-.02.37-.06.75-.06,1.13-.02,1.44.08,2.89-.07,4.31-.28,2.85-2.11,4.6-4.95,4.89-.86.09-1.72.14-2.59.13-2.72-.02-5.45.02-8.17-.14-3.01-.18-4.88-2.19-5.03-5.2-.07-1.46-.06-2.93-.04-4.4.01-.59-.2-.84-.77-.93-1.68-.27-3.07-1.16-3.76-2.67-.51-1.12-.71-2.47-.72-3.72-.06-7.1-.04-14.2-.02-21.3,0-2.41.01-4.82.12-7.23.21-4.78,3.75-9.5,8.24-11.12.07-.03.15-.04.23-.07,2.1-.73,2.08-.73,2.21-2.97.42-7.14.86-14.27,1.3-21.41.13-2.17.24-4.34.49-6.5.42-3.54,2.37-6.18,5.1-8.35,3.04-2.43,6.57-3.87,10.21-5.04,2.04-.65,4.12-1.16,6.2-1.69,0,0,4.88-1.29,21.15-1.29s20.56,1.24,20.56,1.24Zm-59.86,43.31c1.79-.82,3.39-1.6,5.02-2.28,8.18-3.4,16.66-5.58,25.51-6.13,8.25-.52,16.47-.51,24.66.94,7.81,1.38,15.27,3.73,22.36,7.27.13.06.28.08.5.15-.19-3.37-.35-6.66-.56-9.95-.36-5.62-.81-11.23-1.12-16.85-.11-2.05-.83-3.7-2.35-5.02-1.83-1.6-3.92-2.81-6.16-3.7-3.36-1.33-6.87-2.14-10.41-2.89-3.6-.77-7.23-1.12-10.89-1.39-4.5-.32-9-.4-13.5-.09-2.74.19-5.5.31-8.21.7-4.03.59-8.01,1.48-11.93,2.67-2.94.89-5.62,2.25-8.11,4.04-1.93,1.39-3.01,3.22-3.1,5.62-.05,1.26-.18,2.51-.26,3.76-.36,5.65-.71,11.29-1.06,16.94-.13,2.03-.27,4.07-.41,6.23Zm20.62,22.08c5.75-3.46,11.97-4.51,18.4-4.51,6.46,0,12.71,1.02,18.48,4.54,0-.48,0-.83,0-1.19,0-2.1-.01-4.19,0-6.29.04-6.33,4.73-10.89,9.22-12.17.93-.27,1.89-.44,2.98-.69-.61-.22-1.11-.4-1.61-.6-6.75-2.57-13.74-4.08-20.93-4.52-5.83-.36-11.67-.35-17.51.11-6,.47-11.84,1.73-17.55,3.63-1.21.41-2.4.89-3.6,1.34.18.18.33.22.47.23,5.44.49,10.38,4.91,11.38,10.28.21,1.15.24,2.34.26,3.51.04,2.06.01,4.12.01,6.31Zm-31.39,21.74c3.11,0,6.17,0,9.23,0,5.35,0,10.7-.03,16.05-.01.71,0,1.02-.14,1.01-.95-.05-4.74-.04-9.48-.05-14.22,0-4.77.06-9.54-.02-14.3-.06-3.54-2.92-6.81-6.44-7.15-3.12-.3-6.27-.25-9.41-.27-1.44,0-2.89.08-4.3.31-2.81.44-5.47,3.23-5.92,6.12-.15,1-.22,2.03-.22,3.05-.01,8.93,0,17.87,0,26.8,0,.2.04.4.06.62Zm99.69-.01c0-1.17,0-2.37,0-3.57-.01-8.41,0-16.81-.05-25.22,0-.95-.2-1.93-.48-2.84-.8-2.53-3.67-4.92-6.03-5.02-3.24-.13-6.49-.26-9.73-.26-1.56,0-3.17.1-4.66.53-3.42.98-5.4,4.1-5.4,8.04.01,8.93.02,17.86.02,26.79,0,.48,0,.97,0,1.55h26.32Zm-47.3-.02h5.14m-14.88.02c1.33,0,2.67.03,4,.09m20.14-.12c1.39-.06,1.42-.09,1.43-1.44.01-3.59,0-7.18,0-10.76,0-2.63-1.28-4.46-3.55-5.67-2.09-1.12-4.3-1.92-6.61-2.4-4.24-.89-8.52-1.01-12.82-.58-3.65.36-7.15,1.27-10.39,3.05-2.12,1.16-3.35,2.88-3.41,5.34-.02,1.05-.05,2.09-.05,3.14,0,2.85.06,5.7,0,8.55-.01.65.17.77.72.77h34.69Zm-51.09,5.23h-10.43c0,1.62-.01,3.21.02,4.8,0,.13.35.36.53.36,3.12.02,6.23,0,9.35-.02.18,0,.5-.25.5-.39.04-1.56.02-3.13.02-4.76Zm78.61.03h-10.44c0,1.6-.02,3.14.02,4.68,0,.16.34.45.52.45,3.12.02,6.23.01,9.35-.02.18,0,.52-.29.52-.45.04-1.54.02-3.08.02-4.67Z"/><path class="cls-3" d="m73.68,115.36c.02,5.61-4.57,10.21-10.17,10.36-5.75.15-10.68-4.93-10.58-10.45.1-5.64,4.62-10.3,10.28-10.33,5.86-.03,10.45,4.54,10.47,10.43Zm-10.43,5.1c2.96.04,5.28-2.16,5.31-5.03.03-2.97-2.24-5.32-5.18-5.36-2.95-.04-5.31,2.29-5.32,5.23-.01,2.92,2.2,5.11,5.19,5.16Z"/><path class="cls-3" d="m147.05,115.34c.14,5.52-4.68,10.48-10.48,10.36-5.85-.13-10.43-4.86-10.26-10.57.18-5.93,4.91-10.39,10.8-10.19,5.55.19,10.1,4.96,9.94,10.4Zm-10.52,5.16c3.1.07,5.32-2.07,5.37-5.19.05-2.89-2.19-5.19-5.11-5.24-2.87-.05-5.29,2.21-5.34,5.02-.06,3.05,2.09,5.34,5.08,5.41Z"/></g></svg>