<?xml version="1.0" encoding="UTF-8"?><svg id="Layer_2" xmlns="http://www.w3.org/2000/svg" viewBox="0 0 200 200"><defs><style>.cls-1{fill:#fff;}.cls-2{fill:#1a1a1a;}.cls-3{fill:#57a67b;}</style></defs><g id="Layer_3"><circle class="cls-2" cx="100" cy="100" r="100"/><path class="cls-1" d="m118.67,110.4c-1.15-3.24-2.28-6.49-3.37-9.75-.18-.55-.45-.65-.96-.65-4.77.02-9.55,0-14.32,0-4.77,0-9.55,0-14.32-.01-.49,0-.76.1-.93.6-1.1,3.26-2.22,6.51-3.36,9.76l-11.85,34.2c-1.45,4.3-2.96,8.58-4.42,12.88-.38,1.1-.78,2.13-2.11,2.36-.08.01-.14.13-.21.2h-.9s-.07-.07-.11-.1c-1.94-1.52-2.04-1.92-1.23-4.23,1.81-5.21,3.59-10.42,5.39-15.63,3.14-9.05,6.28-18.09,9.42-27.14,1.33-3.84,2.67-7.68,4-11.52.15-.42.27-.85.44-1.38-.38,0-.67,0-.96,0-6.57,0-13.15.03-19.72-.03-.93,0-1.99-.22-2.77-.7-1.99-1.21-2.17-4.05-.39-5.67,1.78-1.61,3.66-3.1,5.51-4.63,6.81-5.69,13.62-11.38,20.44-17.04.63-.52.78-1.1.6-1.93-.3,0-.59,0-.88,0-7.5,0-15,0-22.5,0-1.77,0-3.26-.52-4.04-2.26-.57-1.26-.56-2.51.4-3.57.68-.76,1.46-1.44,2.24-2.09,7.94-6.63,15.9-13.24,23.85-19.87.67-.56,1.26-1.22,1.96-1.74.35-.26.86-.44,1.3-.44,10.1-.02,20.2-.03,30.3,0,.54,0,1.18.3,1.6.65,8.71,7.27,17.4,14.56,26.09,21.86.57.48,1.14.98,1.62,1.55,1.68,2.03.5,5.25-2.09,5.74-.58.11-1.19.16-1.79.16-7.4.01-14.8,0-22.2,0h-.87c-.25.87,0,1.45.63,1.97,5.82,4.84,11.63,9.7,17.45,14.55,2.65,2.21,5.3,4.41,7.95,6.63.75.63,1.43,1.33,1.64,2.35.48,2.43-1.27,4.47-3.93,4.5-3.07.03-6.15,0-9.22,0-3.62,0-7.25,0-10.87,0-.27,0-.54,0-.96,0,.28.84.52,1.59.77,2.33,4.19,12.09,8.37,24.18,12.57,36.27,2.02,5.82,4.04,11.64,6.09,17.44.53,1.5.59,2.83-1.29,3.75-.08.04-.14.14-.2.21h-.9c-.18-.12-.35-.3-.55-.34-.83-.2-1.24-.78-1.51-1.52-.12-.33-.24-.66-.35-.99-1.45-4.2-2.9-8.39-4.33-12.59l-11.82-34.16Zm-18.64-37.94c-.13.18-.28.35-.39.54-2.02,3.33-4.06,6.64-6.05,9.99-2.2,3.71-4.36,7.44-6.53,11.17-.16.27-.24.58-.38.94h26.5c-.02-.99-11.45-20.63-13.16-22.63Zm-.05-9.92c1.11-1.26,10.52-17.1,10.5-17.65h-21.22c3.6,5.94,7.14,11.77,10.72,17.65Zm17.53,2.54h20.54l.1-.14c-6.84-5.7-13.68-11.4-20.64-17.21v17.35Zm20.52,30.01c.05-.06.1-.12.14-.18-6.87-5.73-13.73-11.46-20.69-17.27-.03.26-.06.35-.06.44,0,4,.05,8,0,11.99-.02,1.56.32,3.01.82,4.46.15.43.4.57.84.56,1.02-.02,2.05,0,3.07,0,5.29,0,10.58,0,15.87,0Zm-55.5-17.41c-6.92,5.79-13.84,11.43-20.56,17.32,4.72.09,9.37.09,14.01.09,1.65,0,3.3.02,4.95,0,.25,0,.67-.15.73-.32.33-.91.72-1.84.79-2.79.14-1.69.07-3.39.08-5.09,0-3.02,0-6.04,0-9.21Zm0-29.95c-6.95,5.79-13.79,11.5-20.64,17.2.48.14.85.14,1.22.14,6.27,0,12.55-.01,18.82,0,.52,0,.61-.18.61-.65-.02-3.4-.01-6.8-.01-10.2,0-2.1,0-4.19,0-6.5Zm4.94,35.92c3.25-5.41,6.39-10.63,9.51-15.86.1-.17.06-.53-.05-.72-2.99-5.02-5.99-10.03-9-15.04-.11-.18-.25-.34-.46-.62v32.23Zm25.1-32.28c-.12.15-.19.21-.23.29-3.06,5.1-6.11,10.19-9.17,15.28-.27.45-.17.77.07,1.17,2.79,4.64,5.58,9.29,8.36,13.94.27.46.58.9.97,1.5v-32.17Z"/><path class="cls-3" d="m78.71,138.36c-.95,0-1.88-.51-2.38-1.4-.73-1.31-.25-2.96,1.06-3.69l36.18-20.04c1.31-.73,2.96-.25,3.69,1.06.73,1.31.25,2.96-1.06,3.69l-36.18,20.04c-.42.23-.87.34-1.31.34Z"/><path class="cls-3" d="m121.52,138.36c-.44,0-.9-.11-1.31-.34l-36.18-20.04c-1.31-.73-1.79-2.38-1.06-3.69s2.38-1.79,3.69-1.06l36.18,20.04c1.31.73,1.79,2.38,1.06,3.69-.5.89-1.42,1.4-2.38,1.4Z"/></g></svg>