<?xml version="1.0" encoding="UTF-8"?><svg id="Layer_2" xmlns="http://www.w3.org/2000/svg" viewBox="0 0 200 200"><defs><style>.cls-1{fill:#fff;}.cls-2{fill:#1a1a1a;}.cls-3{fill:#57a67b;}</style></defs><g id="Layer_3"><circle class="cls-2" cx="100" cy="100" r="100"/><path class="cls-3" d="m35,141.08c.11-.21.23-.42.32-.64.37-.94,1.04-1.5,2.04-1.64,1.21-.17,2.43-.26,3.61-.55,2.77-.66,4.85-2.34,6.37-4.71,1.44-2.24,3.56-2.32,5.05-.08,1.7,2.56,3.94,4.34,6.98,4.92,3.7.7,7.2.23,10.17-2.32.66-.57,1.16-1.34,1.72-2.03.43-.52.76-1.17,1.28-1.54,1.71-1.21,3.31-.76,4.31.9,1.98,3.28,4.88,4.92,8.59,5.21,4.55.35,8.24-1.21,10.77-5.15.19-.29.4-.58.65-.83,1.15-1.16,2.5-1.17,3.65-.02.4.4.75.86,1.08,1.32,2.61,3.68,6.25,5,10.62,4.63,3.55-.3,6.32-1.93,8.27-4.93.2-.32.46-.6.73-.87,1.41-1.4,2.9-1.27,4.15.28.88,1.09,1.73,2.24,2.78,3.16,2.29,1.99,5.07,2.6,8.04,2.41,3.83-.23,6.8-1.94,8.9-5.19,1.37-2.11,3.43-2.15,4.87-.08,1.4,2.01,3.04,3.71,5.38,4.52,1.19.41,2.47.52,3.71.79.73.16,1.52.25,2.17.58.93.47,1.4,1.79,1.15,2.73-.31,1.19-1.34,2-2.63,2.03-4.44.08-8.29-1.37-11.52-4.43-.22-.2-.43-.41-.72-.69-3.41,3.19-7.39,5.11-12.16,5.12-4.79.02-8.75-1.98-12.22-5.23-3.44,3.37-7.46,5.23-12.22,5.22-4.74-.01-8.72-1.9-12.1-5.12-.71.55-1.37,1.07-2.04,1.58-5.67,4.29-11.72,4.68-18.02,1.62-1.35-.65-2.52-1.69-3.71-2.61-.52-.41-.83-.55-1.41-.03-2.33,2.1-4.97,3.68-8.1,4.25-4.69.86-9.06.11-12.98-2.72-.68-.49-1.36-.99-2-1.53-.44-.38-.74-.35-1.16.05-2.33,2.29-5.12,3.71-8.33,4.26-1.11.19-2.26.25-3.4.24-1.12-.02-1.94-.6-2.36-1.69-.07-.19-.2-.36-.3-.54,0-.22,0-.43,0-.65Z"/><path class="cls-1" d="m35,108.85c.56,1.25.39,2.5,0,3.74v-3.74Z"/><path class="cls-1" d="m159.69,110.17H40.35c.48,2.17.82,4.25,1.42,6.25.8,2.65,1.95,5.17,3.56,7.45.31.44.59.91.82,1.4.64,1.33.28,2.64-.91,3.42-1.05.69-2.59.47-3.42-.66-.98-1.36-1.9-2.78-2.69-4.25-1.62-3.02-2.8-6.23-3.35-9.62-.28-1.7-.29-3.45-.26-5.18.02-1.55,1.84-3.42,3.67-3.82,1.05-.23,2.14-.27,3.22-.33.95-.05,1.9-.04,2.85-.01.49.02.67-.14.68-.64,0-1.46.13-2.93.06-4.39-.16-3.41,2.39-5.82,5.62-5.84,5.18-.03,10.36-.09,15.54,0,3.67.07,5.68,2.32,5.67,6.01,0,1.41.04,2.82.03,4.23,0,.43.11.64.59.64,8.84,0,17.69,0,26.6,0v-43.52c-7.15,0-14.28,0-21.41,0-8,0-16.01,0-24.01.02-1.4,0-2.49-.36-3.1-1.72-.65-1.43.18-3.16,1.73-3.48.53-.11,1.08-.15,1.62-.15,14.65,0,29.3-.02,43.95.03,1.24,0,2.56.22,3.71.67,1.69.66,2.6,2.13,2.76,3.92.16,1.78.22,3.57.22,5.36,0,12.72-.01,25.45-.03,38.17,0,.51.1.72.67.71,4.91-.02,9.82-.03,14.73,0,.75,0,.95-.2.94-.95-.03-8.98-.03-17.96-.01-26.94,0-2.83.15-5.68,1.61-8.21,2.75-4.76,6.79-7.34,12.43-7.29,9.02.07,16.59,7.15,18.04,15.14.24,1.32.3,2.7.31,4.05.04,7.54.04,15.08.06,22.63,0,.48,0,.96,0,1.56,1.01,0,1.93-.04,2.84,0,1.24.06,2.51.06,3.71.31,2.89.59,4.45,2.85,4.16,5.78-.62,6.08-2.73,11.62-6.15,16.67-1.12,1.65-2.97,1.97-4.23.75-.77-.75-1.02-1.85-.58-2.84.27-.59.59-1.16.95-1.7,2.68-3.97,4.16-8.37,4.72-13.09.02-.16,0-.32,0-.52Zm-10.73-5.37c0-.4,0-.72,0-1.04,0-7.76-.14-15.52.04-23.28.16-6.72-5.36-13.41-12.86-13.76-4.19-.2-7.75,2.21-8.7,6.28-.27,1.16-.09,2.43-.19,3.64-.07.8.22,1,.99,1,2.71,0,5.43-.07,8.13.14,3.97.3,7.06,3.93,7.05,8.02,0,4.01-3.14,7.61-7.09,7.9-2.78.2-5.58.13-8.38.15-.51,0-.71.11-.7.68.03,3.17.02,6.35,0,9.52,0,.63.24.78.81.77,1.63-.03,3.26-.01,4.88-.01,5.29,0,10.58,0,16,0Zm-81.43-5.53h-16.2v5.5h16.2v-5.5Zm59.75-16.3c0,1.34,0,2.6,0,3.87q0,1.69,1.73,1.68c2.14,0,4.28.03,6.42-.04,1.58-.05,2.7-1.23,2.7-2.69,0-1.5-1.07-2.76-2.59-2.8-2.7-.07-5.41-.02-8.25-.02Z"/><path class="cls-3" d="m62.2,84.49c-.07.6-.09,1.2-.2,1.78-.24,1.22-1.4,2.12-2.64,2.1-1.29-.03-2.39-.92-2.51-2.21-.11-1.12-.12-2.27-.02-3.4.13-1.4,1.31-2.37,2.65-2.37,1.27,0,2.36,1.02,2.54,2.4.07.56.11,1.13.17,1.7Z"/><path class="cls-3" d="m62.2,70.95c-.08.56-.13,1.27-.31,1.94-.33,1.22-1.47,2-2.67,1.93-1.16-.07-2.24-.96-2.36-2.19-.12-1.2-.12-2.43,0-3.63.14-1.29,1.33-2.18,2.56-2.15,1.3.04,2.38.97,2.59,2.26.09.56.12,1.13.19,1.84Z"/></g></svg>