<?xml version="1.0" encoding="UTF-8"?><svg id="Layer_2" xmlns="http://www.w3.org/2000/svg" viewBox="0 0 200 200"><defs><style>.cls-1{fill:#fff;}.cls-2{fill:#1a1a1a;}.cls-3{fill:#57a67b;}</style></defs><g id="Layer_3"><circle class="cls-2" cx="100" cy="100" r="100"/><path class="cls-1" d="m48.08,50.99c.09.07.19.14.32.23.06-1.4.77-2.52,1.63-3.58,1.54-1.9,3.63-2.55,5.96-2.62,1.45-.04,2.9-.01,4.35-.01,16.29,0,32.57,0,48.86.01,1.14,0,2.32.08,3.4.39,3.11.88,5.19,3.54,5.31,6.86.13,4.02.11,8.04.12,12.06,0,.6.15.75.74.76,2.09.05,4.22-.04,6.27.3,4.33.71,7.6,4.53,7.88,8.91.07,1.05.1,2.1.1,3.14,0,20.13,0,40.27,0,60.4,0,1.84-.09,3.7.05,5.53.24,3.04,2,5.2,4.75,6.18,4.83,1.71,9.54-1.22,10.07-6.01.2-1.8.09-3.64.11-5.46.06-7.07.12-14.13.15-21.2.02-3.44.08-6.89-.05-10.33-.08-2.21.49-4.12,1.69-5.93,2.06-3.12,4.6-5.85,7.24-8.47,2.2-2.18,4.5-4.25,6.79-6.33.95-.86,1.88-.95,2.81-.42,1.43.81,1.72,2.48.55,3.74-1.02,1.1-2.17,2.07-3.25,3.1-3.37,3.2-6.64,6.49-9.56,10.12-.96,1.19-1.57,2.42-1.4,4.03.13,1.21.03,2.44.03,3.7,1.29,0,2.5.01,3.72,0,1.18-.01,2.34-.02,3.44.53,1.67.84,2.59,2.25,2.68,4.05.12,2.36.11,4.74,0,7.1-.07,1.42-.91,2.56-2.16,3.24-2.17,1.18-4.37,2.29-6.6,3.35-.8.38-1.11.79-1.1,1.72.02,4.29-.03,8.59-.1,12.88-.09,5.26-3.82,9.87-9.11,11.45-4.63,1.38-9.85-.39-13.03-4.4-1.87-2.35-2.71-5.05-2.72-7.99-.02-21.36-.01-42.71-.02-64.07,0-1.39.06-2.81-.19-4.17-.41-2.19-2.32-3.68-4.54-3.74-1.57-.05-3.15,0-4.72-.02-.47,0-.6.18-.59.62.04,5.47.09,10.94.1,16.41.01,8.82,0,17.63,0,26.45,0,8.12.01,16.24,0,24.35,0,3.39.02,6.79-.12,10.18-.15,3.51-3.25,6.56-6.77,6.86-.72.06-1.45.1-2.17.1-17.44,0-34.87,0-52.31.02-2.17,0-4.15-.45-5.85-1.87-1.21-1.01-2.03-2.24-2.44-3.76-.04-.13-.2-.23-.3-.35,0-32.68,0-65.35,0-98.03Zm64.93,38.86c-1.54,0-2.96,0-4.38,0-11.52,0-23.03,0-34.55,0-6.74,0-13.49.02-20.23.01-.58,0-.82.11-.82.78.03,17.61.03,35.22.04,52.83,0,1.3-.05,2.6-.04,3.9,0,1.41,1.01,2.47,2.41,2.55.67.04,1.35,0,2.02,0,17.49,0,34.97-.02,52.46.03,2.35,0,3.19-1.37,3.15-3.05-.06-3.09-.06-6.19-.06-9.29,0-15.39,0-30.78,0-46.16,0-.47,0-.94,0-1.62Zm-59.94-4.9h59.94c0-1.1,0-2.15,0-3.19,0-7.91,0-15.83,0-23.74,0-1.87.02-3.75-.01-5.62-.02-1.27-1.02-2.25-2.28-2.32-.27-.02-.55-.02-.82-.02-17.96,0-35.91.02-53.87-.03-2.16,0-3.07,1.45-3.06,3.1.06,9.46.07,18.93.1,28.39,0,1.12,0,2.24,0,3.42Zm99.99,30.07v8.48c.95-.47,1.78-1.01,2.7-1.3,1.86-.59,2.56-1.72,2.27-3.66-.17-1.14-.03-2.32-.03-3.52h-4.93Z"/><path class="cls-3" d="m88.19,117.46c0-2.35.05-4.69-.01-7.04-.09-3.09,1.95-5.19,4.94-5.33,1.69-.08,3.39-.1,5.08.03,2.77.22,4.44,1.95,4.73,4.71.1.92.11,1.84.12,2.76.01,3.62.06,7.24-.02,10.86-.02,1.18-.17,2.43-.61,3.5-.84,2.06-2.63,2.94-4.79,2.99-1.72.04-3.45.04-5.15-.14-2.43-.25-4.19-2.19-4.25-4.63-.07-2.57-.02-5.14-.02-7.71,0,0-.02,0-.02,0Zm4.89,7.6c1.43,0,2.82-.03,4.21.02.61.02.77-.16.76-.75-.02-4.46,0-8.93,0-13.39,0-.29,0-.58,0-.88h-4.97v15.01Z"/><path class="cls-3" d="m95.75,140.02c-1.45,0-2.9.04-4.34-.02-.61-.02-1.24-.15-1.81-.37-1.12-.44-1.58-1.33-1.42-2.51.16-1.17.85-1.88,2.04-2.04.59-.08,1.19-.13,1.79-.13,2.59-.02,5.19-.04,7.78,0,.67.01,1.41.15,2,.46,1,.54,1.4,1.74,1.11,2.78-.28.99-1.54,1.86-2.73,1.87-1.47,0-2.94,0-4.41,0,0-.01,0-.03,0-.04Z"/><path class="cls-3" d="m83.08,55.03c6.32,0,12.64,0,18.95,0,2.11,0,4.03.5,5.08,2.5.48.92.83,2.02.85,3.05.09,4.62.1,9.24.01,13.86-.04,2.24-.9,4.22-3.17,5.07-1.07.4-2.29.51-3.45.51-6.57.05-13.13.02-19.7.02-5.74,0-11.49,0-17.23,0-.7,0-1.4-.04-2.08-.18-2.51-.5-4.14-2.37-4.19-5.11-.09-4.82-.06-9.64,0-14.46.02-1.81.75-3.37,2.34-4.37.55-.35,1.21-.59,1.85-.71.8-.15,1.64-.17,2.46-.18,6.09-.01,12.19,0,18.28,0Zm19.9,4.91h-39.87v15h39.87v-15Z"/></g></svg>