<?xml version="1.0" encoding="UTF-8"?><svg id="Layer_2" xmlns="http://www.w3.org/2000/svg" viewBox="0 0 200 200"><defs><style>.cls-1{fill:#fff;}.cls-2{fill:#1a1a1a;}.cls-3{fill:#57a67b;}</style></defs><g id="Layer_3"><circle class="cls-2" cx="100" cy="100" r="100"/><path class="cls-3" d="m100.31,159.12c-1.63,0-3.18-.16-4.54-.35-7.33-1-14.17-7.34-15.92-14.76-.33-1.41-.56-2.95-.71-4.84-.58-7.12,1.78-12.95,7.01-17.35.45-.38.9-.69,1.33-.99.18-.12.36-.25.54-.38l2.35-1.7,1.68,2.78c.15.24.27.45.39.66.9,1.7,2.21,3.16,3.99,4.48.07.05.14.1.19.13.03-.05.06-.11.1-.18,3.07-6.22,3.19-12.36.37-18.78-.17-.38-.23-.71-.27-.91v-.06s-.71-3.22-.71-3.22l3.23-.04c.24-.02.87-.05,1.56.29l.13.06c.27.14.65.32,1.03.62.61.47,1.23.93,1.85,1.38,1.51,1.11,3.07,2.27,4.51,3.6,5.52,5.06,9.31,11.47,11.27,19.05,1.31,5.05,1.51,9.9.58,14.4-1.47,7.17-6.15,12.39-13.54,15.07-2.16.79-4.37,1.04-6.43,1.04Zm-11.44-32.6c-3.38,3.17-4.83,7.18-4.42,12.21.13,1.62.32,2.91.59,4.06,1.22,5.21,6.36,10.01,11.45,10.7,2.62.35,5.66.58,8.43-.43,5.64-2.05,9.05-5.8,10.14-11.14.76-3.7.58-7.73-.52-11.99-1.7-6.57-4.97-12.1-9.72-16.46-.23-.21-.47-.42-.71-.63.87,5.43,0,10.83-2.62,16.13-1.05,2.12-2.53,2.87-3.58,3.13-1.06.26-2.72.26-4.64-1.15-1.79-1.33-3.25-2.78-4.4-4.42Zm9.61-17.89s.02.01.03.02l-.03-.02Z"/><path class="cls-1" d="m99.9,165c-3.73,0-7.64-.49-12.14-1.52-4.2-.96-8.3-2.44-12.19-4.39-3.73-1.88-6.85-3.88-9.53-6.13-2.06-1.73-4.46-3.82-6.62-6.17-2.92-3.18-5.51-6.92-7.69-11.09-3.98-7.61-6.08-15.82-6.25-24.4-.1-5.45.61-10.89,2.13-16.16.56-1.93,1.84-3.34,3.52-3.88,1.68-.53,3.54-.13,5.11,1.12,2.65,2.11,5.05,3.73,7.4,4.98.2-2.48.59-4.97,1.16-7.46,1.98-8.5,5.48-16.58,10.42-23.99,6.69-10.06,15.16-17.95,25.18-23.46,6.33-3.48,12.99-5.83,19.81-6.98.07-.03.13-.06.2-.09.16-.07.32-.14.48-.2l.46-.18h2.51l.72.57c.06.05.12.09.17.14,2.82,1.7,3.58,4.34,2.08,7.26-2.53,4.95-4.12,9.22-4.98,13.41-1.02,4.95-1.25,10.11-.68,15.36.28,2.63.86,5.31,1.76,8.11.3-.53.58-1.05.83-1.58.72-1.54,1.34-3.13,1.99-4.81.36-.92.72-1.85,1.09-2.77.68-1.64,1.98-2.81,3.57-3.19,1.59-.38,3.28.05,4.62,1.2,3.61,3.08,6.56,6.24,9.02,9.66,5.64,7.83,9.05,16.62,10.13,26.14.74,6.52.22,13.18-1.55,19.82-2.19,8.19-6.19,15.63-11.88,22.12-5.22,5.95-11.64,10.62-19.09,13.9-6.12,2.7-12.75,4.24-19.69,4.59-.69.03-1.39.05-2.09.05Zm-47.11-68.55s-.04.1-.06.16c-1.37,4.76-2.02,9.66-1.93,14.58.15,7.75,2.05,15.16,5.64,22.03,1.97,3.77,4.29,7.12,6.9,9.97,1.95,2.13,4.19,4.07,6.12,5.69,2.37,1.98,5.15,3.77,8.5,5.45,3.51,1.76,7.2,3.1,10.99,3.96,4.85,1.11,8.91,1.53,12.77,1.34,6.3-.32,12.29-1.71,17.81-4.14,6.73-2.96,12.53-7.18,17.23-12.54,5.15-5.86,8.76-12.58,10.74-19.98,1.6-5.99,2.07-11.99,1.41-17.84-.98-8.6-4.06-16.55-9.16-23.63-2.18-3.03-4.81-5.85-8.03-8.62-.34.84-.67,1.68-.99,2.52-.66,1.69-1.33,3.44-2.13,5.15-.7,1.49-1.54,2.86-2.36,4.17-.31.5-.62,1-.92,1.5-.22.37-.47.66-.67.89-.06.07-.14.16-.21.25l-2.66,3.29-1.81-3.83c-.08-.17-.16-.33-.24-.49-.18-.36-.36-.74-.53-1.15-1.78-4.51-2.87-8.71-3.31-12.85-.62-5.8-.37-11.52.76-17,.96-4.68,2.69-9.37,5.45-14.77.03-.05.05-.09.07-.14-.28.11-.61.22-.99.28-6.25,1.05-12.38,3.21-18.2,6.41-9.26,5.09-17.1,12.41-23.31,21.74-4.58,6.88-7.83,14.37-9.66,22.25-.77,3.29-1.16,6.59-1.17,9.82,0,.37-.06.66-.1.85l-.03.15-.6,3.42-3.56-1.66c-.23-.11-.45-.21-.67-.31-3.55-1.54-7.03-3.71-10.93-6.82-.05-.04-.1-.07-.13-.1Zm71.84-60.81s0,0,0,0c0,0,0,0,0,0Zm-4.33-.19s0,0,0,0c0,0,0,0,0,0Z"/></g></svg>