<?xml version="1.0" encoding="UTF-8"?><svg id="Layer_2" xmlns="http://www.w3.org/2000/svg" viewBox="0 0 200 200"><defs><style>.cls-1{fill:#fff;}.cls-2{fill:#1a1a1a;}.cls-3{fill:#57a67b;}</style></defs><g id="Layer_3"><circle class="cls-2" cx="100" cy="100" r="100"/><path class="cls-1" d="m170,136.03c-.74.59-1.11,1.59-2.25,1.75-2.2.31-3.61-.98-3.64-3.54-.04-3.62,0-7.23-.01-10.85q0-3.07-3-3.07c-29.22,0-58.44,0-87.66,0-11.84,0-23.68.02-35.52-.06-1.63-.01-2.07.44-2.03,2.04.12,3.85.04,7.7.05,11.55,0,.64-.06,1.26-.26,1.89-.51,1.6-1.6,2.19-3.2,2.03-1.57-.16-2.17-1.26-2.4-2.58-.15-.85-.05-1.74-.05-2.62,0-22.22-.01-44.44-.02-66.66,0-.7-.03-1.39.27-2.06.48-1.06,1.28-1.6,2.43-1.68,1.22-.08,2.16.35,2.75,1.44.5.91.47,1.9.47,2.9,0,15.34.03,30.68-.06,46.01-.01,1.86.55,2.14,2.23,2.14,41.41-.05,82.81-.05,124.22,0,1.57,0,1.79-.55,1.78-1.91-.04-11.55-.02-23.09-.02-34.64,0-.76,0-1.49.26-2.24.37-1.09,1.03-1.84,2.15-2.08,1.19-.25,2.17.2,2.89,1.18.21.28.4.57.61.85v60.19Z"/><path class="cls-1" d="m115.97,108.74c-11.78,0-23.56,0-35.34,0-2.93,0-4.06-1.06-4.01-3.98.06-4.25-.2-8.5.25-12.75.67-6.32,6.81-12.26,13.17-12.3,13.88-.07,27.76-.24,41.63.07,7.28.16,13.15,3.87,17.8,9.44,3.79,4.53,5.76,9.75,5.86,15.68.05,2.76-.9,3.83-3.68,3.83-11.9.01-23.79,0-35.69,0h0Zm-.24-5.92c10.14,0,20.27,0,30.41,0q3.69,0,2.37-3.6c-3.09-8.46-10.36-13.76-19.44-13.85-12.41-.11-24.82-.09-37.23-.02-5.73.03-9.3,3.78-9.33,9.52-.01,2.04.08,4.08-.03,6.12-.08,1.41.27,1.88,1.79,1.87,10.49-.07,20.97-.04,31.46-.04Z"/><path class="cls-3" d="m56.23,79.63c7.83-.19,14.59,6.31,14.65,14.55.05,8.04-6.64,14.58-14.73,14.55-7.94-.03-14.49-6.54-14.46-14.64.03-8.26,6.85-14.64,14.55-14.47Zm.07,23.18c4.8-.02,8.69-3.86,8.72-8.6.02-4.79-3.96-8.76-8.78-8.75-4.83.01-8.81,4.03-8.72,8.82.08,4.73,4.02,8.55,8.79,8.53Z"/></g></svg>