<?xml version="1.0" encoding="UTF-8"?><svg id="Layer_2" xmlns="http://www.w3.org/2000/svg" viewBox="0 0 200 200"><defs><style>.cls-1{fill:#fff;}.cls-2{fill:#1a1a1a;}.cls-3{fill:#57a67b;}</style></defs><g id="Layer_3"><circle class="cls-2" cx="100" cy="100" r="100"/><path class="cls-1" d="m84.25,121.64c-1.1.63-2.56.3-3.36-.87-.87-1.28-1.6-2.64-2.38-3.96-.59-1-.56-1-1.58-.41-2.21,1.26-4.4,2.56-6.61,3.79-.67.37-1.02.87-1.21,1.6-1.32,5.07-2.69,10.14-4.03,15.21-.13.5-.28,1-.48,1.45-.52,1.28-1.84,1.93-3.1,1.58-1.36-.41-2.19-1.58-1.86-2.99.63-2.66,1.36-5.29,2.08-7.93.39-1.47.78-2.95,1.23-4.64-.39.19-.61.3-.82.43-4.87,2.82-9.75,5.63-14.6,8.45-.95.56-1.91.69-2.84.07-.97-.63-1.36-1.56-1.26-2.71.09-1,.71-1.56,1.54-2.04,4.29-2.45,8.6-4.92,12.89-7.37.74-.43,1.47-.89,2.43-1.49-.63-.13-1.04-.22-1.43-.32-3.42-.91-6.85-1.82-10.27-2.73-.82-.24-1.67-.52-2.15-1.34-.52-.91-.58-1.84.02-2.75.63-.95,1.52-1.45,2.64-1.19,1.95.45,3.88,1,5.81,1.52,3.57.95,7.17,1.88,10.75,2.86.74.22,1.39.15,2.08-.26,2.3-1.36,4.64-2.69,6.95-4.01.15-.11.3-.22.54-.37-.67-1.17-1.3-2.32-1.95-3.47-.22-.37-.43-.74-.65-1.13-.78-1.56-.46-2.88.93-3.7,1.28-.76,2.69-.35,3.6,1.1.74,1.17,1.39,2.38,2.08,3.57.2.33.41.63.65.97,1.84-1.06,3.66-2.1,5.5-3.16.58,1.69,1.49,3.23,2.62,4.57-1.84,1.04-3.68,2.1-5.55,3.18.54.91,1.04,1.78,1.52,2.62.48.82,1.02,1.62,1.39,2.49.56,1.3.04,2.71-1.13,3.36Z"/><path class="cls-1" d="m44.28,66.98c.59-.58,1.28-.93,2.12-.61.71.26,1.43.52,2.08.89,4.46,2.56,8.9,5.13,13.35,7.71.32.2.67.35,1.19.63-.15-.5-.26-.78-.35-1.08-.97-3.66-1.99-7.3-2.95-10.96-.41-1.62.11-2.79,1.36-3.36,1.49-.67,3.1.02,3.62,1.69.58,1.95,1.08,3.94,1.62,5.94.95,3.51,1.88,7.04,2.82,10.57.17.59.45,1,1,1.3,2.36,1.34,4.72,2.73,7.06,4.14.56.35.84.26,1.15-.28.54-1.06,1.15-2.08,1.75-3.12.28-.46.56-.93.91-1.32.93-1.06,2.25-1.28,3.29-.63,1.15.72,1.65,2.04,1.02,3.31-.74,1.52-1.65,2.99-2.51,4.44-.28.46-.26.67.19.95,1.67.95,3.31,1.91,4.98,2.88-1.13,1.34-2.02,2.88-2.62,4.55-1.82-1.04-3.66-2.1-5.5-3.16-.67,1.1-1.3,2.19-1.93,3.25-.26.45-.52.95-.82,1.39-.89,1.39-2.34,1.8-3.55,1.06-1.34-.82-1.73-2.25-.93-3.73.82-1.52,1.71-3.01,2.6-4.55-.13-.11-.24-.22-.37-.3-2.47-1.41-4.92-2.86-7.41-4.22-.41-.22-1.04-.32-1.49-.22-5.33,1.39-10.62,2.84-15.92,4.25-.89.24-1.8.43-2.66-.11-.93-.59-1.39-1.43-1.3-2.53.13-1.23.89-1.95,2.01-2.27,2.36-.67,4.74-1.32,7.11-1.95,1.62-.43,3.25-.84,4.96-1.28-.17-.15-.28-.28-.41-.37-4.85-2.79-9.71-5.61-14.56-8.41-1.95-1.13-2.36-3.03-.91-4.48Z"/><path class="cls-1" d="m115.38,149.66c1.1,1.17,1.04,2.66-.02,3.7-1.06,1.06-2.47,1.06-3.68-.09-1.78-1.69-3.47-3.44-5.2-5.16-1.17-1.13-2.32-2.25-3.49-3.38-.07-.06-.2-.09-.33-.15v5.63c0,3.81-.02,7.65-.02,11.46,0,.22,0,.43-.02.65-.13,1.49-1.15,2.58-2.49,2.66-1.28.09-2.45-.91-2.71-2.41-.09-.41-.13-.87-.13-1.28,0-4.98,0-9.99.02-14.97,0-.58.04-1.17.09-1.91-.26.2-.41.3-.54.43-2.64,2.62-5.26,5.26-7.93,7.84-.56.54-1.26,1.04-1.99,1.3-.97.37-2.01-.15-2.6-1.02-.59-.89-.63-2.06-.04-2.9.28-.39.61-.76.95-1.1,3.77-3.77,7.54-7.54,11.33-11.31.59-.56.8-1.19.8-2.01-.06-2.62-.06-5.24-.02-7.86,0-.58-.26-.63-.69-.63-1.26,0-2.53.06-3.81-.04-.78-.04-1.62-.22-2.32-.54-1.02-.48-1.36-1.45-1.23-2.53.11-1.02.67-1.78,1.69-2.08.56-.15,1.15-.28,1.73-.3,1.17-.04,2.34,0,3.51,0q1.08-.02,1.08-1.15v-5.18c.87.17,1.78.26,2.69.26s1.82-.09,2.69-.26v6.33h2.79c.93.02,1.91-.04,2.84.06,1.95.26,3.01,2.12,2.23,3.83-.43.89-1.15,1.39-2.1,1.45-1.65.11-3.29.13-4.96.13-.59,0-.82.13-.82.8.04,2.6-.06,5.22,0,7.8,0,.61.26,1.32.65,1.73,1.45,1.54,3.03,2.95,4.53,4.46,2.53,2.56,5.07,5.09,7.54,7.71Z"/><path class="cls-1" d="m84.38,50.04c-.8-1.1-.63-2.53.37-3.44.97-.87,2.27-.93,3.34-.02.93.82,1.82,1.71,2.69,2.6,2.12,2.17,4.22,4.33,6.35,6.52.07-.04.13-.11.2-.15v-2.43c0-4.79.02-9.55.02-14.32,0-.28.02-.59.02-.89.02-1.23.5-2.12,1.69-2.58.17-.06.3-.22.48-.32h1.3c.11.15.19.32.35.41,1.32.63,1.52,1.78,1.52,3.08-.02,5.59-.04,11.2-.06,16.81,0,.06.02.15.06.37.26-.24.48-.43.67-.63,2.69-2.69,5.39-5.39,8.1-8.1.78-.8,1.69-1.23,2.84-.89,1.67.52,2.38,2.4,1.45,3.86-.35.52-.78.97-1.23,1.41-3.73,3.75-7.45,7.47-11.2,11.2-.5.5-.69,1.02-.69,1.73.04,2.56.04,5.13.04,7.71v.89c.39.02.69.04,1,.04,1.45.02,2.88-.04,4.31.02,2.12.13,3.36,1.95,2.6,3.79-.37.91-1.08,1.43-2.04,1.54-1.08.11-2.21.11-3.31.13-.8.02-1.6.02-2.51.02v6.28c-.87-.17-1.78-.26-2.71-.26s-1.8.09-2.64.24c-.02-1.88,0-3.77,0-5.65,0-.52-.22-.61-.63-.61-1.3,0-2.6.07-3.9-.02-.76-.06-1.56-.22-2.25-.52-1.02-.48-1.41-1.43-1.28-2.51.09-1.04.65-1.88,1.71-2.12.87-.22,1.8-.26,2.71-.3.95-.07,1.91-.04,2.84-.02.52.02.76-.15.76-.67,0-2.86.04-5.7.02-8.54,0-.33-.24-.72-.5-.95-3.68-3.75-7.41-7.45-11.11-11.18-.48-.48-.95-.97-1.34-1.52Z"/><path class="cls-1" d="m155.4,129.01c1.3.97,1.54,2.36.69,3.64-.82,1.23-2.17,1.54-3.55.74-4.55-2.62-9.1-5.24-13.65-7.86-.54-.32-1.13-.63-1.88-1.06.13.43.19.69.26.93,1.02,3.79,2.08,7.6,3.08,11.42.37,1.39-.33,2.62-1.65,3.12-1.39.54-2.86-.13-3.34-1.67-.59-1.8-1.04-3.64-1.54-5.46-1.02-3.79-2.04-7.56-3.08-11.35-.11-.37-.37-.82-.69-1.02-2.53-1.49-5.09-2.95-7.65-4.42-.06-.04-.15-.04-.35-.09-.78,1.32-1.58,2.66-2.34,4.01-.48.84-1.04,1.58-2.04,1.88-1.82.52-3.62-1.17-3.14-3.03.19-.74.58-1.41.95-2.06.54-1,1.13-1.97,1.73-2.95.22-.37.24-.61-.17-.84-1.71-.97-3.4-1.95-5.09-2.95,1.13-1.34,2.04-2.88,2.64-4.57,1.6.91,3.21,1.86,4.81,2.79.61.35.89.24,1.21-.33.71-1.32,1.45-2.66,2.25-3.94,1.15-1.8,3.36-1.86,4.51-.17.65,1,.48,2.01-.07,2.99-.82,1.47-1.69,2.9-2.6,4.46.54.32,1.08.67,1.62.97,2.01,1.17,4.05,2.3,6.07,3.47.61.35,1.19.41,1.86.24,5.05-1.39,10.12-2.73,15.19-4.09.45-.11.93-.24,1.43-.3,1.41-.22,2.58.54,2.97,1.88.37,1.26-.22,2.58-1.52,3.03-1.71.59-3.49,1.02-5.22,1.47-2.38.65-4.79,1.3-7.32,1.97.89.54,1.65,1.02,2.43,1.47,3.99,2.3,7.97,4.59,11.96,6.89.41.24.84.5,1.21.78Z"/><path class="cls-1" d="m116.73,78.18c1.17-.13,2.04.43,2.62,1.41.72,1.15,1.36,2.34,2.06,3.51.22.37.45.69.74,1.13,1.82-1.06,3.57-2.1,5.31-3.12.28-.17.54-.41.84-.5,1.95-.69,2.64-2.21,3.1-4.12,1.13-4.68,2.45-9.32,3.7-13.95.09-.32.17-.63.3-.93.59-1.32,1.93-1.99,3.18-1.6,1.39.43,2.14,1.62,1.78,3.1-.52,2.27-1.17,4.51-1.78,6.76-.5,1.84-.97,3.68-1.52,5.7.35-.17.56-.26.76-.37,4.59-2.66,9.21-5.35,13.82-7.99.52-.3,1.06-.56,1.62-.76,1.19-.41,2.17-.04,2.86,1.04.65,1,.61,2.21-.17,3.05-.37.39-.82.74-1.28,1-4.61,2.69-9.23,5.35-13.84,8.02-.3.17-.63.3-1.13.54.48.17.8.32,1.13.41,3.51.93,7,1.86,10.51,2.79.95.26,1.86.59,2.34,1.56.46.93.37,1.86-.24,2.69-.61.82-1.47,1.26-2.49,1.04-1.73-.39-3.44-.87-5.18-1.32-3.83-1.02-7.67-2.06-11.53-3.05-.43-.11-1.04-.19-1.41.02-2.73,1.47-5.42,3.03-8.12,4.57.93,1.65,1.86,3.21,2.71,4.79.91,1.67.02,3.53-1.8,3.9-.97.22-2.15-.39-2.84-1.52-.74-1.19-1.47-2.4-2.1-3.64-.39-.76-.76-.78-1.43-.39-1.54.89-3.08,1.8-4.64,2.71-.61-1.69-1.49-3.23-2.62-4.57,1.82-1.06,3.64-2.1,5.46-3.16-.13-.32-.26-.61-.41-.87-.78-1.41-1.65-2.75-2.32-4.2-.78-1.6.28-3.47,1.99-3.66Z"/><path class="cls-3" d="m100,93.57c3.55,0,6.43,2.88,6.43,6.43s-2.88,6.43-6.43,6.43-6.43-2.88-6.43-6.43,2.88-6.43,6.43-6.43m0-4.33c-5.94,0-10.76,4.82-10.76,10.76s4.82,10.76,10.76,10.76,10.76-4.82,10.76-10.76-4.82-10.76-10.76-10.76h0Z"/></g></svg>