<?xml version="1.0" encoding="UTF-8"?><svg id="Layer_2" xmlns="http://www.w3.org/2000/svg" viewBox="0 0 200 200"><defs><style>.cls-1{fill:#fff;}.cls-2{fill:#1a1a1a;}.cls-3{fill:#57a67b;}</style></defs><g id="Layer_3"><circle class="cls-2" cx="100" cy="100" r="100"/><path class="cls-1" d="m153.97,63.79c-.83-.7-1.77-.7-2.53-.7h-9.71c-6.12.01-12.25.02-18.37.02.04-3.48.04-6.53.01-9.32,0-.85-.05-1.96-.31-3.06-.8-3.4-3.87-5.68-7.64-5.69-9.19-.02-20.04-.04-30.87,0-4.49.02-7.78,3.21-7.82,7.58-.03,3.3-.06,6.6-.09,9.9,0,.22,0,.41,0,.56h-.56c-4.86,0-9.72,0-14.58,0h-12.28c-.57,0-1.14.04-1.71.11-.98.12-1.73.71-2.15,1.69-.06.15-.13.29-.2.44l-.17.36v.94l.13.19s.07.09.13.17c.41,1.45,1.5,2.16,3.28,2.17.92,0,1.85,0,2.77,0,1.79,0,3.57,0,5.36-.02,0,0,0,0,0,.01.23,2.3.47,4.61.71,6.91l.8,7.62c.27,2.57.53,5.14.8,7.71.2,1.89.4,3.78.61,5.67.23,2.13.46,4.26.69,6.39.23,2.21.46,4.43.69,6.64.2,1.92.39,3.84.59,5.76.18,1.7.36,3.4.54,5.1.16,1.46.32,2.93.47,4.39.15,1.41.29,2.82.44,4.24.28,2.72.56,5.45.86,8.17.07.66.14,1.32.2,1.98.21,2.12.43,4.32.95,6.43,1.04,4.19,3.86,7.1,8.16,8.41.19.06.37.08.53.09.06,0,.11.01.17.02l.64.11h0c.32.03.81.04,1.6.05,5.36.07,22.7.1,27.89.11,5.24,0,10.25.01,14.13.01,2.4,0,4.37,0,5.68,0,1,0,1.58,0,1.93-.05v.02c2.49-.51,4.61-1.71,6.49-3.68,2.55-2.66,3.15-5.92,3.4-8.46.33-3.39.69-6.84,1.05-10.18l.22-2.09c.29-2.79.59-5.58.89-8.36.28-2.58.55-5.16.82-7.75.23-2.19.46-4.37.69-6.56.28-2.71.57-5.42.85-8.13.29-2.76.59-5.51.89-8.27.32-2.99.65-5.99.96-8.98.47-4.44.93-8.87,1.38-13.31,2.6.03,5.21.02,7.64.01.66,0,1.19-.05,1.69-.14,1.73-.33,2.08-1.93,2.2-2.46.24-1.09-.09-2.06-.95-2.78Zm-71.33-7.15c0-1.07-.01-2.15-.01-3.22,0-.35,0-.8.07-1.23.1-.64.53-1.07,1.16-1.18.41-.07.82-.1,1.22-.1,9.92,0,19.85,0,29.77,0,.35,0,.73.03,1.08.07.88.09,1.4.61,1.4,1.43.02,2.31.02,4.62.02,6.93,0,1.24,0,2.48,0,3.75-.38,0-.76,0-1.15,0-.36,0-.72,0-1.07,0h-16s-3.12,0-3.12,0c-4.45,0-8.91,0-13.36.01,0,0,0,0-.01,0,.02-2.16,0-4.32,0-6.48Zm54.78,12.56l-.19,1.87c-.22,2.16-.44,4.3-.66,6.44-.2,1.88-.4,3.76-.6,5.64l-1.76,16.74c-.43,4.04-.85,8.09-1.28,12.13l-.46,4.31c-.27,2.56-.55,5.12-.81,7.68-.25,2.39-.5,4.77-.75,7.16-.27,2.65-.55,5.3-.83,7.94-.07.62-.14,1.24-.22,1.86-.11.89-.22,1.81-.3,2.73-.27,3.09-2.82,5.37-6.06,5.41-3.13.04-6.31.04-9.39.04h-2.54c-11.29,0-22.57,0-33.85-.01-.86,0-1.77-.03-2.61-.21-2.42-.52-4.31-2.63-4.59-5.12-.28-2.48-.54-4.97-.79-7.46-.15-1.47-.3-2.93-.46-4.4-.17-1.63-.35-3.26-.53-4.89-.18-1.63-.36-3.25-.53-4.88-.23-2.17-.45-4.35-.68-6.52-.17-1.65-.34-3.29-.51-4.94-.37-3.57-.75-7.15-1.13-10.72l-.68-6.3c-.4-3.69-.79-7.39-1.18-11.09-.34-3.28-.68-6.56-1.01-9.87l-.36-3.56h74.77Z"/><path class="cls-3" d="m115.46,135.36c.38.14.79.21,1.19.21.66,0,1.32-.18,1.84-.52.75-.49,1.2-1.29,1.26-2.25v-.09c.01-.13.02-.27.03-.4l.1-2.32c.07-1.62.13-3.24.21-4.86.13-2.65.27-5.31.4-7.96.16-3.13.32-6.25.47-9.38.32-6.48.62-12.96.91-19.45l.02-.39c.05-.96.09-1.95.04-2.94-.05-.93-.55-1.8-1.34-2.34-.75-.51-1.65-.66-2.45-.39-1.32.43-2.11,1.61-2.17,3.22l-.07,1.87c-.06,1.41-.11,2.82-.18,4.22-.2,4.17-.41,8.33-.61,12.5l-.23,4.71-.03.76c-.03.56-.07,1.12-.09,1.68l-.63,13.48c-.05,1.1-.11,2.2-.16,3.31-.07,1.38-.14,2.76-.2,4.15-.05,1.14.72,2.83,1.68,3.18Z"/><path class="cls-3" d="m100.1,135.68c.07,0,.15,0,.22,0,1.41-.08,2.47-1.22,2.64-2.84.02-.23.03-.46.03-.69l.02-28.26c0-5.16,0-10.33,0-15.49,0-1.27-.01-2.34-.06-3.42-.06-1.28-1.02-2.43-2.29-2.72-1.29-.29-2.66.36-3.18,1.53-.27.61-.43,1.37-.43,2.13-.02,15.33-.02,30.66-.02,45.99,0,.49.03.87.1,1.22.31,1.6,1.44,2.57,2.97,2.57Z"/><path class="cls-3" d="m78.31,89.79c0,.48-.01.97.01,1.46.11,2.31.23,4.61.35,6.92.13,2.48.25,4.96.37,7.44.1,1.99.18,3.97.27,5.96.06,1.31.11,2.62.17,3.93.22,4.92.45,9.84.68,14.76.04.86.09,1.78.22,2.7.19,1.33,1.31,2.45,2.6,2.61.11.01.22.02.32.02,1.21,0,2.34-.84,2.71-2.06.24-.78.22-1.63.19-2.37-.18-3.89-.37-7.78-.56-11.67l-.23-4.79c-.26-5.44-.52-10.88-.78-16.32-.06-1.35-.12-2.69-.18-4.04-.08-1.84-.17-3.68-.26-5.52l-.03-.66c-.05-1.11-.1-2.25-.25-3.38-.12-.99-.67-1.82-1.5-2.27-.79-.43-1.73-.44-2.56-.04-1.13.55-1.75,1.53-1.77,2.77,0,.89,0,1.77,0,2.66v1.89h.22Z"/></g></svg>