<?xml version="1.0" encoding="UTF-8"?><svg id="Layer_2" xmlns="http://www.w3.org/2000/svg" viewBox="0 0 1169.86 425.61"><defs><style>.cls-1{fill:#fff;}.cls-2{fill:#57a67b;}.cls-3{fill:none;stroke:#fff;stroke-miterlimit:10;stroke-width:2px;}.cls-4,.cls-5{opacity:.5;}.cls-6{opacity:.8;}.cls-5{fill:#333;}</style></defs><g id="Layer_1-2"><rect class="cls-6" width="1169.86" height="425.61"/><rect class="cls-5" x="10.14" y="10" width="1149.72" height="405.61" rx="4" ry="4"/></g><g id="Layer_3"><path class="cls-2" d="m85.02,251.84l-2.97-5.1h-2.5v5.1h-2.84v-13.68h5.44c3.29,0,5.35,1.69,5.35,4.3,0,1.76-.94,3.13-2.61,3.82l3.39,5.56h-3.24Zm-5.47-11.31v3.84h2.67c1.48,0,2.36-.72,2.36-1.91s-.88-1.93-2.36-1.93h-2.67Z"/><path class="cls-2" d="m98.66,247.78h-7.04c.2,1.64,1.04,2.41,2.18,2.41,1.06,0,1.58-.45,1.93-1.24h2.77c-.65,2.07-2.38,3.12-4.72,3.12-3.04,0-4.97-2.11-4.97-5.11s2-5.1,4.97-5.1,4.93,2.07,4.93,5.15c0,.23-.02.5-.05.77Zm-7.02-1.84h4.27c-.14-1.39-.97-2.21-2.12-2.21s-1.91.68-2.14,2.21Z"/><path class="cls-2" d="m107.32,242.07h2.74v9.6c0,2.95-2.54,3.93-4.81,3.93s-4.48-.99-4.75-3.24h2.77c.2.92,1.01,1.37,1.98,1.37,1.17,0,2.07-.63,2.07-2v-2.09c-.54,1.22-1.73,2.12-3.24,2.12-2.41,0-4.03-2.02-4.03-4.95s1.64-4.95,4.03-4.95c1.73,0,2.81,1.1,3.24,2.38v-2.16Zm.11,4.73c0-1.93-.81-3.08-2.29-3.08s-2.29,1.15-2.29,3.08.79,3.08,2.29,3.08,2.29-1.15,2.29-3.08Z"/><path class="cls-2" d="m112.29,240.75v-2.59h2.85v2.59h-2.85Zm.04,11.09v-9.78h2.75v9.78h-2.75Z"/><path class="cls-2" d="m116.79,248.89h2.77c.2.99,1.03,1.3,1.89,1.3,1.21,0,1.85-.4,1.85-1.03,0-.59-.4-.88-1.73-1.19l-1.73-.38c-1.85-.4-2.86-1.26-2.86-2.72,0-1.86,1.91-3.03,4.25-3.03,2.21,0,4.07.92,4.5,2.81h-2.77c-.22-.61-.92-.94-1.71-.94-.88,0-1.64.32-1.64.94,0,.56.56.77,1.57.99l1.73.38c2.05.45,3.02,1.33,3.02,2.92,0,2-1.98,3.12-4.59,3.12-2.41,0-4.21-1.03-4.56-3.17Z"/><path class="cls-2" d="m133.33,249.83v2.02h-1.55c-1.93,0-3.37-.95-3.37-2.9v-4.86h-1.82v-2.02h1.82v-2.3h2.75v2.3h2.14v2.02h-2.14v4.65c0,.85.41,1.1,1.21,1.1h.95Z"/><path class="cls-2" d="m144.18,247.78h-7.04c.2,1.64,1.04,2.41,2.18,2.41,1.06,0,1.58-.45,1.93-1.24h2.77c-.65,2.07-2.38,3.12-4.72,3.12-3.04,0-4.97-2.11-4.97-5.11s2-5.1,4.97-5.1,4.93,2.07,4.93,5.15c0,.23-.02.5-.05.77Zm-7.02-1.84h4.27c-.14-1.39-.97-2.21-2.12-2.21s-1.91.68-2.14,2.21Z"/><path class="cls-2" d="m148.75,244.62c.38-1.53,1.37-2.77,3.26-2.77v2.7h-.7c-1.71,0-2.54.58-2.54,2.23v5.06h-2.75v-9.78h2.74v2.56Z"/><path class="cls-2" d="m278.92,251.84h-2.83v-13.22l-3.01,13.22h-5.06l-2.99-13.13v13.13h-2.84v-13.68h5.51l2.86,13.23,2.84-13.23h5.51v13.68Z"/><path class="cls-2" d="m290.65,247.78h-7.04c.2,1.64,1.04,2.41,2.18,2.41,1.06,0,1.58-.45,1.93-1.24h2.77c-.65,2.07-2.38,3.12-4.72,3.12-3.04,0-4.97-2.11-4.97-5.11s2-5.1,4.97-5.1,4.93,2.07,4.93,5.15c0,.23-.02.5-.05.77Zm-7.02-1.84h4.27c-.14-1.39-.97-2.21-2.12-2.21s-1.91.68-2.14,2.21Z"/><path class="cls-2" d="m301.38,245.69v6.16h-2.72v-1.84c-.56,1.17-1.44,2.05-3.26,2.05s-3.4-1.3-3.4-3.19c0-2.23,2.12-2.79,4.05-2.97l2.57-.25v-.16c0-.99-.58-1.76-1.75-1.76-1.08,0-1.66.63-1.76,1.31h-2.77c.25-2,2.05-3.19,4.54-3.19,3.04,0,4.5,1.64,4.5,3.84Zm-2.75,2v-.4l-1.57.16c-1.12.13-2.25.32-2.25,1.42,0,.95.74,1.53,1.67,1.53,1.4,0,2.14-1.19,2.14-2.72Z"/><path class="cls-2" d="m302.96,248.89h2.77c.2.99,1.03,1.3,1.89,1.3,1.21,0,1.85-.4,1.85-1.03,0-.59-.4-.88-1.73-1.19l-1.73-.38c-1.85-.4-2.86-1.26-2.86-2.72,0-1.86,1.91-3.03,4.25-3.03,2.21,0,4.07.92,4.5,2.81h-2.77c-.22-.61-.92-.94-1.71-.94-.88,0-1.64.32-1.64.94,0,.56.56.77,1.57.99l1.73.38c2.05.45,3.02,1.33,3.02,2.92,0,2-1.98,3.12-4.59,3.12-2.41,0-4.21-1.03-4.56-3.17Z"/><path class="cls-2" d="m320.02,242.07h2.75v9.78h-2.72v-1.93c-.45,1.17-1.37,2.14-3.08,2.14-2.27,0-3.22-1.64-3.22-3.8v-6.19h2.75v5.6c0,1.69.63,2.47,1.76,2.47s1.75-.83,1.75-2.5v-5.56Z"/><path class="cls-2" d="m327.84,244.62c.38-1.53,1.37-2.77,3.26-2.77v2.7h-.7c-1.71,0-2.54.58-2.54,2.23v5.06h-2.75v-9.78h2.74v2.56Z"/><path class="cls-2" d="m341.73,247.78h-7.04c.2,1.64,1.04,2.41,2.18,2.41,1.06,0,1.58-.45,1.93-1.24h2.77c-.65,2.07-2.38,3.12-4.72,3.12-3.04,0-4.97-2.11-4.97-5.11s2-5.1,4.97-5.1,4.93,2.07,4.93,5.15c0,.23-.02.5-.05.77Zm-7.02-1.84h4.27c-.14-1.39-.97-2.21-2.12-2.21s-1.91.68-2.14,2.21Z"/><path class="cls-2" d="m468.68,251.84l-2.97-5.1h-2.5v5.1h-2.84v-13.68h5.44c3.29,0,5.35,1.69,5.35,4.3,0,1.76-.94,3.13-2.61,3.82l3.39,5.56h-3.24Zm-5.47-11.31v3.84h2.67c1.48,0,2.36-.72,2.36-1.91s-.88-1.93-2.36-1.93h-2.67Z"/><path class="cls-2" d="m482.33,247.78h-7.04c.2,1.64,1.04,2.41,2.18,2.41,1.06,0,1.58-.45,1.93-1.24h2.77c-.65,2.07-2.38,3.12-4.72,3.12-3.04,0-4.97-2.11-4.97-5.11s2-5.1,4.97-5.1,4.93,2.07,4.93,5.15c0,.23-.02.5-.05.77Zm-7.02-1.84h4.27c-.14-1.39-.97-2.21-2.12-2.21s-1.91.68-2.14,2.21Z"/><path class="cls-2" d="m490.95,238.16h2.72v13.68h-2.72v-1.98c-.52,1.28-1.73,2.2-3.24,2.2-2.41,0-4.03-2.16-4.03-5.1s1.62-5.11,4.03-5.11c1.73,0,2.83,1.17,3.24,2.45v-6.14Zm.11,8.8c0-2-.81-3.24-2.3-3.24s-2.27,1.24-2.27,3.24.77,3.22,2.27,3.22,2.3-1.24,2.3-3.22Z"/><path class="cls-2" d="m502.16,242.07h2.75v9.78h-2.72v-1.93c-.45,1.17-1.37,2.14-3.08,2.14-2.27,0-3.22-1.64-3.22-3.8v-6.19h2.75v5.6c0,1.69.63,2.47,1.76,2.47s1.75-.83,1.75-2.5v-5.56Z"/><path class="cls-2" d="m506.71,246.95c0-3.06,2.07-5.1,5.06-5.1,2.57,0,4.36,1.44,4.77,3.73h-2.77c-.23-1.03-.86-1.85-2-1.85-1.46,0-2.25,1.24-2.25,3.22s.83,3.24,2.25,3.24c1.13,0,1.78-.68,2.09-1.82h2.77c-.47,2.4-2.41,3.69-4.86,3.69-3.03,0-5.06-2.03-5.06-5.11Z"/><path class="cls-2" d="m527.56,247.78h-7.04c.2,1.64,1.04,2.41,2.18,2.41,1.06,0,1.58-.45,1.93-1.24h2.77c-.65,2.07-2.38,3.12-4.72,3.12-3.04,0-4.97-2.11-4.97-5.11s2-5.1,4.97-5.1,4.93,2.07,4.93,5.15c0,.23-.02.5-.05.77Zm-7.02-1.84h4.27c-.14-1.39-.97-2.21-2.12-2.21s-1.91.68-2.14,2.21Z"/><path class="cls-2" d="m667.96,251.84l-1.17-3.69h-5.98l-1.17,3.69h-2.99l4.54-13.68h5.22l4.54,13.68h-2.99Zm-6.39-6.07h4.47l-2.23-7.04-2.23,7.04Z"/><path class="cls-2" d="m678.2,242.07h2.75v9.78h-2.72v-1.93c-.45,1.17-1.37,2.14-3.08,2.14-2.27,0-3.22-1.64-3.22-3.8v-6.19h2.75v5.6c0,1.69.63,2.47,1.76,2.47s1.75-.83,1.75-2.5v-5.56Z"/><path class="cls-2" d="m690.06,238.16h2.72v13.68h-2.72v-1.98c-.52,1.28-1.73,2.2-3.24,2.2-2.41,0-4.03-2.16-4.03-5.1s1.62-5.11,4.03-5.11c1.73,0,2.83,1.17,3.24,2.45v-6.14Zm.11,8.8c0-2-.81-3.24-2.3-3.24s-2.27,1.24-2.27,3.24.77,3.22,2.27,3.22,2.3-1.24,2.3-3.22Z"/><path class="cls-2" d="m695.06,240.75v-2.59h2.85v2.59h-2.85Zm.04,11.09v-9.78h2.75v9.78h-2.75Z"/><path class="cls-2" d="m706.01,249.83v2.02h-1.55c-1.93,0-3.37-.95-3.37-2.9v-4.86h-1.82v-2.02h1.82v-2.3h2.75v2.3h2.14v2.02h-2.14v4.65c0,.85.41,1.1,1.21,1.1h.95Z"/><path class="cls-2" d="m840.12,245c0-4.3,2.81-7.06,6.84-7.06s6.84,2.75,6.84,7.06-2.81,7.06-6.84,7.06-6.84-2.75-6.84-7.06Zm10.75,0c0-2.92-1.55-4.81-3.91-4.81s-3.91,1.89-3.91,4.81,1.55,4.81,3.91,4.81,3.91-1.89,3.91-4.81Z"/><path class="cls-2" d="m867.88,240.12c-.79,0-1.21.25-1.21,1.13v.81h2.2v2.02h-2.2v7.76h-2.75v-7.76h-4.56v7.76h-2.75v-7.76h-1.76v-2.02h1.76v-.97c0-1.96,1.44-2.94,3.37-2.94h1.58v1.96h-.97c-.81,0-1.22.25-1.22,1.13v.81h4.56v-.97c0-1.96,1.42-2.94,3.37-2.94h1.58v1.96h-.99Z"/><path class="cls-2" d="m869.57,248.89h2.77c.2.99,1.03,1.3,1.89,1.3,1.21,0,1.85-.4,1.85-1.03,0-.59-.4-.88-1.73-1.19l-1.73-.38c-1.85-.4-2.86-1.26-2.86-2.72,0-1.86,1.91-3.03,4.25-3.03,2.21,0,4.07.92,4.5,2.81h-2.77c-.22-.61-.92-.94-1.71-.94-.88,0-1.64.32-1.64.94,0,.56.56.77,1.57.99l1.73.38c2.05.45,3.02,1.33,3.02,2.92,0,2-1.98,3.12-4.59,3.12-2.41,0-4.21-1.03-4.56-3.17Z"/><path class="cls-2" d="m889.79,247.78h-7.04c.2,1.64,1.04,2.41,2.18,2.41,1.06,0,1.58-.45,1.93-1.24h2.77c-.65,2.07-2.38,3.12-4.72,3.12-3.04,0-4.97-2.11-4.97-5.11s2-5.1,4.97-5.1,4.93,2.07,4.93,5.15c0,.23-.02.5-.05.77Zm-7.02-1.84h4.27c-.14-1.39-.97-2.21-2.12-2.21s-1.91.68-2.14,2.21Z"/><path class="cls-2" d="m897.28,249.83v2.02h-1.55c-1.93,0-3.37-.95-3.37-2.9v-4.86h-1.82v-2.02h1.82v-2.3h2.75v2.3h2.14v2.02h-2.14v4.65c0,.85.41,1.1,1.21,1.1h.95Z"/><path class="cls-1" d="m616.54,346.68v1.44h-4.05v10.72h-1.62v-10.72h-4.05v-1.44h9.72Z"/><path class="cls-1" d="m615.58,354.55c0-2.66,1.63-4.46,4.18-4.46s4.16,1.81,4.16,4.46-1.62,4.47-4.16,4.47-4.18-1.81-4.18-4.47Zm6.74,0c0-2.02-.93-3.31-2.56-3.31s-2.58,1.3-2.58,3.31.94,3.31,2.58,3.31,2.56-1.3,2.56-3.31Z"/><path class="cls-1" d="m625.8,348.79v-2.11h1.7v2.11h-1.7Zm.06,10.05v-8.58h1.57v8.58h-1.57Z"/><path class="cls-1" d="m634.47,357.66v1.18h-1.12c-1.49,0-2.66-.72-2.66-2.35v-5.04h-1.81v-1.18h1.81v-2.03h1.57v2.03h2.18v1.18h-2.18v5.04c0,.91.46,1.17,1.25,1.17h.96Z"/><path class="cls-1" d="m641.63,350.27h1.57v8.58h-1.57v-1.71c-.37.98-1.22,1.89-2.64,1.89-1.94,0-2.95-1.49-2.95-3.41v-5.35h1.57v5.11c0,1.73.77,2.5,2.02,2.5s2-.78,2-2.53v-5.07Zm.75-2.91v1.19h-5.55v-1.19h5.55Z"/><path class="cls-1" d="m649.14,354.55c0-2.66,1.63-4.46,4.18-4.46,2.11,0,3.51,1.28,3.87,3.09h-1.6c-.24-1.06-.98-1.94-2.27-1.94-1.63,0-2.58,1.3-2.58,3.31s.94,3.31,2.58,3.31c1.25,0,2.02-.67,2.37-1.89h1.6c-.45,1.97-2.02,3.04-3.97,3.04-2.54,0-4.18-1.81-4.18-4.47Z"/><path class="cls-1" d="m665.99,353.32v5.52h-1.57v-1.76c-.59,1.2-1.3,1.94-2.96,1.94s-2.88-1.17-2.88-2.75c0-2,2-2.38,3.54-2.54l2.31-.24v-.18c0-1.12-.62-2.06-1.98-2.06-1.2,0-1.87.74-1.98,1.55h-1.6c.19-1.62,1.57-2.71,3.59-2.71,2.61,0,3.55,1.63,3.55,3.23Zm-1.57,1.87v-.64l-1.71.18c-1.18.13-2.53.29-2.53,1.54,0,1.1.86,1.71,1.86,1.71,1.58,0,2.39-1.25,2.39-2.79Z"/><path class="cls-1" d="m669.96,352.11c.38-1.2,1.23-2.02,2.82-2.02v1.55h-.48c-1.57,0-2.34.5-2.34,2.03v5.17h-1.57v-8.58h1.57v1.84Z"/><path class="cls-1" d="m682.6,354.55c0,2.64-1.57,4.47-3.65,4.47-1.28,0-2.5-.82-3.02-2.05v1.87h-1.57v-12.17h1.57v5.67c.4-1.15,1.42-2.26,3.02-2.26,2.06,0,3.65,1.82,3.65,4.46Zm-1.6,0c0-2.02-.93-3.31-2.56-3.31s-2.58,1.3-2.58,3.31.94,3.31,2.58,3.31,2.56-1.3,2.56-3.31Z"/><path class="cls-1" d="m684.02,354.55c0-2.66,1.63-4.46,4.18-4.46s4.16,1.81,4.16,4.46-1.62,4.47-4.16,4.47-4.18-1.81-4.18-4.47Zm6.74,0c0-2.02-.93-3.31-2.56-3.31s-2.58,1.3-2.58,3.31.94,3.31,2.58,3.31,2.56-1.3,2.56-3.31Z"/><path class="cls-1" d="m701.55,353.5v5.35h-1.57v-5.11c0-1.74-.8-2.5-2.05-2.5s-2.05.77-2.05,2.53v5.07h-1.57v-8.58h1.57v1.74c.38-1.01,1.22-1.92,2.69-1.92,1.94,0,2.98,1.49,2.98,3.41Z"/><path class="cls-1" d="m705.51,352.11c.38-1.2,1.23-2.02,2.82-2.02v1.55h-.48c-1.57,0-2.34.5-2.34,2.03v5.17h-1.57v-8.58h1.57v1.84Z"/><path class="cls-1" d="m717.26,355.02h-6.48c.13,1.86,1.07,2.85,2.5,2.85,1.25,0,1.9-.58,2.23-1.54h1.6c-.5,1.82-1.89,2.69-3.83,2.69-2.59,0-4.08-1.89-4.08-4.47s1.52-4.46,4.07-4.46c2.4,0,4.03,1.7,4.03,4.34,0,.16-.02.38-.03.59Zm-6.47-1.19h4.9c-.1-1.54-1.02-2.59-2.43-2.59s-2.27.88-2.47,2.59Z"/><path class="cls-1" d="m725.38,346.68h1.57v12.17h-1.57v-1.87c-.53,1.23-1.74,2.05-3.03,2.05-2.08,0-3.65-1.83-3.65-4.47s1.58-4.46,3.65-4.46c1.6,0,2.62,1.1,3.03,2.26v-5.67Zm.06,7.88c0-2.02-.94-3.31-2.58-3.31s-2.56,1.3-2.56,3.31.93,3.31,2.56,3.31,2.58-1.3,2.58-3.31Z"/><path class="cls-1" d="m734.94,350.27h1.57v8.58h-1.57v-1.71c-.37.98-1.22,1.89-2.64,1.89-1.94,0-2.95-1.49-2.95-3.41v-5.35h1.57v5.11c0,1.73.77,2.5,2.02,2.5s2-.78,2-2.53v-5.07Z"/><path class="cls-1" d="m738.45,354.55c0-2.66,1.63-4.46,4.18-4.46,2.11,0,3.51,1.28,3.87,3.09h-1.6c-.24-1.06-.98-1.94-2.27-1.94-1.63,0-2.58,1.3-2.58,3.31s.94,3.31,2.58,3.31c1.25,0,2.02-.67,2.37-1.89h1.6c-.45,1.97-2.02,3.04-3.97,3.04-2.54,0-4.18-1.81-4.18-4.47Z"/><path class="cls-1" d="m755.91,355.02h-6.48c.13,1.86,1.07,2.85,2.5,2.85,1.25,0,1.9-.58,2.23-1.54h1.6c-.5,1.82-1.89,2.69-3.83,2.69-2.59,0-4.08-1.89-4.08-4.47s1.52-4.46,4.07-4.46c2.4,0,4.03,1.7,4.03,4.34,0,.16-.02.38-.03.59Zm-6.47-1.19h4.9c-.1-1.54-1.02-2.59-2.43-2.59s-2.27.88-2.47,2.59Z"/><path class="cls-1" d="m635.58,373.76c0-2.66,1.63-4.47,4.18-4.47,2.11,0,3.51,1.28,3.87,3.09h-1.6c-.24-1.06-.98-1.94-2.27-1.94-1.63,0-2.58,1.3-2.58,3.31s.94,3.31,2.58,3.31c1.25,0,2.02-.67,2.37-1.89h1.6c-.45,1.97-2.02,3.04-3.97,3.04-2.54,0-4.18-1.81-4.18-4.46Z"/><path class="cls-1" d="m653.03,374.22h-6.48c.13,1.86,1.07,2.85,2.5,2.85,1.25,0,1.9-.58,2.23-1.54h1.6c-.5,1.83-1.89,2.69-3.83,2.69-2.59,0-4.08-1.89-4.08-4.46s1.52-4.47,4.07-4.47c2.4,0,4.03,1.7,4.03,4.34,0,.16-.02.38-.03.59Zm-6.47-1.18h4.9c-.1-1.54-1.02-2.59-2.43-2.59s-2.27.88-2.47,2.59Z"/><path class="cls-1" d="m656.58,371.31c.38-1.2,1.23-2.02,2.82-2.02v1.55h-.48c-1.57,0-2.34.5-2.34,2.03v5.17h-1.57v-8.58h1.57v1.84Z"/><path class="cls-1" d="m665.53,376.86v1.18h-1.12c-1.49,0-2.66-.72-2.66-2.35v-5.04h-1.81v-1.19h1.81v-2.03h1.57v2.03h2.18v1.19h-2.18v5.04c0,.91.46,1.17,1.25,1.17h.96Z"/><path class="cls-1" d="m667.13,367.99v-2.11h1.7v2.11h-1.7Zm.06,10.05v-8.58h1.57v8.58h-1.57Z"/><path class="cls-1" d="m678.84,378.04h-1.57v-7.39h-3.67v7.39h-1.57v-7.39h-1.78v-1.19h1.78v-1.2c0-1.65,1.15-2.39,2.66-2.39h1.12v1.18h-.96c-.78,0-1.25.26-1.25,1.2v1.2h5.23v8.58Zm-1.63-12.17h1.7v2.11h-1.7v-2.11Z"/><path class="cls-1" d="m680.79,373.76c0-2.66,1.63-4.47,4.18-4.47,2.11,0,3.51,1.28,3.87,3.09h-1.6c-.24-1.06-.98-1.94-2.27-1.94-1.63,0-2.58,1.3-2.58,3.31s.94,3.31,2.58,3.31c1.25,0,2.02-.67,2.37-1.89h1.6c-.45,1.97-2.02,3.04-3.97,3.04-2.54,0-4.18-1.81-4.18-4.46Z"/><path class="cls-1" d="m697.64,372.52v5.52h-1.57v-1.76c-.59,1.2-1.3,1.94-2.96,1.94s-2.88-1.17-2.88-2.75c0-2,2-2.38,3.54-2.54l2.31-.24v-.18c0-1.12-.62-2.07-1.98-2.07-1.2,0-1.87.74-1.98,1.55h-1.6c.19-1.62,1.57-2.71,3.59-2.71,2.61,0,3.55,1.63,3.55,3.23Zm-1.57,1.87v-.64l-1.71.18c-1.18.13-2.53.29-2.53,1.54,0,1.1.86,1.71,1.86,1.71,1.58,0,2.39-1.25,2.39-2.79Z"/><path class="cls-1" d="m704.46,376.86v1.18h-1.12c-1.49,0-2.66-.72-2.66-2.35v-5.04h-1.81v-1.19h1.81v-2.03h1.57v2.03h2.18v1.19h-2.18v5.04c0,.91.46,1.17,1.25,1.17h.96Z"/><path class="cls-1" d="m706.05,367.99v-2.11h1.7v2.11h-1.7Zm.06,10.05v-8.58h1.57v8.58h-1.57Z"/><path class="cls-1" d="m709.64,373.76c0-2.66,1.63-4.47,4.18-4.47s4.16,1.81,4.16,4.47-1.62,4.46-4.16,4.46-4.18-1.81-4.18-4.46Zm6.74,0c0-2.02-.93-3.31-2.56-3.31s-2.58,1.3-2.58,3.31.94,3.31,2.58,3.31,2.56-1.3,2.56-3.31Z"/><path class="cls-1" d="m727.16,372.7v5.35h-1.57v-5.11c0-1.75-.8-2.5-2.05-2.5s-2.05.77-2.05,2.53v5.07h-1.57v-8.58h1.57v1.75c.38-1.01,1.22-1.92,2.69-1.92,1.94,0,2.98,1.49,2.98,3.41Z"/><path class="cls-1" d="m817.95,346.68v1.44h-4.05v10.72h-1.62v-10.72h-4.05v-1.44h9.72Z"/><path class="cls-1" d="m816.98,354.55c0-2.66,1.63-4.46,4.18-4.46s4.16,1.81,4.16,4.46-1.62,4.47-4.16,4.47-4.18-1.81-4.18-4.47Zm6.74,0c0-2.02-.93-3.31-2.56-3.31s-2.58,1.3-2.58,3.31.94,3.31,2.58,3.31,2.56-1.3,2.56-3.31Z"/><path class="cls-1" d="m827.21,348.79v-2.11h1.7v2.11h-1.7Zm.06,10.05v-8.58h1.57v8.58h-1.57Z"/><path class="cls-1" d="m835.88,357.66v1.18h-1.12c-1.49,0-2.66-.72-2.66-2.35v-5.04h-1.81v-1.18h1.81v-2.03h1.57v2.03h2.18v1.18h-2.18v5.04c0,.91.46,1.17,1.25,1.17h.96Z"/><path class="cls-1" d="m843.03,350.27h1.57v8.58h-1.57v-1.71c-.37.98-1.22,1.89-2.64,1.89-1.94,0-2.95-1.49-2.95-3.41v-5.35h1.57v5.11c0,1.73.77,2.5,2.02,2.5s2-.78,2-2.53v-5.07Zm.75-2.91v1.19h-5.55v-1.19h5.55Z"/><path class="cls-1" d="m850.55,354.55c0-2.66,1.63-4.46,4.18-4.46,2.11,0,3.51,1.28,3.87,3.09h-1.6c-.24-1.06-.98-1.94-2.27-1.94-1.63,0-2.58,1.3-2.58,3.31s.94,3.31,2.58,3.31c1.25,0,2.02-.67,2.37-1.89h1.6c-.45,1.97-2.02,3.04-3.97,3.04-2.54,0-4.18-1.81-4.18-4.47Z"/><path class="cls-1" d="m867.4,353.32v5.52h-1.57v-1.76c-.59,1.2-1.3,1.94-2.96,1.94s-2.88-1.17-2.88-2.75c0-2,2-2.38,3.54-2.54l2.31-.24v-.18c0-1.12-.62-2.06-1.98-2.06-1.2,0-1.87.74-1.98,1.55h-1.6c.19-1.62,1.57-2.71,3.59-2.71,2.61,0,3.55,1.63,3.55,3.23Zm-1.57,1.87v-.64l-1.71.18c-1.18.13-2.53.29-2.53,1.54,0,1.1.86,1.71,1.86,1.71,1.58,0,2.39-1.25,2.39-2.79Z"/><path class="cls-1" d="m871.37,352.11c.38-1.2,1.23-2.02,2.82-2.02v1.55h-.48c-1.57,0-2.34.5-2.34,2.03v5.17h-1.57v-8.58h1.57v1.84Z"/><path class="cls-1" d="m884.01,354.55c0,2.64-1.57,4.47-3.65,4.47-1.28,0-2.5-.82-3.02-2.05v1.87h-1.57v-12.17h1.57v5.67c.4-1.15,1.42-2.26,3.02-2.26,2.06,0,3.65,1.82,3.65,4.46Zm-1.6,0c0-2.02-.93-3.31-2.56-3.31s-2.58,1.3-2.58,3.31.94,3.31,2.58,3.31,2.56-1.3,2.56-3.31Z"/><path class="cls-1" d="m885.43,354.55c0-2.66,1.63-4.46,4.18-4.46s4.16,1.81,4.16,4.46-1.62,4.47-4.16,4.47-4.18-1.81-4.18-4.47Zm6.74,0c0-2.02-.93-3.31-2.56-3.31s-2.58,1.3-2.58,3.31.94,3.31,2.58,3.31,2.56-1.3,2.56-3.31Z"/><path class="cls-1" d="m902.95,353.5v5.35h-1.57v-5.11c0-1.74-.8-2.5-2.05-2.5s-2.05.77-2.05,2.53v5.07h-1.57v-8.58h1.57v1.74c.38-1.01,1.22-1.92,2.69-1.92,1.94,0,2.98,1.49,2.98,3.41Z"/><path class="cls-1" d="m906.41,357.66h5.44v1.18h-7.07v-1.58l5.11-5.81h-5.01v-1.18h6.64v1.58l-5.11,5.81Z"/><path class="cls-1" d="m920.99,355.02h-6.48c.13,1.86,1.07,2.85,2.5,2.85,1.25,0,1.9-.58,2.23-1.54h1.6c-.5,1.82-1.89,2.69-3.83,2.69-2.59,0-4.08-1.89-4.08-4.47s1.52-4.46,4.07-4.46c2.4,0,4.03,1.7,4.03,4.34,0,.16-.02.38-.03.59Zm-6.47-1.19h4.9c-.1-1.54-1.02-2.59-2.43-2.59s-2.27.88-2.47,2.59Z"/><path class="cls-1" d="m924.53,352.11c.38-1.2,1.23-2.02,2.82-2.02v1.55h-.48c-1.57,0-2.34.5-2.34,2.03v5.17h-1.57v-8.58h1.57v1.84Z"/><path class="cls-1" d="m928.2,354.55c0-2.66,1.63-4.46,4.18-4.46s4.16,1.81,4.16,4.46-1.62,4.47-4.16,4.47-4.18-1.81-4.18-4.47Zm6.74,0c0-2.02-.93-3.31-2.56-3.31s-2.58,1.3-2.58,3.31.94,3.31,2.58,3.31,2.56-1.3,2.56-3.31Z"/><path class="cls-1" d="m826.58,373.76c0-2.66,1.63-4.47,4.18-4.47,2.11,0,3.51,1.28,3.87,3.09h-1.6c-.24-1.06-.98-1.94-2.27-1.94-1.63,0-2.58,1.3-2.58,3.31s.94,3.31,2.58,3.31c1.25,0,2.02-.67,2.37-1.89h1.6c-.45,1.97-2.02,3.04-3.97,3.04-2.54,0-4.18-1.81-4.18-4.46Z"/><path class="cls-1" d="m844.03,374.22h-6.48c.13,1.86,1.07,2.85,2.5,2.85,1.25,0,1.9-.58,2.23-1.54h1.6c-.5,1.83-1.89,2.69-3.83,2.69-2.59,0-4.08-1.89-4.08-4.46s1.52-4.47,4.07-4.47c2.4,0,4.03,1.7,4.03,4.34,0,.16-.02.38-.03.59Zm-6.47-1.18h4.9c-.1-1.54-1.02-2.59-2.43-2.59s-2.27.88-2.47,2.59Z"/><path class="cls-1" d="m847.58,371.31c.38-1.2,1.23-2.02,2.82-2.02v1.55h-.48c-1.57,0-2.34.5-2.34,2.03v5.17h-1.57v-8.58h1.57v1.84Z"/><path class="cls-1" d="m856.53,376.86v1.18h-1.12c-1.49,0-2.66-.72-2.66-2.35v-5.04h-1.81v-1.19h1.81v-2.03h1.57v2.03h2.18v1.19h-2.18v5.04c0,.91.46,1.17,1.25,1.17h.96Z"/><path class="cls-1" d="m858.13,367.99v-2.11h1.7v2.11h-1.7Zm.06,10.05v-8.58h1.57v8.58h-1.57Z"/><path class="cls-1" d="m869.84,378.04h-1.57v-7.39h-3.67v7.39h-1.57v-7.39h-1.78v-1.19h1.78v-1.2c0-1.65,1.15-2.39,2.66-2.39h1.12v1.18h-.96c-.78,0-1.25.26-1.25,1.2v1.2h5.23v8.58Zm-1.63-12.17h1.7v2.11h-1.7v-2.11Z"/><path class="cls-1" d="m871.79,373.76c0-2.66,1.63-4.47,4.18-4.47,2.11,0,3.51,1.28,3.87,3.09h-1.6c-.24-1.06-.98-1.94-2.27-1.94-1.63,0-2.58,1.3-2.58,3.31s.94,3.31,2.58,3.31c1.25,0,2.02-.67,2.37-1.89h1.6c-.45,1.97-2.02,3.04-3.97,3.04-2.54,0-4.18-1.81-4.18-4.46Z"/><path class="cls-1" d="m888.64,372.52v5.52h-1.57v-1.76c-.59,1.2-1.3,1.94-2.96,1.94s-2.88-1.17-2.88-2.75c0-2,2-2.38,3.54-2.54l2.31-.24v-.18c0-1.12-.62-2.07-1.98-2.07-1.2,0-1.87.74-1.98,1.55h-1.6c.19-1.62,1.57-2.71,3.59-2.71,2.61,0,3.55,1.63,3.55,3.23Zm-1.57,1.87v-.64l-1.71.18c-1.18.13-2.53.29-2.53,1.54,0,1.1.86,1.71,1.86,1.71,1.58,0,2.39-1.25,2.39-2.79Z"/><path class="cls-1" d="m895.46,376.86v1.18h-1.12c-1.49,0-2.66-.72-2.66-2.35v-5.04h-1.81v-1.19h1.81v-2.03h1.57v2.03h2.18v1.19h-2.18v5.04c0,.91.46,1.17,1.25,1.17h.96Z"/><path class="cls-1" d="m897.05,367.99v-2.11h1.7v2.11h-1.7Zm.06,10.05v-8.58h1.57v8.58h-1.57Z"/><path class="cls-1" d="m900.64,373.76c0-2.66,1.63-4.47,4.18-4.47s4.16,1.81,4.16,4.47-1.62,4.46-4.16,4.46-4.18-1.81-4.18-4.46Zm6.74,0c0-2.02-.93-3.31-2.56-3.31s-2.58,1.3-2.58,3.31.94,3.31,2.58,3.31,2.56-1.3,2.56-3.31Z"/><path class="cls-1" d="m918.16,372.7v5.35h-1.57v-5.11c0-1.75-.8-2.5-2.05-2.5s-2.05.77-2.05,2.53v5.07h-1.57v-8.58h1.57v1.75c.38-1.01,1.22-1.92,2.69-1.92,1.94,0,2.98,1.49,2.98,3.41Z"/><path class="cls-2" d="m1041.36,251.84h-2.83v-13.22l-3.01,13.22h-5.06l-2.99-13.13v13.13h-2.84v-13.68h5.51l2.86,13.23,2.84-13.23h5.51v13.68Z"/><path class="cls-2" d="m1052.68,245.69v6.16h-2.72v-1.84c-.56,1.17-1.44,2.05-3.26,2.05s-3.4-1.3-3.4-3.19c0-2.23,2.12-2.79,4.05-2.97l2.57-.25v-.16c0-.99-.58-1.76-1.75-1.76-1.08,0-1.66.63-1.76,1.31h-2.77c.25-2,2.05-3.19,4.54-3.19,3.04,0,4.5,1.64,4.5,3.84Zm-2.75,2v-.4l-1.57.16c-1.12.13-2.25.32-2.25,1.42,0,.95.74,1.53,1.67,1.53,1.4,0,2.14-1.19,2.14-2.72Z"/><path class="cls-2" d="m1057.61,244.62c.38-1.53,1.37-2.77,3.26-2.77v2.7h-.7c-1.71,0-2.54.58-2.54,2.23v5.06h-2.75v-9.78h2.74v2.56Z"/><path class="cls-2" d="m1072.06,251.84h-3.29l-3.67-4.95v4.95h-2.75v-13.68h2.75v7.85l3.53-3.94h3.26l-3.91,4.34,4.09,5.44Z"/><path class="cls-2" d="m1081.98,247.78h-7.04c.2,1.64,1.04,2.41,2.18,2.41,1.06,0,1.58-.45,1.93-1.24h2.77c-.65,2.07-2.38,3.12-4.72,3.12-3.04,0-4.97-2.11-4.97-5.11s2-5.1,4.97-5.1,4.93,2.07,4.93,5.15c0,.23-.02.5-.05.77Zm-7.02-1.84h4.27c-.14-1.39-.97-2.21-2.12-2.21s-1.91.68-2.14,2.21Z"/><path class="cls-2" d="m1089.47,249.83v2.02h-1.55c-1.93,0-3.37-.95-3.37-2.9v-4.86h-1.82v-2.02h1.82v-2.3h2.75v2.3h2.14v2.02h-2.14v4.65c0,.85.41,1.1,1.21,1.1h.95Z"/><g class="cls-4"><path class="cls-1" d="m616.7,61.15l-1.17-3.69h-5.98l-1.17,3.69h-2.99l4.54-13.68h5.22l4.54,13.68h-2.99Zm-6.39-6.07h4.47l-2.23-7.04-2.23,7.04Z"/><path class="cls-1" d="m631.1,47.46h2.83v13.68h-5.49l-4.52-13.22v13.22h-2.83v-13.68h5.51l4.5,13.21v-13.21Z"/><path class="cls-1" d="m646.78,47.46h2.83v13.68h-5.49l-4.52-13.22v13.22h-2.83v-13.68h5.51l4.5,13.21v-13.21Z"/><path class="cls-1" d="m652.3,55.69v-8.23h2.84v8.48c0,2.12.99,3.17,2.86,3.17s2.84-1.06,2.84-3.21v-8.44h2.84v8.19c0,3.57-1.66,5.71-5.69,5.71s-5.71-2.12-5.71-5.67Z"/><path class="cls-1" d="m675.99,61.15l-1.17-3.69h-5.98l-1.17,3.69h-2.99l4.54-13.68h5.22l4.54,13.68h-2.99Zm-6.39-6.07h4.47l-2.23-7.04-2.23,7.04Z"/><path class="cls-1" d="m683.22,58.77h5.92v2.38h-8.77v-13.68h2.84v11.31Z"/><path class="cls-1" d="m693.82,54.3c0-4.34,2.88-7.06,6.7-7.06,3.24,0,5.73,1.82,6.45,4.88h-2.97c-.52-1.48-1.57-2.63-3.48-2.63-2.27,0-3.76,1.89-3.76,4.81s1.55,4.81,3.76,4.81c1.8,0,3.01-.95,3.57-2.66h2.97c-.9,3.38-3.37,4.92-6.55,4.92-3.78,0-6.68-2.7-6.68-7.06Z"/><path class="cls-1" d="m719.91,47.46l-5.11,8.12v5.56h-2.84v-5.53l-5.11-8.16h3.21l3.31,5.47,3.31-5.47h3.24Z"/><path class="cls-1" d="m719.58,54.3c0-4.34,2.88-7.06,6.7-7.06,3.24,0,5.73,1.82,6.45,4.88h-2.97c-.52-1.48-1.57-2.63-3.47-2.63-2.27,0-3.76,1.89-3.76,4.81s1.55,4.81,3.76,4.81c1.8,0,3.01-.95,3.56-2.66h2.97c-.9,3.38-3.37,4.92-6.55,4.92-3.78,0-6.68-2.7-6.68-7.06Z"/><path class="cls-1" d="m737.49,58.77h5.92v2.38h-8.77v-13.68h2.84v11.31Z"/><path class="cls-1" d="m747.99,58.77h6.73v2.38h-9.58v-13.68h9.42v2.38h-6.57v3.1h6.45v2.38h-6.45v3.46Z"/></g><path class="cls-3" d="m300.99,100.81c0-11,9-20,20-20h719.04c11,0,20,9,20,20"/><path class="cls-3" d="m1060.04,274.25c0,11-9,20-20,20H320.99c-11,0-20-9-20-20"/><circle cx="114.62" cy="171.79" r="51.72"/><circle cx="303.39" cy="171.79" r="51.72"/><circle cx="492.15" cy="171.79" r="51.72"/><circle cx="680.92" cy="171.79" r="51.72"/><circle cx="869.69" cy="171.79" r="51.72"/><circle cx="1058.46" cy="171.79" r="51.72"/><polygon class="cls-2" points="205.5 174 198.01 161.4 210.49 161.4 218.01 174.03 210.49 186.65 198.01 186.65 205.5 174"/><polygon class="cls-2" points="395.5 174 388.01 161.4 400.49 161.4 408.01 174.03 400.49 186.65 388.01 186.65 395.5 174"/><polygon class="cls-2" points="585.5 174 578.01 161.4 590.49 161.4 598.01 174.03 590.49 186.65 578.01 186.65 585.5 174"/><polygon class="cls-2" points="775.5 174 768.01 161.4 780.49 161.4 788.01 174.03 780.49 186.65 768.01 186.65 775.5 174"/><polygon class="cls-2" points="682.03 321.52 694.63 314.03 694.63 326.51 682.01 334.03 669.38 326.51 669.38 314.03 682.03 321.52"/><polygon class="cls-2" points="872.03 321.52 884.63 314.03 884.63 326.51 872.01 334.03 859.38 326.51 859.38 314.03 872.03 321.52"/><polygon class="cls-2" points="960.5 174 953.01 161.4 965.49 161.4 973.01 174.03 965.49 186.65 953.01 186.65 960.5 174"/><path class="cls-2" d="m127.57,201.03c.24-.04.48-.08.73-.12-4.86-.34-8.54-2.76-11.43-6.53-2.94-3.84-3.71-8.2-2.86-12.88,1.25-6.94,7.89-13.17,16.36-12.97,8.97.22,15.64,7.84,15.7,14.92.04-.21.08-.4.13-.6v3.45c-.03-.05-.07-.11-.07-.12-.14.83-.22,1.69-.43,2.52-1.05,4.13-3.45,7.33-6.95,9.72-1.44.98-3.02,1.73-4.73,2.1-.78.17-1.59.24-2.37.35.13.04.29.09.44.15h-4.5Zm16.13-16.58c-.03-7.27-6.36-13.73-14.26-13.49-7.3.22-13.73,6.65-13.3,14.6.36,6.74,6.18,13.33,14.41,12.99,7.45-.31,13.39-6.65,13.15-14.1Z"/><path class="cls-1" d="m116.72,152.6c.21,6.47-5.08,12.04-11.74,12.11-6.4.07-11.83-5.25-11.92-11.72-.08-6.31,5.12-11.91,11.78-11.97,6.37-.05,11.86,5.26,11.88,11.58Zm-2.51.56c-3.16.86-6.31,1.22-9.54.57-3.23-.65-6.07-2.08-8.56-4.24-1.43,4.12-.18,8.21,2.92,10.72,2.76,2.24,7.03,2.7,10.16,1.04,3.37-1.78,5.18-5.23,5.02-8.09Zm-.18-2.48c-.71-3.38-3.73-6.47-7.36-7.05-4.1-.66-7.34.92-9.32,3.7,2.22,2.16,4.9,3.47,7.91,4.05,2.97.57,5.91.31,8.77-.69Z"/><path class="cls-1" d="m88.67,183.55c.23,0,.4,0,.58,0,5.92,0,11.83,0,17.75,0,.53,0,1.02.06,1.37.53.47.64.13,1.64-.64,1.84-.21.06-.44.09-.67.09-6.41,0-12.81,0-19.22,0-.64,0-1.25-.07-1.53-.77-.09-.21-.13-.46-.13-.69.06-3.73,1.12-7.15,3.21-10.25,1.13-1.68,2.46-3.16,4.07-4.37,2.39-1.81,5.04-3.12,8.03-3.57,1.24-.19,2.51-.37,3.76-.37,2.99,0,5.8.8,8.42,2.24.43.24.85.47,1.26.74.67.43.82,1.06.45,1.71-.32.55-1.05.73-1.68.35-1.3-.79-2.67-1.4-4.13-1.83-3.91-1.15-7.73-.84-11.45.79-2.68,1.17-4.83,2.97-6.51,5.37-1.61,2.3-2.6,4.83-2.92,7.61-.02.17-.02.35-.03.58Z"/><path class="cls-2" d="m128.67,183.53c0-.71,0-1.38,0-2.06,0-1.34.02-2.68.03-4.02,0-.4.1-.77.41-1.05.33-.29.71-.44,1.14-.29.44.15.75.46.84.93.06.27.08.55.08.82,0,1.74,0,3.48,0,5.22,0,.15,0,.3,0,.5.48,0,.94,0,1.4,0,1.51,0,3.03-.02,4.54-.03.49,0,.94.09,1.26.52.49.64.18,1.63-.6,1.85-.23.06-.47.09-.7.09-1.81,0-3.63,0-5.44,0h-.46v.42c0,1.79,0,3.58,0,5.37,0,.33-.08.67-.19.98-.17.47-.56.69-1.06.69-.48,0-.88-.22-1.04-.67-.13-.4-.17-.85-.18-1.27-.02-1.65-.01-3.3-.01-4.95,0-.17,0-.34,0-.56-.19,0-.33,0-.48,0-1.83,0-3.65,0-5.48,0-.6,0-1.12-.16-1.39-.76-.32-.71.04-1.46.8-1.63.26-.06.55-.07.82-.07,1.8,0,3.6,0,5.4-.01.09,0,.17,0,.3-.01Z"/><path class="cls-1" d="m293.81,141.8c.86.37,1,1.09.97,1.93-.03.91,0,1.81,0,2.78.72,0,1.39,0,2.06,0,.49,0,.97.06,1.41.33.89.54,1.16,1.38,1.16,2.36,0,1.38.04,2.76-.01,4.13-.05,1.14.2,2.19.62,3.25,3.09,7.94,6.13,15.9,9.19,23.85.89,2.3,1.78,4.6,2.66,6.91.2.52.45,1.03.57,1.56.21.94-.1,2.04-1.14,2.54-.27.13-.53.28-.82.44.46,1.17.91,2.33,1.35,3.49.11.29.22.59.32.89.19.57-.06,1.15-.59,1.4-.54.26-1.14.09-1.42-.48-.31-.62-.54-1.29-.8-1.94-.29-.74-.57-1.48-.85-2.22-.05-.12-.1-.23-.17-.37-.12.05-.23.1-.33.14-.51.22-1.01.28-1.56.14-.75-.19-1.28-.6-1.57-1.31-.47-1.14-.93-2.29-1.37-3.44-1.52-3.94-3.03-7.89-4.55-11.83-1.74-4.54-3.49-9.08-5.23-13.62-.02-.06-.06-.12-.12-.23-.38.97-.73,1.88-1.08,2.8-1.61,4.18-3.21,8.37-4.82,12.55-1.68,4.37-3.36,8.73-5.05,13.1-.05.14-.12.28-.17.42-.58,1.62-2.28,2.01-3.6,1.29-.06.15-.13.3-.19.44-.46,1.19-.92,2.39-1.38,3.58-.06.15-.12.3-.2.45-.3.57-.87.79-1.41.56-.57-.25-.86-.86-.64-1.45.54-1.46,1.11-2.91,1.68-4.37-.28-.14-.59-.29-.89-.46-.99-.57-1.32-1.47-1-2.58.33-1.17.82-2.3,1.26-3.44,2-5.22,4.01-10.43,6.02-15.64,1.78-4.63,3.56-9.26,5.35-13.88.23-.6.35-1.2.35-1.84,0-1.45,0-2.89,0-4.34,0-.34,0-.68.04-1.01.15-1.32,1.02-2.12,2.35-2.14.72-.01,1.44,0,2.21,0,0-.13,0-.25,0-.38,0-.91-.01-1.82,0-2.73,0-.48.07-.97.48-1.3.17-.13.38-.21.57-.32.12,0,.23,0,.35,0Zm-1.77,18.42c-1.23-.35-2.22-1.06-3.02-2.05-.05.1-.08.16-.1.23-1.09,2.82-2.18,5.65-3.26,8.47-2.85,7.42-5.71,14.84-8.57,22.25-.12.31-.06.42.24.53.87.32,1.74.65,2.6,1.01.27.11.38.07.48-.21,1.12-2.93,2.26-5.86,3.38-8.8,2-5.19,3.99-10.38,5.99-15.57.75-1.94,1.5-3.88,2.26-5.85Zm18.21,29.25c-4.02-10.46-8.02-20.87-12.04-31.33-.82.99-1.77,1.71-3.01,2.07.04.14.08.27.13.39,2.92,7.58,5.84,15.16,8.76,22.74.67,1.75,1.35,3.5,2.02,5.24.24.63.47,1.26.73,1.89.04.09.21.23.27.2,1.04-.39,2.08-.8,3.15-1.22Zm-13.1-40.64c-.08-.02-.13-.03-.17-.03-2.21,0-4.43,0-6.64,0-.24,0-.26.11-.26.3,0,1.62,0,3.24.01,4.86,0,.55,0,1.12.14,1.63.57,1.99,2.36,2.92,4.46,2.38,1.42-.37,2.35-1.62,2.4-3.2.06-1.85.04-3.7.06-5.56,0-.12,0-.25,0-.38Z"/><path class="cls-2" d="m326.57,141.8c.34.11.7.19,1.02.34,1.28.55,2.04,1.55,2.11,2.92.09,1.85.06,3.71.07,5.56,0,1.88,0,3.76,0,5.63,0,2.05,0,4.11,0,6.16,0,2.68,0,5.36.01,8.05,0,1.99-.01,3.99-.01,5.98,0,2.67.01,5.34.01,8.01,0,3.17,0,6.35-.02,9.52-.02,1.84-.93,3.12-2.52,3.63-.36.11-.75.19-1.13.19-2.97.02-5.95.01-8.92,0-.76,0-1.23-.37-1.35-1.01-.1-.56.27-1.12.83-1.23.22-.04.44-.06.66-.06,2.75,0,5.51.03,8.26.03.28,0,.56-.01.84-.05.55-.06.98-.5.98-1.05,0-2.76,0-5.53,0-8.29,0-.01-.01-.02-.04-.08-.42,0-.87,0-1.32,0-2.19,0-4.39.02-6.58.01-.27,0-.57-.05-.8-.18-.39-.23-.55-.63-.5-1.08.05-.44.3-.74.7-.87.26-.09.55-.13.82-.13,2.44,0,4.88,0,7.31,0h.39v-4.73c-1.67,0-3.32,0-4.98,0-.3,0-.61.01-.91-.01-.56-.04-.99-.48-1.02-1.01-.03-.57.33-1.05.89-1.17.24-.05.49-.07.73-.07,1.75,0,3.5,0,5.28,0v-4.72c-2.55,0-5.09,0-7.63,0-.21,0-.42.02-.63,0-.52-.06-.89-.45-.96-.96-.07-.52.19-.98.69-1.16.26-.09.54-.14.82-.14,2.44-.01,4.88,0,7.31,0h.4v-4.74c-.39,0-.77,0-1.15,0-2.27,0-4.55.01-6.82.02-.82,0-1.36-.55-1.25-1.31.07-.55.58-.94,1.28-.97.4-.02.79,0,1.19,0,2.24,0,4.48,0,6.74,0v-4.72c-1.83,0-3.65,0-5.47,0-.27,0-.57-.02-.82-.12-.41-.16-.66-.65-.61-1.09.05-.49.38-.88.86-.98.25-.05.51-.08.76-.08,1.75,0,3.5,0,5.27,0v-4.72c-2.6,0-5.19,0-7.78,0-.29,0-.6-.01-.85-.12-.43-.19-.61-.59-.6-1.06.01-.46.26-.78.67-.93.27-.1.57-.15.85-.15,2.44-.01,4.88,0,7.31,0,.13,0,.25,0,.4,0,0-.12.01-.21.02-.3,0-1.08,0-2.17,0-3.25,0-.62-.43-1.08-1.04-1.14-.28-.03-.56-.05-.84-.05-3.45,0-6.91,0-10.36,0-.09,0-.19,0-.28,0-1.15.08-1.48.43-1.48,1.58,0,9.13,0,18.27,0,27.4,0,.08,0,.16,0,.24-.03.68-.45,1.15-1.05,1.18-.64.03-1.15-.42-1.19-1.11-.04-.67-.02-1.35-.02-2.03,0-7.8,0-15.61,0-23.41,0-.96-.02-1.91.02-2.87.07-1.52,1.29-2.86,2.79-3.12.15-.03.29-.08.43-.13,4.06,0,8.12,0,12.18,0Z"/><path class="cls-1" d="m508.83,181.95c-.24-.62-.8-1.06-1.5-1.16-.3-.04-.57-.07-.82-.07-1.3,0-2.59,0-3.89,0h-1.39s0-3.17,0-3.17c0-5.79,0-11.58,0-17.37,0-.29-.03-.58-.08-.87-.14-.73-.75-1.19-1.53-1.13-.72.05-1.25.63-1.26,1.38l-.02,1.24c-.03,1.34-.05,2.73-.06,4.1,0,2.51,0,5.02,0,7.53v3.38s0,5.67,0,5.67c0,.18,0,.37.01.55.07,1.02.65,1.58,1.65,1.59,1.17,0,2.34,0,3.52,0h1.28c-1.98,2.13-3.96,4.26-5.94,6.39-.18.19-.36.38-.54.56-.21.21-.42.43-.62.65-1.66,1.81-3.32,3.62-4.98,5.44-.02.02-.03.03-.04.04,0,0,0,0-.01-.01-1.65-1.8-3.31-3.58-4.97-5.37l-7.13-7.7h1.55c1.12.01,2.24.02,3.36,0,.95,0,1.59-.65,1.59-1.61,0-6.94,0-13.87,0-20.81,0-.29-.06-.61-.17-.93-.23-.65-.86-1.01-1.58-.88-.63.11-1.11.69-1.12,1.33l-.02,1.33c-.03,1.33-.05,2.7-.05,4.05,0,3.23,0,6.47,0,9.7v4.9s-1.53,0-1.53,0c-1.2,0-2.4,0-3.59,0-.31,0-.63.02-.99.07-.58.07-1.05.39-1.35.91-.31.53-.5,1.36.35,2.29,1.12,1.23,2.25,2.45,3.38,3.67l2.16,2.34c.6.65,1.2,1.3,1.8,1.94.9.96,1.8,1.93,2.7,2.89l1.31,1.4c.24.26.48.52.73.78.56.6,1.13,1.22,1.71,1.82.31.32.8.75,1.54.85.13.02.25.03.37.03,1.03,0,1.72-.59,2.22-1.13l1.36-1.46c1.8-1.93,3.59-3.86,5.38-5.79,1.2-1.3,2.4-2.6,3.59-3.9l1.21-1.32c.21-.23.42-.45.63-.68.51-.54,1.03-1.1,1.51-1.68.43-.53.55-1.2.32-1.81Z"/><path class="cls-2" d="m484.08,153.21v.29c0,.26,0,.52,0,.77,0,.6,0,1.22.01,1.83.02.74.6,1.32,1.35,1.35.02,0,.05,0,.07,0,.68,0,1.26-.49,1.39-1.18.05-.24.07-.49.07-.72,0-1.28,0-2.57,0-3.85,0-.31-.02-.58-.07-.82-.14-.8-.81-1.37-1.53-1.3-.55.05-1.32.57-1.29,1.53.02.55.01,1.11,0,1.65,0,.15,0,.3,0,.44Z"/><path class="cls-2" d="m501.16,150.69c-.17-.8-.84-1.34-1.56-1.26-.8.09-1.28.67-1.28,1.55,0,.39,0,.79,0,1.18v.8s0,.27,0,.27c0,.41,0,.82,0,1.24,0,.87.51,1.48,1.3,1.55.04,0,.08,0,.12,0,.35,0,.68-.12.94-.34.28-.24.44-.59.46-.98.05-.91.05-1.84.05-2.74,0-.36,0-.72,0-1.08,0-.07-.02-.14-.04-.2Z"/><path class="cls-2" d="m485.31,147.98c.07,0,.13.01.19.01.71,0,1.27-.5,1.4-1.26.05-.31.06-.62.07-.92,0-.13,0-.26.02-.39v-.29s-.02,0-.02,0c0-.07,0-.14,0-.21,0-.09,0-.17-.01-.26-.01-.26-.02-.53-.08-.8-.15-.72-.84-1.23-1.54-1.15-.73.09-1.24.69-1.25,1.48,0,.48-.01.95-.02,1.43v.81c-.02.83.48,1.45,1.24,1.55Z"/><path class="cls-2" d="m499.58,147.98c.06,0,.11,0,.17,0,.69,0,1.27-.48,1.4-1.2.06-.32.07-.65.09-.96,0-.14.01-.27.02-.41v-.29s-.03,0-.03,0c0-.21.01-.43-.01-.65-.03-.3-.09-.65-.23-.97-.24-.55-.93-.9-1.5-.77-.67.15-1.13.69-1.14,1.35-.02.72-.03,1.58-.03,2.42,0,.76.55,1.39,1.26,1.47Z"/><path class="cls-1" d="m711.53,198.5c-.42-.45-.85-.89-1.28-1.33-4.78-4.78-9.55-9.56-14.33-14.34-.16-.16-.32-.3-.48-.44h0c.16-.2.33-.38.48-.56.44-.51.86-.98,1.25-1.48,2.13-2.68,3.56-5.67,4.24-8.89.52-2.46.63-4.9.32-7.25-.39-2.91-1.29-5.58-2.69-7.92-2.46-4.13-5.79-7.11-9.89-8.87-4.27-1.84-8.31-2.37-12.33-1.64-4.72.86-8.73,3-11.93,6.37-2.46,2.58-4.21,5.66-5.2,9.14-.08.28-.12.51-.13.72-.02.65.42,1.23,1.06,1.42.63.18,1.29-.08,1.61-.64.12-.21.23-.47.3-.75.46-1.69,1.19-3.34,2.15-4.89,1.79-2.89,4.15-5.11,7.01-6.59,3.6-1.86,7.48-2.49,11.53-1.86,4.46.69,8.19,2.71,11.09,6.01,2.68,3.06,4.21,6.64,4.55,10.63.26,3.02-.16,5.89-1.23,8.53-1.35,3.31-3.44,6.01-6.23,8.02-3.77,2.72-8.04,3.9-12.7,3.5-2.44-.21-4.67-.84-6.64-1.88-2.17-1.14-3.89-2.44-5.26-3.97-1.92-2.13-3.22-4.35-3.99-6.77-.15-.48-.31-.95-.51-1.4-.27-.59-1.07-.93-1.71-.72-.67.22-1.1.91-.98,1.57.07.39.19.77.3,1.13l.05.16c.62,2.05,1.58,4,2.87,5.79,2.37,3.32,5.54,5.85,9.42,7.53,1.91.83,3.94,1.34,6.22,1.58,1.97.21,4.01.04,6.63-.51,2.5-.53,4.64-1.39,6.55-2.62.39-.25.77-.5,1.16-.77l.34-.23s.06.06.09.08l15.85,15.85.09.1c.15.16.31.32.52.44.25.15.55.21.8.23.59,0,1.05-.32,1.29-.9.25-.6.16-1.15-.25-1.59Z"/><path class="cls-2" d="m678.15,171.22c.12-.19.2-.29.26-.41.68-1.36,1.35-2.73,2.04-4.09.55-1.08,1.16-2.13,1.67-3.23.87-1.84,3.34-1.82,4.34-.2.88,1.41,1.83,2.77,2.77,4.2.12-.13.23-.24.32-.37,1.11-1.44,2.21-2.88,3.33-4.3.22-.28.5-.53.81-.7.43-.24.9-.12,1.26.25.38.39.49.86.28,1.3-.09.19-.2.38-.33.54-1.25,1.6-2.5,3.19-3.75,4.78-.67.85-1.56,1.03-2.56.84-.73-.14-1.14-.69-1.52-1.25-.86-1.27-1.71-2.56-2.56-3.84-.05-.07-.1-.14-.19-.27-.27.55-.52,1.06-.78,1.57-1.04,2.07-2.07,4.13-3.11,6.2-.4.8-1.02,1.31-1.92,1.45-1.14.17-2.22-.48-2.62-1.66-.46-1.33-.86-2.69-1.28-4.03-.67-2.16-1.33-4.32-2.02-6.56-.12.15-.22.25-.29.37-.98,1.69-1.95,3.38-2.94,5.06-.55.95-1.36,1.36-2.49,1.33-1.98-.07-3.95-.04-5.93-.04-2.58,0-5.16.01-7.74.02-.42,0-.82-.03-1.14-.36-.33-.33-.46-.71-.33-1.16.13-.45.44-.73.88-.84.26-.06.54-.08.82-.08,4.47,0,8.94,0,13.41,0,.28,0,.44-.07.58-.33.97-1.71,1.97-3.4,2.93-5.11.78-1.37,1.93-1.6,3.22-1.1.72.28,1.12.87,1.35,1.57.45,1.4.88,2.81,1.32,4.22.58,1.87,1.16,3.74,1.74,5.62.05.17.1.35.18.62Z"/><path class="cls-2" d="m894.12,164.74c-.38-.36-.9-.54-1.51-.51-.59.03-1.07.04-1.53.04h-6.43c-2.86,0-5.72,0-8.58,0-.3,0-.57.03-.81.09-.57.14-1.02.57-1.2,1.14-.18.58-.05,1.2.35,1.65.49.55,1.12.63,1.66.63,3.02,0,6.03,0,9.05,0h3.62c-7.94,7.94-15.88,15.88-23.82,23.83-.24.24-.48.48-.69.76-.45.6-.4,1.38.13,2.05.34.43.78.66,1.23.66.22,0,.43-.05.64-.16.4-.21.81-.51,1.2-.91,1.78-1.77,3.55-3.55,5.32-5.33,1.08-1.09,2.16-2.17,3.24-3.25l1.53-1.53c3.12-3.12,6.34-6.35,9.52-9.51,1.07-1.06,2.18-2.13,3.25-3.16.28-.27.56-.54.84-.81v1.73c-.01,3.53-.02,7.06-.03,10.59,0,.25.02.49.06.7.17.96.89,1.58,1.8,1.54.92-.04,1.59-.72,1.67-1.69.03-.41.05-.84.05-1.32,0-3.75,0-7.5,0-11.25v-4.5c0-.6-.2-1.1-.57-1.47Z"/><path class="cls-1" d="m871.37,147.8c-.22.15-.42.33-.58.49-2.07,2.07-4.14,4.13-6.2,6.2l-5.02,5.02c-2.88,2.87-5.75,5.75-8.62,8.61l-2.66,2.66v-2.59c0-3.12,0-6.24,0-9.36,0-.32,0-.74-.06-1.16-.11-.84-.85-1.51-1.69-1.52h-.02c-.85,0-1.61.66-1.73,1.51-.06.42-.07.84-.07,1.2,0,5.36-.01,10.72-.02,16.09,0,.53.2,1.02.56,1.37.36.36.85.55,1.37.55.01,0,.02,0,.03,0h.75c.85-.03,1.73-.04,2.6-.04,1.89,0,3.78,0,5.67.01,2.13,0,4.25.01,6.38.01h.18c.59,0,1.2,0,1.8-.09.59-.1,1.07-.49,1.28-1.04.22-.58.12-1.23-.28-1.72-.5-.62-1.18-.68-1.83-.68h-12.54s.07-.06.1-.1c5.06-5.05,10.11-10.11,15.17-15.16l7.32-7.31c.14-.14.28-.27.4-.44.54-.69.5-1.56-.1-2.21-.59-.65-1.48-.77-2.2-.3Z"/><path class="cls-1" d="m1083.59,195.59c-.3-.63-.79-.92-1.5-.88-.2.01-.44.02-.49-.03-.05-.05-.05-.25-.05-.51v-4.02c0-7.71,0-15.41,0-23.12,0-.35-.02-.69-.05-1.02-.1-1.02-.95-1.87-1.94-1.94-.68-.05-1.36-.05-2.13-.05h-.17c-.74,0-1.51,0-2.26.06-.93.07-1.82,1-1.87,1.95-.02.49-.05,1.08-.05,1.66,0,7.36,0,14.72,0,22.08v3.81s0,.27,0,.27c0,.26,0,.52,0,.78,0,.06,0,.08,0,.08,0,0-.02.01-.08.01h0c-1.22,0-2.44,0-3.65,0h0c-.07,0-.08,0-.08,0,0,0,0-.02,0-.08.02-1.52.04-3.14.04-4.79,0-2.62,0-5.24-.02-7.86,0-.39-.02-.79-.03-1.17v-.37c-.05-.99-.91-2.09-2.09-2.09h0c-1.42,0-2.84,0-4.27,0h0c-1.1,0-1.99,1.08-2.03,2.02,0,.13-.01.27-.02.4-.01.26-.03.53-.03.8,0,2.6-.01,5.2-.01,7.8,0,1.73,0,3.46.02,5.19,0,.08,0,.12-.01.13,0,0-.02.02-.09.01-1.28,0-2.57,0-3.66,0h0s-.07,0-.07,0c0,0,0-.03,0-.09.02-2.08.02-3.99.02-5.83,0-3.6,0-7.21,0-10.81,0-.49-.02-1.01-.05-1.57-.07-1.24-.88-2.09-2.03-2.11-1.36-.02-2.97-.03-4.55.03-.83.03-1.59.75-1.72,1.63-.08.5-.12,1.04-.12,1.61,0,2.33,0,4.66,0,6.99,0,1.38,0,2.77,0,4.15,0,.81,0,1.63,0,2.44,0,1.13,0,2.26,0,3.39,0,.12-.02.14-.02.14,0,0-.02.02-.13.02-.94,0-2.17-.01-3.41.01-.12,0-.19-.01-.22-.04-.03-.03-.04-.1-.04-.22.01-2.29.02-4.75-.01-7.25,0-.57-.1-1.08-.27-1.48-.32-.76-1-1.2-1.88-1.22-1.5-.03-2.88-.03-4.21,0-.75.02-1.36.4-1.77,1.09-.3.51-.32,1.07-.33,1.55,0,2.68,0,5.09,0,7.37,0,.12-.02.16-.03.16,0,.01-.04.03-.16.02-.35,0-.66.01-.94.05-.46.07-.84.5-.86.99-.02.34.07.64.28.86.22.24.56.37.97.38.62.01,1.25.01,1.86,0h5.44c2.5,0,5,0,7.49,0,2.34,0,4.68,0,7.03,0,3.48,0,6.95,0,10.43,0,2.13,0,4.25,0,6.38,0,2.66,0,5.32,0,7.97,0h0c.74,0,1.2-.28,1.47-.88v-.49s0-.06,0-.06Zm-8.17-29.28h3.81v3.41c0,8.28,0,16.55,0,24.83,0,.12-.02.15-.02.15,0,0-.02.02-.14.02-1.13,0-2.32,0-3.53,0-.12,0-.14-.02-.14-.02,0,0-.02-.02,0-.13.02-.17.02-.35.02-.52v-27.75Zm-12.26,23.11c-.01-.21-.02-.42-.02-.63,0-1.28,0-2.56,0-3.83,0-1.39,0-2.78,0-4.18,0-.09.01-.11.01-.12,0,0,.02-.01.08-.01h0c.95,0,1.9,0,2.87,0h.86s0,8.12,0,8.12v1.46c0,1.43,0,2.87,0,4.3,0,.12-.01.14-.02.15,0,0-.02.02-.12.02-1.29,0-2.58,0-3.56,0-.1,0-.12-.01-.12-.01,0,0-.02-.02-.01-.12.01-.54.01-1.07.01-1.61,0-.4,0-.81,0-1.21,0-.26.02-.53.03-.79.01-.29.03-.58.03-.87,0-.23-.01-.46-.02-.69Zm-12.31-11.93c0-.29,0-.57,0-.85,0-.02.04-.06.06-.08,1.06,0,2.13,0,3.23,0h.54s0,11.78,0,11.78v1.77c0,1.5,0,2.99,0,4.49,0,.09-.01.11-.01.11,0,0-.02,0-.11.01-1.21,0-2.42,0-3.62,0-.06,0-.08,0-.09,0,0,0,0,0,0,0,0,0,0-.02,0-.08.01-1.62.02-3.23.02-4.85,0-3.93,0-7.86,0-11.78,0-.17,0-.35,0-.52Zm-12.27,9.41c0-.09.01-.1.01-.1s.01-.01.07-.01h0c.95,0,1.89,0,2.87,0h.86s0,2.09,0,2.09c0,1.9,0,3.81,0,5.71,0,.1-.02.12-.02.12,0,0-.02.01-.1.02-.66,0-1.32,0-1.97,0-.54,0-1.08,0-1.62,0h0c-.07,0-.09-.01-.09-.01,0,0-.02-.02-.02-.11,0-2.57,0-5.14,0-7.7Z"/><path class="cls-2" d="m1080.75,147.39c-.24-.24-.58-.37-.99-.37h-1.02c-2.54,0-5.09.01-7.63.02-.18,0-.4,0-.61.06-.53.12-.9.56-.95,1.12-.05.54.29,1.07.79,1.25.26.09.56.14.85.14,1.44,0,2.89,0,4.33,0h1.43c-2.22,2.38-4.44,4.77-6.66,7.15l-1.13,1.21c-.99,1.06-1.98,2.12-2.97,3.18-.72.77-1.56,1.11-2.49,1.01-.42-.04-.88-.14-1.35-.3-2.12-.69-4.24-1.39-6.35-2.1l-1.65-.55c-1.39-.46-2.66-.44-3.89.05-.78.31-1.44.83-2,1.3l-9.69,8.08-.38.32c-.39.32-.79.65-1.18,1-.56.51-.64,1.19-.2,1.74.25.31.58.46.94.46.27,0,.54-.09.8-.27.17-.12.32-.24.49-.38,2.15-1.78,4.3-3.56,6.45-5.34.41-.34.82-.68,1.24-1.02,1.05-.87,2.14-1.77,3.2-2.66,1.16-.98,2.37-1.21,3.81-.71,2.69.93,5.44,1.83,7.77,2.58,2.62.84,4.86.24,6.65-1.79.19-.22.39-.44.59-.65l2.33-2.51c2.41-2.6,4.83-5.2,7.24-7.81v1.24c0,1.36,0,2.72,0,4.08,0,.22.02.43.07.64.15.67.74,1.13,1.35,1.06.68-.08,1.14-.63,1.15-1.37,0-3.24,0-6.12.02-8.82,0-.43-.13-.79-.37-1.04Z"/></g></svg>