<?xml version="1.0" encoding="UTF-8"?><svg id="Layer_2" xmlns="http://www.w3.org/2000/svg" viewBox="0 0 549.86 935.61"><defs><style>.cls-1{fill:#fff;}.cls-2{fill:#57a67b;}.cls-3{fill:none;stroke:#fff;stroke-miterlimit:10;stroke-width:2px;}.cls-4,.cls-5{opacity:.5;}.cls-6{opacity:.8;}.cls-5{fill:#333;}</style></defs><g id="Layer_1-2"><rect class="cls-6" width="549.86" height="935.61"/><rect class="cls-5" x="10.14" y="10" width="529.72" height="915.61" rx="4" ry="4"/></g><g id="Layer_3"><path class="cls-2" d="m197.22,93.46l-3.3-5.66h-2.78v5.66h-3.16v-15.2h6.04c3.66,0,5.94,1.88,5.94,4.78,0,1.96-1.04,3.48-2.9,4.24l3.76,6.18h-3.6Zm-6.08-12.56v4.26h2.96c1.64,0,2.62-.8,2.62-2.12s-.98-2.14-2.62-2.14h-2.96Z"/><path class="cls-2" d="m212.38,88.94h-7.82c.22,1.82,1.16,2.68,2.42,2.68,1.18,0,1.76-.5,2.14-1.38h3.08c-.72,2.3-2.64,3.46-5.24,3.46-3.38,0-5.52-2.34-5.52-5.68s2.22-5.66,5.52-5.66,5.48,2.3,5.48,5.72c0,.26-.02.56-.06.86Zm-7.8-2.04h4.74c-.16-1.54-1.08-2.46-2.36-2.46s-2.12.76-2.38,2.46Z"/><path class="cls-2" d="m222,82.6h3.04v10.66c0,3.28-2.82,4.36-5.34,4.36s-4.98-1.1-5.28-3.6h3.08c.22,1.02,1.12,1.52,2.2,1.52,1.3,0,2.3-.7,2.3-2.22v-2.32c-.6,1.36-1.92,2.36-3.6,2.36-2.68,0-4.48-2.24-4.48-5.5s1.82-5.5,4.48-5.5c1.92,0,3.12,1.22,3.6,2.64v-2.4Zm.12,5.26c0-2.14-.9-3.42-2.54-3.42s-2.54,1.28-2.54,3.42.88,3.42,2.54,3.42,2.54-1.28,2.54-3.42Z"/><path class="cls-2" d="m227.52,81.13v-2.88h3.16v2.88h-3.16Zm.04,12.32v-10.86h3.06v10.86h-3.06Z"/><path class="cls-2" d="m232.52,90.18h3.08c.22,1.1,1.14,1.44,2.1,1.44,1.34,0,2.06-.44,2.06-1.14,0-.66-.44-.98-1.92-1.32l-1.92-.42c-2.06-.44-3.18-1.4-3.18-3.02,0-2.06,2.12-3.36,4.72-3.36,2.46,0,4.52,1.02,5,3.12h-3.08c-.24-.68-1.02-1.04-1.9-1.04-.98,0-1.82.36-1.82,1.04,0,.62.62.86,1.74,1.1l1.92.42c2.28.5,3.36,1.48,3.36,3.24,0,2.22-2.2,3.46-5.1,3.46-2.68,0-4.68-1.14-5.06-3.52Z"/><path class="cls-2" d="m250.9,91.22v2.24h-1.72c-2.14,0-3.74-1.06-3.74-3.22v-5.4h-2.02v-2.24h2.02v-2.56h3.06v2.56h2.38v2.24h-2.38v5.16c0,.94.46,1.22,1.34,1.22h1.06Z"/><path class="cls-2" d="m262.96,88.94h-7.82c.22,1.82,1.16,2.68,2.42,2.68,1.18,0,1.76-.5,2.14-1.38h3.08c-.72,2.3-2.64,3.46-5.24,3.46-3.38,0-5.52-2.34-5.52-5.68s2.22-5.66,5.52-5.66,5.48,2.3,5.48,5.72c0,.26-.02.56-.06.86Zm-7.8-2.04h4.74c-.16-1.54-1.08-2.46-2.36-2.46s-2.12.76-2.38,2.46Z"/><path class="cls-2" d="m268.04,85.44c.42-1.7,1.52-3.08,3.62-3.08v3h-.78c-1.9,0-2.82.64-2.82,2.48v5.62h-3.06v-10.86h3.04v2.84Z"/><path class="cls-2" d="m208.93,244.56h-3.14v-14.68l-3.34,14.68h-5.62l-3.32-14.58v14.58h-3.16v-15.2h6.12l3.18,14.7,3.16-14.7h6.12v15.2Z"/><path class="cls-2" d="m221.97,240.04h-7.82c.22,1.82,1.16,2.68,2.42,2.68,1.18,0,1.76-.5,2.14-1.38h3.08c-.72,2.3-2.64,3.46-5.24,3.46-3.38,0-5.52-2.34-5.52-5.68s2.22-5.66,5.52-5.66,5.48,2.3,5.48,5.72c0,.26-.02.56-.06.86Zm-7.8-2.04h4.74c-.16-1.54-1.08-2.46-2.36-2.46s-2.12.76-2.38,2.46Z"/><path class="cls-2" d="m233.89,237.72v6.84h-3.02v-2.04c-.62,1.3-1.6,2.28-3.62,2.28s-3.78-1.44-3.78-3.54c0-2.48,2.36-3.1,4.5-3.3l2.86-.28v-.18c0-1.1-.64-1.96-1.94-1.96-1.2,0-1.84.7-1.96,1.46h-3.08c.28-2.22,2.28-3.54,5.04-3.54,3.38,0,5,1.82,5,4.26Zm-3.06,2.22v-.44l-1.74.18c-1.24.14-2.5.36-2.5,1.58,0,1.06.82,1.7,1.86,1.7,1.56,0,2.38-1.32,2.38-3.02Z"/><path class="cls-2" d="m235.65,241.28h3.08c.22,1.1,1.14,1.44,2.1,1.44,1.34,0,2.06-.44,2.06-1.14,0-.66-.44-.98-1.92-1.32l-1.92-.42c-2.06-.44-3.18-1.4-3.18-3.02,0-2.06,2.12-3.36,4.72-3.36,2.46,0,4.52,1.02,5,3.12h-3.08c-.24-.68-1.02-1.04-1.9-1.04-.98,0-1.82.36-1.82,1.04,0,.62.62.86,1.74,1.1l1.92.42c2.28.5,3.36,1.48,3.36,3.24,0,2.22-2.2,3.46-5.1,3.46-2.68,0-4.68-1.14-5.06-3.52Z"/><path class="cls-2" d="m254.61,233.7h3.06v10.86h-3.02v-2.14c-.5,1.3-1.52,2.38-3.42,2.38-2.52,0-3.58-1.82-3.58-4.22v-6.88h3.06v6.22c0,1.88.7,2.74,1.96,2.74s1.94-.92,1.94-2.78v-6.18Z"/><path class="cls-2" d="m263.29,236.54c.42-1.7,1.52-3.08,3.62-3.08v3h-.78c-1.9,0-2.82.64-2.82,2.48v5.62h-3.06v-10.86h3.04v2.84Z"/><path class="cls-2" d="m278.73,240.04h-7.82c.22,1.82,1.16,2.68,2.42,2.68,1.18,0,1.76-.5,2.14-1.38h3.08c-.72,2.3-2.64,3.46-5.24,3.46-3.38,0-5.52-2.34-5.52-5.68s2.22-5.66,5.52-5.66,5.48,2.3,5.48,5.72c0,.26-.02.56-.06.86Zm-7.8-2.04h4.74c-.16-1.54-1.08-2.46-2.36-2.46s-2.12.76-2.38,2.46Z"/><path class="cls-2" d="m199.59,399.61l-3.3-5.66h-2.78v5.66h-3.16v-15.2h6.04c3.66,0,5.94,1.88,5.94,4.78,0,1.96-1.04,3.48-2.9,4.24l3.76,6.18h-3.6Zm-6.08-12.56v4.26h2.96c1.64,0,2.62-.8,2.62-2.12s-.98-2.14-2.62-2.14h-2.96Z"/><path class="cls-2" d="m214.75,395.09h-7.82c.22,1.82,1.16,2.68,2.42,2.68,1.18,0,1.76-.5,2.14-1.38h3.08c-.72,2.3-2.64,3.46-5.24,3.46-3.38,0-5.52-2.34-5.52-5.68s2.22-5.66,5.52-5.66,5.48,2.3,5.48,5.72c0,.26-.02.56-.06.86Zm-7.8-2.04h4.74c-.16-1.54-1.08-2.46-2.36-2.46s-2.12.76-2.38,2.46Z"/><path class="cls-2" d="m224.33,384.4h3.02v15.2h-3.02v-2.2c-.58,1.42-1.92,2.44-3.6,2.44-2.68,0-4.48-2.4-4.48-5.66s1.8-5.68,4.48-5.68c1.92,0,3.14,1.3,3.6,2.72v-6.82Zm.12,9.78c0-2.22-.9-3.6-2.56-3.6s-2.52,1.38-2.52,3.6.86,3.58,2.52,3.58,2.56-1.38,2.56-3.58Z"/><path class="cls-2" d="m236.79,388.74h3.06v10.86h-3.02v-2.14c-.5,1.3-1.52,2.38-3.42,2.38-2.52,0-3.58-1.82-3.58-4.22v-6.88h3.06v6.22c0,1.88.7,2.74,1.96,2.74s1.94-.92,1.94-2.78v-6.18Z"/><path class="cls-2" d="m241.85,394.16c0-3.4,2.3-5.66,5.62-5.66,2.86,0,4.84,1.6,5.3,4.14h-3.08c-.26-1.14-.96-2.06-2.22-2.06-1.62,0-2.5,1.38-2.5,3.58s.92,3.6,2.5,3.6c1.26,0,1.98-.76,2.32-2.02h3.08c-.52,2.66-2.68,4.1-5.4,4.1-3.36,0-5.62-2.26-5.62-5.68Z"/><path class="cls-2" d="m265.01,395.09h-7.82c.22,1.82,1.16,2.68,2.42,2.68,1.18,0,1.76-.5,2.14-1.38h3.08c-.72,2.3-2.64,3.46-5.24,3.46-3.38,0-5.52-2.34-5.52-5.68s2.22-5.66,5.52-5.66,5.48,2.3,5.48,5.72c0,.26-.02.56-.06.86Zm-7.8-2.04h4.74c-.16-1.54-1.08-2.46-2.36-2.46s-2.12.76-2.38,2.46Z"/><path class="cls-2" d="m203.68,553.09l-1.3-4.1h-6.64l-1.3,4.1h-3.32l5.04-15.2h5.8l5.04,15.2h-3.32Zm-7.1-6.74h4.96l-2.48-7.82-2.48,7.82Z"/><path class="cls-2" d="m215.06,542.22h3.06v10.86h-3.02v-2.14c-.5,1.3-1.52,2.38-3.42,2.38-2.52,0-3.58-1.82-3.58-4.22v-6.88h3.06v6.22c0,1.88.7,2.74,1.96,2.74s1.94-.92,1.94-2.78v-6.18Z"/><path class="cls-2" d="m228.24,537.88h3.02v15.2h-3.02v-2.2c-.58,1.42-1.92,2.44-3.6,2.44-2.68,0-4.48-2.4-4.48-5.66s1.8-5.68,4.48-5.68c1.92,0,3.14,1.3,3.6,2.72v-6.82Zm.12,9.78c0-2.22-.9-3.6-2.56-3.6s-2.52,1.38-2.52,3.6.86,3.58,2.52,3.58,2.56-1.38,2.56-3.58Z"/><path class="cls-2" d="m233.8,540.76v-2.88h3.16v2.88h-3.16Zm.04,12.32v-10.86h3.06v10.86h-3.06Z"/><path class="cls-2" d="m245.96,550.85v2.24h-1.72c-2.14,0-3.74-1.06-3.74-3.22v-5.4h-2.02v-2.24h2.02v-2.56h3.06v2.56h2.38v2.24h-2.38v5.16c0,.94.46,1.22,1.34,1.22h1.06Z"/><path class="cls-2" d="m191.94,701.84c0-4.78,3.12-7.84,7.6-7.84s7.6,3.06,7.6,7.84-3.12,7.84-7.6,7.84-7.6-3.06-7.6-7.84Zm11.94,0c0-3.24-1.72-5.34-4.34-5.34s-4.34,2.1-4.34,5.34,1.72,5.34,4.34,5.34,4.34-2.1,4.34-5.34Z"/><path class="cls-2" d="m222.78,696.42c-.88,0-1.34.28-1.34,1.26v.9h2.44v2.24h-2.44v8.62h-3.06v-8.62h-5.06v8.62h-3.06v-8.62h-1.96v-2.24h1.96v-1.08c0-2.18,1.6-3.26,3.74-3.26h1.76v2.18h-1.08c-.9,0-1.36.28-1.36,1.26v.9h5.06v-1.08c0-2.18,1.58-3.26,3.74-3.26h1.76v2.18h-1.1Z"/><path class="cls-2" d="m224.66,706.16h3.08c.22,1.1,1.14,1.44,2.1,1.44,1.34,0,2.06-.44,2.06-1.14,0-.66-.44-.98-1.92-1.32l-1.92-.42c-2.06-.44-3.18-1.4-3.18-3.02,0-2.06,2.12-3.36,4.72-3.36,2.46,0,4.52,1.02,5,3.12h-3.08c-.24-.68-1.02-1.04-1.9-1.04-.98,0-1.82.36-1.82,1.04,0,.62.62.86,1.74,1.1l1.92.42c2.28.5,3.36,1.48,3.36,3.24,0,2.22-2.2,3.46-5.1,3.46-2.68,0-4.68-1.14-5.06-3.52Z"/><path class="cls-2" d="m247.12,704.92h-7.82c.22,1.82,1.16,2.68,2.42,2.68,1.18,0,1.76-.5,2.14-1.38h3.08c-.72,2.3-2.64,3.46-5.24,3.46-3.38,0-5.52-2.34-5.52-5.68s2.22-5.66,5.52-5.66,5.48,2.3,5.48,5.72c0,.26-.02.56-.06.86Zm-7.8-2.04h4.74c-.16-1.54-1.08-2.46-2.36-2.46s-2.12.76-2.38,2.46Z"/><path class="cls-2" d="m255.44,707.2v2.24h-1.72c-2.14,0-3.74-1.06-3.74-3.22v-5.4h-2.02v-2.24h2.02v-2.56h3.06v2.56h2.38v2.24h-2.38v5.16c0,.94.46,1.22,1.34,1.22h1.06Z"/><path class="cls-1" d="m368.52,530.06v1.44h-4.05v10.72h-1.62v-10.72h-4.05v-1.44h9.72Z"/><path class="cls-1" d="m367.55,537.94c0-2.66,1.63-4.46,4.18-4.46s4.16,1.81,4.16,4.46-1.62,4.47-4.16,4.47-4.18-1.81-4.18-4.47Zm6.74,0c0-2.02-.93-3.31-2.56-3.31s-2.58,1.3-2.58,3.31.94,3.31,2.58,3.31,2.56-1.3,2.56-3.31Z"/><path class="cls-1" d="m377.78,532.17v-2.11h1.7v2.11h-1.7Zm.06,10.05v-8.58h1.57v8.58h-1.57Z"/><path class="cls-1" d="m386.45,541.04v1.18h-1.12c-1.49,0-2.66-.72-2.66-2.35v-5.04h-1.81v-1.18h1.81v-2.03h1.57v2.03h2.18v1.18h-2.18v5.04c0,.91.46,1.17,1.25,1.17h.96Z"/><path class="cls-1" d="m393.6,533.65h1.57v8.58h-1.57v-1.71c-.37.98-1.22,1.89-2.64,1.89-1.94,0-2.95-1.49-2.95-3.41v-5.35h1.57v5.11c0,1.73.77,2.5,2.02,2.5s2-.78,2-2.53v-5.07Zm.75-2.91v1.19h-5.55v-1.19h5.55Z"/><path class="cls-1" d="m401.12,537.94c0-2.66,1.63-4.46,4.18-4.46,2.11,0,3.51,1.28,3.87,3.09h-1.6c-.24-1.06-.98-1.94-2.27-1.94-1.63,0-2.58,1.3-2.58,3.31s.94,3.31,2.58,3.31c1.25,0,2.02-.67,2.37-1.89h1.6c-.45,1.97-2.02,3.04-3.97,3.04-2.54,0-4.18-1.81-4.18-4.47Z"/><path class="cls-1" d="m417.97,536.7v5.52h-1.57v-1.76c-.59,1.2-1.3,1.94-2.96,1.94s-2.88-1.17-2.88-2.75c0-2,2-2.38,3.54-2.54l2.31-.24v-.18c0-1.12-.62-2.06-1.98-2.06-1.2,0-1.87.74-1.98,1.55h-1.6c.19-1.62,1.57-2.71,3.59-2.71,2.61,0,3.55,1.63,3.55,3.23Zm-1.57,1.87v-.64l-1.71.18c-1.18.13-2.53.29-2.53,1.54,0,1.1.86,1.71,1.86,1.71,1.58,0,2.39-1.25,2.39-2.79Z"/><path class="cls-1" d="m421.94,535.49c.38-1.2,1.23-2.02,2.82-2.02v1.55h-.48c-1.57,0-2.34.5-2.34,2.03v5.17h-1.57v-8.58h1.57v1.84Z"/><path class="cls-1" d="m434.58,537.94c0,2.64-1.57,4.47-3.65,4.47-1.28,0-2.5-.82-3.02-2.05v1.87h-1.57v-12.17h1.57v5.67c.4-1.15,1.42-2.26,3.02-2.26,2.06,0,3.65,1.82,3.65,4.46Zm-1.6,0c0-2.02-.93-3.31-2.56-3.31s-2.58,1.3-2.58,3.31.94,3.31,2.58,3.31,2.56-1.3,2.56-3.31Z"/><path class="cls-1" d="m436,537.94c0-2.66,1.63-4.46,4.18-4.46s4.16,1.81,4.16,4.46-1.62,4.47-4.16,4.47-4.18-1.81-4.18-4.47Zm6.74,0c0-2.02-.93-3.31-2.56-3.31s-2.58,1.3-2.58,3.31.94,3.31,2.58,3.31,2.56-1.3,2.56-3.31Z"/><path class="cls-1" d="m453.52,536.88v5.35h-1.57v-5.11c0-1.74-.8-2.5-2.05-2.5s-2.05.77-2.05,2.53v5.07h-1.57v-8.58h1.57v1.74c.38-1.01,1.22-1.92,2.69-1.92,1.94,0,2.98,1.49,2.98,3.41Z"/><path class="cls-1" d="m457.49,535.49c.38-1.2,1.23-2.02,2.82-2.02v1.55h-.48c-1.57,0-2.34.5-2.34,2.03v5.17h-1.57v-8.58h1.57v1.84Z"/><path class="cls-1" d="m469.23,538.4h-6.48c.13,1.86,1.07,2.85,2.5,2.85,1.25,0,1.9-.58,2.23-1.54h1.6c-.5,1.82-1.89,2.69-3.83,2.69-2.59,0-4.08-1.89-4.08-4.47s1.52-4.46,4.07-4.46c2.4,0,4.03,1.7,4.03,4.34,0,.16-.02.38-.03.59Zm-6.47-1.19h4.9c-.1-1.54-1.02-2.59-2.43-2.59s-2.27.88-2.47,2.59Z"/><path class="cls-1" d="m477.36,530.06h1.57v12.17h-1.57v-1.87c-.53,1.23-1.74,2.05-3.03,2.05-2.08,0-3.65-1.83-3.65-4.47s1.58-4.46,3.65-4.46c1.6,0,2.62,1.1,3.03,2.26v-5.67Zm.06,7.88c0-2.02-.94-3.31-2.58-3.31s-2.56,1.3-2.56,3.31.93,3.31,2.56,3.31,2.58-1.3,2.58-3.31Z"/><path class="cls-1" d="m486.91,533.65h1.57v8.58h-1.57v-1.71c-.37.98-1.22,1.89-2.64,1.89-1.94,0-2.95-1.49-2.95-3.41v-5.35h1.57v5.11c0,1.73.77,2.5,2.02,2.5s2-.78,2-2.53v-5.07Z"/><path class="cls-1" d="m490.43,537.94c0-2.66,1.63-4.46,4.18-4.46,2.11,0,3.51,1.28,3.87,3.09h-1.6c-.24-1.06-.98-1.94-2.27-1.94-1.63,0-2.58,1.3-2.58,3.31s.94,3.31,2.58,3.31c1.25,0,2.02-.67,2.37-1.89h1.6c-.45,1.97-2.02,3.04-3.97,3.04-2.54,0-4.18-1.81-4.18-4.47Z"/><path class="cls-1" d="m507.89,538.4h-6.48c.13,1.86,1.07,2.85,2.5,2.85,1.25,0,1.9-.58,2.23-1.54h1.6c-.5,1.82-1.89,2.69-3.83,2.69-2.59,0-4.08-1.89-4.08-4.47s1.52-4.46,4.07-4.46c2.4,0,4.03,1.7,4.03,4.34,0,.16-.02.38-.03.59Zm-6.47-1.19h4.9c-.1-1.54-1.02-2.59-2.43-2.59s-2.27.88-2.47,2.59Z"/><path class="cls-1" d="m359.22,557.14c0-2.66,1.63-4.47,4.18-4.47,2.11,0,3.51,1.28,3.87,3.09h-1.6c-.24-1.06-.98-1.94-2.27-1.94-1.63,0-2.58,1.3-2.58,3.31s.94,3.31,2.58,3.31c1.25,0,2.02-.67,2.37-1.89h1.6c-.45,1.97-2.02,3.04-3.97,3.04-2.54,0-4.18-1.81-4.18-4.46Z"/><path class="cls-1" d="m376.68,557.6h-6.48c.13,1.86,1.07,2.85,2.5,2.85,1.25,0,1.9-.58,2.23-1.54h1.6c-.5,1.83-1.89,2.69-3.83,2.69-2.59,0-4.08-1.89-4.08-4.46s1.52-4.47,4.07-4.47c2.4,0,4.03,1.7,4.03,4.34,0,.16-.02.38-.03.59Zm-6.47-1.18h4.9c-.1-1.54-1.02-2.59-2.43-2.59s-2.27.88-2.47,2.59Z"/><path class="cls-1" d="m380.22,554.69c.38-1.2,1.23-2.02,2.82-2.02v1.55h-.48c-1.57,0-2.34.5-2.34,2.03v5.17h-1.57v-8.58h1.57v1.84Z"/><path class="cls-1" d="m389.17,560.24v1.18h-1.12c-1.49,0-2.66-.72-2.66-2.35v-5.04h-1.81v-1.19h1.81v-2.03h1.57v2.03h2.18v1.19h-2.18v5.04c0,.91.46,1.17,1.25,1.17h.96Z"/><path class="cls-1" d="m390.77,551.37v-2.11h1.7v2.11h-1.7Zm.06,10.05v-8.58h1.57v8.58h-1.57Z"/><path class="cls-1" d="m402.48,561.43h-1.57v-7.39h-3.67v7.39h-1.57v-7.39h-1.78v-1.19h1.78v-1.2c0-1.65,1.15-2.39,2.66-2.39h1.12v1.18h-.96c-.78,0-1.25.26-1.25,1.2v1.2h5.23v8.58Zm-1.63-12.17h1.7v2.11h-1.7v-2.11Z"/><path class="cls-1" d="m404.43,557.14c0-2.66,1.63-4.47,4.18-4.47,2.11,0,3.51,1.28,3.87,3.09h-1.6c-.24-1.06-.98-1.94-2.27-1.94-1.63,0-2.58,1.3-2.58,3.31s.94,3.31,2.58,3.31c1.25,0,2.02-.67,2.37-1.89h1.6c-.45,1.97-2.02,3.04-3.97,3.04-2.54,0-4.18-1.81-4.18-4.46Z"/><path class="cls-1" d="m421.28,555.9v5.52h-1.57v-1.76c-.59,1.2-1.3,1.94-2.96,1.94s-2.88-1.17-2.88-2.75c0-2,2-2.38,3.54-2.54l2.31-.24v-.18c0-1.12-.62-2.07-1.98-2.07-1.2,0-1.87.74-1.98,1.55h-1.6c.19-1.62,1.57-2.71,3.59-2.71,2.61,0,3.55,1.63,3.55,3.23Zm-1.57,1.87v-.64l-1.71.18c-1.18.13-2.53.29-2.53,1.54,0,1.1.86,1.71,1.86,1.71,1.58,0,2.39-1.25,2.39-2.79Z"/><path class="cls-1" d="m428.1,560.24v1.18h-1.12c-1.49,0-2.66-.72-2.66-2.35v-5.04h-1.81v-1.19h1.81v-2.03h1.57v2.03h2.18v1.19h-2.18v5.04c0,.91.46,1.17,1.25,1.17h.96Z"/><path class="cls-1" d="m429.7,551.37v-2.11h1.7v2.11h-1.7Zm.06,10.05v-8.58h1.57v8.58h-1.57Z"/><path class="cls-1" d="m433.28,557.14c0-2.66,1.63-4.47,4.18-4.47s4.16,1.81,4.16,4.47-1.62,4.46-4.16,4.46-4.18-1.81-4.18-4.46Zm6.74,0c0-2.02-.93-3.31-2.56-3.31s-2.58,1.3-2.58,3.31.94,3.31,2.58,3.31,2.56-1.3,2.56-3.31Z"/><path class="cls-1" d="m450.8,556.08v5.35h-1.57v-5.11c0-1.75-.8-2.5-2.05-2.5s-2.05.77-2.05,2.53v5.07h-1.57v-8.58h1.57v1.75c.38-1.01,1.22-1.92,2.69-1.92,1.94,0,2.98,1.49,2.98,3.41Z"/><path class="cls-1" d="m368.52,681.84v1.44h-4.05v10.72h-1.62v-10.72h-4.05v-1.44h9.72Z"/><path class="cls-1" d="m367.55,689.71c0-2.66,1.63-4.47,4.18-4.47s4.16,1.81,4.16,4.47-1.62,4.47-4.16,4.47-4.18-1.81-4.18-4.47Zm6.74,0c0-2.02-.93-3.31-2.56-3.31s-2.58,1.3-2.58,3.31.94,3.31,2.58,3.31,2.56-1.3,2.56-3.31Z"/><path class="cls-1" d="m377.78,683.95v-2.11h1.7v2.11h-1.7Zm.06,10.05v-8.58h1.57v8.58h-1.57Z"/><path class="cls-1" d="m386.45,692.82v1.18h-1.12c-1.49,0-2.66-.72-2.66-2.35v-5.04h-1.81v-1.18h1.81v-2.03h1.57v2.03h2.18v1.18h-2.18v5.04c0,.91.46,1.17,1.25,1.17h.96Z"/><path class="cls-1" d="m393.6,685.42h1.57v8.58h-1.57v-1.71c-.37.98-1.22,1.89-2.64,1.89-1.94,0-2.95-1.49-2.95-3.41v-5.35h1.57v5.11c0,1.73.77,2.5,2.02,2.5s2-.78,2-2.53v-5.07Zm.75-2.91v1.18h-5.55v-1.18h5.55Z"/><path class="cls-1" d="m401.12,689.71c0-2.66,1.63-4.47,4.18-4.47,2.11,0,3.51,1.28,3.87,3.09h-1.6c-.24-1.06-.98-1.94-2.27-1.94-1.63,0-2.58,1.3-2.58,3.31s.94,3.31,2.58,3.31c1.25,0,2.02-.67,2.37-1.89h1.6c-.45,1.97-2.02,3.04-3.97,3.04-2.54,0-4.18-1.81-4.18-4.47Z"/><path class="cls-1" d="m417.97,688.48v5.52h-1.57v-1.76c-.59,1.2-1.3,1.94-2.96,1.94s-2.88-1.17-2.88-2.75c0-2,2-2.38,3.54-2.54l2.31-.24v-.18c0-1.12-.62-2.07-1.98-2.07-1.2,0-1.87.74-1.98,1.55h-1.6c.19-1.62,1.57-2.71,3.59-2.71,2.61,0,3.55,1.63,3.55,3.23Zm-1.57,1.87v-.64l-1.71.18c-1.18.13-2.53.29-2.53,1.54,0,1.1.86,1.71,1.86,1.71,1.58,0,2.39-1.25,2.39-2.79Z"/><path class="cls-1" d="m421.94,687.26c.38-1.2,1.23-2.02,2.82-2.02v1.55h-.48c-1.57,0-2.34.5-2.34,2.03v5.17h-1.57v-8.58h1.57v1.84Z"/><path class="cls-1" d="m434.58,689.71c0,2.64-1.57,4.47-3.65,4.47-1.28,0-2.5-.82-3.02-2.05v1.87h-1.57v-12.17h1.57v5.67c.4-1.15,1.42-2.26,3.02-2.26,2.06,0,3.65,1.83,3.65,4.47Zm-1.6,0c0-2.02-.93-3.31-2.56-3.31s-2.58,1.3-2.58,3.31.94,3.31,2.58,3.31,2.56-1.3,2.56-3.31Z"/><path class="cls-1" d="m436,689.71c0-2.66,1.63-4.47,4.18-4.47s4.16,1.81,4.16,4.47-1.62,4.47-4.16,4.47-4.18-1.81-4.18-4.47Zm6.74,0c0-2.02-.93-3.31-2.56-3.31s-2.58,1.3-2.58,3.31.94,3.31,2.58,3.31,2.56-1.3,2.56-3.31Z"/><path class="cls-1" d="m453.52,688.65v5.35h-1.57v-5.11c0-1.74-.8-2.5-2.05-2.5s-2.05.77-2.05,2.53v5.07h-1.57v-8.58h1.57v1.75c.38-1.01,1.22-1.92,2.69-1.92,1.94,0,2.98,1.49,2.98,3.41Z"/><path class="cls-1" d="m456.97,692.82h5.44v1.18h-7.07v-1.58l5.11-5.81h-5.01v-1.18h6.64v1.58l-5.11,5.81Z"/><path class="cls-1" d="m471.55,690.18h-6.48c.13,1.86,1.07,2.85,2.5,2.85,1.25,0,1.9-.58,2.23-1.54h1.6c-.5,1.83-1.89,2.69-3.83,2.69-2.59,0-4.08-1.89-4.08-4.47s1.52-4.47,4.07-4.47c2.4,0,4.03,1.7,4.03,4.34,0,.16-.02.38-.03.59Zm-6.47-1.18h4.9c-.1-1.54-1.02-2.59-2.43-2.59s-2.27.88-2.47,2.59Z"/><path class="cls-1" d="m475.1,687.26c.38-1.2,1.23-2.02,2.82-2.02v1.55h-.48c-1.57,0-2.34.5-2.34,2.03v5.17h-1.57v-8.58h1.57v1.84Z"/><path class="cls-1" d="m478.77,689.71c0-2.66,1.63-4.47,4.18-4.47s4.16,1.81,4.16,4.47-1.62,4.47-4.16,4.47-4.18-1.81-4.18-4.47Zm6.74,0c0-2.02-.93-3.31-2.56-3.31s-2.58,1.3-2.58,3.31.94,3.31,2.58,3.31,2.56-1.3,2.56-3.31Z"/><path class="cls-1" d="m359.22,708.91c0-2.66,1.63-4.47,4.18-4.47,2.11,0,3.51,1.28,3.87,3.09h-1.6c-.24-1.06-.98-1.94-2.27-1.94-1.63,0-2.58,1.3-2.58,3.31s.94,3.31,2.58,3.31c1.25,0,2.02-.67,2.37-1.89h1.6c-.45,1.97-2.02,3.04-3.97,3.04-2.54,0-4.18-1.81-4.18-4.47Z"/><path class="cls-1" d="m376.68,709.38h-6.48c.13,1.86,1.07,2.85,2.5,2.85,1.25,0,1.9-.58,2.23-1.54h1.6c-.5,1.83-1.89,2.69-3.83,2.69-2.59,0-4.08-1.89-4.08-4.47s1.52-4.47,4.07-4.47c2.4,0,4.03,1.7,4.03,4.34,0,.16-.02.38-.03.59Zm-6.47-1.18h4.9c-.1-1.54-1.02-2.59-2.43-2.59s-2.27.88-2.47,2.59Z"/><path class="cls-1" d="m380.22,706.46c.38-1.2,1.23-2.02,2.82-2.02v1.55h-.48c-1.57,0-2.34.5-2.34,2.03v5.17h-1.57v-8.58h1.57v1.84Z"/><path class="cls-1" d="m389.17,712.02v1.18h-1.12c-1.49,0-2.66-.72-2.66-2.35v-5.04h-1.81v-1.18h1.81v-2.03h1.57v2.03h2.18v1.18h-2.18v5.04c0,.91.46,1.17,1.25,1.17h.96Z"/><path class="cls-1" d="m390.77,703.15v-2.11h1.7v2.11h-1.7Zm.06,10.05v-8.58h1.57v8.58h-1.57Z"/><path class="cls-1" d="m402.48,713.2h-1.57v-7.4h-3.67v7.4h-1.57v-7.4h-1.78v-1.18h1.78v-1.2c0-1.65,1.15-2.38,2.66-2.38h1.12v1.18h-.96c-.78,0-1.25.26-1.25,1.2v1.2h5.23v8.58Zm-1.63-12.17h1.7v2.11h-1.7v-2.11Z"/><path class="cls-1" d="m404.43,708.91c0-2.66,1.63-4.47,4.18-4.47,2.11,0,3.51,1.28,3.87,3.09h-1.6c-.24-1.06-.98-1.94-2.27-1.94-1.63,0-2.58,1.3-2.58,3.31s.94,3.31,2.58,3.31c1.25,0,2.02-.67,2.37-1.89h1.6c-.45,1.97-2.02,3.04-3.97,3.04-2.54,0-4.18-1.81-4.18-4.47Z"/><path class="cls-1" d="m421.28,707.68v5.52h-1.57v-1.76c-.59,1.2-1.3,1.94-2.96,1.94s-2.88-1.17-2.88-2.75c0-2,2-2.38,3.54-2.54l2.31-.24v-.18c0-1.12-.62-2.07-1.98-2.07-1.2,0-1.87.74-1.98,1.55h-1.6c.19-1.62,1.57-2.71,3.59-2.71,2.61,0,3.55,1.63,3.55,3.23Zm-1.57,1.87v-.64l-1.71.18c-1.18.13-2.53.29-2.53,1.54,0,1.1.86,1.71,1.86,1.71,1.58,0,2.39-1.25,2.39-2.79Z"/><path class="cls-1" d="m428.1,712.02v1.18h-1.12c-1.49,0-2.66-.72-2.66-2.35v-5.04h-1.81v-1.18h1.81v-2.03h1.57v2.03h2.18v1.18h-2.18v5.04c0,.91.46,1.17,1.25,1.17h.96Z"/><path class="cls-1" d="m429.7,703.15v-2.11h1.7v2.11h-1.7Zm.06,10.05v-8.58h1.57v8.58h-1.57Z"/><path class="cls-1" d="m433.28,708.91c0-2.66,1.63-4.47,4.18-4.47s4.16,1.81,4.16,4.47-1.62,4.47-4.16,4.47-4.18-1.81-4.18-4.47Zm6.74,0c0-2.02-.93-3.31-2.56-3.31s-2.58,1.3-2.58,3.31.94,3.31,2.58,3.31,2.56-1.3,2.56-3.31Z"/><path class="cls-1" d="m450.8,707.86v5.35h-1.57v-5.11c0-1.74-.8-2.5-2.05-2.5s-2.05.77-2.05,2.53v5.07h-1.57v-8.58h1.57v1.75c.38-1.01,1.22-1.92,2.69-1.92,1.94,0,2.98,1.49,2.98,3.41Z"/><path class="cls-2" d="m211.3,872.07h-3.14v-14.68l-3.34,14.68h-5.62l-3.32-14.58v14.58h-3.16v-15.2h6.12l3.18,14.7,3.16-14.7h6.12v15.2Z"/><path class="cls-2" d="m223.88,865.23v6.84h-3.02v-2.04c-.62,1.3-1.6,2.28-3.62,2.28s-3.78-1.44-3.78-3.54c0-2.48,2.36-3.1,4.5-3.3l2.86-.28v-.18c0-1.1-.64-1.96-1.94-1.96-1.2,0-1.84.7-1.96,1.46h-3.08c.28-2.22,2.28-3.54,5.04-3.54,3.38,0,5,1.82,5,4.26Zm-3.06,2.22v-.44l-1.74.18c-1.24.14-2.5.36-2.5,1.58,0,1.06.82,1.7,1.86,1.7,1.56,0,2.38-1.32,2.38-3.02Z"/><path class="cls-2" d="m229.36,864.05c.42-1.7,1.52-3.08,3.62-3.08v3h-.78c-1.9,0-2.82.64-2.82,2.48v5.62h-3.06v-10.86h3.04v2.84Z"/><path class="cls-2" d="m245.42,872.07h-3.66l-4.08-5.5v5.5h-3.06v-15.2h3.06v8.72l3.92-4.38h3.62l-4.34,4.82,4.54,6.04Z"/><path class="cls-2" d="m256.44,867.55h-7.82c.22,1.82,1.16,2.68,2.42,2.68,1.18,0,1.76-.5,2.14-1.38h3.08c-.72,2.3-2.64,3.46-5.24,3.46-3.38,0-5.52-2.34-5.52-5.68s2.22-5.66,5.52-5.66,5.48,2.3,5.48,5.72c0,.26-.02.56-.06.86Zm-7.8-2.04h4.74c-.16-1.54-1.08-2.46-2.36-2.46s-2.12.76-2.38,2.46Z"/><path class="cls-2" d="m264.76,869.83v2.24h-1.72c-2.14,0-3.74-1.06-3.74-3.22v-5.4h-2.02v-2.24h2.02v-2.56h3.06v2.56h2.38v2.24h-2.38v5.16c0,.94.46,1.22,1.34,1.22h1.06Z"/><g class="cls-4"><path class="cls-1" d="m377.35,294.61l-1.95-6.15h-9.96l-1.95,6.15h-4.98l7.56-22.8h8.7l7.56,22.8h-4.98Zm-10.65-10.11h7.44l-3.72-11.73-3.72,11.73Z"/><path class="cls-1" d="m401.35,271.81h4.71v22.8h-9.15l-7.53-22.02v22.02h-4.71v-22.8h9.18l7.5,22.02v-22.02Z"/><path class="cls-1" d="m427.48,271.81h4.71v22.8h-9.15l-7.53-22.02v22.02h-4.71v-22.8h9.18l7.5,22.02v-22.02Z"/><path class="cls-1" d="m436.69,285.52v-13.71h4.74v14.13c0,3.54,1.65,5.28,4.77,5.28s4.74-1.77,4.74-5.34v-14.07h4.74v13.65c0,5.94-2.76,9.51-9.48,9.51s-9.51-3.54-9.51-9.45Z"/><path class="cls-1" d="m476.17,294.61l-1.95-6.15h-9.96l-1.95,6.15h-4.98l7.56-22.8h8.7l7.56,22.8h-4.98Zm-10.65-10.11h7.44l-3.72-11.73-3.72,11.73Z"/><path class="cls-1" d="m488.23,290.65h9.87v3.96h-14.61v-22.8h4.74v18.84Z"/><path class="cls-1" d="m359.74,319.21c0-7.23,4.8-11.76,11.16-11.76,5.4,0,9.54,3.03,10.74,8.13h-4.95c-.87-2.46-2.61-4.38-5.79-4.38-3.78,0-6.27,3.15-6.27,8.01s2.58,8.01,6.27,8.01c3,0,5.01-1.59,5.94-4.44h4.95c-1.5,5.64-5.61,8.19-10.92,8.19-6.3,0-11.13-4.5-11.13-11.76Z"/><path class="cls-1" d="m403.21,307.81l-8.52,13.53v9.27h-4.74v-9.21l-8.52-13.59h5.34l5.52,9.12,5.52-9.12h5.4Z"/><path class="cls-1" d="m402.67,319.21c0-7.23,4.8-11.76,11.16-11.76,5.4,0,9.54,3.03,10.74,8.13h-4.95c-.87-2.46-2.61-4.38-5.79-4.38-3.78,0-6.27,3.15-6.27,8.01s2.58,8.01,6.27,8.01c3,0,5.01-1.59,5.94-4.44h4.95c-1.5,5.64-5.61,8.19-10.92,8.19-6.3,0-11.13-4.5-11.13-11.76Z"/><path class="cls-1" d="m432.52,326.65h9.87v3.96h-14.61v-22.8h4.74v18.84Z"/><path class="cls-1" d="m450.01,326.65h11.22v3.96h-15.96v-22.8h15.69v3.96h-10.95v5.16h10.74v3.96h-10.74v5.76Z"/></g><path class="cls-3" d="m295.8,232.46c11,0,20,9,20,20v589.04c0,11-9,20-20,20"/><path class="cls-3" d="m77.36,861.5c-11,0-20-9-20-20V252.46c0-11,9-20,20-20"/><circle cx="132.56" cy="80.45" r="40"/><circle cx="131.63" cy="234.08" r="40"/><circle cx="130.96" cy="391.61" r="40"/><circle cx="131.63" cy="544.16" r="40"/><circle cx="130.42" cy="699.8" r="40"/><circle cx="132.16" cy="856.16" r="40"/><polygon class="cls-2" points="130.98 153.48 143.58 145.98 143.58 158.46 130.96 165.98 118.33 158.46 118.33 145.98 130.98 153.48"/><polygon class="cls-2" points="130.98 309.48 143.58 301.98 143.58 314.46 130.96 321.98 118.33 314.46 118.33 301.98 130.98 309.48"/><polygon class="cls-2" points="130.98 466.48 143.58 458.98 143.58 471.46 130.96 478.98 118.33 471.46 118.33 458.98 130.98 466.48"/><polygon class="cls-2" points="130.98 619.48 143.58 611.98 143.58 624.46 130.96 631.98 118.33 624.46 118.33 611.98 130.98 619.48"/><polygon class="cls-2" points="130.98 775.48 143.58 767.98 143.58 780.46 130.96 787.98 118.33 780.46 118.33 767.98 130.98 775.48"/><polygon class="cls-2" points="336.38 544.14 328.89 531.54 341.37 531.54 348.89 544.16 341.37 556.79 328.89 556.79 336.38 544.14"/><polygon class="cls-2" points="336.38 698.14 328.89 685.54 341.37 685.54 348.89 698.16 341.37 710.79 328.89 710.79 336.38 698.14"/><path class="cls-2" d="m142.58,103.07c.19-.03.37-.06.56-.09-3.76-.26-6.6-2.13-8.84-5.05-2.28-2.97-2.87-6.34-2.22-9.96.97-5.37,6.1-10.19,12.65-10.03,6.93.17,12.1,6.06,12.14,11.54.03-.16.07-.31.1-.47v2.67s-.05-.08-.06-.09c-.11.64-.17,1.31-.33,1.95-.82,3.2-2.67,5.67-5.37,7.51-1.12.76-2.33,1.33-3.66,1.63-.61.13-1.23.18-1.84.27.1.03.22.07.34.11h-3.48Zm12.47-12.82c-.02-5.62-4.92-10.62-11.03-10.43-5.65.17-10.62,5.14-10.29,11.29.28,5.21,4.78,10.31,11.15,10.05,5.76-.24,10.36-5.15,10.17-10.9Z"/><path class="cls-1" d="m134.18,65.61c.16,5-3.93,9.31-9.08,9.37-4.95.05-9.15-4.06-9.22-9.06-.07-4.88,3.96-9.21,9.11-9.26,4.93-.04,9.17,4.07,9.19,8.96Zm-1.94.43c-2.44.67-4.88.94-7.38.44-2.5-.5-4.69-1.61-6.62-3.28-1.11,3.18-.14,6.35,2.25,8.29,2.14,1.73,5.44,2.09,7.86.8,2.6-1.38,4.01-4.04,3.88-6.26Zm-.14-1.92c-.55-2.61-2.89-5-5.69-5.46-3.17-.51-5.68.72-7.2,2.86,1.72,1.67,3.79,2.68,6.12,3.13,2.3.44,4.57.24,6.78-.54Z"/><path class="cls-1" d="m112.49,89.55c.18,0,.31,0,.45,0,4.58,0,9.15,0,13.73,0,.41,0,.79.04,1.06.41.36.5.1,1.27-.49,1.42-.17.04-.34.07-.51.07-4.95,0-9.91,0-14.86,0-.49,0-.97-.05-1.18-.59-.07-.17-.1-.36-.1-.53.05-2.89.87-5.53,2.48-7.93.87-1.3,1.9-2.45,3.15-3.38,1.85-1.4,3.89-2.41,6.21-2.76.96-.15,1.94-.28,2.91-.28,2.31,0,4.48.62,6.51,1.73.33.18.66.37.98.57.52.34.64.82.34,1.32-.25.43-.81.57-1.3.27-1.01-.61-2.07-1.09-3.19-1.42-3.03-.89-5.98-.65-8.86.61-2.07.9-3.74,2.3-5.03,4.15-1.24,1.78-2.01,3.73-2.26,5.89-.02.13-.01.27-.02.45Z"/><path class="cls-2" d="m143.42,89.54c0-.55,0-1.07,0-1.59,0-1.04.01-2.07.02-3.11,0-.31.07-.59.32-.81.26-.23.55-.34.88-.22.34.12.58.36.65.72.04.21.06.42.06.63,0,1.34,0,2.69,0,4.03,0,.12,0,.23,0,.39.37,0,.73,0,1.08,0,1.17,0,2.34-.01,3.51-.02.38,0,.72.07.98.4.38.5.14,1.26-.46,1.43-.17.05-.36.07-.54.07-1.4,0-2.81,0-4.21,0h-.35v.32c0,1.38,0,2.77,0,4.15,0,.25-.06.52-.15.76-.13.37-.43.54-.82.53-.37,0-.68-.17-.8-.52-.1-.31-.13-.66-.14-.99-.02-1.28,0-2.55,0-3.83,0-.13,0-.27,0-.44-.14,0-.26,0-.37,0-1.41,0-2.83,0-4.24,0-.46,0-.87-.12-1.07-.59-.25-.55.03-1.13.62-1.26.2-.05.42-.05.63-.05,1.39,0,2.79,0,4.18,0,.07,0,.13,0,.23,0Z"/><path class="cls-1" d="m124.22,210.89c.67.29.77.85.75,1.49-.02.7,0,1.4,0,2.15.55,0,1.07,0,1.59,0,.38,0,.75.05,1.09.26.69.42.9,1.07.9,1.82,0,1.06.03,2.13-.01,3.19-.04.89.16,1.69.48,2.51,2.39,6.14,4.74,12.3,7.11,18.45.69,1.78,1.37,3.56,2.06,5.34.15.4.35.79.44,1.21.16.72-.07,1.58-.88,1.96-.21.1-.41.22-.63.34.35.91.7,1.8,1.05,2.7.09.23.17.45.25.68.15.44-.04.89-.46,1.09-.42.2-.88.07-1.1-.37-.24-.48-.42-.99-.62-1.5-.22-.57-.44-1.14-.66-1.71-.04-.09-.08-.18-.13-.29-.1.04-.18.07-.26.11-.39.17-.78.22-1.21.11-.58-.15-.99-.46-1.22-1.01-.36-.88-.72-1.77-1.06-2.66-1.18-3.05-2.34-6.1-3.52-9.15-1.35-3.51-2.7-7.02-4.05-10.54-.02-.05-.05-.09-.09-.18-.29.75-.57,1.46-.84,2.16-1.24,3.24-2.48,6.47-3.73,9.71-1.3,3.38-2.6,6.75-3.9,10.13-.04.11-.09.22-.13.33-.45,1.26-1.77,1.56-2.79,1-.05.12-.1.23-.15.34-.36.92-.71,1.85-1.07,2.77-.05.12-.1.23-.15.34-.23.44-.68.61-1.09.43-.44-.19-.67-.66-.5-1.12.42-1.13.86-2.25,1.3-3.38-.21-.11-.46-.23-.69-.36-.77-.44-1.02-1.14-.77-2,.26-.91.64-1.78.97-2.66,1.55-4.03,3.1-8.06,4.66-12.1,1.38-3.58,2.75-7.16,4.14-10.73.18-.46.27-.93.27-1.42,0-1.12,0-2.24,0-3.36,0-.26,0-.52.03-.78.11-1.02.79-1.64,1.82-1.66.56-.01,1.11,0,1.71,0,0-.1,0-.19,0-.29,0-.7,0-1.41,0-2.11,0-.37.05-.75.37-1.01.13-.1.29-.16.44-.25.09,0,.18,0,.27,0Zm-1.37,14.24c-.95-.27-1.71-.82-2.34-1.59-.04.08-.06.13-.08.18-.84,2.18-1.68,4.37-2.52,6.55-2.21,5.74-4.41,11.47-6.63,17.21-.09.24-.04.32.19.41.68.24,1.35.5,2.01.78.21.09.29.05.37-.16.87-2.27,1.75-4.53,2.62-6.8,1.54-4.01,3.09-8.03,4.63-12.04.58-1.5,1.16-3,1.75-4.53Zm14.08,22.62c-3.11-8.09-6.2-16.14-9.31-24.23-.64.77-1.37,1.32-2.33,1.6.03.1.06.21.1.3,2.26,5.86,4.52,11.73,6.77,17.59.52,1.35,1.04,2.7,1.56,4.06.19.49.37.98.56,1.46.03.07.16.18.21.16.81-.3,1.61-.62,2.43-.94Zm-10.13-31.43c-.06-.01-.1-.02-.13-.02-1.71,0-3.43,0-5.14,0-.18,0-.2.09-.2.23,0,1.25,0,2.51.01,3.76,0,.42,0,.86.11,1.26.44,1.54,1.82,2.26,3.45,1.84,1.1-.28,1.82-1.25,1.86-2.48.05-1.43.03-2.86.04-4.3,0-.1,0-.19,0-.29Z"/><path class="cls-2" d="m149.56,210.89c.26.09.54.15.79.26.99.43,1.58,1.2,1.63,2.26.07,1.43.04,2.87.05,4.3,0,1.45,0,2.9,0,4.36,0,1.59,0,3.18,0,4.76,0,2.07,0,4.15,0,6.22,0,1.54,0,3.08,0,4.63,0,2.07,0,4.13,0,6.2,0,2.45,0,4.91-.02,7.36-.01,1.42-.72,2.42-1.95,2.81-.28.09-.58.14-.87.14-2.3.01-4.6,0-6.9,0-.59,0-.95-.28-1.04-.78-.08-.43.21-.86.64-.95.17-.03.34-.04.51-.04,2.13,0,4.26.02,6.39.03.22,0,.43-.01.65-.04.42-.05.75-.39.76-.82,0-2.14,0-4.28,0-6.41,0,0,0-.02-.03-.06-.33,0-.67,0-1.02,0-1.7,0-3.39.02-5.09.01-.21,0-.44-.04-.62-.14-.3-.18-.42-.48-.39-.83.04-.34.23-.57.54-.68.2-.07.42-.1.63-.1,1.89,0,3.77,0,5.66,0h.3v-3.66c-1.29,0-2.57,0-3.85,0-.23,0-.47,0-.7,0-.44-.03-.77-.37-.79-.78-.03-.44.25-.81.69-.9.18-.04.38-.06.56-.06,1.35,0,2.71,0,4.08,0v-3.65c-1.97,0-3.94,0-5.9,0-.16,0-.33.01-.49,0-.4-.05-.69-.34-.74-.74-.05-.4.15-.76.53-.9.2-.07.42-.11.63-.11,1.89,0,3.77,0,5.66,0h.31v-3.66c-.3,0-.59,0-.89,0-1.76,0-3.52,0-5.28.02-.64,0-1.05-.43-.97-1.02.06-.42.45-.72.99-.75.31-.01.61,0,.92,0,1.73,0,3.46,0,5.22,0v-3.65c-1.41,0-2.82,0-4.23,0-.21,0-.44-.02-.63-.09-.32-.13-.51-.5-.47-.84.04-.38.29-.68.67-.76.19-.04.39-.06.59-.06,1.35,0,2.71,0,4.08,0v-3.65c-2.01,0-4.01,0-6.02,0-.22,0-.46,0-.66-.1-.33-.15-.47-.46-.46-.82.01-.35.2-.6.52-.72.21-.08.44-.11.66-.11,1.89,0,3.77,0,5.66,0,.1,0,.19,0,.31,0,0-.09.01-.16.01-.23,0-.84,0-1.68,0-2.52,0-.48-.33-.84-.81-.88-.22-.02-.43-.04-.65-.04-2.67,0-5.34,0-8.01,0-.07,0-.14,0-.22,0-.89.06-1.14.33-1.14,1.22,0,7.06,0,14.13,0,21.19,0,.06,0,.13,0,.19-.02.52-.35.89-.81.91-.49.02-.89-.32-.92-.86-.03-.52-.02-1.05-.02-1.57,0-6.04,0-12.07,0-18.11,0-.74-.02-1.48.02-2.22.05-1.18,1-2.21,2.16-2.41.11-.02.22-.07.33-.1,3.14,0,6.28,0,9.42,0Z"/><path class="cls-1" d="m143.85,399.46c-.19-.48-.62-.82-1.16-.9-.23-.03-.44-.05-.63-.05-1,0-2.01,0-3.01,0h-1.07s0-2.45,0-2.45c0-4.48,0-8.96,0-13.43,0-.22-.02-.45-.06-.67-.11-.57-.58-.92-1.18-.87-.56.04-.97.49-.98,1.07l-.02.96c-.02,1.04-.04,2.11-.05,3.17,0,1.94,0,3.88,0,5.82v2.61s0,4.38,0,4.38c0,.14,0,.29,0,.43.05.79.51,1.22,1.27,1.23.91,0,1.81,0,2.72,0h.99c-1.53,1.65-3.06,3.29-4.59,4.94-.14.15-.28.29-.42.44-.16.17-.32.33-.48.5-1.29,1.4-2.57,2.8-3.85,4.21-.01.01-.02.03-.03.03,0,0,0,0,0-.01-1.28-1.39-2.56-2.77-3.84-4.16l-5.52-5.96h1.2c.87,0,1.73.01,2.6,0,.74,0,1.23-.51,1.23-1.25,0-5.37,0-10.73,0-16.1,0-.22-.05-.47-.13-.72-.18-.5-.67-.78-1.22-.68-.49.09-.86.53-.87,1.03l-.02,1.03c-.02,1.03-.04,2.09-.04,3.13,0,2.5,0,5,0,7.5v3.79s-1.18,0-1.18,0c-.93,0-1.85,0-2.78,0-.24,0-.49.02-.77.05-.45.06-.81.3-1.04.7-.24.41-.39,1.05.27,1.77.87.95,1.74,1.89,2.61,2.83l1.67,1.81c.46.5.93,1,1.39,1.5.69.75,1.39,1.49,2.09,2.24l1.02,1.09c.19.2.37.4.56.6.43.46.88.94,1.32,1.41.24.25.62.58,1.19.66.1.01.2.02.29.02.79,0,1.33-.46,1.72-.87l1.05-1.13c1.39-1.49,2.78-2.98,4.16-4.48.93-1,1.85-2.01,2.78-3.01l.94-1.02c.16-.18.32-.35.49-.52.39-.42.8-.85,1.17-1.3.33-.41.43-.93.24-1.4Z"/><path class="cls-2" d="m124.72,377.24v.22c0,.2,0,.4,0,.6,0,.46,0,.94,0,1.42.02.57.47,1.02,1.05,1.05.02,0,.04,0,.05,0,.53,0,.97-.38,1.07-.91.04-.19.05-.38.05-.56,0-.99,0-1.99,0-2.98,0-.24-.02-.45-.05-.64-.11-.62-.63-1.06-1.18-1-.43.04-1.02.44-1,1.19.01.42,0,.86,0,1.28,0,.11,0,.23,0,.34Z"/><path class="cls-2" d="m137.93,375.29c-.13-.62-.65-1.03-1.2-.98-.62.07-.99.52-.99,1.2,0,.3,0,.61,0,.91v.62s0,.21,0,.21c0,.32,0,.64,0,.96,0,.68.4,1.15,1.01,1.2.03,0,.06,0,.09,0,.27,0,.53-.09.72-.26.21-.19.34-.45.36-.75.04-.71.04-1.42.04-2.12,0-.28,0-.56,0-.84,0-.06-.01-.1-.03-.16Z"/><path class="cls-2" d="m125.66,373.2c.05,0,.1,0,.15,0,.55,0,.98-.38,1.08-.98.04-.24.05-.48.06-.71,0-.1,0-.2.01-.3v-.22s-.02,0-.02,0c0-.06,0-.11,0-.17,0-.07,0-.13-.01-.2,0-.2-.02-.41-.06-.62-.12-.55-.65-.95-1.19-.89-.56.07-.96.54-.96,1.14,0,.37,0,.74-.01,1.11v.62c-.02.64.37,1.13.96,1.2Z"/><path class="cls-2" d="m136.7,373.2s.09,0,.13,0c.54,0,.98-.37,1.08-.93.05-.25.06-.5.07-.74,0-.11,0-.21.02-.32v-.23s-.02,0-.02,0c0-.16,0-.33-.01-.5-.03-.23-.07-.5-.18-.75-.18-.42-.72-.7-1.16-.6-.52.12-.87.54-.88,1.05-.01.56-.03,1.22-.02,1.87,0,.59.42,1.08.98,1.14Z"/><path class="cls-1" d="m155.3,564.83c-.32-.35-.66-.69-.99-1.03-3.69-3.7-7.39-7.39-11.09-11.09-.12-.12-.25-.23-.37-.34h0c.13-.15.25-.3.37-.44.34-.39.66-.76.97-1.15,1.65-2.07,2.75-4.38,3.28-6.87.4-1.9.49-3.79.24-5.6-.3-2.25-1-4.31-2.08-6.13-1.9-3.19-4.47-5.5-7.65-6.86-3.31-1.42-6.42-1.83-9.53-1.27-3.65.67-6.75,2.32-9.23,4.92-1.9,2-3.26,4.38-4.03,7.07-.06.22-.09.39-.1.56-.02.5.32.95.82,1.1.49.14,1-.07,1.25-.5.1-.16.17-.36.23-.58.36-1.31.92-2.58,1.66-3.78,1.39-2.24,3.21-3.95,5.42-5.09,2.78-1.44,5.78-1.92,8.92-1.44,3.45.53,6.34,2.1,8.57,4.65,2.07,2.37,3.26,5.13,3.52,8.22.2,2.34-.12,4.56-.95,6.59-1.04,2.56-2.66,4.65-4.82,6.21-2.92,2.11-6.22,3.02-9.82,2.71-1.89-.16-3.62-.65-5.14-1.45-1.68-.88-3.01-1.89-4.07-3.07-1.48-1.65-2.49-3.36-3.09-5.23-.12-.37-.24-.74-.4-1.08-.21-.46-.83-.72-1.32-.56-.52.17-.85.7-.75,1.21.05.3.14.59.23.88l.04.12c.48,1.58,1.23,3.09,2.22,4.48,1.83,2.57,4.29,4.53,7.29,5.82,1.48.64,3.05,1.04,4.81,1.22,1.52.16,3.1.03,5.13-.4,1.93-.41,3.59-1.07,5.07-2.03.3-.19.6-.39.89-.59l.27-.18s.05.04.07.07l12.26,12.26.07.07c.12.12.24.25.4.34.19.11.42.16.62.18.46,0,.81-.25.99-.7.19-.46.12-.89-.19-1.23Z"/><path class="cls-2" d="m129.48,543.72c.09-.15.16-.23.2-.31.53-1.05,1.04-2.11,1.58-3.17.42-.84.89-1.65,1.29-2.5.67-1.42,2.58-1.41,3.36-.16.68,1.09,1.42,2.15,2.15,3.24.09-.1.18-.19.25-.29.86-1.11,1.71-2.23,2.58-3.33.17-.21.39-.41.62-.54.33-.19.7-.09.98.19.29.3.38.66.21,1.01-.07.15-.16.29-.26.42-.97,1.24-1.93,2.47-2.9,3.7-.51.65-1.21.8-1.98.65-.56-.11-.88-.53-1.18-.97-.67-.99-1.32-1.98-1.98-2.97-.04-.05-.08-.11-.15-.21-.21.43-.4.82-.6,1.21-.8,1.6-1.6,3.2-2.41,4.79-.31.62-.79,1.02-1.49,1.12-.88.13-1.72-.37-2.03-1.28-.35-1.03-.67-2.08-.99-3.12-.52-1.67-1.03-3.34-1.57-5.07-.09.12-.17.19-.22.28-.76,1.3-1.51,2.61-2.27,3.91-.43.73-1.05,1.06-1.93,1.03-1.53-.05-3.06-.03-4.59-.03-1.99,0-3.99.01-5.98.02-.32,0-.64-.02-.88-.28-.25-.26-.36-.55-.26-.9.1-.35.34-.56.68-.65.2-.05.42-.06.63-.06,3.46,0,6.91,0,10.37,0,.22,0,.34-.06.45-.26.75-1.32,1.52-2.63,2.27-3.95.6-1.06,1.49-1.24,2.49-.85.56.21.87.67,1.04,1.22.35,1.08.68,2.17,1.02,3.26.45,1.45.9,2.9,1.35,4.34.04.13.08.27.14.48Z"/><path class="cls-2" d="m149.31,694.36c-.29-.28-.7-.42-1.17-.39-.45.02-.83.03-1.18.03h-4.98c-2.21,0-4.42,0-6.63,0-.23,0-.44.02-.62.07-.44.11-.79.44-.93.88-.14.45-.04.93.27,1.28.38.43.86.48,1.29.48,2.33,0,4.67,0,7,0h2.8c-6.14,6.14-12.28,12.28-18.42,18.43-.18.18-.37.37-.53.59-.35.46-.31,1.07.1,1.58.27.33.6.51.95.51.17,0,.34-.04.5-.12.31-.16.62-.4.93-.7,1.38-1.37,2.75-2.75,4.12-4.12.84-.84,1.67-1.68,2.51-2.52l1.18-1.18c2.41-2.41,4.9-4.91,7.36-7.36.83-.82,1.68-1.65,2.51-2.45.22-.21.43-.42.65-.63v1.33c-.01,2.73-.02,5.46-.02,8.19,0,.19.01.38.04.54.13.74.69,1.22,1.39,1.19.71-.03,1.23-.55,1.29-1.3.02-.32.04-.65.04-1.02,0-2.9,0-5.8,0-8.7v-3.48c0-.46-.15-.85-.44-1.13Z"/><path class="cls-1" d="m131.72,681.25c-.17.11-.32.26-.45.38-1.6,1.6-3.2,3.2-4.8,4.8l-3.88,3.88c-2.22,2.22-4.45,4.44-6.67,6.66l-2.06,2.06v-2.01c0-2.41,0-4.83,0-7.24,0-.25,0-.57-.05-.9-.09-.65-.66-1.17-1.31-1.18h-.02c-.66,0-1.25.51-1.34,1.17-.04.32-.05.65-.05.93,0,4.15-.01,8.29-.01,12.44,0,.41.15.79.44,1.06.28.27.65.43,1.06.43,0,0,.02,0,.03,0h.58c.66-.02,1.34-.03,2.01-.03,1.46,0,2.92,0,4.38,0,1.64,0,3.29,0,4.93,0h.14c.46,0,.93,0,1.39-.07.46-.08.83-.38.99-.81.17-.45.09-.95-.22-1.33-.39-.48-.91-.52-1.41-.52h-9.7s.05-.05.08-.08c3.91-3.91,7.82-7.82,11.73-11.73l5.66-5.66c.1-.1.21-.21.31-.34.42-.54.39-1.21-.07-1.71-.46-.5-1.14-.59-1.7-.23Z"/><path class="cls-1" d="m151.6,874.57c-.23-.49-.61-.71-1.16-.68-.16,0-.34.02-.38-.02-.04-.03-.04-.19-.04-.39v-3.11c0-5.96,0-11.92,0-17.88,0-.27-.01-.54-.04-.79-.08-.79-.74-1.45-1.5-1.5-.53-.04-1.06-.04-1.64-.04h-.13c-.57,0-1.16,0-1.75.04-.72.05-1.41.77-1.44,1.51-.02.38-.04.83-.04,1.29,0,5.69,0,11.38,0,17.07v2.94s0,.21,0,.21c0,.2,0,.4,0,.6,0,.05,0,.06,0,.06,0,0-.02,0-.07,0h0c-.94,0-1.88,0-2.83,0h0c-.05,0-.07,0-.06,0,0,0,0-.01,0-.06.02-1.18.03-2.43.03-3.7,0-2.03,0-4.05-.01-6.08,0-.3-.01-.61-.02-.91v-.28c-.04-.77-.7-1.62-1.61-1.62h0c-1.1,0-2.2,0-3.3,0h0c-.85,0-1.54.84-1.57,1.56,0,.1,0,.21-.02.31-.01.2-.02.41-.02.62,0,2.01,0,4.02-.01,6.03,0,1.34,0,2.68.01,4.01,0,.06,0,.09,0,.1,0,0-.01.01-.07,0-.99,0-1.99,0-2.83,0h0s-.05,0-.05,0c0,0,0-.02,0-.07.01-1.61.02-3.08.02-4.51,0-2.79,0-5.57,0-8.36,0-.38-.01-.78-.04-1.22-.05-.96-.68-1.62-1.57-1.63-1.05-.02-2.29-.02-3.52.02-.64.02-1.23.58-1.33,1.26-.06.39-.09.81-.09,1.24,0,1.8,0,3.61,0,5.41,0,1.07,0,2.14,0,3.21,0,.63,0,1.26,0,1.89,0,.87,0,1.75,0,2.62,0,.09-.01.11-.02.11,0,0-.01.01-.1.01-.72,0-1.68,0-2.64,0-.09,0-.15,0-.17-.03-.02-.02-.03-.08-.03-.17,0-1.77.01-3.68,0-5.61,0-.44-.08-.83-.21-1.15-.25-.58-.78-.93-1.45-.94-1.16-.02-2.23-.02-3.26,0-.58.02-1.05.31-1.37.84-.23.39-.25.83-.25,1.2,0,2.07,0,3.93,0,5.7,0,.1-.02.12-.02.13,0,0-.03.02-.13.02-.27,0-.51,0-.73.04-.35.05-.65.39-.67.76-.02.27.06.49.21.66.17.19.43.29.75.29.48,0,.97,0,1.44,0h4.21c1.93,0,3.86,0,5.8,0,1.81,0,3.62,0,5.43,0,2.69,0,5.38,0,8.07,0,1.64,0,3.29,0,4.93,0,2.06,0,4.11,0,6.17,0h0c.57,0,.93-.22,1.14-.68v-.38s0-.04,0-.04Zm-6.32-22.64h2.95v2.63c0,6.4,0,12.8,0,19.2,0,.1-.01.12-.02.12,0,0-.02.02-.11.02-.88,0-1.79,0-2.73,0-.09,0-.11-.01-.11-.01,0,0-.01-.02,0-.1.02-.14.02-.27.02-.4v-21.46Zm-9.48,17.87c0-.16-.02-.32-.02-.48,0-.99,0-1.98,0-2.96,0-1.08,0-2.15,0-3.23,0-.07,0-.09,0-.09,0,0,.01,0,.06,0h0c.73,0,1.47,0,2.22,0h.66s0,6.28,0,6.28v1.13c0,1.11,0,2.22,0,3.33,0,.09-.01.11-.01.12,0,0-.02.01-.1.01-1,0-2,0-2.75,0-.08,0-.09,0-.09,0,0,0-.01-.02-.01-.09,0-.41,0-.83,0-1.24,0-.31,0-.63,0-.94,0-.2.01-.41.02-.61.01-.22.02-.45.02-.67,0-.18,0-.36-.02-.53Zm-9.52-9.23c0-.22,0-.44,0-.66,0-.01.03-.05.04-.06.82,0,1.65,0,2.5,0h.42s0,9.11,0,9.11v1.37c0,1.16,0,2.31,0,3.47,0,.07-.01.09-.01.09,0,0-.02,0-.08.01-.93,0-1.87,0-2.8,0-.05,0-.06,0-.07,0,0,0,0,0,0,0,0,0,0-.01,0-.06.01-1.25.01-2.5.02-3.75,0-3.04,0-6.07,0-9.11,0-.13,0-.27,0-.4Zm-9.49,7.27c0-.07.01-.08.01-.08s.01,0,.05,0h0c.73,0,1.47,0,2.22,0h.66s0,1.62,0,1.62c0,1.47,0,2.95,0,4.42,0,.08-.01.09-.01.09,0,0-.01.01-.08.01-.51,0-1.02,0-1.53,0-.42,0-.83,0-1.25,0h0c-.05,0-.07-.01-.07-.01,0,0-.01-.01-.01-.08,0-1.99,0-3.97,0-5.96Z"/><path class="cls-2" d="m149.4,837.3c-.18-.19-.45-.28-.76-.28h-.79c-1.97,0-3.93,0-5.9.02-.14,0-.31,0-.47.04-.41.09-.7.43-.74.86-.04.42.23.83.61.96.2.07.43.11.66.11,1.12,0,2.23,0,3.35,0h1.11c-1.72,1.84-3.43,3.69-5.15,5.53l-.87.94c-.76.82-1.53,1.64-2.29,2.46-.56.6-1.21.86-1.93.78-.33-.03-.68-.11-1.04-.23-1.64-.53-3.28-1.08-4.91-1.62l-1.28-.42c-1.07-.36-2.06-.34-3.01.04-.61.24-1.12.64-1.54,1l-7.49,6.25-.3.25c-.3.25-.61.51-.91.77-.44.39-.5.92-.15,1.34.19.24.45.36.72.36.21,0,.42-.07.62-.21.13-.09.25-.19.38-.3,1.66-1.38,3.33-2.75,4.99-4.13.32-.26.64-.53.96-.79.81-.67,1.66-1.37,2.47-2.06.89-.76,1.83-.93,2.94-.55,2.08.72,4.21,1.42,6.01,2,2.02.65,3.76.19,5.14-1.38.15-.17.3-.34.46-.5l1.8-1.94c1.87-2.01,3.73-4.02,5.6-6.04v.96c0,1.05,0,2.1,0,3.16,0,.17.02.33.05.49.11.52.57.87,1.04.82.53-.06.89-.49.89-1.06,0-2.5,0-4.73.02-6.82,0-.33-.1-.61-.29-.8Z"/></g></svg>