<svg width="258" height="65" viewBox="0 0 258 65" fill="none" xmlns="http://www.w3.org/2000/svg">
<path d="M75.4 26.6L74.5 27L73.8 27.7L73.3 28.4L72.9 29.3L72.6 30.2L72.3 31.2L71.5 32.9L71.3 33.5L71 34.1L70.7 34.5L70.2 35L69.7 35.4L69.1 35.5L68.4 35.2L67.5 34.2L65.7 32L64.7 31L64.3 30.4L63.7 29.8L63.2 29.3L62.6 28.8L61.9 28.5H61.2L60.5 28.8L60 29.5L59.7 30.4L59.8 31.3L60 32.2L60.5 33L61.1 33.7L61.8 34.3L62.6 34.7L63.5 35.4L65.3 37.1L66.1 38.1L66.7 39.1L67.1 40.2V41.3L66.8 42.6L66.3 43.9L65.6 45.2L64.9 46.4L64.1 47.6L63.2 49.3L62.3 51.1L61.4 52.8L60.7 54.6L60.1 56.4L60.3 57.1L60.6 57.7L61.1 58L61.7 58.2H62.4L63.1 58L63.8 57.7L64.3 57.3L64.6 56.8L64.8 56.2L65.1 55.2L65.6 54.2L66.6 52.5L67.1 51.6L67.5 50.7L67.7 49.6L68.7 48L69.6 46.2L70.3 44.4L71 42.6L71.8 40.9L72.1 39.5L72.7 38.2L73.4 36.9L73.9 35.6L74.6 34.7L75.1 33.7L75.5 32.6L76 31.6L76.5 30.6L76.7 30.5L77.1 29.9L77.3 29.2L77.4 28.5L77.3 27.9L77.1 27.3L76.7 26.8L76 26.5L75.7 26.4L75.4 26.6ZM43.8 39.3L43 38.9L41.6 37.6L41.2 36.8L41 35.9L41.2 35.1L41.5 34.2L42 33.4L42.7 32.6L43.4 32L44.2 31.6L45.1 31.4L46.2 31.5L47.2 32L48 32.7L48.7 33.6L49.1 34.6L49.4 35.7V36.7L48.7 37.5L48.1 38.2L47.4 38.8L46.6 39.2L45.7 39.5H44.7L43.8 39.3ZM49.1 26L48.6 26.3L47.8 26.9L47.4 27.1H47L46.4 26.8L45.4 26.5H44.4L43.4 26.7L42.4 27.2L41.5 27.9L40.8 28.7L40.3 29.5L39.4 30.8L38.6 32.2L37.9 33.6L37.5 35.1L37.3 36.7L37.5 38.3L38.1 39.3L38.7 40.4L39.3 41.4L40 42.2L40.8 43L41.8 43.6L43.4 43.8L45 43.7L46.6 43.4L48.2 43.1L49.7 42.7L50.1 43.1L50.6 43.5L51.1 43.8L51.8 44.1H52.4H52.9L53.4 43.8L53.7 43.2L54 41.9V40.7L53.8 39.5L53.4 38.3L53.2 36.1L52.9 34L52.4 31.9L52 29.7L51.8 29.1L51.2 27.7L50.9 27L50.4 26.5L49.8 26.2L49.1 26V26ZM90 25.8L88.9 26.1L87.8 26.6L86.9 27.4L85.9 28.2L85.1 29.1L84.4 30.1L83.9 31.2L83.6 32.4L83.1 34.1L82.8 35.9V37.6L83.2 39.3L83.3 40L83.6 40.6L84.2 41.2L85.3 42.1L86 42.6L86.5 43.2L87.4 43.7L88.3 43.9L89.3 44H90.3L91.3 44.1L92.3 44.3L93.9 44L95.5 43.3L96.8 42.4L97 41.7L96.9 41L96.5 40.4L95.9 39.9L95.2 39.5L94.4 39.4L93.7 39.5H92.8H91.9L90.9 39.6L90 39.7L89.1 39.6L88.3 39.4L87.6 39L87 38.3L86.5 37.2L86.4 36L86.5 34.8L86.9 33.6L87.4 32.5L88.1 31.4L88.8 30.4L89.6 29.9L90.5 29.6L91.4 29.4L92.3 29.5L93.2 29.8L94 30.3L94.6 31.1L95 31.6L95.6 31.8L96.2 31.7L96.7 31.5L97.2 31L97.6 30.5L97.7 29.9L97.6 29.2L97.4 28.3L96.9 27.6L96.2 27L95.4 26.5L94.5 26.1L92.8 25.6L91.8 25.5H90.9L90 25.8ZM130.4 25.4L130.1 25.7L129.6 26.4L129.4 27.1L129.3 27.9V28.5L129.2 29.3L129 30.1L129.1 32.7L129.2 35.2L129.1 37.8L128.9 40.3L129 41V43.3L129.2 43.9L129.6 44.5L130.3 45L131 45.1H131.6L132.2 44.8L132.7 44.2L133 43.6L133.2 42.9V42.2V41.6L132.9 40.3L132.7 39L132.6 37.7L132.7 36.4L133.1 35.2L133.8 34L134.7 32.9L136.8 31L137.5 30.5L138.2 30.2L138.9 30.1H139.7L140.4 30.2L141 30.7L141.5 31.4L142 32.7L142.2 34V35.3L142 36.7L141.9 38.1V39.5L142 40.8L141.9 41.6L142.1 42.3L142.5 42.8L143.1 43.2L143.8 43.4H144.6L145.6 42.4L146.1 41.9L146.4 41.3V40.7L146.3 40V38.1V36.2L146.4 34.3L146.2 32.4L145.7 30.6L145.1 29.6L144.4 28.5L143.6 27.5L142.7 26.7L141.6 26L140.6 25.6L139.4 25.4L138.2 25.6L136.9 26.1L135.7 26.8L134.5 27.6L133.4 28.3L133.1 28.1V27.8L133.3 26.4V25.9L133 25.6L132.6 25.4L131.6 25L131.1 24.9L130.4 25.4ZM111.1 31.7L110.6 31.5L110.3 31V30.5L110.7 29.9L111.2 29.5L111.7 29.3L112.4 29.2L113 29L113.5 28.8L114 28.4H114.1L114.3 28.3H114.5L115.2 28.4L115.8 28.7L116.4 29.1L116.9 29.6L117.2 30.1L117.3 30.7L117 31.3L115.8 31.7L114.6 31.8L113.4 31.7L112.2 31.5L111.7 31.8L111.1 31.7ZM113.8 24.6L112.8 24.8L111.2 25.4L109.8 26.2L108.5 27.1L107.3 28.2L106.2 29.4L105.6 30.6L105.3 31.8L105.2 33.2L105.1 34.5L105 35.8L104.7 37.1L104.8 38.1L105.1 39L105.6 39.8L106.2 40.7L107.5 42.2L108.1 43L108.6 43.8L109.7 44.5L110.8 45.2L112.1 45.8L113.3 46.3L114.6 46.5L115.9 46.4L116.5 46L117 45.4L117.3 44.7L117.4 44L117.3 43.2L116.9 42.6L116.3 42.1L115.7 41.6L114.9 41.3L113.2 40.9L112.4 40.6L111.7 40.1L111 39.6L110.3 39.1L109.6 38.5L109 37.9L108.6 37.2L108.5 36.3L109.1 35.8L109.8 35.5L110.5 35.3H111.3L112.1 35.5L112.9 35.7L113.7 35.8L114.4 35.9L115.2 36L116.1 36.2H117H117.9L118.7 36L119.4 35.7L120.1 35.1L120.6 34.3L121 32.8L121.1 31.2L120.8 29.6L120.3 28.1L119.6 26.7L118.9 25.8L118 25.2L117.1 24.7L116.1 24.4L115.1 24.3L113.8 24.6ZM197.5 31.5L197.2 31.1V30.6L197.6 30.1L198.2 29.7L198.7 29.5L199.3 29.3L199.9 29.2L200.4 28.9L200.9 28.5H201.1L201.2 28.4H201.4L202.1 28.5L202.7 28.7L203.3 29.1L203.8 29.6L204.1 30.1V30.7L203.8 31.4L202.6 31.8L201.4 31.9L200.2 31.8L199 31.6L198.5 31.8H198L197.5 31.5ZM200.9 24.6L199.7 24.8L198.2 25.4L196.8 26.2L195.5 27.1L194.3 28.2L193.2 29.4L192.7 30.4L192.4 31.5L192.2 32.6L192.1 33.7V34.9L192 36.1L191.8 37.2V38.2L192.1 39.1L192.6 39.9L193.2 40.8L194.5 42.3L195.1 43.1L195.6 43.9L196.7 44.6L197.9 45.3L199.1 45.9L200.3 46.4L201.6 46.6L202.9 46.5L203.5 46.1L204 45.5L204.4 44.8L204.5 44.1L204.4 43.3L204 42.7L203.4 42.2L202.7 41.7L201.9 41.4L200.2 41L199.3 40.7L198.6 40.2L197.9 39.7L197.2 39.2L196.6 38.6L196 38L195.5 37.3L195.4 36.5L195.9 35.9L196.5 35.6L197.2 35.4H197.9L198.7 35.6L200.1 35.9H200.8L201.7 36.1L202.6 36.3L203.5 36.4H204.5H205.4L206.2 36.1L206.9 35.6L207.5 34.9L208 33.7L208.2 32.4V31.1L207.9 29.8L207.5 28.5L207 27.3L206.4 26.3L205.5 25.5L204.5 25L203.4 24.6L202.2 24.4L200.9 24.6ZM174 21.8L173.5 22.1L173.1 22.6L173 23.2L172.8 23.8V25.1L173 25.7L173.5 29.2L173.7 30.9V32.7L173.4 34.4L173.5 36.1V37.8L173.6 39.5L173.8 41.1L174 41.6L174.5 42.9L174.8 43.5L175.2 44L175.5 44.3L176.1 44.4L176.7 44.2L177.4 43.5L177.9 42.7L178.1 41.8V40.8V39.8L177.9 38.8L177.6 37.9L177.4 36.3L177.6 34.8L178 33.3L178.6 31.8L178.9 30.9L179.5 30.2L180.3 29.6L181.2 29.1L182.2 28.8L184 28.3L184.7 28.1L185.4 27.7L186.1 27.1L186.4 26.5L186.7 25.8L186.6 25.1L186.1 24.4L185.1 23.8L184 23.5H182.9L181.8 23.8L180.8 24.3L179.9 25.2L179.6 25.6L179.1 25.9L178.6 26.2H178.1H177.6L177.2 25.9L176.9 25.4L176.8 24.8L176.7 24.1L176.6 23.4L176.4 22.7L176.1 22.1L175.7 21.6L175.1 21.3L174.4 21.2L174 21.8ZM5.70001 28L5.40002 27.8L5.20001 27.5L5.30002 27L5.70001 25.6L5.80002 24.1L6 22.7L6.40002 21.3V20.6L6.60001 20L7 19.6L7.60001 19.3L8.30002 19.2H8.90002L9.60001 19.3L10.1 19.6H10.7L11.4 19.7L12.1 19.8L12.7 20L13.4 20.3L13.9 20.6L14.2 21.1L14.4 21.8L14.1 22.9L13.5 23.9L12.7 24.7L11.8 25.5L10.8 26.1L8.70001 27.2L7.70001 27.7L7.40002 27.8L7 27.9H6.5H6.10001L5.70001 28ZM6.70001 14.6L5.80002 14.7L4.90002 14.9L4 15.3L3.30002 15.9L2.70001 16.6L2.30002 17.5L2.10001 18.4V20.5V22.6L2 24.7L1.60001 26.8L1.5 28.7L1.20001 30.6L1 32.4L0.900024 34.3L0.600006 35.5L0.5 36.8V39.4L0.400024 40.7L0 41.9L0.100006 42.9L0 43.8V44.8L0.200012 45.7L0.600006 46.5L0.900024 47.1L1.40002 47.5L2 47.7L2.60001 47.6L3.10001 47.3L3.5 46.7L4.20001 46L4.60001 45.2L4.80002 44.3L4.90002 43.3L4.70001 41.4V40.4V39.5L4.90002 38.7V37.5L4.70001 35.8V35L4.90002 34.2L5.20001 33.5L5.80002 32.9L6.60001 32.7L7.40002 32.5H8.30002L9.10001 32.3L9.90002 32.1L10.7 31.7L11.3 31L12.8 30.2L14.2 29.2L15.5 28L16.7 26.7L17.7 25.3L18.4 23.8L18.8 22.1L18.9 20.4L18.3 19.2L17.5 18.2L16.6 17.3L15.6 16.5L14.4 15.9L13.2 15.4L12 15L10.8 14.6L9.5 14.3L8.20001 14.1H6.70001V14.6ZM160.2 14.5L159.7 14.9L159.2 15.4L158.9 16L158.7 16.7V17.4V18.1L158.4 19.3L158.3 20.6V23.1L157.5 23.6L156.6 23.8H155.7L154.8 23.6L153.9 23.3L153.7 23.8L153.3 25.1L153.2 25.8V26.5L153.4 27L153.7 27.5L154.3 27.8L155.5 27.9L156.2 28.1L156.8 28.2L157.3 28.4L157.8 28.6L158.2 28.9L158.3 29.4L158.2 30L157.9 30.7L157.7 33.4L157.5 36L157.4 38.7V41.4L157.2 42.4V43.5V44.5L157.3 45.5L157.7 46.6L158.7 46.9H159.6L160.2 46.5L160.8 45.8L161.3 44.8L161.4 43V41.1L161.3 39.2V37.7V36.2V34.7L161.4 33.2L161.8 31.7V31.2V30.1V29.5V29V28.5L162 28.1L162.3 27.9L162.6 27.8L163.3 27.9H164.5H165.1L165.6 27.8L166.1 27.4L166.4 26.9L166.9 26.5L167.3 26.1V25.5V24.9L166.9 24.4L166.6 23.9L166.1 23.6L165.6 23.3L164.6 23H164H163.5L163 22.9L162.7 22.6L162.5 22.2V21.6V20.2V18.9L162.6 17.5L162.9 16.2L162.8 15.4L162.4 14.8L161.8 14.5H161H160.2ZM30.5 14.3L29.9 14.5L29.4 14.8L29 15.3L28.7 15.8L28.6 16.4L28.4 17.1L28.1 18.3V19.5L27.9 21L27.6 22.4L27.3 23.9L27.2 25.4L27 27.5L26.8 31.6L26.5 33.7L26 35.7L26.1 37.9L25.9 40L25.5 42.2L25.1 44.3L25 45L25.1 45.7L25.3 46.4L25.7 47L26.2 47.5L26.8 47.8L27.4 47.9L28 47.6L28.6 47L29.2 45.9L29.6 44.7L29.8 43.5L30 42.2L30.2 41L30.3 37.4L30.6 33.8L30.9 30.2V26.6L31.2 23.9L31.6 21.2L31.9 18.6L32 15.9L31.9 15.3L31.6 14.8L31.3 14.4L30.9 14.2H30.5V14.3Z" fill="black"/>
<path d="M244.7 0.899994L244.4 0.999994L244 1.19999L243.7 1.39999L243.2 1.7L242.8 2.09999L242.3 2.49999L241.7 2.99999L241.2 3.59999L241 3.2L240.8 2.79999L240.5 2.49999L240.3 2.29999L240.1 2.09999L239.8 1.89999L239.5 1.79999L239.3 1.7H239H238.7H238.4L238.1 1.79999H237.8L237.5 1.99999L237.2 2.09999L236.9 2.29999L236.6 2.39999L236.3 2.59999L236 2.89999L235.7 3.09999L235.5 3.39999L235.2 3.59999L234.9 3.89999L234.7 4.2L234.4 4.49999L234.2 4.79999L234 5.09999L233.8 5.39999L233.6 5.7L233.5 5.99999L233.3 6.29999L233.2 6.49999L233 5.99999L232.8 5.49999L232.7 5.29999L232.6 4.99999L232.5 4.79999L232.4 4.49999L232.3 4.29999L232.2 3.99999L232.1 3.79999L232 3.59999L231.9 3.39999L231.8 3.2L231.6 2.99999L231.5 2.79999L231.4 2.7L231.2 2.49999L231.1 2.29999L230.9 2.2L230.8 2.09999L230.6 1.99999L230.4 1.89999H230.2L230 1.79999H229.8H229.6H229.4H229.2L229 1.89999L228.7 1.99999L228.5 2.09999H228.3L228.2 2.2L228.1 2.29999L228 2.39999L227.9 2.49999L227.7 2.59999L227.6 2.7L227.5 2.79999L227.4 2.89999L227.3 2.99999V3.09999L227.2 3.29999L227.1 3.39999L227 3.49999V3.7L226.9 3.79999L226.8 3.89999V4.09999L226.7 4.2V4.29999L226.6 4.49999V4.59999L226.5 4.79999V4.89999L226.4 4.99999V5.2V5.29999L226.3 5.49999V5.79999L226.2 5.99999L225 8.29999L224.3 8.49999L223.6 8.79999L223 9.09999L222.4 9.39999L221.9 9.7L221.4 9.99999L221 10.4L220.7 10.7L220.4 11.1L220.2 11.5L220 11.9L219.8 12.2V12.6L219.7 13V13.4V13.8L219.8 14.2L220 14.6L220.1 15L220.3 15.4L220.6 15.8L220.9 16.2L221.2 16.5L221.5 16.9L221.9 17.3L222.3 17.6L222.8 17.9L223.3 18.2L223.8 18.5L224.3 18.7L224.9 19L225.5 19.2L224.6 19.1H223.9H223.2L222.6 19.3L222.2 19.5L221.8 19.7L221.5 20L221.3 20.3L221.2 20.7L221.1 21V21.5L221.2 21.9L221.3 22.3L221.5 22.8L221.7 23.2L222 23.6L222.3 24.1L222.7 24.5L223.1 24.8L223.5 25.2L223.9 25.4L224.4 25.7L224.9 25.9L225.4 26L225.8 26.1H226.3L226.8 26L227.3 25.8L227.7 25.6L228.2 25.2L228.6 24.7L229 24.2V24.5V24.7L228.9 25.1V25.4V26V26.6V27L228.8 27.3V27.6V28V28.3V28.6L228.9 28.9V29.3V29.6L229 29.9V30.2L229.1 30.5L229.2 30.7L229.3 31L229.4 31.3L229.5 31.5L229.6 31.7L229.8 31.9L230 32.1L230.2 32.3L230.4 32.5L230.7 32.6L230.9 32.8L231.2 32.9L231.6 33H232H232.4H232.8H233.1L233.4 32.9L233.8 32.8L234 32.6L234.3 32.5L234.6 32.3L234.9 32.1L235.1 31.8L235.4 31.6L235.6 31.3L235.8 31L236 30.7L236.2 30.4L236.4 30.1L236.6 29.7L236.8 29.4L236.9 29.1L237.1 28.7L237.3 28.4L237.4 28L237.5 27.7L237.7 27.3L237.8 27L237.9 26.6L238.1 26.3L238.2 26L238.3 25.7L238.4 25.4L239 26.3L239.7 27.1L240.3 27.7L241 28.2L241.7 28.6L242.3 28.9L243 29L243.6 29.1H244.3H244.9L245.5 28.9L246.1 28.7L246.6 28.4L247.2 28.1L247.6 27.7L248.1 27.3L248.5 26.8L248.8 26.3L249.1 25.8L249.3 25.3L249.5 24.8L249.6 24.2V23.7L249.5 23.2L249.4 22.7L249.1 22.2L248.8 21.7L248.4 21.3L247.8 21L247.2 20.7L246.5 20.4L245.6 20.2L245.8 20L246 19.8L246.2 19.6L246.4 19.4L246.9 18.9L247.5 18.4L247.8 18.1L248 17.8L248.3 17.5L248.6 17.3L248.9 17L249.2 16.7L249.5 16.4L249.7 16L250 15.7L250.2 15.4L250.5 15.1L250.7 14.8L250.9 14.4L251.1 14.1L251.3 13.8L251.4 13.4L251.6 13.1L251.7 12.8V12.4L251.8 12.1V11.8V11.4L251.7 11.1L251.6 10.8L251.5 10.5L251.4 10.3L251.3 10.1L251.2 9.89999L251.1 9.79999L250.9 9.59999L250.8 9.49999L250.7 9.29999L250.5 9.2L250.4 9.09999L250.3 8.99999L250.1 8.89999L250 8.79999H249.8L249.6 8.7H249.5H249.3L249.2 8.59999L249 8.7H248.8H248.6H248.5L248.3 8.79999H248.1L247.9 8.89999L247.7 8.99999L247.6 9.09999L247.4 9.2L247.2 9.29999L247 9.49999L246.8 9.59999L246.6 9.79999V9.2V8.59999V7.99999V7.49999V6.29999V5.29999V4.79999L246.5 4.29999V3.79999V3.39999L246.4 2.99999V2.59999L246.3 2.2L246.2 1.89999L246.1 1.59999L246 1.39999L245.8 1.19999L245.7 1.09999L245.5 0.899994H245.2H245H244.7Z" fill="#552D88"/>
<path d="M241.8 49.6V49.4V49.2L241.7 49V48.7V48.4V48.1L241.6 47.8V47.5L241.5 47.1L241.4 46.7V46.3L241.3 46L241.2 45.6L241.1 45.2L241 44.8L240.8 44.4L240.7 44L240.6 43.6L240.4 43.2L240.3 42.9L240.1 42.5L239.9 42.2L239.8 41.8L239.6 41.5L239.3 41.3L239.1 41L238.9 40.8L238.7 40.6L238.4 40.5L238.2 40.3L237.9 40.2H237.6H237.5H237.3H237.2L237.1 40.3H236.9L236.8 40.4L236.7 40.5L236.5 40.6L236.4 40.7L236.3 40.8L236.1 40.9L236 41L235.9 41.1L235.7 41.3L235.6 41.4L235.5 41.6L235.4 41.7L235.3 41.9L235.1 42L235 42.2L234.9 42.3L234.8 42.5L234.7 42.6V42.8L234.6 42.9L234.5 43.1L234.4 43.2V43.3L234.3 43.5V43.6L234.2 43.7V43.8V44V44.2V44.5L234.3 44.7L234.4 45L234.5 45.4L234.7 45.7L234.8 46L235 46.4L235.2 46.8L235.4 47.1L235.6 47.5L235.9 47.9L236.1 48.3L236.4 48.6L236.7 49L237 49.3L237.3 49.7L237.6 50L237.9 50.3L238.3 50.6L238.6 50.8L238.9 51.1L239.2 51.3L239.6 51.4L239.9 51.6L240.2 51.7H240.5H240.9H241.2L241.5 51.6L241.8 51.5V49.6Z" fill="#7CC244"/>
<path d="M254.8 33.5H254.5L254.2 33.6H253.9L253.6 33.7L253.3 33.9L252.9 34L252.5 34.2L252.2 34.4L251.8 34.6L251.4 34.8L251 35.1L250.6 35.3L250.2 35.6L249.8 35.9L249.5 36.2L249.1 36.5L248.7 36.8L248.4 37.2L248.1 37.5L247.8 37.9L247.5 38.3L247.3 38.6L247.1 39L246.9 39.4L246.7 39.8L246.6 40.2L246.5 40.6V41V41.4L248.1 41.8H248.3H248.4L248.6 41.9H248.9H249.1H249.4H249.7H250L250.3 42L250.6 41.9H251H251.3H251.7L252 41.8H252.4L252.8 41.7L253.1 41.6H253.5L253.8 41.4L254.2 41.3L254.5 41.2L254.9 41.1L255.2 40.9L255.5 40.7L255.8 40.5L256.1 40.3L256.3 40.1L256.6 39.8L256.8 39.5L257 39.2L257.1 38.9L257.3 38.6V38.4V38.2L257.4 38.1V37.9V37.7L257.3 37.5V37.3V37.1L257.2 37V36.8L257.1 36.6V36.4L257 36.2L256.9 36V35.8L256.8 35.7L256.7 35.5L256.6 35.3L256.5 35.1L256.4 35L256.3 34.8L256.2 34.7L256.1 34.5L256 34.4L255.9 34.2L255.8 34.1L255.7 34V33.9L255.6 33.8L255.5 33.7L255.4 33.6H255.3L255.2 33.5H255H254.8Z" fill="#7CC244"/>
<path d="M236.2 14.7L236 14.6H235.7H235.5H235.3H235.1H234.8H234.6H234.4H234.1L233.9 14.7H233.7H233.5L233.3 14.8L233.1 14.9H232.9L232.7 15L232.6 15.1L232.4 15.2L232.3 15.4L232.2 15.5L232.1 15.7V15.8L232 16V16.2V16.4V16.7L232.1 16.9L232.2 17.2L232.3 17.5L232.4 17.8L232.6 18.1L232.8 18.4L233 18.7L233.2 18.9L233.4 19.1L233.7 19.2L233.9 19.4L234.2 19.5L234.5 19.6H234.7H235L235.3 19.7L235.6 19.6H235.9L236.1 19.5H236.4L236.7 19.4L236.9 19.3L237.1 19.1L237.4 19L237.6 18.8L237.7 18.7L237.9 18.5L238 18.3L238.1 18.1L238.2 17.9L238.3 17.6V17.4L238.2 17.2V16.9L238.1 16.7L237.9 16.4L237.7 16.2L237.5 15.9L236.2 14.7Z" fill="#F8992A"/>
<path d="M235.7 14.6H236.9L236.7 15.6L237.1 17.4L234.6 18.9L232.8 18.1L232.9 16.3L233.7 15.4L235.2 15.6L235.7 14.6ZM235.6 12.6H235.4H235.3H235.2H235.1H235H234.9H234.8H234.7H234.6H234.5H234.4L234.2 12.7L234 12.8L233.8 12.9L233.6 13L233.4 13.1L233.2 13.2L233 13.3L232.8 13.4L232.6 13.5L232.4 13.6L232.3 13.7L232.2 13.8L232.1 13.9L232 14L231.9 14.1L231.8 14.2L231.7 14.3L231.6 14.4L231.5 14.5L231.4 14.6L231.3 14.7L231.2 14.8L231.1 14.9L231 15L230.9 15.1L230.8 15.2L230.7 15.3L230.6 15.4L230.7 15.5L230.6 15.6L230.5 15.7L230.4 15.8V15.9V16V16.1V16.2V16.3V16.4V16.5V16.6V16.7V16.8V16.9V17V17.1V17.2V17.3V17.4V17.5V17.6L230.5 17.7L230.6 17.8L230.7 18.5L230.8 18.6L231 18.9L231.2 19.2L231.3 19.3L231.4 19.4L231.5 19.5L231.6 19.6L231.7 19.7L231.8 19.8L231.9 19.9L232 20L232.1 20.1L232.2 20.2L232.3 20.3L232.4 20.4L232.5 20.5L232.6 20.6L232.7 20.7L232.8 20.8L232.9 20.9L233 21L233.1 21.1L233.2 21.2H233.3H233.4H233.5H233.6H233.7H233.8H233.9H234H234.1H234.2H234.3H234.4H234.6H234.8H235H235.2H235.4H235.6H235.7H235.8H235.9H236H236.1H236.2H236.3H236.4H236.5H236.6H236.7H236.8H236.9H237L237.1 21.1L237.2 21L237.4 20.9L237.6 20.8L237.7 20.7L237.8 20.6L237.9 20.5L238 20.4L238.1 20.3L238.2 20.2L238.3 20.1L238.4 20L238.5 19.9L238.6 19.8L238.7 19.7L238.8 19.6L238.9 19.5L239 19.4L239.1 19.3L239.2 19.2L239.3 19.1L239.4 19L239.5 18.9L239.6 18.8L239.7 18.7L239.8 18.6L239.9 18.5L240 18.4V18.3V18.2V18.1V18V17.9V17.8V17.7V17.6V17.5V17.4V17.3V17.2V17.1V17V16.9L239.9 16.7L239.8 16.5L239.7 16.3L239.6 16.1L239.5 15.8L239.4 15.5L239.3 15.2L239.2 14.9L239.1 14.6L239 14.3L238.8 14L238.6 13.6L236.6 13.1H235.6V12.6ZM240.2 50.8L239.9 50.6L239.6 50.4L239.3 50.3L238.8 50L238.3 49.7L238.1 49.6L237.9 49.5L237.7 49.4L237.5 49.3L237.3 49.2L237.1 49.1L236.9 49L236.7 48.9L236.5 48.7L236.3 48.5L236.1 48.3L235.9 48.1L235.7 47.9L235.5 47.7L235.3 47.5L235.1 47.3L234.9 47L234.7 46.7L234.5 46.4L234.3 46.1L234.1 45.8L233.9 45.4L233.7 45L233.5 44.6L235.1 41.7L236.4 41.5L240.1 49.2L241.6 49.5L240.4 51.1L240.2 50.8ZM247.9 40.1L249.1 39.3L249.7 38.2L251.9 37.6L253.2 36.6H254L254.8 36V37.8L254 38.6L253 39.6L250.8 40.2L249.6 40.8L247.9 40.1ZM240 5.6L241.3 3.8L242.6 3.6L243.5 2.6L244.7 2.8L244.8 2.9L244.9 3L245 3.1L245.1 3.2L245.2 3.3L245.3 3.4L245.4 3.5L245.5 3.6V3.7V3.8V3.9V4V4.1V4.2V4.3V4.4V4.5V4.6V4.7V4.8V5V5.2V5.4V5.6V5.8V6.5V6.6V6.7V6.8V6.9V7V7.2V7.4L245.4 7.6L245.3 7.8L245.2 8L245.1 8.2L245 8.4L244.9 8.7L244.8 9L244.7 9.1L244.6 9.2L244.7 9.5L244.6 9.6L244.9 11.3L246.4 10.9L247.8 10H247.9H248H248.1H248.2H248.3H248.4H248.5H248.6H248.7H248.8H248.9H249H249.1H249.2H249.3H249.4H249.5H249.6H249.7H249.8L249.9 10.1L250 10.2L250.1 10.3L250.2 10.4L250.3 10.5L250.4 10.6L250.5 10.7L250.6 10.8L250.7 10.9L250.8 11L250.9 11.1L251 11.2V11.3L251.1 11.4V11.5V11.6V11.7V11.8V11.9V12V12.1V12.2V12.3V12.4V12.5V12.6V12.7V12.8V12.9V13V13.1V13.3L251 13.5V13.7L250.9 13.9L250.8 14.1L250.7 14.3L250.6 14.5L250.5 14.7L250.4 14.9L250.3 15.1L250.2 15.3L250.1 15.5L250 15.7L249.9 15.9L249.8 16.1L249.7 16.3L249.5 16.5L249.3 16.8L249.1 17.1L248.9 17.4L248.7 17.7L248.5 18L248.3 18.3L248.1 18.6L246.8 18.7L246.5 19.9L244.9 20.2L244.8 21.3L248.1 22.5V22.6V22.8V23V23.3V23.6V23.7V23.8V23.9V24V24.2V24.4V24.6L248 24.8L247.9 25L247.8 25.2L247.7 25.4L247.6 25.6L247.5 25.8L247.4 26L247.3 26.2L247.2 26.4L247.1 26.6L246.9 26.8L246.7 27L246.5 27.2L246.3 27.4L246.1 27.6L245.9 27.7L245.7 27.8L245.5 27.9L245.3 28L245.1 28.1L244.9 28.2L244.7 28.3L244.4 28.4L244.1 28.5L243.8 28.6H243.5H243.2H242.9H242.6H242.5H242.4H242.3H242.2H242.1H242H241.9H241.8L241.7 28.5L241.6 28.4L241.5 28.3L241.4 28.2L241.3 28.1L241.2 28L241.1 27.9L241 27.8L240.9 27.7L240.8 27.6L240.7 27.5L240.6 27.4L240.5 27.3L240.4 27.2L240.3 27.1L240.2 27L240.1 26.9L240 26.8L239.9 26.7L239.8 26.6L239.7 26.5L239.6 26.4L239.5 26.3L239.4 26.2L238.1 26.4L238 26.6L237.9 26.8L237.8 27L237.7 27.5L237.6 27.7L237.5 27.9L237.4 28.1L237.3 28.3L237.1 28.5L236.9 28.7L236.7 28.9L236.5 29.1L236.3 29.3L236.1 29.5L235.9 29.7L235.7 29.8L235.5 29.9L235.3 30L235.1 30.1L234.9 30.2L234.7 30.3L234.5 30.4L234.3 30.5L234.1 30.6L233.9 30.7L233.7 30.8L233.5 30.9L233.4 31H233.3H233.2H233.1H233H232.8H232.6H232.4H232.2L232 30.9L231.8 30.8L231.6 30.7L231.4 30.6L231.2 30.5L231 30.4L230.8 30.3L230.6 30.2L230.4 30.1L230.2 29.9L230 29.7L229.8 29.5L229.6 29.3L229.4 29.1L229.2 28.9L229 28.7L228.8 28.4L228.6 28.1L228.4 27.8L228.3 27.5L228.1 27.2L227.9 26.9L227.7 26.6L227.5 26.2L227.4 25.8L227.3 25.4L227.2 25L227 24.6L226.8 24.8L226.6 24.9L226.4 25L226.2 25.1L226 25.2L225.8 25.3L225.6 25.4L225.4 25.5L225.2 25.6L225 25.7H224.9H224.8H224.7H224.6H224.5H224.4H224.3H224.2H224.1H224H223.9H223.8H223.6H223.4H223.2H223H222.8L222.6 25.6L222.5 25.5L222.3 25.4L222.2 25.3L222.1 25.2L222 25.1L221.9 25L221.8 24.9L221.7 24.8L221.6 24.7L221.5 24.6L221.4 24.5L221.3 24.4L221.2 24.3L221.1 24.2L221 24.1L220.9 23.9L220.8 23.7L220.7 23.5L220.6 23.3L220.5 23.1V22.9V22.7V22.5V22.3V22.1V21.9V21.8V21.7V21.6V21.5V21.4V21.3V21.2V21.1V21L220.6 20.9L220.7 20.8L220.8 20.7L220.9 20.6L221 20.5L221.1 20.4L221.2 20.3L221.4 20.1L221.6 19.9L221.8 19.7L222 19.5L222.1 19.4L222.2 19.3L222.3 19.2L222.4 19.1L223.7 19.5L223.8 19.4L223.9 19.2L224.1 19V17.2L222 16.7L221.2 14.9L221.4 14.4L221.6 13.9L221.8 13.5L222 13.1L222.2 12.7L222.4 12.3L222.6 12L222.9 11.7L223.2 11.4L223.5 11.1L223.8 10.9L224.1 10.7L224.4 10.5L224.7 10.3L225 10.2L225.3 10.1L225.5 10L225.7 9.9L225.9 9.8L226.1 9.7L226.3 9.6L226.5 9.5H226.7H226.9H227.1H227.2H227.3H227.4H227.5H227.6L228 8.3L227.9 8.2L227.8 8L227.7 7.9L227.6 7.8L227.5 7.7L227.4 7.5L227.3 7.3L227.2 7.1L227.1 6.9L227 6.7V6.6V6.5V6.4V6.3V6.2V6.1V6V5.9V5.8V5.7V5.6V5.5V5.4V5.3V5.2V5.1V5V4.9V4.8V4.7V4.6V4.5V4.4V4.3V4.2L227.1 4.1L227.2 4L227.3 3.9L227.4 3.7L227.6 3.5L227.8 3.3L228 3.1L228.2 2.8L228.4 2.5L230.7 3.5L231.7 7.4L233.5 7.3V7V6.7V6.4V6.1V5.8V5.5V5.3V5.1V4.9V4.7V4.5V4.3L233.6 4.1L233.7 3.9L233.8 3.7L233.9 3.5L234 3.3L234.1 3.1L234.2 3L234.3 2.9L234.4 2.8L234.5 2.7L234.6 2.6L234.7 2.5L234.8 2.4L234.9 2.3L235 2.2H235.1H235.2H235.3H235.4H235.5L236.9 2L238.1 4.8H240V5.6ZM244.7 0.3H244.6H244.5H244.4H244.3H244.2H244.1H244H243.9H243.8H243.6H243.4L243.1 0.4L242.8 0.5L242.4 0.6L242 0.7L241.6 0.8L241.2 1L240.8 1.2L240.4 1.4L240 1.6L239.5 1.8L239.4 1.7L239.3 1.6L239.2 1.5L239.1 1.4L239 1.3L238.9 1.2L238.8 1.1L238.7 1L238.6 0.9L238.5 0.8L238.4 0.7L238.3 0.6L238.2 0.5L238.1 0.4L238 0.3H237.9L237.8 0.2H237.7H237.6H237.5H237.4H237.3H237.2H237.1H237H236.9H236.8H236.7H236.6H236.5H236.1H236H235.9H235.8H235.7H235.6H235.5H235.4H235.3H235.2H235.1H235H234.9L234.8 0.3L234.7 0.4L234.6 0.5L234.5 0.6L234.4 0.7L234.3 0.8L234.2 0.9L234.1 1L234 1.1L233.9 1.2L233.8 1.3L233.7 1.4L233.6 1.5L233.5 1.6L233.4 1.7L233.2 2L233 2.3L232.7 2.1L232.4 1.9L232.1 1.7L231.8 1.5L231.7 1.4L231.6 1.3L231.5 1.2L231.4 1.1L231.3 1L231.2 0.9L231.1 0.8L231 0.7L230.9 0.6H230.8H230.7H230.6H230.5H230.4H230.3H230.2H230.1H230H229.9H229.8H229.7H229.6H229.5H229.4H229.2H229H228.8H228.6L228.4 0.7L228.2 0.8L228 0.9L227.8 1L227.6 1.1L227.4 1.2L227.2 1.3L227.1 1.5L227 1.7L226.9 1.9L226.8 2.1L226.7 2.3L226.6 2.5L226.5 2.7L226.4 3L226.3 3.3L226.2 3.6L226.1 3.9L226 4.2L225.9 4.5L225.8 4.8L225.7 5.1L225.6 5.4L225.5 5.7L225.4 6.1L225.3 6.5L225.2 6.9L225.1 7.3L224.7 7.5L224.4 7.7L224.1 7.9L223.8 8.1L223.5 8.3L223.2 8.5L222.9 8.7L222.6 8.9L222.4 9.1L222.2 9.3L222 9.5L221.8 9.7L221.6 9.9L221.4 10.1L221.2 10.3L221 10.5L220.8 10.7L220.7 10.9L220.6 11.1L220.5 11.3L220.4 11.5L220.3 11.7L220.2 11.9L220.1 12.1L220 12.3L219.9 12.5V12.7V12.9V13.1V13.4V13.7V14L220.8 18.3L219.8 23.2V23.4V23.6V23.8V24L219.9 24.2L220 24.4L220.1 24.6L220.2 24.8L220.3 25L220.4 25.2L220.5 25.4L220.6 25.6L220.7 25.8L220.8 26L220.9 26.2L221.1 26.3L221.3 26.4L221.5 26.5L221.7 26.6L221.9 26.7L222.1 26.8L222.3 26.9L222.5 27L222.7 27.1L222.9 27.2L223.1 27.3L223.3 27.4H223.5H223.7H223.9H224.2H224.5H224.7H224.9H225.1H225.3H225.5H225.7H225.9H226.1H226.3H226.5H226.7H226.9H227.1H227.3H227.5H227.7L227.8 27.8L227.9 28.2L228 28.6L228.2 29L228.4 29.3L228.6 29.6L228.8 29.9L229 30.2L229.2 30.5L229.4 30.8L229.6 31.1L229.8 31.4L230 31.7L230.2 31.9L230.4 32.1L230.6 32.3L230.8 32.5L231 32.7L231.2 32.9L231.4 33.1L231.6 33.2L231.8 33.3L232 33.4L232.2 33.5L232.4 33.6L232.6 33.7H232.8H233H233.2H233.4H233.6L233.8 33.6L239.3 31.4L240.3 30.5L242.2 31.3L243.7 31.5L243.8 32.1L243.9 32.6L244 33.1L244.1 33.6L244.2 34.1L244.3 34.6L244.4 35.1V35.6V36.1V36.6V37.1V37.6V38V38.4V38.8V39.2V39.5V39.8V40.1V40.4V40.7V40.9V41.1V41.3V41.5V41.7V41.9V42.1V42.3V42.5L244.3 42.7L244.2 42.9L244.1 43.1L244 43.4L243.9 43.7L243.8 44L243.7 44.3L243.6 44.6L243.5 44.9L243.4 45.2L243.3 45.5L243.2 45.8L243.1 46.2L242.9 46.6L242.7 47L242.5 47.4L242.3 47.8L242.1 48.2L242 47.8L241.9 47.4L241.8 47L241.7 46.6L241.6 46.3L241.5 46L241.4 45.7L241.3 45.4L241.2 45.1L241.1 44.8L241 44.5L240.9 44.2L240.8 43.9L240.7 43.6L240.6 43.4L240.5 43.2L240.4 43L240.2 42.7L240 42.4L239.8 42.1L239.6 41.8L239.4 41.5L239.2 41.2L239 40.9L238.8 40.6L238.5 40.3L238.2 40L237.9 39.7L237.3 39L236.6 38.2H236.3H236H235.7H235.4L235.1 38.3L234.8 38.4L234.6 38.5L234.4 38.6L234.2 38.7L234 38.8L233.8 38.9L233.6 39L233.4 39.1L233.2 39.2L233 39.4L232.9 39.6L232.8 39.8L232.7 40L232.6 40.2L232.5 40.4L232.4 40.6L232.3 40.8L232.2 41L232.1 41.2L232 41.5L231.9 41.8V42.1V42.4V42.7V43V43.3V43.6V44.5V44.8V45.1V45.4V45.7L232 46L232.1 46.3L232.2 46.6L232.3 46.9L232.4 47.2L232.5 47.5L232.6 47.8L232.7 48.1L232.9 48.4L233.1 48.7L233.3 49L233.5 49.3L233.7 49.6L233.9 49.9L234.2 50.2L234.5 50.5L234.8 50.8L235.1 51.1L235.4 51.4L235.7 51.7L236.1 52L236.5 52.3L236.9 52.6L237.3 52.9L237.7 53.2L238.2 53.5H238.7L235.7 57.1L234.6 58.9L230.1 63.2L230.4 64.5L233.4 63.1L236.8 60.3L239.2 56.5L242.1 53.1L243.1 52.4L243.3 51.9L243.5 51.4L243.7 50.9L243.9 50.4L244.1 49.9L244.3 49.4L244.5 48.9L244.7 48.4L244.8 48.1L244.9 47.8L245 47.5L245.1 47.2L245.2 46.9L245.3 46.6L245.4 46.3L245.5 46L245.6 45.7L245.7 45.4L245.8 45.1L245.9 44.8L246 44.5L246.1 44.2L246.2 43.8L246.3 43.4L247 42.7H247.6L248.2 42.6L248.8 42.5L249.4 42.4L249.9 42.3L250.4 42.2L250.9 42.1L251.4 42L251.9 41.9L252.4 41.8L252.8 41.6L253.2 41.4L253.6 41.2L254 41L254.4 40.8L254.7 40.6L255 40.4L255.3 40.2L255.6 39.9L255.9 39.6L256.1 39.3L256.3 39L256.5 38.7L256.7 38.4L256.9 38.1L257 37.8L257.1 37.4L257.2 37L257.3 36.6L257.4 36.2V35.8V35.4V35.3V35.2V35.1V35V34.9V34.8V34.7V34.6V34.5V34.4V34.3V34.2V34.1V34V33.9V33.8L257.3 33.7L257.2 33.6L257.1 33.5L257 33.4L256.9 33.2L256.7 33L256.5 32.8L256.3 32.6L256.1 32.4L255.9 32.2L247.5 36.4L246.7 28.9L247 28.7L247.3 28.5L247.6 28.3L247.8 28.1L248 27.9L248.2 27.7L248.4 27.5L248.6 27.3L248.8 27.1L249 26.9L249.2 26.7L249.4 26.5L249.6 26.3L249.7 26.1L249.8 25.9L249.9 25.7L250 25.6L250.1 25.4L250.2 25.2L250.3 25.1L250.4 24.9L250.5 24.8L250.6 24.7L250.7 24.6V24.5V24.4V24.3V24.2V24.1V24V23.9V23.7V19.6L253 12.6V12.5V12.4V12.3V12.2V12V11.8V11.6V11.4V11.3V11.2V11.1V11V10.8V10.6V10.4V10.2V10V9.9V9.8V9.7V9.6V9.5L252.9 9.4V9.3L252.8 9.2L252.7 9.1L252.6 9L252.5 8.9L252.4 8.8L252.3 8.7L252.2 8.6L252.1 8.5L252 8.4L251.9 8.3L251.8 8.2L251.7 8.1L251.6 7.9L251.5 7.7L251.4 7.5L251.2 7.3L251 7.1L250.8 6.9L250.6 6.7L250.4 6.5L248.2 6.8L248.1 6.3L248 5.8L247.9 5.4L247.8 5L247.7 4.6L247.6 4.2L247.5 3.8L247.4 3.5L247.3 3.2L247.2 2.9L247.1 2.6L247 2.3L246.9 2L246.8 1.7L246.7 1.5L246.6 1.3L246.5 1.1L246.4 0.9L246.3 0.7L246.2 0.5L246.1 0.4L246 0.3L245.9 0.2L245.8 0.1L245.7 0V0.5L245.6 0.4L245.5 0.3H245.4H245.3H245.1H244.7Z" fill="black"/>
</svg>
