<?xml version="1.0" encoding="UTF-8"?><svg id="Layer_2" xmlns="http://www.w3.org/2000/svg" viewBox="0 0 150 150.06"><defs><style>.cls-1{fill:#f8992a;}.cls-2{fill:#f2f2f2;}.cls-3{fill:#7cc244;}.cls-4{fill:#552d88;}</style></defs><g id="Layer_1-2"><path class="cls-2" d="m149.83,71.4c-.15-3.01-.39-5.99-.92-8.96-.54-3.01-1.23-5.98-2.04-8.92-.88-3.2-2.2-6.24-3.47-9.3-1.76-4.24-4.2-8.13-6.76-11.93-2.53-3.74-5.52-7.09-8.7-10.29-2.24-2.25-4.59-4.35-7.07-6.3-4.74-3.71-9.91-6.73-15.39-9.22-2.7-1.22-5.45-2.36-8.27-3.17-3.98-1.15-8.02-2.12-12.17-2.57-2.37-.25-4.74-.55-7.12-.67-2.86-.15-5.73-.06-8.51.21-1.57-.21-3,.24-4.45.42-2.01.24-4,.76-5.99,1.13-2,.37-3.96.89-5.88,1.47-10.21,3.05-19.32,8.17-27.33,15.16-4.69,4.09-8.89,8.65-12.35,13.88-1.32,2-2.67,4-3.88,6.07-1.62,2.77-2.89,5.71-4.13,8.66-1.51,3.62-2.63,7.36-3.5,11.18-.46,2.03-.82,4.08-1.1,6.16-.25,1.87-.68,3.75-.72,5.63-.08,4.28-.22,8.56.31,12.84.56,4.53,1.36,9.01,2.68,13.39,2.11,7.02,5.17,13.58,9.18,19.74,5.22,8.01,11.72,14.75,19.48,20.25,8.48,6.02,17.86,10.09,28.06,12.21,3.58.74,7.2,1.33,10.84,1.5,3.13.15,6.28.15,9.43-.11,3.81-.32,7.58-.84,11.32-1.67,12.25-2.71,23.07-8.25,32.58-16.39,2.74-2.35,5.27-4.92,7.64-7.67,2.28-2.64,4.36-5.41,6.33-8.27.28-.4,0-.98.48-1.21.52-.26.72-.74.98-1.19,2.96-4.95,5.34-10.16,7.09-15.66.95-2.98,1.68-6,2.28-9.06.58-2.92.74-5.89,1.03-8.85.1-1.01.15-2.03.19-3.04.06-1.82-.06-3.63-.15-5.44Z"/><path class="cls-4" d="m85.04,22.94l-.51.17-.67.34-.51.34-.84.51-.67.67-.84.67-1.01.84-.84,1.01-.34-.67-.34-.67-.51-.51-.34-.34-.34-.34-.51-.34-.51-.17-.34-.17h-1.52l-.51.17h-.51l-.51.34-.51.17-.51.34-.51.17-.51.34-.51.51-.51.34-.34.51-.51.34-.51.51-.34.51-.51.51-.34.51-.34.51-.34.51-.34.51-.17.51-.34.51-.17.34-.34-.84-.34-.84-.17-.34-.17-.51-.17-.34-.17-.51-.17-.34-.17-.51-.17-.34-.17-.34-.17-.34-.17-.34-.34-.34-.17-.34-.17-.17-.34-.34-.17-.34-.34-.17-.17-.17-.34-.17-.34-.17h-.34l-.34-.17h-1.35l-.34.17-.51.17-.34.17h-.34l-.17.17-.17.17-.17.17-.17.17-.34.17-.17.17-.17.17-.17.17-.17.17v.17l-.17.34-.17.17-.17.17v.34l-.17.17-.17.17v.34l-.17.17v.17l-.17.34v.17l-.17.34v.17l-.17.17v.51l-.17.34v.51l-.17.34-2.02,3.88-1.18.34-1.18.51-1.01.51-1.01.51-.84.51-.84.51-.67.67-.51.51-.51.67-.34.67-.34.67-.34.51v.67l-.17.67v1.35l.17.67.34.67.17.67.34.67.51.67.51.67.51.51.51.67.67.67.67.51.84.51.84.51.84.51.84.34,1.01.51,1.01.34-1.52-.17h-2.36l-1.01.34-.67.34-.67.34-.51.51-.34.51-.17.67-.17.51v.84l.17.67.17.67.34.84.34.67.51.67.51.84.67.67.67.51.67.67.67.34.84.51.84.34.84.17.67.17h.84l.84-.17.84-.34.67-.34.84-.67.67-.84.67-.84v.84l-.17.67v3.2l-.17.51v2.19l.17.51v1.18l.17.51v.51l.17.51.17.34.17.51.17.51.17.34.17.34.34.34.34.34.34.34.34.34.51.17.34.34.51.17.67.17h2.53l.51-.17.67-.17.34-.34.51-.17.51-.34.51-.34.34-.51.51-.34.34-.51.34-.51.34-.51.34-.51.34-.51.34-.67.34-.51.17-.51.34-.67.34-.51.17-.67.17-.51.34-.67.17-.51.17-.67.34-.51.17-.51.17-.51.17-.51,1.01,1.52,1.18,1.35,1.01,1.01,1.18.84,1.18.67,1.01.51,1.18.17,1.01.17h2.19l1.01-.34,1.01-.34.84-.51,1.01-.51.67-.67.84-.67.67-.84.51-.84.51-.84.34-.84.34-.84.17-1.01v-.84l-.17-.84-.17-.84-.51-.84-.51-.84-.67-.67-1.01-.51-1.01-.51-1.18-.51-1.52-.34.34-.34.34-.34.34-.34.34-.34.84-.84,1.01-.84.51-.51.34-.51.51-.51.51-.34.51-.51.51-.51.51-.51.34-.67.51-.51.34-.51.51-.51.34-.51.34-.67.34-.51.34-.51.17-.67.34-.51.17-.51v-.67l.17-.51v-1.18l-.17-.51-.17-.51-.17-.51-.17-.34-.17-.34-.17-.34-.17-.17-.34-.34-.17-.17-.17-.34-.34-.17-.17-.17-.17-.17-.34-.17-.17-.17h-.34l-.34-.17h-.51l-.17-.17-.34.17h-.84l-.34.17h-.34l-.34.17-.34.17-.17.17-.34.17-.34.17-.34.34-.34.17-.34.34v-8.42l-.17-.84v-1.52l-.17-.67v-.67l-.17-.67-.17-.51-.17-.51-.17-.34-.34-.34-.17-.17-.34-.34h-1.35Z"/><path class="cls-3" d="m80.15,105v-.67l-.17-.34v-1.52l-.17-.51v-.51l-.17-.67-.17-.67v-.67l-.17-.51-.17-.67-.17-.67-.17-.67-.34-.67-.17-.67-.17-.67-.34-.67-.17-.51-.34-.67-.34-.51-.17-.67-.34-.51-.51-.34-.34-.51-.34-.34-.34-.34-.51-.17-.34-.34-.51-.17h-1.18l-.17.17h-.34l-.17.17-.17.17-.34.17-.17.17-.17.17-.34.17-.17.17-.17.17-.34.34-.17.17-.17.34-.17.17-.17.34-.34.17-.17.34-.17.17-.17.34-.17.17v.34l-.17.17-.17.34-.17.17v.17l-.17.34v.17l-.17.17v1.35l.17.34.17.51.17.67.34.51.17.51.34.67.34.67.34.51.34.67.51.67.34.67.51.51.51.67.51.51.51.67.51.51.51.51.67.51.51.34.51.51.51.34.67.17.51.34.51.17h1.68l.51-.17.51-.17v-3.2Z"/><path class="cls-3" d="m102.06,77.87h-.51l-.51.17h-.51l-.51.17-.51.34-.67.17-.67.34-.51.34-.67.34-.67.34-.67.51-.67.34-.67.51-.67.51-.51.51-.67.51-.67.51-.51.67-.51.51-.51.67-.51.67-.34.51-.34.67-.34.67-.34.67-.17.67-.17.67v1.35l2.7.67h.51l.34.17h2.36l.51.17.51-.17h1.85l.51-.17h.67l.67-.17.51-.17h.67l.51-.34.67-.17.51-.17.67-.17.51-.34.51-.34.51-.34.51-.34.34-.34.51-.51.34-.51.34-.51.17-.51.34-.51v-.67l.17-.17v-.67l-.17-.34v-.67l-.17-.17v-.34l-.17-.34v-.34l-.17-.34-.17-.34v-.34l-.17-.17-.17-.34-.17-.34-.17-.34-.17-.17-.17-.34-.17-.17-.17-.34-.17-.17-.17-.34-.17-.17-.17-.17v-.17l-.17-.17-.17-.17-.17-.17h-.17l-.17-.17h-.67Z"/><path class="cls-1" d="m70.72,46.19l-.34-.17h-3.2l-.34.17h-.67l-.34.17-.34.17h-.34l-.34.17-.17.17-.34.17-.17.34-.17.17-.17.34v.17l-.17.34v1.18l.17.34.17.51.17.51.17.51.34.51.34.51.34.51.34.34.34.34.51.17.34.34.51.17.51.17h.84l.51.17.51-.17h.51l.34-.17h.51l.51-.17.34-.17.34-.34.51-.17.34-.34.17-.17.34-.34.17-.34.17-.34.17-.34.17-.51v-.34l-.17-.34v-.51l-.17-.34-.34-.51-.34-.34-.34-.51-2.19-2.02Z"/><path d="m69.87,46.03h2.02l-.34,1.68.67,3.03-4.21,2.53-3.03-1.35.17-3.03,1.35-1.52,2.53.34.84-1.68Zm-.17-3.37h-2.02l-.34.17-.34.17-.34.17-.34.17-.34.17-.34.17-.34.17-.34.17-.34.17-.34.17-.17.17-.17.17-.17.17-.17.17-.17.17-.17.17-.17.17-.17.17-.17.17-.17.17-.17.17-.17.17-.17.17-.17.17-.17.17-.17.17-.17.17-.17.17.17.17-.17.17-.17.17-.17.17v3.03l.17.17.17.17.17,1.18.17.17.34.51.34.51.17.17.17.17.17.17.17.17.17.17.17.17.17.17.17.17.17.17.17.17.17.17.17.17.17.17.17.17.17.17.17.17.17.17.17.17.17.17.17.17h6.4l.17-.17.17-.17.34-.17.34-.17.17-.17.17-.17.17-.17.17-.17.17-.17.17-.17.17-.17.17-.17.17-.17.17-.17.17-.17.17-.17.17-.17.17-.17.17-.17.17-.17.17-.17.17-.17.17-.17.17-.17.17-.17.17-.17.17-.17.17-.17v-2.53l-.17-.34-.17-.34-.17-.34-.17-.34-.17-.51-.17-.51-.17-.51-.17-.51-.17-.51-.17-.51-.34-.51-.34-.67-3.37-.84h-1.68v-.84Zm7.75,64.36l-.51-.34-.51-.34-.51-.17-.84-.51-.84-.51-.34-.17-.34-.17-.34-.17-.34-.17-.34-.17-.34-.17-.34-.17-.34-.17-.34-.34-.34-.34-.34-.34-.34-.34-.34-.34-.34-.34-.34-.34-.34-.34-.34-.51-.34-.51-.34-.51-.34-.51-.34-.51-.34-.67-.34-.67-.34-.67,2.7-4.89,2.19-.34,6.23,12.97,2.53.51-2.02,2.7-.34-.51Zm12.97-18.03l2.02-1.35,1.01-1.85,3.71-1.01,2.19-1.68h1.35l1.35-1.01v3.03l-1.35,1.35-1.68,1.68-3.71,1.01-2.02,1.01-2.86-1.18Zm-13.31-58.13l2.19-3.03,2.19-.34,1.52-1.68,2.02.34.17.17.17.17.17.17.17.17.17.17.17.17.17.17.17.17v6.4l-.17.34-.17.34-.17.34-.17.34-.17.34-.17.51-.17.51-.17.17-.17.17.17.51-.17.17.51,2.86,2.53-.67,2.36-1.52h3.37l.17.17.17.17.17.17.17.17.17.17.17.17.17.17.17.17.17.17.17.17.17.17.17.17v.17l.17.17v3.2l-.17.34v.34l-.17.34-.17.34-.17.34-.17.34-.17.34-.17.34-.17.34-.17.34-.17.34-.17.34-.17.34-.17.34-.17.34-.34.34-.34.51-.34.51-.34.51-.34.51-.34.51-.34.51-.34.51-2.19.17-.51,2.02-2.7.51-.17,1.85,5.56,2.02v3.54l-.17.34-.17.34-.17.34-.17.34-.17.34-.17.34-.17.34-.17.34-.17.34-.17.34-.34.34-.34.34-.34.34-.34.34-.34.34-.34.17-.34.17-.34.17-.34.17-.34.17-.34.17-.34.17-.51.17-.51.17-.51.17h-3.37l-.17-.17-.17-.17-.17-.17-.17-.17-.17-.17-.17-.17-.17-.17-.17-.17-.17-.17-.17-.17-.17-.17-.17-.17-.17-.17-.17-.17-.17-.17-.17-.17-.17-.17-.17-.17-.17-.17-.17-.17-.17-.17-.17-.17-.17-.17-.17-.17-2.19.34-.17.34-.17.34-.17.34-.17.84-.17.34-.17.34-.17.34-.17.34-.34.34-.34.34-.34.34-.34.34-.34.34-.34.34-.34.34-.34.17-.34.17-.34.17-.34.17-.34.17-.34.17-.34.17-.34.17-.34.17-.34.17-.34.17-.34.17-.17.17h-2.02l-.34-.17-.34-.17-.34-.17-.34-.17-.34-.17-.34-.17-.34-.17-.34-.17-.34-.17-.34-.34-.34-.34-.34-.34-.34-.34-.34-.34-.34-.34-.34-.34-.34-.51-.34-.51-.34-.51-.17-.51-.34-.51-.34-.51-.34-.51-.34-.67-.17-.67-.17-.67-.17-.67-.34-.67-.34.34-.34.17-.34.17-.34.17-.34.17-.34.17-.34.17-.34.17-.34.17-.34.17h-3.71l-.34-.17-.17-.17-.34-.17-.17-.17-.17-.17-.17-.17-.17-.17-.17-.17-.17-.17-.17-.17-.17-.17-.17-.17-.17-.17-.17-.17-.17-.17-.17-.17-.17-.34-.17-.34-.17-.34-.17-.34-.17-.34v-3.54l.17-.17.17-.17.17-.17.17-.17.17-.17.17-.17.17-.17.34-.34.34-.34.34-.34.34-.34.17-.17.17-.17.17-.17.17-.17,2.19.67.17-.17.17-.34.34-.34v-3.03l-3.54-.84-1.35-3.03.34-.84.34-.84.34-.67.34-.67.34-.67.34-.67.34-.51.51-.51.51-.51.51-.51.51-.34.51-.34.51-.34.51-.34.51-.17.51-.17.34-.17.34-.17.34-.17.34-.17.34-.17.34-.17h1.85l.67-2.02-.17-.17-.17-.34-.17-.17-.17-.17-.17-.17-.17-.34-.17-.34-.17-.34-.17-.34-.17-.34v-4.21l.17-.17.17-.17.17-.17.17-.34.34-.34.34-.34.34-.34.34-.51.34-.51,3.88,1.68,1.68,6.57,3.03-.17v-5.05l.17-.34.17-.34.17-.34.17-.34.17-.34.17-.34.17-.17.17-.17.17-.17.17-.17.17-.17.17-.17.17-.17.17-.17.17-.17h.84l2.36-.34,2.02,4.72h3.2v1.35Zm7.92-8.93h-2.19l-.51.17-.51.17-.67.17-.67.17-.67.17-.67.34-.67.34-.67.34-.67.34-.84.34-.17-.17-.17-.17-.17-.17-.17-.17-.17-.17-.17-.17-.17-.17-.17-.17-.17-.17-.17-.17-.17-.17-.17-.17-.17-.17-.17-.17-.17-.17h-.17l-.17-.17h-4.89l-.17.17-.17.17-.17.17-.17.17-.17.17-.17.17-.17.17-.17.17-.17.17-.17.17-.17.17-.17.17-.17.17-.17.17-.17.17-.34.51-.34.51-.51-.34-.51-.34-.51-.34-.51-.34-.17-.17-.17-.17-.17-.17-.17-.17-.17-.17-.17-.17-.17-.17-.17-.17-.17-.17h-3.88l-.34.17-.34.17-.34.17-.34.17-.34.17-.34.17-.34.17-.17.34-.17.34-.17.34-.17.34-.17.34-.17.34-.17.34-.17.51-.17.51-.17.51-.17.51-.17.51-.17.51-.17.51-.17.51-.17.51-.17.51-.17.67-.17.67-.17.67-.17.67-.67.34-.51.34-.51.34-.51.34-.51.34-.51.34-.51.34-.51.34-.34.34-.34.34-.34.34-.34.34-.34.34-.34.34-.34.34-.34.34-.34.34-.17.34-.17.34-.17.34-.17.34-.17.34-.17.34-.17.34-.17.34-.17.34v2.53l1.52,7.24-1.68,8.26v1.35l.17.34.17.34.17.34.17.34.17.34.17.34.17.34.17.34.17.34.17.34.17.34.34.17.34.17.34.17.34.17.34.17.34.17.34.17.34.17.34.17.34.17.34.17.34.17h7.41l.17.67.17.67.17.67.34.67.34.51.34.51.34.51.34.51.34.51.34.51.34.51.34.51.34.51.34.34.34.34.34.34.34.34.34.34.34.34.34.34.34.17.34.17.34.17.34.17.34.17.34.17h1.68l.34-.17,9.27-3.71,1.68-1.52,3.2,1.35,2.53.34.17,1.01.17.84.17.84.17.84.17.84.17.84.17.84v12.47l-.17.34-.17.34-.17.34-.17.51-.17.51-.17.51-.17.51-.17.51-.17.51-.17.51-.17.51-.17.51-.17.67-.34.67-.34.67-.34.67-.34.67-.34.67-.17-.67-.17-.67-.17-.67-.17-.67-.17-.51-.17-.51-.17-.51-.17-.51-.17-.51-.17-.51-.17-.51-.17-.51-.17-.51-.17-.51-.17-.34-.17-.34-.17-.34-.34-.51-.34-.51-.34-.51-.34-.51-.34-.51-.34-.51-.34-.51-.34-.51-.51-.51-.51-.51-.51-.51-1.01-1.18-1.18-1.35h-2.02l-.51.17-.51.17-.34.17-.34.17-.34.17-.34.17-.34.17-.34.17-.34.17-.34.17-.34.34-.17.34-.17.34-.17.34-.17.34-.17.34-.17.34-.17.34-.17.34-.17.34-.17.51-.17.51v6.57l.17.51.17.51.17.51.17.51.17.51.17.51.17.51.17.51.34.51.34.51.34.51.34.51.34.51.34.51.51.51.51.51.51.51.51.51.51.51.51.51.67.51.67.51.67.51.67.51.67.51.84.51h.84l-5.05,6.07-1.85,3.03-7.58,7.24.51,2.19,5.05-2.36,5.73-4.72,4.04-6.4,4.89-5.73,1.68-1.18.34-.84.34-.84.34-.84.34-.84.34-.84.34-.84.34-.84.34-.84.17-.51.17-.51.17-.51.17-.51.17-.51.17-.51.17-.51.17-.51.17-.51.17-.51.17-.51.17-.51.17-.51.17-.51.17-.67.17-.67,1.18-1.18h1.01l1.01-.17,1.01-.17,1.01-.17.84-.17.84-.17.84-.17.84-.17.84-.17.84-.17.67-.34.67-.34.67-.34.67-.34.67-.34.51-.34.51-.34.51-.34.51-.51.51-.51.34-.51.34-.51.34-.51.34-.51.34-.51.17-.51.17-.67.17-.67.17-.67.17-.67v-4.04l-.17-.17-.17-.17-.17-.17-.17-.17-.17-.34-.34-.34-.34-.34-.34-.34-.34-.34-.34-.34-14.15,7.08-1.35-12.64.51-.34.51-.34.51-.34.34-.34.34-.34.34-.34.34-.34.34-.34.34-.34.34-.34.34-.34.34-.34.34-.34.17-.34.17-.34.17-.34.17-.17.17-.34.17-.34.17-.17.17-.34.17-.17.17-.17.17-.17v-8.42l3.88-11.79v-5.22l-.17-.17v-.17l-.17-.17-.17-.17-.17-.17-.17-.17-.17-.17-.17-.17-.17-.17-.17-.17-.17-.17-.17-.17-.17-.17-.17-.17-.17-.34-.17-.34-.17-.34-.34-.34-.34-.34-.34-.34-.34-.34-.34-.34-3.71.51-.17-.84-.17-.84-.17-.67-.17-.67-.17-.67-.17-.67-.17-.67-.17-.51-.17-.51-.17-.51-.17-.51-.17-.51-.17-.51-.17-.51-.17-.34-.17-.34-.17-.34-.17-.34-.17-.34-.17-.34-.17-.17-.17-.17-.17-.17-.17-.17-.17-.17v.84l-.17-.17-.17-.17h-1.35Z"/></g></svg>