<?xml version="1.0" encoding="UTF-8"?>
<svg id="Layer_2" data-name="Layer 2" xmlns="http://www.w3.org/2000/svg" viewBox="0 0 160.77 78.23">
  <defs>
    <style>
      .cls-1 {
        fill-rule: evenodd;
        opacity: .75;
      }

      .cls-1, .cls-2, .cls-3 {
        stroke-width: 0px;
      }

      .cls-2 {
        fill: #f2f2f2;
      }

      .cls-3 {
        fill: #58a67a;
      }
    </style>
  </defs>
  <g id="Layer_2-2" data-name="Layer 2">
    <g>
      <path class="cls-1" d="M59.09,17.57h-.56s-6.37-13.03-6.63-13.49C49.43-.29,45.93,0,45.93,0H15.19c-4.64-.12-5.86,3.3-5.86,3.3l-5.91,14.27h-.54c-1.59,0-2.89,1.29-2.89,2.89v15.46c0,1.6,1.29,2.89,2.89,2.89h1.99v7.36c0,1.59,1.29,2.89,2.89,2.89h4.23c1.59,0,2.89-1.29,2.89-2.89v-7.36h33.31v7.36c0,1.59,1.29,2.89,2.89,2.89h4.23c1.59,0,2.89-1.29,2.89-2.89v-7.36h.89c1.59,0,2.89-1.29,2.89-2.89v-15.46c0-1.59-1.29-2.89-2.89-2.89M11.08,5.1s1.25-3.03,4.91-3.03h28.42s3.11-.34,4.88,2.84c.2.36,6.14,12.07,6.14,12.07H6.54l4.55-11.89ZM11,31.55c-2.26,0-4.09-1.83-4.09-4.09s1.83-4.09,4.09-4.09,4.09,1.83,4.09,4.09-1.83,4.09-4.09,4.09M51.67,31.55c-2.26,0-4.09-1.83-4.09-4.09s1.83-4.09,4.09-4.09,4.09,1.83,4.09,4.09-1.83,4.09-4.09,4.09"/>
      <path class="cls-1" d="M125.4,17.57h-.56s-6.37-13.03-6.63-13.49C115.74-.29,112.24,0,112.24,0h-30.74c-4.64-.12-5.86,3.3-5.86,3.3l-5.91,14.27h-.54c-1.59,0-2.89,1.29-2.89,2.89v15.46c0,1.6,1.29,2.89,2.89,2.89h1.99v7.36c0,1.59,1.29,2.89,2.89,2.89h4.23c1.59,0,2.89-1.29,2.89-2.89v-7.36h33.31v7.36c0,1.59,1.29,2.89,2.89,2.89h4.23c1.59,0,2.89-1.29,2.89-2.89v-7.36h.89c1.59,0,2.89-1.29,2.89-2.89v-15.46c0-1.59-1.29-2.89-2.89-2.89M77.39,5.1s1.25-3.03,4.91-3.03h28.42s3.11-.34,4.88,2.84c.2.36,6.14,12.07,6.14,12.07h-48.9l4.55-11.89ZM77.31,31.55c-2.26,0-4.09-1.83-4.09-4.09s1.83-4.09,4.09-4.09,4.09,1.83,4.09,4.09-1.83,4.09-4.09,4.09M117.98,31.55c-2.26,0-4.09-1.83-4.09-4.09s1.83-4.09,4.09-4.09,4.09,1.83,4.09,4.09-1.83,4.09-4.09,4.09"/>
      <rect class="cls-3" x="60.76" y="41.23" width="80.23" height="16.5"/>
      <g>
        <path class="cls-2" d="M66.12,45.33h1.46l1.07,3.39.37,1.29h.05l.36-1.29,1.08-3.39h1.46v8.29h-1.16v-3.74c0-.84.14-2.41.2-3.17h-.04l-.51,1.77-1.05,2.94h-.8l-1.03-2.94-.51-1.77h-.03c.08.76.2,2.33.2,3.17v3.74h-1.13v-8.29Z"/>
        <path class="cls-2" d="M76.29,45.33h1.48l2.74,8.29h-1.36l-1.34-4.52c-.27-.9-.54-1.82-.78-2.76h-.05c-.25.94-.51,1.86-.78,2.76l-1.36,4.52h-1.3l2.74-8.29ZM75.08,50.23h3.85v1.01h-3.85v-1.01Z"/>
        <path class="cls-2" d="M82.33,45.33h1.29v3.95h.04l3.21-3.95h1.44l-4.69,5.75v2.54h-1.29v-8.29ZM84.77,49.2l.76-1,3.06,5.42h-1.43l-2.39-4.43Z"/>
        <path class="cls-2" d="M90.55,45.33h5.23v1.07h-3.96v2.35h3.35v1.07h-3.35v2.73h4.08v1.07h-5.35v-8.29Z"/>
      </g>
      <rect class="cls-3" x="144.42" y="41.23" width="16.35" height="16.5"/>
      <rect class="cls-3" x="60.76" y="60.09" width="80.23" height="16.5"/>
      <g>
        <path class="cls-2" d="M66.12,64.19h1.46l1.07,3.39.37,1.29h.05l.36-1.29,1.08-3.39h1.46v8.29h-1.16v-3.74c0-.84.14-2.41.2-3.17h-.04l-.51,1.77-1.05,2.94h-.8l-1.03-2.94-.51-1.77h-.03c.08.76.2,2.33.2,3.17v3.74h-1.13v-8.29Z"/>
        <path class="cls-2" d="M73.8,68.3c0-2.7,1.33-4.26,3.22-4.26s3.22,1.56,3.22,4.26-1.33,4.34-3.22,4.34-3.22-1.59-3.22-4.34ZM78.94,68.3c0-1.99-.76-3.15-1.91-3.15s-1.91,1.16-1.91,3.15.76,3.22,1.91,3.22,1.91-1.19,1.91-3.22Z"/>
        <path class="cls-2" d="M82.25,64.19h2.11c2.47,0,3.88,1.42,3.88,4.11s-1.41,4.18-3.82,4.18h-2.17v-8.29ZM84.28,71.45c1.73,0,2.65-1.08,2.65-3.15s-.92-3.07-2.65-3.07h-.76v6.22h.76Z"/>
        <path class="cls-2" d="M90.55,64.19h5.23v1.07h-3.96v2.35h3.35v1.07h-3.35v2.73h4.08v1.07h-5.35v-8.29Z"/>
        <path class="cls-2" d="M98.76,64.19h1.26v7.22h3.99v1.07h-5.25v-8.29Z"/>
      </g>
      <rect class="cls-3" x="144.42" y="60.09" width="16.35" height="16.5"/>
      <polygon class="cls-2" points="156.8 48.71 153.07 52.45 149.33 48.71 156.8 48.71"/>
      <polygon class="cls-2" points="156.8 67.4 153.07 71.14 149.33 67.4 156.8 67.4"/>
    </g>
  </g>
</svg>