<?xml version="1.0" encoding="UTF-8"?>
<svg id="Layer_2" data-name="Layer 2" xmlns="http://www.w3.org/2000/svg" viewBox="0 0 86 41.85">
  <defs>
    <style>
      .cls-1 {
        fill-rule: evenodd;
        opacity: .75;
      }

      .cls-1, .cls-2, .cls-3 {
        stroke-width: 0px;
      }

      .cls-2 {
        fill: #f2f2f2;
      }

      .cls-3 {
        fill: #58a67a;
      }
    </style>
  </defs>
  <g id="Layer_2-2" data-name="Layer 2">
    <g>
      <path class="cls-1" d="M43.86,13.04h-.41s-4.73-9.67-4.92-10.02C36.69-.22,34.09,0,34.09,0H11.27c-3.44-.09-4.35,2.45-4.35,2.45L2.54,13.04h-.4c-1.18,0-2.14.96-2.14,2.14v11.47c0,1.18.96,2.14,2.14,2.14h1.48v5.46c0,1.18.96,2.14,2.14,2.14h3.14c1.18,0,2.14-.96,2.14-2.14v-5.46h24.72v5.46c0,1.18.96,2.14,2.14,2.14h3.14c1.18,0,2.14-.96,2.14-2.14v-5.46h.66c1.18,0,2.14-.96,2.14-2.14v-11.47c0-1.18-.96-2.14-2.14-2.14M8.23,3.78s.93-2.25,3.65-2.25h21.1s2.31-.25,3.63,2.11c.15.27,4.56,8.96,4.56,8.96H4.85l3.37-8.82ZM8.17,23.41c-1.68,0-3.04-1.36-3.04-3.04s1.36-3.04,3.04-3.04,3.04,1.36,3.04,3.04-1.36,3.04-3.04,3.04M38.35,23.41c-1.68,0-3.04-1.36-3.04-3.04s1.36-3.04,3.04-3.04,3.04,1.36,3.04,3.04-1.36,3.04-3.04,3.04"/>
      <rect class="cls-3" x="32.5" y="22.06" width="42.91" height="8.83"/>
      <g>
        <path class="cls-2" d="M35.37,24.25h.78l.57,1.81.2.69h.03l.19-.69.58-1.81h.78v4.44h-.62v-2c0-.45.07-1.29.11-1.7h-.02l-.27.95-.56,1.57h-.43l-.55-1.57-.27-.95h-.02c.04.41.11,1.25.11,1.7v2h-.61v-4.44Z"/>
        <path class="cls-2" d="M40.81,24.25h.79l1.46,4.44h-.73l-.71-2.42c-.14-.48-.29-.98-.42-1.48h-.03c-.13.5-.27,1-.42,1.48l-.73,2.42h-.7l1.46-4.44ZM40.16,26.87h2.06v.54h-2.06v-.54Z"/>
        <path class="cls-2" d="M44.04,24.25h.69v2.11h.02l1.72-2.11h.77l-2.51,3.08v1.36h-.69v-4.44ZM45.35,26.32l.41-.53,1.64,2.9h-.76l-1.28-2.37Z"/>
        <path class="cls-2" d="M48.44,24.25h2.8v.57h-2.12v1.26h1.79v.57h-1.79v1.46h2.18v.57h-2.86v-4.44Z"/>
      </g>
      <rect class="cls-3" x="77.26" y="22.06" width="8.74" height="8.83"/>
      <rect class="cls-3" x="32.5" y="32.15" width="42.91" height="8.83"/>
      <g>
        <path class="cls-2" d="M35.37,34.34h.78l.57,1.81.2.69h.03l.19-.69.58-1.81h.78v4.44h-.62v-2c0-.45.07-1.29.11-1.7h-.02l-.27.95-.56,1.57h-.43l-.55-1.57-.27-.95h-.02c.04.4.11,1.25.11,1.7v2h-.61v-4.44Z"/>
        <path class="cls-2" d="M39.48,36.54c0-1.45.71-2.28,1.72-2.28s1.72.83,1.72,2.28-.71,2.32-1.72,2.32-1.72-.85-1.72-2.32ZM42.23,36.54c0-1.07-.41-1.68-1.02-1.68s-1.02.62-1.02,1.68.41,1.73,1.02,1.73,1.02-.63,1.02-1.73Z"/>
        <path class="cls-2" d="M44,34.34h1.13c1.32,0,2.08.76,2.08,2.2s-.75,2.24-2.04,2.24h-1.16v-4.44ZM45.08,38.22c.93,0,1.42-.58,1.42-1.68s-.49-1.64-1.42-1.64h-.4v3.33h.4Z"/>
        <path class="cls-2" d="M48.44,34.34h2.8v.57h-2.12v1.26h1.79v.57h-1.79v1.46h2.18v.57h-2.86v-4.44Z"/>
        <path class="cls-2" d="M52.83,34.34h.67v3.86h2.14v.57h-2.81v-4.44Z"/>
      </g>
      <rect class="cls-3" x="77.26" y="32.15" width="8.74" height="8.83"/>
      <polygon class="cls-2" points="83.88 26.06 81.88 28.06 79.88 26.06 83.88 26.06"/>
      <polygon class="cls-2" points="83.88 36.06 81.88 38.06 79.88 36.06 83.88 36.06"/>
    </g>
  </g>
</svg>