<?xml version="1.0" encoding="UTF-8"?>
<svg id="Layer_2" data-name="Layer 2" xmlns="http://www.w3.org/2000/svg" viewBox="0 0 89.83 42.23">
  <defs>
    <style>
      .cls-1 {
        fill-rule: evenodd;
        opacity: .75;
      }

      .cls-1, .cls-2, .cls-3 {
        stroke-width: 0px;
      }

      .cls-2 {
        fill: #f2f2f2;
      }

      .cls-3 {
        fill: #58a67a;
      }

      .cls-4 {
        fill: none;
        stroke: #f2f2f2;
        stroke-miterlimit: 10;
        stroke-width: .5px;
      }
    </style>
  </defs>
  <g id="Layer_2-2" data-name="Layer 2">
    <g>
      <path class="cls-1" d="M43.79,13.02h-.41s-4.72-9.66-4.91-10C36.63-.22,34.04,0,34.04,0H11.26c-3.44-.09-4.34,2.44-4.34,2.44L2.54,13.02h-.4c-1.18,0-2.14.96-2.14,2.14v11.45c0,1.18.96,2.14,2.14,2.14h1.48v5.46c0,1.18.96,2.14,2.14,2.14h3.13c1.18,0,2.14-.96,2.14-2.14v-5.46h24.68v5.46c0,1.18.96,2.14,2.14,2.14h3.13c1.18,0,2.14-.96,2.14-2.14v-5.46h.66c1.18,0,2.14-.96,2.14-2.14v-11.45c0-1.18-.96-2.14-2.14-2.14M8.21,3.78s.93-2.25,3.64-2.25h21.06s2.31-.25,3.62,2.11c.15.27,4.55,8.95,4.55,8.95H4.84l3.37-8.81ZM8.15,23.38c-1.67,0-3.03-1.36-3.03-3.03s1.36-3.03,3.03-3.03,3.03,1.36,3.03,3.03-1.36,3.03-3.03,3.03M38.29,23.38c-1.67,0-3.03-1.36-3.03-3.03s1.36-3.03,3.03-3.03,3.03,1.36,3.03,3.03-1.36,3.03-3.03,3.03"/>
      <g>
        <rect class="cls-3" x="31.5" y="23" width="58.33" height="17.5" rx="3.65" ry="3.65"/>
        <rect class="cls-4" x="32.96" y="24.46" width="55.42" height="14.58" rx="3.24" ry="3.24"/>
        <g>
          <path class="cls-2" d="M39.51,27.35h1.57l2.9,8.79h-1.44l-1.42-4.79c-.29-.95-.57-1.93-.83-2.93h-.05c-.26,1-.54,1.98-.82,2.93l-1.44,4.79h-1.38l2.9-8.79ZM38.24,32.54h4.08v1.08h-4.08v-1.08Z"/>
          <path class="cls-2" d="M45.96,27.35h2.61c1.8,0,3.07.58,3.07,2.15,0,.85-.49,1.64-1.53,1.91v.05c1.28.21,2.01.9,2.01,2.1,0,1.75-1.37,2.58-3.33,2.58h-2.83v-8.79ZM48.41,31c1.36,0,1.92-.46,1.92-1.36s-.63-1.2-1.87-1.2h-1.16v2.56h1.11ZM48.63,35.04c1.39,0,2.17-.47,2.17-1.56,0-1-.75-1.42-2.17-1.42h-1.33v2.98h1.33Z"/>
          <path class="cls-2" d="M54.01,31.76c0-2.85,1.7-4.57,4.01-4.57,1.07,0,1.93.51,2.47,1.08l-.76.84c-.45-.46-1-.75-1.71-.75-1.57,0-2.62,1.28-2.62,3.35s1.05,3.4,2.64,3.4c.76,0,1.35-.34,1.87-.92l.76.82c-.69.82-1.59,1.28-2.76,1.28-2.18,0-3.9-1.65-3.9-4.54Z"/>
          <path class="cls-2" d="M62.87,35.04h2.43v-5.93h-1.91v-.86c1.04-.14,1.68-.35,2.26-.67h.99v7.46h2.15v1.1h-5.92v-1.1Z"/>
          <path class="cls-2" d="M71.02,35.36c2.78-2.43,4.38-3.92,4.38-5.29,0-.94-.57-1.56-1.74-1.56-.77,0-1.43.45-1.97.98l-.75-.74c.81-.81,1.65-1.31,2.89-1.31,1.74,0,2.85,1.02,2.85,2.57s-1.58,3.15-3.73,5.08c.52-.04,1.09-.07,1.58-.07h2.6v1.14h-6.13v-.78Z"/>
        </g>
        <rect class="cls-2" x="80" y="35" width="6" height="1"/>
      </g>
    </g>
  </g>
</svg>