<?xml version="1.0" encoding="UTF-8"?>
<svg id="Layer_2" data-name="Layer 2" xmlns="http://www.w3.org/2000/svg" viewBox="0 0 158.9 76.13">
  <defs>
    <style>
      .cls-1, .cls-2 {
        opacity: .75;
      }

      .cls-3, .cls-2, .cls-4, .cls-5, .cls-6 {
        stroke-width: 0px;
      }

      .cls-4 {
        fill: #f2f2f2;
      }

      .cls-5 {
        fill: #58a67a;
      }

      .cls-6 {
        fill-rule: evenodd;
      }
    </style>
  </defs>
  <g id="Layer_2-2" data-name="Layer 2">
    <g>
      <g class="cls-1">
        <path class="cls-6" d="M45.52,0H2.22C1,0,0,.99,0,2.22v41.88c0-1.22,1-2.22,2.22-2.22h.41l4.55-10.95s.94-2.62,4.51-2.53h23.69s3.29-.28,5.17,4.31l4.54,9.17h.43c1.23,0,2.22.99,2.22,2.22V2.22c0-1.22-.99-2.22-2.22-2.22"/>
        <path class="cls-6" d="M44.23,42.9h-.4l-4.27-8.63c-1.77-4.32-4.86-4.05-4.86-4.05H12.43c-3.36-.09-4.24,2.38-4.24,2.38l-4.28,10.3h-.39c-1.16,0-2.09.93-2.09,2.08v11.16c0,1.15.94,2.08,2.09,2.08h1.44v5.31c0,1.15.94,2.09,2.09,2.09h3.07c1.15,0,2.09-.93,2.09-2.09v-5.31h24.13v5.31c0,1.15.94,2.09,2.09,2.09h3.06c1.16,0,2.09-.93,2.09-2.09v-5.31h.65c1.16,0,2.09-.93,2.09-2.08v-11.16c0-1.15-.94-2.08-2.09-2.08M9.45,33.9s.91-2.19,3.56-2.19h20.59s2.8-.3,3.94,2.94l4.05,7.83H6.16l3.29-8.58ZM9.39,52.99c-1.64,0-2.96-1.32-2.96-2.95s1.33-2.95,2.96-2.95,2.96,1.32,2.96,2.95-1.33,2.95-2.96,2.95M32.2,54.35H15.54v-6.44s-.11-.96,1.02-1.13h14.51s1.08.11,1.13,1.3v6.27ZM38.86,52.99c-1.64,0-2.97-1.32-2.97-2.95s1.33-2.95,2.97-2.95,2.96,1.32,2.96,2.95-1.33,2.95-2.96,2.95"/>
      </g>
      <g class="cls-1">
        <path class="cls-3" d="M102.21,26.14c.07-.49-.1-1.01-.52-1.35-.1-.08-.2-.15-.3-.22-.44-.29-.98-.3-1.41-.07-.21-.04-.42-.07-.64-.07h-.39c-.26-.29-.63-.48-1.05-.48h-.23c-.42,0-.79.19-1.05.48h-.69c-.26-.3-.63-.48-1.05-.48h-.23c-.42,0-.79.19-1.05.48h-.69c-.26-.3-.63-.48-1.05-.48h-.23c-.42,0-.79.19-1.05.48h-.69c-.26-.3-.63-.48-1.05-.48h-.23c-.42,0-.79.19-1.05.48h-.69c-.26-.3-.63-.48-1.05-.48h-.23c-.42,0-.79.19-1.05.48h-.69c-.26-.3-.63-.48-1.05-.48h-.23c-.42,0-.79.19-1.05.48h-.69c-.26-.3-.63-.48-1.05-.48h-.26s0,.48,0,.48c0,0,0,0,0,0v-.48c-.53,0-.98.3-1.22.73-.44.18-.84.47-1.16.82-.49.07-.92.4-1.11.9-.05.12-.09.24-.12.36-.14.51,0,1.04.35,1.4.05.49.2.95.43,1.36-.07.49.11,1.01.52,1.34.1.08.2.15.31.22.44.29.98.29,1.41.06.2.04.41.06.62.06h.41c.26.29.63.48,1.05.48h.23c.42,0,.79-.19,1.05-.48h.69c.26.3.63.48,1.05.48h.23c.42,0,.79-.19,1.05-.48h.69c.26.3.63.48,1.05.48h.23c.42,0,.79-.19,1.05-.48h.69c.26.3.63.48,1.05.48h.23c.42,0,.79-.19,1.05-.48h.69c.26.3.63.48,1.05.48h.23c.42,0,.79-.19,1.05-.48h.69c.26.3.63.48,1.05.48h.23c.42,0,.79-.19,1.05-.48h.69c.26.3.63.48,1.05.48h.23c.53,0,.98-.3,1.22-.73.44-.18.84-.46,1.16-.81.49-.07.92-.39,1.12-.89.05-.12.09-.24.12-.36.15-.51,0-1.04-.34-1.4-.05-.49-.2-.95-.43-1.36ZM100.15,29.02s-.02.01-.02.02c-.22.15-.49.24-.78.24h-19.89c-.63,0-1.15-.42-1.34-.99,0,0,0-.02,0-.03-.04-.14-.07-.28-.07-.43,0-.2.04-.39.11-.56.1-.25.28-.47.49-.62.01,0,.02-.02.03-.02.22-.15.49-.24.78-.24h19.89c.63,0,1.16.42,1.34,1,0,0,0,.02,0,.03.04.14.07.28.07.42,0,.4-.16.76-.42,1.03-.06.06-.13.12-.2.17Z"/>
        <path class="cls-3" d="M104.55,15.75c0-1.24-1.06-2.24-2.36-2.24h-12.68l-.13-.63c0-1.1-.82-1.99-1.84-1.99h-1.54l-4.23-6.34c-.18-.81-.95-1.41-1.85-1.38l-12.32.37c-.07-1.03-.9-1.86-1.93-1.85h-.86c-1.09,0-1.96.93-1.93,2.04l.54,18.3c0,.1.02.2.04.29-1.8.68-3.09,2.45-3.09,4.53,0,2.67,2.12,4.84,4.74,4.84h8.19l-6.11-9.6s0-.05,0-.07l.34-14.84,9.42.2,4,5.16c-.02.11-.03.22-.03.33l-.89,7.15c0,1.1.82,1.99,1.84,1.99h20.79c1.3,0,2.36-1,2.36-2.24l-.47-4.03ZM82.76,20.57c-.75,0-1.36-.66-1.36-1.47l.64-5.16.02-.13c0-.81.61-1.47,1.36-1.47h3.53s.02,0,.03,0c.64.01,1.17.5,1.3,1.16.02.1.03.2.03.31l.16.77.39,1.87-3.19,2.15-2.28,1.54-.62.42Z"/>
      </g>
      <rect class="cls-5" x="58.89" y="39.13" width="80.23" height="16.5"/>
      <g>
        <path class="cls-4" d="M64.18,50.45l.75-.88c.63.59,1.47.98,2.37.98,1.05,0,1.63-.48,1.63-1.15,0-.81-.61-1.04-1.43-1.38l-1.17-.51c-.85-.33-1.78-.95-1.78-2.17,0-1.29,1.16-2.27,2.8-2.27,1.03,0,1.96.41,2.61,1.04l-.66.81c-.55-.46-1.16-.74-2-.74s-1.46.4-1.46,1.08c0,.72.72.98,1.45,1.27l1.12.5c1.04.41,1.82,1.01,1.82,2.22,0,1.33-1.12,2.42-3,2.42-1.19,0-2.27-.46-3.05-1.22Z"/>
        <path class="cls-4" d="M72.73,43.23h5.23v1.07h-3.96v2.35h3.35v1.07h-3.35v2.73h4.08v1.07h-5.35v-8.29Z"/>
        <path class="cls-4" d="M79.97,47.39c0-2.7,1.57-4.31,3.72-4.31,1.1,0,1.84.52,2.32,1.02l-.72.8c-.38-.4-.85-.71-1.61-.71-1.43,0-2.4,1.21-2.4,3.16s.86,3.21,2.4,3.21c.51,0,1-.15,1.27-.42v-1.97h-1.53v-1.04h2.7v3.58c-.53.53-1.44.97-2.51.97-2.09,0-3.65-1.56-3.65-4.29Z"/>
        <path class="cls-4" d="M88.17,43.23h1.46l1.07,3.39.37,1.29h.05l.36-1.29,1.08-3.39h1.46v8.29h-1.16v-3.74c0-.84.14-2.41.2-3.17h-.04l-.51,1.77-1.05,2.94h-.8l-1.03-2.94-.51-1.77h-.03c.08.76.2,2.33.2,3.17v3.74h-1.13v-8.29Z"/>
        <path class="cls-4" d="M96.65,43.23h5.23v1.07h-3.96v2.35h3.35v1.07h-3.35v2.73h4.08v1.07h-5.35v-8.29Z"/>
        <path class="cls-4" d="M104.24,43.23h1.36l2.42,4.93.77,1.75h.03c-.05-.83-.17-1.83-.17-2.73v-3.95h1.21v8.29h-1.36l-2.42-4.93-.77-1.74h-.03c.05.87.17,1.81.17,2.7v3.98h-1.21v-8.29Z"/>
        <path class="cls-4" d="M114.39,44.3h-2.68v-1.07h6.63v1.07h-2.68v7.22h-1.27v-7.22Z"/>
      </g>
      <rect class="cls-5" x="142.55" y="39.13" width="16.35" height="16.5"/>
      <rect class="cls-5" x="58.89" y="57.99" width="80.23" height="16.5"/>
      <g>
        <path class="cls-4" d="M64.25,62.09h1.46l1.07,3.39.37,1.29h.05l.36-1.29,1.08-3.39h1.46v8.29h-1.16v-3.74c0-.84.14-2.41.2-3.17h-.04l-.51,1.77-1.05,2.94h-.8l-1.03-2.94-.51-1.77h-.03c.08.76.2,2.33.2,3.17v3.74h-1.13v-8.29Z"/>
        <path class="cls-4" d="M74.42,62.09h1.48l2.74,8.29h-1.36l-1.34-4.52c-.27-.9-.54-1.82-.78-2.76h-.05c-.25.94-.51,1.86-.78,2.76l-1.36,4.52h-1.3l2.74-8.29ZM73.21,66.99h3.85v1.01h-3.85v-1.01Z"/>
        <path class="cls-4" d="M80.46,62.09h1.29v3.95h.04l3.21-3.95h1.44l-4.69,5.75v2.54h-1.29v-8.29ZM82.9,65.95l.76-1,3.06,5.42h-1.43l-2.39-4.43Z"/>
        <path class="cls-4" d="M88.68,62.09h5.23v1.07h-3.96v2.35h3.35v1.07h-3.35v2.73h4.08v1.07h-5.35v-8.29Z"/>
      </g>
      <rect class="cls-5" x="142.55" y="57.99" width="16.35" height="16.5"/>
      <polygon class="cls-4" points="154.93 46.6 151.2 50.34 147.46 46.6 154.93 46.6"/>
      <polygon class="cls-4" points="154.93 65.3 151.2 69.04 147.46 65.3 154.93 65.3"/>
      <path class="cls-2" d="M155.67,24.42c-.07-.2-.22-.37-.41-.47.17-.13.28-.32.32-.53.02-.1.02-.2,0-.3-.06-.31-.13-.61-.21-.91-.03-.09-.07-.16-.12-.23-.13-.19-.33-.32-.55-.36-.12-.02-.24-.02-.36.02,0,0-.02,0-.03,0h.03c.11-.08.2-.17.27-.27.13-.18.18-.39.15-.61-.01-.1-.04-.19-.09-.28-.15-.27-.31-.54-.48-.79-.06-.09-.14-.16-.22-.21-.18-.12-.39-.17-.6-.14-.12.02-.24.06-.35.13-.01,0-.02.01-.03.02,0,0,.02-.02.03-.03.09-.09.14-.2.18-.31.07-.22.05-.46-.06-.67-.04-.07-.08-.15-.15-.21-.22-.21-.46-.42-.7-.6-.08-.06-.17-.1-.27-.13-.21-.06-.43-.04-.63.06-.11.06-.2.13-.28.23,0,0-.01.02-.02.02,0,0,0-.02.01-.03.06-.12.08-.24.08-.36,0-.23-.09-.44-.25-.6-.07-.07-.14-.13-.22-.17-.28-.13-.56-.25-.86-.36-.08-.03-.17-.03-.25-.03-.24,0-.46.08-.62.24-.08.09-.15.19-.2.31,0,.01,0,.02-.01.04,0-.01,0-.03,0-.04.02-.13,0-.25-.04-.37-.07-.21-.21-.38-.41-.48-.09-.05-.18-.08-.28-.09-.25-.03-.5-.05-.75-.06l-1.09-10.6h.19c.46,0,.84-.38.84-.84s-.38-.84-.84-.84h-13.83c-.46,0-.84.38-.84.84s.38.84.84.84h1.36l-.12,2.04c-.1-.22-.31-.37-.57-.37-.35,0-.63.28-.63.63v6.1c-2.36.11-7.72.39-8.33.56-6.8,1.92-12.04,6.09-11.96,6.68l-.23,3.13.71.09,1.86,2.42h1.07c.1.24.33.41.6.41h.03s-.02,0-.03,0c-.36.07-.59.42-.52.78.05.24.11.48.18.71.11.35.48.55.83.44,0,0,.01,0,.02,0,0,0-.01,0-.02,0-.32.18-.43.59-.25.91.12.22.25.42.39.62.21.3.62.37.92.16,0,0,.02-.01.02-.02,0,0-.01.01-.02.02-.25.27-.23.69.04.94.18.17.37.32.56.47.29.22.71.16.93-.14,0,0,.01-.02.02-.02,0,0,0,.02-.01.03-.15.33,0,.73.32.88.22.1.45.19.68.27.34.11.72-.07.84-.42,0,0,0-.02,0-.02,0,0,0,.02,0,.02-.04.37.22.7.58.74.24.03.48.04.73.04h0c.36,0,.66-.3.66-.66,0,0,0-.02,0-.03,0,0,0,.02,0,.03.07.36.43.59.78.52.24-.05.48-.11.71-.19.35-.11.54-.49.43-.84,0,0,0-.02-.01-.03,0,.01.01.02.02.03.18.32.59.43.9.24.21-.12.41-.25.61-.4.3-.22.36-.63.15-.93,0,0-.01-.02-.02-.02,0,0,.01.01.02.02.27.25.69.23.93-.05.16-.18.32-.37.46-.57.22-.3.15-.71-.14-.93,0,0-.01,0-.02-.01,0,0,.02,0,.02.01.33.15.72,0,.87-.34.1-.22.19-.45.26-.69.11-.35-.08-.73-.42-.84-.01,0-.02,0-.03,0,.01,0,.02,0,.03,0,.36.04.69-.23.73-.59,0-.09,0-.17.01-.26l8.73.09.1-.22c.05.2.09.4.15.6.03.1.08.18.14.26.13.18.33.29.54.32.12.02.24.02.37-.02.01,0,.02,0,.04-.01-.01,0-.02.01-.03.02-.11.06-.2.15-.27.25-.13.18-.18.41-.14.63.02.09.04.18.09.27.15.27.32.53.49.79.06.09.14.16.22.21.18.12.4.16.61.13.12-.02.23-.06.34-.14,0,0,.02-.01.03-.02,0,0-.01.02-.02.02-.09.09-.14.2-.18.32-.07.22-.04.45.07.65.04.08.09.16.16.22.23.21.46.41.71.59.08.06.16.09.25.12.22.07.45.05.65-.06.1-.06.2-.13.28-.23,0,0,.01-.02.02-.03,0,0,0,.02-.01.03-.05.12-.07.24-.07.36,0,.22.09.43.24.58.07.07.15.13.24.18.28.13.57.24.86.34.08.03.16.03.24.03.24,0,.46-.08.62-.25.08-.09.15-.19.19-.31,0-.01,0-.02.01-.04,0,.01,0,.03,0,.04-.01.13,0,.26.05.37.07.2.22.37.41.47.09.04.18.08.28.09.3.03.61.05.92.06h0c.09,0,.18-.02.26-.05.21-.07.39-.22.49-.43.05-.11.09-.23.09-.36,0-.01,0-.02,0-.04,0,.01,0,.02,0,.04.03.13.09.24.16.34.13.18.33.29.55.32.09.01.19.02.28,0,.3-.06.6-.14.9-.23.1-.03.18-.08.26-.14.17-.13.28-.33.31-.54.02-.12.02-.25-.02-.37,0-.01,0-.02-.01-.03,0,.01.01.02.02.03.06.11.15.2.25.27.19.13.42.18.65.13.08-.02.17-.04.24-.08.27-.15.53-.32.78-.5.08-.06.15-.14.2-.22.12-.18.16-.4.13-.62-.02-.12-.06-.23-.14-.34,0,0-.01-.01-.02-.02,0,0,.01.01.02.02.09.09.2.14.31.18.21.07.44.04.64-.06.08-.04.16-.1.23-.17.21-.23.4-.47.59-.72.05-.08.09-.16.11-.24.07-.22.05-.46-.06-.66-.06-.1-.13-.2-.23-.28,0,0-.02-.01-.02-.02,0,0,.02,0,.03.01.12.05.24.07.36.07.22,0,.42-.09.57-.25.07-.07.13-.15.17-.24.13-.28.24-.57.33-.87.03-.09.03-.18.03-.27,0-.23-.09-.45-.26-.6-.09-.08-.19-.15-.31-.19-.02,0-.03,0-.05-.01,0,0,0,0,0,0,.02,0,.03,0,.05,0,.13.01.25,0,.37-.05.21-.07.37-.22.47-.42.04-.09.08-.18.09-.28.03-.3.05-.61.05-.93,0-.1-.02-.2-.06-.29ZM138.96,25.43h.04s-.02,0-.04,0c-.01,0-.02.01-.03.01v-.02s.02,0,.03,0ZM119,26.55c0-.05-.02-.1-.02-.15,0-2.02,1.63-3.66,3.64-3.66.27,0,.54.04.8.09,1.62.37,2.84,1.82,2.84,3.57,0,2.02-1.63,3.66-3.64,3.66s-3.54-1.56-3.62-3.51ZM146.93,29.35c-2.55,0-4.61-2.08-4.61-4.64s2.06-4.64,4.61-4.64,4.61,2.08,4.61,4.64-2.06,4.64-4.61,4.64ZM144.26,5.84l.84,8.4s-1.49,0-2.55,0V5.26h1.34c.22.1.38.32.38.59ZM141.28,5.26v9.27l-3.39,3.82-.12.13c-.58,0-2.04-.02-2.75-.03-.24,0-.4,0-.4,0v-.17s.02-1.15.02-1.15l.2-11.69s.14-.1.33-.16h6.12ZM132.62,14.86s.01,0,.02,0c.31,0,.57.18.72.43.07.12.12.26.12.41,0,.19-.07.35-.17.49-.15.21-.39.35-.66.35,0,0-.01,0-.02,0-.45-.01-.82-.38-.82-.84s.36-.83.82-.84Z"/>
    </g>
  </g>
</svg>