<?xml version="1.0" encoding="UTF-8"?>
<svg id="Layer_2" data-name="Layer 2" xmlns="http://www.w3.org/2000/svg" viewBox="0 0 167.94 78.95">
  <defs>
    <style>
      .cls-1 {
        fill-rule: evenodd;
        opacity: .75;
      }

      .cls-1, .cls-2, .cls-3 {
        stroke-width: 0px;
      }

      .cls-4 {
        fill: none;
        stroke: #f2f2f2;
        stroke-miterlimit: 10;
        stroke-width: .93px;
      }

      .cls-2 {
        fill: #f2f2f2;
      }

      .cls-3 {
        fill: #58a67a;
      }
    </style>
  </defs>
  <g id="Layer_2-2" data-name="Layer 2">
    <g>
      <path class="cls-1" d="M81.86,24.34h-.77s-8.83-18.06-9.19-18.69C68.48-.4,63.63,0,63.63,0H21.04c-6.42-.16-8.11,4.57-8.11,4.57L4.74,24.34h-.74c-2.21,0-4,1.79-4,4v21.41c0,2.21,1.79,4,4,4h2.76v10.2c0,2.21,1.79,4,4,4h5.86c2.21,0,4-1.79,4-4v-10.2h46.14v10.2c0,2.21,1.79,4,4,4h5.86c2.21,0,4-1.79,4-4v-10.2h1.24c2.21,0,4-1.79,4-4v-21.41c0-2.21-1.79-4-4-4M15.35,7.06s1.74-4.2,6.8-4.2h39.38s4.31-.47,6.77,3.94c.28.5,8.5,16.73,8.5,16.73H9.06L15.35,7.06ZM15.24,43.7c-3.13,0-5.67-2.54-5.67-5.67s2.54-5.67,5.67-5.67,5.67,2.54,5.67,5.67-2.53,5.67-5.67,5.67M71.58,43.7c-3.13,0-5.67-2.54-5.67-5.67s2.54-5.67,5.67-5.67,5.67,2.54,5.67,5.67-2.53,5.67-5.67,5.67"/>
      <g>
        <rect class="cls-3" x="58.89" y="43" width="109.05" height="32.71" rx="6.82" ry="6.82"/>
        <rect class="cls-4" x="61.61" y="45.72" width="103.6" height="27.26" rx="6.06" ry="6.06"/>
        <g>
          <path class="cls-2" d="M73.86,51.13h2.93l5.43,16.43h-2.69l-2.65-8.95c-.53-1.78-1.07-3.61-1.55-5.47h-.1c-.49,1.86-1,3.69-1.54,5.47l-2.69,8.95h-2.58l5.43-16.43ZM71.48,60.84h7.62v2.01h-7.62v-2.01Z"/>
          <path class="cls-2" d="M85.92,51.13h4.88c3.37,0,5.73,1.08,5.73,4.02,0,1.59-.91,3.07-2.86,3.57v.1c2.39.39,3.75,1.68,3.75,3.92,0,3.26-2.56,4.82-6.22,4.82h-5.28v-16.43ZM90.5,57.96c2.55,0,3.58-.87,3.58-2.54s-1.17-2.24-3.5-2.24h-2.16v4.78h2.08ZM90.9,65.52c2.6,0,4.06-.88,4.06-2.92,0-1.88-1.4-2.64-4.06-2.64h-2.48v5.56h2.48Z"/>
          <path class="cls-2" d="M100.97,59.37c0-5.33,3.17-8.54,7.49-8.54,2.01,0,3.6.96,4.61,2.03l-1.42,1.58c-.83-.86-1.86-1.4-3.19-1.4-2.92,0-4.89,2.39-4.89,6.27s1.96,6.36,4.93,6.36c1.42,0,2.53-.63,3.5-1.71l1.42,1.53c-1.29,1.52-2.98,2.39-5.16,2.39-4.06,0-7.28-3.09-7.28-8.49Z"/>
          <path class="cls-2" d="M117.53,65.51h4.53v-11.08h-3.57v-1.6c1.95-.27,3.14-.65,4.22-1.25h1.85v13.93h4.02v2.05h-11.05v-2.05Z"/>
          <path class="cls-2" d="M132.76,66.1c5.2-4.54,8.19-7.32,8.19-9.89,0-1.76-1.07-2.92-3.25-2.92-1.44,0-2.68.83-3.67,1.83l-1.41-1.39c1.51-1.51,3.09-2.46,5.4-2.46,3.25,0,5.33,1.91,5.33,4.81s-2.94,5.88-6.96,9.49c.98-.08,2.04-.14,2.96-.14h4.86v2.12h-11.45v-1.46Z"/>
        </g>
        <rect class="cls-2" x="149.55" y="65.43" width="11.22" height="1.87"/>
      </g>
    </g>
  </g>
</svg>