<?xml version="1.0" encoding="UTF-8"?>
<svg id="Layer_2" data-name="Layer 2" xmlns="http://www.w3.org/2000/svg" viewBox="0 0 85 41.79">
  <defs>
    <style>
      .cls-1 {
        opacity: .75;
      }

      .cls-2, .cls-3, .cls-4, .cls-5 {
        stroke-width: 0px;
      }

      .cls-3 {
        fill: #f2f2f2;
      }

      .cls-4 {
        fill: #58a67a;
      }

      .cls-5 {
        fill-rule: evenodd;
      }
    </style>
  </defs>
  <g id="Layer_2-2" data-name="Layer 2">
    <g>
      <g class="cls-1">
        <path class="cls-5" d="M24.35,0H1.19C.53,0,0,.53,0,1.19v23.47c0-.65.53-1.19,1.19-1.19h.22l2.44-5.86s.5-1.4,2.41-1.35h12.67s1.76-.15,2.77,2.3l2.43,4.91h.23c.66,0,1.19.53,1.19,1.19V1.19c0-.66-.53-1.19-1.19-1.19"/>
        <path class="cls-5" d="M23.66,24.02h-.22l-2.28-4.61c-.95-2.31-2.6-2.17-2.6-2.17H6.65c-1.8-.05-2.27,1.27-2.27,1.27l-2.29,5.51h-.21c-.62,0-1.12.5-1.12,1.12v5.97c0,.62.5,1.12,1.12,1.12h.77v2.84c0,.62.5,1.12,1.12,1.12h1.64c.62,0,1.12-.5,1.12-1.12v-2.84h12.91v2.84c0,.62.5,1.12,1.12,1.12h1.64c.62,0,1.12-.5,1.12-1.12v-2.84h.35c.62,0,1.12-.5,1.12-1.12v-5.97c0-.62-.5-1.12-1.12-1.12M5.06,19.2s.49-1.17,1.9-1.17h11.01s1.5-.16,2.11,1.57l2.17,4.19H3.29l1.76-4.59ZM5.02,29.42c-.88,0-1.59-.71-1.59-1.58s.71-1.58,1.59-1.58,1.59.71,1.59,1.58-.71,1.58-1.59,1.58M17.23,30.14h-8.91v-3.44s-.06-.51.55-.6h7.76s.58.06.61.69v3.35ZM20.79,29.42c-.88,0-1.59-.71-1.59-1.58s.71-1.58,1.59-1.58,1.59.71,1.59,1.58-.71,1.58-1.59,1.58"/>
      </g>
      <g class="cls-1">
        <path class="cls-2" d="M60.19,16.3c.05-.33-.07-.68-.34-.9-.06-.05-.13-.1-.2-.15-.29-.19-.65-.2-.94-.05-.14-.03-.28-.04-.43-.04h-.26c-.17-.2-.42-.32-.7-.32h-.16c-.28,0-.53.13-.7.32h-.46c-.17-.2-.42-.32-.7-.32h-.16c-.28,0-.53.13-.7.32h-.46c-.17-.2-.42-.32-.7-.32h-.16c-.28,0-.53.13-.7.32h-.46c-.17-.2-.42-.32-.7-.32h-.16c-.28,0-.53.13-.7.32h-.46c-.17-.2-.42-.32-.7-.32h-.16c-.28,0-.53.13-.7.32h-.46c-.17-.2-.42-.32-.7-.32h-.16c-.28,0-.53.13-.7.32h-.46c-.17-.2-.42-.32-.7-.32h-.17s0,.32,0,.32c0,0,0,0,0,0v-.32c-.35,0-.65.2-.81.49-.3.12-.56.31-.78.54-.32.05-.61.26-.74.6-.03.08-.06.16-.08.24-.1.34,0,.69.23.93.03.33.13.63.29.91-.05.33.07.67.35.9.07.05.13.1.2.15.29.19.65.19.94.04.13.03.27.04.42.04h.27c.17.2.42.32.7.32h.16c.28,0,.53-.13.7-.32h.46c.17.2.42.32.7.32h.16c.28,0,.53-.13.7-.32h.46c.17.2.42.32.7.32h.16c.28,0,.53-.13.7-.32h.46c.17.2.42.32.7.32h.16c.28,0,.53-.13.7-.32h.46c.17.2.42.32.7.32h.16c.28,0,.53-.13.7-.32h.46c.17.2.42.32.7.32h.16c.28,0,.53-.13.7-.32h.46c.17.2.42.32.7.32h.16c.35,0,.65-.2.81-.49.3-.12.56-.31.77-.54.32-.05.62-.26.75-.59.03-.08.06-.16.08-.24.1-.34,0-.69-.23-.94-.03-.33-.13-.64-.28-.91ZM58.81,18.21s-.01,0-.02.01c-.15.1-.33.16-.52.16h-13.26c-.42,0-.77-.28-.89-.66,0,0,0-.01,0-.02-.03-.09-.05-.19-.05-.29,0-.13.03-.26.07-.38.07-.17.19-.31.33-.41,0,0,.01-.01.02-.02.15-.1.33-.16.52-.16h13.26c.42,0,.77.28.9.67,0,0,0,.01,0,.02.03.09.05.18.05.28,0,.27-.11.51-.28.68-.04.04-.08.08-.13.11Z"/>
        <path class="cls-2" d="M61.75,9.37c0-.82-.7-1.49-1.57-1.49h-8.45l-.09-.42c0-.73-.55-1.32-1.23-1.32h-1.03l-2.82-4.23c-.12-.54-.63-.94-1.23-.92l-8.22.25C37.07.55,36.52,0,35.83,0h-.58c-.73,0-1.31.62-1.28,1.36l.36,12.2c0,.07.01.13.02.19-1.2.46-2.06,1.63-2.06,3.02,0,1.78,1.41,3.22,3.16,3.22h5.46l-4.07-6.4s0-.03,0-.05l.23-9.89,6.28.14,2.67,3.44c-.01.07-.02.15-.02.22l-.59,4.77c0,.73.55,1.32,1.23,1.32h13.86c.87,0,1.57-.67,1.57-1.49l-.31-2.69ZM47.22,12.58c-.5,0-.91-.44-.91-.98l.43-3.44v-.09c.01-.54.42-.98.92-.98h2.36s.01,0,.02,0c.43,0,.78.34.87.77.01.07.02.13.02.2l.11.51.26,1.25-2.13,1.44-1.52,1.02-.42.28Z"/>
      </g>
      <rect class="cls-4" x="31.5" y="22" width="42.91" height="8.83"/>
      <g>
        <path class="cls-3" d="M34.33,28.06l.4-.47c.34.32.79.53,1.27.53.56,0,.87-.26.87-.62,0-.43-.32-.55-.76-.74l-.63-.27c-.45-.18-.95-.51-.95-1.16,0-.69.62-1.21,1.5-1.21.55,0,1.05.22,1.39.56l-.35.43c-.3-.25-.62-.4-1.07-.4s-.78.22-.78.58c0,.38.38.53.77.68l.6.26c.56.22.97.54.97,1.19,0,.71-.6,1.29-1.61,1.29-.64,0-1.21-.25-1.63-.65Z"/>
        <path class="cls-3" d="M38.9,24.19h2.8v.57h-2.12v1.26h1.79v.57h-1.79v1.46h2.18v.57h-2.86v-4.44Z"/>
        <path class="cls-3" d="M42.78,26.42c0-1.45.84-2.31,1.99-2.31.59,0,.98.28,1.24.55l-.38.43c-.21-.21-.45-.38-.86-.38-.77,0-1.28.65-1.28,1.69s.46,1.72,1.28,1.72c.27,0,.53-.08.68-.22v-1.06h-.82v-.56h1.44v1.91c-.28.28-.77.52-1.34.52-1.12,0-1.95-.83-1.95-2.29Z"/>
        <path class="cls-3" d="M47.16,24.19h.78l.57,1.81.2.69h.03l.19-.69.58-1.81h.78v4.44h-.62v-2c0-.45.07-1.29.11-1.7h-.02l-.27.95-.56,1.57h-.43l-.55-1.57-.27-.95h-.02c.04.41.11,1.25.11,1.7v2h-.61v-4.44Z"/>
        <path class="cls-3" d="M51.7,24.19h2.8v.57h-2.12v1.26h1.79v.57h-1.79v1.46h2.18v.57h-2.86v-4.44Z"/>
        <path class="cls-3" d="M55.76,24.19h.73l1.29,2.64.41.93h.02c-.03-.45-.09-.98-.09-1.46v-2.11h.65v4.44h-.73l-1.29-2.64-.41-.93h-.02c.03.46.09.97.09,1.44v2.13h-.65v-4.44Z"/>
        <path class="cls-3" d="M61.19,24.77h-1.43v-.57h3.54v.57h-1.43v3.86h-.68v-3.86Z"/>
      </g>
      <rect class="cls-4" x="76.26" y="22" width="8.74" height="8.83"/>
      <rect class="cls-4" x="31.5" y="32.09" width="42.91" height="8.83"/>
      <g>
        <path class="cls-3" d="M34.37,34.28h.78l.57,1.81.2.69h.03l.19-.69.58-1.81h.78v4.44h-.62v-2c0-.45.07-1.29.11-1.7h-.02l-.27.95-.56,1.57h-.43l-.55-1.57-.27-.95h-.02c.04.4.11,1.25.11,1.7v2h-.61v-4.44Z"/>
        <path class="cls-3" d="M39.81,34.28h.79l1.46,4.44h-.73l-.71-2.42c-.14-.48-.29-.98-.42-1.48h-.03c-.13.5-.27,1-.42,1.48l-.73,2.42h-.7l1.46-4.44ZM39.16,36.9h2.06v.54h-2.06v-.54Z"/>
        <path class="cls-3" d="M43.04,34.28h.69v2.11h.02l1.72-2.11h.77l-2.51,3.08v1.36h-.69v-4.44ZM44.35,36.35l.41-.53,1.64,2.9h-.76l-1.28-2.37Z"/>
        <path class="cls-3" d="M47.44,34.28h2.8v.57h-2.12v1.26h1.79v.57h-1.79v1.46h2.18v.57h-2.86v-4.44Z"/>
      </g>
      <rect class="cls-4" x="76.26" y="32.09" width="8.74" height="8.83"/>
      <polygon class="cls-3" points="82.88 26 80.88 28 78.88 26 82.88 26"/>
      <polygon class="cls-3" points="82.88 36 80.88 38 78.88 36 82.88 36"/>
    </g>
  </g>
</svg>