<?xml version="1.0" encoding="UTF-8"?>
<svg id="Layer_2" data-name="Layer 2" xmlns="http://www.w3.org/2000/svg" viewBox="0 0 30.76 29.96">
  <defs>
    <style>
      .cls-1 {
        fill: #1a1a1a;
      }

      .cls-1, .cls-2 {
        stroke-width: 0px;
      }

      .cls-2 {
        fill: #56a57c;
      }
    </style>
  </defs>
  <g id="Layer_1-2" data-name="Layer 1">
    <path class="cls-1" d="M30.57,26.21l-10.42-9.43c-.78-.76-2.03-.76-2.81,0,3.47-3.74,3.55-9.51.2-13.36C13.91-.74,7.59-1.17,3.43,2.46-.73,6.08-1.17,12.4,2.46,16.56c.66.78,1.44,1.46,2.3,2,3.8,2.35,8.7,1.9,12-1.12l-.11.11h0c-.78.79-.78,2.05,0,2.83l10.43,9.43h0c.19.19.49.19.68,0l2.85-2.86s.04-.04.06-.06c.16-.22.11-.52-.1-.68ZM14.4,10.6c-.15,2.21-1.9,3.96-4.1,4.11-2.43.16-4.53-1.68-4.7-4.11v-.25c0-.79.21-1.56.6-2.25l3.81-6.34,3.81,6.33c.39.68.59,1.45.58,2.23.01.1.01.19,0,.28Z"/>
    <path class="cls-2" d="M10.01,9.24c-1.32-.03-2.52.77-3,2,.7,1.66,2.62,2.43,4.28,1.72.78-.33,1.39-.95,1.72-1.72-.49-1.23-1.68-2.02-3-2Z"/>
  </g>
</svg>