<?xml version="1.0" encoding="UTF-8"?>
<svg id="Layer_1" data-name="Layer 1" xmlns="http://www.w3.org/2000/svg" viewBox="0 0 128 128">
  <defs>
    <style>
      .cls-1 {
        fill: #58a57b;
      }
    </style>
  </defs>
  <polygon class="cls-1" points="40.31 4 29.97 4 24.8 12.69 29.97 21.37 40.31 21.37 45.49 12.69 40.31 4"/>
  <polygon class="cls-1" points="69.32 4 58.98 4 53.81 12.69 58.98 21.37 69.32 21.37 74.49 12.69 69.32 4"/>
  <polygon class="cls-1" points="98.33 4 87.98 4 82.81 12.69 87.98 21.37 98.33 21.37 103.5 12.69 98.33 4"/>
  <g id="tcGsN4">
    <path class="cls-1" d="M100.89,95.82c-6.98,13.82-22.62,22.74-36.85,28.18-13.7-5.06-29.84-14.17-36.89-27.93-1.32-2.65-2.25-5.26-2.65-8.25V28.6s78.91,0,78.91,0v59.23c-.39,2.89-1.26,5.41-2.52,7.99ZM92.54,94.18c1.4-2.64,2.29-5.36,2.29-8.44v-48.19s-61.37,0-61.37,0v48.38c.09,3.44,1.15,6.47,2.94,9.32,5.74,8.9,17.91,14.76,27.75,17.97,10.07-3.26,23.02-9.53,28.39-19.05Z"/>
  </g>
  <polygon class="cls-1" points="57.97 95.43 40.31 77.77 46.47 71.62 56.96 82.11 81.03 49.38 88.04 54.54 57.97 95.43"/>
</svg>