<?xml version="1.0" encoding="UTF-8"?>
<svg id="Layer_1" data-name="Layer 1" xmlns="http://www.w3.org/2000/svg" viewBox="0 0 128 128">
  <defs>
    <style>
      .cls-1 {
        fill: #58a57b;
      }
    </style>
  </defs>
  <polygon class="cls-1" points="74.42 41.68 84.99 23.93 74.42 6.17 53.28 6.17 42.71 23.93 53.28 41.68 74.42 41.68"/>
  <polygon class="cls-1" points="35.2 27.87 14.07 27.87 3.5 45.62 14.07 63.37 35.2 63.37 45.77 45.62 35.2 27.87"/>
  <polygon class="cls-1" points="113.93 27.87 92.8 27.87 82.23 45.62 92.8 63.37 113.93 63.37 124.5 45.62 113.93 27.87"/>
  <path class="cls-1" d="M85.57,77.83l-13.82-1.96v-12.22c0-5.39-4.38-9.77-9.77-9.77s-9.77,4.38-9.77,9.77v19.95l-.89-.89c-3.81-3.81-10.01-3.81-13.82,0-3.81,3.81-3.81,10.01,0,13.82l14.78,14.78c-.04.18-.07.37-.07.57v11.86c0,1.35,1.09,2.44,2.44,2.44h40.26c1.35,0,2.44-1.09,2.44-2.44v-11.86c0-.2-.03-.4-.08-.59.05-.19.08-.38.08-.59v-19.32c0-6.78-5.06-12.61-11.78-13.56ZM39.51,89.61c0-1.31.51-2.54,1.43-3.46s2.15-1.43,3.46-1.43,2.54.51,3.46,1.43l4.82,4.82c.95.95,2.5.95,3.45,0,.04-.04.07-.08.1-.13.51-.45.84-1.1.84-1.83v-25.37c0-2.7,2.19-4.89,4.89-4.89s4.89,2.19,4.89,4.89v13.81c0,.22.04.44.1.64.04,1.16.9,2.15,2.09,2.32l15.83,2.24c4.32.61,7.58,4.37,7.58,8.73v18.05h-35.58c-.11-.37-.3-.73-.6-1.02l-15.35-15.35c-.92-.92-1.43-2.15-1.43-3.46ZM92.46,121.29h-35.38v-6.98h35.38v6.98Z"/>
</svg>