<?xml version="1.0" encoding="UTF-8"?>
<svg id="Layer_1" data-name="Layer 1" xmlns="http://www.w3.org/2000/svg" viewBox="0 0 128 128">
  <defs>
    <style>
      .cls-1 {
        fill: #58a57b;
      }
    </style>
  </defs>
  <polygon class="cls-1" points="26.11 64 20.11 53.9 8.09 53.9 2.08 64 8.09 74.1 20.11 74.1 26.11 64"/>
  <polygon class="cls-1" points="119.91 53.9 107.9 53.9 101.89 64 107.9 74.1 119.91 74.1 125.92 64 119.91 53.9"/>
  <polygon class="cls-1" points="70.01 24.19 76.02 14.1 70.01 4 57.99 4 51.98 14.1 57.99 24.19 70.01 24.19"/>
  <polygon class="cls-1" points="57.99 103.81 51.98 113.9 57.99 124 70.01 124 76.02 113.9 70.01 103.81 57.99 103.81"/>
  <polygon class="cls-1" points="34.72 38.81 40.73 28.71 34.72 18.62 22.7 18.62 16.69 28.71 22.7 38.81 34.72 38.81"/>
  <polygon class="cls-1" points="93.28 89.19 87.27 99.29 93.28 109.38 105.3 109.38 111.31 99.29 105.3 89.19 93.28 89.19"/>
  <polygon class="cls-1" points="105.3 38.81 111.31 28.71 105.3 18.62 93.28 18.62 87.27 28.71 93.28 38.81 105.3 38.81"/>
  <polygon class="cls-1" points="22.7 89.19 16.69 99.29 22.7 109.38 34.72 109.38 40.73 99.29 34.72 89.19 22.7 89.19"/>
  <path class="cls-1" d="M90.73,80.24c-1.02-1.63-1.19-3.58-.45-5.35.74-1.78,2.23-3.04,4.11-3.47,1.17-.27,1.99-1.3,1.99-2.5v-9.83c0-1.2-.83-2.23-1.99-2.5-1.87-.43-3.37-1.69-4.11-3.47-.74-1.78-.57-3.73.45-5.35.64-1.01.49-2.33-.36-3.18l-6.95-6.95c-.85-.85-2.17-1-3.18-.36-1.63,1.02-3.58,1.19-5.35.45-1.78-.74-3.04-2.23-3.47-4.11-.27-1.17-1.3-1.99-2.5-1.99h-9.83c-1.2,0-2.23.83-2.5,1.99-.43,1.87-1.69,3.37-3.47,4.11-1.78.74-3.73.57-5.35-.45-1.01-.64-2.33-.49-3.18.36l-6.95,6.95c-.85.85-.99,2.17-.36,3.18,1.02,1.63,1.19,3.58.45,5.35-.74,1.78-2.23,3.04-4.11,3.47-1.17.27-1.99,1.3-1.99,2.5v9.83c0,1.2.83,2.23,1.99,2.5,1.87.43,3.37,1.69,4.11,3.47.74,1.78.57,3.73-.45,5.35-.64,1.01-.49,2.33.36,3.18l6.95,6.95c.85.85,2.17.99,3.18.36,1.63-1.02,3.58-1.19,5.35-.45s3.04,2.23,3.47,4.11c.27,1.17,1.3,1.99,2.5,1.99h9.83c1.2,0,2.23-.83,2.5-1.99.43-1.87,1.69-3.37,3.47-4.11,1.78-.74,3.73-.57,5.35.45,1.01.64,2.33.49,3.18-.36l6.95-6.95c.85-.85.99-2.17.36-3.18ZM85.54,72.92c-1.11,2.67-1.13,5.56-.1,8.17l-4.34,4.34c-2.61-1.03-5.5-1.01-8.17.1-2.67,1.11-4.73,3.13-5.85,5.71h-6.14c-1.12-2.58-3.18-4.6-5.85-5.71s-5.56-1.13-8.17-.1l-4.34-4.34c1.03-2.61,1.01-5.5-.1-8.17-1.11-2.67-3.14-4.73-5.71-5.85v-6.14c2.57-1.12,4.6-3.18,5.71-5.85s1.13-5.56.1-8.17l4.34-4.34c2.61,1.03,5.5,1.01,8.17-.1,2.67-1.11,4.73-3.13,5.85-5.71h6.14c1.12,2.58,3.18,4.6,5.85,5.71,2.67,1.11,5.56,1.13,8.17.1l4.34,4.34c-1.03,2.61-1.01,5.5.1,8.18,1.11,2.67,3.14,4.73,5.71,5.85v6.14c-2.57,1.12-4.6,3.18-5.71,5.85Z"/>
  <path class="cls-1" d="M64,47.33c-9.19,0-16.68,7.48-16.68,16.67s7.48,16.67,16.68,16.67,16.67-7.48,16.67-16.67-7.48-16.67-16.67-16.67ZM64,75.54c-6.37,0-11.54-5.18-11.54-11.54s5.18-11.54,11.54-11.54,11.54,5.18,11.54,11.54-5.18,11.54-11.54,11.54Z"/>
</svg>