<?xml version="1.0" encoding="UTF-8"?>
<svg xmlns="http://www.w3.org/2000/svg" viewBox="0 0 128 128">
  <defs>
    <style>
      .cls-1 {
        fill: #fff;
      }

      .cls-2 {
        fill: #58a57b;
      }
    </style>
  </defs>
  <rect class="cls-1" width="128" height="128"/>
  <g id="Layer_1" data-name="Layer 1">
    <g>
      <path class="cls-2" d="M111.66,52.44H16.34c-1.7,0-3.08,1.38-3.08,3.08v65.4c0,1.7,1.38,3.08,3.08,3.08h95.32c1.7,0,3.08-1.38,3.08-3.08V55.52c0-1.7-1.38-3.08-3.08-3.08ZM108.58,94.79h-23.72v-13.6h23.72v13.6ZM19.42,117.84v-59.24h89.17v16.43h-26.8c-1.7,0-3.08,1.38-3.08,3.08v19.76c0,1.7,1.38,3.08,3.08,3.08h26.8v16.89H19.42Z"/>
      <path class="cls-2" d="M86.03,28.91l14.09-4.56v20.96c0,1.7,1.38,3.08,3.08,3.08s3.08-1.38,3.08-3.08v-25.19c0-.99-.47-1.91-1.27-2.49-.8-.58-1.82-.74-2.76-.44l-18.12,5.87c-1.62.52-2.51,2.26-1.98,3.88.52,1.62,2.26,2.5,3.88,1.98Z"/>
      <path class="cls-2" d="M16.34,50.13c.28,0,.56-.04.85-.12l23.88-6.8c1.64-.47,2.58-2.17,2.12-3.81-.47-1.64-2.17-2.58-3.81-2.12l-23.88,6.8c-1.64.47-2.58,2.17-2.12,3.81.39,1.35,1.62,2.24,2.96,2.24Z"/>
      <polygon class="cls-2" points="53.08 43.56 75.87 43.56 80.18 36.35 72.32 23.16 56.63 23.16 48.78 36.35 53.08 43.56"/>
      <polygon class="cls-2" points="44.8 30.37 52.65 17.19 44.8 4 29.1 4 21.25 17.19 29.1 30.37 44.8 30.37"/>
    </g>
  </g>
</svg>