<?xml version="1.0" encoding="UTF-8"?><svg id="Layer_2" xmlns="http://www.w3.org/2000/svg" viewBox="0 0 150 150.05"><defs><style>.cls-1{fill:#f26a36;}.cls-2{fill:#faf6f2;}</style></defs><g id="Layer_1-2"><path class="cls-1" d="m69.4.28c2.78-.27,5.65-.36,8.51-.21,2.38.12,4.75.42,7.12.67,4.15.44,8.19,1.42,12.17,2.57,2.82.81,5.57,1.95,8.27,3.17,5.49,2.49,10.65,5.51,15.39,9.22,2.49,1.95,4.84,4.05,7.07,6.3,3.18,3.2,6.17,6.55,8.7,10.29,2.57,3.8,5,7.68,6.76,11.93,1.27,3.05,2.6,6.1,3.47,9.3.81,2.94,1.5,5.91,2.04,8.92.53,2.98.76,5.96.92,8.96.09,1.82.22,3.63.15,5.44-.04,1.01-.09,2.03-.19,3.04-.29,2.95-.45,5.92-1.03,8.85-.61,3.06-1.34,6.09-2.28,9.06-1.75,5.5-4.13,10.71-7.09,15.66-.26.44-.46.93-.98,1.19-.47.23-.2.81-.48,1.21-1.98,2.86-4.06,5.63-6.33,8.27-2.37,2.75-4.89,5.31-7.64,7.66-9.51,8.14-20.32,13.68-32.58,16.39-3.74.83-7.51,1.35-11.32,1.67-3.15.26-6.3.26-9.43.11-3.64-.17-7.26-.75-10.84-1.5-10.2-2.12-19.58-6.19-28.06-12.21-7.76-5.51-14.26-12.25-19.48-20.25-4.01-6.16-7.07-12.72-9.18-19.74-1.31-4.38-2.12-8.85-2.68-13.39C-.14,78.59,0,74.31.08,70.03c.04-1.87.47-3.75.72-5.63.28-2.07.64-4.12,1.1-6.16.87-3.82,1.99-7.56,3.5-11.18,1.23-2.95,2.51-5.9,4.13-8.66,1.21-2.07,2.55-4.06,3.88-6.07,3.46-5.24,7.67-9.79,12.35-13.88,8.01-7,17.13-12.11,27.33-15.16,1.92-.57,3.88-1.1,5.88-1.47,1.99-.37,3.98-.89,5.99-1.13,1.45-.17,2.88-.63,4.45-.42Zm-6.55,69.4c-.11-.19-.17-.27-.2-.35-3.38-7.84-9.15-13.06-17.23-15.75-2.19-.73-4.47-1.05-6.75-1.17-3.09-.15-6.18-.05-9.27-.1-.66-.01-.75.27-.75.83.02,1.95-.01,3.9.02,5.85.03,2.24-.09,4.46.35,6.7.79,4.01,2.25,7.73,4.59,11.07,2.02,2.89,4.51,5.33,7.48,7.26,3.97,2.57,8.29,4.1,13.02,4.35.76.04.72.43.72.95,0,8.26,0,16.52,0,24.77,0,1.33-.13,1.17,1.21,1.17,10.08,0,20.16,0,30.25,0,1.2,0,2.37-.08,3.56-.3,2.07-.37,4.11-.79,6.06-1.6,7.51-3.08,12.67-8.52,15.47-16.06,1.58-4.26,1.9-8.77,1.11-13.31-.64-3.65-1.96-7.03-3.97-10.14-2.56-3.95-5.93-7.02-10.1-9.2-.56-.3-.63-.49-.24-1,3.16-4.18,4.2-8.96,3.53-14.04-1.21-9.13-8.87-16.13-17.86-16.35-9.4-.23-18.8-.07-28.2-.09-.59,0-.72.22-.72.76.01,6.4.01,12.8,0,19.21,0,.47.19.79.51,1.02,1.56,1.12,2.93,2.44,4.33,3.75,1.76,1.65,3.13,3.56,4.42,5.55.16.25.23.61.62.74,0-6.81,0-13.55-.01-20.29,0-.59.08-.87.79-.87,5.85.03,11.69-.06,17.54.04,5.52.1,10.02,5.11,8.67,11.25-.94,4.28-4.52,7.31-9.16,7.3-1.36,0-2.72.08-4.05.26-5.04.66-9.55,2.63-13.49,5.86-.74.6-1.44,1.25-2.2,1.91Z"/><path class="cls-2" d="m62.85,69.68c.76-.66,1.46-1.31,2.2-1.91,3.94-3.23,8.45-5.2,13.49-5.86,1.33-.17,2.69-.26,4.05-.26,4.64,0,8.22-3.02,9.16-7.3,1.35-6.13-3.15-11.15-8.67-11.25-5.84-.1-11.69-.01-17.54-.04-.7,0-.79.28-.79.87.02,6.74.01,13.48.01,20.29-.38-.13-.45-.49-.62-.74-1.29-2-2.66-3.9-4.42-5.55-1.4-1.31-2.77-2.63-4.33-3.75-.32-.23-.51-.55-.51-1.02.02-6.4.02-12.8,0-19.21,0-.54.13-.76.72-.76,9.4.03,18.81-.13,28.2.09,8.99.22,16.65,7.21,17.86,16.35.67,5.08-.36,9.87-3.53,14.04-.38.51-.32.7.24,1,4.16,2.19,7.53,5.25,10.1,9.2,2.02,3.11,3.34,6.49,3.97,10.14.79,4.53.48,9.04-1.11,13.31-2.8,7.54-7.96,12.97-15.47,16.06-1.95.8-3.99,1.23-6.06,1.6-1.19.21-2.36.3-3.56.3-10.08-.01-20.16,0-30.25,0-1.34,0-1.21.16-1.21-1.17,0-8.26,0-16.52,0-24.77,0-.52.04-.91-.72-.95-4.73-.26-9.05-1.78-13.02-4.35-2.98-1.93-5.46-4.36-7.48-7.26-2.34-3.35-3.8-7.06-4.59-11.07-.44-2.23-.32-4.46-.35-6.7-.03-1.95,0-3.9-.02-5.85,0-.56.08-.84.75-.83,3.09.05,6.19-.05,9.27.1,2.28.11,4.56.44,6.75,1.17,8.09,2.69,13.85,7.91,17.23,15.75.04.08.09.16.2.35Zm13.26,35.73c3.28,0,6.56,0,9.83,0,8.97,0,16.39-6.91,16.96-15.85.5-7.76-4.05-14.26-11.26-17.02-.58-.22-.79-.21-.87.51-.29,2.67-.94,5.23-1.97,7.74-1.38,3.38-3.27,6.37-5.87,8.89-1.12,1.09-2.39,2.03-3.68,2.95-2.63,1.87-5.37,3.39-8.5,4.17-1.58.39-3.13.96-4.83.76-.55-.06-1.26.07-1.19,1.13.13,1.91.07,3.83.02,5.75-.02.76.17,1,.96.99,3.46-.04,6.93-.02,10.39-.02Zm-22.16-26.84c.49.02.97.05.81-.7-.32-1.49-.47-3-1.08-4.43-2.79-6.57-7.73-10.27-14.79-11.16-.33-.04-.48.09-.41.41.43,2.01.82,4.03,1.73,5.92,1.52,3.16,3.81,5.64,6.72,7.54,2.12,1.38,4.53,2.06,7.03,2.42Zm10.6,9.25c.33,0,.61.03.89,0,3.28-.44,6.25-1.55,8.91-3.61,1.49-1.16,2.75-2.56,3.78-4.03,1.08-1.53,1.95-3.33,2.28-5.28.14-.86.39-1.7.53-2.56.04-.23.3-.74-.31-.73-.46.01-.92.06-1.37.15-4.08.9-7.66,2.62-10.38,5.95-1.69,2.07-2.88,4.36-3.63,6.89-.31,1.04-.3,2.15-.69,3.21Z"/><path class="cls-1" d="m76.11,105.41c-3.46,0-6.93-.03-10.39.02-.79.01-.98-.24-.96-.99.05-1.92.11-3.84-.02-5.75-.07-1.05.64-1.19,1.19-1.13,1.7.19,3.25-.37,4.83-.76,3.12-.78,5.87-2.3,8.5-4.17,1.29-.92,2.56-1.87,3.68-2.95,2.6-2.52,4.49-5.51,5.87-8.89,1.02-2.51,1.68-5.07,1.97-7.74.08-.72.3-.73.87-.51,7.22,2.76,11.76,9.26,11.26,17.02-.57,8.94-7.99,15.86-16.96,15.85-3.28,0-6.56,0-9.83,0Z"/><path class="cls-1" d="m53.95,78.56c-2.49-.36-4.9-1.04-7.03-2.42-2.91-1.89-5.19-4.37-6.72-7.54-.91-1.88-1.3-3.9-1.73-5.92-.07-.32.08-.45.41-.41,7.07.89,12,4.59,14.79,11.16.61,1.43.76,2.95,1.08,4.43.16.75-.32.72-.81.7Z"/><path class="cls-1" d="m64.55,87.81c.38-1.06.38-2.17.69-3.21.75-2.53,1.93-4.82,3.63-6.89,2.72-3.33,6.3-5.05,10.38-5.95.45-.1.91-.14,1.37-.15.62-.02.35.49.31.73-.13.86-.38,1.7-.53,2.56-.33,1.95-1.2,3.74-2.28,5.28-1.03,1.47-2.29,2.87-3.78,4.03-2.65,2.06-5.63,3.17-8.91,3.61-.27.04-.55,0-.89,0Z"/></g></svg>