<?xml version="1.0" encoding="UTF-8"?><svg id="Layer_2" xmlns="http://www.w3.org/2000/svg" viewBox="0 0 84.24 82.1"><defs><style>.cls-1{fill:#faf6f2;}</style></defs><g id="Layer_1-2"><path class="cls-1" d="m34.21,36.51c.76-.66,1.46-1.31,2.2-1.91,3.94-3.23,8.45-5.2,13.49-5.86,1.33-.17,2.69-.26,4.05-.26,4.64,0,8.22-3.02,9.16-7.3,1.35-6.13-3.15-11.15-8.67-11.25-5.84-.1-11.69-.01-17.54-.04-.7,0-.79.28-.79.87.02,6.74.01,13.48.01,20.29-.38-.13-.45-.49-.62-.74-1.29-2-2.66-3.9-4.42-5.55-1.4-1.31-2.77-2.63-4.33-3.75-.32-.23-.51-.55-.51-1.02.02-6.4.02-12.8,0-19.21,0-.54.13-.76.72-.76,9.4.03,18.81-.13,28.2.09,8.99.22,16.65,7.21,17.86,16.35.67,5.08-.36,9.87-3.53,14.04-.38.51-.32.7.24,1,4.16,2.19,7.53,5.25,10.1,9.2,2.02,3.11,3.34,6.49,3.97,10.14.79,4.53.48,9.04-1.11,13.31-2.8,7.54-7.96,12.97-15.47,16.06-1.95.8-3.99,1.23-6.06,1.6-1.19.21-2.36.3-3.56.3-10.08-.01-20.16,0-30.25,0-1.34,0-1.21.16-1.21-1.17,0-8.26,0-16.52,0-24.77,0-.52.04-.91-.72-.95-4.73-.26-9.05-1.78-13.02-4.35-2.98-1.93-5.46-4.36-7.48-7.26-2.34-3.35-3.8-7.06-4.59-11.07C-.08,30.28.05,28.05.02,25.82c-.03-1.95,0-3.9-.02-5.85,0-.56.08-.84.75-.83,3.09.05,6.19-.05,9.27.1,2.28.11,4.56.44,6.75,1.17,8.09,2.69,13.85,7.91,17.23,15.75.04.08.09.16.2.35Zm13.26,35.73c3.28,0,6.56,0,9.83,0,8.97,0,16.39-6.91,16.96-15.85.5-7.76-4.05-14.26-11.26-17.02-.58-.22-.79-.21-.87.51-.29,2.67-.94,5.23-1.97,7.74-1.38,3.38-3.27,6.37-5.87,8.89-1.12,1.09-2.39,2.03-3.68,2.95-2.63,1.87-5.37,3.39-8.5,4.17-1.58.39-3.13.96-4.83.76-.55-.06-1.26.07-1.19,1.13.13,1.91.07,3.83.02,5.75-.02.76.17,1,.96.99,3.46-.04,6.93-.02,10.39-.02Zm-22.16-26.84c.49.02.97.05.81-.7-.32-1.49-.47-3-1.08-4.43-2.79-6.57-7.73-10.27-14.79-11.16-.33-.04-.48.09-.41.41.43,2.01.82,4.03,1.73,5.92,1.52,3.16,3.81,5.64,6.72,7.54,2.12,1.38,4.53,2.06,7.03,2.42Zm10.6,9.25c.33,0,.61.03.89,0,3.28-.44,6.25-1.55,8.91-3.61,1.49-1.16,2.75-2.56,3.78-4.03,1.08-1.53,1.95-3.33,2.28-5.28.14-.86.39-1.7.53-2.56.04-.23.3-.74-.31-.73-.46.01-.92.06-1.37.15-4.08.9-7.66,2.62-10.38,5.95-1.69,2.07-2.88,4.36-3.63,6.89-.31,1.04-.3,2.15-.69,3.21Z"/></g></svg>