<?xml version="1.0" encoding="UTF-8"?><svg id="Layer_2" xmlns="http://www.w3.org/2000/svg" viewBox="0 0 266.16 128.36"><defs><style>.cls-1{fill:#f48759;}.cls-2{fill:#f48658;}</style></defs><g id="Layer_1-2"><path class="cls-1" d="m11.75,57.73c.25.06.47.16.64.37.9,1.09,1.8,2.17,2.7,3.26.5.61.99,1.23,1.51,1.82.72.81,1.37,1.66,2.05,2.5.57.71,1.18,1.39,1.77,2.09.43.51.87,1.01,1.27,1.53,1.01,1.32,2.24,2.45,3.18,3.83.47.68,1.05,1.28,1.58,1.92.61.74,1.19,1.49,1.82,2.21,1.1,1.24,2.05,2.61,3.19,3.82.34.36.63.77.94,1.16,1.39,1.7,2.78,3.41,4.18,5.1.42.51.87,1,1.31,1.5.13.15.43.15.56,0,.14-.16.27-.31.39-.48,1.46-2.17,2.91-4.35,4.35-6.53.11-.17.19-.37.26-.56.02-.06-.03-.16-.08-.22-.05-.06-.12-.12-.2-.15-.35-.13-.7-.27-1.06-.36-1.3-.34-2.47-.97-3.61-1.66-.93-.56-1.79-1.21-2.52-2.02-.08-.09-.17-.18-.26-.26-1.29-1.15-2.24-2.56-3.03-4.08-.58-1.1-1.07-2.25-1.31-3.49-.07-.37-.16-.73-.26-1.09-.12-.44-.19-.89-.19-1.35,0-.08,0-.17,0-.25-.14-.91-.13-1.81-.02-2.72.08-.66.15-1.32.26-1.97.16-.9.44-1.77.78-2.62.12-.29.29-.41.56-.39,2.52.24,4.89.95,7,2.38.93.63,1.83,1.28,2.65,2.06,1.62,1.54,2.81,3.38,3.74,5.39.49,1.06.78,2.19,1,3.33.22,1.11.25,2.22.32,3.34,0,.06.1.11.17.15.02.01.08,0,.11-.03.06-.05.13-.11.18-.17.08-.1.15-.2.22-.3,1.21-1.84,2.41-3.68,3.62-5.52.87-1.32,1.75-2.63,2.62-3.94,2.07-3.11,4.15-6.22,6.22-9.33.79-1.19.74-1.05.41-2.42-.29-1.21-.61-2.42-.91-3.63-.38-1.57-.75-3.15-1.14-4.72-.65-2.58-1.32-5.15-1.98-7.72-.12-.48-.23-.97-.35-1.45-.09-.36-.19-.72-.29-1.08-.08-.28-.19-.55-.24-.84-.23-1.28-.71-2.47-1.16-3.67-.29-.78-.45-1.59-.59-2.41-.2-1.16-.24-2.31-.21-3.47,0-.41.07-.83.11-1.24.03-.29.08-.58.13-.86.07-.41.11-.82.22-1.22.48-1.73,1.11-3.41,2.07-4.92,1.15-1.79,2.51-3.4,4.28-4.64,1.58-1.1,3.27-1.98,5.09-2.59.51-.17,1.04-.29,1.57-.41.16-.04.33-.04.49-.03.26.01.5.12.63.35.19.32.37.65.5,1,.44,1.21.74,2.46.87,3.75.03.29.07.58.12.86.14.7.15,1.41.08,2.11-.08.82-.21,1.65-.36,2.46-.45,2.54-1.5,4.82-3.03,6.89-.57.77-1.18,1.5-1.88,2.16-1.24,1.19-2.67,2.12-4.19,2.89-.7.36-1.47.57-2.21.85-.19.07-.39.13-.59.21-.17.06-.31.33-.29.51,0,.08.02.17.04.25.21.89.42,1.78.63,2.66.12.48.25.96.37,1.45.14.56.28,1.13.42,1.69.22.89.43,1.77.64,2.66.11.44.2.89.31,1.33.82,3.13,1.63,6.27,2.45,9.4.08.32.19.64.29.95.04.13.29.24.42.2.12-.04.24-.06.35-.12.44-.23.88-.47,1.31-.72,1.33-.76,2.66-1.53,3.99-2.3,1.9-1.1,3.81-2.21,5.71-3.32.18-.1.35-.22.52-.35.14-.11.21-.27.17-.44-.05-.24-.11-.49-.2-.72-.56-1.35-.88-2.77-1.06-4.21-.08-.66-.05-1.33-.07-1.99-.04-1.8.26-3.56.86-5.26,1-2.87,2.57-5.39,4.89-7.4.85-.73,1.75-1.41,2.76-1.91,1.11-.56,2.21-1.16,3.42-1.5.48-.14.96-.27,1.45-.38.2-.05.41-.06.62-.05.26,0,.5.12.63.35.22.4.45.8.59,1.23.35,1.11.66,2.23.79,3.39.09.82.26,1.64.23,2.48-.02.54-.04,1.08-.14,1.61-.11.57-.14,1.16-.27,1.72-.4,1.75-1,3.43-1.91,4.98-.17.29-.36.56-.42.9,0,0,0,0,0,0,.67-.11,1.24-.48,1.81-.81,2.71-1.54,5.4-3.1,8.1-4.66,1.8-1.04,3.59-2.09,5.39-3.13,1.44-.83,2.89-1.64,4.33-2.46,1.19-.68,2.37-1.37,3.56-2.06.36-.21.72-.41,1.08-.62.22-.12.44-.24.65-.37.73-.47.82-.67.44-1.53-.41-.91-.77-1.84-1.11-2.77-.32-.9-.48-1.84-.57-2.8-.03-.37-.09-.74-.15-1.11-.1-.58-.13-1.16-.05-1.74.17-1.19.29-2.39.58-3.56.35-1.42.92-2.76,1.65-4.02.86-1.47,1.85-2.86,3.13-4.01,1.55-1.41,3.28-2.55,5.21-3.36.27-.11.55-.19.83-.25.26-.06.5.04.68.23.14.15.26.32.37.49.76,1.21,1.26,2.52,1.71,3.86.33.99.52,2.01.68,3.03.05.29.06.58.07.87.08,2.39,0,3.29-.56,5.55-.18.72-.47,1.42-.75,2.11-.52,1.32-1.26,2.52-2.1,3.67-.17.23-.38.44-.58.65-.37.39-.77.76-1.14,1.16-.93,1.03-2.05,1.82-3.24,2.51-.4.23-.78.47-1.12.79-.18.17-.39.31-.6.44-.78.47-1.56.95-2.36,1.4-2.02,1.15-4.05,2.3-6.07,3.45-1.08.62-2.16,1.25-3.24,1.87-1.47.85-2.95,1.71-4.42,2.56-1.26.73-2.52,1.44-3.79,2.17-1.01.58-2.02,1.16-3.02,1.74-.21.12-.42.26-.63.4-.21.15-.2.48,0,.65.13.11.26.21.39.3,1.44.99,2.88,1.98,4.31,2.97.55.38,1.09.77,1.63,1.15.24.17.48.33.73.48.43.26.74.22,1.12-.16.18-.17.37-.35.5-.55.81-1.2,1.97-2.02,3.1-2.86,1.24-.92,2.6-1.65,4.08-2.12.71-.23,1.42-.48,2.15-.62,1.3-.26,2.61-.48,3.95-.42.21,0,.42,0,.62.03,1.36.2,2.72.37,4.03.77.36.11.72.22,1.06.37,1.45.64,2.85,1.35,4.14,2.29.64.47,1.2,1.03,1.73,1.61.26.28.29.6.1.92-.45.75-.91,1.49-1.54,2.11-.38.38-.77.76-1.14,1.15-2.24,2.31-4.99,3.68-8.1,4.39-.97.22-1.96.38-2.97.32-.37-.02-.75,0-1.12,0-2.42.03-4.68-.58-6.85-1.61-.94-.45-1.83-.99-2.68-1.59-.24-.17-.47-.34-.69-.54-.73-.68-1.55-1.26-2.37-1.82-2.13-1.45-4.26-2.9-6.39-4.35-.48-.33-.95-.67-1.42-1.01-.53-.38-1.08-.37-1.64-.06-.18.1-.36.21-.54.32-1.91,1.1-3.82,2.19-5.73,3.29-1.8,1.04-3.59,2.08-5.39,3.12-1.4.81-2.81,1.61-4.22,2.42-1.26.72-2.52,1.45-3.78,2.17-1.55.89-3.1,1.78-4.65,2.67-.22.12-.43.25-.65.37-.74.41-1.31.98-1.78,1.7-5.08,7.65-10.19,15.28-15.26,22.92-1.03,1.56-2.1,3.09-3.12,4.65-1.02,1.56-2.07,3.11-3.11,4.67-.21.31-.42.62-.61.94-.43.71-.24,1.04.64,1.09.04,0,.08,0,.12,0,.08,0,.17,0,.25,0,.5,0,.99.06,1.49.14.86.14,1.73.24,2.59.34,1.32.15,2.64.31,3.96.45,1.03.11,2.05.29,3.09.35.95.05,1.9.22,2.84.36.54.08,1.07.15,1.61.04.22-.04.37-.18.45-.39.04-.12.07-.24.09-.36.15-.9.42-1.78.69-2.65.37-1.2.91-2.32,1.52-3.41.57-1.01,1.27-1.95,2.09-2.78.64-.65,1.28-1.3,2-1.87,1.31-1.05,2.79-1.79,4.31-2.47.38-.17.78-.3,1.18-.4,1.05-.26,2.09-.53,3.18-.58.29-.01.58-.08.86-.13.66-.12,1.33-.13,1.99-.03.9.13,1.8.29,2.7.47.36.07.72.19,1.07.32.39.14.58.45.6.86,0,.21.03.42,0,.62-.17,1.02-.24,2.06-.53,3.06-.12.4-.23.8-.4,1.18-.6,1.33-1.23,2.63-2.08,3.83-.31.44-.64.87-1.02,1.25-.47.47-.93.95-1.41,1.41-1.53,1.44-3.28,2.52-5.26,3.26-1.41.52-2.86.88-4.35,1.05-1.16.13-2.33.14-3.48-.03-.46-.07-.9-.09-1.36.02-.45.11-.91.09-1.36-.01-.49-.11-.98-.16-1.48-.17-.17,0-.33-.01-.5-.04-1.31-.21-2.63-.35-3.95-.49-1.07-.11-2.14-.33-3.21-.4-1-.06-1.98-.24-2.97-.33-1.12-.09-2.22-.28-3.33-.41-.16-.02-.33,0-.49,0-.15.01-.3.25-.22.38.3.5.6.99.91,1.48.76,1.21,1.26,2.52,1.63,3.89.11.4.19.81.3,1.21.12.44.16.9.18,1.35.03.62.12,1.24.13,1.86,0,.58-.1,1.16-.12,1.74-.02.5-.08.99-.2,1.48-.26,1.09-.53,2.18-1,3.21-.78,1.71-1.71,3.32-3.06,4.66-.77.76-1.49,1.57-2.41,2.16-.1.07-.2.15-.3.22-.39.25-.79.24-1.14-.09-.4-.36-.8-.73-1.14-1.14-1.37-1.62-2.07-2.78-2.95-4.74-.51-1.15-.79-2.36-1-3.59-.18-1.07-.31-2.13-.27-3.22,0-.16-.04-.33-.07-.49,0-.03-.05-.08-.08-.08-.08,0-.19-.02-.23.02-.21.26-.41.52-.59.8-1.09,1.62-2.16,3.25-3.26,4.87-2.28,3.38-4.56,6.75-6.84,10.12-.37.55-.77,1.08-1.15,1.63-.24.34-.45.7-.51,1.12h-2.24c0-.39.18-.71.39-1.02,1.55-2.26,3.1-4.51,4.64-6.78,3.65-5.4,7.2-10.87,10.91-16.23,1.3-1.88,2.54-3.79,3.81-5.69.14-.21.27-.42.41-.63.27-.43.31-.85-.01-1.27-.2-.26-.39-.54-.6-.8-.84-1.03-1.69-2.05-2.54-3.07-.29-.35-.57-.72-.86-1.07-.59-.7-1.18-1.39-1.77-2.09-.58-.7-1.14-1.42-1.73-2.12-.34-.41-.71-.81-1.08-1.2-.04-.04-.15-.01-.23,0-.03,0-.05.06-.06.1-.09.42-.02.82.06,1.23.16.82.16,1.65.01,2.47-.05.29-.09.57-.12.86-.25,2.22-.96,4.29-2.07,6.21-.41.72-.85,1.43-1.43,2.04-.78.81-1.57,1.6-2.38,2.37-.33.31-.72.55-1.1.8-.31.2-.62.15-.92-.1-.06-.05-.13-.11-.19-.16-.84-.81-1.67-1.62-2.32-2.59-.88-1.31-1.65-2.68-2.13-4.2-.5-1.6-.72-3.24-.91-4.88-.03-.25-.02-.5,0-.75.08-.74.15-1.49.27-2.22.32-1.94.93-3.79,1.92-5.49.58-1.01,1.22-1.98,2.08-2.79.51-.48.99-1,1.49-1.5.35-.35.39-.61.1-.98-1.06-1.33-2.14-2.65-3.21-3.96-.58-.71-1.19-1.39-1.77-2.09-.87-1.06-1.73-2.13-2.58-3.19-.22-.27-.48-.45-.82-.52v-2.99Zm62.22,21.94s0,0,0,0c-.46,0-.91-.02-1.37,0-.41.02-.82.07-1.23.13-1.37.18-2.63.72-3.88,1.29-1.06.48-2.07,1.08-2.95,1.83-1.42,1.21-2.72,2.55-3.63,4.21-.32.58-.6,1.18-.9,1.77-.48.94-.66,1.96-.83,2.98-.02.12,0,.25,0,.37.03.27.17.47.42.57.47.18.95.29,1.46.29.7,0,1.41,0,2.11.02.92.03,1.82-.06,2.71-.29,1.66-.42,3.24-1,4.69-1.94.77-.5,1.46-1.09,2.16-1.67.35-.29.69-.58.96-.96.14-.2.31-.39.48-.57.58-.6,1.03-1.3,1.41-2.04.27-.51.52-1.04.78-1.56.42-.82.68-1.69.87-2.58.05-.24.08-.49.09-.74.02-.5-.18-.81-.64-.93-.36-.09-.73-.16-1.1-.18-.54-.03-1.08,0-1.62,0ZM123.74,9.62s0,0,0,0c0-.62.02-1.24,0-1.86-.01-.37-.05-.75-.14-1.1-.25-1-.55-2-.96-2.95-.15-.34-.31-.68-.49-1-.2-.36-.48-.47-.83-.29-.48.25-.94.52-1.41.79-1.54.87-2.75,2.12-3.92,3.41-1.5,2.07-2.68,4.28-3.01,6.87-.02.12-.05.24-.07.37-.22,1.28-.21,2.57-.06,3.84.18,1.61.63,3.17,1.33,4.64.1.22.25.43.39.63.11.16.38.23.56.17.12-.04.24-.08.35-.13,1.58-.69,2.9-1.76,4.15-2.91.15-.14.29-.3.42-.46.64-.81,1.25-1.66,1.8-2.53.94-1.5,1.4-3.18,1.83-4.86.07-.28.06-.58.07-.87,0-.58,0-1.16,0-1.74Zm-67.85,15.68h.01c0,.58-.02,1.16,0,1.74.03.96.3,1.88.61,2.79.1.3.37.43.69.46.38.04.75-.05,1.09-.2.46-.2.9-.43,1.36-.62,2.11-.92,3.79-2.37,5.22-4.13.85-1.04,1.49-2.19,2.07-3.39.66-1.37,1-2.83,1.13-4.32.15-1.69.11-3.4-.26-5.08-.1-.45-.2-.89-.44-1.29-.12-.19-.41-.35-.64-.32-.12.02-.25.03-.37.07-1.53.45-2.95,1.13-4.25,2.05-1.4.99-2.62,2.18-3.58,3.6-1.66,2.46-2.72,5.12-2.66,8.15,0,.17,0,.33,0,.5Zm19.95,13.98c0,.29.01.58,0,.87-.07,1.27.26,2.47.61,3.67.13.45.41.6.85.48.32-.09.65-.17.95-.3.8-.36,1.6-.69,2.36-1.12,1.68-.95,3.13-2.17,4.31-3.71,1.14-1.5,2.03-3.13,2.57-4.94.36-1.2.62-2.41.59-3.67,0-.37-.02-.75,0-1.12.05-.96-.12-1.9-.33-2.84-.11-.48-.23-.97-.49-1.41-.11-.19-.29-.31-.51-.3-.25,0-.5.04-.73.11-.88.25-1.69.7-2.5,1.11-1.77.91-3.24,2.19-4.48,3.71-1.03,1.26-1.8,2.7-2.38,4.21-.54,1.4-.87,2.86-.82,4.38,0,.29,0,.58,0,.87Zm37.65.5c-1.08-.08-2.26.12-3.44.42-1.71.43-3.31,1.1-4.74,2.14-.54.39-1.09.77-1.6,1.19-.74.61-1.36,1.34-1.9,2.14-.15.23-.12.47.11.66.32.26.65.51.99.76.34.24.7.45,1.02.72.62.51,1.33.84,2.06,1.14,1.56.64,3.2.87,4.86,1.03.66.07,1.33.04,1.98-.11.16-.04.33-.07.49-.08,1.68-.14,3.24-.69,4.75-1.42,1.06-.51,1.97-1.22,2.92-1.89.94-.66,1.59-1.57,2.29-2.44.22-.27.15-.66-.11-.9-.12-.11-.25-.21-.38-.32-.8-.68-1.74-1.12-2.66-1.6-1.12-.58-2.3-.93-3.53-1.19-.99-.21-1.98-.25-3.11-.23Zm-68.07,35.26c-.1-.97-.22-2.04-.33-3.11,0-.04-.02-.08-.03-.12-.4-1.49-.92-2.93-1.74-4.25-.41-.67-.85-1.34-1.36-1.93-1.21-1.38-2.58-2.57-4.2-3.47-.99-.55-2.02-.97-3.09-1.3-1.06-.32-1.46-.06-1.66,1.02-.43,2.34-.41,3.91.01,6.18.05.24.11.49.19.72.46,1.34,1.04,2.63,1.74,3.85.37.65.81,1.25,1.35,1.78.33.32.66.63.96.97.79.88,1.74,1.54,2.74,2.14,1.07.65,2.21,1.16,3.42,1.48.28.07.57.1.86.11.21,0,.43-.1.51-.3.13-.35.26-.7.32-1.07.11-.61.18-1.23.26-1.85.03-.25.03-.5.04-.85Zm-19.45,7.66h0c0-.41.02-.83,0-1.24-.03-.45-.08-.91-.14-1.36-.17-1.29-.68-2.47-1.2-3.65-.22-.49-.48-.96-.75-1.43-.49-.88-1.23-1.56-1.86-2.32-.03-.03-.07-.06-.1-.06-.12,0-.26-.05-.36,0-.18.09-.35.23-.49.37-1.08,1.04-2,2.2-2.79,3.48-1.02,1.65-1.54,3.47-1.95,5.34-.02.08-.03.16-.03.25-.07,1.74-.06,3.47.36,5.19.47,1.92,1.27,3.68,2.46,5.25.27.36.6.68.93,1,.3.3.64.29,1.02.04.48-.33.9-.74,1.25-1.2.55-.73,1.11-1.45,1.59-2.23,1.33-2.16,2.13-4.48,2.09-7.05,0-.12,0-.25,0-.37Zm17.21,20.5c.05-.64-.12-1.46-.23-2.28-.34-2.36-1.33-4.44-2.72-6.34-.32-.43-.72-.8-1.09-1.19-.1-.1-.35-.11-.47-.03-.1.07-.21.14-.3.22-.96.87-1.81,1.83-2.52,2.92-.75,1.15-1.39,2.37-1.79,3.69-.42,1.4-.73,2.81-.62,4.29.02.25,0,.5,0,.75,0,1.56.33,3.06.88,4.5.52,1.36,1.2,2.65,2.14,3.78.21.25.41.52.63.76.24.25.65.28.91.04.52-.48,1.02-.98,1.53-1.46.48-.46.89-.99,1.24-1.56.79-1.28,1.43-2.62,1.83-4.07.34-1.25.56-2.51.57-4Z"/><path class="cls-1" d="m213.61,2.32c0,.54.06,1.07.14,1.61.15,1.07.25,2.14.37,3.21.02.16.02.33.04.5.13.94.28,1.89.39,2.83.12,1.07.21,2.15.32,3.22.07.7.16,1.4.25,2.1.18,1.4.36,2.8.54,4.19,0,.04.05.1.07.09.08-.01.19-.02.22-.07.14-.25.27-.51.38-.78.51-1.33,1.21-2.55,2.04-3.7.22-.3.46-.59.72-.86.55-.57,1.09-1.14,1.68-1.67.49-.45,1.01-.87,1.55-1.25,1.48-1.02,3.09-1.78,4.84-2.23.4-.1.81-.19,1.21-.3.44-.12.89-.17,1.35-.19.5-.01,1-.05,1.49-.09.67-.05,1.32.07,1.98.16.27.04.43.24.52.49.04.12.07.24.07.36,0,1.37.08,2.74,0,4.11-.09,1.24-.38,2.46-.84,3.63-.44,1.12-.98,2.2-1.61,3.23-.41.67-.88,1.31-1.43,1.88-.32.33-.65.65-.96.97-2.31,2.37-5.14,3.76-8.35,4.43-.86.18-1.72.31-2.6.27-.17,0-.33,0-.5.01-.63.03-.79.22-.72.87.12,1.15.23,2.31.36,3.46.12,1.07.28,2.14.41,3.21.12,1.03.21,2.06.33,3.09.08.7.19,1.4.3,2.09.03.21.31.33.49.21.65-.44,1.31-.88,1.96-1.33,1.73-1.22,3.45-2.45,5.18-3.68,1.02-.72,2.05-1.42,3.06-2.14,1.83-1.29,3.66-2.6,5.49-3.89.54-.38,1.1-.75,1.65-1.13.29-.2.46-.46.54-.8.11-.48.25-.96.38-1.44.55-1.91,1.49-3.61,2.73-5.13,1.24-1.51,2.65-2.84,4.35-3.88,1.62-.99,3.35-1.66,5.19-2.06,1.17-.25,2.37-.45,3.58-.4.41.02.83.07,1.24.11,1.08.12,2.14.29,3.18.61.55.17,1.09.39,1.63.62.24.1.37.33.41.59.06.42,0,.83-.08,1.23-.4,1.85-1.15,3.55-2.13,5.16-.59.96-1.27,1.84-2.1,2.62-.73.68-1.41,1.4-2.22,2-1.84,1.34-3.87,2.24-6.1,2.72-.94.2-1.88.32-2.84.29-.37-.01-.75-.02-1.12,0-1.34.06-2.65-.16-3.94-.48-1.33-.33-1.2-.43-2.42.41-1.47,1.01-2.93,2.05-4.39,3.07-.75.53-1.49,1.05-2.24,1.58-1.29.91-2.57,1.83-3.87,2.73-.99.69-1.98,1.38-2.96,2.07-1.02.71-2.06,1.41-3.07,2.14-1.22.89-1.18.89-1.13,2.39,0,.21.05.41.07.62.06.49.11.99.17,1.48.01.12.01.25.03.37.21,1.39.4,2.79.5,4.2,0,.12.05.24.1.36.07.16.2.27.37.3.12.02.25.01.37,0,.62-.02,1.24-.06,1.87-.08,1.72-.03,3.4.25,5.02.81,1.93.67,3.77,1.53,5.33,2.9,1.24.82,2.1,2,3.01,3.13.05.06.1.14.14.21,1.34,2.13,2.39,4.36,2.74,6.89.11.78.24,1.56.2,2.35,0,.16-.03.33-.07.49-.05.21-.19.36-.38.47-.07.04-.15.08-.23.1-.73.15-1.45.36-2.21.35-.62,0-1.25,0-1.87,0-2.82.04-5.4-.75-7.83-2.15-1.09-.63-2.05-1.41-3.03-2.18-.26-.21-.5-.45-.71-.7-.8-.96-1.58-1.92-2.23-3-.66-1.11-1.12-2.32-1.54-3.53-.07-.19-.15-.38-.25-.56-.02-.04-.17-.05-.21-.01-.09.08-.16.19-.21.3-.9,2.32-1.79,4.65-2.68,6.98-.91,2.36-1.82,4.73-2.73,7.09-.04.12-.1.23-.14.35-.46,1.43-1.1,2.78-1.6,4.19-.38,1.05-.82,2.08-1.22,3.13-.68,1.79-1.34,3.58-2.02,5.36-.28.74-.57,1.47-.87,2.2-.27.66-.41,1.34-.4,2.06.02,1.29.01,2.57.03,3.86,0,.37.02.75.09,1.12.12.62.14,1.24.14,1.86,0,1.25.01,2.49.02,3.74,0,.79.01,1.57.16,2.36.08.4.06.83.07,1.24.01,1.25.01,2.49.02,3.74,0,.33.01.66.04.99.03.37.27.64.62.67.95.1,1.9.17,2.85.28.62.07,1.24.15,1.84.29,2.25.54,4.31,1.5,6.15,2.91.56.43,1.08.9,1.62,1.36.06.05.12.11.18.17,1.69,1.87,3.09,3.91,3.87,6.32.48,1.46.82,2.96.78,4.52-.01.54,0,1.08-.01,1.62,0,.21-.03.41-.08.62-.06.26-.23.45-.49.52-.2.06-.41.07-.61.1-.49.06-.99.09-1.48.17-.42.06-.83.06-1.24-.01-.33-.06-.66-.11-.99-.13-2.55-.16-4.86-1-7.04-2.3-1.04-.62-1.92-1.46-2.86-2.2-.16-.13-.28-.31-.41-.46-.24-.28-.47-.58-.73-.85-.5-.51-.92-1.08-1.27-1.69-.46-.79-.94-1.56-1.29-2.41-.53-1.28-.88-2.59-1.11-3.95-.07-.45-.1-.91-.1-1.36-.01-1.37,0-2.74-.01-4.11,0-.58-.03-1.16-.13-1.74-.07-.45-.09-.91-.1-1.36-.02-1.37-.02-2.74-.02-4.11,0-.58-.03-1.16-.13-1.74-.08-.49-.09-.99-.1-1.49-.02-1.66-.03-3.32-.02-4.98,0-.84-.15-1.65-.31-2.46-.04-.18-.31-.35-.48-.3-.12.03-.24.06-.36.11-1.26.54-2.52,1.08-3.78,1.62-2.1.9-4.2,1.8-6.3,2.69-1.76.75-3.51,1.51-5.27,2.26-.08.03-.15.07-.22.11-.3.15-.42.43-.33.72.05.16.11.31.17.47.24.66.49,1.32.73,1.99.08.23.14.48.18.72.15.94.29,1.89.44,2.83.1.62.09,1.24,0,1.86-.07.49-.12.99-.18,1.48-.12.95-.36,1.88-.66,2.78-.41,1.27-.96,2.46-1.68,3.6-.9,1.42-2,2.66-3.25,3.76-1.61,1.41-3.42,2.49-5.49,3.1-.08.02-.16.05-.24.06-.36.08-.66-.03-.88-.32-.15-.2-.28-.41-.4-.63-.46-.84-.84-1.72-1.16-2.62-.08-.23-.15-.48-.19-.72-.23-1.18-.45-2.36-.66-3.55-.12-.7-.13-1.41-.02-2.11.15-1.03.34-2.05.54-3.06.19-.98.52-1.92,1-2.81.39-.73.73-1.5,1.19-2.19,1.12-1.67,2.45-3.14,4.12-4.28,1.45-.99,2.96-1.84,4.65-2.36.79-.25,1.56-.57,2.33-.89,2.83-1.2,5.65-2.41,8.48-3.63,2.02-.87,4.04-1.75,6.06-2.62.42-.18.84-.35,1.26-.53.44-.19.77-.48.93-.95.27-.79.68-1.51.9-2.32.14-.52.42-.99.61-1.5.57-1.51,1.13-3.03,1.7-4.55.25-.66.51-1.32.76-1.98.06-.15.08-.32.12-.48.02-.09-.09-.28-.18-.31-.08-.03-.15-.07-.23-.08-1.2-.08-2.38-.37-3.6-.29-.16.01-.34,0-.5-.03-.9-.19-1.82-.14-2.73-.24-1.2-.14-2.4-.23-3.6-.24-.17,0-.33-.02-.49-.06-.61-.14-1.23-.16-1.86-.16-.58,0-1.16-.1-1.74-.14-1.49-.1-2.97-.3-4.47-.36-.21,0-.42,0-.62,0-.39,0-.71.16-.97.47-1,1.17-2.01,2.32-2.97,3.52-.59.75-1.24,1.45-1.85,2.18-.37.44-.73.9-1.1,1.35-1.03,1.25-2.03,2.52-3.08,3.75-.89,1.04-1.74,2.11-2.73,3.07-2.11,2.04-4.57,3.44-7.42,4.13-1.21.29-2.44.51-3.7.47-.21,0-.42,0-.62,0-3.16,0-6.06-.9-8.72-2.58-.92-.58-1.77-1.24-2.51-2.04-.48-.52-.98-1.02-1.45-1.54-.18-.2-.19-.46-.05-.7.12-.21.25-.44.42-.61.95-.99,1.87-2,2.99-2.81,1.56-1.13,3.24-1.99,5.11-2.52,1.94-.56,3.91-.75,5.91-.64.74.04,1.48.2,2.22.33,1.82.32,3.5,1.02,5.08,1.97,1.04.62,2.02,1.31,2.88,2.17.12.12.26.2.4.3.11.07.37.07.47-.02.19-.16.38-.32.54-.51,1.2-1.43,2.4-2.86,3.59-4.3,1.03-1.25,2.05-2.5,3.08-3.75.32-.38.66-.75.97-1.14.1-.13.16-.29.23-.44.04-.09-.06-.28-.16-.3-.9-.16-1.8-.33-2.72-.31-.66.02-1.33-.02-1.98-.15-.45-.08-.91-.08-1.36-.09-.62-.01-1.24-.04-1.86-.15-.49-.08-.99-.09-1.49-.1-.58-.01-1.16-.05-1.74-.15-.49-.08-.99-.09-1.49-.1-.58-.01-1.16-.04-1.74-.14-.45-.08-.91-.09-1.36-.1-.67-.01-1.33-.02-1.98-.17-.2-.05-.41-.06-.62-.07-1.52-.04-2.94-.46-4.35-1-1.45-.55-2.78-1.3-4-2.25-.33-.25-.64-.53-.95-.81-.36-.34-.7-.71-1.06-1.05-1.1-1.04-1.92-2.29-2.62-3.62-.62-1.18-1.11-2.41-1.42-3.71-.43-1.75-.53-3.53-.42-5.32.03-.49.16-.98.27-1.47.06-.26.24-.44.49-.52.28-.08.56-.16.85-.18.37-.03.75-.04,1.12.01,1.56.22,3.13.39,4.63.92.2.07.4.11.59.19,2.36.99,4.54,2.28,6.23,4.23,1.82,2.1,3.23,4.43,3.83,7.18.25,1.18.46,2.36.43,3.58-.02.54,0,1.08.03,1.62.02.37.26.61.64.64,1.16.08,2.3.36,3.47.29.25-.02.5,0,.74.06.78.17,1.57.19,2.36.18.54,0,1.08.03,1.61.15.36.08.73.14,1.11.03.03,0,.06-.05.07-.08.01-.03.02-.09,0-.11-.15-.14-.3-.29-.47-.4-1.03-.71-1.97-1.52-2.84-2.42-1.38-1.42-2.42-3.06-3.19-4.87-.57-1.34-.93-2.74-1.11-4.2-.12-.91-.19-1.81-.2-2.73,0-.84.14-1.65.3-2.47.06-.31.28-.53.59-.55,1.08-.07,2.16-.1,3.23.05.16.02.32.08.49.09,1.39.08,2.68.57,3.94,1.11,1.46.62,2.82,1.43,4.02,2.47,1.8,1.57,3.33,3.36,4.32,5.57.77,1.72,1.34,3.49,1.52,5.37.07.7.04,1.41.05,2.12,0,.41,0,.83.04,1.24.02.32.22.52.53.62.44.14.88.23,1.34.24.37,0,.75,0,1.12.02.29,0,.59-.02.87.04.98.2,1.98.22,2.98.22.12,0,.25,0,.37.03.86.2,1.73.21,2.6.22.12,0,.25,0,.37.03.94.21,1.9.21,2.85.22.29,0,.59,0,.87.07.7.15,1.4.17,2.11.17.5,0,1,.03,1.49.13.16.03.33.04.49.02.22-.02.4-.12.51-.31.1-.18.19-.37.26-.56.51-1.32,1.01-2.64,1.51-3.96.87-2.29,1.74-4.58,2.62-6.87.62-1.63,1.26-3.25,1.89-4.88.43-1.12.84-2.26,1.31-3.37.3-.72.35-1.45.26-2.2-.12-.95-.32-1.89-.38-2.83-.07-1-.23-1.98-.33-2.97-.11-1.11-.28-2.22-.41-3.33-.12-1.03-.22-2.06-.34-3.09-.08-.74-.17-1.48-.26-2.22-.13-1.07-.28-2.14-.41-3.21-.12-1.03-.22-2.06-.33-3.09-.1-.91-.22-1.81-.33-2.72-.05-.45-.11-.91-.16-1.36-.02-.21-.02-.42-.05-.62-.2-1.35-.37-2.71-.49-4.08-.08-.95-.26-1.89-.38-2.83-.04-.29-.05-.58-.08-.87-.03-.29-.04-.58-.08-.87-.06-.49-.11-.99-.19-1.48-.07-.49-.16-.98-.26-1.47-.07-.34-.35-.44-.66-.22-.34.24-.67.49-.99.76-.89.74-1.78,1.49-2.66,2.25-.34.3-.71.59-.98.95-.96,1.29-2.17,2.28-3.48,3.17-.72.49-1.47.94-2.14,1.5-.82.7-1.65,1.39-2.47,2.09-.73.62-1.46,1.23-2.19,1.85-.35.29-.7.59-1.05.88-.89.75-1.77,1.5-2.66,2.25-.79.67-1.58,1.35-2.37,2.02-.28.24-.58.47-.86.72-.56.5-1.11,1-1.66,1.5-.03.03-.04.07-.07.1-.08.11-.05.37.06.46.13.1.26.21.4.29.4.22.81.42,1.22.63.63.33,1.22.72,1.76,1.18.38.32.8.6,1.16.94,1.72,1.61,3.05,3.51,3.98,5.67.44,1.03.73,2.11.94,3.22.3,1.56.36,3.14.27,4.71-.09,1.41-.38,2.8-.94,4.11-.15.36-.36.45-.8.42-1.47-.08-2.86-.54-4.22-1.04-1.52-.57-2.95-1.34-4.2-2.4-.32-.27-.65-.52-.96-.79-.25-.22-.51-.43-.73-.68-1.31-1.51-2.46-3.14-3.25-4.99-.15-.34-.27-.7-.38-1.05-.19-.64-.36-1.28-.53-1.92-.08-.32-.14-.65-.19-.98-.06-.37-.1-.74-.16-1.11-.12-.83-.12-1.65,0-2.48.11-.74.21-1.48.31-2.22.04-.3-.19-.57-.49-.61-.21-.03-.41-.04-.62-.05-.33-.02-.67,0-.99-.07-.74-.15-1.49-.15-2.23-.15-3.66,0-7.32,0-10.97,0-.37,0-.75,0-1.12.02-.42.02-.69.25-.84.63-.12.31-.23.62-.33.94-.67,1.95-1.71,3.69-3.04,5.25-1.33,1.56-2.9,2.84-4.75,3.78-1.57.8-3.19,1.4-4.93,1.7-.41.07-.82.12-1.24.13-.75.02-1.5,0-2.24.02-1.52.05-2.98-.27-4.41-.71-.55-.17-1.08-.44-1.6-.69-.37-.18-.5-.52-.45-.94.01-.08.02-.16.04-.25.29-1.39.77-2.72,1.37-4,.32-.67.72-1.31,1.15-1.92.5-.71,1.05-1.4,1.62-2.05.66-.75,1.48-1.33,2.28-1.92,1.89-1.42,4.04-2.29,6.33-2.81.32-.07.65-.11.98-.16.41-.06.83-.08,1.24-.15.58-.1,1.16-.14,1.74-.06,1.64.22,3.31.37,4.87.99.9.36,1.84.46,2.81.46,6.11-.01,12.22,0,18.33,0,1.66,0,1.31-.03,2.49-.87.13-.1.26-.2.38-.32.94-.88,1.96-1.67,2.95-2.49.83-.69,1.63-1.42,2.45-2.12.79-.67,1.59-1.33,2.39-2,.48-.4.97-.77,1.32-1.31.06-.09-.02-.28-.14-.3-.12-.02-.24-.05-.37-.06-.25,0-.5,0-.75,0-.5,0-1-.02-1.5,0-2,.08-3.88-.43-5.69-1.19-2.05-.86-3.85-2.12-5.44-3.68-.57-.56-1-1.22-1.5-1.82-.16-.19-.14-.49.05-.69.45-.49.93-.95,1.38-1.44,1.23-1.33,2.72-2.31,4.36-3.05,1.52-.68,3.09-1.2,4.77-1.38.78-.08,1.56-.26,2.35-.21.21.01.42,0,.62.02,1.53.19,3.05.41,4.52.89,1.15.38,2.23.93,3.25,1.56,1.16.73,2.29,1.51,3.25,2.5.12.12.25.21.39.31.19.14.51.13.71,0,.07-.05.14-.09.2-.14.63-.54,1.26-1.08,1.9-1.62.95-.81,1.9-1.61,2.85-2.42.09-.08.19-.17.27-.26.15-.16.22-.36.21-.57-.04-.45-.1-.91-.15-1.36-.13-1.11-.27-2.22-.41-3.33-.09-.7-.18-1.4-.26-2.1-.11-.9-.21-1.81-.32-2.71.67,0,1.33,0,2,0Zm-59.59,54.85c-.13,1.8.22,3.33.86,4.8.07.15.12.31.18.47.7,1.76,1.75,3.3,3.07,4.65,1.08,1.11,2.35,1.99,3.73,2.68,1.49.75,3.06,1.29,4.73,1.52.54.07,1.08.11,1.61,0,.21-.05.37-.2.42-.41.05-.2.08-.41.08-.61.02-.96-.04-1.9-.19-2.85-.32-2.14-1.16-4.06-2.35-5.84-.93-1.39-2.08-2.58-3.44-3.56-1.85-1.34-3.87-2.25-6.1-2.72-.62-.13-1.24-.13-1.86-.09-.44.03-.71.27-.73.69-.02.5,0,1,0,1.3Zm10.21,34.87c2.26-.04,4.2-.42,6.04-1.28,1.09-.51,2.17-1.05,3.11-1.82.64-.53,1.23-1.11,1.78-1.74.13-.15.12-.42-.03-.58-.5-.56-1.03-1.08-1.63-1.53-1.34-1.01-2.83-1.73-4.42-2.26-.83-.28-1.67-.49-2.55-.52-.58-.02-1.15-.18-1.73-.18-.62,0-1.23.15-1.85.18-.54.03-1.07.12-1.6.24-1.3.31-2.53.8-3.7,1.45-1.32.73-2.5,1.64-3.49,2.78-.08.09-.17.2-.2.31-.04.11-.05.25,0,.36.06.15.16.3.28.4,1.01.86,2.01,1.74,3.23,2.31.3.14.6.29.89.45,1.92,1.02,3.99,1.34,5.89,1.44Zm23.79-19.45c.25-.02.38-.02.5-.03.32-.03.54-.2.64-.51.19-.56.27-1.12.18-1.71-.08-.53-.11-1.07-.18-1.6-.04-.33-.09-.66-.16-.98-.62-2.74-1.88-5.12-3.9-7.09-.48-.46-.93-.96-1.45-1.36-1.73-1.34-3.67-2.26-5.8-2.77-.76-.18-1.55-.25-2.34-.33-.43-.05-.73.22-.78.63-.01.12-.03.25-.03.37,0,.91,0,1.83.02,2.74.01.37.1.74.18,1.1.07.32.18.64.27.96.67,2.27,1.76,4.29,3.46,5.95.3.29.59.58.88.88.55.57,1.18,1.06,1.86,1.45,1.65.97,3.36,1.81,5.29,2.09.49.07.98.17,1.35.23Zm-1.1,32.47c0-.31,0-.68,0-1.05.02-.71-.09-1.41-.32-2.08-.25-.75-.49-1.5-.74-2.25-.08-.24-.18-.47-.28-.69-.12-.27-.43-.4-.73-.3-1,.32-1.94.75-2.79,1.36-1.57,1.12-2.91,2.47-3.9,4.14-.36.61-.67,1.24-.99,1.87-.64,1.23-.89,2.58-1.17,3.93-.03.16-.04.33-.04.5,0,1,0,1.99,0,2.99,0,.25.04.5.07.74.18,1.29.62,2.49,1.15,3.67.07.15.16.29.24.43.13.22.42.32.65.25.12-.04.24-.07.35-.13,1.36-.65,2.62-1.43,3.69-2.52.32-.33.63-.66.97-.97,1.06-.97,1.81-2.18,2.4-3.46.93-2.01,1.61-4.1,1.43-6.44Zm34.23,21.37c.22-.01.67-.03,1.13-.07.24-.02.46-.26.49-.5.02-.16.06-.33.04-.49-.12-.86-.21-1.73-.4-2.58-.38-1.72-1.08-3.3-2.08-4.76-1-1.45-2.11-2.77-3.57-3.77-1.24-.84-2.53-1.59-3.97-2.04-.99-.31-2.01-.53-3.03-.69-.74-.12-1.49-.1-2.24-.03-.31.03-.55.26-.59.55-.01.08-.03.16-.04.25-.07,1.13-.01,2.24.34,3.32.14.43.27.87.43,1.3.75,2.01,1.89,3.78,3.4,5.3.47.47,1,.87,1.53,1.26,1.34.99,2.77,1.83,4.4,2.27,1.28.35,2.57.67,4.15.67Zm-36.95-86.14s0,0-.01,0c0,.46-.02.91,0,1.37.03.45.08.91.15,1.36.27,1.84,1.03,3.49,1.96,5.07.53.89,1.16,1.72,1.89,2.46,1.65,1.69,3.63,2.88,5.84,3.68.35.13.71.24,1.07.33.24.05.49.06.74.04.22-.01.39-.13.49-.33.08-.15.16-.3.19-.46.14-.86.35-1.7.36-2.58.02-1.8-.25-3.54-.84-5.25-.91-2.62-2.48-4.78-4.59-6.54-1.61-1.34-3.51-2.2-5.51-2.82-.23-.07-.49-.1-.73-.11-.28-.02-.58.19-.68.46-.19.55-.34,1.11-.35,1.7,0,.54,0,1.08,0,1.62Zm68.32-22.76c-.7.02-1.41-.06-2.11.1-.73.17-1.46.34-2.18.54-.92.26-1.81.62-2.64,1.09-1.16.66-2.19,1.49-3.22,2.34-.13.11-.24.23-.34.36-.64.82-1.31,1.61-1.87,2.49-.76,1.21-1.24,2.53-1.65,3.88-.02.08-.04.17-.02.24.04.11.09.23.17.32.09.08.21.14.33.17,1.2.36,2.43.56,3.67.65,1.26.08,2.48-.13,3.7-.4.45-.1.89-.21,1.32-.36,2.1-.75,3.96-1.9,5.61-3.4.24-.22.45-.49.67-.74.19-.22.36-.46.54-.68,1.06-1.26,1.79-2.7,2.31-4.24.54-1.57.47-1.69-1.21-2.09-1.02-.24-2.05-.35-3.09-.28Zm-103.03,29.4c.76.05,1.49-.12,2.22-.24,3.04-.48,5.68-1.77,7.87-3.94.24-.23.48-.46.7-.71.7-.76,1.34-1.58,1.81-2.52.26-.52.53-1.03.77-1.56.17-.38.33-.76.46-1.15.23-.7.08-1.02-.62-1.21-1.32-.37-2.65-.68-4.04-.63-.41.02-.83,0-1.24,0-.29,0-.58.02-.87.07-1.86.31-3.62.88-5.27,1.8-1.42.8-2.69,1.8-3.75,3.04-1.09,1.27-1.91,2.7-2.57,4.24-.11.27-.2.54-.29.82-.04.12-.06.24-.08.36-.08.42.11.74.51.87,1.43.45,2.9.7,4.4.76Zm67.58-22.18c.03.49.06.99.1,1.48.02.19.26.38.44.37.41-.03.82-.08,1.24-.1,1.05-.03,2.05-.27,3.05-.57,1.16-.35,2.22-.92,3.27-1.5.95-.52,1.68-1.34,2.54-1.99.13-.1.22-.25.33-.37.24-.28.49-.56.72-.86.28-.36.58-.7.82-1.09,1.02-1.63,1.78-3.37,2.16-5.26.12-.61.23-1.22.29-1.84.05-.53.01-1.07,0-1.61-.01-.31-.26-.56-.56-.57-.41-.02-.83-.03-1.24,0-.49.05-.99.13-1.47.23-1.47.3-2.87.78-4.18,1.54-.93.54-1.85,1.11-2.62,1.88-.14.15-.33.25-.49.38-.13.11-.26.21-.36.34-.76.93-1.56,1.82-2.14,2.89-1.12,2.07-1.89,4.23-1.88,6.62Zm16.87,43.84c.87.04,1.52-.11,2.16-.29.22-.06.42-.31.42-.57,0-.33,0-.66-.07-.99-.31-1.69-.85-3.29-1.72-4.78-.95-1.63-2.1-3.08-3.61-4.23-.97-.73-2-1.33-3.08-1.87-1.25-.62-2.59-.89-3.93-1.17-.2-.04-.41-.04-.62-.04-.79,0-1.58-.01-2.37,0-.25,0-.5.03-.74.07-.23.03-.46.27-.47.52-.02.33-.06.67-.02.99.11.86.27,1.72.57,2.55.43,1.18.98,2.29,1.66,3.34.71,1.08,1.54,2.07,2.56,2.87.68.54,1.41,1.02,2.13,1.52.51.36,1.08.61,1.65.86,1.7.74,3.51.99,5.32,1.22.12.02.25,0,.18,0Zm-38.91-45.32c.76.04,1.49-.13,2.23-.23,1.08-.15,2.11-.45,3.13-.82.79-.29,1.51-.7,2.14-1.26.59-.52,1.17-1.06,1.8-1.54.23-.17.41-.41.6-.63.15-.18.17-.52.04-.7-.1-.14-.2-.27-.31-.39-.42-.47-.92-.83-1.42-1.21-3.13-2.38-6.68-3.28-10.56-2.89-1.79.18-3.49.75-5.08,1.61-1.1.6-2.09,1.35-3.06,2.13-.13.1-.23.24-.34.37-.13.15-.15.43-.04.58.1.13.2.27.31.39.82.89,1.74,1.65,2.77,2.3,2.39,1.5,5.01,2.17,7.8,2.28Z"/><path class="cls-2" d="m138.03,125.52c0-.29-.05-.58-.18-.84-.15-.3-.29-.6-.45-.89-1.01-1.81-2.04-3.62-3.05-5.43-.59-1.05-1.16-2.11-1.74-3.17-.4-.73-.81-1.45-1.22-2.17-.59-1.05-1.2-2.09-1.78-3.14-.59-1.05-1.16-2.11-1.74-3.17-.54-.98-1.08-1.97-1.63-2.94-.12-.21-.3-.39-.46-.58-.06-.07-.29,0-.32.08-.03.08-.08.15-.09.23-.03.25-.06.5-.05.74.03.92-.14,1.82-.37,2.71-.59,2.28-1.6,4.36-2.99,6.25-.1.13-.2.27-.32.38-1.01,1.05-2,2.11-3.2,2.95-1.58,1.11-3.29,1.94-5.15,2.45-.16.04-.32.07-.49.1-.47.09-.67,0-.91-.45-.35-.66-.68-1.33-.91-2.05-.57-1.75-.94-3.52-.91-5.37.02-1.17.07-2.33.32-3.46.37-1.67.9-3.29,1.78-4.76.84-1.39,1.76-2.72,2.97-3.82,1.55-1.41,3.22-2.62,5.2-3.36.9-.33,1.17-.6.59-1.54-.26-.42-.46-.88-.71-1.32-.23-.4-.47-.78-.72-1.16-.18-.28-.48-.36-.76-.24-.26.12-.53.24-.78.39-1.25.74-2.49,1.49-3.74,2.24-2.11,1.25-4.21,2.5-6.32,3.76-2.18,1.3-4.35,2.6-6.52,3.9-.11.06-.21.14-.32.2-.48.27-.71.68-.69,1.23,0,.21,0,.42,0,.62-.03,3.2-.99,6.12-2.69,8.81-.4.63-.82,1.25-1.35,1.78-.18.18-.31.39-.47.58-.16.19-.3.4-.49.56-1.22,1.07-2.47,2.09-3.92,2.84-1.11.58-2.27,1.04-3.47,1.38-.44.13-.89.22-1.34.29-.82.13-1.64.26-2.47.35-1,.11-1.99-.06-2.97-.27-.26-.06-.45-.23-.49-.5-.09-.62-.16-1.23-.23-1.85,0-.04,0-.08,0-.12.2-1.43.18-2.9.59-4.31.44-1.52,1.04-2.98,1.84-4.35.59-1,1.28-1.94,2.1-2.77.26-.27.53-.52.79-.8,1.01-1.07,2.22-1.86,3.51-2.55.18-.1.37-.18.56-.28,1.62-.89,3.38-1.34,5.2-1.64.95-.16,1.89-.23,2.85-.21.25,0,.5,0,.75,0,.43,0,.81-.11,1.18-.34,1.17-.71,2.36-1.4,3.53-2.1,2.64-1.58,5.27-3.17,7.91-4.74,1.93-1.15,3.86-2.28,5.79-3.42.25-.15.49-.32.7-.51.19-.18.26-.44.16-.69-.14-.35-.3-.69-.48-1.01-.64-1.16-1.3-2.32-1.95-3.47-.61-1.08-1.23-2.16-1.84-3.25-.59-1.05-1.16-2.11-1.74-3.16-.36-.65-.74-1.3-1.12-1.94-.06-.11-.15-.2-.24-.28-.13-.12-.29-.17-.46-.14-.2.04-.4.11-.59.18-.67.23-1.33.48-2,.7-.79.26-1.61.4-2.43.51-.37.05-.74.09-1.11.15-.66.11-1.32.11-1.98,0-.37-.06-.74-.12-1.11-.14-.84-.05-1.65-.23-2.45-.45-1.45-.4-2.82-.99-4.13-1.72-.73-.41-1.41-.89-2.04-1.42-1.67-1.39-3.15-2.95-4.14-4.92-.52-1.04-1.08-2.06-1.43-3.18-.33-1.06-.29-1.14.67-1.66,1.77-.97,3.69-1.49,5.67-1.81.29-.05.58-.05.87-.05.46,0,.91,0,1.37,0,2.16-.08,4.2.42,6.2,1.19,2.53.98,4.66,2.54,6.46,4.54.61.68,1.16,1.42,1.62,2.21.5.86.97,1.74,1.46,2.61.63,1.12,1.26,2.24,1.88,3.37.3.54.59,1.1.9,1.64.08.14.2.26.33.36.05.04.18.04.23,0,.13-.1.24-.23.33-.36.43-.61.85-1.23,1.28-1.84,1-1.41,2.27-2.52,3.66-3.52,2.17-1.56,4.6-2.46,7.22-2.89.33-.05.66-.06.99-.07.66-.01,1.33-.01,1.99-.01,2.1,0,2.18.01,4.18.56,1.7.47,3.27,1.2,4.73,2.18.82.54.91.91.52,1.78-.86,1.91-1.99,3.63-3.49,5.11-2.47,2.42-5.39,3.98-8.8,4.63-.74.14-1.48.23-2.23.22-.21,0-.42,0-.62,0-2.28.11-4.46-.3-6.57-1.16-.19-.08-.39-.12-.59-.17-.1-.03-.24.15-.22.25.1.46.35.84.57,1.24.8,1.46,1.61,2.91,2.42,4.35,1.02,1.81,2.04,3.61,3.05,5.43.61,1.09,1.19,2.19,1.8,3.28.6,1.09,1.22,2.17,1.83,3.26.45.8.9,1.59,1.34,2.39.58,1.05,1.15,2.11,1.74,3.17.62,1.13,1.26,2.24,1.89,3.37.59,1.05,1.17,2.1,1.75,3.16.14.25.26.52.42.76.06.09.18.15.28.2.08.04.19-.1.2-.27.05-1.25.36-2.46.66-3.67.3-1.17.75-2.29,1.34-3.34.79-1.42,1.72-2.74,2.91-3.86.61-.57,1.19-1.15,1.86-1.65,2.06-1.56,4.36-2.54,6.89-3.06,1.36-.28,2.73-.23,4.09-.22.12,0,.25.03.37.07.26.07.46.24.51.5.23,1.31.47,2.62.3,3.96-.12.95-.26,1.89-.45,2.82-.32,1.55-.92,3.01-1.68,4.4-.62,1.14-1.39,2.17-2.21,3.16-.27.32-.55.63-.86.9-1.57,1.38-3.28,2.54-5.21,3.37-1,.43-2.03.74-3.09.95-.77.16-1.54.34-2.34.32-.12,0-.24.04-.37.06-.14.03-.3.26-.25.38.12.31.23.62.38.91.49.91,1,1.82,1.51,2.72.53.94,1.07,1.88,1.6,2.82.19.33.31.68.31,1.06h-2.24Zm-14.22-43.61c.29-.03.58-.06.87-.1.33-.04.66-.11.99-.14,1.86-.13,3.56-.78,5.2-1.59,1.81-.89,3.29-2.23,4.6-3.75.59-.69,1.08-1.47,1.51-2.28.06-.11.1-.23.14-.34.08-.23-.01-.52-.22-.66-.17-.11-.35-.23-.53-.32-1.45-.73-2.97-1.29-4.59-1.52-.7-.1-1.4-.21-2.1-.25-1.34-.08-2.64.19-3.94.5-2.22.53-4.19,1.57-5.97,2.97-1.15.9-2.05,2.05-2.9,3.23-.31.44-.55.92-.81,1.4-.12.22-.04.53.18.65.43.24.87.48,1.32.7,1.43.68,2.92,1.17,4.52,1.27.29.02.57.09.86.13.29.04.58.07.87.1Zm-25.41,22.62c-.02-.37-.04-.74-.08-1.11-.02-.24-.26-.47-.48-.51-.08-.02-.16-.04-.24-.04-.87-.02-1.73-.04-2.6.13-.94.18-1.86.44-2.75.77-1.93.71-3.67,1.73-5.12,3.21-.2.21-.4.42-.62.61-.9.83-1.54,1.84-2.15,2.88-1.2,2.04-1.71,4.3-1.92,6.63-.02.25,0,.5.01.74.03.38.26.63.62.66.75.07,1.49.09,2.23-.02,2.11-.33,4.11-.94,5.94-2.1,1.22-.77,3.07-2.23,4.07-3.6,1.22-1.66,2.16-3.44,2.67-5.43.23-.92.45-1.85.42-2.82Zm37.62,8.72c0,.42,0,.79,0,1.17,0,.17.02.33.04.5.04.35.3.59.67.63.12.01.25.02.37.02.88.06,1.73-.13,2.58-.35,2.59-.66,4.85-1.92,6.79-3.75.88-.83,1.6-1.8,2.23-2.83.39-.64.78-1.27,1.07-1.96.51-1.23.85-2.5,1.07-3.82.17-1.08.16-2.15.13-3.22,0-.08-.03-.16-.04-.24-.04-.22-.29-.45-.53-.46-.21,0-.42-.02-.62.01-.82.13-1.64.28-2.45.43-.33.06-.65.15-.96.25-1.54.54-3,1.22-4.31,2.2-.7.52-2.75,2.53-3.26,3.24-.1.14-.19.27-.28.41-.66,1.01-1.23,2.07-1.64,3.2-.55,1.49-.92,3.01-.85,4.57Zm-33.07-37.8c.47-.02.94,0,1.38-.06,1.31-.2,2.61-.47,3.86-.95.15-.06.3-.13.45-.21.3-.16.47-.49.4-.84-.04-.2-.09-.41-.17-.59-.96-2.26-2.43-4.15-4.33-5.68-1.2-.97-2.56-1.69-3.99-2.27-1.2-.49-2.45-.75-3.74-.9-1.03-.11-2.06-.21-3.09,0-.12.02-.25,0-.37.02-.95.06-3.09.6-3.97,1-.04.02-.07.04-.11.05-.04.02-.07.04-.11.06-.34.18-.45.47-.29.83.82,1.83,1.78,3.56,3.27,4.95.3.28.59.59.89.87.21.2.42.4.65.57,2.74,2.06,5.84,3.08,9.25,3.13Zm9.12,35.78h0c0,.29,0,.58,0,.87-.05,1.48.4,2.87.84,4.25.02.08.07.15.11.22.12.24.38.36.63.28,1.61-.51,3.07-1.3,4.34-2.38,1.3-1.1,2.48-2.33,3.37-3.81.9-1.52,1.54-3.13,1.89-4.85.1-.49.14-.99.2-1.48.05-.45.08-.91.11-1.36.04-.67-.16-1.32-.21-1.98-.06-.97-.41-1.86-.66-2.78-.04-.16-.14-.3-.23-.44-.18-.27-.44-.38-.75-.34-.16.02-.33.07-.48.13-.82.31-1.6.68-2.35,1.15-1.47.91-2.71,2.05-3.79,3.39-1.16,1.44-1.95,3.08-2.49,4.84-.33,1.08-.55,2.17-.52,3.31,0,.33,0,.66,0,1Z"/><path class="cls-1" d="m263.91,126.43c-.58-1.25-1.42-2.34-2.18-3.48-.07-.1-.16-.19-.26-.26-.17-.14-.37-.2-.58-.14-.2.05-.4.12-.58.21-1.47.72-3.04,1.14-4.65,1.35-1.56.21-3.15.16-4.72,0-.49-.05-.98-.18-1.47-.29-2.35-.51-4.48-1.54-6.39-2.98-.89-.67-1.8-1.34-2.44-2.29-1.47-1.52-2.39-3.38-3.24-5.28-.17-.38-.27-.78-.37-1.18-.1-.39.07-.74.43-.95.97-.58,2.01-1,3.07-1.35,1.07-.36,2.16-.58,3.28-.74.29-.04.58-.05.87-.06.37-.01.75,0,1.12,0,2.2-.09,4.28.42,6.31,1.21.38.15.75.35,1.18.38.11,0,.26-.15.23-.24-.02-.08-.03-.17-.06-.24-.1-.18-.2-.36-.31-.54-1.15-1.78-2.31-3.55-3.46-5.32-1.17-1.81-2.33-3.63-3.49-5.45-.11-.17-.23-.35-.35-.52-.27-.38-.64-.53-1.08-.46-.66.1-1.31.2-1.96.33-1.2.23-2.4.18-3.6.08-.78-.06-1.56-.25-2.33-.41-2.4-.51-4.51-1.62-6.5-3.03-2.2-1.56-4.41-4.72-5.31-6.94-.61-1.51-.97-3.08-1.13-4.7-.03-.33.1-.58.41-.69.35-.13.7-.26,1.06-.35.97-.24,1.94-.48,2.93-.55.17-.01.33-.03.49-.07.87-.19,1.73-.17,2.6,0,.69.14,1.4.21,2.09.32,2.47.41,4.65,1.46,6.68,2.91,2.04,1.45,3.57,3.33,4.81,5.47.54.94.92,1.95,1.24,2.98.27.87.49,1.76.64,2.66.09.55.29,1.03.59,1.49,1.21,1.84,2.41,3.68,3.6,5.53,1.08,1.67,2.14,3.36,3.21,5.04.04.07.09.14.13.21,1.27,1.95,2.55,3.89,3.81,5.84,1.1,1.71,2.19,3.43,3.28,5.14.07.11.14.21.2.31,1.27,1.95,2.54,3.89,3.81,5.84.25.38.54.74.64,1.2h-2.24Zm-23.27-30.14h0c.46,0,.91-.02,1.37,0,.76.02,1.48-.19,2.21-.34.45-.09.65-.39.55-.81-.16-.68-.33-1.37-.55-2.04-.32-.99-.82-1.89-1.37-2.78-.86-1.39-1.95-2.57-3.2-3.62-1.45-1.21-3.09-2.08-4.87-2.69-.94-.32-1.91-.61-2.9-.66-1.16-.05-2.32-.02-3.48,0-.63,0-1.23.18-1.82.38-.38.13-.58.48-.52.89.02.16.06.33.09.49.13.7.41,1.35.67,2,.63,1.55,1.5,2.96,2.6,4.21,1.41,1.61,3.11,2.86,5.07,3.72,1.84.81,3.74,1.37,5.78,1.26.12,0,.25,0,.37,0Zm12.72,26.13c.57.08,1.22-.14,1.88-.19,1.13-.09,2.2-.41,3.26-.78.27-.1.54-.21.8-.34.44-.21.55-.48.36-.9-.22-.49-.47-.97-.7-1.46-.89-1.89-2.3-3.34-3.87-4.66-1.15-.97-2.48-1.67-3.88-2.21-1.28-.49-2.58-.93-3.98-.92-.95-.21-1.89-.13-2.84-.02-.7.08-1.41.12-2.09.33-.8.24-1.58.51-2.37.77-.12.04-.22.11-.33.17-.21.12-.35.42-.25.64.25.57.49,1.14.78,1.69.96,1.82,2.23,3.38,3.88,4.64,1.27.97,2.66,1.69,4.13,2.28,1.48.59,3.05.77,4.62.96.16.02.33,0,.6,0Z"/><path class="cls-1" d="m2.24,7.2c.58,1.25,1.42,2.34,2.18,3.48.07.1.16.19.26.26.17.14.37.2.58.14.2-.05.4-.12.58-.21,1.47-.72,3.04-1.14,4.65-1.35,1.56-.21,3.15-.16,4.72,0,.49.05.98.18,1.47.29,2.35.51,4.48,1.54,6.39,2.98.89.67,1.8,1.34,2.44,2.29,1.47,1.52,2.39,3.38,3.24,5.28.17.38.27.78.37,1.18.1.39-.07.74-.43.95-.97.58-2.01,1-3.07,1.35-1.07.36-2.16.58-3.28.74-.29.04-.58.05-.87.06-.37.01-.75,0-1.12,0-2.2.09-4.28-.42-6.31-1.21-.38-.15-.75-.35-1.18-.38-.11,0-.26.15-.23.24.02.08.03.17.06.24.1.18.2.36.31.54,1.15,1.78,2.31,3.55,3.46,5.32,1.17,1.81,2.33,3.63,3.49,5.45.11.17.23.35.35.52.27.38.64.53,1.08.46.66-.1,1.31-.2,1.96-.33,1.2-.23,2.4-.18,3.6-.08.78.06,1.56.25,2.33.41,2.4.51,4.51,1.62,6.5,3.03,2.2,1.56,4.41,4.72,5.31,6.94.61,1.51.97,3.08,1.13,4.7.03.33-.1.58-.41.69-.35.13-.7.26-1.06.35-.97.24-1.94.48-2.93.55-.17.01-.33.03-.49.07-.87.19-1.73.17-2.6,0-.69-.14-1.4-.21-2.09-.32-2.47-.41-4.65-1.46-6.68-2.91-2.04-1.45-3.57-3.33-4.81-5.47-.54-.94-.92-1.95-1.24-2.98-.27-.87-.49-1.76-.64-2.66-.09-.55-.29-1.03-.59-1.49-1.21-1.84-2.41-3.68-3.6-5.53-1.08-1.67-2.14-3.36-3.21-5.04-.04-.07-.09-.14-.13-.21-1.27-1.95-2.55-3.89-3.81-5.84-1.1-1.71-2.19-3.43-3.28-5.14-.07-.11-.14-.21-.2-.31-1.27-1.95-2.54-3.89-3.81-5.84-.25-.38-.54-.74-.64-1.2h2.24Zm23.27,30.14h0c-.46,0-.91.02-1.37,0-.76-.02-1.48.19-2.21.34-.45.09-.65.39-.55.81.16.68.33,1.37.55,2.04.32.99.82,1.89,1.37,2.78.86,1.39,1.95,2.57,3.2,3.62,1.45,1.21,3.09,2.08,4.87,2.69.94.32,1.91.61,2.9.66,1.16.05,2.32.02,3.48,0,.63,0,1.23-.18,1.82-.38.38-.13.58-.48.52-.89-.02-.16-.06-.33-.09-.49-.13-.7-.41-1.35-.67-2-.63-1.55-1.5-2.96-2.6-4.21-1.41-1.61-3.11-2.86-5.07-3.72-1.84-.81-3.74-1.37-5.78-1.26-.12,0-.25,0-.37,0ZM12.8,11.2c-.57-.08-1.22.14-1.88.19-1.13.09-2.2.41-3.26.78-.27.1-.54.21-.8.34-.44.21-.55.48-.36.9.22.49.47.97.7,1.46.89,1.89,2.3,3.34,3.87,4.66,1.15.97,2.48,1.67,3.88,2.21,1.28.49,2.58.93,3.98.92.95.21,1.89.13,2.84.02.7-.08,1.41-.12,2.09-.33.8-.24,1.58-.51,2.37-.77.12-.04.22-.11.33-.17.21-.12.35-.42.25-.64-.25-.57-.49-1.14-.78-1.69-.96-1.82-2.23-3.38-3.88-4.64-1.27-.97-2.66-1.69-4.13-2.28-1.48-.59-3.05-.77-4.62-.96-.16-.02-.33,0-.6,0Z"/></g></svg>