<?xml version="1.0" encoding="UTF-8"?><svg id="Layer_2" xmlns="http://www.w3.org/2000/svg" viewBox="0 0 376.96 90"><defs><style>.cls-1{fill:none;stroke:#fff;stroke-miterlimit:40;stroke-width:1.49px;}.cls-2{fill:#ee3124;fill-rule:evenodd;}.cls-2,.cls-3,.cls-4{stroke-width:0px;}.cls-3{fill:#fff;}.cls-4{fill:#ffc600;}</style></defs><g id="Layer_7"><path class="cls-3" d="m158.23,47.88c-1.05-.87-2.38-1.45-3.77-1.45-1.05,0-2.44.61-2.44,1.83s1.54,1.77,2.53,2.09l1.45.44c3.05.9,5.4,2.44,5.4,5.98,0,2.18-.52,4.41-2.26,5.89-1.71,1.45-4.01,2.06-6.21,2.06-2.76,0-5.46-.93-7.69-2.5l2.44-4.59c1.42,1.25,3.11,2.26,5.05,2.26,1.34,0,2.76-.67,2.76-2.21s-2.24-2.15-3.45-2.5c-3.57-1.02-5.92-1.94-5.92-6.18s3.17-7.35,7.55-7.35c2.21,0,4.91.7,6.85,1.8l-2.26,4.41Z"/><path class="cls-3" d="m169.12,40.04v11.09h.06c1.22-1.63,2.7-2.38,4.76-2.38,3.77,0,5.6,2.5,5.6,6.27v9.12h-5.28v-7.64c0-1.74-.26-3.54-2.38-3.54s-2.76,1.8-2.76,3.54v7.64h-5.28v-24.1h5.28Z"/><path class="cls-3" d="m198.18,57.58h-11.12c0,2.15,1.13,3.31,3.31,3.31,1.13,0,1.95-.38,2.53-1.36h5.08c-.84,3.51-4.18,5.11-7.58,5.11-4.94,0-8.62-2.79-8.62-7.93s3.4-7.96,8.25-7.96c5.17,0,8.16,3.19,8.16,8.27v.55Zm-4.91-3.05c-.26-1.42-1.57-2.35-2.99-2.35-1.54,0-2.82.81-3.14,2.35h6.13Z"/><path class="cls-3" d="m205.73,64.14h-5.28v-24.1h5.28v24.1Z"/><path class="cls-3" d="m214.36,64.14h-5.28v-24.1h5.28v24.1Z"/><path class="cls-3" d="m233.32,59.32h6.82v4.82h-12.51v-21.89h5.69v17.07Z"/><path class="cls-3" d="m246.94,49.25v7.96c0,1.89.46,3.22,2.64,3.22s2.64-1.34,2.64-3.22v-7.96h5.28v8.97c0,4.91-3.46,6.42-7.93,6.42s-7.93-1.51-7.93-6.42v-8.97h5.28Z"/><path class="cls-3" d="m260.56,40.04h5.28v10.66c1.13-1.31,2.9-1.95,4.62-1.95,4.41,0,7.46,3.66,7.46,7.93s-3.08,7.96-7.52,7.96c-1.74,0-3.54-.67-4.5-2.15h-.06v1.66h-5.28v-24.1Zm5.11,16.67c0,1.89,1.25,3.34,3.4,3.34s3.4-1.45,3.4-3.34-1.25-3.37-3.4-3.37-3.4,1.54-3.4,3.37Z"/><path class="cls-3" d="m285.67,51.69h.06c1.02-1.83,2.76-2.64,4.82-2.64h1.02v5.08c-.73-.41-1.42-.49-2.24-.49-2.93,0-3.66,1.95-3.66,4.5v6.01h-5.28v-14.89h5.28v2.44Z"/><path class="cls-3" d="m299,43.53c0,1.63-1.34,2.96-2.96,2.96s-2.96-1.34-2.96-2.96,1.34-2.96,2.96-2.96,2.96,1.34,2.96,2.96Zm-.32,20.61h-5.28v-14.89h5.28v14.89Z"/><path class="cls-3" d="m312.76,54.1c-.78-.58-1.71-1.05-2.73-1.05-2.03,0-3.63,1.57-3.63,3.63s1.54,3.66,3.72,3.66c.93,0,1.95-.38,2.64-1.02v4.47c-1.16.58-2.44.84-3.72.84-4.41,0-8.1-3.28-8.1-7.78,0-4.79,3.66-8.1,8.33-8.1,1.22,0,2.44.29,3.48.87v4.47Z"/><path class="cls-3" d="m332.19,64.14h-5.28v-1.66h-.06c-.93,1.48-2.76,2.15-4.5,2.15-4.41,0-7.52-3.69-7.52-7.96s3.05-7.93,7.46-7.93c1.71,0,3.51.64,4.62,1.95v-1.45h5.28v14.89Zm-11.9-7.43c0,1.89,1.25,3.34,3.4,3.34s3.4-1.45,3.4-3.34-1.25-3.37-3.4-3.37-3.4,1.54-3.4,3.37Z"/><path class="cls-3" d="m340.84,51.16h.06c1.22-1.8,2.7-2.41,4.76-2.41,4.01,0,5.6,2.53,5.6,6.18v9.2h-5.28v-7.26c0-1.42.23-3.92-2.38-3.92-2.15,0-2.76,1.6-2.76,3.46v7.72h-5.28v-14.89h5.28v1.92Z"/><path class="cls-3" d="m360.38,64.14h-5.28v-10.54h-1.71v-4.36h1.71v-4.47h5.28v4.47h2.99v4.36h-2.99v10.54Z"/><path class="cls-3" d="m374.76,53.08c-.81-.44-1.94-.73-2.85-.73-.61,0-1.65.26-1.65,1.02,0,1.02,1.65,1.16,2.38,1.31,2.47.49,4.33,1.66,4.33,4.41,0,3.92-3.57,5.55-7.03,5.55-2.12,0-4.21-.61-6.01-1.71l1.92-3.69c1.07.76,2.87,1.51,4.18,1.51.67,0,1.65-.32,1.65-1.13,0-1.16-1.65-1.22-3.31-1.66-1.65-.44-3.31-1.25-3.31-3.92,0-3.66,3.31-5.28,6.56-5.28,1.68,0,3.37.26,4.91.96l-1.77,3.37Z"/><path class="cls-3" d="m48.33,0C21.68,0,0,21.68,0,48.33c0,3.24.33,6.49.98,9.67l.3,1.48,13.54,9.85,2.31,18.45h24.72l.27.2c1.82,1.32,3.96,2.02,6.21,2.02s4.4-.7,6.21-2.02l.28-.2h24.72l2.31-18.45,13.54-9.85.3-1.48c.65-3.18.97-6.43.97-9.66C96.67,21.68,74.99,0,48.33,0Zm43.55,57.22l-13.68,9.95-2.09,16.72h-22.55l-1.3.95c-1.14.83-2.51,1.28-3.92,1.28s-2.78-.45-3.92-1.28l-1.3-.95h-22.56l-2.09-16.72-13.68-9.95c-.6-2.93-.9-5.9-.9-8.89C3.89,23.8,23.8,3.89,48.33,3.89s44.45,19.91,44.45,44.44c0,2.99-.3,5.96-.9,8.89Z"/><path class="cls-1" d="m43.11,83.89h-22.56l-2.09-16.72-13.68-9.95c-.6-2.93-.9-5.9-.9-8.89C3.89,23.8,23.8,3.89,48.33,3.89s44.44,19.91,44.44,44.45c0,2.99-.3,5.96-.9,8.89l-13.68,9.95-2.09,16.72h-22.55l-1.3.95c-1.14.83-2.51,1.28-3.92,1.28s-2.78-.45-3.92-1.28l-1.3-.95Z"/><path class="cls-4" d="m43.11,83.89h-22.56l-2.09-16.72-13.68-9.95c-.6-2.93-.9-5.9-.9-8.89C3.89,23.8,23.8,3.89,48.33,3.89s44.44,19.91,44.44,44.45c0,2.99-.3,5.96-.9,8.89l-13.68,9.95-2.09,16.72h-22.55l-1.3.95c-1.14.83-2.51,1.28-3.92,1.28s-2.78-.45-3.92-1.28l-1.3-.95Z"/><path class="cls-2" d="m43.11,83.89h-22.56l-2.09-16.72-13.68-9.95c-.6-2.93-.9-5.9-.9-8.89C3.89,23.8,23.8,3.89,48.33,3.89s44.44,19.91,44.44,44.45c0,2.99-.3,5.96-.9,8.89l-13.68,9.95-2.09,16.72h-22.55l-1.3.95c-1.14.83-2.51,1.28-3.92,1.28s-2.78-.45-3.92-1.28l-1.3-.95Zm.71-7.78h-16.39l-1.66-13.25-13.5-9.82c-.4-1.54-.6-3.12-.6-4.71,0-2.65.56-5.28,1.64-7.7l23.91,24.17-23.24-28.69c.92-3.72,2.94-7.08,5.8-9.62l20.84,35.96L22.15,23.08c2.39-3.18,5.72-5.52,9.52-6.7l12.74,44.64-9.31-46.48c2.83-1.6,6.03-2.44,9.28-2.44.69,0,1.38.04,2.06.11l1.9,48.33,1.9-48.33c.68-.07,1.37-.11,2.06-.11,3.25,0,6.45.84,9.28,2.44l-9.31,46.48,12.74-44.64c3.8,1.17,7.13,3.52,9.52,6.7l-18.46,39.37,20.84-35.96c2.87,2.54,4.89,5.9,5.81,9.62l-23.24,28.69,23.91-24.17c1.08,2.42,1.64,5.05,1.64,7.7,0,1.59-.2,3.17-.6,4.71l-13.5,9.82-1.66,13.25h-16.4l-2.43,1.76c-.61.44-1.34.68-2.09.68s-1.48-.24-2.09-.68l-2.43-1.76Z"/></g></svg>