<?xml version="1.0" encoding="UTF-8"?><svg xmlns="http://www.w3.org/2000/svg" viewBox="0 0 455.89 470.54"><defs><style>.d{opacity:.3;}.d,.e,.f,.g,.h,.i,.j{fill:none;stroke:#57a57b;stroke-miterlimit:10;}.e{opacity:.5;}.f{opacity:.4;}.g{opacity:.7;}.h{opacity:.9;}.i{opacity:.8;}.j{opacity:.6;}</style></defs><g id="a"/><g id="b"><g id="c"><g><polyline class="e" points="67.77 .27 219.6 235.28 67.76 470.27"/><polyline class="j" points="101.44 .27 253.27 235.28 101.43 470.27"/><polyline class="g" points="135.11 .27 286.94 235.28 135.1 470.27"/><polyline class="i" points="168.78 .27 320.61 235.28 168.77 470.27"/><polyline class="h" points="202.45 .27 354.28 235.28 202.44 470.27"/><polyline class="h" points="236.12 .27 387.95 235.28 236.11 470.27"/><polyline class="h" points="269.79 .27 421.62 235.28 269.78 470.27"/><polyline class="h" points="303.46 .27 455.29 235.28 303.45 470.27"/><polyline class="d" points=".43 .27 152.26 235.28 .42 470.27"/><polyline class="f" points="34.1 .27 185.93 235.28 34.09 470.27"/></g></g></g></svg>