<?xml version="1.0" encoding="UTF-8"?><svg xmlns="http://www.w3.org/2000/svg" viewBox="0 0 455.89 470.54"><defs><style>.d{opacity:.3;}.d,.e,.f,.g,.h,.i,.j{fill:none;stroke:#000000;stroke-miterlimit:10;}.e{opacity:.5;}.f{opacity:.4;}.g{opacity:.7;}.h{opacity:.9;}.i{opacity:.8;}.j{opacity:.6;}</style></defs><g id="a"/><g id="b"><g id="c"><g><polyline class="e" points="388.12 .27 236.29 235.28 388.13 470.27"/><polyline class="j" points="354.45 .27 202.62 235.28 354.46 470.27"/><polyline class="g" points="320.78 .27 168.95 235.28 320.79 470.27"/><polyline class="i" points="287.11 .27 135.28 235.28 287.12 470.27"/><polyline class="h" points="253.44 .27 101.61 235.28 253.45 470.27"/><polyline class="h" points="219.77 .27 67.94 235.28 219.78 470.27"/><polyline class="h" points="186.1 .27 34.27 235.28 186.11 470.27"/><polyline class="h" points="152.43 .27 .6 235.28 152.44 470.27"/><polyline class="d" points="455.46 .27 303.63 235.28 455.47 470.27"/><polyline class="f" points="421.79 .27 269.96 235.28 421.8 470.27"/></g></g></g></svg>