<?xml version="1.0" encoding="UTF-8"?>
<svg xmlns="http://www.w3.org/2000/svg" xmlns:xlink="http://www.w3.org/1999/xlink" viewBox="0 0 150 150">
  <defs>
    <style>
      .cls-1 {
        opacity: .1;
      }

      .cls-2 {
        mask: url(#mask);
      }

      .cls-3 {
        fill: url(#linear-gradient);
      }

      .cls-3, .cls-4, .cls-5, .cls-6, .cls-7 {
        stroke-width: 0px;
      }

      .cls-4 {
        fill: #427d5e;
      }

      .cls-5 {
        fill: #3c7054;
      }

      .cls-6 {
        fill: #55a078;
      }

      .cls-8 {
        mix-blend-mode: overlay;
      }

      .cls-7 {
        fill: #3e7457;
      }

      .cls-9 {
        isolation: isolate;
      }

      .cls-10 {
        mask: url(#mask-1);
      }
    </style>
    <linearGradient id="linear-gradient" x1="764.98" y1="163.05" x2="764.98" y2="-11.6" gradientUnits="userSpaceOnUse">
      <stop offset="0" stop-color="#fff"/>
      <stop offset=".48" stop-color="#f9f9f9"/>
      <stop offset="1" stop-color="#000"/>
    </linearGradient>
    <mask id="mask" x="-32.01" y="-11.6" width="1593.98" height="174.65" maskUnits="userSpaceOnUse">
      <rect class="cls-3" x="-32.01" y="-11.6" width="1593.98" height="174.65"/>
    </mask>
    <mask id="mask-1" x="-32.01" y="-11.6" width="1593.98" height="174.65" maskUnits="userSpaceOnUse">
      <rect class="cls-3" x="-32.01" y="-11.6" width="1593.98" height="174.65"/>
    </mask>
  </defs>
  <g class="cls-9">
    <g id="CONTENT">
      <g class="cls-2">
        <g>
          <g class="cls-1">
            <g class="cls-9">
              <polygon class="cls-6" points="92.59 41.69 92.54 57.99 22.43 68.31 22.48 52.01 92.59 41.69"/>
              <polygon class="cls-7" points="145.16 72.04 145.11 88.34 92.54 57.99 92.59 41.69 145.16 72.04"/>
              <polygon class="cls-4" points="22.48 52.01 22.43 68.31 4.85 108.96 4.9 92.65 22.48 52.01"/>
              <polygon class="cls-4" points="146.26 71.86 146.22 88.17 128.36 129.47 128.41 113.16 146.26 71.86"/>
              <path class="cls-5" d="M146.26,71.86l-17.85,41.3-71.26,10.48L3.78,92.83l17.87-41.31,71.24-10.48,53.37,30.81ZM57.46,123l70.12-10.31,17.57-40.65-52.56-30.35-70.11,10.31L4.9,92.65l52.56,30.35"/>
              <polygon class="cls-6" points="128.41 113.16 128.36 129.47 57.11 139.95 57.15 123.65 128.41 113.16"/>
              <polygon class="cls-7" points="57.15 123.65 57.11 139.95 3.74 109.14 3.78 92.83 57.15 123.65"/>
            </g>
          </g>
          <g class="cls-9">
            <polygon class="cls-6" points="92.59 24.69 92.54 40.99 22.43 51.31 22.48 35.01 92.59 24.69"/>
            <polygon class="cls-7" points="145.16 55.04 145.11 71.34 92.54 40.99 92.59 24.69 145.16 55.04"/>
            <polygon class="cls-4" points="22.48 35.01 22.43 51.31 4.84 91.96 4.89 75.66 22.48 35.01"/>
            <polygon class="cls-4" points="146.26 54.86 146.22 71.17 128.36 112.47 128.41 96.16 146.26 54.86"/>
            <path class="cls-5" d="M146.26,54.86l-17.85,41.3-71.26,10.48L3.78,75.83l17.87-41.31,71.24-10.48,53.37,30.81ZM57.46,106.01l70.13-10.32,17.57-40.65-52.56-30.35-70.11,10.31L4.89,75.66l52.56,30.35"/>
            <polygon class="cls-6" points="128.41 96.16 128.36 112.47 57.11 122.95 57.15 106.65 128.41 96.16"/>
            <polygon class="cls-7" points="57.15 106.65 57.11 122.95 3.74 92.14 3.78 75.83 57.15 106.65"/>
          </g>
        </g>
      </g>
      <g class="cls-10">
        <g class="cls-8">
          <g>
            <g class="cls-1">
              <g class="cls-9">
                <polygon class="cls-6" points="92.59 41.69 92.54 57.99 22.43 68.31 22.48 52.01 92.59 41.69"/>
                <polygon class="cls-7" points="145.16 72.04 145.11 88.34 92.54 57.99 92.59 41.69 145.16 72.04"/>
                <polygon class="cls-4" points="22.48 52.01 22.43 68.31 4.85 108.96 4.9 92.65 22.48 52.01"/>
                <polygon class="cls-4" points="146.26 71.86 146.22 88.17 128.36 129.47 128.41 113.16 146.26 71.86"/>
                <path class="cls-5" d="M146.26,71.86l-17.85,41.3-71.26,10.48L3.78,92.83l17.87-41.31,71.24-10.48,53.37,30.81ZM57.46,123l70.12-10.31,17.57-40.65-52.56-30.35-70.11,10.31L4.9,92.65l52.56,30.35"/>
                <polygon class="cls-6" points="128.41 113.16 128.36 129.47 57.11 139.95 57.15 123.65 128.41 113.16"/>
                <polygon class="cls-7" points="57.15 123.65 57.11 139.95 3.74 109.14 3.78 92.83 57.15 123.65"/>
              </g>
            </g>
            <g class="cls-9">
              <polygon class="cls-6" points="92.59 24.69 92.54 40.99 22.43 51.31 22.48 35.01 92.59 24.69"/>
              <polygon class="cls-7" points="145.16 55.04 145.11 71.34 92.54 40.99 92.59 24.69 145.16 55.04"/>
              <polygon class="cls-4" points="22.48 35.01 22.43 51.31 4.84 91.96 4.89 75.66 22.48 35.01"/>
              <polygon class="cls-4" points="146.26 54.86 146.22 71.17 128.36 112.47 128.41 96.16 146.26 54.86"/>
              <path class="cls-5" d="M146.26,54.86l-17.85,41.3-71.26,10.48L3.78,75.83l17.87-41.31,71.24-10.48,53.37,30.81ZM57.46,106.01l70.13-10.32,17.57-40.65-52.56-30.35-70.11,10.31L4.89,75.66l52.56,30.35"/>
              <polygon class="cls-6" points="128.41 96.16 128.36 112.47 57.11 122.95 57.15 106.65 128.41 96.16"/>
              <polygon class="cls-7" points="57.15 106.65 57.11 122.95 3.74 92.14 3.78 75.83 57.15 106.65"/>
            </g>
          </g>
        </g>
      </g>
    </g>
  </g>
</svg>