<?xml version="1.0" encoding="UTF-8"?>
<svg id="Layer_2" data-name="Layer 2" xmlns="http://www.w3.org/2000/svg" viewBox="0 0 269.63 286.11">
  <defs>
    <style>
      .cls-1 {
        letter-spacing: -.05em;
      }

      .cls-1, .cls-2 {
        font-family: TWKEverett-Regular, 'TWK Everett';
      }

      .cls-3 {
        stroke-width: 0px;
      }

      .cls-3, .cls-2, .cls-4 {
        fill: #333;
      }

      .cls-2 {
        font-size: 30px;
      }

      .cls-5 {
        fill: none;
        stroke: #f1f1f1;
        stroke-miterlimit: 10;
        stroke-width: 19.26px;
      }

      .cls-6 {
        letter-spacing: -.06em;
      }

      .cls-7 {
        letter-spacing: -.05em;
      }

      .cls-4 {
        font-size: 76px;
      }

      .cls-8 {
        font-family: TWKEverett-Bold, 'TWK Everett';
        font-weight: 700;
        letter-spacing: -.05em;
      }
    </style>
  </defs>
  <g id="nav">
    <path class="cls-5" d="M134.63,276.11c-34.52,0-65.77-13.99-88.39-36.61"/>
    <path class="cls-5" d="M134.63,26.11c34.52,0,65.77,13.99,88.39,36.61"/>
    <path class="cls-5" d="M223.02,239.49c-22.62,22.62-53.87,36.61-88.39,36.61"/>
    <path class="cls-5" d="M46.24,62.72c22.62-22.62,53.87-36.61,88.39-36.61"/>
    <path class="cls-5" d="M259.63,151.11c0,34.52-13.99,65.77-36.61,88.39"/>
    <path class="cls-5" d="M46.24,239.49c-22.62-22.62-36.61-53.87-36.61-88.39"/>
    <path class="cls-5" d="M223.02,62.72c22.62,22.62,36.61,53.87,36.61,88.39"/>
    <path class="cls-5" d="M9.63,151.11c0-34.52,13.99-65.77,36.61-88.39"/>
    <path class="cls-3" d="M134.63,286.11c-19.39,0-38.62-4.22-56.22-12.26-5.29-2.42-7.36-8.87-4.52-13.95h0c2.52-4.52,8.1-6.41,12.8-4.25,15,6.87,31.4,10.47,47.93,10.47,30.49,0,59.31-12.02,81.14-33.86s33.86-50.65,33.86-81.14-12.02-59.31-33.86-81.14-50.65-33.86-81.14-33.86v-20c35.84,0,69.68,14.1,95.29,39.71,25.61,25.61,39.71,59.45,39.71,95.29s-14.1,69.68-39.71,95.29c-25.61,25.61-59.45,39.71-95.29,39.71Z"/>
    <text class="cls-4" transform="translate(50.55 167.67)"><tspan class="cls-8" x="0" y="0">4</tspan><tspan class="cls-1" x="49.32" y="0">:</tspan><tspan class="cls-8" x="66.04" y="0">58</tspan></text>
    <text class="cls-2" transform="translate(83.38 206.67)"><tspan class="cls-7" x="0" y="0">H</tspan><tspan class="cls-6" x="22.2" y="0">R</tspan><tspan class="cls-7" x="41.85" y="0" xml:space="preserve">S   M</tspan></text>
    <path class="cls-3" d="M103.86,3.62c3.14,0,5.69,2.63,5.69,5.87s-2.55,5.87-5.69,5.87-5.69-2.63-5.69-5.87,2.55-5.87,5.69-5.87M96.89,13.78c1.01,0,1.93.42,2.59,1.09l8.81,9.09,7.3-7.52c.52-.45,1.18-.72,1.9-.72,1.64,0,2.96,1.37,2.96,3.06,0,.73-.25,1.4-.67,1.93l-8.81,9.15c-.99,1.02-1.91,1.34-2.68,1.34-1.3,0-2.15-.93-2.15-.93l-5.4-5.61-8.45,10.08,7.74,7.98s1.63,1.56.71,4.67l-4.34,19.95c-.35,1.73-1.83,3.03-3.61,3.03-2.03,0-3.68-1.7-3.68-3.8,0-.33.04-.65.12-.96l3.56-16.35-8.79-8.82-7.56,8.7s-1.13,1.45-4.12,1.45c-.11,0-.23,0-.35,0l-15.33.02s-.04,0-.06,0c-1.69,0-3.21-1.2-3.6-2.97-.45-2.05.77-4.05,2.76-4.51.28-.06.55-.09.82-.09.04,0,.07,0,.11,0l13.19.04,19.5-23.32-5.1-.03-8.85,10.56c-.53.66-1.32,1.08-2.21,1.08-1.58,0-2.87-1.33-2.87-2.96,0-.88.38-1.67.97-2.21l9.54-11.34c.53-.66,1.32-1.08,2.21-1.08h13.82M103.86,0c-5.13,0-9.31,4.26-9.31,9.5,0,.22,0,.44.02.66h-11.51c-1.94,0-3.76.87-5.01,2.39l-9.4,11.16c-1.24,1.24-1.95,2.93-1.95,4.69,0,3.21,2.29,5.9,5.29,6.47l-3.83,4.58-11.44-.03c-.05,0-.11,0-.16,0-.52,0-1.06.06-1.59.17h-.03s-.03.01-.03.01c-3.88.9-6.34,4.85-5.48,8.81.73,3.37,3.73,5.82,7.14,5.82h.07s0,0,0,0l15.27-.02c.14,0,.27,0,.41,0,4.17,0,6.26-2.01,6.85-2.69h0s5.01-5.76,5.01-5.76l4.65,4.66-3.14,14.38c-.14.58-.21,1.17-.21,1.77,0,4.09,3.28,7.42,7.3,7.42,3.45,0,6.45-2.48,7.15-5.91l4.31-19.8c1.05-3.74-.21-6.68-1.65-8.11l-5.43-5.6,3.76-4.49,2.6,2.7c.43.45,2.14,2.04,4.76,2.04,1.32,0,3.32-.42,5.28-2.44l8.82-9.16.12-.13.11-.14c.93-1.18,1.44-2.67,1.44-4.17,0-3.68-2.95-6.68-6.58-6.68-1.57,0-3.09.57-4.28,1.61l-.11.1-.11.11-4.7,4.84-.59-.61c3.22-1.49,5.47-4.81,5.47-8.65,0-5.24-4.18-9.5-9.32-9.5h0Z"/>
  </g>
</svg>