<?xml version="1.0" encoding="UTF-8"?>
<svg id="Layer_2" data-name="Layer 2" xmlns="http://www.w3.org/2000/svg" viewBox="0 0 259.2 281.1">
  <defs>
    <style>
      .cls-1, .cls-2 {
        font-family: TWKEverett-Regular, 'TWK Everett';
      }

      .cls-1, .cls-3 {
        letter-spacing: -.05em;
      }

      .cls-2 {
        font-size: 30px;
        letter-spacing: -.05em;
      }

      .cls-2, .cls-4, .cls-5 {
        fill: #57a47b;
      }

      .cls-4 {
        stroke-width: 0px;
      }

      .cls-6, .cls-7 {
        stroke-miterlimit: 10;
      }

      .cls-6, .cls-7, .cls-8 {
        fill: none;
      }

      .cls-6, .cls-8 {
        stroke: #57a47b;
        stroke-width: 3.9px;
      }

      .cls-7 {
        stroke: #f1f1f1;
        stroke-width: 19.2px;
      }

      .cls-9 {
        letter-spacing: -.05em;
      }

      .cls-9, .cls-3 {
        font-family: TWKEverett-Bold, 'TWK Everett';
        font-weight: 700;
      }

      .cls-5 {
        font-size: 76px;
      }

      .cls-8 {
        stroke-linecap: round;
        stroke-linejoin: round;
      }
    </style>
  </defs>
  <g id="nav">
    <path class="cls-7" d="M129.6,271.5c-33.14,0-63.14-13.43-84.85-35.15"/>
    <path class="cls-7" d="M129.6,31.5c33.14,0,63.14,13.43,84.85,35.15"/>
    <path class="cls-7" d="M214.45,236.36c-21.72,21.72-51.72,35.15-84.85,35.15"/>
    <path class="cls-7" d="M44.75,66.65c21.72-21.72,51.72-35.15,84.85-35.15"/>
    <path class="cls-7" d="M249.6,151.5c0,33.14-13.43,63.14-35.15,84.85"/>
    <path class="cls-7" d="M44.75,236.36c-21.72-21.72-35.15-51.72-35.15-84.85"/>
    <path class="cls-7" d="M214.45,66.65c21.72,21.72,35.15,51.72,35.15,84.85"/>
    <path class="cls-7" d="M9.6,151.5c0-33.14,13.43-63.14,35.15-84.85"/>
    <path class="cls-4" d="M201.21,67.47c-19.96-17.06-45.07-26.37-71.61-26.37v-19.2c31.15,0,60.62,10.92,84.05,30.94,4.25,3.63,4.48,10.13.53,14.08h0c-3.52,3.52-9.18,3.79-12.97.55Z"/>
    <text class="cls-5" transform="translate(55.03 167.68)"><tspan class="cls-9" x="0" y="0">1</tspan><tspan class="cls-1" x="28.04" y="0">:</tspan><tspan class="cls-3" x="44.76" y="0">00</tspan></text>
    <text class="cls-2" transform="translate(108.92 206.68)"><tspan x="0" y="0">HR</tspan></text>
    <g>
      <path class="cls-6" d="M83.69,35.48h-2.72c-3.16,0-5.72-2.56-5.72-5.72v-14.29c0-3.16,2.56-5.72,5.72-5.72h1.36V2.81c0-.47.38-.86.86-.86h5.79c.47,0,.86.38.86.86v6.94h10.52V2.81c0-.47.38-.86.86-.86h5.79c.47,0,.86.38.86.86v6.94h1.51c3.16,0,5.72,2.56,5.72,5.72v14.29c0,3.16-2.56,5.72-5.72,5.72h-3.51"/>
      <polygon class="cls-8" points="105.87 44.46 95.82 44.46 99.1 24.87 80.54 53.84 93.2 53.84 90.63 73.57 105.87 44.46"/>
    </g>
  </g>
</svg>