<?xml version="1.0" encoding="UTF-8"?>
<svg id="Layer_2" data-name="Layer 2" xmlns="http://www.w3.org/2000/svg" viewBox="0 0 200 168">
  <defs>
    <style>
      .cls-1 {
        fill: #57a47b;
        stroke-width: 0px;
      }

      .cls-2 {
        fill: none;
        stroke: #fff;
        stroke-miterlimit: 10;
        stroke-width: 5px;
      }
    </style>
  </defs>
  <g id="CONTENT">
    <polygon class="cls-1" points="0 83.99 50 168 150 168 200 83.99 150 0 50 0 0 83.99"/>
    <rect class="cls-2" x="45.96" y="33.93" width="24.33" height="24.33" rx="12.17" ry="12.17" transform="translate(-15.97 42.6) rotate(-35.71)"/>
    <path class="cls-2" d="M151.6,108.43l-20.63-20.27c-2.34-2.82-6-4.47-9.89-4.08l-26.05,2.61-12.97-17.95c-3.65-5.08-10.8-6.25-15.88-2.6h0c-5.08,3.65-6.25,10.8-2.6,15.88l16.83,23.32c.09.12.18.23.27.34.09.11.17.22.26.32.2.24.41.47.63.69.01.01.03.03.04.04,2.61,2.61,6.3,3.73,9.84,3.17l26.48-2.65,17.69,17.38c4.46,4.39,11.7,4.33,16.09-.13,4.39-4.46,4.33-11.7-.13-16.09Z"/>
  </g>
</svg>