<?xml version="1.0" encoding="UTF-8"?>
<svg id="Layer_2" data-name="Layer 2" xmlns="http://www.w3.org/2000/svg" viewBox="0 0 200 168">
  <defs>
    <style>
      .cls-1 {
        fill: #57a47b;
        stroke-width: 0px;
      }

      .cls-2 {
        fill: #fff;
        stroke: #fff;
        stroke-miterlimit: 10;
      }
    </style>
  </defs>
  <g id="CONTENT">
    <polygon class="cls-1" points="0 83.99 50 168 150 168 200 83.99 150 0 50 0 0 83.99"/>
    <g>
      <path class="cls-2" d="M55.35,140.02c6.23-4.66,12.5-9.27,18.96-13.61,1.28-.86,3.62-1.09,5.11-.57,6.13,2.15,12.13,4.66,18.14,7.13,7.22,2.97,14.18.66,21.55-4.98,4.44-3.4,13.45-10.07,17.74-13.66,5.84-4.88,6.96-6.1,6.21-10.35-2.66-14.93-5.16-29.89-7.78-44.82-.57-3.26-1.33-6.49-2.1-9.72-1.55-6.51-5.08-11.62-10.85-15.11-4.82-2.91-9.69-4.23-15.16-1.41-3.15,1.62-6.6,2.7-9.97,3.87-3.02,1.05-4.28,2.96-3.63,6.75.42,2.47.32,5-.05,7.48-.5,3.36.57,5.19,3.25,6.49,11.45,5.54,8.25,5.62,17.5-1.66,2.2-1.74,4.29-3.63,6.59-5.23.33-.23.76-.32,1.23-.37.95-.09,1.72.74,1.6,1.68-.07.52-.18.96-.45,1.1-4.6,2.45-3.75,6.35-4.01,10.65-.49,8.19-2.26,16.32-3.8,24.41-.39,2.06-1,3.5,1.36,4.71.33.17.53.6.69,1.11.3.98-.44,1.98-1.47,1.95-.37-.01-.73-.06-1.04-.21-1.61-.73-3.06-1.83-4.55-2.81-9.45-6.22-19.06-6.35-28.55-1.04l.16,1.53c.15,1.43-1.17,2.59-2.57,2.25-.2-.05-.39-.11-.58-.19-1.4-.57-2.74-1.4-3.95-2.32-5.27-4.02-11.07-5.94-17.79-5.19l-.13-3.47c6.35-.68,12.48-.15,17.57,4.32,2.12,1.86,3.97.7,5.91-.32,10.15-5.33,20.25-5.41,30.7.6,3.69-9.31,5.34-18.73,4.33-29.14-1.09.68-1.9,1.01-2.46,1.58-4.08,4.18-8.47,4.73-13.39,1.47-1.62-1.07-3.49-1.79-5.26-2.64-2.87-1.38-4.64-4.32-4.61-7.5.03-3.79.04-7.57,0-11.36-.03-3.32,1.99-6.32,5.08-7.54,5.07-2.01,10.15-4.01,15.3-5.8,1.54-.53,3.2-.66,4.79-.32,10.69,2.24,18.73,8.4,21,19.03,4.27,20.05,7.42,40.34,10.78,60.57.25,1.53-.99,3.96-2.3,4.99-9.33,7.32-18.84,14.42-28.34,21.53-5.87,4.39-12.28,5.3-19.14,2.6-5.1-2.01-10.28-3.83-15.26-6.1-3.24-1.48-5.66-1.39-8.56.97-5.04,4.1-10.44,7.76-15.82,11.41l-1.97-2.76Z"/>
      <path class="cls-2" d="M83.55,117.88c-.13-.05-.23-.17-.31-.32-.54-.99.07-2.21,1.15-2.53.32-.1.62-.13.88-.05,3.01.99,6.03,2.07,8.87,3.46,7.74,3.78,14.68,2.85,21.19-2.82,1.4-1.22,5.05-2.37,5.18-2.15,1.78,3.17-1.58,3.66-3.12,4.86-4.84,3.78-9.02,6.56-14.45,5.95-5.07-.57-19.4-6.4-19.4-6.4Z"/>
    </g>
  </g>
</svg>