<?xml version="1.0" encoding="UTF-8"?>
<svg id="Layer_2" data-name="Layer 2" xmlns="http://www.w3.org/2000/svg" viewBox="0 0 200 168">
  <defs>
    <style>
      .cls-1 {
        fill: #57a47b;
        stroke-width: 0px;
      }

      .cls-2 {
        stroke-linecap: round;
        stroke-width: 5px;
      }

      .cls-2, .cls-3 {
        fill: none;
        stroke: #fff;
        stroke-miterlimit: 10;
      }

      .cls-3 {
        stroke-width: 3px;
      }
    </style>
  </defs>
  <g id="CONTENT">
    <polygon class="cls-1" points="0 83.99 50 168 150 168 200 83.99 150 0 50 0 0 83.99"/>
    <g>
      <path class="cls-2" d="M148.91,70.13c7.58,8.86,12.75,19.85,14.47,31.93.67,4.72-2.96,8.96-7.73,8.96h-.49c-3.92,0-7.18-2.92-7.75-6.8-1.11-7.61-4.05-14.63-8.36-20.6"/>
      <path class="cls-2" d="M117.1,66.97c-5.02-1.84-10.43-2.84-16.08-2.84-23.55,0-43.09,17.45-46.4,40.09-.57,3.88-3.83,6.8-7.75,6.8h-.49c-4.77,0-8.41-4.23-7.73-8.96,4.36-30.51,30.67-54.04,62.37-54.04,10.69,0,20.78,2.68,29.61,7.4"/>
    </g>
    <path class="cls-3" d="M149.73,51.68l-54.45,43.15c-4.25,3.37-4.62,9.69-.78,13.53h0c3.84,3.84,10.16,3.47,13.53-.78l43.15-54.45c.76-.96-.49-2.21-1.45-1.45Z"/>
  </g>
</svg>