<?xml version="1.0" encoding="UTF-8"?>
<svg id="Layer_2" data-name="Layer 2" xmlns="http://www.w3.org/2000/svg" viewBox="0 0 200 168">
  <defs>
    <style>
      .cls-1 {
        fill: #57a47b;
      }

      .cls-1, .cls-2 {
        stroke-width: 0px;
      }

      .cls-3 {
        fill: none;
        stroke: #fff;
        stroke-linecap: round;
        stroke-miterlimit: 10;
        stroke-width: 5px;
      }

      .cls-2 {
        fill: #fff;
      }
    </style>
  </defs>
  <g id="CONTENT">
    <polygon class="cls-1" points="0 83.99 50 168 150 168 200 83.99 150 0 50 0 0 83.99"/>
    <g>
      <path class="cls-3" d="M109.92,64.68c-2.38-.37-4.83-.57-7.31-.57-23.63,0-43.25,17.51-46.57,40.24-.57,3.9-3.84,6.82-7.78,6.82h-.49c-4.79,0-8.44-4.25-7.76-8.99,4.38-30.62,30.78-54.24,62.59-54.24,8.63,0,16.86,1.74,24.36,4.88"/>
      <path class="cls-3" d="M147.4,66.59c9.39,9.43,15.82,21.8,17.8,35.59.68,4.74-2.98,8.99-7.76,8.99h-.49c-3.94,0-7.21-2.93-7.78-6.82-.63-4.31-1.84-8.44-3.56-12.29"/>
    </g>
    <path class="cls-2" d="M151.02,48.83l-54.56,33.04c-.31.19-.21.65.15.7l21.52,2.95-29.65,25c-.72.63.07,1.77.91,1.31l55.38-29.95c.21-.11.16-.43-.08-.47l-22.09-3.89,28.97-28.01c.36-.37-.1-.95-.54-.68Z"/>
  </g>
</svg>