<?xml version="1.0" encoding="UTF-8"?>
<svg id="Layer_2" data-name="Layer 2" xmlns="http://www.w3.org/2000/svg" viewBox="0 0 200 168">
  <defs>
    <style>
      .cls-1 {
        fill: #57a47b;
        stroke-width: 0px;
      }

      .cls-2 {
        fill: none;
        stroke: #fff;
        stroke-miterlimit: 10;
        stroke-width: 5px;
      }
    </style>
  </defs>
  <g id="CONTENT">
    <polygon class="cls-1" points="0 83.99 50 168 150 168 200 83.99 150 0 50 0 0 83.99"/>
    <g>
      <path class="cls-2" d="M55.56,72.75h62.39v16.07c0,13.68-11.1,24.78-24.78,24.78h-12.83c-13.68,0-24.78-11.1-24.78-24.78v-16.07h0Z" transform="translate(91.3 -34.06) rotate(45)"/>
      <rect class="cls-2" x="67.54" y="65.18" width="78.55" height="15.88" transform="translate(82.99 -54.12) rotate(45)"/>
      <path class="cls-2" d="M112.37,26.55h0c3.76,0,6.82,3.05,6.82,6.82v27.06h-13.64v-27.06c0-3.76,3.05-6.82,6.82-6.82Z" transform="translate(63.67 -66.72) rotate(45)"/>
      <path class="cls-2" d="M136.44,50.63h0c3.76,0,6.82,3.05,6.82,6.82v27.06h-13.64v-27.06c0-3.76,3.05-6.82,6.82-6.82Z" transform="translate(87.74 -76.69) rotate(45)"/>
      <path class="cls-2" d="M72.97,108.36c-8.66,5.02-11.44,16.4-10.61,26.37.41,4.99,1.5,9.89,2.54,14.79"/>
    </g>
  </g>
</svg>