<?xml version="1.0" encoding="UTF-8"?>
<svg id="Layer_2" data-name="Layer 2" xmlns="http://www.w3.org/2000/svg" viewBox="0 0 57.44 60">
  <defs>
    <style>
      .cls-1 {
        fill: #fff;
        stroke-width: 0px;
      }
    </style>
  </defs>
  <g id="CONTENT">
    <g>
      <path class="cls-1" d="M57.44,56.94s-.05.09-.06.13c-.19.79-.67,1.32-1.45,1.55-.78.22-1.47.02-2.05-.55-.93-.92-1.85-1.85-2.77-2.77C34.31,38.5,17.52,21.71.73,4.92-.1,4.09-.23,3.01.38,2.15c.75-1.05,2.21-1.17,3.16-.25,1.03,1.01,2.04,2.03,3.05,3.05,16.68,16.68,33.37,33.37,50.06,50.05.4.4.66.84.79,1.38v.55Z"/>
      <path class="cls-1" d="M44.7,60c-.63-.16-1.12-.56-1.63-.93-6.77-5.01-13.53-10.01-20.3-15.02-.21-.15-.41-.22-.67-.22-3.23,0-6.45,0-9.68,0-1.18,0-2.09-.72-2.35-1.84-.05-.24-.07-.49-.07-.73,0-7.52,0-15.05,0-22.57,0-.13.01-.25.02-.38.03-.02.07-.04.1-.07.05.08.08.17.14.23,1.41,1.46,2.82,2.92,4.23,4.39.11.12.18.32.18.48,0,5.1,0,10.21,0,15.31,0,.12,0,.24,0,.4h.38c2.64,0,5.29-.01,7.93,0,.64,0,1.27.2,1.78.58,5.96,4.39,11.91,8.77,17.84,13.2,1.42,1.06,2.71,2.3,4.05,3.45.05.04.09.09.14.12.74.39.71,1.05.56,1.72-.22.95-.82,1.55-1.76,1.8-.06.02-.11.04-.17.06h-.73Z"/>
      <path class="cls-1" d="M47.32,40.49c-.06-.09-.11-.2-.18-.28-1.39-1.44-2.77-2.88-4.17-4.32-.16-.17-.23-.33-.23-.56,0-9.28,0-18.55,0-27.83,0-.12,0-.24,0-.44-5.39,3.99-10.74,7.94-16.11,11.91-1.11-1.14-2.21-2.28-3.32-3.43.73-.54,1.44-1.07,2.15-1.6,6.04-4.46,12.08-8.92,18.1-13.4,1.42-1.06,3.07-.42,3.6.78.17.39.25.85.25,1.27.02,3.42.01,6.84.01,10.26,0,9.06,0,18.13,0,27.19v.39s-.07.05-.11.07Z"/>
    </g>
  </g>
</svg>