<?xml version="1.0" encoding="UTF-8"?>
<svg id="Layer_2" data-name="Layer 2" xmlns="http://www.w3.org/2000/svg" viewBox="0 0 59.62 60.06">
  <defs>
    <style>
      .cls-1 {
        fill: #1a1a1a;
        stroke-width: 0px;
      }
    </style>
  </defs>
  <g id="CONTENT">
    <g>
      <path class="cls-1" d="M16.12,8.06c0-1.38,1.12-2.5,2.5-2.5h21.57c.88,0,1.67.47,2.12,1.17l2.14-2.14c-1-1.24-2.54-2.03-4.26-2.03h-21.57c-3.04,0-5.5,2.47-5.5,5.5v27.86l3-3V8.06Z"/>
      <path class="cls-1" d="M38.37,10.67c-.49-.55-1.2-.89-1.98-.89h-13.98c-1.46,0-2.65,1.19-2.65,2.66v8.4c0,1.47,1.19,2.66,2.65,2.66h3.13l3-3h-5.78v-7.72h13.29v.21l2.32-2.32Z"/>
      <path class="cls-1" d="M54.98,17.58c-.59-.59-1.54-.59-2.12,0s-.59,1.54,0,2.12l3.76,3.76v28.3c0,.76-.62,1.39-1.39,1.39s-1.39-.62-1.39-1.39v-14.66c0-4.81-3.54-8.8-8.16-9.53v-10.06l-3,3v8.39s0,.02,0,.04,0,.02,0,.04v28.09h-26.57v-9.98l-3,3v6.98h-4.59v3h41.16v-3h-4v-26.44c2.95.68,5.16,3.33,5.16,6.48v14.66c0,2.42,1.97,4.39,4.39,4.39s4.39-1.97,4.39-4.39v-29.54l-4.64-4.64Z"/>
      <rect class="cls-1" x="-10.12" y="26.56" width="76.37" height="3" transform="translate(-11.62 28.06) rotate(-45)"/>
    </g>
  </g>
</svg>