<?xml version="1.0" encoding="UTF-8"?>
<svg id="Layer_2" data-name="Layer 2" xmlns="http://www.w3.org/2000/svg" viewBox="0 0 65.02 70">
  <defs>
    <style>
      .cls-1 {
        fill: #fff;
        stroke-width: 0px;
      }
    </style>
  </defs>
  <g id="CONTENT">
    <g>
      <path class="cls-1" d="M31.67,70c-1.44-.33-2.85-.74-4.03-1.69-.35-.28-.68-.59-1.15-1,4.86-.73,9.57-1.43,14.41-2.15-1.05,1.81-2.41,3.09-4.16,3.88-.96.43-2.01.65-3.02.97h-2.05Z"/>
      <path class="cls-1" d="M65.02,30.21c-.41,1.3-1.35,1.83-2.67,1.91-1.29.08-2.58.26-3.86.4-1.42.15-2.53-.68-2.63-1.95-.11-1.33.76-2.28,2.19-2.42,1.33-.13,2.67-.29,4-.43,1.71-.17,2.32.21,2.97,1.8v.68Z"/>
      <path class="cls-1" d="M31.62,12.33c7.27.25,13.26,2.64,17.4,8.36,5.07,7,5.22,14.52,1.11,22.02-1.6,2.92-3.7,5.56-5.58,8.32-.38.56-.77,1.13-1.13,1.7-.56.9-1.38,1.29-2.43,1.41-2.35.28-4.68.65-7.02.99-2.9.43-5.8.88-8.7,1.3-1.45.21-2.59-.46-3.04-1.84-1.01-3.12-2.92-5.65-5-8.13-2.9-3.44-4.66-7.45-5.06-11.94-.91-10.03,5.02-19.6,15.77-21.77,1.31-.27,2.66-.32,3.68-.44ZM25.48,52.51s.12,0,.25-.02c4.63-.69,9.26-1.38,13.9-2.05.65-.09,1.1-.31,1.43-.92.39-.71.91-1.36,1.39-2.03,1.77-2.51,3.73-4.9,4.99-7.72,2.68-6,2.35-11.85-1.77-17.03-4.14-5.2-9.82-7.14-16.36-6.18-8.23,1.21-13.51,8.17-13.41,16.4.05,4.32,1.72,8.09,4.44,11.41.76.93,1.64,1.8,2.26,2.82,1.03,1.68,1.89,3.46,2.89,5.32Z"/>
      <path class="cls-1" d="M23.47,59.89c6.38-.95,12.57-1.87,18.94-2.82-.08,1.44-.13,2.75-.25,4.05-.02.19-.34.48-.56.52-5.46.84-10.92,1.64-16.39,2.46-.41.06-.7.03-.81-.45-.29-1.22-.6-2.44-.93-3.76Z"/>
      <path class="cls-1" d="M50.04,13.76c.15-.39.24-.83.46-1.18.84-1.32,1.72-2.62,2.6-3.91.74-1.08,2.02-1.37,3.04-.72,1.04.67,1.34,2.01.63,3.11-.87,1.35-1.78,2.69-2.7,4.01-.54.79-1.51,1.09-2.41.8-.95-.31-1.54-1.11-1.63-2.12Z"/>
      <path class="cls-1" d="M36.34,4.59c0,.8.02,1.59,0,2.39-.04,1.26-.95,2.18-2.15,2.19-1.24,0-2.22-.91-2.22-2.19,0-1.66.04-3.32.13-4.98C32.15.86,33.18-.02,34.31,0c1.15.02,2.09.91,2.14,2.06.03.84,0,1.68,0,2.53-.04,0-.07,0-.11,0Z"/>
      <path class="cls-1" d="M4.63,29.92c.75,0,1.5,0,2.25,0,1.21,0,2.15.8,2.25,1.93.11,1.21-.6,2.28-1.82,2.38-1.79.16-3.59.21-5.38.19-1.11-.02-1.94-1.07-1.93-2.18.01-1.15.89-2.1,2.04-2.16.86-.04,1.73,0,2.59,0,0-.05,0-.11,0-.16Z"/>
      <path class="cls-1" d="M15.16,11.74c-.04,1.12-.4,1.79-1.18,2.19-.85.45-1.71.37-2.42-.26-1.28-1.13-2.52-2.3-3.73-3.5-.76-.75-.73-2.05-.04-2.87.68-.81,2.01-1.08,2.83-.38,1.42,1.2,2.76,2.5,4.08,3.82.29.29.36.8.45,1Z"/>
    </g>
  </g>
</svg>