<?xml version="1.0" encoding="UTF-8"?>
<svg id="Layer_2" data-name="Layer 2" xmlns="http://www.w3.org/2000/svg" viewBox="0 0 43.76 75.52">
  <defs>
    <style>
      .cls-1 {
        stroke-linecap: round;
        stroke-linejoin: round;
      }

      .cls-1, .cls-2 {
        fill: none;
        stroke: #fff;
        stroke-width: 3.9px;
      }

      .cls-2 {
        stroke-miterlimit: 10;
      }
    </style>
  </defs>
  <g id="CONTENT">
    <g>
      <path class="cls-2" d="M10.4,35.48h-2.72c-3.16,0-5.72-2.56-5.72-5.72v-14.29c0-3.16,2.56-5.72,5.72-5.72h1.36V2.81c0-.47.38-.86.86-.86h5.79c.47,0,.86.38.86.86v6.94h10.52V2.81c0-.47.38-.86.86-.86h5.79c.47,0,.86.38.86.86v6.94h1.51c3.16,0,5.72,2.56,5.72,5.72v14.29c0,3.16-2.56,5.72-5.72,5.72h-3.51"/>
      <polygon class="cls-1" points="32.58 44.46 22.52 44.46 25.8 24.87 7.24 53.84 19.91 53.84 17.34 73.57 32.58 44.46"/>
    </g>
  </g>
</svg>