<?xml version="1.0" encoding="UTF-8"?>
<svg id="Layer_2" data-name="Layer 2" xmlns="http://www.w3.org/2000/svg" viewBox="0 0 70 59.97">
  <defs>
    <style>
      .cls-1 {
        fill: #fff;
        stroke-width: 0px;
      }
    </style>
  </defs>
  <g id="CONTENT">
    <g>
      <path class="cls-1" d="M35.05,3.9c3.25-3.27,7.07-4.54,11.42-3.59,3.69.81,6.49,3.01,7.98,6.52.57,1.35,1.35,1.85,2.7,2.12,7.82,1.56,13.07,8.19,12.85,16.11-.21,7.8-6.01,14.2-13.87,15.3-.35.05-.7.08-1.05.1-1.09.06-2.28.09-2.38-1.36-.1-1.49,1.08-1.49,2.17-1.61,6.65-.71,11.59-5.49,12.12-11.66.53-6.25-3.19-12.24-9.2-13.57-3.31-.73-5.13-1.84-6.69-5.1-2.61-5.45-10.24-5.58-14.14-.78-1.82,2.25-2.06,2.24-3.84.04-2.28-2.82-5.26-3.97-8.77-3.23-3.43.72-5.73,2.91-6.58,6.34-.37,1.51-1.1,1.96-2.6,2.07-6.85.55-11.99,5.89-12.15,12.48-.17,6.81,4.57,12.32,11.47,13.33.35.05.77-.05,1.03.12.66.44,1.25.99,1.86,1.49-.72.48-1.45,1.39-2.14,1.37-5.14-.21-9.3-2.45-12.27-6.65C-3.68,24.37,1.4,11.4,12.64,9c1.46-.31,2.35-.81,3.04-2.3C18.84-.21,27.69-2.14,33.6,2.66c.43.35.85.73,1.45,1.24Z"/>
      <path class="cls-1" d="M37.87,30.51c-4.61,0-8.29-3.67-8.27-8.26.01-4.6,3.67-8.24,8.29-8.25,4.61,0,8.23,3.62,8.27,8.27.04,4.55-3.67,8.24-8.29,8.24ZM43.14,22.35c.04-2.96-2.31-5.38-5.23-5.4-2.89-.02-5.34,2.43-5.36,5.33-.01,2.81,2.34,5.2,5.18,5.27,2.97.07,5.37-2.24,5.41-5.2Z"/>
      <path class="cls-1" d="M23.13,30.78c-3.68-.26-6.78-2.45-7.95-5.81-1.13-3.26-.09-6.93,2.57-9.12,2.7-2.22,6.64-2.49,9.61-.62.58.37,1.28.79,1.54,1.37.23.51.14,1.4-.19,1.85-.23.31-1.12.31-1.65.18-.5-.13-.9-.64-1.38-.92-2.24-1.32-4.97-.87-6.66,1.09-1.74,2.01-1.75,4.9-.02,6.92,1.65,1.93,4.46,2.41,6.67,1.13.06-.03.12-.08.17-.12,1-.65,2.14-2.05,3.14-.38.96,1.6-.66,2.43-1.77,3.01-1.27.66-2.72.96-4.1,1.42Z"/>
      <path class="cls-1" d="M33.52,54.8c0-4.26-.08-7.96.06-11.65.03-.82.78-2.21,1.35-2.29,1.55-.24,1.59,1.14,1.59,2.31,0,3.69,0,7.37,0,11.6.95-.87,1.46-1.58,2.14-1.89.64-.29,1.47-.16,2.22-.22-.03.75.22,1.74-.16,2.19-1.35,1.6-2.91,3.01-4.4,4.49-.93.92-1.84.81-2.73-.09-1.38-1.39-2.86-2.69-4.1-4.19-.44-.53-.28-1.55-.4-2.35.8.07,1.67-.03,2.38.26.64.27,1.1.96,2.04,1.84Z"/>
      <path class="cls-1" d="M24.57,50.01c1.1-1.02,1.67-1.81,2.44-2.2.53-.26,1.5-.19,1.97.16.31.23.35,1.44.04,1.79-1.52,1.73-3.13,3.4-4.89,4.88-.43.36-1.78.2-2.3-.23-1.56-1.28-3.01-2.73-4.29-4.29-.42-.51-.18-1.55-.25-2.35.74.07,1.6-.06,2.2.28.62.35.98,1.16,1.45,1.77.22-.08.45-.17.67-.25,0-.99,0-1.98,0-2.97,0-2.94-.09-5.88.07-8.81.04-.66.93-1.27,1.42-1.9.49.63,1.38,1.25,1.4,1.9.13,3.89.07,7.78.07,12.21Z"/>
      <path class="cls-1" d="M45.47,49.48c0-3.4,0-6.79,0-10.19,0-.56-.17-1.2.05-1.66.31-.65.91-1.16,1.39-1.74.51.62,1.42,1.23,1.45,1.87.15,3.21.07,6.43.07,9.65,0,.68,0,1.36,0,2.5,1-.91,1.62-1.67,2.41-2.12.49-.27,1.59-.29,1.8.01.34.49.48,1.6.16,1.97-1.51,1.74-3.13,3.4-4.89,4.88-.43.36-1.78.17-2.3-.26-1.56-1.28-3.01-2.73-4.29-4.29-.41-.5-.15-1.54-.2-2.33.74.08,1.68-.09,2.18.29.6.46.84,1.4,1.23,2.13.31-.24.62-.48.93-.72Z"/>
      <path class="cls-1" d="M52.83,29.51c.55.12,1.06.08,1.3.32.46.43,1.08,1.06,1.04,1.54-.05.48-.81,1.22-1.31,1.26-1.73.15-3.49.13-5.23,0-.5-.03-1.22-.53-1.37-.97-.15-.46.11-1.27.48-1.65,1.16-1.21,2.51-2.23,3.66-3.45.45-.48.65-1.28.72-1.96.02-.24-.87-.87-1.03-.78-.58.34-1,.96-1.54,1.39-.62.49-1.32.88-1.98,1.31-.28-.77-.88-1.58-.79-2.31.25-1.96,1.64-3.05,3.51-3.37,1.82-.31,3.34.39,4.32,1.95,1.02,1.63.97,3.33-.13,4.92-.43.62-1.02,1.12-1.65,1.79Z"/>
    </g>
  </g>
</svg>