<?xml version="1.0" encoding="UTF-8"?>
<svg id="Layer_2" data-name="Layer 2" xmlns="http://www.w3.org/2000/svg" viewBox="0 0 710 9.09">
  <defs>
    <style>
      .cls-1 {
        fill: #57a57b;
      }
    </style>
  </defs>
  <g id="Layer_1-2" data-name="Layer 1">
    <g>
      <path class="cls-1" d="M64.68,4.55l-1.62-2.73h2.7l1.62,2.73-1.62,2.73h-2.7l1.62-2.73ZM61.96,0l-2.71,4.55,2.71,4.55h5.41l2.71-4.55-2.71-4.55h-5.41Z"/>
      <path class="cls-1" d="M704.6,4.55l-1.62-2.73h2.7l1.62,2.73-1.62,2.73h-2.7l1.62-2.73ZM701.88,0l-2.71,4.55,2.71,4.55h5.41l2.71-4.55-2.71-4.55h-5.41Z"/>
      <path class="cls-1" d="M633.5,4.55l-1.62-2.73h2.7l1.62,2.73-1.62,2.73h-2.7l1.62-2.73ZM630.78,0l-2.71,4.55,2.71,4.55h5.41l2.71-4.55-2.71-4.55h-5.41Z"/>
      <path class="cls-1" d="M562.39,4.55l-1.62-2.73h2.7l1.62,2.73-1.62,2.73h-2.7l1.62-2.73ZM559.68,0l-2.71,4.55,2.71,4.55h5.41l2.71-4.55-2.71-4.55h-5.41Z"/>
      <path class="cls-1" d="M491.29,4.55l-1.62-2.73h2.7l1.62,2.73-1.62,2.73h-2.7l1.62-2.73ZM488.57,0l-2.71,4.55,2.71,4.55h5.41l2.71-4.55-2.71-4.55h-5.41Z"/>
      <path class="cls-1" d="M420.19,4.55l-1.62-2.73h2.7l1.62,2.73-1.62,2.73h-2.7l1.62-2.73ZM417.47,0l-2.71,4.55,2.71,4.55h5.41l2.71-4.55-2.71-4.55h-5.41Z"/>
      <path class="cls-1" d="M349.09,4.55l-1.62-2.73h2.7l1.62,2.73-1.62,2.73h-2.7l1.62-2.73ZM346.37,0l-2.71,4.55,2.71,4.55h5.41l2.71-4.55-2.71-4.55h-5.41Z"/>
      <path class="cls-1" d="M277.98,4.55l-1.62-2.73h2.7l1.62,2.73-1.62,2.73h-2.7l1.62-2.73ZM275.27,0l-2.71,4.55,2.71,4.55h5.41l2.71-4.55-2.71-4.55h-5.41Z"/>
      <path class="cls-1" d="M206.88,4.55l-1.62-2.73h2.7l1.62,2.73-1.62,2.73h-2.7l1.62-2.73ZM204.16,0l-2.71,4.55,2.71,4.55h5.41l2.71-4.55-2.71-4.55h-5.41Z"/>
      <path class="cls-1" d="M135.78,4.55l-1.62-2.73h2.7l1.62,2.73-1.62,2.73h-2.7l1.62-2.73ZM133.06,0l-2.71,4.55,2.71,4.55h5.41l2.71-4.55-2.71-4.55h-5.41Z"/>
      <path class="cls-1" d="M52.83,4.55l-1.62-2.73h2.7l1.62,2.73-1.62,2.73h-2.7l1.62-2.73ZM50.11,0l-2.71,4.55,2.71,4.55h5.41l2.71-4.55-2.71-4.55h-5.41Z"/>
      <path class="cls-1" d="M692.75,4.55l-1.62-2.73h2.7l1.62,2.73-1.62,2.73h-2.7l1.62-2.73ZM690.03,0l-2.71,4.55,2.71,4.55h5.41l2.71-4.55-2.71-4.55h-5.41Z"/>
      <path class="cls-1" d="M621.65,4.55l-1.62-2.73h2.7l1.62,2.73-1.62,2.73h-2.7l1.62-2.73ZM618.93,0l-2.71,4.55,2.71,4.55h5.41l2.71-4.55-2.71-4.55h-5.41Z"/>
      <path class="cls-1" d="M550.54,4.55l-1.62-2.73h2.7l1.62,2.73-1.62,2.73h-2.7l1.62-2.73ZM547.83,0l-2.71,4.55,2.71,4.55h5.41l2.71-4.55-2.71-4.55h-5.41Z"/>
      <path class="cls-1" d="M479.44,4.55l-1.62-2.73h2.7l1.62,2.73-1.62,2.73h-2.7l1.62-2.73ZM476.72,0l-2.71,4.55,2.71,4.55h5.41l2.71-4.55-2.71-4.55h-5.41Z"/>
      <path class="cls-1" d="M408.34,4.55l-1.62-2.73h2.7l1.62,2.73-1.62,2.73h-2.7l1.62-2.73ZM405.62,0l-2.71,4.55,2.71,4.55h5.41l2.71-4.55-2.71-4.55h-5.41Z"/>
      <path class="cls-1" d="M337.24,4.55l-1.62-2.73h2.7l1.62,2.73-1.62,2.73h-2.7l1.62-2.73ZM334.52,0l-2.71,4.55,2.71,4.55h5.41l2.71-4.55-2.71-4.55h-5.41Z"/>
      <path class="cls-1" d="M266.13,4.55l-1.62-2.73h2.7l1.62,2.73-1.62,2.73h-2.7l1.62-2.73ZM263.42,0l-2.71,4.55,2.71,4.55h5.41l2.71-4.55-2.71-4.55h-5.41Z"/>
      <path class="cls-1" d="M195.03,4.55l-1.62-2.73h2.7l1.62,2.73-1.62,2.73h-2.7l1.62-2.73ZM192.31,0l-2.71,4.55,2.71,4.55h5.41l2.71-4.55-2.71-4.55h-5.41Z"/>
      <path class="cls-1" d="M123.93,4.55l-1.62-2.73h2.7l1.62,2.73-1.62,2.73h-2.7l1.62-2.73ZM121.21,0l-2.71,4.55,2.71,4.55h5.41l2.71-4.55-2.71-4.55h-5.41Z"/>
      <path class="cls-1" d="M40.98,4.55l-1.62-2.73h2.7l1.62,2.73-1.62,2.73h-2.7l1.62-2.73ZM38.26,0l-2.71,4.55,2.71,4.55h5.41l2.71-4.55-2.71-4.55h-5.41Z"/>
      <path class="cls-1" d="M680.9,4.55l-1.62-2.73h2.7l1.62,2.73-1.62,2.73h-2.7l1.62-2.73ZM678.18,0l-2.71,4.55,2.71,4.55h5.41l2.71-4.55-2.71-4.55h-5.41Z"/>
      <path class="cls-1" d="M609.8,4.55l-1.62-2.73h2.7l1.62,2.73-1.62,2.73h-2.7l1.62-2.73ZM607.08,0l-2.71,4.55,2.71,4.55h5.41l2.71-4.55-2.71-4.55h-5.41Z"/>
      <path class="cls-1" d="M538.69,4.55l-1.62-2.73h2.7l1.62,2.73-1.62,2.73h-2.7l1.62-2.73ZM535.98,0l-2.71,4.55,2.71,4.55h5.41l2.71-4.55-2.71-4.55h-5.41Z"/>
      <path class="cls-1" d="M467.59,4.55l-1.62-2.73h2.7l1.62,2.73-1.62,2.73h-2.7l1.62-2.73ZM464.87,0l-2.71,4.55,2.71,4.55h5.41l2.71-4.55-2.71-4.55h-5.41Z"/>
      <path class="cls-1" d="M396.49,4.55l-1.62-2.73h2.7l1.62,2.73-1.62,2.73h-2.7l1.62-2.73ZM393.77,0l-2.71,4.55,2.71,4.55h5.41l2.71-4.55-2.71-4.55h-5.41Z"/>
      <path class="cls-1" d="M325.39,4.55l-1.62-2.73h2.7l1.62,2.73-1.62,2.73h-2.7l1.62-2.73ZM322.67,0l-2.71,4.55,2.71,4.55h5.41l2.71-4.55-2.71-4.55h-5.41Z"/>
      <path class="cls-1" d="M254.28,4.55l-1.62-2.73h2.7l1.62,2.73-1.62,2.73h-2.7l1.62-2.73ZM251.57,0l-2.71,4.55,2.71,4.55h5.41l2.71-4.55-2.71-4.55h-5.41Z"/>
      <path class="cls-1" d="M183.18,4.55l-1.62-2.73h2.7l1.62,2.73-1.62,2.73h-2.7l1.62-2.73ZM180.46,0l-2.71,4.55,2.71,4.55h5.41l2.71-4.55-2.71-4.55h-5.41Z"/>
      <path class="cls-1" d="M112.08,4.55l-1.62-2.73h2.7l1.62,2.73-1.62,2.73h-2.7l1.62-2.73ZM109.36,0l-2.71,4.55,2.71,4.55h5.41l2.71-4.55-2.71-4.55h-5.41Z"/>
      <path class="cls-1" d="M29.13,4.55l-1.62-2.73h2.7l1.62,2.73-1.62,2.73h-2.7l1.62-2.73ZM26.41,0l-2.71,4.55,2.71,4.55h5.41l2.71-4.55-2.71-4.55h-5.41Z"/>
      <path class="cls-1" d="M669.05,4.55l-1.62-2.73h2.7l1.62,2.73-1.62,2.73h-2.7l1.62-2.73ZM666.33,0l-2.71,4.55,2.71,4.55h5.41l2.71-4.55-2.71-4.55h-5.41Z"/>
      <path class="cls-1" d="M597.95,4.55l-1.62-2.73h2.7l1.62,2.73-1.62,2.73h-2.7l1.62-2.73ZM595.23,0l-2.71,4.55,2.71,4.55h5.41l2.71-4.55-2.71-4.55h-5.41Z"/>
      <path class="cls-1" d="M526.84,4.55l-1.62-2.73h2.7l1.62,2.73-1.62,2.73h-2.7l1.62-2.73ZM524.12,0l-2.71,4.55,2.71,4.55h5.41l2.71-4.55-2.71-4.55h-5.41Z"/>
      <path class="cls-1" d="M455.74,4.55l-1.62-2.73h2.7l1.62,2.73-1.62,2.73h-2.7l1.62-2.73ZM453.02,0l-2.71,4.55,2.71,4.55h5.41l2.71-4.55-2.71-4.55h-5.41Z"/>
      <path class="cls-1" d="M384.64,4.55l-1.62-2.73h2.7l1.62,2.73-1.62,2.73h-2.7l1.62-2.73ZM381.92,0l-2.71,4.55,2.71,4.55h5.41l2.71-4.55-2.71-4.55h-5.41Z"/>
      <path class="cls-1" d="M313.54,4.55l-1.62-2.73h2.7l1.62,2.73-1.62,2.73h-2.7l1.62-2.73ZM310.82,0l-2.71,4.55,2.71,4.55h5.41l2.71-4.55-2.71-4.55h-5.41Z"/>
      <path class="cls-1" d="M242.43,4.55l-1.62-2.73h2.7l1.62,2.73-1.62,2.73h-2.7l1.62-2.73ZM239.71,0l-2.71,4.55,2.71,4.55h5.41l2.71-4.55-2.71-4.55h-5.41Z"/>
      <path class="cls-1" d="M171.33,4.55l-1.62-2.73h2.7l1.62,2.73-1.62,2.73h-2.7l1.62-2.73ZM168.61,0l-2.71,4.55,2.71,4.55h5.41l2.71-4.55-2.71-4.55h-5.41Z"/>
      <path class="cls-1" d="M100.23,4.55l-1.62-2.73h2.7l1.62,2.73-1.62,2.73h-2.7l1.62-2.73ZM97.51,0l-2.71,4.55,2.71,4.55h5.41l2.71-4.55-2.71-4.55h-5.41Z"/>
      <path class="cls-1" d="M17.27,4.55l-1.62-2.73h2.7l1.62,2.73-1.62,2.73h-2.7l1.62-2.73ZM14.56,0l-2.71,4.55,2.71,4.55h5.41l2.71-4.55-2.71-4.55h-5.41Z"/>
      <path class="cls-1" d="M657.2,4.55l-1.62-2.73h2.7l1.62,2.73-1.62,2.73h-2.7l1.62-2.73ZM654.48,0l-2.71,4.55,2.71,4.55h5.41l2.71-4.55-2.71-4.55h-5.41Z"/>
      <path class="cls-1" d="M586.09,4.55l-1.62-2.73h2.7l1.62,2.73-1.62,2.73h-2.7l1.62-2.73ZM583.38,0l-2.71,4.55,2.71,4.55h5.41l2.71-4.55-2.71-4.55h-5.41Z"/>
      <path class="cls-1" d="M514.99,4.55l-1.62-2.73h2.7l1.62,2.73-1.62,2.73h-2.7l1.62-2.73ZM512.27,0l-2.71,4.55,2.71,4.55h5.41l2.71-4.55-2.71-4.55h-5.41Z"/>
      <path class="cls-1" d="M443.89,4.55l-1.62-2.73h2.7l1.62,2.73-1.62,2.73h-2.7l1.62-2.73ZM441.17,0l-2.71,4.55,2.71,4.55h5.41l2.71-4.55-2.71-4.55h-5.41Z"/>
      <path class="cls-1" d="M372.79,4.55l-1.62-2.73h2.7l1.62,2.73-1.62,2.73h-2.7l1.62-2.73ZM370.07,0l-2.71,4.55,2.71,4.55h5.41l2.71-4.55-2.71-4.55h-5.41Z"/>
      <path class="cls-1" d="M301.68,4.55l-1.62-2.73h2.7l1.62,2.73-1.62,2.73h-2.7l1.62-2.73ZM298.97,0l-2.71,4.55,2.71,4.55h5.41l2.71-4.55-2.71-4.55h-5.41Z"/>
      <path class="cls-1" d="M230.58,4.55l-1.62-2.73h2.7l1.62,2.73-1.62,2.73h-2.7l1.62-2.73ZM227.86,0l-2.71,4.55,2.71,4.55h5.41l2.71-4.55-2.71-4.55h-5.41Z"/>
      <path class="cls-1" d="M159.48,4.55l-1.62-2.73h2.7l1.62,2.73-1.62,2.73h-2.7l1.62-2.73ZM156.76,0l-2.71,4.55,2.71,4.55h5.41l2.71-4.55-2.71-4.55h-5.41Z"/>
      <path class="cls-1" d="M88.38,4.55l-1.62-2.73h2.7l1.62,2.73-1.62,2.73h-2.7l1.62-2.73ZM85.66,0l-2.71,4.55,2.71,4.55h5.41l2.71-4.55-2.71-4.55h-5.41Z"/>
      <path class="cls-1" d="M5.42,4.55l-1.62-2.73h2.7l1.62,2.73-1.62,2.73h-2.7l1.62-2.73ZM2.71,0L0,4.55l2.71,4.55h5.41l2.71-4.55L8.12,0H2.71Z"/>
      <path class="cls-1" d="M645.35,4.55l-1.62-2.73h2.7l1.62,2.73-1.62,2.73h-2.7l1.62-2.73ZM642.63,0l-2.71,4.55,2.71,4.55h5.41l2.71-4.55-2.71-4.55h-5.41Z"/>
      <path class="cls-1" d="M574.24,4.55l-1.62-2.73h2.7l1.62,2.73-1.62,2.73h-2.7l1.62-2.73ZM571.53,0l-2.71,4.55,2.71,4.55h5.41l2.71-4.55-2.71-4.55h-5.41Z"/>
      <path class="cls-1" d="M503.14,4.55l-1.62-2.73h2.7l1.62,2.73-1.62,2.73h-2.7l1.62-2.73ZM500.42,0l-2.71,4.55,2.71,4.55h5.41l2.71-4.55-2.71-4.55h-5.41Z"/>
      <path class="cls-1" d="M432.04,4.55l-1.62-2.73h2.7l1.62,2.73-1.62,2.73h-2.7l1.62-2.73ZM429.32,0l-2.71,4.55,2.71,4.55h5.41l2.71-4.55-2.71-4.55h-5.41Z"/>
      <path class="cls-1" d="M360.94,4.55l-1.62-2.73h2.7l1.62,2.73-1.62,2.73h-2.7l1.62-2.73ZM358.22,0l-2.71,4.55,2.71,4.55h5.41l2.71-4.55-2.71-4.55h-5.41Z"/>
      <path class="cls-1" d="M289.83,4.55l-1.62-2.73h2.7l1.62,2.73-1.62,2.73h-2.7l1.62-2.73ZM287.12,0l-2.71,4.55,2.71,4.55h5.41l2.71-4.55-2.71-4.55h-5.41Z"/>
      <path class="cls-1" d="M218.73,4.55l-1.62-2.73h2.7l1.62,2.73-1.62,2.73h-2.7l1.62-2.73ZM216.01,0l-2.71,4.55,2.71,4.55h5.41l2.71-4.55-2.71-4.55h-5.41Z"/>
      <path class="cls-1" d="M147.63,4.55l-1.62-2.73h2.7l1.62,2.73-1.62,2.73h-2.7l1.62-2.73ZM144.91,0l-2.71,4.55,2.71,4.55h5.41l2.71-4.55-2.71-4.55h-5.41Z"/>
      <path class="cls-1" d="M76.53,4.55l-1.62-2.73h2.7l1.62,2.73-1.62,2.73h-2.7l1.62-2.73ZM73.81,0l-2.71,4.55,2.71,4.55h5.41l2.71-4.55-2.71-4.55h-5.41Z"/>
    </g>
  </g>
</svg>