<?xml version="1.0" encoding="UTF-8"?>
<svg id="Layer_1" data-name="Layer 1" xmlns="http://www.w3.org/2000/svg" width="300" height="80" viewBox="0 0 300 80">
  <defs>
    <style>
      .cls-1 {
        fill: #fff;
      }
    </style>
  </defs>
  <g>
    <g>
      <path class="cls-1" d="M94.34,51.42h4.73v.94h-3.61v2.48h3.4v.92h-3.4v3.61h-1.12v-7.95Z"/>
      <path class="cls-1" d="M103.13,51.42h1.1v7.95h-1.1v-7.95Z"/>
      <path class="cls-1" d="M109,51.42h1.09v6.97h3.7v.98h-4.79v-7.95Z"/>
      <path class="cls-1" d="M118.7,59.37v-7.01h-2.66v-.94h6.42v.94h-2.66v7.01h-1.09Z"/>
      <path class="cls-1" d="M126.22,51.42h2.84c.41,0,1.24,0,1.83.37.59.37.88.98.88,1.62,0,.56-.21,1.06-.56,1.41-.34.34-.69.45-.94.52.76.2,1.1.54,1.21,1.53.11.94.19,1.62.5,2.5h-1.18c-.18-.53-.29-1.5-.36-2.1-.13-1.16-.41-1.49-1.74-1.49h-1.39v3.59h-1.09v-7.95ZM127.29,54.85h1.74c.12,0,.75,0,1.05-.17.15-.09.54-.38.54-1.04,0-1.29-1.15-1.29-1.58-1.29h-1.74v2.5Z"/>
      <path class="cls-1" d="M138.82,51.42h1.18l3.22,7.95h-1.2l-.86-2.07h-3.69l-.86,2.07h-1.13l3.35-7.95ZM137.82,56.41h3.01l-1.46-3.9-1.54,3.9Z"/>
      <path class="cls-1" d="M148.14,59.37v-7.01h-2.66v-.94h6.42v.94h-2.66v7.01h-1.09Z"/>
      <path class="cls-1" d="M155.69,51.42h1.1v7.95h-1.1v-7.95Z"/>
      <path class="cls-1" d="M162.21,52.28c.83-.89,1.92-1.07,2.65-1.07,2.2,0,3.59,1.41,3.59,4.11,0,2.11-.85,4.24-3.68,4.24s-3.59-1.93-3.59-4.11c0-.9.16-2.24,1.02-3.17ZM163.04,57.9c.45.56,1.13.73,1.76.73s1.3-.17,1.76-.73c.65-.79.72-2.05.72-2.59,0-1.81-.59-3.17-2.41-3.17-2.01,0-2.53,1.62-2.53,3.25,0,.87.16,1.83.7,2.51Z"/>
      <path class="cls-1" d="M172.89,51.42h1.53l3.91,6.57v-6.57h1.01v7.95h-1.41l-4.04-6.75v6.75h-1v-7.95Z"/>
      <path class="cls-1" d="M190.74,57.05c.02.55.09,1.57,1.92,1.57,1.65,0,1.86-1.02,1.86-1.42,0-.89-.72-1.07-1.83-1.34-1.21-.3-1.75-.43-2.16-.7-.65-.44-.83-1.03-.83-1.56,0-1.62,1.53-2.32,3.03-2.32.53,0,1.6.09,2.24.78.44.48.46,1.02.48,1.35h-1.15c-.05-.99-.89-1.21-1.67-1.21-1.1,0-1.76.5-1.76,1.29,0,.7.46.95,1.43,1.18,1.89.48,2.1.53,2.57.84.74.48.79,1.26.79,1.59,0,1.41-1.1,2.48-3.14,2.48-.6,0-1.84-.1-2.47-.9-.45-.58-.46-1.22-.46-1.61h1.15Z"/>
      <path class="cls-1" d="M200.74,52.28c.83-.89,1.92-1.07,2.65-1.07,2.2,0,3.59,1.41,3.59,4.11,0,2.11-.85,4.24-3.68,4.24s-3.59-1.93-3.59-4.11c0-.9.15-2.24,1.02-3.17ZM201.58,57.9c.45.56,1.13.73,1.76.73s1.3-.17,1.76-.73c.65-.79.71-2.05.71-2.59,0-1.81-.59-3.17-2.41-3.17-2.02,0-2.53,1.62-2.53,3.25,0,.87.15,1.83.7,2.51Z"/>
      <path class="cls-1" d="M211.41,51.42h1.09v6.97h3.7v.98h-4.79v-7.95Z"/>
      <path class="cls-1" d="M221.38,51.42v4.92c0,.85.19,1.2.35,1.43.49.66,1.27.78,1.82.78,2.15,0,2.15-1.69,2.15-2.26v-4.88h1.07v4.9c0,.43,0,1.32-.65,2.11-.78.98-1.99,1.1-2.57,1.1-.75,0-2.07-.21-2.81-1.27-.24-.35-.46-.81-.46-2v-4.84h1.1Z"/>
      <path class="cls-1" d="M233.47,59.37v-7.01h-2.66v-.94h6.42v.94h-2.67v7.01h-1.09Z"/>
      <path class="cls-1" d="M241.02,51.42h1.1v7.95h-1.1v-7.95Z"/>
      <path class="cls-1" d="M247.53,52.28c.83-.89,1.92-1.07,2.65-1.07,2.2,0,3.59,1.41,3.59,4.11,0,2.11-.85,4.24-3.68,4.24s-3.59-1.93-3.59-4.11c0-.9.16-2.24,1.02-3.17ZM248.37,57.9c.45.56,1.13.73,1.76.73s1.3-.17,1.76-.73c.65-.79.72-2.05.72-2.59,0-1.81-.59-3.17-2.41-3.17-2.01,0-2.53,1.62-2.53,3.25,0,.87.16,1.83.7,2.51Z"/>
      <path class="cls-1" d="M258.22,51.42h1.53l3.91,6.57v-6.57h1.01v7.95h-1.41l-4.04-6.75v6.75h-1v-7.95Z"/>
      <path class="cls-1" d="M270.25,57.05c.02.55.09,1.57,1.92,1.57,1.65,0,1.86-1.02,1.86-1.42,0-.89-.72-1.07-1.83-1.34-1.21-.3-1.75-.43-2.16-.7-.65-.44-.83-1.03-.83-1.56,0-1.62,1.53-2.32,3.03-2.32.53,0,1.6.09,2.24.78.44.48.46,1.02.48,1.35h-1.15c-.05-.99-.89-1.21-1.67-1.21-1.1,0-1.76.5-1.76,1.29,0,.7.46.95,1.43,1.18,1.89.48,2.1.53,2.57.84.74.48.79,1.26.79,1.59,0,1.41-1.1,2.48-3.14,2.48-.6,0-1.84-.1-2.47-.9-.45-.58-.46-1.22-.46-1.61h1.15Z"/>
    </g>
    <path class="cls-1" d="M283.6,41.05c0,1.27-1.04,2.31-2.33,2.31s-2.31-1.04-2.31-2.31,1.05-2.33,2.31-2.33,2.33,1.02,2.33,2.33ZM279.37,41.05c0,1.05.86,1.91,1.91,1.91s1.93-.87,1.93-1.91-.87-1.93-1.93-1.93-1.91.84-1.91,1.93ZM280.21,39.76h1.2c.43,0,.96,0,.96.67,0,.27-.12.55-.62.61h0c.49.02.51.27.56.53.09.58.09.6.13.76h-.77c-.04-.16-.06-.33-.09-.6-.04-.29-.05-.41-.37-.41h-.29v1.01h-.72v-2.57ZM280.93,40.87h.27c.23,0,.48,0,.48-.32s-.27-.32-.48-.32h-.27v.64Z"/>
    <path class="cls-1" d="M30.37,47.13c0-5.57,4.51-10.08,10.08-10.08s10.08,4.51,10.08,10.08-4.51,10.08-10.08,10.08-10.08-4.51-10.08-10.08h0ZM54.28,11.63v15.44c-3.93-2.71-8.69-4.3-13.83-4.3-4.19,0-8.13,1.06-11.58,2.92,1.83-.5,3.76-.74,5.75-.69,10.21.25,18.45,8.1,19.43,18.01.02.08.04.15.06.23h10.37V11.63h-10.22ZM26.78,43.23c1.7-5.95,7.17-10.31,13.67-10.31,3.49,0,6.67,1.26,9.15,3.33-2.98-5.25-8.56-8.84-15.03-9-6.96-.17-13.08,3.68-16.14,9.44-.82,1.72-1.44,3.54-1.84,5.45-.06.36-.11.73-.14,1.09h10.32ZM46.28,69.27c-10.21-.25-18.45-8.1-19.43-18-.02-.08-.04-.15-.06-.23h-10.38c1.87,11.6,11.93,20.46,24.05,20.46,4.19,0,8.13-1.06,11.58-2.92-1.83.5-3.76.74-5.75.69h0ZM54.13,51.04c-1.7,5.96-7.17,10.31-13.67,10.31-3.48,0-6.67-1.25-9.15-3.33,2.98,5.25,8.56,8.84,15.03,9,6.96.17,13.08-3.68,16.14-9.44.82-1.72,1.44-3.54,1.84-5.45.06-.36.11-.72.14-1.09h-10.32Z"/>
  </g>
  <path class="cls-1" d="M95.19,16.54c0-4.09-2.13-3.81-4.18-3.86v-1.18c1.77.09,3.59.09,5.36.09,1.91,0,4.5-.09,7.86-.09,11.76,0,18.17,7.86,18.17,15.9,0,4.5-2.63,15.81-18.71,15.81-2.32,0-4.45-.09-6.59-.09s-4.04.05-6.09.09v-1.18c2.73-.27,4.04-.36,4.18-3.45v-22.03h0ZM99.64,37.84c0,3.5,2.5,3.9,4.72,3.9,9.81,0,13.04-7.4,13.04-14.17,0-8.49-5.45-14.62-14.22-14.62-1.86,0-2.72.14-3.54.18v24.71h0Z"/>
  <path class="cls-1" d="M133.83,22.44c6.31,0,11.04,4.18,11.04,10.63,0,5.86-4.63,10.81-10.45,10.81s-10.99-4.18-10.99-10.63c0-5.86,4.32-10.81,10.4-10.81h0ZM134.37,42.7c4.54,0,6.31-5.27,6.31-9.17s-2-9.9-6.81-9.9c-4.5,0-6.27,5.27-6.27,9.17s2,9.9,6.77,9.9h0Z"/>
  <path class="cls-1" d="M146.78,28.48c0-1.68-.5-2.14-2.64-3v-.86c1.96-.64,3.82-1.23,6-2.18.14,0,.27.09.27.46v2.95c2.59-1.86,4.81-3.41,7.85-3.41,3.86,0,5.22,2.82,5.22,6.36v11.72c0,1.5,1,1.5,2.27,1.5h.82v1.18c-1.59,0-3.18-.09-4.81-.09s-3.27.05-4.9.09v-1.18h.82c1.27,0,2.18,0,2.18-1.5v-11.76c0-2.59-1.59-3.86-4.18-3.86-1.45,0-3.77,1.18-5.27,2.18v13.44c0,1.5,1,1.5,2.27,1.5h.82v1.18c-1.59,0-3.18-.09-4.81-.09s-3.27.05-4.91.09v-1.18h.82c1.27,0,2.18,0,2.18-1.5v-12.03h0Z"/>
  <path class="cls-1" d="M257.63,28.48c0-1.68-.5-2.14-2.63-3v-.86c1.95-.64,3.81-1.23,6-2.18.14,0,.27.09.27.46v2.95c2.59-1.86,4.81-3.41,7.85-3.41,3.86,0,5.22,2.82,5.22,6.36v11.72c0,1.5,1,1.5,2.27,1.5h.82v1.18c-1.59,0-3.18-.09-4.81-.09s-3.27.05-4.9.09v-1.18h.82c1.27,0,2.18,0,2.18-1.5v-11.76c0-2.59-1.59-3.86-4.18-3.86-1.45,0-3.77,1.18-5.27,2.18v13.44c0,1.5,1,1.5,2.27,1.5h.82v1.18c-1.59,0-3.18-.09-4.81-.09s-3.27.05-4.9.09v-1.18h.82c1.27,0,2.18,0,2.18-1.5v-12.03h0Z"/>
  <path class="cls-1" d="M186.17,41.43c-1.27,1.18-2.68,2.45-4.5,2.45s-2.73-1.72-2.82-3.36c-2.14,1.95-4.18,3.36-6.99,3.36s-4.9-2-4.9-4.4c.18-3.63,2.04-4.32,11.85-7.68v-3c0-2.54-1.5-3.91-4.4-3.91-2,0-3.36,1.14-3.45,3.18,0,1.27-1.45,1.91-2.55,1.91-.68,0-.82-.59-.82-.91,0-2.41,2.04-3.54,5.22-5.18,1.59-.82,2.36-1.45,4.09-1.45,2.04,0,5.54,1.32,5.54,3.82v12.58c0,1.86.64,2.59,1.64,2.59.59,0,1.27-.27,1.68-.77l.41.77h0ZM178.81,33.11c-2.31.91-8.22,1.95-8.22,5.36,0,1.77,1.45,3.27,3.22,3.27,2.13,0,3.5-1.32,4.99-2.63v-6h0Z"/>
  <path class="cls-1" d="M186.33,42.02h.86c1.27,0,2.18,0,2.18-1.5V15.22c0-2.95-.68-3.04-2.41-3.54v-.73c1.82-.59,3.73-1.41,4.68-1.95.5-.27.86-.5,1-.5.27,0,.36.27.36.64v31.38c0,1.5,1,1.5,2.27,1.5h.77v1.18c-1.54,0-3.13-.09-4.77-.09s-3.27.05-4.95.09v-1.18h0Z"/>
  <path class="cls-1" d="M215.1,39.29c0,1.86.46,1.86,2.22,1.86h.77v.91h-.05c-.68.13-1.91.5-3.22.91-1.41.45-2.59.91-2.86.91-.45,0-.5-.68-.5-1.23v-2.09h-.09c-1.63,1.68-4.18,3.32-6.95,3.32-5.45,0-8.45-4.77-8.45-9.85,0-6.13,4.95-11.58,11.22-11.58,1.45,0,2.95.27,4.27.82v-8.04c0-2.95-.68-3.04-2.41-3.54v-.73c1.82-.59,3.73-1.41,4.68-1.95.5-.27.86-.5,1-.5.27,0,.36.27.36.64v30.16h0ZM211.46,28.07c0-3.36-2.82-4.18-4.81-4.18-3.22,0-6.77,2.41-6.77,8.54,0,5,3.04,8.72,7.18,8.72,1.36,0,4.4-1,4.4-2.68v-10.4h0Z"/>
  <path class="cls-1" d="M220.23,36.89c.59,3,2.41,5.54,5.72,5.54,2.68,0,3.68-1.64,3.68-3.22,0-5.36-9.9-3.63-9.9-10.95,0-2.54,2.04-5.81,7.04-5.81,1.45,0,3.41.41,5.18,1.32l.32,4.63h-1.04c-.45-2.86-2.04-4.5-4.95-4.5-1.82,0-3.54,1.05-3.54,3,0,5.31,10.53,3.68,10.53,10.81,0,3-2.41,6.18-7.81,6.18-1.82,0-3.95-.64-5.54-1.55l-.5-5.22.82-.23h0Z"/>
  <path class="cls-1" d="M244.88,22.44c6.31,0,11.04,4.18,11.04,10.63,0,5.86-4.63,10.81-10.45,10.81s-10.99-4.18-10.99-10.63c0-5.86,4.31-10.81,10.4-10.81h0ZM245.42,42.7c4.54,0,6.31-5.27,6.31-9.17s-2-9.9-6.81-9.9c-4.5,0-6.27,5.27-6.27,9.17s2,9.9,6.77,9.9h0Z"/>
</svg>