<?xml version="1.0" encoding="UTF-8"?>
<svg id="Layer_1" xmlns="http://www.w3.org/2000/svg" width="134.2" height="33" version="1.1" viewBox="0 0 134.2 33">
  <!-- Generator: Adobe Illustrator 30.5.1, SVG Export Plug-In . SVG Version: 2.1.4 Build 3)  -->
  <defs>
    <style>
      .st0 {
        fill: #fff;
      }
    </style>
  </defs>
  <g id="b">
    <g>
      <path class="st0" d="M56.8,10.5c-.4-.3-.8-.5-1.3-.5s-.9.2-.9.6.5.6.9.7l.5.2c1.1.3,1.9.9,1.9,2.1s-.2,1.6-.8,2.1c-.6.5-1.4.7-2.2.7s-1.9-.3-2.7-.9l.9-1.6c.5.4,1.1.8,1.8.8s1-.2,1-.8-.8-.8-1.2-.9c-1.3-.4-2.1-.7-2.1-2.2s1.1-2.6,2.7-2.6,1.7.2,2.4.6l-.8,1.6h0Z"/>
      <path class="st0" d="M60.6,7.7v3.9h0c.4-.6,1-.8,1.7-.8,1.3,0,2,.9,2,2.2v3.2h-1.9v-2.7c0-.6,0-1.2-.8-1.2s-1,.6-1,1.2v2.7h-1.9V7.7s1.9,0,1.9,0Z"/>
      <path class="st0" d="M69.2,12.8c0-.5-.6-.8-1.1-.8s-1,.3-1.1.8h2.2ZM70.9,13.9h-3.9c0,.8.4,1.2,1.2,1.2s.7-.1.9-.5h1.8c-.3,1.2-1.5,1.8-2.7,1.8-1.8,0-3.1-1-3.1-2.8s1.2-2.8,2.9-2.8,2.9,1.1,2.9,2.9v.2h0Z"/>
      <rect class="st0" x="71.7" y="7.7" width="1.9" height="8.5"/>
      <rect class="st0" x="74.8" y="7.7" width="1.9" height="8.5"/>
      <polygon class="st0" points="83.4 14.5 85.8 14.5 85.8 16.2 81.4 16.2 81.4 8.5 83.4 8.5 83.4 14.5"/>
      <path class="st0" d="M88.2,10.9v2.8c0,.7.2,1.1.9,1.1s.9-.5.9-1.1v-2.8h1.9v3.2c0,1.7-1.2,2.3-2.8,2.3s-2.8-.5-2.8-2.3v-3.2h1.9,0Z"/>
      <path class="st0" d="M94.8,13.6c0,.7.4,1.2,1.2,1.2s1.2-.5,1.2-1.2-.4-1.2-1.2-1.2-1.2.5-1.2,1.2M93,7.7h1.9v3.8c.4-.5,1-.7,1.6-.7,1.6,0,2.6,1.3,2.6,2.8s-1.1,2.8-2.7,2.8-1.2-.2-1.6-.8h0v.6h-1.9V7.7h0Z"/>
      <path class="st0" d="M101.9,11.8h0c.4-.6,1-.9,1.7-.9h.4v1.8c-.3-.1-.5-.2-.8-.2-1,0-1.3.7-1.3,1.6v2.1h-1.9v-5.3h1.9v.9h0Z"/>
      <path class="st0" d="M106.5,16.2h-1.9v-5.3h1.9v5.3ZM106.6,8.9c0,.6-.5,1.1-1.1,1.1s-1.1-.5-1.1-1.1.5-1.1,1.1-1.1,1.1.5,1.1,1.1"/>
      <path class="st0" d="M111.5,12.7c-.3-.2-.6-.4-1-.4-.7,0-1.3.6-1.3,1.3s.5,1.3,1.3,1.3.7-.1.9-.4v1.6c-.4.2-.9.3-1.3.3-1.6,0-2.9-1.2-2.9-2.8s1.3-2.9,2.9-2.9.9.1,1.2.3v1.6h0Z"/>
      <path class="st0" d="M114.2,13.6c0,.7.4,1.2,1.2,1.2s1.2-.5,1.2-1.2-.4-1.2-1.2-1.2-1.2.6-1.2,1.2M118.4,16.2h-1.9v-.6h0c-.3.5-1,.8-1.6.8-1.6,0-2.7-1.3-2.7-2.8s1.1-2.8,2.6-2.8,1.2.2,1.6.7v-.5h1.9v5.3h0Z"/>
      <path class="st0" d="M121.5,11.6h0c.4-.6.9-.9,1.7-.9,1.4,0,2,.9,2,2.2v3.3h-1.9v-2.6c0-.5,0-1.4-.8-1.4s-1,.6-1,1.2v2.7h-1.9v-5.3h1.9v.7h0Z"/>
      <polygon class="st0" points="128.4 16.2 126.5 16.2 126.5 12.5 125.9 12.5 125.9 10.9 126.5 10.9 126.5 9.4 128.4 9.4 128.4 10.9 129.4 10.9 129.4 12.5 128.4 12.5 128.4 16.2"/>
      <path class="st0" d="M133.5,12.3c-.3-.1-.7-.3-1-.3s-.6,0-.6.4.6.4.8.5c.9.2,1.5.6,1.5,1.6,0,1.4-1.3,2-2.5,2s-1.5-.2-2.1-.6l.7-1.3c.4.3,1,.5,1.5.5s.6-.1.6-.4-.6-.4-1.2-.6c-.6-.1-1.2-.4-1.2-1.4s1.2-1.9,2.3-1.9,1.2,0,1.7.3l-.6,1.2h0Z"/>
      <path class="st0" d="M54.2,26.6h.5c1.2,0,2.2-.7,2.2-2.2s-.9-2.2-2.2-2.2h-.5v4.3ZM52.2,20.6h2.9c2.2,0,3.9,1.7,3.9,3.9s-1.8,3.9-3.9,3.9h-2.9v-7.8h0Z"/>
      <path class="st0" d="M61.7,28.3h-1.9v-5.3h1.9v5.3ZM61.8,21c0,.6-.5,1-1,1s-1-.5-1-1,.5-1,1-1,1,.5,1,1"/>
      <path class="st0" d="M66.4,24.4c-.3-.1-.7-.3-1-.3s-.6,0-.6.4.6.4.8.5c.9.2,1.5.6,1.5,1.6,0,1.4-1.3,2-2.5,2s-1.5-.2-2.1-.6l.7-1.3c.4.3,1,.5,1.5.5s.6-.1.6-.4-.6-.4-1.2-.6c-.6-.1-1.2-.4-1.2-1.4s1.2-1.9,2.3-1.9,1.2,0,1.7.3l-.6,1.2h0Z"/>
      <polygon class="st0" points="70.2 28.3 68.3 28.3 68.3 24.6 67.7 24.6 67.7 23 68.3 23 68.3 21.5 70.2 21.5 70.2 23 71.2 23 71.2 24.6 70.2 24.6 70.2 28.3"/>
      <path class="st0" d="M73.6,23.9h0c.4-.6,1-.9,1.7-.9h.4v1.8c-.3-.1-.5-.2-.8-.2-1,0-1.3.7-1.3,1.6v2.1h-1.9v-5.3h1.9s0,.9,0,.9Z"/>
      <path class="st0" d="M78.3,28.3h-1.9v-5.3h1.9v5.3ZM78.4,21c0,.6-.5,1-1.1,1s-1.1-.5-1.1-1,.5-1,1.1-1,1.1.5,1.1,1"/>
      <path class="st0" d="M81.2,25.7c0,.7.4,1.2,1.2,1.2s1.2-.5,1.2-1.2-.4-1.2-1.2-1.2-1.2.5-1.2,1.2M79.4,19.8h1.9v3.8c.4-.5,1-.7,1.6-.7,1.6,0,2.6,1.3,2.6,2.8s-1.1,2.8-2.7,2.8-1.2-.2-1.6-.8h0v.6h-1.9v-8.5h0Z"/>
      <path class="st0" d="M88.2,23v2.8c0,.7.2,1.1.9,1.1s.9-.5.9-1.1v-2.8h1.9v3.2c0,1.7-1.2,2.3-2.8,2.3s-2.8-.5-2.8-2.3v-3.2h1.9,0Z"/>
      <polygon class="st0" points="95.2 28.3 93.3 28.3 93.3 24.6 92.7 24.6 92.7 23 93.3 23 93.3 21.5 95.2 21.5 95.2 23 96.2 23 96.2 24.6 95.2 24.6 95.2 28.3"/>
      <path class="st0" d="M98.4,25.7c0,.7.4,1.2,1.2,1.2s1.2-.5,1.2-1.2-.4-1.2-1.2-1.2-1.2.5-1.2,1.2M102.7,25.7c0,1.8-1.5,2.8-3.2,2.8s-3.2-1-3.2-2.8,1.5-2.8,3.2-2.8,3.2,1,3.2,2.8"/>
      <path class="st0" d="M105.4,23.9h0c.4-.6,1-.9,1.7-.9h.4v1.8c-.3-.1-.5-.2-.8-.2-1,0-1.3.7-1.3,1.6v2.1h-1.9v-5.3h1.9s0,.9,0,.9Z"/>
      <path class="st0" d="M32.3,19.7l-5.4,3.9-.7,5.3h-6.6l-1,.7c-.2.2-.5.3-.8.3s-.6,0-.8-.3l-1-.7h-6.6l-.7-5.3-5.4-3.9c-.2-.6-.2-1.2-.2-1.9,0-1.1.2-2.1.7-3.1l9.6,9.7L4,12.9c.4-1.5,1.2-2.8,2.3-3.9l8.4,14.4L7.3,7.7c1-1.3,2.3-2.2,3.8-2.7l5.1,17.9-3.7-18.6c1.1-.6,2.4-1,3.7-1s.5,0,.8,0l.8,19.4.8-19.4c.3,0,.5,0,.8,0,1.3,0,2.6.3,3.7,1l-3.7,18.7,5.1-17.9c1.5.5,2.9,1.4,3.8,2.7l-7.4,15.8,8.4-14.4c1.2,1,2,2.4,2.3,3.9l-9.3,11.5,9.6-9.7c.4,1,.7,2,.7,3.1s0,1.3-.2,1.9M17.8,0C8,0,0,8,0,17.8s.1,2.4.4,3.6l5.5,4,.8,6.7h9l.5.4c.5.3,1,.5,1.6.5s1.1-.2,1.6-.5l.5-.4h9l.8-6.7,5.5-4c.2-1.2.4-2.4.4-3.6,0-9.9-8-17.8-17.8-17.8"/>
    </g>
  </g>
</svg>