<?xml version="1.0" encoding="UTF-8"?>
<svg id="Layer_1" xmlns="http://www.w3.org/2000/svg" width="148" height="35" version="1.1" viewBox="0 0 148 35">
  <!-- Generator: Adobe Illustrator 30.5.1, SVG Export Plug-In . SVG Version: 2.1.4 Build 3)  -->
  <defs>
    <style>
      .st0 {
        fill: #fff;
      }
    </style>
  </defs>
  <path class="st0" d="M30.7,22.1h6.6c0-.5,0-1.3,0-2.5,0-1.1,0-2,0-2.5h14.7v-3.4h-14.7v-1.6h14.8v-3.3h-21.5s0,13.3,0,13.3Z"/>
  <path class="st0" d="M53.3,17.1v1.7c0,.9.2,1.5.4,1.8.4.7,1,1.1,2.1,1.3.7.1,1.8.2,3.3.2h9.6c1.5,0,2.5,0,3-.1.9-.1,1.5-.4,2.1-.8.4-.3.8-.8.9-1.5,0-.2,0-.9,0-2.2v-8.6h-6.8v8.9c0,.4-.2.6-.3.7-.2.1-.4.3-1.2.4h-4.1c-.5,0-.9,0-1.2,0-.4,0-.7-.1-.9-.3-.2-.2-.2-.4-.2-1v-8.6h-6.8v8.3h0Z"/>
  <path class="st0" d="M79.2,8.8c-.9,0-1.6.3-2.1.6-.6.4-1.3,1.2-1.3,2.4v6.5c0,1.6.2,1.9.5,2.3.5.6,1.3,1.2,2.5,1.3.6,0,1.8,0,3.7,0h14.8v-3.3h-12.2c-1.1,0-1.9-.1-2.3-.5-.5-.4-.5-.9-.5-2.1v-2.7c0-.6.4-.9.9-1.1.4-.1.9-.2,1.6-.2h12.5v-3.4h-18.2,0Z"/>
  <path class="st0" d="M10.9,12.5l-4.3-5,2.1,9.9,1.6,1,.3,1.2-1.5-.6.3,1.2,1.4.6v.5c.1,0-1.3-.5-1.3-.5l.3,1.2,1.4.5v.4c.1,0-1.2-.5-1.2-.5l.3,1.2,1.2.5.2.7h2.7l.2-.7,1.3-.5.3-1.2-1.3.5v-.5c.1,0,1.5-.6,1.5-.6l.3-1.2-1.4.6v-.5c.1,0,1.6-.6,1.6-.6l.3-1.2-1.5.6.3-1.3,1.4-.9,2.4-9.9-4.5,5h-4.6ZM17.9,11.3l-1.3,5.5-1.4.9-1.6,6.2h-1.1l-1.5-6.1-1.5-1-1.2-5.4,2,2.3h5.5s2-2.3,2-2.3Z"/>
  <polygon class="st0" points="12.8 16.3 10.4 16.3 12.8 17.9 12.8 16.3"/>
  <polygon class="st0" points="15.9 16.3 13.5 16.3 13.5 17.9 15.9 16.3"/>
  <path class="st0" d="M13.1,2.9C6.2,2.9.6,8.6.6,15.5s5.6,12.6,12.6,12.6,12.6-5.6,12.6-12.6S20.1,2.9,13.1,2.9M13.1,27c-6.3,0-11.5-5.2-11.5-11.5S6.8,4,13.1,4s11.5,5.2,11.5,11.5-5.2,11.5-11.5,11.5"/>
  <polygon class="st0" points="98.4 22.1 105.2 22.1 105.2 17.2 113.5 17.2 113.5 22.1 120.2 22.1 120.2 8.8 113.5 8.8 113.5 13.8 105.2 13.8 105.2 8.8 98.4 8.8 98.4 22.1"/>
  <path class="st0" d="M124.7,8.8c-1.7,0-3.4.6-3.4,3.3s0,2.2,0,2.4c0,.5.2.9.4,1.1.4.7,1.2,1.1,2.3,1.3.7.1,1.8.2,3.4.2h8.8c.4,0,.8.3.8.8s-.4.8-.9.8c-.5,0-4.4,0-4.7,0h-10v3.4h15c1.9,0,3.2,0,3.7,0,1.4-.2,2.9-1.5,2.9-3.2s0-.2,0-1.7c0-2.3-1.4-2.9-2.7-3.2-.8-.2-1.9-.1-3.8-.1h-7.5c-.4,0-.8-.2-.9-.8,0-.5.4-.8.8-.8h14.1v-3.3h-18.2"/>
  <path class="st0" d="M147.1,20.5c0,.2,0,.5-.2.7s-.3.4-.5.5c-.2.1-.4.2-.7.2s-.5,0-.7-.2h0c-.2-.1-.4-.3-.5-.5-.1-.2-.2-.4-.2-.7s0-.5.2-.7c.1-.2.3-.4.5-.5.2-.1.4-.2.7-.2s.4,0,.7.2h0c.2.1.4.3.5.5.1.2.2.4.2.7M147.4,20.5c0-.3,0-.6-.2-.8s-.4-.5-.6-.6-.5-.2-.8-.2-.6,0-.8.2c-.3.1-.5.4-.6.6s-.2.5-.2.8,0,.6.2.8.4.5.6.6c.3.1.5.2.8.2s.6,0,.8-.2.5-.4.6-.6c.1-.3.2-.5.2-.8"/>
  <path class="st0" d="M146.1,20.2s0,.1,0,.1c0,0,0,0-.1,0,0,0-.2,0-.4,0h-.1v-.5h.1c.2,0,.3,0,.4,0,0,0,0,0,.1,0,0,0,0,0,0,.1M146.3,20.5c0,0,.1-.2.1-.3s0-.2,0-.2c0,0-.1-.1-.2-.2,0,0-.2,0-.3,0h-.9v1.8h.4v-.7h0c.1,0,.2,0,.2,0,0,0,.1.2.2.4v.3h.6l-.2-.4c0-.1-.1-.2-.1-.2,0,0,0-.1-.1-.1,0,0,0,0-.1,0,.1,0,.3,0,.4-.2"/>
  <path class="st0" d="M89.5,27.1h.7l1.9,5h-.7l-.5-1.5h-2.1l-.6,1.5h-.7s1.9-5,1.9-5ZM89,30h1.7l-.8-2.3h0l-.8,2.3Z"/>
  <polygon class="st0" points="96.1 27.7 94.4 27.7 94.4 27.1 98.4 27.1 98.4 27.7 96.7 27.7 96.7 32.1 96.1 32.1 96.1 27.7"/>
  <polygon class="st0" points="99.1 27.1 102.6 27.1 102.6 27.7 99.8 27.7 99.8 29.2 102.4 29.2 102.4 29.8 99.8 29.8 99.8 31.5 102.6 31.5 102.6 32.1 99.1 32.1 99.1 27.1"/>
  <polygon class="st0" points="108.5 27.1 111.9 27.1 111.9 27.7 109.2 27.7 109.2 29.2 111.8 29.2 111.8 29.8 109.2 29.8 109.2 31.5 112 31.5 112 32.1 108.5 32.1 108.5 27.1"/>
  <polygon class="st0" points="114.1 29.5 112.5 27.1 113.3 27.1 114.5 29 115.8 27.1 116.6 27.1 114.9 29.5 116.7 32.1 115.9 32.1 114.5 30 113.2 32.1 112.4 32.1 114.1 29.5"/>
  <path class="st0" d="M130.8,27.1h.7l1.9,5h-.7l-.5-1.5h-2.1l-.6,1.5h-.7l1.9-5h0ZM130.3,30h1.7l-.8-2.3h0l-.8,2.3h0Z"/>
  <polygon class="st0" points="134.1 27.1 134.8 27.1 137.4 31.1 137.4 31.1 137.4 27.1 138.1 27.1 138.1 32.1 137.3 32.1 134.8 28.1 134.7 28.1 134.7 32.1 134.1 32.1 134.1 27.1"/>
  <path class="st0" d="M103.6,27.1h2.3c.9,0,1.5.5,1.5,1.3s-.3,1.1-.9,1.3h0c.6.1.7.5.8,1,0,.5,0,1,.3,1.4h-.7c-.2-.2,0-.7-.2-1.2,0-.5-.2-.9-.8-.9h-1.6v2.1h-.7v-5h0ZM105.6,29.4c.6,0,1.2-.2,1.2-.9s-.3-.9-.9-.9h-1.6v1.7h1.4Z"/>
  <path class="st0" d="M119.5,27.1h1.8c.4,0,1,0,1.3.2.3.2.6.5.6,1s-.3.9-.7,1.1h0c.6.1.9.6.9,1.2s-.5,1.4-1.5,1.4h-2.4v-5h0ZM120.2,29.2h1.3c.8,0,1.1-.3,1.1-.8s-.5-.8-1.1-.8h-1.3v1.6ZM120.2,31.5h1.7c.6,0,.9-.4.9-.9s-.5-.8-1.1-.8h-1.5v1.7Z"/>
  <path class="st0" d="M124.5,27.1h2.3c.9,0,1.5.5,1.5,1.3s-.3,1.1-.9,1.3h0c.6.1.7.5.8,1,0,.5,0,1,.3,1.4h-.7c-.2-.2,0-.7-.2-1.2,0-.5-.2-.9-.8-.9h-1.6v2.1h-.7v-5h0ZM126.5,29.4c.6,0,1.2-.2,1.2-.9s-.3-.9-.9-.9h-1.6v1.7h1.4,0Z"/>
  <path class="st0" d="M139.3,27.1h1.7c1.5,0,2.4.8,2.4,2.4s-.7,2.6-2.4,2.6h-1.7s0-5,0-5ZM140,31.5h1.1c.4,0,1.7-.1,1.7-2s-.4-1.9-1.7-1.9h-1.1s0,3.9,0,3.9Z"/>
</svg>