<?xml version="1.0" encoding="UTF-8"?>
<svg id="Layer_1" data-name="Layer 1" xmlns="http://www.w3.org/2000/svg" viewBox="0 0 148 35">
  <path d="M30.69,22.11h6.65c0-.51,0-1.34.02-2.5.01-1.15.02-1.97.02-2.45h14.74v-3.42h-14.74v-1.6h14.82v-3.34h-21.51v13.31Z"/>
  <path d="M53.28,17.09c0,.16,0,1.5,0,1.7,0,.89.21,1.49.42,1.81.44.68,1.04,1.12,2.07,1.31.66.13,1.77.2,3.34.2h9.6c1.48,0,2.47-.03,3-.1.92-.12,1.53-.4,2.12-.83.43-.32.83-.83.92-1.53.02-.2.03-.94.03-2.23v-8.62h-6.82v6.99s0,1.63,0,1.94c-.01.4-.16.6-.26.69-.15.15-.42.31-1.21.35h-4.11c-.5.01-.89,0-1.18-.02-.41-.02-.71-.14-.88-.33-.18-.19-.24-.37-.24-1.05,0-.16,0-1.18,0-1.29v-7.28h-6.82v8.29Z"/>
  <path d="M79.21,8.8c-.94.08-1.6.3-2.06.65-.59.44-1.27,1.22-1.29,2.45,0,.78,0,6.5,0,6.5.02,1.56.2,1.93.46,2.3.49.65,1.26,1.18,2.49,1.34.55.08,1.81.07,3.72.07h14.82v-3.34h-10.21c-.2,0-1.77,0-2,0-1.09,0-1.88-.11-2.29-.46-.48-.42-.52-.94-.52-2.1,0,0,0-2.68,0-2.72.02-.55.45-.9.91-1.1.36-.14.89-.22,1.62-.22h12.49v-3.37h-18.15Z"/>
  <path d="M10.88,12.48l-4.35-5,2.11,9.89,1.55.96.3,1.23-1.47-.58.33,1.22,1.44.58.12.5-1.39-.55.33,1.22,1.35.54.11.44-1.28-.51.33,1.22,1.25.5.17.71h2.72l.19-.73,1.33-.53.33-1.22-1.34.53.12-.45,1.4-.57.33-1.22-1.42.57.13-.5,1.46-.59.33-1.22-1.48.59.33-1.27,1.36-.86,2.36-9.93-4.48,5.02h-4.55ZM17.93,11.27l-1.29,5.45-1.35.85-1.6,6.23h-1.08l-1.49-6.14-1.54-.96-1.16-5.45,1.98,2.28h5.51l2.02-2.26Z"/>
  <polygon points="12.81 16.29 10.42 16.29 12.81 17.88 12.81 16.29"/>
  <polygon points="15.9 16.28 13.51 16.29 13.51 17.87 15.9 16.28"/>
  <path d="M13.14,2.92C6.22,2.92.58,8.56.58,15.49s5.64,12.57,12.57,12.57,12.57-5.64,12.57-12.57S20.08,2.92,13.14,2.92M13.14,27c-6.34,0-11.51-5.16-11.51-11.51S6.8,3.98,13.14,3.98s11.51,5.16,11.51,11.51-5.16,11.51-11.51,11.51"/>
  <polygon points="98.43 22.11 105.17 22.11 105.17 17.21 113.5 17.21 113.5 22.11 120.22 22.11 120.22 8.8 113.5 8.8 113.5 13.76 105.17 13.76 105.17 8.8 98.43 8.8 98.43 22.11"/>
  <path d="M124.66,8.8c-1.72.05-3.38.58-3.38,3.28,0,.29,0,2.23.01,2.4.04.51.19.89.36,1.14.43.66,1.19,1.11,2.26,1.33.71.14,1.85.22,3.41.22h5.51l3.26.02c.37.04.82.24.82.77s-.42.75-.85.75c-.53.04-4.42.02-4.7.02h-10.01v3.39h14.99c1.94,0,3.18.02,3.68-.06,1.42-.21,2.91-1.54,2.91-3.25,0-.21.04-.2,0-1.72-.07-2.34-1.37-2.92-2.7-3.21-.77-.17-1.87-.13-3.81-.13h-6.65c-.68,0-.61,0-.86,0-.37,0-.84-.24-.86-.77.01-.48.38-.81.81-.83.12,0,.24,0,.95,0h13.11v-3.34s-18,0-18.25,0"/>
  <path d="M147.1,20.54c0,.23-.06.46-.18.67s-.28.38-.5.5c-.21.12-.43.18-.67.18s-.46-.06-.67-.18c0,0,0,0,0,0-.21-.12-.38-.28-.5-.5-.12-.21-.18-.43-.18-.67s.06-.46.18-.68c.12-.22.29-.38.5-.5.21-.11.43-.17.66-.17s.45.06.66.17c0,0,0,0,0,0,.21.11.38.28.5.49.12.22.18.44.18.68M147.42,20.54c0-.29-.08-.57-.23-.84-.15-.27-.36-.47-.62-.62s-.54-.22-.82-.22-.56.07-.82.22c-.26.14-.47.35-.62.62-.15.27-.22.55-.22.84s.07.57.22.83c.15.26.35.47.62.62.26.15.54.22.83.22s.57-.07.83-.22c.26-.15.47-.35.62-.62.15-.26.22-.54.22-.83"/>
  <path d="M146.06,20.17c0,.05-.01.1-.04.14-.03.04-.07.07-.12.08-.05.02-.18.02-.39.02h-.15v-.48h.15c.2,0,.33,0,.39.02.05.02.09.04.12.08.03.04.04.08.04.13M146.31,20.49c.08-.09.13-.2.13-.33,0-.09-.02-.18-.07-.25-.05-.08-.1-.13-.17-.17-.07-.04-.16-.06-.28-.07-.04,0-.23,0-.57,0h-.36v1.77h.36v-.73h.09c.1,0,.18.02.25.07.06.05.15.17.25.37l.15.29h.44l-.21-.36c-.07-.13-.12-.2-.13-.22-.05-.07-.09-.11-.12-.14-.03-.02-.07-.05-.12-.07.15-.02.27-.08.35-.17"/>
  <path d="M89.49,27.11h.73l1.94,4.97h-.73l-.54-1.5h-2.1l-.56,1.5h-.68l1.94-4.97ZM89,30.02h1.68l-.83-2.32h-.01l-.84,2.32Z"/>
  <polygon points="96.08 27.66 94.42 27.66 94.42 27.11 98.4 27.11 98.4 27.66 96.74 27.66 96.74 32.08 96.08 32.08 96.08 27.66"/>
  <polygon points="99.13 27.11 102.57 27.11 102.57 27.66 99.79 27.66 99.79 29.24 102.38 29.24 102.38 29.8 99.79 29.8 99.79 31.52 102.59 31.52 102.59 32.08 99.13 32.08 99.13 27.11"/>
  <polygon points="108.52 27.11 111.95 27.11 111.95 27.66 109.18 27.66 109.18 29.24 111.77 29.24 111.77 29.8 109.18 29.8 109.18 31.52 111.98 31.52 111.98 32.08 108.52 32.08 108.52 27.11"/>
  <polygon points="114.14 29.52 112.51 27.11 113.3 27.11 114.54 29.05 115.83 27.11 116.57 27.11 114.93 29.52 116.68 32.08 115.87 32.08 114.53 30.02 113.15 32.08 112.41 32.08 114.14 29.52"/>
  <path d="M130.77,27.11h.73l1.94,4.97h-.73l-.54-1.5h-2.1l-.56,1.5h-.68l1.94-4.97ZM130.27,30.02h1.68l-.83-2.32h-.02l-.84,2.32Z"/>
  <polygon points="134.11 27.11 134.81 27.11 137.43 31.14 137.44 31.14 137.44 27.11 138.07 27.11 138.07 32.08 137.34 32.08 134.75 28.09 134.73 28.09 134.73 32.08 134.11 32.08 134.11 27.11"/>
  <path d="M103.57,27.11h2.34c.93,0,1.51.51,1.51,1.3,0,.6-.26,1.09-.86,1.26h0c.58.12.7.55.75,1.04.04.49.01,1.03.29,1.37h-.74c-.19-.2-.08-.74-.18-1.23-.07-.49-.19-.9-.83-.9h-1.62v2.12h-.66v-4.97ZM105.61,29.4c.62,0,1.15-.16,1.15-.88,0-.49-.27-.85-.89-.85h-1.64v1.73h1.38Z"/>
  <path d="M119.51,27.11h1.8c.44,0,1.02,0,1.32.18.33.19.59.55.59,1.04,0,.53-.28.93-.74,1.12h0c.61.14.95.6.95,1.21,0,.73-.52,1.43-1.51,1.43h-2.4v-4.97ZM120.17,29.24h1.32c.75,0,1.06-.27,1.06-.79,0-.69-.49-.79-1.06-.79h-1.32v1.58ZM120.17,31.52h1.66c.57,0,.93-.35.93-.89,0-.65-.52-.83-1.08-.83h-1.51v1.72Z"/>
  <path d="M124.47,27.11h2.34c.93,0,1.51.51,1.51,1.3,0,.6-.26,1.09-.86,1.26h0c.58.12.7.55.75,1.04.04.49.01,1.03.29,1.37h-.74c-.19-.2-.08-.74-.18-1.23-.07-.49-.19-.9-.83-.9h-1.62v2.12h-.66v-4.97ZM126.51,29.4c.62,0,1.15-.16,1.15-.88,0-.49-.26-.85-.88-.85h-1.64v1.73h1.38Z"/>
  <path d="M139.32,27.11h1.71c1.53,0,2.39.77,2.39,2.37s-.73,2.6-2.39,2.6h-1.71v-4.97ZM139.98,31.52h1.1c.45,0,1.67-.13,1.67-1.96,0-1.18-.44-1.9-1.66-1.9h-1.11v3.86Z"/>
</svg>