<?xml version="1.0" encoding="UTF-8"?>
<svg id="Layer_1" xmlns="http://www.w3.org/2000/svg" width="110" height="35" version="1.1" viewBox="0 0 110 35">
  <!-- Generator: Adobe Illustrator 30.5.1, SVG Export Plug-In . SVG Version: 2.1.4 Build 3)  -->
  <defs>
    <style>
      .st0 {
        fill: #fff;
      }
    </style>
  </defs>
  <g id="b">
    <g>
      <path class="st0" d="M56.6,7.2h-1c-.2,0-.3-.1-.3-.3v-.6c0-.2.1-.3.3-.3h3.3c.8,0,1.5.7,1.5,1.5v10.7c0,.2.1.3.3.3h1.2c.2,0,.3.1.3.3v.6c0,.2-.1.3-.3.3h-6.2c-.2,0-.3-.1-.3-.3v-.6c0-.2.1-.3.3-.3h1c.2,0,.3-.1.3-.3V7.6c0-.2-.2-.4-.4-.4M63.8,10h-1c-.2,0-.3-.1-.3-.3v-.6c0-.2.1-.3.3-.3h3.4c.8,0,1.5.7,1.5,1.5v7.9c0,.2.1.3.3.3h1.2c.2,0,.3.1.3.3v.6c0,.2-.1.3-.3.3h-6.2c-.2,0-.3-.1-.3-.3v-.6c0-.2.1-.3.3-.3h1c.2,0,.3-.1.3-.3v-7.7c0-.3,0-.6-.4-.6M93.3,18.2h0c0,.2-.1.3-.3.3h-1c-.2,0-.3.1-.3.3v.6c0,.2.1.3.3.3h5.9c.2,0,.3-.1.3-.3v-.6c0-.2-.1-.3-.3-.3h-.9c-.2,0-.3-.1-.3-.3v-6.4c0-.8.7-1.5,1.5-1.5s1.6.7,1.6,1.5v6.4c0,.2-.1.3-.3.3h-.7c-.2,0-.3.1-.3.3v.6c0,.2.1.3.3.3h5.9c.2,0,.3-.1.3-.3v-.6c0-.2-.1-.3-.3-.3h-1.2c-.2,0-.3-.1-.3-.3v-6.6c0-2-1.6-2.9-3.4-2.9s-2.1.3-3,1.1c-.2,0-.2,0-.2,0-.2-.5-.7-.9-1.4-.9h-3.3c-.2,0-.3.1-.3.3v.6c0,.2.1.3.3.3h1c.2,0,.4.2.4,8.2M49.8,18.2c0,.2-.1.3-.3.3h-1.2c-.1,0-.2,0-.2-.2l-3.5-10.9c-.2-.7-.7-1.3-1.5-1.3h-3.4c-.4,0-.7.3-.8.7l-3.5,11.5c0,.2-.2.2-.4.2h-1.8c-.2,0-.3.1-.3.3v.6c0,.2.1.3.3.3h6.2c.2,0,.3-.1.3-.3v-.6c0-.2-.1-.3-.3-.3h-1.8c-.1,0-.3-.1-.3-.3h0c0,0,1.1-3.8,1.1-3.8,0,0,.1-.1.2-.1h3.7c0,0,.2,0,.2.1l1.2,3.7h0c0,.2-.1.4-.3.4h-1.8c-.2,0-.3.1-.3.3v.6c0,.2.1.3.3.3h13.2c.2,0,.3-.1.3-.3v-.6c0-.2-.2-.3-.3-.3h-1.1c-.2,0-.3-.1-.3-.3V7.5c0-.8-.7-1.5-1.4-1.5h-3.4c-.2,0-.3.2-.3.3v.6c0,.2.1.3.3.3h1c.1,0,.3,0,.3,1.3v9.7c0,0,0,0,0,0ZM79.6,16c0,1.9-1.6,3.3-3.7,3.7-1.8.3-3.7.3-6-.3-.1,0-.2-.1-.2-.2v-3.1c0-.2.1-.3.3-.3h1.4c.2,0,.3.1.3.3v.5c0,1,0,2.2,1.9,2.2s2.1-.7,2.2-1.2c.1-.4.2-1.6-1.4-2-1.1-.3-1.6-.3-2.8-.7-2.7-.8-2.6-5.4,1.1-6.1,1.8-.3,3.5-.3,5.9.3.1,0,.2.1.2.2v2.3c0,.2-.1.3-.3.3h-1.3c-.2,0-.3-.1-.3-.3v-.2c0-.6-.1-1.7-1.9-1.7s-1.9,1-1.9,1.4.1,1,1.3,1.3c1.1.2,1.8.4,2.7.7.7.2,2.4.9,2.4,3M86,19.9c-3.7,0-5.7-2.1-5.7-5.7s2-5.6,5.7-5.6,5.7,1.9,5.7,5.6-2.1,5.7-5.7,5.7M84.1,10.9c-.1.8-.2,1.9-.2,3.3s0,2.4.2,3.2c.2,1,.8,1.3,1.8,1.3s1.6-.3,1.8-1.2c.2-.9.2-1.9.2-3.3s0-2.5-.2-3.3c-.2-1-.8-1.2-1.8-1.2s-1.6.3-1.8,1.3M40.5,7.9l1.4,4.5h0c0,.1,0,.2-.1.2h-2.8c-.1,0-.2,0-.2-.2h0s1.4-4.5,1.4-4.5c0,0,0-.1.1-.1s.1,0,.2.1"/>
      <path class="st0" d="M74.3,24.5c0-.1-.1-.2-.2-.2h-.5c0,0-.2,0-.2-.2v-.3c0,0,0-.2.2-.2h1.8c.4,0,.8.4.8.8v4.2c0,0,0,.2.2.2h.6c0,0,.1,0,.1.1v.4c0,0,0,.1-.1.1h-3.3c0,0-.2,0-.2-.1v-.4c0,0,0-.1.2-.1h.6c0,0,.2,0,.2-.2v-4.2s0,4.2,0,0M89.5,24.5c0-.1,0-.2-.2-.2h-.5c0,0-.1,0-.1-.2v-.3c0,0,0-.2.1-.2h1.8c.4,0,.8.4.8.8v4.2c0,0,0,.2.2.2h.6c0,0,.2,0,.2.1v.4c0,0,0,.1-.2.1h-3.3c-.1,0-.2,0-.2-.1v-.4c0,0,0-.1.2-.1h.5c0,0,.2,0,.2-.2v-4.2s0,4.2,0,0M88.3,27.5c0,1-.8,1.8-1.9,2-1,.2-1.9.2-3.2-.1,0,0,0,0,0-.2v-1.7c0,0,0-.1.1-.1h.8c0,0,.2,0,.2.1v.3c0,.5,0,1.2,1,1.2s1.1-.4,1.2-.6c0-.2,0-.9-.7-1-.5-.2-.8-.2-1.5-.4-1.4-.4-1.4-2.9.6-3.2.9-.2,1.9-.1,3.1.2,0,0,.1,0,.1.1v1.2c0,0,0,.2-.2.2h-.7c0,0-.2,0-.2-.2h0c0-.4,0-1-1.1-1s-1,.5-1,.7,0,.5.7.7c.6.1.9.2,1.4.4.3.1,1.2.5,1.2,1.6M95.3,29.6c-1.9,0-3-1.1-3-3s1.1-3,3-3,3.1,1,3.1,3-1.1,3-3.1,3M94.5,24.8c0,.4-.1,1-.1,1.7s0,1.3.1,1.8c0,.5.4.7.9.7s.9-.2.9-.7c.1-.5.1-1,.1-1.8s0-1.3,0-1.8c-.1-.5-.4-.7-1-.7s-.9.2-.9.7M82.6,27.5c0,1-.8,1.8-1.9,2-1,.2-1.9.2-3.2-.1,0,0-.1,0-.1-.2v-1.7c0,0,0-.1.2-.1h.7c.1,0,.2,0,.2.1v.3c0,.5,0,1.2,1.1,1.2s1.1-.4,1.2-.6c0-.2,0-.9-.7-1-.5-.2-.8-.2-1.5-.4-1.4-.4-1.4-2.9.6-3.2,1-.2,1.9-.1,3.2.2,0,0,0,0,0,.1v1.2c0,0,0,.2-.1.2h-.7c0,0-.2,0-.2-.2h0c0-.4,0-1-1-1s-1,.5-1,.7,0,.5.7.7c.5.1.9.2,1.4.4.4.1,1.3.5,1.3,1.6M62.4,27.5c0,1-.8,1.8-2,2-.9.2-2,.2-3.2-.1,0,0-.1,0-.1-.2v-1.7c0,0,0-.1.2-.1h.8c0,0,.1,0,.1.1v.3c0,.5,0,1.2,1,1.2s1.1-.4,1.2-.6c0-.2,0-.9-.7-1-.5-.2-.8-.2-1.5-.4-1.4-.4-1.4-2.9.6-3.2,1-.2,1.9-.1,3.2.2,0,0,.1,0,.1.1v1.2c0,0,0,.2-.2.2h-.7c0,0-.1,0-.1-.2h0c0-.4,0-1-1-1s-1,.5-1,.7,0,.5.7.7c.6.1.9.2,1.4.4.4.1,1.3.5,1.3,1.6M46.3,25.6c.7-.2.7-.5.7-.7s-.2-.6-.9-.6-.9.5-.9,1.1h0c0,.2,0,.3-.2.3h-.8c0,0-.2,0-.2-.2v-1.4s0-.1.1-.1c1.1-.3,2.2-.3,3-.2.8.2,1.7.4,1.7,1.5v3.5c0,0,0,.2.1.2h.6c0,0,.2,0,.2.2v.3c0,0,0,.2-.2.2h-3.8c-2.7,0-2.6-2.5-1-3.3.5-.2.9-.4,1.5-.5M47.1,28.3v-1.9c0-.2-.2-.4-.4-.3s-.4.1-.6.3c-.5.5-.5,1.3-.5,1.6.1.7.5.8.9.8s.6-.2.6-.4M39.5,28.7h0c0,0,0,.2-.2.2h-.5c0,0-.2,0-.2.1v.4c0,0,0,.1.2.1h3.3c0,0,.1,0,.1-.1v-.3c0-.1,0-.2-.1-.2h-.6c0,0-.2,0-.2-.2v-3c0-.6.3-.8.6-1,.2-.1.7-.2.7.2v.6c0,0,.1.1.2.1h.8c0,0,.2,0,.2-.1v-1.4c0,0,0-.2-.1-.2-.1,0-.4-.2-1.1-.2-.5,0-.8.2-1.2.6,0,0,0,0,0,0,0-.4-.4-.5-.8-.5h-1.2v-1.4c0,0,0-.2-.2-.2h-6c-.1,0-.2,0-.2.2v1.9c0,0,0,.2.1.2h.9c.1,0,.2,0,.2-.2v-1.2c0-.1.1-.2.2-.2h.5c.1,0,.2,0,.2.2v5.8c0,0,0,.2-.2.2h-.5c0,0-.2,0-.2.1v.4c0,0,0,.1.2.1h3.6c0,0,.2,0,.2-.1v-.4c0,0,0-.1-.2-.1h-.6c0,0-.2,0-.2-.2v-5.8c0-.1.1-.2.2-.2h.5c.1,0,.2,0,.2.2v1.2c0,0,0,.2.2.2h1c.1,0,.2,0,.2,4.4M63.4,28.7h0c0,0,0,.2-.2.2h-.5c0,0-.2,0-.2.1v.4c0,0,0,.1.2.1h3.2c0,0,.1,0,.1-.1v-.3c0-.1,0-.2-.1-.2h-.5c0,0-.2,0-.2-.2v-3.4c0-.4.4-.8.9-.8s.9.4.9.8v3.4c0,0,0,.2-.1.2h-.5c0,0-.2,0-.2.1v.4c0,0,0,.1.2.1h3.2c0,0,.2,0,.2-.1v-.3c0-.1,0-.2-.2-.2h-.5c-.1,0-.2,0-.2-.2v-3.4c0-.4.4-.8.9-.8s.9.4.9.8v3.4c0,0,0,.2-.2.2h-.3c-.1,0-.2,0-.2.1v.4c0,0,0,.1.1.1h3.1c0,0,.2,0,.2-.1v-.3c0-.1,0-.2-.2-.2h-.6c0,0-.1,0-.1-.2v-3.5c0-1-1-1.6-1.9-1.6s-1.4.4-1.8.8c0,0-.1,0-.2,0-.3-.5-.9-.8-1.6-.8s-1.1.2-1.6.6c0,0-.1,0-.2,0-.1-.3-.4-.5-.7-.5h-1.8c0,0-.2,0-.2.2v.3c0,0,0,.2.2.2h.5c.1,0,.2,0,.2,4.4M99.3,28.7h0c0,0,0,.2-.2.2h-.6c0,0-.2,0-.2.1v.4c0,0,0,.2.2.2h3.2c0,0,.1,0,.1-.2v-.4c0,0,0-.1-.1-.1h-.5c0,0-.2,0-.2-.2v-3.4c0-.4.4-.8.8-.8s.8.4.8.8v3.4c0,0,0,.2-.2.2h-.3c0,0-.2,0-.2.1v.4c0,0,0,.2.2.2h3.1c0,0,.2,0,.2-.2v-.4c0,0,0-.1-.2-.1h-.6c0,0-.1,0-.1-.2v-3.5c0-1.1-.9-1.6-1.8-1.6s-1.1.2-1.6.6c0,0-.1,0-.2,0-.1-.3-.4-.5-.7-.5h-1.8c0,0-.2,0-.2.2v.3c0,0,0,.2.2.2h.5c.1,0,.2,0,.2,4.4M50.6,28.7h0c0,0,0,.2-.2.2h-.5c0,0-.1,0-.1.1v.4c0,0,0,.2.1.2h3.2c0,0,.2,0,.2-.2v-.4c0,0,0-.1-.2-.1h-.5c0,0-.2,0-.2-.2v-3.4c0-.4.4-.8.8-.8s.8.4.8.8v3.4c0,0,0,.2-.1.2h-.4c0,0-.2,0-.2.1v.4c0,0,0,.2.2.2h3.1c0,0,.2,0,.2-.2v-.4c0,0,0-.1-.2-.1h-.6c-.1,0-.2,0-.2-.2v-3.5c0-1.1-.9-1.6-1.8-1.6s-1.1.2-1.6.6c0,0-.1,0-.1,0-.2-.3-.4-.5-.7-.5h-1.8c0,0-.1,0-.1.2v.3c0,0,0,.2.1.2h.5c.1,0,.2,0,.2,4.4"/>
      <path class="st0" d="M19.9,16.8c-2.9-3.6-8.1-3.1-9.5,1.2,0,0,0,.1-.2.1-.1,0-.2,0-.2-.2,0-8.5,10-9.4,13-4,.2.4.3.7.3,1.2,0,1.2-1,2.1-2.1,2.1s-1-.2-1.4-.5"/>
      <path class="st0" d="M14.2,18.2c2.9,3.6,8.1,3.1,9.5-1.2,0,0,0-.1.2-.1.1,0,.2,0,.2.2,0,8.5-10,9.4-13,4-.2-.4-.3-.7-.3-1.2,0-1.2.9-2.1,2.1-2.1s1.1.2,1.4.5"/>
      <path class="st0" d="M5.1,21.6c-.5-1.4-.7-2.6-.7-4.1,0-7,5.6-12.6,12.6-12.6s8.8,2.6,11,6.4c.2.4.3.7.3,1.1,0,1.3-1,2.3-2.3,2.3s-1.3-.2-1.6-.7c-7.4-9.8-20.4-2.8-18.8,7.5,0,.1,0,.2-.2.2-.1,0-.2,0-.2-.2"/>
      <path class="st0" d="M29,13.4c.5,1.4.7,2.7.7,4.1,0,7-5.6,12.6-12.6,12.6s-8.8-2.6-11-6.4c-.2-.3-.3-.7-.3-1.1,0-1.3,1-2.3,2.3-2.3s1.2.2,1.6.7c7.4,9.8,20.4,2.8,18.8-7.6,0-.1,0-.2.2-.2.1,0,.2,0,.2.2"/>
    </g>
  </g>
</svg>