<?xml version="1.0" encoding="UTF-8"?>
<svg id="Layer_1" xmlns="http://www.w3.org/2000/svg" width="110" height="35" version="1.1" viewBox="0 0 110 35">
  <!-- Generator: Adobe Illustrator 30.5.1, SVG Export Plug-In . SVG Version: 2.1.4 Build 3)  -->
  <defs>
    <style>
      .st0 {
        fill: #fff;
      }
    </style>
  </defs>
  <g id="b">
    <path class="st0" d="M106.3,26.3c0,.4-.2.5-.5.5l.5.8h-.5l-.4-.8h-.3v.8h-.4v-1.9h.9c.4,0,.8,0,.8.6M105.5,26.5c.2,0,.3,0,.3-.3s-.2-.2-.4-.2h-.4v.5h.5ZM105.3,24.8c1,0,1.9.8,1.9,1.9s-.8,1.9-1.9,1.9-1.8-.8-1.8-1.9.8-1.9,1.8-1.9M105.3,28.1c.8,0,1.4-.6,1.4-1.4s-.6-1.4-1.4-1.4-1.4.6-1.4,1.4.6,1.4,1.4,1.4M93.6,7c6.2,0,10.2,7.8,3.3,12.4l5.9,8.2h-6.2l-4.6-6.3v6.3h-5.5V7.1h7.1ZM93.6,15.8c1.1,0,2-.9,2-2s-.9-2-2-2h-1.6v4s1.6,0,1.6,0ZM79.6,19.7h5.2v-4.6h-5.2v-3.2h5.7v-4.7h-11.4v20.6h11.5v-4.8h-5.7v-3.1h0ZM30.8,6.4c5.9,0,10.6,4.8,10.6,10.7s-4.8,10.7-10.6,10.7-10.6-4.8-10.6-10.7,4.8-10.7,10.6-10.7M30.8,22.5c2.6,0,4.8-2.4,4.8-5.3s-2.1-5.3-4.8-5.3-4.8,2.4-4.8,5.3,2.1,5.3,4.8,5.3M5,7.1v20.6h5.6v-7.3h0l6.3,7.4h7.5l-9.3-10.8,8.1-9.8h-7.3l-5.3,6.1v-6.1h-5.6ZM53.7,14.3h-5.7v-7.2h-5.6v20.6h5.6v-7.7h5.7v7.7h5.6V7.1h-5.6v7.2ZM66.3,22.4h6.3v5.3h-12V7.1h5.6v15.3Z"/>
  </g>
</svg>