<?xml version="1.0" encoding="UTF-8"?>
<svg id="Layer_1" xmlns="http://www.w3.org/2000/svg" width="138" height="35" version="1.1" viewBox="0 0 138 35">
  <!-- Generator: Adobe Illustrator 30.5.1, SVG Export Plug-In . SVG Version: 2.1.4 Build 3)  -->
  <defs>
    <style>
      .st0 {
        fill: #fff;
      }
    </style>
  </defs>
  <g id="b">
    <g>
      <path class="st0" d="M21.6,8.5c-.9,0-1.6.3-2.2.9l4.7,4.6c.6-.6.9-1.3.9-2.1s-.3-1.7-1-2.4c-.6-.6-1.4-1-2.4-1M24.1,20.9c-.9.9-2.4,2.5-4.6,4.7.6.6,1.3.9,2.2.9s1.7-.3,2.4-1,1-1.5,1-2.4-.3-1.5-.9-2.1M21.6,19.8c-.9,0-1.7.3-2.3,1-.6.6-1,1.4-1,2.3s0,.6,0,.8l4-4c-.3,0-.5,0-.8,0M18.4,11.1c0,.2-.1.5-.1.8,0,.9.3,1.7,1,2.3.6.6,1.4.9,2.4.9s.6,0,.8,0l-4-4.1h0ZM10.2,19.8c-.2,0-.4,0-.7,0l3.9,3.9c0-.2,0-.5,0-.7,0-.9-.3-1.7-.9-2.3-.6-.6-1.4-1-2.3-1M13.5,11.1c-.8.8-2.1,2.1-4,4,.3,0,.5,0,.7,0,.9,0,1.8-.3,2.4-.9.6-.6,1-1.4,1-2.3s0-.5-.1-.8M24,16.6c-.7.4-1.5.6-2.4.6-1.5,0-2.8-.5-3.8-1.6-1.1-1-1.6-2.3-1.6-3.8s.2-1.6.6-2.3l-.9-.9c-.1.1-.4.4-.9.9.4.7.5,1.5.5,2.3,0,1.5-.5,2.8-1.6,3.8-1.1,1-2.3,1.6-3.8,1.6s-1.5-.2-2.3-.5l-.8.8.8.8c.8-.3,1.6-.5,2.3-.5,1.5,0,2.8.5,3.8,1.6,1.1,1.1,1.6,2.3,1.6,3.8s-.2,1.6-.5,2.3l.8.9.8-.8c-.3-.8-.5-1.5-.5-2.4,0-1.5.5-2.8,1.6-3.8,1-1.1,2.3-1.6,3.8-1.6s1.6.2,2.4.6l.8-.8-.9-.8h0ZM7.8,20.9c-.6.6-.8,1.3-.8,2.2s.3,1.7,1,2.4,1.4,1,2.3,1,1.6-.3,2.2-.9c0,0-4.7-4.6-4.7-4.7ZM10.2,8.5c-.9,0-1.7.3-2.4,1-.7.6-1,1.4-1,2.4s.3,1.6.9,2.2l4.8-4.6c-.7-.6-1.4-.9-2.3-.9M25.5,19.4c1,1.1,1.5,2.3,1.5,3.7s-.5,2.8-1.6,3.8c-1.1,1.1-2.3,1.6-3.8,1.6s-2.7-.5-3.7-1.5l-2,2-2-2c-1.1,1-2.3,1.5-3.8,1.5s-2.8-.5-3.8-1.6c-1-1.1-1.6-2.3-1.6-3.8s.5-2.6,1.5-3.7c-.3-.3-.9-.9-1.9-2l2-2c-1-1-1.5-2.3-1.5-3.6s.5-2.8,1.6-3.8c1-1.1,2.3-1.6,3.8-1.6s2.7.5,3.8,1.5c.3-.3.9-.9,2-2,.4.4,1.1,1.1,2,1.9,1.1-1,2.3-1.5,3.7-1.5s2.8.5,3.8,1.6c1,1,1.5,2.3,1.5,3.8s-.5,2.6-1.4,3.6l1.9,1.9"/>
      <path class="st0" d="M36.9,16.8h3.3c1.2,0,2.1-.2,2.7-.6.7-.5,1.1-1.3,1.1-2.5s-.4-2.1-1.1-2.5c-.6-.4-1.5-.5-2.7-.5h-3.3v6.1h0ZM32.6,7.1h9c2.3,0,4,.7,5.2,2.1,1,1.2,1.5,2.7,1.5,4.6s-.5,3.4-1.5,4.6c-1.2,1.4-3,2-5.2,2h-4.7v7.4h-4.3"/>
      <path class="st0" d="M59.2,18.7c-.4-2.1-1.4-3.1-3.2-3.1s-2,.4-2.6,1.2c-.5.6-.7,1.2-.7,2h6.5ZM52.6,21.3c0,2.5,1.2,3.7,3.6,3.7s1.3-.2,1.9-.5c.7-.4,1.1-.8,1.3-1.4h3.7c-1.1,3.3-3.5,5-7,5s-4.2-.7-5.6-2.1-2.1-3.3-2.1-5.6.7-4.2,2-5.6c1.4-1.6,3.3-2.4,5.7-2.4s4.2.9,5.5,2.7c1.2,1.6,1.8,3.7,1.8,6.3"/>
      <path class="st0" d="M65.3,12.6h3.8v2.5h0c.7-1.1,1.3-1.9,2-2.3.7-.4,1.7-.5,3-.6.3,0,.5,0,.8.1v3.8c-.4,0-.8-.1-1.4-.1-2.9,0-4.3,1.7-4.3,5v6.7h-4"/>
      <path class="st0" d="M91.2,27.8c-.2,0-.7,0-1.5,0s-1.9,0-3.3,0l-4.6-6.9-1.3,1.3v5.6h-3.9V7.2h3.9v10.7l5.1-5.3h4.8l-5.6,5.6"/>
      <path class="st0" d="M92.2,27.7h4.1v-15.2h-4.1v15.2h0ZM92.1,9c0-.6.2-1.2.7-1.6.4-.4,1-.7,1.6-.7s1.2.2,1.6.7c.4.4.7,1,.7,1.6s-.2,1.2-.7,1.6c-.4.4-1,.6-1.6.6s-1.2-.2-1.6-.6-.7-1-.7-1.6"/>
      <path class="st0" d="M98.4,12.6h3.9v2.5h.1c.6-1,1.2-1.7,1.9-2,.8-.4,1.6-.7,2.4-.7,2.2,0,3.7.6,4.5,1.7.7.9,1.1,2.5,1.1,4.6v9.1h-4.1v-8.3c0-1.1-.2-1.9-.4-2.5-.4-.8-1.2-1.2-2.4-1.2s-1.9.5-2.4,1.3c-.3.6-.5,1.6-.5,2.9v7.7h-4"/>
      <path class="st0" d="M117.7,22.9c0,.7.4,1.3,1.1,1.9.5.4,1.2.6,2.1.6,1.9,0,2.8-.6,2.8-1.9s-.8-1.2-2.3-1.7c-.5-.1-1.3-.3-2.4-.6-1.2-.3-2-.5-2.4-.7-1.6-.7-2.4-1.8-2.4-3.3,0-3.2,2.2-4.7,6.5-4.7s6.6,1.6,6.6,4.7h-3.8c0-1.3-1-2-2.9-2s-2.2.4-2.2,1.4.8,1.4,2.3,1.7c1.1.2,1.9.4,2.4.5.8.2,1.6.4,2.2.7,1.6.7,2.3,1.9,2.3,3.4s-.7,3.2-2.1,4.1c-1.1.7-2.7,1.1-4.7,1.1s-3.6-.4-4.8-1.1c-1.5-.9-2.2-2.3-2.2-4.1"/>
      <path class="st0" d="M130.7,14.8h.5c.2,0,.4,0,.5-.1,0,0,.1-.2.1-.3s0-.1,0-.2c0,0-.1-.1-.2-.1,0,0-.2,0-.4,0h-.4v.8h0ZM130.3,16.1v-2.5h.9c.3,0,.5,0,.6,0,.1,0,.2.1.3.2,0,.1.1.2.1.4s0,.3-.2.5-.3.2-.5.2c0,0,.1,0,.2.1.1.1.2.3.4.5l.3.5h-.5l-.2-.4c-.2-.3-.3-.5-.4-.6,0,0-.2,0-.3,0h-.2v1.1h-.4,0ZM131.3,12.9c-.3,0-.6,0-.9.3s-.6.4-.7.7-.3.6-.3,1,0,.6.3,1c.2.3.4.5.7.7s.6.3,1,.3.6,0,1-.3c.3-.2.5-.4.7-.7.2-.3.3-.6.3-1s0-.7-.3-1-.4-.6-.7-.7c-.3-.2-.6-.3-.9-.3M131.3,12.5c.4,0,.8.1,1.1.3.4.2.7.5.9.9.2.4.3.8.3,1.2s-.1.8-.3,1.2c-.2.4-.5.6-.9.9-.4.2-.8.3-1.2.3s-.8-.1-1.2-.3c-.4-.2-.6-.5-.9-.9-.2-.4-.3-.8-.3-1.2s.1-.8.3-1.2c.2-.4.5-.7.9-.9.4-.2.8-.3,1.2-.3"/>
    </g>
  </g>
</svg>