<?xml version="1.0" encoding="UTF-8"?>
<svg id="Layer_2" data-name="Layer 2" xmlns="http://www.w3.org/2000/svg" viewBox="0 0 352.57 70">
  <defs>
    <style>
      .cls-1 {
        fill: #fff;
      }
    </style>
  </defs>
  <g id="Layer_1-2" data-name="Layer 1">
    <g>
      <path class="cls-1" d="M72.3,46.07h15.97c0-1.22.02-3.22.04-6,.03-2.77.04-4.73.04-5.87h35.38v-8.21h-35.38v-3.84h35.59v-8.03h-51.64v31.95Z"/>
      <path class="cls-1" d="M126.55,34.01c0,.4.01,3.6.01,4.08,0,2.13.5,3.57,1,4.35,1.07,1.62,2.5,2.68,4.98,3.16,1.57.32,4.25.48,8.03.48h23.04c3.54,0,5.94-.08,7.19-.24,2.21-.29,3.68-.96,5.1-2,1.04-.77,2-1.99,2.21-3.68.05-.48.08-2.26.08-5.35V14.12h-16.38v16.78c0,.08.02,3.92,0,4.65-.03.96-.38,1.44-.61,1.67-.37.37-1.01.74-2.9.83h-9.86c-1.2.03-2.14.02-2.84-.04-.99-.05-1.71-.35-2.12-.79-.43-.46-.58-.88-.58-2.52,0-.37.02-2.83.02-3.1V14.12h-16.38v19.89Z"/>
      <path class="cls-1" d="M188.81,14.12c-2.26.2-3.84.73-4.95,1.56-1.41,1.05-3.05,2.92-3.09,5.89-.02,1.87.02,15.6.02,15.6.06,3.75.47,4.64,1.11,5.52,1.17,1.57,3.02,2.83,5.97,3.22,1.33.19,4.35.16,8.93.16h35.59v-8.02h-24.52c-.48,0-4.24.01-4.8.01-2.61,0-4.52-.25-5.51-1.1-1.16-1.01-1.24-2.26-1.24-5.05,0,0,0-6.43,0-6.54.05-1.32,1.08-2.15,2.19-2.63.86-.34,2.15-.52,3.88-.52h29.99v-8.1h-43.57Z"/>
      <path class="cls-1" d="M24.74,22.94l-10.43-12,5.07,23.73,3.72,2.32.72,2.96-3.53-1.4.79,2.93,3.45,1.39.29,1.2-3.33-1.32.79,2.93,3.24,1.31.26,1.07-3.08-1.22.79,2.93,2.99,1.21.41,1.69h6.53l.45-1.74,3.18-1.28.79-2.93-3.22,1.28.28-1.07,3.37-1.36.79-2.93-3.41,1.36.31-1.21,3.52-1.42.79-2.93-3.55,1.41.78-3.05,3.27-2.06,5.66-23.83-10.75,12.05h-10.93ZM41.66,20.05l-3.11,13.09-3.25,2.04-3.83,14.95h-2.58l-3.57-14.74-3.69-2.29-2.79-13.09,4.75,5.47h13.22l4.85-5.42Z"/>
      <polygon class="cls-1" points="29.37 32.09 23.63 32.09 29.37 35.9 29.37 32.09"/>
      <polygon class="cls-1" points="36.78 32.07 31.04 32.08 31.05 35.89 36.78 32.07"/>
      <path class="cls-1" d="M30.18,0C13.54,0,0,13.54,0,30.18s13.54,30.18,30.18,30.18,30.17-13.53,30.17-30.18S46.82,0,30.18,0M30.18,57.81c-15.23,0-27.63-12.39-27.63-27.63S14.94,2.55,30.18,2.55s27.63,12.39,27.63,27.63-12.39,27.63-27.63,27.63"/>
      <polygon class="cls-1" points="234.93 46.07 251.11 46.07 251.11 34.31 271.12 34.31 271.12 46.07 287.25 46.07 287.25 14.12 271.12 14.12 271.12 26.03 251.11 26.03 251.11 14.12 234.93 14.12 234.93 46.07"/>
      <path class="cls-1" d="M297.92,14.12c-4.14.11-8.12,1.4-8.12,7.87-.02.71,0,5.36.03,5.76.11,1.23.46,2.13.86,2.75,1.04,1.59,2.85,2.66,5.43,3.19,1.7.34,4.44.52,8.18.52h13.22l7.83.04c.89.1,1.97.58,1.97,1.86s-1.01,1.79-2.04,1.79c-1.26.09-10.61.04-11.28.04h-24.04v8.13h35.99c4.66,0,7.65.04,8.84-.14,3.41-.51,6.98-3.7,6.98-7.8,0-.5.1-.49,0-4.13-.16-5.62-3.29-7.02-6.48-7.71-1.84-.4-4.49-.3-9.15-.3h-15.98c-1.62,0-1.47,0-2.07,0-.89.01-2.03-.57-2.07-1.85.02-1.16.91-1.95,1.94-1.98.29,0,.58,0,2.28,0h31.47v-8.03s-43.21,0-43.81,0"/>
      <path class="cls-1" d="M351.79,42.29c0,.56-.15,1.1-.43,1.61s-.68.91-1.19,1.19c-.51.29-1.04.43-1.6.43s-1.09-.14-1.6-.43c0,0,0,0,0,0-.51-.29-.91-.68-1.19-1.19-.28-.51-.43-1.04-.43-1.61s.15-1.11.44-1.62c.29-.52.69-.91,1.2-1.19.51-.28,1.04-.41,1.58-.41s1.08.14,1.59.41c0,0,0,0,0,0,.51.27.91.67,1.2,1.19.29.52.44,1.06.44,1.62M352.57,42.29c0-.7-.18-1.37-.54-2.02-.36-.64-.86-1.13-1.49-1.48s-1.29-.52-1.98-.52-1.35.17-1.98.52c-.63.34-1.13.84-1.49,1.48-.36.64-.54,1.31-.54,2.02s.17,1.36.53,2c.36.63.85,1.13,1.48,1.48.63.35,1.3.53,2,.53s1.36-.18,2-.53c.63-.36,1.13-.85,1.48-1.48.36-.63.53-1.3.53-2"/>
      <path class="cls-1" d="M349.28,41.41c0,.12-.03.23-.11.33-.07.1-.16.16-.29.2-.12.04-.43.06-.93.06h-.35v-1.16h.35c.49,0,.8.02.93.06.12.04.22.11.29.2.07.09.1.2.1.32M349.89,42.18c.2-.22.3-.48.3-.79,0-.22-.05-.42-.16-.61-.11-.18-.24-.32-.4-.41-.16-.09-.38-.15-.67-.17-.1,0-.55,0-1.36,0h-.86v4.26h.86v-1.75h.22c.25,0,.44.06.6.18.15.12.35.41.59.88l.36.69h1.07l-.5-.86c-.18-.3-.28-.47-.31-.52-.12-.16-.22-.27-.29-.33-.07-.06-.17-.11-.3-.16.36-.05.65-.19.85-.41"/>
      <path class="cls-1" d="M213.48,58.06h1.76l4.66,11.93h-1.75l-1.31-3.59h-5.05l-1.34,3.59h-1.64l4.66-11.93ZM212.29,65.07h4.05l-1.99-5.57h-.03l-2.02,5.57Z"/>
      <polygon class="cls-1" points="229.3 59.4 225.32 59.4 225.32 58.06 234.87 58.06 234.87 59.4 230.89 59.4 230.89 70 229.3 70 229.3 59.4"/>
      <polygon class="cls-1" points="236.63 58.06 244.87 58.06 244.87 59.4 238.21 59.4 238.21 63.19 244.42 63.19 244.42 64.53 238.21 64.53 238.21 68.66 244.92 68.66 244.92 70 236.63 70 236.63 58.06"/>
      <polygon class="cls-1" points="259.17 58.06 267.41 58.06 267.41 59.4 260.75 59.4 260.75 63.19 266.96 63.19 266.96 64.53 260.75 64.53 260.75 68.66 267.46 68.66 267.46 70 259.17 70 259.17 58.06"/>
      <polygon class="cls-1" points="272.66 63.86 268.73 58.06 270.64 58.06 273.61 62.73 276.72 58.06 278.5 58.06 274.55 63.86 278.75 70 276.81 70 273.6 65.07 270.29 70 268.5 70 272.66 63.86"/>
      <path class="cls-1" d="M312.58,58.06h1.76l4.67,11.93h-1.76l-1.31-3.59h-5.05l-1.34,3.59h-1.64l4.67-11.93ZM311.39,65.07h4.05l-1.99-5.57h-.04l-2.02,5.57Z"/>
      <polygon class="cls-1" points="320.59 58.06 322.28 58.06 328.57 67.74 328.6 67.74 328.6 58.06 330.1 58.06 330.1 70 328.36 70 322.13 60.42 322.1 60.42 322.1 70 320.59 70 320.59 58.06"/>
      <path class="cls-1" d="M247.28,58.06h5.62c2.24,0,3.63,1.22,3.63,3.13,0,1.44-.64,2.62-2.07,3.03v.03c1.39.27,1.67,1.29,1.79,2.46.1,1.17.03,2.47.7,3.29h-1.77c-.45-.49-.2-1.77-.43-2.94-.17-1.17-.45-2.16-1.99-2.16h-3.88v5.1h-1.59v-11.94ZM252.18,63.56c1.49,0,2.76-.38,2.76-2.12,0-1.17-.64-2.04-2.13-2.04h-3.94v4.16h3.31Z"/>
      <path class="cls-1" d="M285.56,58.06h4.33c1.06,0,2.44,0,3.16.44.79.47,1.41,1.32,1.41,2.49,0,1.27-.67,2.23-1.77,2.68v.03c1.47.3,2.27,1.4,2.27,2.88,0,1.75-1.25,3.43-3.63,3.43h-5.77v-11.94ZM287.14,63.19h3.18c1.81,0,2.54-.65,2.54-1.9,0-1.66-1.17-1.89-2.54-1.89h-3.18v3.79ZM287.14,68.66h3.98c1.37,0,2.24-.83,2.24-2.14,0-1.55-1.26-1.99-2.59-1.99h-3.63v4.13Z"/>
      <path class="cls-1" d="M297.45,58.06h5.62c2.24,0,3.63,1.22,3.63,3.13,0,1.44-.64,2.62-2.07,3.03v.03c1.39.27,1.67,1.29,1.79,2.46.1,1.17.03,2.47.7,3.29h-1.78c-.45-.49-.2-1.77-.43-2.94-.17-1.17-.45-2.16-1.99-2.16h-3.88v5.1h-1.59v-11.94ZM302.34,63.56c1.49,0,2.76-.38,2.76-2.12,0-1.17-.64-2.04-2.12-2.04h-3.95v4.16h3.31Z"/>
      <path class="cls-1" d="M333.12,58.06h4.1c3.68,0,5.73,1.84,5.73,5.68s-1.76,6.25-5.73,6.25h-4.1v-11.94ZM334.71,68.66h2.64c1.09,0,4.01-.3,4.01-4.7,0-2.84-1.05-4.56-3.98-4.56h-2.68v9.26Z"/>
    </g>
  </g>
</svg>