<?xml version="1.0" encoding="utf-8"?>
<!-- Generator: Adobe Illustrator 27.4.0, SVG Export Plug-In . SVG Version: 6.00 Build 0)  -->
<svg version="1.1" id="Layer_1" xmlns="http://www.w3.org/2000/svg" xmlns:xlink="http://www.w3.org/1999/xlink" x="0px" y="0px"
	 viewBox="0 0 253 36" style="enable-background:new 0 0 253 36;" xml:space="preserve">
<style type="text/css">
	.st0{fill:#993E00;}
</style>
<path class="st0" d="M143.9,26.9v6.9c0,0.4,0.3,0.7,0.8,0.7c0.6,0,0.8-0.2,0.8-0.7V31h3.2v2.8c0,0.4,0.3,0.7,0.8,0.7
	c0.6,0,0.8-0.2,0.8-0.7v-6.9c0-0.4-0.3-0.7-0.8-0.7c-0.6,0-0.8,0.2-0.8,0.7v2.6h-3.2v-2.6c0-0.4-0.3-0.7-0.8-0.7
	C144.2,26.2,143.9,26.4,143.9,26.9z M131.1,27.1v6.4c0,0.6,0.3,0.8,0.8,0.8h3.6c0.4,0,0.7-0.2,0.7-0.7c0-0.5-0.2-0.7-0.7-0.7h-2.9
	v-2h2.3c0.4,0,0.7-0.2,0.7-0.7c0-0.5-0.2-0.7-0.7-0.7h-2.3v-1.7h2.8c0.4,0,0.7-0.2,0.7-0.7c0-0.5-0.2-0.7-0.7-0.7h-3.6
	C131.3,26.3,131.1,26.5,131.1,27.1z M121,26.9v4.4c0,0.6,0.1,1.2,0.3,1.6c0.5,1.1,1.5,1.6,3,1.6c1.3,0,2.5-0.4,3-1.6
	c0.2-0.4,0.3-1,0.3-1.6v-4.4c0-0.4-0.3-0.7-0.8-0.7c-0.6,0-0.8,0.2-0.8,0.7v4.4c0,0.3-0.1,0.6-0.1,0.9c-0.2,0.6-0.6,0.9-1.5,0.9
	c-0.7,0-1.2-0.3-1.5-0.9c-0.1-0.2-0.1-0.6-0.1-0.9v-4.4c0-0.4-0.3-0.7-0.8-0.7C121.3,26.2,121,26.4,121,26.9z M104.7,26.9v6.9
	c0,0.4,0.3,0.7,0.8,0.7c0.6,0,0.8-0.2,0.8-0.7v-6.9c0-0.4-0.3-0.7-0.8-0.7C105,26.2,104.7,26.4,104.7,26.9z M76.1,30.3
	c0-1.7,0.9-2.7,2.2-2.7c1.3,0,2.2,1,2.2,2.7c0,1.7-0.9,2.7-2.2,2.7C77,33.1,76.1,32.1,76.1,30.3z M74.3,30.3c0,2.6,1.6,4.3,4,4.3
	c2.5,0,4-1.6,4-4.3c0-2.6-1.6-4.3-4-4.3C75.9,26.1,74.3,27.7,74.3,30.3z M14,8c0,0.3,0,0.6-0.1,1c-0.1,0.4-0.1,0.8-0.3,1.3
	c-0.2,0.4-0.4,1-0.7,1.5c-0.3,0.4-0.6,0.8-1.1,1.2L10,11.1l-2,1.3l1.6,1.7c-0.1,0-0.2,0.1-0.4,0.1c-1.1,0.1-2.1,0.1-3.1-0.3
	c-0.6-0.3-1.2-0.7-1.7-1.2c-0.5-0.6-0.9-1.2-1.2-2C3,9.8,2.9,8.9,2.9,8S3,6.2,3.3,5.4C3.6,4.6,4,4,4.5,3.5c0.5-0.6,1.1-1,1.7-1.2
	C6.9,2,7.6,1.8,8.3,1.8c0.8,0,1.5,0.2,2.2,0.4c0.7,0.3,1.3,0.7,1.8,1.2c0.5,0.5,0.9,1.2,1.2,2C13.9,6.2,14,7.1,14,8z M16.7,9.7
	c0.2-0.6,0.2-1.2,0.2-1.8c0-0.8-0.2-1.7-0.5-2.6c-0.3-1-0.8-1.8-1.5-2.6c-0.7-0.8-1.6-1.5-2.6-2c-1.1-0.4-2.4-0.7-3.9-0.7
	c-1.5,0-2.7,0.3-3.8,0.8C3.5,1.3,2.7,2,2,2.7S0.8,4.4,0.5,5.3C0.2,6.3,0,7.2,0,8c0,1.1,0.2,2.1,0.6,3.1c0.4,1,1,1.8,1.7,2.5
	S4,14.9,5,15.3c1.5,0.6,3.1,0.8,4.8,0.6c0.4-0.1,0.8-0.1,1.2-0.3l2,2l2.4-0.8l-2.1-2.2c0.5-0.3,1-0.8,1.4-1.2
	c0.5-0.6,0.9-1.1,1.2-1.7C16.4,11,16.6,10.4,16.7,9.7z M33.6,12.4c0.2-0.7,0.4-1.5,0.4-2.2V0.3h-1.7v9.2c0,0.3,0,0.6,0,0.9
	c0,0.3-0.1,0.6-0.1,0.8c-0.1,0.3-0.2,0.6-0.3,0.8c-0.1,0.3-0.3,0.6-0.6,0.8c-0.4,0.5-1,0.8-1.5,1c-1.1,0.3-2.4,0.4-3.2,0.1
	c-0.4-0.2-0.8-0.4-1.2-0.7c-0.3-0.2-0.5-0.5-0.7-0.7c-0.2-0.2-0.3-0.5-0.3-0.7c-0.1-0.2-0.1-0.4-0.1-0.7c0-0.3,0-0.6,0-0.8v-10h-2.7
	v9.3c0,0.6,0.1,1.2,0.2,2c0.1,0.7,0.4,1.5,0.8,2.1c0.4,0.7,1.1,1.2,2,1.6c0.9,0.4,2.1,0.6,3.5,0.6c1,0,1.8-0.2,2.5-0.4
	c0.7-0.3,1.3-0.7,1.8-1.2C33,13.7,33.4,13.1,33.6,12.4z M39.1,15.7h10.3v-2h-7.6V8.5h6.4V6.7h-6.4V2.3h7.5v-2H39.1V15.7z M55.1,15.7
	h10.3v-2h-7.5V8.5h6.4V6.7h-6.4V2.3h7.5v-2H55.1V15.7z M69.6,32c0,0.7-0.4,1.1-1.7,1.1c-0.2,0-0.5,0-0.7-0.1v-2.2H68
	c0.3,0,0.7,0.1,0.9,0.1C69.4,31.1,69.6,31.5,69.6,32z M69.4,28.6c0,0.4-0.2,0.7-0.7,0.9c-0.2,0.1-0.4,0.1-0.7,0.1h-0.7v-2
	c0.2-0.1,0.4-0.1,0.7-0.1C68.9,27.6,69.4,28,69.4,28.6z M71.1,28.3c0-1.3-1.1-2.2-3.2-2.2c-0.6,0-1.2,0.1-1.6,0.2
	c-0.7,0.2-0.7,0.7-0.7,1.1v5.8c0,0.4,0,0.9,0.7,1.1c0.4,0.1,1.1,0.2,1.6,0.2c2.2,0,3.5-1,3.5-2.4c0-1-0.6-1.7-1.8-2
	C70.5,29.9,71.1,29.3,71.1,28.3z M83.3,16h0.7V0.3h-1.8v10.6l-11-10.9h-0.7v15.6h1.8V5L83.3,16z M88.9,33.1c-0.7,0-1.2-0.3-1.5-0.9
	c-0.1-0.2-0.1-0.6-0.1-0.9v-4.4c0-0.4-0.3-0.7-0.8-0.7c-0.6,0-0.8,0.2-0.8,0.7v4.4c0,0.6,0.1,1.2,0.3,1.6c0.5,1.1,1.5,1.6,3,1.6
	c1.3,0,2.5-0.4,3-1.6c0.2-0.4,0.3-1,0.3-1.6v-4.4c0-0.4-0.3-0.7-0.8-0.7c-0.6,0-0.8,0.2-0.8,0.7v4.4c0,0.3-0.1,0.6-0.1,0.9
	C90.1,32.8,89.7,33.1,88.9,33.1z M92.2,4.9c-0.3-0.3-0.5-0.6-0.5-1.1c0-0.3,0.1-0.5,0.2-0.7c0.1-0.2,0.3-0.4,0.5-0.6
	c0.2-0.2,0.6-0.3,1-0.4c0.4-0.1,0.8-0.2,1.3-0.2c0.8,0,1.5,0.2,2.1,0.5c0.5,0.3,0.8,0.8,0.9,1.5l0.1,0.3h2.2l-0.1-0.5
	c-0.1-0.6-0.3-1.1-0.6-1.6C98.9,1.7,98.5,1.3,98,1c-0.5-0.3-1-0.6-1.6-0.7c-1.2-0.3-2.6-0.3-3.8,0.1c-0.6,0.2-1.2,0.4-1.6,0.8
	c-0.5,0.3-0.9,0.8-1.2,1.3c-0.3,0.6-0.4,1.2-0.4,1.8c0,0.9,0.2,1.7,0.7,2.2c0.4,0.6,1,1,1.7,1.3c0.7,0.3,1.3,0.6,2.1,0.9
	c0.7,0.2,1.4,0.5,2,0.8c0.6,0.3,1.1,0.6,1.5,1c0.3,0.3,0.5,0.8,0.5,1.5c0,0.8-0.3,1.3-0.8,1.6c-0.6,0.4-1.4,0.6-2.4,0.6
	c-0.8,0-1.5-0.1-2-0.3c-0.4-0.2-0.8-0.4-1.1-0.7c-0.2-0.3-0.4-0.6-0.4-0.8C91,11.9,91,11.7,91,11.5v-0.4h-2.2v0.4
	c0.1,0.7,0.2,1.3,0.5,1.8c0.3,0.6,0.7,1,1.3,1.3c0.5,0.3,1.2,0.7,1.8,0.8c0.7,0.2,1.5,0.3,2.3,0.3s1.6-0.1,2.3-0.3
	c0.7-0.2,1.3-0.5,1.8-0.9c0.5-0.4,0.9-0.9,1.2-1.5c0.3-0.6,0.4-1.2,0.4-1.9c0-1-0.2-1.7-0.7-2.4c-0.4-0.6-1.1-1.1-1.7-1.5
	c-0.7-0.4-1.4-0.7-2.2-1c-0.7-0.2-1.5-0.5-2.1-0.8C93.2,5.5,92.6,5.3,92.2,4.9z M101.7,27c0-0.5-0.2-0.7-0.7-0.7h-5.2
	c-0.4,0-0.7,0.3-0.7,0.8c0,0.5,0.2,0.7,0.7,0.7h1.7v6c0,0.4,0.3,0.7,0.8,0.7c0.6,0,0.8-0.2,0.8-0.7v-6h1.7
	C101.5,27.8,101.7,27.5,101.7,27z M111.8,2.3h5.6v-2h-13.9v2h5.6v13.4h2.7L111.8,2.3L111.8,2.3z M116,30.3c0,1.7-0.9,2.7-2.2,2.7
	c-1.3,0-2.2-1-2.2-2.7c0-1.7,0.9-2.7,2.2-2.7C115.1,27.6,116,28.6,116,30.3z M117.8,30.3c0-2.6-1.6-4.3-4-4.3c-2.4,0-4,1.6-4,4.3
	c0,2.6,1.6,4.3,4,4.3c0.3,0,0.5,0,0.7-0.1l0.7,0.8c0.3,0.4,0.5,0.6,1.2,0.6c0.6,0,0.8-0.2,0.8-0.4c0-0.2-0.2-0.5-0.5-0.8l-0.7-0.8
	C117.1,33.3,117.8,32,117.8,30.3z M133.5,8c0,0.9-0.2,1.7-0.4,2.5c-0.3,0.8-0.7,1.4-1.2,2c-0.5,0.6-1.1,1-1.8,1.3
	c-1.3,0.6-3,0.6-4.3,0c-0.7-0.3-1.2-0.7-1.7-1.3c-0.5-0.6-0.9-1.2-1.2-2c-0.3-0.8-0.4-1.6-0.4-2.5c0-0.9,0.2-1.8,0.4-2.5
	c0.3-0.8,0.7-1.4,1.2-2s1.1-1,1.7-1.3c0.7-0.3,1.3-0.4,2.1-0.4c0.7,0,1.5,0.2,2.1,0.4c0.7,0.3,1.3,0.7,1.8,1.3
	c0.5,0.6,0.9,1.2,1.2,2C133.3,6.2,133.5,7.1,133.5,8z M136.1,9.7c0.2-0.6,0.2-1.2,0.2-1.7c0-0.8-0.2-1.7-0.5-2.6
	c-0.3-1-0.8-1.8-1.6-2.6c-0.7-0.8-1.6-1.5-2.6-2c-1.1-0.5-2.4-0.8-3.8-0.8c-1.4,0-2.7,0.3-3.7,0.8c-1,0.5-1.9,1.2-2.6,2
	c-0.7,0.8-1.2,1.6-1.5,2.6c-0.3,1-0.4,1.8-0.4,2.6c0,0.8,0.2,1.7,0.4,2.6c0.3,1,0.8,1.8,1.5,2.6c0.7,0.8,1.5,1.5,2.6,2
	c1.1,0.5,2.3,0.8,3.7,0.8c1,0,1.8-0.1,2.6-0.3c0.8-0.2,1.5-0.6,2.1-1c0.6-0.4,1.2-0.9,1.7-1.4c0.4-0.5,0.8-1.1,1.2-1.7
	C135.8,10.9,136,10.3,136.1,9.7z M155.4,15.7l5.4-15.4h-1.8l-4,11.4l-3.8-11.4h-1.5l-3.9,11.4l-4-11.4h-2.8l5.4,15.4h1.8L149.9,5
	l3.6,10.7H155.4z M160.1,30.3c0,1.7-0.9,2.7-2.2,2.7c-1.3,0-2.2-1-2.2-2.7c0-1.7,0.9-2.7,2.2-2.7C159.1,27.6,160.1,28.6,160.1,30.3z
	 M161.8,30.3c0-2.6-1.6-4.3-4-4.3c-2.4,0-4,1.6-4,4.3c0,2.6,1.6,4.3,4,4.3C160.2,34.6,161.8,32.9,161.8,30.3z M165.2,26.3
	c-0.4,0-0.7,0.3-0.7,0.8c0,0.5,0.2,0.7,0.7,0.7h1.7v6c0,0.4,0.3,0.7,0.8,0.7s0.8-0.2,0.8-0.7v-6h1.7c0.4,0,0.7-0.3,0.7-0.8
	c0-0.5-0.2-0.7-0.7-0.7H165.2z M177.8,16h0.7V0.3h-1.8v10.6L165.8,0.2l-0.2-0.1H165v15.6h1.8V5l10.9,10.7L177.8,16z M175.8,32.9v-2
	h2.3c0.4,0,0.7-0.2,0.7-0.7c0-0.5-0.2-0.7-0.7-0.7h-2.3v-1.7h2.8c0.4,0,0.7-0.2,0.7-0.7c0-0.5-0.2-0.7-0.7-0.7H175
	c-0.6,0-0.8,0.3-0.8,0.8v6.4c0,0.6,0.3,0.8,0.8,0.8h3.6c0.4,0,0.7-0.2,0.7-0.7c0-0.5-0.2-0.7-0.7-0.7L175.8,32.9L175.8,32.9z
	 M187.3,33.6c0-0.5-0.2-0.7-0.7-0.7h-2.5v-6c0-0.4-0.3-0.7-0.8-0.7c-0.6,0-0.8,0.2-0.8,0.7v6.7c0,0.6,0.3,0.8,0.8,0.8h3.4
	C187.1,34.4,187.3,34.2,187.3,33.6z M198.9,5.2c0,0.3-0.1,0.7-0.2,1.1c-0.1,0.3-0.3,0.7-0.6,1c-0.2,0.3-0.6,0.5-1,0.7
	c-0.7,0.3-1.7,0.3-2.6,0.2c-0.2,0-0.4-0.1-0.6-0.1v-6h1.8c0.5,0,1,0.1,1.3,0.3c0.4,0.2,0.7,0.4,1,0.7c0.3,0.3,0.4,0.6,0.6,1
	C198.9,4.4,198.9,4.8,198.9,5.2z M201.5,6.9c0.2-0.6,0.4-1.2,0.4-1.8c0-0.6-0.1-1.2-0.3-1.8c-0.2-0.6-0.6-1.1-1-1.6
	c-0.4-0.4-1-0.8-1.6-1.1c-0.6-0.3-1.4-0.4-2.2-0.4h-5.3v15.4h2.7V9.7c0.2,0.1,0.4,0.1,0.7,0.1c0.4,0.1,0.9,0.1,1.5,0.1
	c0.9,0,1.7-0.1,2.4-0.4c0.7-0.3,1.3-0.6,1.8-1.1C200.9,8.1,201.2,7.6,201.5,6.9z M212.8,9.6h-5.1l2.5-5.7L212.8,9.6z M215.7,15.7
	h2.9l-7.2-15.4h-1.6l-6.5,15.4h1.8l1.8-4.3h6.7L215.7,15.7z M229.4,6.6c-0.3,0.3-0.6,0.5-1,0.7c-0.4,0.2-0.8,0.3-1.3,0.3h-1.7V2.1
	h1.7c0.5,0,0.9,0.1,1.3,0.2c0.4,0.1,0.7,0.3,1,0.6c0.3,0.2,0.4,0.5,0.6,0.8c0.1,0.3,0.2,0.7,0.2,1.1c0,0.3-0.1,0.7-0.2,1
	C229.9,6,229.7,6.3,229.4,6.6z M235.2,15.6l0.2-0.1v-1.5l-0.8,0.1c-0.2,0-0.4-0.1-0.6-0.1c-0.2-0.1-0.3-0.2-0.5-0.3
	c-0.2-0.2-0.3-0.3-0.5-0.5c-0.2-0.2-0.3-0.4-0.6-0.8c-0.6-0.8-1-1.5-1.3-2c-0.3-0.5-0.6-0.9-0.8-1.2c-0.2-0.3-0.3-0.4-0.4-0.6
	c0.3-0.1,0.6-0.2,0.9-0.3c0.5-0.3,1-0.6,1.3-1.1c0.3-0.4,0.6-0.9,0.7-1.3c0.2-0.4,0.2-1,0.2-1.4c0-0.4-0.1-0.9-0.2-1.3
	c-0.2-0.5-0.4-1-0.8-1.4c-0.4-0.4-1-0.8-1.6-1.1c-0.7-0.3-1.5-0.4-2.5-0.4h-5.2v15.4h2.7V9.3h0.5c0.3,0,0.6,0.1,0.8,0.1
	c0.2,0.1,0.4,0.2,0.6,0.3c0.2,0.2,0.3,0.3,0.5,0.6c0.2,0.3,0.4,0.6,0.7,1l1.6,2.4c0.2,0.3,0.4,0.6,0.6,0.9c0.2,0.3,0.4,0.6,0.7,0.7
	c0.3,0.2,0.6,0.4,0.9,0.5c0.3,0.1,0.7,0.2,1.2,0.2c0.3,0,0.6,0,0.8-0.1C234.7,15.8,234.9,15.8,235.2,15.6z M246.1,6.4l5.7-6.1h-2.2
	l-7.2,7.6V0.3h-2.7v15.4h2.7v-5.4l1.9-2l5.4,7.4h3.2L246.1,6.4z"/>
</svg>
