<?xml version="1.0" encoding="UTF-8"?><svg id="Layer_2" xmlns="http://www.w3.org/2000/svg" viewBox="0 0 443.47 39.07"><defs><style>.cls-1{fill:#fff;}.cls-2{fill:#57a57b;}</style></defs><g id="Layer_1-2"><g><path class="cls-1" d="M95.84,28.79c-.29-1.98-.93-3.99-1.97-6.12-.54-1.11-1.1-1.33-2.23-.87-.65,.27-1.31,.54-1.96,.82l-.68,.29s-.04-.09-.06-.12l-.7-1.73c-2.03-5.04-4.13-10.24-6.18-15.37-.04-.1-.03-.28,.03-.41,.31-.77,.64-1.54,.99-2.33,.27-.62,.2-1.16-.22-1.61-.42-.46-.98-.56-1.64-.29-1.09,.43-2.17,.87-3.25,1.31-.67,.27-1,.73-.98,1.35,.01,.62,.35,1.07,1,1.33,.8,.33,1.52,.63,2.24,.96,.16,.07,.32,.24,.38,.38,1.18,2.91,2.36,5.82,3.53,8.72l1.42,3.53c.46,1.15,.93,2.29,1.4,3.44l.56,1.37c-.09,.04-.17,.08-.25,.11-.3,.12-.61,.24-.91,.37-.58,.23-1.16,.46-1.73,.7-.86,.36-1.18,1.05-.86,1.86l.17,.43c.55,1.37,1.12,2.78,1.8,4.12,.83,1.63,1.9,2.84,3.26,3.68,.67,.42,1.45,.63,2.25,.63,.59,0,1.19-.11,1.76-.35,1.34-.54,2.33-1.65,2.66-2.97,.26-1.03,.31-2.11,.15-3.21ZM81.41,2.81l-.69,1.61-1.63-.7,2.32-.91Zm9.19,27.56c.18,.08,.38,.07,.58,0,.43-.18,.57-.66,.34-1.22l-.41-1.03c-.48-1.2-.97-2.4-1.45-3.6-.02-.04-.03-.08-.04-.12l2.81-1.08c.66,1.36,1.35,2.96,1.66,4.72,.17,.99,.24,1.92,.2,2.78-.04,.89-.43,1.68-1.09,2.22-.65,.53-1.47,.76-2.32,.63-.85-.13-1.58-.59-2.38-1.49-.99-1.14-1.81-2.56-2.58-4.46-.17-.42-.32-.84-.46-1.25-.04-.11-.08-.22-.12-.33l2.83-1.18,.28,.73c.28,.72,.56,1.44,.84,2.16,.22,.57,.46,1.14,.69,1.71l.06,.16c.13,.32,.32,.55,.56,.64Z"/><path class="cls-2" d="M115.39,37.36c-.05-.25-.29-.49-.5-.63-.13-.09-.31-.08-.47-.07-.05,0-.09,0-.14,0h0c-2.49,0-3.43,0-5.29,0h-2.06s0-3.74,0-3.74c0,0,0,0,0,0,1.2,.53,2.5,.48,3.65-.13,1.14-.61,1.96-1.7,2.18-2.92,.02-.09,.12-.22,.26-.32,1.12-.78,1.78-2,1.8-3.34,.02-1.34-.59-2.58-1.68-3.39-.14-.11-.27-.33-.32-.54-.13-.6-.37-1.35-1.02-1.84-.36-.27-.76-.49-1.15-.71-.17-.09-.34-.19-.53-.29-.02-.02-.03-.1-.04-.17-.33-1.92-1.98-3.3-3.93-3.3-.01,0-.02,0-.03,0-1.93,.02-3.55,1.43-3.85,3.37-.03,.19-.08,.24-.29,.3-1.43,.42-2.26,1.37-2.46,2.81-.01,.1-.11,.24-.23,.32-1.13,.82-1.77,2.06-1.77,3.4,0,1.34,.66,2.57,1.8,3.38,.13,.09,.24,.27,.28,.42,.29,1.23,1.08,2.26,2.18,2.83,1.09,.56,2.38,.61,3.55,.14,.03-.01,.06-.02,.09-.03v3.7h-9.58l-1.28,.04h-1.35c-3.07,0-9.56,0-10.93,0h0s-.1,0-.15,0c-.15-.01-.33-.02-.46,.06-.19,.12-.51,.36-.55,.64-.05,.31,.38,.66,.43,.7,.11,.09,.26,.1,.41,.1,.04,0,.07,0,.11,0h.1c9.11,0,23.09,0,32.22,0,.23,0,.48,0,.66-.12,.18-.13,.41-.44,.37-.66Zm-8.49-6.51c.02-.31,.02-.63,.01-.94,0-.1,0-.2,0-.3,.1-.03,.19-.05,.29-.08,.28-.07,.55-.14,.81-.23,1.23-.42,2.21-1.21,2.93-2.35,.28-.44,.23-.83-.13-1.1-.36-.26-.76-.17-1.07,.26-.9,1.2-1.67,1.74-2.83,1.95v-.51s0-1.33,0-1.33c0-.15,0-.29,0-.44,0-.34,0-.68,0-1.03-.01-.55-.3-.88-.76-.87-.44,0-.71,.33-.72,.85-.01,.41,0,.82,0,1.22,0,.17,0,.34,0,.52v.32c-1.08-.28-1.92-1.16-2.11-2.22-.02-.1-.03-.2-.04-.29-.01-.1-.02-.2-.04-.29-.1-.59-.47-.72-.75-.71-.41,0-.7,.33-.71,.81-.05,1.61,1.13,3.36,2.7,3.98,.04,.02,.08,.03,.12,.04l.06,.02c.09,.03,.19,.06,.29,.08,.19,.05,.39,.1,.46,.19,.08,.11,.06,.32,.04,.53,0,.1-.02,.2-.02,.29,0,.16,0,.33,0,.49,0,.34-.01,.68,.02,1.03,.03,.36-.14,.54-.43,.71-.65,.38-1.45,.45-2.19,.19-.75-.26-1.34-.82-1.62-1.53-.31-.8-.74-1.42-1.38-2.03-.61-.57-.91-1.38-.82-2.2,.08-.8,.53-1.5,1.21-1.91,.51-.31,.73-.69,.77-1.32,.04-.8,.67-1.47,1.5-1.59,.82-.12,1.17-.5,1.23-1.31,.08-1.26,1.09-2.24,2.35-2.27,1.31-.03,2.41,.89,2.56,2.15,.12,1.06,.28,1.22,1.37,1.44,.7,.14,1.25,.76,1.33,1.47,.06,.62,.35,1.08,.9,1.48,.73,.52,1.15,1.35,1.12,2.23-.02,.86-.45,1.61-1.18,2.07-.51,.32-.77,.72-.91,1.37-.19,.86-.77,1.55-1.59,1.9-.81,.34-1.72,.26-2.45-.2-.25-.16-.33-.3-.31-.54Z"/></g><g id="M1SRe9"><g><path class="cls-2" d="M185.25,25.26c0,.9,0,1.74,0,2.59,0,2.21,0,4.43,0,6.64,0,2.21-1.27,3.47-3.46,3.46-.69,0-1.39,0-2.06-.13-1.3-.25-2.28-1.38-2.34-2.71-.07-1.52-.04-3.04-.04-4.56,0-4.47,0-8.93,0-13.4,0-.22-.01-.44,.02-.65,.07-.44,.35-.65,.79-.65,.41,0,.67,.23,.75,.62,.04,.19,.02,.39,.02,.59,0,5.75,0,11.5,0,17.26,0,1.55,.5,2.04,2.07,2.04,.4,0,.79,.01,1.19-.01,.87-.06,1.44-.65,1.49-1.54,0-.18,0-.36,0-.53,0-5.73,0-11.46,0-17.2,0-.2-.02-.4,.02-.59,.07-.4,.32-.63,.73-.64,.43-.01,.72,.19,.8,.63,.04,.19,.03,.39,.03,.59,0,1.7,0,3.4,0,5.1,0,.22,.02,.43,.02,.65,0,.51,.25,.83,.76,.88,.45,.04,.8-.34,.8-.91,.01-2.45,.06-4.9-.01-7.35-.06-2.26-2.03-4.18-4.28-4.31-.67-.04-1.34-.05-2.01,0-2.16,.15-3.83,1.65-4.28,3.78-.13,.61-.28,1.25-.59,1.78-.62,1.06-1.65,1.49-2.85,1.51-.95,.01-1.9,0-2.85,0-.18,0-.36,0-.53,.01-.46,.04-.74,.28-.74,.75,0,.46,.25,.78,.72,.77,1.84-.07,3.72,.32,5.52-.38,.45-.17,.85,0,1.02,.45,.17,.44,.03,.87-.45,1-.83,.22-1.68,.45-2.54,.52-1.12,.09-2.25,.03-3.38,.02-1.46-.02-2.5-1.02-2.5-2.37,0-1.36,1.05-2.35,2.51-2.37,1.09-.01,2.17,0,3.26,0,1,0,1.57-.44,1.72-1.43,.37-2.42,1.58-4.29,3.86-5.15,3.37-1.27,7.67-.71,9.47,3.26,.32,.7,.49,1.52,.51,2.29,.06,2.33,.02,4.66,.02,7,0,1.9-1.03,2.85-2.91,2.68-.06,0-.12,0-.25,.01Z"/><path class="cls-1" d="M166.25,37.96c-.83,0-1.66,0-2.49,0-1.26-.01-2.18-.71-2.39-1.95-.32-1.87-.55-3.75-.83-5.62-.19-1.31-.38-2.62-.57-3.93-.09-.6,.14-1.03,.6-1.11,.53-.09,.88,.2,.97,.85,.45,3.09,.88,6.18,1.33,9.26,.11,.74,.3,.9,1.06,.9,1.54,0,3.08,0,4.62,0,.8,0,1-.2,1.11-.99,.44-3.07,.88-6.13,1.32-9.2,.09-.62,.41-.9,.93-.83,.47,.06,.71,.42,.62,1.02-.45,3.2-.9,6.41-1.39,9.61-.19,1.22-1.13,1.97-2.36,1.98-.85,0-1.7,0-2.55,0Z"/><path class="cls-2" d="M185.23,3.95c0,2.23-1.77,3.96-4.01,3.94-2.12-.02-3.86-1.77-3.88-3.91-.01-2.18,1.78-4.01,3.93-3.99,2.21,.02,3.97,1.77,3.97,3.95Zm-3.94,2.37c1.32,0,2.38-1.07,2.37-2.37-.01-1.31-1.09-2.36-2.4-2.34-1.3,.02-2.33,1.05-2.34,2.34,0,1.32,1.05,2.38,2.36,2.38Z"/><path class="cls-1" d="M167.43,22.55c0,.67-.5,1.17-1.16,1.16-.63,0-1.18-.54-1.19-1.16-.01-.65,.56-1.21,1.22-1.19,.66,.02,1.14,.52,1.13,1.19Z"/><path class="cls-1" d="M166.25,31.23c-.01,.72-.48,1.19-1.19,1.18-.65,0-1.16-.52-1.16-1.17,0-.68,.52-1.19,1.2-1.18,.65,.01,1.15,.52,1.14,1.17Z"/><path class="cls-1" d="M166.69,26.86c0-.67,.49-1.14,1.17-1.13,.66,0,1.18,.52,1.18,1.15,0,.63-.59,1.21-1.23,1.19-.64-.02-1.13-.55-1.13-1.21Z"/></g></g><g id="AZNnU5"><g><path class="cls-2" d="M337.84,12.88c.48,0,.87,0,1.26,0,.63,0,.97,.27,.98,.75,0,.45-.37,.73-1,.74-1.68,0-3.37,0-5.05,0-.2,0-.4,0-.64,0v6c.4,0,.81,0,1.21,0,.66,.01,.98,.26,.99,.74,0,.47-.34,.75-.99,.75-2.19,0-4.38,0-6.57,0-.2,0-.4,0-.64,0v5.95c.2,0,.39,.03,.59,.03,1.46,0,2.92,0,4.38,0,.71,0,.98,.27,.99,.98,0,1.95,0,3.89,0,5.84,0,.2,0,.4,0,.64h10.49c0-.23,0-.43,0-.63,0-1.59,0-3.18,0-4.77,0-.15,0-.3,0-.45,.04-.57,.3-.87,.76-.85,.53,.02,.71,.38,.72,.83,.02,.82,.01,1.64,.01,2.46,0,1.12,0,2.24,0,3.4,.22,.01,.38,.03,.54,.03,2.62,0,5.24,0,7.86,0,.42,0,.59-.08,.59-.55-.03-1.65-.01-3.29-.01-4.94,0-.14-.02-.29-.04-.5-.23,0-.43,0-.63,0-1.85,0-3.71,0-5.56,0-.21,0-.42,0-.61-.04-.4-.08-.63-.37-.59-.77,.03-.38,.26-.65,.68-.69,.09,0,.19,0,.28,0,2.32,0,4.64,0,6.96,0,.74,0,1.01,.26,1.01,1.02,0,2.32,0,4.64,0,6.96,0,.75-.26,1-1.02,1-11.31,0-22.61,0-33.92,0-.75,0-1-.26-1-1.02,0-9.79,0-19.58,0-29.37,0-.82,.25-1.05,1.08-1.06,5.26,0,10.52,0,15.78,0,.89,0,1.11,.23,1.11,1.14,0,1.89,0,3.78,0,5.67,0,.2,0,.41,0,.68Zm-16.43,22.46c3.4,0,6.75,0,10.09-.02,.12,0,.33-.23,.33-.36,.02-1.7,.01-3.4,.01-5.1,0-.36-.12-.52-.52-.52-3.16,.01-6.32,.01-9.48,0-.43,0-.49,.19-.48,.54,0,1.66,0,3.33,0,4.99,0,.13,.02,.25,.04,.46Zm10.37-15v-5.95h-10.36v5.95h10.36Zm-4.39-13.45c-.01,.24-.03,.41-.03,.57,0,1.61,.01,3.22-.01,4.83,0,.46,.12,.6,.59,.6,2.62-.02,5.24,0,7.86-.01,.16,0,.32-.02,.51-.04,.01-.2,.03-.37,.03-.53,0-1.61-.01-3.22,.01-4.83,0-.46-.12-.61-.59-.6-2.6,.02-5.2,.01-7.8,.01h-.57Zm-1.55,0c-1.35,0-2.63,.02-3.92-.01-.47-.01-.56,.16-.55,.58,.02,1.31,0,2.62,0,3.93q0,1.49,1.48,1.49c.99,0,1.97,0,2.98,0V6.89Zm0,20.92v-5.91h-4.41v5.91h4.41Z"/><path class="cls-1" d="M347.68,12.4c.75,.87,1.52,1.77,2.3,2.67,.86,1,.82,1.73-.15,2.6-.36,.32-.72,.65-1.17,1.05,.61,.59,1.2,1.16,1.78,1.73,1.65,1.63,1.08,4.11-1.1,4.94-4.12,1.58-8.23,3.19-12.34,4.78-.16,.06-.32,.17-.47,.17-.37-.02-.8,.01-1.09-.17-.39-.25-.41-.73-.24-1.17,.55-1.43,1.1-2.86,1.65-4.29,1.02-2.63,2.05-5.26,3.08-7.89,.31-.79,.59-1.6,1.34-2.12,1.17-.8,2.76-.65,3.8,.38,.79,.79,1.59,1.59,2.39,2.38,.04,.04,.09,.06,.2,.13,.46-.41,.93-.82,1.43-1.26-1.37-1.58-2.7-3.15-4.07-4.68-1.39-1.56-1.35-3.27,.2-4.68,1.81-1.66,3.63-3.3,5.45-4.94,1.36-1.21,3.13-1.15,4.31,.14,1.1,1.19,.99,3.09-.29,4.27-1.84,1.7-3.7,3.39-5.57,5.05-.41,.36-.92,.59-1.43,.91Zm-1.22,6.24c-.04-.07-.05-.11-.08-.13-.78-.78-1.55-1.57-2.34-2.34-.88-.87-2-.63-2.46,.53-1.47,3.74-2.92,7.48-4.38,11.23-.07,.18-.12,.37-.2,.63,.19-.06,.27-.09,.36-.12,2.61-1.01,5.23-2.02,7.84-3.04,1.32-.52,2.65-1.02,3.95-1.6,.77-.34,.99-1.44,.45-2.06-.63-.71-1.32-1.37-2-2.06-.17,.14-.28,.23-.39,.32-.66,.58-1.32,1.16-1.98,1.74-.5,.43-.91,.47-1.24,.11-.32-.35-.24-.79,.22-1.22,.14-.13,.28-.25,.42-.37,.61-.54,1.23-1.09,1.83-1.63Zm-.94-9.48c.03,.81,.29,1.27,.83,1.52,.59,.28,1.16,.23,1.67-.22,1.9-1.72,3.81-3.43,5.7-5.16,.65-.6,.71-1.49,.17-2.11-.56-.65-1.46-.74-2.15-.12-1.94,1.73-3.86,3.49-5.76,5.26-.26,.25-.37,.66-.46,.83Z"/></g></g><g><path class="cls-2" d="M443.27,35.44c-.19-.2-.51-.3-.94-.31-.39,0-.79,0-1.18,0-.54,0-1.07,0-1.61,0-.92-.01-1.26-.35-1.26-1.27,0-3.05,0-6.1,0-9.14,0-.89,.38-1.27,1.26-1.28,.39,0,.78,0,1.17,0,.6,0,1.23,0,1.85,0,.29,0,.56-.12,.73-.31,.13-.15,.2-.34,.18-.53-.05-.54-.37-.84-.89-.84h0c-.31,0-.63,0-.95,0-.79,0-1.6-.02-2.4,.04-.55,.04-1.05-.05-1.62-.27-1.06-.42-2.13-.84-3.19-1.26-1.08-.42-2.16-.85-3.23-1.28-1.2-.48-2.39-.4-3.62,.24-.99,.52-2.05,1.04-3.24,1.6-.15,.07-.42,.07-.55,0-1.15-.65-2.33-.71-3.62-.2l-1.13,.45c-1.32,.53-2.69,1.08-4.05,1.6-.13,.05-.4,0-.5-.09-.55-.52-1.18-.79-1.86-.8-1.32-.02-2.69-.02-4.07,0-.23,0-.55,.13-.69,.32-.14,.2-.26,.63-.12,.81,.19,.25,.54,.5,.86,.52,.85,.04,1.72,.03,2.55,.03,.38,0,.75,0,1.13,0,.92,0,1.3,.38,1.3,1.3,0,3.03,0,6.06-.01,9.09,0,.98-.32,1.3-1.33,1.3-.55,0-1.1,0-1.65,0-.64,0-1.28,0-1.92,0-.35,0-.63,.1-.82,.3-.15,.15-.22,.36-.21,.59,.02,.47,.42,.79,1.01,.79h.24c1.2,0,2.44,.02,3.66,0,1.12-.02,1.97-.55,2.37-1.48,.24-.55,.53-.71,1.11-.63,.15,.02,.31,.03,.46,.03,.32,.01,.62,.02,.82,.16,1.6,1.14,3.16,2.35,4.62,3.5,.56,.44,1.08,.66,1.59,.66s1.01-.21,1.54-.64c.25-.21,.51-.41,.76-.62,.89-.72,1.81-1.46,2.67-2.23,.8-.72,1.66-1.13,2.7-1.29,1.29-.2,2.54-.47,3.87-.74,.52-.11,1.04-.22,1.56-.32v.68c0,1.8,1.12,2.92,2.91,2.93,.81,0,1.63,0,2.44,0h.34c.73,0,1.16-.29,1.17-.8,0-.24-.06-.44-.21-.59Zm-6.67-5.71c0,.59,0,1.17,0,1.77l-4.26,.86s.03-.06,.05-.09c.09-.17,.18-.32,.24-.48,.34-.87,.19-1.66-.44-2.38-.57-.64-1.14-1.28-1.72-1.92l-.81-.9c-.11-.12-.22-.25-.35-.39l-.13-.15c.11-.05,.23-.1,.33-.14,.3-.13,.58-.25,.86-.38,.27-.13,.45-.32,.53-.55,.06-.19,.04-.39-.06-.58-.24-.46-.65-.6-1.16-.38l-.35,.15c-1.03,.43-2.06,.87-3.09,1.3-.96,.41-1.81,.15-2.21-.67-.45-.9-.13-1.86,.78-2.33,1.32-.68,2.64-1.33,3.63-1.83,.69-.34,1.37-.38,2.03-.12,2.13,.83,4.25,1.66,6.38,2.5,0,0,0,0,0,0-.03,.22-.06,.43-.09,.64-.07,.48-.14,.94-.15,1.4-.02,1.55-.02,3.06-.01,4.67Zm-21.38-4.89c0-.35,.1-.5,.45-.63,1.49-.58,3-1.19,4.46-1.77l.72-.29c.71-.29,1.27-.28,1.83,.01l-.05,.12c-.05,.12-.1,.24-.15,.35-.58,1.3-.32,2.78,.65,3.77,.93,.94,2.4,1.21,3.67,.68,.13-.05,.24-.1,.33-.14q.44-.2,.73,.14c.07,.08,.15,.17,.25,.28,.68,.74,1.36,1.51,2.02,2.25l.7,.78c.23,.25,.32,.45,.31,.62-.01,.17-.14,.34-.39,.55-.88,.73-1.76,1.45-2.64,2.18-1.37,1.13-2.74,2.26-4.1,3.39-.37,.3-.64,.31-1.01,.01-1.62-1.28-3.3-2.57-4.99-3.84-.19-.15-.49-.23-.89-.25-.27-.01-.53-.02-.8-.02-.18,0-.37,0-.55,0-.16,0-.33,0-.49,0,0-.04,0-.08-.01-.11-.01-.12-.02-.22-.02-.33,0-.78,0-1.55,0-2.33,0-1.78,0-3.61-.01-5.42Z"/><path class="cls-1" d="M422.74,16.25c.53,.54,1.06,1.09,1.58,1.63,.24,.25,.46,.37,.68,.37h0c.22,0,.43-.11,.66-.35,.49-.51,.98-1.02,1.47-1.52,1.74-1.8,3.54-3.66,5.26-5.54,1.31-1.43,1.48-3.71,.4-5.41-1.13-1.78-3.16-2.6-5.17-2.09-.92,.23-1.73,.75-2.61,1.67l-.11-.1c-.13-.12-.24-.22-.35-.33-1.94-1.84-4.72-1.86-6.61-.05-1.83,1.76-1.91,4.62-.17,6.51,1.62,1.77,3.33,3.52,4.97,5.22Zm-4.48-8.97c.18-1.02,.9-1.86,1.91-2.23,.35-.13,.71-.19,1.07-.19,.66,0,1.31,.22,1.83,.66,.27,.22,.52,.47,.77,.72,.15,.14,.29,.29,.44,.43,.55,.52,.91,.52,1.47,0,.16-.15,.31-.3,.47-.46,.17-.17,.35-.35,.53-.51,.85-.78,2.26-1.05,3.22-.61,1.23,.56,1.97,1.76,1.83,2.97-.08,.68-.32,1.31-.64,1.66-1.48,1.63-2.98,3.19-4.56,4.84-.52,.54-1.05,1.09-1.57,1.64l-1.68-1.76c-1.47-1.53-2.91-3.04-4.35-4.55-.66-.7-.9-1.57-.72-2.6Z"/></g><g><g id="n2cFZR"><g><path class="cls-2" d="M14.44,29.1c-.43,.91-.77,1.79-1.24,2.6-.91,1.6-2.37,2.61-4.06,3.19-1.96,.67-3.96,1.23-5.96,1.75-1.34,.34-2.78-.67-3.1-2.04-.35-1.51,.49-2.91,2-3.35,1.54-.44,3.07-.91,4.61-1.33,1.44-.4,2.17-1.32,2.47-2.78,.65-3.12,1.81-6.09,3.03-9.02,.07-.16,.12-.32,.18-.48-1.72-.65-3.53-.17-4.31,1.13-.16,.27-.27,.57-.35,.87-.45,1.6-1.86,2.46-3.4,2.07-1.48-.37-2.32-1.86-1.91-3.43,.86-3.33,2.98-5.45,6.33-6.18,2.26-.49,4.53-.17,6.73,.51,1.83,.57,3.62,1.22,5.58,1.25,1.01,.02,1.78-.29,2.16-1.21,.3-.72,.48-1.5,.64-2.26,.29-1.31,1.51-2.27,2.86-2.17,1.38,.1,2.52,1.17,2.52,2.52,0,.88-.12,1.78-.37,2.62-.67,2.28-1.9,4.16-4.09,5.27-1.81,.92-3.74,.87-5.68,.66-.43-.05-.85-.15-1.31-.24-.45,1.13-.91,2.24-1.34,3.36-.05,.12,.06,.37,.18,.48,2.43,2.29,3.82,5.1,4.26,8.39,.27,2.01,.04,3.98-.63,5.89-.53,1.51-1.99,2.2-3.48,1.71-1.39-.46-2.16-1.96-1.72-3.44,.58-1.95,.5-3.86-.26-5.74-.06-.15-.12-.29-.19-.43-.03-.07-.09-.12-.14-.19Zm-3.61-15.55c-.3,0-.59-.01-.89,0-2.94,.14-5.48,2.34-6.04,5.21-.13,.65,.19,1.25,.77,1.42,.58,.18,1.18-.14,1.43-.75,.07-.16,.08-.35,.18-.5,.42-.68,.75-1.46,1.31-1.99,1.32-1.27,4.62-1.53,6.23-.6,.41,.24,.57,.58,.37,1.05-.2,.47-.38,.96-.57,1.43-1.27,3.01-2.35,6.07-3.07,9.26-.28,1.25-.93,2.3-2.15,2.81-1.18,.49-2.4,.87-3.62,1.26-.75,.24-1.53,.4-2.28,.63-.48,.15-.83,.46-.89,1-.06,.47,.11,.91,.53,1.1,.33,.15,.78,.2,1.13,.11,1.64-.43,3.28-.88,4.89-1.41,1.87-.62,3.4-1.71,4.18-3.59,.39-.94,.57-1.97,.91-2.94,.11-.31,.39-.66,.68-.79,.42-.18,.71,.18,.96,.52,2.06,2.75,2.65,5.76,1.69,9.07-.21,.72,.1,1.35,.72,1.54,.67,.21,1.27-.12,1.5-.87,1.03-3.3,.69-6.47-.94-9.51-.7-1.31-1.66-2.4-2.78-3.35-.34-.28-.6-.6-.41-1.07,.62-1.58,1.25-3.16,1.88-4.73,.19-.48,.56-.63,1.06-.52,.42,.1,.84,.22,1.27,.29,1.74,.31,3.48,.42,5.11-.4,2.42-1.23,3.37-3.43,3.69-5.98,.1-.8-.31-1.36-.98-1.44-.73-.09-1.17,.4-1.37,1.22-.24,.96-.53,1.95-1,2.81-.58,1.06-1.6,1.59-2.86,1.59-1.62,0-3.19-.22-4.71-.77-1.91-.68-3.84-1.23-5.89-1.14Z"/><path class="cls-2" d="M17.66,11.37c-2.52,.07-5.11-2.2-5.02-5.27,.08-2.88,2.47-5.07,5.39-4.98,2.78,.08,4.97,2.48,4.89,5.35-.08,2.78-2.44,4.99-5.26,4.91Zm-3.41-5.13c0,1.98,1.55,3.56,3.5,3.57,1.98,0,3.62-1.62,3.6-3.56-.01-1.96-1.62-3.54-3.56-3.53-1.99,.02-3.53,1.56-3.54,3.53Z"/></g></g><path class="cls-1" d="M31.61,35.12c0,2.23-1.77,3.96-4.01,3.94-2.12-.02-3.86-1.77-3.88-3.91-.01-2.18,1.78-4.01,3.93-3.99,2.21,.02,3.97,1.77,3.97,3.95Zm-3.94,2.37c1.32,0,2.38-1.07,2.37-2.37-.01-1.31-1.09-2.36-2.4-2.34-1.3,.02-2.33,1.05-2.34,2.34,0,1.32,1.05,2.38,2.36,2.38Z"/></g><g><g id="_0owwev"><path class="cls-2" d="M253.28,20.44v-6.16h-4.73v.68c0,7.24,0,14.47,0,21.71,0,.87-.26,1.29-.8,1.28-.54,0-.78-.4-.79-1.29,0-.55,0-1.11-.02-1.66,0-.04-.03-.07-.07-.15h-9.41c0,.72,0,1.42,0,2.13,0,.4-.09,.74-.52,.9-.55,.21-1.03-.14-1.04-.83-.03-1.05-.02-2.09-.02-3.14,0-7.41,0-14.82,.02-22.24,0-.37-.05-.57-.49-.7-1.13-.34-1.44-1.62-.67-2.59,1.28-1.61,2.57-3.21,3.85-4.81,.73-.91,1.46-1.82,2.18-2.73,.89-1.11,1.96-1.12,2.85-.01,1.97,2.45,3.88,4.94,5.91,7.34,1.01,1.19,.57,2.67-.97,2.96v1.52c.25,0,.48,0,.72,0,6.58,0,13.17,0,19.75,0,.75,0,1.5,0,2.25,0,.6,0,.96,.32,.96,.81,0,.44-.37,.75-.94,.78-.18,0-.35,0-.63,0v.77c0,7.18,0,14.35,0,21.53,0,.26,0,.51-.04,.77-.06,.42-.36,.63-.74,.63-.38,0-.69-.19-.75-.61-.04-.25-.04-.51-.04-.77,0-7.16,0-14.31,0-21.47v-.81h-4.74c0,1-.01,2.02,.02,3.04l-1.67-.06c.07-.17,.06-2.16,.06-2.97h-7.87c-.01,.16-.03,.34-.03,.51,0,1.78,0,3.88,0,5.66h-1.59Zm-15.77-1.51h9.42v-7.8h-9.42v7.8Zm4.71-17.35c-2.13,2.66-4.19,5.23-6.28,7.85h12.56c-2.11-2.64-4.17-5.21-6.28-7.85Zm4.7,22.1v-3.08h-9.39v3.08h9.39Zm0,1.68h-9.41v3.05h9.41v-3.05Zm.04,7.82c0-.85-.01-1.68,0-2.5,.01-.42-.13-.59-.57-.59-2.84,0-5.68-.02-8.52-.04-.11,0-.23,.03-.35,.05v3.07h9.44Z"/></g><path class="cls-1" d="M256.92,24.16c0,1.56-1.25,2.78-2.82,2.77-1.49-.01-2.72-1.24-2.73-2.75-.01-1.53,1.25-2.81,2.76-2.8,1.55,.01,2.79,1.24,2.79,2.77Zm-2.77,1.66c.93,0,1.67-.75,1.67-1.67,0-.92-.76-1.66-1.69-1.65-.91,.01-1.64,.74-1.64,1.65,0,.93,.74,1.67,1.66,1.67Z"/><path class="cls-1" d="M266.49,20.61c0,1.56-1.25,2.78-2.82,2.77-1.49-.01-2.72-1.24-2.73-2.75-.01-1.53,1.25-2.81,2.76-2.8,1.55,.01,2.79,1.24,2.79,2.77Zm-2.77,1.66c.93,0,1.67-.75,1.67-1.67,0-.92-.76-1.66-1.69-1.65-.91,.01-1.64,.74-1.64,1.65,0,.93,.74,1.67,1.66,1.67Z"/></g></g></svg>