<?xml version="1.0" encoding="UTF-8"?><svg id="Layer_2" xmlns="http://www.w3.org/2000/svg" viewBox="0 0 560.46 50"><defs><style>.cls-1{fill:#fff;}.cls-2{fill:#57a57b;}</style></defs><g id="Layer_2-2"><g><polygon class="cls-2" points="14.66 24.98 0 0 24.4 0 39.06 25 24.4 50 0 50 14.66 24.98"/><g><path class="cls-1" d="M182.37,13.59V.09h-51.15V49.1h51.15v-13.49h-30.4v-5.66h30.4v-11.61h-30.4v-4.76h30.4Z"/><path class="cls-1" d="M126.65,.09V15h-20.18V49.1h-20.74V15h-20.09V.09h61.02Z"/><path class="cls-1" d="M234.02,.09h-31.46l-17.41,49.01h21.44l3.23-10.38h16.95l3.22,10.38h21.45L234.02,.09Zm-20.01,25.4l4.02-12.95h.56l4.07,12.95h-8.64Z"/><path class="cls-1" d="M339.49,49.1h-18.53V15.64l-8.22,33.45h-29.98l-8.22-33.45V49.1h-18.53V.1h34.73l7.01,32.23L304.76,.1h34.73V49.1Z"/><path class="cls-1" d="M385.26,49.07V15.04h-18.62V.09h59.02V15.06h-18.62V49.09l-21.77-.02ZM537.23,.09l-14.15,13.95L509.39,.09h-22.71l23.35,23.41-23.41,25.58h22.79l13.95-15.86,13.9,15.86h23.2l-24.03-25.86L560.36,.09h-23.13Zm-41.25,24.5c0,7.85-3.52,13.9-8.72,18.14-5.2,4.23-12.6,6.36-22.22,6.36h-35.3V.09h35.29c9.62,0,17.03,2.12,22.22,6.36,5.2,4.22,8.72,10.27,8.72,18.12v.02Zm-20.28,0c0-3.05-1.41-5.93-3.8-7.81-2.18-1.81-5.33-2.73-9.33-2.73h-12.05v21.1h12.05c4.01,0,7.15-.93,9.33-2.73,2.4-1.89,3.79-4.78,3.79-7.84v.02Z"/></g></g></g></svg>