<?xml version="1.0" encoding="UTF-8"?><svg id="Layer_2" xmlns="http://www.w3.org/2000/svg" viewBox="0 0 648.13 50"><defs><style>.cls-1{fill:#57a57b;}</style></defs><g id="Layer_2-2"><polygon class="cls-1" points="14.66 24.98 0 0 24.4 0 39.06 25 24.4 50 0 50 14.66 24.98"/><g><path d="M68.19,29.49V.09h20.74V29.22c0,5.09,3.72,7.87,10.6,7.87s10.6-2.84,10.6-8V.09h20.65V29.37c0,12.9-9.21,20.63-31.25,20.63s-31.35-7.67-31.35-20.51Z"/><path d="M255.22,13.59V.09h-51.15V49.1h51.15v-13.49h-30.4v-5.66h30.4v-11.61h-30.4v-4.76h30.4Z"/><path d="M369.98,49.1l-13.86-16.57h-8.09v16.57h-20.74V.09h30.42c18.79,0,30.32,6.45,30.32,16.31,0,6-4.19,10.77-12,13.48l17.21,19.21h-23.25Zm-21.95-37.85v10.25h9.58c5.95,0,9.12-2.13,9.12-5.09s-3.16-5.16-9.12-5.16h-9.58Z"/><path d="M452.26,.09V15h-20.18V49.1h-20.74V15h-20.09V.09h61.02Z"/><polygon points="177.65 0 177.65 24.52 156.87 0 136.13 0 136.13 49 156.87 49 156.87 24.48 177.65 49 198.39 49 198.39 0 177.65 0"/><path d="M306.88,.09h-31.46l-17.41,49.01h21.44l3.23-10.38h16.95l3.22,10.38h21.45L306.88,.09Zm-20.01,25.4l4.02-12.95h.56l4.07,12.95h-8.64Z"/><path d="M500.3,.09h20.74V49.1h-20.74V30.72h-21.77v18.38h-20.74V.09h20.74V17.7h21.77V.09Z"/><path d="M611.2,.09c21.86,0,36.93,7.29,36.93,24.5s-15.07,24.5-36.93,24.5h-28.37V.09h28.37Zm.47,35.51c9.67,0,15.16-2.63,15.16-11.01s-5.49-11.01-15.16-11.01h-8.09v22.02h8.09Z"/><path d="M577.83,13.59V.09h-51.15V49.1h51.15v-13.49h-30.4v-5.66h30.4v-11.61h-30.4v-4.76h30.4Z"/></g></g></svg>