<?xml version="1.0" encoding="UTF-8"?><svg id="Layer_2" xmlns="http://www.w3.org/2000/svg" viewBox="0 0 960 1200"><defs><style>.cls-1{opacity:.9;}.cls-1,.cls-2,.cls-3,.cls-4,.cls-5,.cls-6,.cls-7{fill:none;stroke:#57a57b;stroke-miterlimit:10;stroke-width:1.02px;}.cls-8{fill:#fff;}.cls-9{fill:#57a57b;}.cls-2{opacity:.6;}.cls-3{opacity:.7;}.cls-4{opacity:.5;}.cls-5{opacity:.4;}.cls-6{opacity:.8;}.cls-7{opacity:.3;}</style></defs><g id="Layer_1-2"><path d="M0,0V1200H960V0H0ZM592.63,800.76l-113.96-129.91-114.33,129.91H177.44l191.83-209.69-191.45-191.83h186.14l112.43,114.34,115.86-114.34h189.55l-196.01,189.56,196.77,211.96h-189.93Z"/><g><polyline class="cls-4" points=".53 425.41 160.7 591.49 .53 769.66"/><polyline class="cls-2" points="15.87 398.53 201.96 591.5 15.86 798.53"/><polyline class="cls-3" points="57.14 398.53 243.23 591.5 57.13 798.53"/><polyline class="cls-6" points="98.41 398.53 284.5 591.5 98.4 798.53"/><polyline class="cls-1" points="139.67 398.53 325.77 591.5 139.66 798.53"/><polyline class="cls-7" points=".53 510.99 78.16 591.49 .53 677.85"/><polyline class="cls-5" points=".53 468.19 119.43 591.49 .53 723.76"/></g><g><path class="cls-8" d="M269.67,850.81c19.28,0,29.4,9.06,29.4,23.01s-10.13,23.01-29.4,23.01h-8.97v21.5h-19.81v-67.51h28.78Zm0,30.38c6.04,0,9.06-3.02,9.06-7.37s-3.02-7.28-9.06-7.28h-8.97v14.66h8.97Z"/><path class="cls-8" d="M325.63,902.34h30.47v15.99h-50.28v-67.51h49.48v15.99h-29.67v9.15h29.05v15.99h-29.05v10.39Z"/><path class="cls-8" d="M405.93,918.32l-13.24-22.83h-7.73v22.83h-19.81v-67.51h29.05c17.94,0,28.96,8.88,28.96,22.48,0,8.26-4,14.84-11.46,18.57l16.43,26.47h-22.21Zm-20.97-52.15v14.12h9.15c5.69,0,8.71-2.93,8.71-7.02s-3.02-7.11-8.71-7.11h-9.15Z"/><path class="cls-8" d="M433.46,918.32v-67.51h19.81v67.51h-19.81Z"/><path class="cls-8" d="M483.82,902.34h30.47v15.99h-50.28v-67.51h49.48v15.99h-29.67v9.15h29.05v15.99h-29.05v10.39Z"/><path class="cls-8" d="M573.54,850.81h17.94v67.51h-34.02l-16.08-61.74v61.74h-18.03v-67.51h34.11l16.08,61.74v-61.74Z"/><path class="cls-8" d="M599.38,884.57c0-22.21,15.19-35,34.73-35,16.7,0,30.38,8.62,33.93,25.58h-20.61c-1.87-5.69-5.51-10.39-13.32-10.39-8.62,0-14.39,7.19-14.39,19.81s5.95,19.81,14.66,19.81c6.66,0,11.37-3.73,13.41-10.57h20.61c-4.26,18.3-17.77,25.76-34.02,25.76-19.72,0-35-12.79-35-35Z"/><path class="cls-8" d="M694.69,902.34h30.47v15.99h-50.28v-67.51h49.48v15.99h-29.67v9.15h29.05v15.99h-29.05v10.39Z"/></g><g><path class="cls-8" d="M358.26,281.9v16.58h-19.99v53.42h-20.54v-53.42h-19.89v-16.58h60.42Z"/><path class="cls-8" d="M407.34,281.9h20.54v70h-20.54v-26.25h-21.55v26.25h-20.54v-70h20.54v25.14h21.55v-25.14Z"/><path class="cls-8" d="M459.47,335.32h31.59v16.58h-52.13v-70h51.3v16.58h-30.76v9.49h30.12v16.58h-30.12v10.78Z"/><path class="cls-8" d="M596.56,281.9v16.58h-19.99v53.42h-20.54v-53.42h-19.89v-16.58h60.42Z"/><path class="cls-8" d="M631.64,281.9c21.64,0,36.57,10.41,36.57,35s-14.92,35-36.57,35h-28.09v-70h28.09Zm.46,53.42c9.58,0,15.01-6.45,15.01-18.42s-5.43-18.42-15.01-18.42h-8.01v36.84h8.01Z"/></g><path class="cls-9" d="M771.91,403.24l-188.9,182.68-2.82,2.72,2.67,2.87,190.53,205.24h-178.95l-112.76-128.55-3-3.42-3.01,3.42-113.14,128.55H186.52l185.7-202.99,2.58-2.82-2.7-2.71-184.64-185h174.82l111.25,113.14,2.81,2.86,2.85-2.81,114.69-113.19h178.02m9.89-4h-189.55l-115.86,114.34-112.43-114.34H177.82l191.45,191.83-191.83,209.69h186.9l114.33-129.91,113.96,129.91h189.93l-196.77-211.96,196.01-189.56h0Z"/></g></svg>