<?xml version="1.0" encoding="UTF-8"?><svg id="Layer_2" xmlns="http://www.w3.org/2000/svg" viewBox="0 0 960 1200"><defs><style>.cls-1{opacity:.9;}.cls-1,.cls-2,.cls-3,.cls-4,.cls-5,.cls-6,.cls-7{fill:none;stroke:#57a57b;stroke-miterlimit:10;stroke-width:1.02px;}.cls-8{fill:#57a57b;}.cls-2{opacity:.6;}.cls-3{opacity:.7;}.cls-4{opacity:.5;}.cls-5{opacity:.4;}.cls-6{opacity:.8;}.cls-7{opacity:.3;}</style></defs><g id="Layer_1-2"><path d="M0,0V1200H960V0H0ZM592.63,800.76l-113.96-129.91-114.33,129.91H177.44l191.83-209.69-191.45-191.83h186.14l112.43,114.34,115.86-114.34h189.55l-196.01,189.56,196.77,211.96h-189.93Z"/><g><polyline class="cls-4" points=".53 425.41 160.7 591.49 .53 769.66"/><polyline class="cls-2" points="15.87 398.53 201.96 591.5 15.86 798.53"/><polyline class="cls-3" points="57.14 398.53 243.23 591.5 57.13 798.53"/><polyline class="cls-6" points="98.41 398.53 284.5 591.5 98.4 798.53"/><polyline class="cls-1" points="139.67 398.53 325.77 591.5 139.66 798.53"/><polyline class="cls-7" points=".53 510.99 78.16 591.49 .53 677.85"/><polyline class="cls-5" points=".53 468.19 119.43 591.49 .53 723.76"/></g><path class="cls-8" d="M771.91,403.24l-188.9,182.68-2.82,2.72,2.67,2.87,190.53,205.24h-178.95l-112.76-128.55-3-3.42-3.01,3.42-113.14,128.55H186.52l185.7-202.99,2.58-2.82-2.7-2.71-184.64-185h174.82l111.25,113.14,2.81,2.86,2.85-2.81,114.69-113.19h178.02m9.89-4h-189.55l-115.86,114.34-112.43-114.34H177.82l191.45,191.83-191.83,209.69h186.9l114.33-129.91,113.96,129.91h189.93l-196.77-211.96,196.01-189.56h0Z"/></g></svg>