<?xml version="1.0" encoding="UTF-8"?><svg id="Layer_2" xmlns="http://www.w3.org/2000/svg" viewBox="0 0 1200 659"><defs><style>.cls-1{opacity:.9;}.cls-1,.cls-2,.cls-3,.cls-4,.cls-5,.cls-6,.cls-7{fill:none;stroke:#57a57b;stroke-miterlimit:10;stroke-width:1.02px;}.cls-8{fill:#57a57b;}.cls-2{opacity:.6;}.cls-3{opacity:.7;}.cls-4{opacity:.5;}.cls-5{opacity:.4;}.cls-6{opacity:.8;}.cls-7{opacity:.3;}</style></defs><g id="Layer_1-2"><g><path d="M0,0V659H1200V0H0ZM712.63,530.26l-113.96-129.91-114.33,129.91h-186.9l191.83-209.69-191.45-191.83h186.14l112.43,114.34,115.86-114.34h189.55l-196.01,189.56,196.77,211.96h-189.93Z"/><g><polyline class="cls-4" points="35.68 155.75 195.85 321.83 35.68 500"/><polyline class="cls-2" points="51.02 128.86 237.11 321.83 51.01 528.86"/><polyline class="cls-3" points="92.29 128.86 278.38 321.83 92.28 528.86"/><polyline class="cls-6" points="133.56 128.86 319.65 321.83 133.54 528.86"/><polyline class="cls-1" points="174.82 128.86 360.91 321.83 174.81 528.86"/><polyline class="cls-1" points="216.09 128.86 402.18 321.83 216.08 528.86"/><polyline class="cls-1" points="257.36 128.86 443.45 321.83 257.35 528.86"/><polyline class="cls-7" points="35.68 241.33 113.31 321.83 35.68 408.19"/><polyline class="cls-5" points="35.68 198.53 154.58 321.83 35.68 454.1"/></g></g><path class="cls-8" d="M896.85,130.74l-192.46,186.12-1.41,1.36,1.33,1.44,193.65,208.6h-184.44l-113.36-129.23-1.5-1.71-1.5,1.71-113.73,129.23h-181.46l188.77-206.34,1.29-1.41-1.35-1.35-188.04-188.42h180.48l111.84,113.74,1.4,1.43,1.43-1.41,115.28-113.76h183.78m4.94-2h-189.55l-115.86,114.34-112.43-114.34h-186.14l191.45,191.83-191.83,209.69h186.9l114.33-129.91,113.96,129.91h189.93l-196.77-211.96,196.01-189.56h0Z"/></g></svg>